%TF.GenerationSoftware,KiCad,Pcbnew,7.0.10*%
%TF.CreationDate,2024-03-28T21:50:04-04:00*%
%TF.ProjectId,WaveWise_PMIC,57617665-5769-4736-955f-504d49432e6b,rev?*%
%TF.SameCoordinates,Original*%
%TF.FileFunction,Soldermask,Bot*%
%TF.FilePolarity,Negative*%
%FSLAX46Y46*%
G04 Gerber Fmt 4.6, Leading zero omitted, Abs format (unit mm)*
G04 Created by KiCad (PCBNEW 7.0.10) date 2024-03-28 21:50:04*
%MOMM*%
%LPD*%
G01*
G04 APERTURE LIST*
G04 Aperture macros list*
%AMRoundRect*
0 Rectangle with rounded corners*
0 $1 Rounding radius*
0 $2 $3 $4 $5 $6 $7 $8 $9 X,Y pos of 4 corners*
0 Add a 4 corners polygon primitive as box body*
4,1,4,$2,$3,$4,$5,$6,$7,$8,$9,$2,$3,0*
0 Add four circle primitives for the rounded corners*
1,1,$1+$1,$2,$3*
1,1,$1+$1,$4,$5*
1,1,$1+$1,$6,$7*
1,1,$1+$1,$8,$9*
0 Add four rect primitives between the rounded corners*
20,1,$1+$1,$2,$3,$4,$5,0*
20,1,$1+$1,$4,$5,$6,$7,0*
20,1,$1+$1,$6,$7,$8,$9,0*
20,1,$1+$1,$8,$9,$2,$3,0*%
G04 Aperture macros list end*
%ADD10RoundRect,0.250000X-0.350000X-0.650000X0.350000X-0.650000X0.350000X0.650000X-0.350000X0.650000X0*%
%ADD11O,1.200000X1.800000*%
%ADD12C,1.300000*%
%ADD13RoundRect,0.250000X-0.650000X0.350000X-0.650000X-0.350000X0.650000X-0.350000X0.650000X0.350000X0*%
%ADD14O,1.800000X1.200000*%
%ADD15RoundRect,0.250000X0.650000X-0.350000X0.650000X0.350000X-0.650000X0.350000X-0.650000X-0.350000X0*%
%ADD16O,2.020000X1.500000*%
%ADD17RoundRect,0.250001X-0.759999X0.499999X-0.759999X-0.499999X0.759999X-0.499999X0.759999X0.499999X0*%
%ADD18C,3.000000*%
%ADD19R,1.650000X1.650000*%
%ADD20C,1.650000*%
%ADD21R,1.500000X1.500000*%
%ADD22C,1.500000*%
%ADD23C,5.700000*%
%ADD24R,2.000000X2.000000*%
%ADD25C,2.000000*%
%ADD26C,1.651000*%
%ADD27C,2.400000*%
%ADD28O,2.400000X2.400000*%
%ADD29C,1.498600*%
%ADD30C,1.803400*%
%ADD31R,1.803400X1.803400*%
%ADD32O,3.200000X3.200000*%
%ADD33R,3.200000X3.200000*%
%ADD34C,1.600000*%
%ADD35R,2.200000X2.200000*%
%ADD36O,2.200000X2.200000*%
%ADD37O,1.700000X1.700000*%
%ADD38R,1.700000X1.700000*%
%ADD39O,1.800000X1.800000*%
%ADD40O,1.500000X1.500000*%
%ADD41R,1.600000X1.600000*%
G04 APERTURE END LIST*
D10*
%TO.C,J11*%
X102378000Y-55214000D03*
D11*
X104378000Y-55214000D03*
%TD*%
D12*
%TO.C,J10*%
X123396000Y-53314000D03*
D10*
X119396000Y-55214000D03*
D11*
X121396000Y-55214000D03*
%TD*%
D12*
%TO.C,J9*%
X137155000Y-68992000D03*
D13*
X135255000Y-62992000D03*
D14*
X135255000Y-64992000D03*
X135255000Y-66992000D03*
%TD*%
D12*
%TO.C,J8*%
X53472000Y-99157000D03*
D15*
X55372000Y-115157000D03*
D14*
X55372000Y-113157000D03*
X55372000Y-111157000D03*
X55372000Y-109157000D03*
X55372000Y-107157000D03*
X55372000Y-105157000D03*
X55372000Y-103157000D03*
X55372000Y-101157000D03*
%TD*%
D12*
%TO.C,J6*%
X53472000Y-81974500D03*
D15*
X55372000Y-89974500D03*
D14*
X55372000Y-87974500D03*
X55372000Y-85974500D03*
X55372000Y-83974500D03*
%TD*%
D16*
%TO.C,J5*%
X130048000Y-85090000D03*
X130048000Y-82090000D03*
X130048000Y-79090000D03*
D17*
X130048000Y-76090000D03*
D18*
X134368000Y-78240000D03*
X134368000Y-82940000D03*
%TD*%
D19*
%TO.C,J2*%
X60071000Y-78486000D03*
D20*
X60071000Y-75946000D03*
X60071000Y-73406000D03*
X60071000Y-70866000D03*
X60071000Y-68326000D03*
X60071000Y-65786000D03*
%TD*%
D21*
%TO.C,Q2*%
X98150000Y-102108000D03*
D22*
X98150000Y-99568000D03*
X98150000Y-97028000D03*
%TD*%
D21*
%TO.C,BatteryV1*%
X111760000Y-53848000D03*
%TD*%
D23*
%TO.C,HE1*%
X54610000Y-127000000D03*
%TD*%
D24*
%TO.C,C6*%
X86186000Y-109728000D03*
D25*
X91186000Y-109728000D03*
%TD*%
D26*
%TO.C,J3*%
X73406000Y-105664000D03*
X75946000Y-105664000D03*
X78486000Y-105664000D03*
%TD*%
D27*
%TO.C,R7*%
X124206000Y-92964000D03*
D28*
X124206000Y-113284000D03*
%TD*%
D29*
%TO.C,K1*%
X104902000Y-97728002D03*
D30*
X117101198Y-109728000D03*
D29*
X104902000Y-109728000D03*
D31*
X102901999Y-103728001D03*
%TD*%
D25*
%TO.C,24V_1*%
X63500000Y-115062000D03*
%TD*%
D30*
%TO.C,J13*%
X133050000Y-110832900D03*
X133050000Y-103212900D03*
X133050000Y-95592900D03*
%TD*%
D32*
%TO.C,D1*%
X120650000Y-127508000D03*
D33*
X105410000Y-127508000D03*
%TD*%
D23*
%TO.C,H4*%
X135890000Y-127000000D03*
%TD*%
D34*
%TO.C,C2*%
X119848000Y-93726000D03*
X114848000Y-93726000D03*
%TD*%
D23*
%TO.C,H1*%
X54610000Y-54610000D03*
%TD*%
D21*
%TO.C,PanelV1*%
X93218000Y-55118000D03*
%TD*%
D25*
%TO.C,GND1*%
X96774000Y-114046000D03*
%TD*%
D35*
%TO.C,D2*%
X98552000Y-93726000D03*
D36*
X108712000Y-93726000D03*
%TD*%
D25*
%TO.C,U2*%
X123988500Y-66978200D03*
D22*
X126884100Y-66825800D03*
X126884100Y-69365800D03*
D25*
X123988500Y-73978200D03*
D22*
X126884100Y-76985800D03*
D25*
X123988500Y-77478200D03*
D22*
X126884100Y-79525800D03*
D25*
X123988500Y-80978200D03*
D22*
X126884100Y-82065800D03*
D25*
X123988500Y-84478200D03*
D22*
X126884100Y-84605800D03*
X109129500Y-89762000D03*
X106589500Y-89762000D03*
X104049500Y-89762000D03*
X101509500Y-89762000D03*
X96429500Y-89762000D03*
X96429500Y-87222000D03*
X96429500Y-84682000D03*
X96429500Y-82142000D03*
X96429500Y-79602000D03*
X96429500Y-77062000D03*
X96429500Y-74522000D03*
X96429500Y-71982000D03*
X96429500Y-69442000D03*
X96429500Y-64362000D03*
X96429500Y-61822000D03*
X114184100Y-61745800D03*
D21*
X96429500Y-66902000D03*
X114184100Y-66825800D03*
D24*
X123988500Y-70478200D03*
D21*
X126884100Y-71905800D03*
X126884100Y-74445800D03*
%TD*%
D23*
%TO.C,H2*%
X135890000Y-54610000D03*
%TD*%
D25*
%TO.C,C1*%
X130394323Y-121158000D03*
D24*
X125394323Y-121158000D03*
%TD*%
D25*
%TO.C,5V1*%
X128778000Y-57658000D03*
%TD*%
D37*
%TO.C,U1*%
X78486000Y-100862000D03*
D38*
X75946000Y-100862000D03*
D37*
X73406000Y-100862000D03*
X84836000Y-52832000D03*
X84836000Y-55372000D03*
D38*
X84836000Y-57912000D03*
D37*
X84836000Y-60452000D03*
X84836000Y-62992000D03*
X84836000Y-65532000D03*
X84836000Y-68072000D03*
D38*
X84836000Y-70612000D03*
D37*
X84836000Y-73152000D03*
X84836000Y-75692000D03*
X84836000Y-78232000D03*
X84836000Y-80772000D03*
D38*
X84836000Y-83312000D03*
D37*
X84836000Y-85852000D03*
X84836000Y-88392000D03*
X84836000Y-90932000D03*
X84836000Y-93472000D03*
D38*
X84836000Y-96012000D03*
D37*
X84836000Y-98552000D03*
X84836000Y-101092000D03*
X67056000Y-101092000D03*
X67056000Y-98552000D03*
D38*
X67056000Y-96012000D03*
D37*
X67056000Y-93472000D03*
X67056000Y-90932000D03*
X67056000Y-88392000D03*
X67056000Y-85852000D03*
D38*
X67056000Y-83312000D03*
D37*
X67056000Y-80772000D03*
X67056000Y-78232000D03*
X67056000Y-75692000D03*
X67056000Y-73152000D03*
D38*
X67056000Y-70612000D03*
D37*
X67056000Y-68072000D03*
X67056000Y-65532000D03*
X67056000Y-62992000D03*
X67056000Y-60452000D03*
D38*
X67056000Y-57912000D03*
D37*
X67056000Y-55372000D03*
X67056000Y-52832000D03*
D39*
X78671000Y-52962000D03*
D40*
X78371000Y-55992000D03*
X73521000Y-55992000D03*
D39*
X73221000Y-52962000D03*
%TD*%
D41*
%TO.C,C9*%
X59827349Y-121793000D03*
D34*
X64827349Y-121793000D03*
%TD*%
M02*
