%TF.GenerationSoftware,KiCad,Pcbnew,7.0.10*%
%TF.CreationDate,2024-03-28T21:50:04-04:00*%
%TF.ProjectId,WaveWise_PMIC,57617665-5769-4736-955f-504d49432e6b,rev?*%
%TF.SameCoordinates,Original*%
%TF.FileFunction,Paste,Top*%
%TF.FilePolarity,Positive*%
%FSLAX46Y46*%
G04 Gerber Fmt 4.6, Leading zero omitted, Abs format (unit mm)*
G04 Created by KiCad (PCBNEW 7.0.10) date 2024-03-28 21:50:04*
%MOMM*%
%LPD*%
G01*
G04 APERTURE LIST*
G04 Aperture macros list*
%AMRoundRect*
0 Rectangle with rounded corners*
0 $1 Rounding radius*
0 $2 $3 $4 $5 $6 $7 $8 $9 X,Y pos of 4 corners*
0 Add a 4 corners polygon primitive as box body*
4,1,4,$2,$3,$4,$5,$6,$7,$8,$9,$2,$3,0*
0 Add four circle primitives for the rounded corners*
1,1,$1+$1,$2,$3*
1,1,$1+$1,$4,$5*
1,1,$1+$1,$6,$7*
1,1,$1+$1,$8,$9*
0 Add four rect primitives between the rounded corners*
20,1,$1+$1,$2,$3,$4,$5,0*
20,1,$1+$1,$4,$5,$6,$7,0*
20,1,$1+$1,$6,$7,$8,$9,0*
20,1,$1+$1,$8,$9,$2,$3,0*%
G04 Aperture macros list end*
%ADD10RoundRect,0.250000X-0.450000X0.350000X-0.450000X-0.350000X0.450000X-0.350000X0.450000X0.350000X0*%
%ADD11RoundRect,0.250000X0.262500X0.450000X-0.262500X0.450000X-0.262500X-0.450000X0.262500X-0.450000X0*%
%ADD12R,5.400000X2.900000*%
%ADD13RoundRect,0.250000X0.350000X0.450000X-0.350000X0.450000X-0.350000X-0.450000X0.350000X-0.450000X0*%
%ADD14R,0.939800X2.489200*%
%ADD15R,5.511800X5.918200*%
%ADD16RoundRect,0.250000X0.450000X-0.350000X0.450000X0.350000X-0.450000X0.350000X-0.450000X-0.350000X0*%
%ADD17RoundRect,0.250000X-0.262500X-0.450000X0.262500X-0.450000X0.262500X0.450000X-0.262500X0.450000X0*%
%ADD18RoundRect,0.250000X-0.475000X0.337500X-0.475000X-0.337500X0.475000X-0.337500X0.475000X0.337500X0*%
%ADD19RoundRect,0.250000X-0.450000X0.262500X-0.450000X-0.262500X0.450000X-0.262500X0.450000X0.262500X0*%
%ADD20RoundRect,0.250000X1.100000X-0.412500X1.100000X0.412500X-1.100000X0.412500X-1.100000X-0.412500X0*%
%ADD21RoundRect,0.250000X0.450000X-0.262500X0.450000X0.262500X-0.450000X0.262500X-0.450000X-0.262500X0*%
%ADD22RoundRect,0.250000X-0.337500X-0.475000X0.337500X-0.475000X0.337500X0.475000X-0.337500X0.475000X0*%
%ADD23RoundRect,0.250000X-0.350000X-0.450000X0.350000X-0.450000X0.350000X0.450000X-0.350000X0.450000X0*%
%ADD24RoundRect,0.150000X0.825000X0.150000X-0.825000X0.150000X-0.825000X-0.150000X0.825000X-0.150000X0*%
%ADD25RoundRect,0.250000X0.255000X0.440000X-0.255000X0.440000X-0.255000X-0.440000X0.255000X-0.440000X0*%
%ADD26RoundRect,0.250000X-2.050000X-0.300000X2.050000X-0.300000X2.050000X0.300000X-2.050000X0.300000X0*%
%ADD27RoundRect,0.250000X-2.025000X-2.375000X2.025000X-2.375000X2.025000X2.375000X-2.025000X2.375000X0*%
G04 APERTURE END LIST*
D10*
%TO.C,R26*%
X91440000Y-98822000D03*
X91440000Y-100822000D03*
%TD*%
%TO.C,R8*%
X93751400Y-98796600D03*
X93751400Y-100796600D03*
%TD*%
D11*
%TO.C,R25*%
X61444500Y-107442000D03*
X63269500Y-107442000D03*
%TD*%
D12*
%TO.C,L3*%
X81534000Y-118494000D03*
X81534000Y-128394000D03*
%TD*%
D13*
%TO.C,R5*%
X78713000Y-108839000D03*
X76713000Y-108839000D03*
%TD*%
D14*
%TO.C,D3*%
X73152000Y-127266700D03*
D15*
X70866000Y-120142000D03*
D14*
X68580000Y-127266700D03*
%TD*%
D16*
%TO.C,R2*%
X110490000Y-58642000D03*
X110490000Y-56642000D03*
%TD*%
D10*
%TO.C,R3*%
X97282000Y-53356000D03*
X97282000Y-55356000D03*
%TD*%
D17*
%TO.C,R12*%
X61214000Y-62738000D03*
X59389000Y-62738000D03*
%TD*%
%TO.C,R10*%
X61214000Y-60325000D03*
X59389000Y-60325000D03*
%TD*%
D18*
%TO.C,C8*%
X69853000Y-112268000D03*
X69853000Y-114343000D03*
%TD*%
D17*
%TO.C,R13*%
X61444500Y-105283000D03*
X63269500Y-105283000D03*
%TD*%
D19*
%TO.C,R23*%
X135786500Y-119483500D03*
X135786500Y-121308500D03*
%TD*%
D11*
%TO.C,R22*%
X61618500Y-127508000D03*
X59793500Y-127508000D03*
%TD*%
D10*
%TO.C,R17*%
X93218000Y-87900000D03*
X93218000Y-89900000D03*
%TD*%
D20*
%TO.C,C4*%
X98044000Y-109766500D03*
X98044000Y-106641500D03*
%TD*%
D21*
%TO.C,R14*%
X93726000Y-61872500D03*
X93726000Y-60047500D03*
%TD*%
D17*
%TO.C,R19*%
X61341000Y-55118000D03*
X59516000Y-55118000D03*
%TD*%
%TO.C,R21*%
X128119500Y-52832000D03*
X129944500Y-52832000D03*
%TD*%
D22*
%TO.C,C5*%
X80983000Y-115062000D03*
X83058000Y-115062000D03*
%TD*%
D19*
%TO.C,R18*%
X54229000Y-94775000D03*
X54229000Y-96600000D03*
%TD*%
D23*
%TO.C,R4*%
X95266000Y-57658000D03*
X97266000Y-57658000D03*
%TD*%
D21*
%TO.C,R20*%
X52578000Y-59031500D03*
X52578000Y-60856500D03*
%TD*%
D19*
%TO.C,R15*%
X56769000Y-94775000D03*
X56769000Y-96600000D03*
%TD*%
D16*
%TO.C,R6*%
X67056000Y-114284000D03*
X67056000Y-112284000D03*
%TD*%
%TO.C,R1*%
X112649000Y-58658000D03*
X112649000Y-56658000D03*
%TD*%
D12*
%TO.C,L1*%
X96012000Y-128394000D03*
X96012000Y-118494000D03*
%TD*%
D17*
%TO.C,R11*%
X61444500Y-109601000D03*
X63269500Y-109601000D03*
%TD*%
D19*
%TO.C,R24*%
X93726000Y-63857500D03*
X93726000Y-65682500D03*
%TD*%
D11*
%TO.C,R16*%
X59516000Y-57658000D03*
X61341000Y-57658000D03*
%TD*%
D24*
%TO.C,IC1*%
X72901000Y-115062000D03*
X72901000Y-113792000D03*
X72901000Y-112522000D03*
X72901000Y-111252000D03*
X77851000Y-111252000D03*
X77851000Y-112522000D03*
X77851000Y-113792000D03*
X77851000Y-115062000D03*
D25*
X74776000Y-112332000D03*
X74776000Y-113982000D03*
X75976000Y-112332000D03*
X75976000Y-113982000D03*
%TD*%
D26*
%TO.C,U4*%
X106396000Y-114964000D03*
X106396000Y-116664000D03*
X106396000Y-118364000D03*
X106396000Y-120064000D03*
X106396000Y-121764000D03*
D27*
X113121000Y-115589000D03*
X113121000Y-121139000D03*
X117971000Y-115589000D03*
X117971000Y-121139000D03*
%TD*%
D23*
%TO.C,R9*%
X72268000Y-108839000D03*
X74268000Y-108839000D03*
%TD*%
M02*
