%TF.GenerationSoftware,KiCad,Pcbnew,7.0.10*%
%TF.CreationDate,2024-03-29T22:24:31-04:00*%
%TF.ProjectId,WaveWise_Submersible,57617665-5769-4736-955f-5375626d6572,rev?*%
%TF.SameCoordinates,Original*%
%TF.FileFunction,Copper,L4,Bot*%
%TF.FilePolarity,Positive*%
%FSLAX46Y46*%
G04 Gerber Fmt 4.6, Leading zero omitted, Abs format (unit mm)*
G04 Created by KiCad (PCBNEW 7.0.10) date 2024-03-29 22:24:31*
%MOMM*%
%LPD*%
G01*
G04 APERTURE LIST*
G04 Aperture macros list*
%AMRoundRect*
0 Rectangle with rounded corners*
0 $1 Rounding radius*
0 $2 $3 $4 $5 $6 $7 $8 $9 X,Y pos of 4 corners*
0 Add a 4 corners polygon primitive as box body*
4,1,4,$2,$3,$4,$5,$6,$7,$8,$9,$2,$3,0*
0 Add four circle primitives for the rounded corners*
1,1,$1+$1,$2,$3*
1,1,$1+$1,$4,$5*
1,1,$1+$1,$6,$7*
1,1,$1+$1,$8,$9*
0 Add four rect primitives between the rounded corners*
20,1,$1+$1,$2,$3,$4,$5,0*
20,1,$1+$1,$4,$5,$6,$7,0*
20,1,$1+$1,$6,$7,$8,$9,0*
20,1,$1+$1,$8,$9,$2,$3,0*%
G04 Aperture macros list end*
%TA.AperFunction,ComponentPad*%
%ADD10R,1.651000X1.651000*%
%TD*%
%TA.AperFunction,ComponentPad*%
%ADD11C,1.651000*%
%TD*%
%TA.AperFunction,ComponentPad*%
%ADD12RoundRect,0.250000X-0.650000X0.350000X-0.650000X-0.350000X0.650000X-0.350000X0.650000X0.350000X0*%
%TD*%
%TA.AperFunction,ComponentPad*%
%ADD13O,1.800000X1.200000*%
%TD*%
%TA.AperFunction,ComponentPad*%
%ADD14O,1.600000X1.200000*%
%TD*%
%TA.AperFunction,ComponentPad*%
%ADD15O,1.200000X1.200000*%
%TD*%
%TA.AperFunction,ComponentPad*%
%ADD16C,2.006600*%
%TD*%
%TA.AperFunction,ComponentPad*%
%ADD17C,1.905000*%
%TD*%
%TA.AperFunction,ComponentPad*%
%ADD18R,1.803400X1.803400*%
%TD*%
%TA.AperFunction,ComponentPad*%
%ADD19C,1.498600*%
%TD*%
%TA.AperFunction,ComponentPad*%
%ADD20C,1.803400*%
%TD*%
%TA.AperFunction,ComponentPad*%
%ADD21RoundRect,0.250000X-0.350000X-0.650000X0.350000X-0.650000X0.350000X0.650000X-0.350000X0.650000X0*%
%TD*%
%TA.AperFunction,ComponentPad*%
%ADD22O,1.200000X1.800000*%
%TD*%
%TA.AperFunction,ComponentPad*%
%ADD23C,1.524000*%
%TD*%
%TA.AperFunction,ComponentPad*%
%ADD24O,1.700000X1.700000*%
%TD*%
%TA.AperFunction,ComponentPad*%
%ADD25R,1.700000X1.700000*%
%TD*%
%TA.AperFunction,ComponentPad*%
%ADD26R,1.508000X1.508000*%
%TD*%
%TA.AperFunction,ComponentPad*%
%ADD27C,1.508000*%
%TD*%
%TA.AperFunction,ComponentPad*%
%ADD28R,1.650000X1.650000*%
%TD*%
%TA.AperFunction,ComponentPad*%
%ADD29C,1.650000*%
%TD*%
%TA.AperFunction,ComponentPad*%
%ADD30C,5.700000*%
%TD*%
%TA.AperFunction,ComponentPad*%
%ADD31R,2.200000X2.200000*%
%TD*%
%TA.AperFunction,ComponentPad*%
%ADD32O,2.200000X2.200000*%
%TD*%
%TA.AperFunction,ViaPad*%
%ADD33C,0.800000*%
%TD*%
%TA.AperFunction,Conductor*%
%ADD34C,0.250000*%
%TD*%
%TA.AperFunction,Conductor*%
%ADD35C,0.508000*%
%TD*%
G04 APERTURE END LIST*
D10*
%TO.P,J3,1,Pin_1*%
%TO.N,/ADC3*%
X58166000Y-36626800D03*
D11*
%TO.P,J3,2,Pin_2*%
%TO.N,/ADC2*%
X58166000Y-39166800D03*
%TO.P,J3,3,Pin_3*%
%TO.N,/ADC1*%
X58166000Y-41706800D03*
%TO.P,J3,4,Pin_4*%
%TO.N,/ADC0*%
X58166000Y-44246800D03*
%TD*%
D12*
%TO.P,J7,1,1*%
%TO.N,+24V*%
X47868600Y-42174400D03*
D13*
%TO.P,J7,2,2*%
%TO.N,+5V*%
X47868600Y-44174400D03*
%TO.P,J7,3,3*%
%TO.N,SUB_TX*%
X47868600Y-46174400D03*
%TO.P,J7,4,4*%
%TO.N,SUB_RX*%
X47868600Y-48174400D03*
%TO.P,J7,5,5*%
%TO.N,AIR_COMP*%
X47868600Y-50174400D03*
%TO.P,J7,6,6*%
%TO.N,BATTERY_SENSE*%
X47868600Y-52174400D03*
%TO.P,J7,7,7*%
%TO.N,PANEL_SENSE*%
X47868600Y-54174400D03*
%TO.P,J7,8,8*%
%TO.N,GNDREF*%
X47868600Y-56174400D03*
%TD*%
D11*
%TO.P,J10,1,Pin_1*%
%TO.N,SWCLK*%
X72136000Y-86233000D03*
%TO.P,J10,2,Pin_2*%
%TO.N,GND*%
X74676000Y-86233000D03*
%TO.P,J10,3,Pin_3*%
%TO.N,SWDIO*%
X77216000Y-86233000D03*
%TD*%
D14*
%TO.P,Q2,1,E*%
%TO.N,GNDREF*%
X117348000Y-54102000D03*
D15*
%TO.P,Q2,2,B*%
%TO.N,Net-(Q2-B)*%
X114808000Y-51562000D03*
%TO.P,Q2,3,C*%
%TO.N,Net-(D2-A)*%
X112268000Y-54102000D03*
%TD*%
D16*
%TO.P,J4,1*%
%TO.N,Net-(U6-PRB)*%
X126479300Y-57404000D03*
D17*
%TO.P,J4,2*%
%TO.N,Net-(U6-PGND)*%
X123926600Y-59956700D03*
%TO.P,J4,3*%
X129032000Y-59956700D03*
%TO.P,J4,4*%
X129032000Y-54851300D03*
%TO.P,J4,5*%
X123926600Y-54851300D03*
%TD*%
D18*
%TO.P,K2,1,1*%
%TO.N,Net-(J6-Pad1)*%
X99009200Y-54753050D03*
D19*
%TO.P,K2,2,2*%
%TO.N,Net-(D2-A)*%
X105009199Y-52753049D03*
D20*
%TO.P,K2,3,3*%
%TO.N,+24V*%
X105009199Y-40553851D03*
D19*
%TO.P,K2,5,5*%
%TO.N,+5V*%
X93009201Y-52753049D03*
%TD*%
D16*
%TO.P,J1,1*%
%TO.N,Net-(U4-PRB)*%
X113017300Y-84201000D03*
D17*
%TO.P,J1,2*%
%TO.N,Net-(U4-PGND)*%
X115570000Y-81648300D03*
%TO.P,J1,3*%
X110464600Y-81648300D03*
%TO.P,J1,4*%
X110464600Y-86753700D03*
%TO.P,J1,5*%
X115570000Y-86753700D03*
%TD*%
D21*
%TO.P,J9,1,1*%
%TO.N,+5V*%
X112166400Y-30022800D03*
D22*
%TO.P,J9,2,2*%
%TO.N,PRESSURE_INPUT*%
X114166400Y-30022800D03*
%TO.P,J9,3,3*%
%TO.N,GNDREF*%
X116166400Y-30022800D03*
%TD*%
D23*
%TO.P,U4,1,VCC*%
%TO.N,VDD*%
X110236000Y-67056000D03*
%TO.P,U4,2,RX/SCL*%
%TO.N,Net-(U3-BSCL)*%
X128016000Y-72136000D03*
%TO.P,U4,3,TX/SDA*%
%TO.N,Net-(U3-BSDA)*%
X128016000Y-69596000D03*
%TO.P,U4,4,PGND*%
%TO.N,Net-(U4-PGND)*%
X110236000Y-72136000D03*
%TO.P,U4,5,PRB*%
%TO.N,Net-(U4-PRB)*%
X110236000Y-69596000D03*
%TO.P,U4,6,GND*%
%TO.N,GND1*%
X128016000Y-67056000D03*
%TD*%
D24*
%TO.P,U9,1,GPIO0*%
%TO.N,SUB_TX*%
X65786000Y-32521000D03*
%TO.P,U9,2,GPIO1*%
%TO.N,SUB_RX*%
X65786000Y-35061000D03*
D25*
%TO.P,U9,3,GND*%
%TO.N,GNDREF*%
X65786000Y-37601000D03*
D24*
%TO.P,U9,4,GPIO2*%
%TO.N,unconnected-(U9-GPIO2-Pad4)*%
X65786000Y-40141000D03*
%TO.P,U9,5,GPIO3*%
%TO.N,unconnected-(U9-GPIO3-Pad5)*%
X65786000Y-42681000D03*
%TO.P,U9,6,GPIO4*%
%TO.N,SDA*%
X65786000Y-45221000D03*
%TO.P,U9,7,GPIO5*%
%TO.N,SCL*%
X65786000Y-47761000D03*
D25*
%TO.P,U9,8,GND*%
%TO.N,GNDREF*%
X65786000Y-50301000D03*
D24*
%TO.P,U9,9,GPIO6*%
%TO.N,ADC_RDY*%
X65786000Y-52841000D03*
%TO.P,U9,10,GPIO7*%
%TO.N,Net-(U9-GPIO7)*%
X65786000Y-55381000D03*
%TO.P,U9,11,GPIO8*%
%TO.N,Net-(U9-GPIO8)*%
X65786000Y-57921000D03*
%TO.P,U9,12,GPIO9*%
%TO.N,unconnected-(U9-GPIO9-Pad12)*%
X65786000Y-60461000D03*
D25*
%TO.P,U9,13,GND*%
%TO.N,GNDREF*%
X65786000Y-63001000D03*
D24*
%TO.P,U9,14,GPIO10*%
%TO.N,SYNC*%
X65786000Y-65541000D03*
%TO.P,U9,15,GPIO11*%
%TO.N,READY{slash}INT*%
X65786000Y-68081000D03*
%TO.P,U9,16,GPIO12*%
%TO.N,unconnected-(U9-GPIO12-Pad16)*%
X65786000Y-70621000D03*
%TO.P,U9,17,GPIO13*%
%TO.N,AIR_COMP*%
X65786000Y-73161000D03*
D25*
%TO.P,U9,18,GND*%
%TO.N,GNDREF*%
X65786000Y-75701000D03*
D24*
%TO.P,U9,19,GPIO14*%
%TO.N,unconnected-(U9-GPIO14-Pad19)*%
X65786000Y-78241000D03*
%TO.P,U9,20,GPIO15*%
%TO.N,unconnected-(U9-GPIO15-Pad20)*%
X65786000Y-80781000D03*
%TO.P,U9,21,GPIO16*%
%TO.N,EXTGPIO5*%
X83566000Y-80781000D03*
%TO.P,U9,22,GPIO17*%
%TO.N,EXTGPIO4*%
X83566000Y-78241000D03*
D25*
%TO.P,U9,23,GND*%
%TO.N,GNDREF*%
X83566000Y-75701000D03*
D24*
%TO.P,U9,24,GPIO18*%
%TO.N,EXTGPIO3*%
X83566000Y-73161000D03*
%TO.P,U9,25,GPIO19*%
%TO.N,EXTGPIO2*%
X83566000Y-70621000D03*
%TO.P,U9,26,GPIO20*%
%TO.N,EXTGPIO1*%
X83566000Y-68081000D03*
%TO.P,U9,27,GPIO21*%
%TO.N,unconnected-(U9-GPIO21-Pad27)*%
X83566000Y-65541000D03*
D25*
%TO.P,U9,28,GND*%
%TO.N,GNDREF*%
X83566000Y-63001000D03*
D24*
%TO.P,U9,29,GPIO22*%
%TO.N,VALVE_OUT*%
X83566000Y-60461000D03*
%TO.P,U9,30,RUN*%
%TO.N,unconnected-(U9-RUN-Pad30)*%
X83566000Y-57921000D03*
%TO.P,U9,31,GPIO26_ADC0*%
%TO.N,TEMP_INPUT*%
X83566000Y-55381000D03*
%TO.P,U9,32,GPIO27_ADC1*%
%TO.N,AIR_INPUT*%
X83566000Y-52841000D03*
D25*
%TO.P,U9,33,AGND*%
%TO.N,unconnected-(U9-AGND-Pad33)*%
X83566000Y-50301000D03*
D24*
%TO.P,U9,34,GPIO28_ADC2*%
%TO.N,PRESSURE_INPUT*%
X83566000Y-47761000D03*
%TO.P,U9,35,ADC_VREF*%
%TO.N,unconnected-(U9-ADC_VREF-Pad35)*%
X83566000Y-45221000D03*
%TO.P,U9,36,3V3*%
%TO.N,unconnected-(U9-3V3-Pad36)*%
X83566000Y-42681000D03*
%TO.P,U9,37,3V3_EN*%
%TO.N,unconnected-(U9-3V3_EN-Pad37)*%
X83566000Y-40141000D03*
D25*
%TO.P,U9,38,GND*%
%TO.N,GNDREF*%
X83566000Y-37601000D03*
D24*
%TO.P,U9,39,VSYS*%
%TO.N,+5V*%
X83566000Y-35061000D03*
%TO.P,U9,40,VBUS*%
%TO.N,unconnected-(U9-VBUS-Pad40)*%
X83566000Y-32521000D03*
%TO.P,U9,41,SWCLK*%
%TO.N,SWCLK*%
X72136000Y-80551000D03*
D25*
%TO.P,U9,42,GND*%
%TO.N,GND*%
X74676000Y-80551000D03*
D24*
%TO.P,U9,43,SWDIO*%
%TO.N,SWDIO*%
X77216000Y-80551000D03*
%TD*%
D26*
%TO.P,PS1,1,-VIN*%
%TO.N,GNDREF*%
X146050000Y-67016000D03*
D27*
%TO.P,PS1,2,+VIN*%
%TO.N,Net-(PS1-+VIN)*%
X146050000Y-69556000D03*
%TO.P,PS1,3,-VOUT*%
%TO.N,GND1*%
X146050000Y-72096000D03*
%TO.P,PS1,4,+VOUT*%
%TO.N,VDD*%
X146050000Y-74636000D03*
%TD*%
D28*
%TO.P,J13,1,Pin_1*%
%TO.N,+5V*%
X62738000Y-28194000D03*
D29*
%TO.P,J13,2,Pin_2*%
%TO.N,SUB_TX*%
X60198000Y-28194000D03*
%TO.P,J13,3,Pin_3*%
%TO.N,SUB_RX*%
X57658000Y-28194000D03*
%TO.P,J13,4,Pin_4*%
%TO.N,SDA*%
X55118000Y-28194000D03*
%TO.P,J13,5,Pin_5*%
%TO.N,SCL*%
X52578000Y-28194000D03*
%TO.P,J13,6,Pin_6*%
%TO.N,GNDREF*%
X50038000Y-28194000D03*
%TD*%
D16*
%TO.P,J2,1*%
%TO.N,TEMP_INPUT*%
X100838000Y-76200000D03*
D17*
%TO.P,J2,2*%
%TO.N,GNDREF*%
X103390700Y-78752700D03*
%TO.P,J2,3*%
X103390700Y-73647300D03*
%TO.P,J2,4*%
X98285300Y-73647300D03*
%TO.P,J2,5*%
X98285300Y-78752700D03*
%TD*%
D30*
%TO.P,H1,1,1*%
%TO.N,Net-(H1-Pad1)*%
X42418000Y-30480000D03*
%TD*%
D26*
%TO.P,PS2,1,-VIN*%
%TO.N,GNDREF*%
X146050000Y-40640000D03*
D27*
%TO.P,PS2,2,+VIN*%
%TO.N,Net-(PS2-+VIN)*%
X146050000Y-43180000D03*
%TO.P,PS2,3,-VOUT*%
%TO.N,GND2*%
X146050000Y-45720000D03*
%TO.P,PS2,4,+VOUT*%
%TO.N,VEE*%
X146050000Y-48260000D03*
%TD*%
D31*
%TO.P,D2,1,K*%
%TO.N,+5V*%
X94107000Y-58826400D03*
D32*
%TO.P,D2,2,A*%
%TO.N,Net-(D2-A)*%
X104267000Y-58826400D03*
%TD*%
D28*
%TO.P,J8,1,Pin_1*%
%TO.N,+5V*%
X98145600Y-86410800D03*
D29*
%TO.P,J8,2,Pin_2*%
%TO.N,EXTGPIO1*%
X95605600Y-86410800D03*
%TO.P,J8,3,Pin_3*%
%TO.N,EXTGPIO2*%
X93065600Y-86410800D03*
%TO.P,J8,4,Pin_4*%
%TO.N,EXTGPIO3*%
X90525600Y-86410800D03*
%TO.P,J8,5,Pin_5*%
%TO.N,EXTGPIO4*%
X87985600Y-86410800D03*
%TO.P,J8,6,Pin_6*%
%TO.N,EXTGPIO5*%
X85445600Y-86410800D03*
%TO.P,J8,7,Pin_7*%
%TO.N,GNDREF*%
X82905600Y-86410800D03*
%TD*%
D23*
%TO.P,U6,1,VCC*%
%TO.N,VEE*%
X124053600Y-51511200D03*
%TO.P,U6,2,RX/SCL*%
%TO.N,Net-(U5-BSCL)*%
X129133600Y-33731200D03*
%TO.P,U6,3,TX/SDA*%
%TO.N,Net-(U5-BSDA)*%
X126593600Y-33731200D03*
%TO.P,U6,4,PGND*%
%TO.N,Net-(U6-PGND)*%
X129133600Y-51511200D03*
%TO.P,U6,5,PRB*%
%TO.N,Net-(U6-PRB)*%
X126593600Y-51511200D03*
%TO.P,U6,6,GND*%
%TO.N,GND2*%
X124053600Y-33731200D03*
%TD*%
D12*
%TO.P,J11,1,1*%
%TO.N,SYNC*%
X47817800Y-65205600D03*
D13*
%TO.P,J11,2,2*%
%TO.N,READY{slash}INT*%
X47817800Y-67205600D03*
%TO.P,J11,3,3*%
%TO.N,GNDREF*%
X47817800Y-69205600D03*
%TO.P,J11,4,4*%
%TO.N,+3V3*%
X47817800Y-71205600D03*
%TO.P,J11,5,5*%
%TO.N,SDA*%
X47817800Y-73205600D03*
%TO.P,J11,6,6*%
%TO.N,SCL*%
X47817800Y-75205600D03*
%TD*%
D21*
%TO.P,J6,1,1*%
%TO.N,Net-(J6-Pad1)*%
X95300800Y-30022800D03*
D22*
%TO.P,J6,2,2*%
%TO.N,GNDREF*%
X97300800Y-30022800D03*
%TD*%
D30*
%TO.P,H2,1,1*%
%TO.N,Net-(H2-Pad1)*%
X146558000Y-30480000D03*
%TD*%
%TO.P,H3,1,1*%
%TO.N,Net-(H3-Pad1)*%
X42418000Y-83820000D03*
%TD*%
%TO.P,H4,1,1*%
%TO.N,Net-(H4-Pad1)*%
X146558000Y-83820000D03*
%TD*%
D33*
%TO.N,+5V*%
X106172000Y-85344000D03*
X133654800Y-42926000D03*
X135991600Y-53492400D03*
X139141200Y-63601600D03*
X96012000Y-63093600D03*
X119481600Y-79502000D03*
X139700000Y-58674000D03*
X51308000Y-72013800D03*
%TO.N,GNDREF*%
X52730400Y-50749200D03*
X95859600Y-65633600D03*
X124155200Y-77012800D03*
X137769600Y-51409600D03*
X51181000Y-83820000D03*
X57810400Y-78490800D03*
X129413000Y-84455000D03*
X54406800Y-42367200D03*
X57150000Y-66675000D03*
X92075000Y-66040000D03*
X45212000Y-35814000D03*
X143256000Y-78028800D03*
X52730400Y-66649600D03*
X136049500Y-59468500D03*
X124155200Y-84836000D03*
%TO.N,VDD*%
X131419600Y-79654400D03*
%TO.N,GND1*%
X133985000Y-75565000D03*
X132943600Y-86410800D03*
%TO.N,GND2*%
X140919200Y-49392800D03*
X124053600Y-31445200D03*
X148336000Y-58420000D03*
%TO.N,BATTERY_SENSE*%
X56184800Y-59283600D03*
%TO.N,SDA*%
X69596000Y-32258000D03*
X52222400Y-42773600D03*
X50596800Y-34239200D03*
X132588000Y-62865000D03*
X132588000Y-56489600D03*
%TO.N,SCL*%
X134467600Y-31648400D03*
X50804653Y-31094253D03*
X51206400Y-44450000D03*
X132676900Y-68872100D03*
X135636000Y-56642000D03*
%TO.N,PANEL_SENSE*%
X57505600Y-54356000D03*
X51968400Y-59080400D03*
%TO.N,VALVE_OUT*%
X108966000Y-44958000D03*
%TO.N,ADC_RDY*%
X55626000Y-52781200D03*
%TO.N,Net-(U5-BSDA)*%
X133756400Y-45364400D03*
%TO.N,Net-(U3-BSDA)*%
X129413000Y-81280000D03*
%TO.N,Net-(U3-BSCL)*%
X129413000Y-82931000D03*
%TD*%
D34*
%TO.N,GNDREF*%
X136829800Y-84455000D02*
X143256000Y-78028800D01*
X129413000Y-84455000D02*
X136829800Y-84455000D01*
%TO.N,+5V*%
X139700000Y-63042800D02*
X139700000Y-58674000D01*
X133654800Y-42926000D02*
X133654800Y-43180000D01*
X108458000Y-79502000D02*
X106172000Y-81788000D01*
X135991600Y-45516800D02*
X135991600Y-53492400D01*
X119481600Y-79502000D02*
X108458000Y-79502000D01*
X133654800Y-43180000D02*
X135991600Y-45516800D01*
X106172000Y-81788000D02*
X106172000Y-85344000D01*
X139141200Y-63601600D02*
X139700000Y-63042800D01*
%TO.N,GNDREF*%
X137718800Y-51358800D02*
X137718800Y-48971200D01*
X136049500Y-59468500D02*
X136049500Y-57752500D01*
X137769600Y-51409600D02*
X137718800Y-51358800D01*
X142875000Y-70993000D02*
X142875000Y-68707000D01*
X137718800Y-48971200D02*
X146050000Y-40640000D01*
X143256000Y-78028800D02*
X142875000Y-77647800D01*
X142875000Y-68707000D02*
X144566000Y-67016000D01*
X144566000Y-67016000D02*
X146050000Y-67016000D01*
X137718800Y-56083200D02*
X137718800Y-51460400D01*
X136049500Y-57752500D02*
X137718800Y-56083200D01*
X137718800Y-51460400D02*
X137769600Y-51409600D01*
X124155200Y-84836000D02*
X124155200Y-77012800D01*
X142875000Y-77647800D02*
X142875000Y-70993000D01*
D35*
%TO.N,+24V*%
X105009199Y-40553851D02*
X96281451Y-40553851D01*
X85953600Y-30226000D02*
X60960000Y-30226000D01*
X96281451Y-40553851D02*
X85953600Y-30226000D01*
X51728200Y-39457800D02*
X49077295Y-39457800D01*
X60960000Y-30226000D02*
X51728200Y-39457800D01*
X47868600Y-40666495D02*
X47868600Y-42174400D01*
X49077295Y-39457800D02*
X47868600Y-40666495D01*
D34*
%TO.N,GND2*%
X148336000Y-58420000D02*
X148336000Y-48006000D01*
X148336000Y-48006000D02*
X146050000Y-45720000D01*
%TO.N,PRESSURE_INPUT*%
X114147600Y-30041600D02*
X114147600Y-38252400D01*
X114147600Y-38252400D02*
X109474000Y-42926000D01*
X114166400Y-30022800D02*
X114147600Y-30041600D01*
X96257000Y-47761000D02*
X83566000Y-47761000D01*
X109474000Y-42926000D02*
X101092000Y-42926000D01*
X101092000Y-42926000D02*
X96257000Y-47761000D01*
%TO.N,SUB_TX*%
X50800000Y-37592000D02*
X60198000Y-28194000D01*
X46784000Y-46174400D02*
X46380400Y-45770800D01*
X46380400Y-40641458D02*
X49429858Y-37592000D01*
X46380400Y-45770800D02*
X46380400Y-40641458D01*
X49429858Y-37592000D02*
X50800000Y-37592000D01*
X47868600Y-46174400D02*
X46784000Y-46174400D01*
%TO.N,BATTERY_SENSE*%
X56184800Y-59283600D02*
X54914800Y-60553600D01*
X47342800Y-52174400D02*
X47868600Y-52174400D01*
X45720000Y-56438800D02*
X45720000Y-53797200D01*
X54914800Y-60553600D02*
X49834800Y-60553600D01*
X45720000Y-53797200D02*
X47342800Y-52174400D01*
X49834800Y-60553600D02*
X45720000Y-56438800D01*
%TO.N,SDA*%
X52679600Y-42773600D02*
X56134000Y-46228000D01*
X52222400Y-42773600D02*
X52679600Y-42773600D01*
X52247800Y-34239200D02*
X55118000Y-31369000D01*
X69596000Y-32258000D02*
X69596000Y-41411000D01*
X132588000Y-56489600D02*
X132588000Y-62865000D01*
X64779000Y-46228000D02*
X65786000Y-45221000D01*
X50596800Y-34239200D02*
X52247800Y-34239200D01*
X69596000Y-41411000D02*
X65786000Y-45221000D01*
X56134000Y-46228000D02*
X64779000Y-46228000D01*
X55118000Y-31369000D02*
X55118000Y-28194000D01*
%TO.N,SCL*%
X135636000Y-56642000D02*
X135509000Y-56642000D01*
X54923800Y-47761000D02*
X65786000Y-47761000D01*
X52578000Y-29320906D02*
X52578000Y-28194000D01*
X50804653Y-31094253D02*
X52578000Y-29320906D01*
X133756400Y-66802000D02*
X133756400Y-58521600D01*
X132676900Y-68872100D02*
X132676900Y-67881500D01*
X134467600Y-32816800D02*
X136906000Y-35255200D01*
X51612800Y-44450000D02*
X54923800Y-47761000D01*
X132676900Y-67881500D02*
X133756400Y-66802000D01*
X51206400Y-44450000D02*
X51612800Y-44450000D01*
X136906000Y-35255200D02*
X136906000Y-55372000D01*
X134467600Y-31648400D02*
X134467600Y-32816800D01*
X136906000Y-55372000D02*
X135636000Y-56642000D01*
X133756400Y-58521600D02*
X135636000Y-56642000D01*
%TO.N,PANEL_SENSE*%
X51968400Y-59080400D02*
X51968400Y-55219600D01*
X51968400Y-55219600D02*
X51104800Y-54356000D01*
X47868600Y-54218600D02*
X47868600Y-54174400D01*
X51104800Y-54356000D02*
X48050200Y-54356000D01*
X48050200Y-54356000D02*
X47868600Y-54174400D01*
X57505600Y-54356000D02*
X51104800Y-54356000D01*
%TO.N,SYNC*%
X47817800Y-65205600D02*
X48195000Y-65582800D01*
X48195000Y-65582800D02*
X65744200Y-65582800D01*
X65744200Y-65582800D02*
X65786000Y-65541000D01*
%TO.N,READY{slash}INT*%
X48693200Y-68081000D02*
X65786000Y-68081000D01*
X47817800Y-67205600D02*
X48693200Y-68081000D01*
%TO.N,VALVE_OUT*%
X103378000Y-44958000D02*
X87875000Y-60461000D01*
X87875000Y-60461000D02*
X83566000Y-60461000D01*
X108966000Y-44958000D02*
X103378000Y-44958000D01*
%TO.N,ADC_RDY*%
X55685800Y-52841000D02*
X65786000Y-52841000D01*
X55626000Y-52781200D02*
X55685800Y-52841000D01*
%TO.N,Net-(U6-PGND)*%
X129032000Y-59715400D02*
X123926600Y-59715400D01*
X129032000Y-54610000D02*
X123926600Y-54610000D01*
X123926600Y-54610000D02*
X123926600Y-59715400D01*
%TO.N,Net-(U5-BSDA)*%
X133756400Y-45212000D02*
X126593600Y-38049200D01*
X126593600Y-33731200D02*
X126695200Y-33629600D01*
X133756400Y-45364400D02*
X133756400Y-45212000D01*
X126593600Y-38049200D02*
X126593600Y-33731200D01*
%TO.N,Net-(U3-BSDA)*%
X129413000Y-70993000D02*
X128016000Y-69596000D01*
X129413000Y-81280000D02*
X129413000Y-70993000D01*
%TO.N,Net-(U3-BSCL)*%
X129413000Y-82931000D02*
X128016000Y-81534000D01*
X128016000Y-81534000D02*
X128016000Y-72136000D01*
%TO.N,Net-(U4-PGND)*%
X110464600Y-87007700D02*
X115570000Y-87007700D01*
X115570000Y-81902300D02*
X110464600Y-81902300D01*
X110464600Y-81902300D02*
X110464600Y-87007700D01*
%TD*%
M02*
