%TF.GenerationSoftware,KiCad,Pcbnew,7.0.10*%
%TF.CreationDate,2024-03-29T22:24:31-04:00*%
%TF.ProjectId,WaveWise_Submersible,57617665-5769-4736-955f-5375626d6572,rev?*%
%TF.SameCoordinates,Original*%
%TF.FileFunction,Legend,Bot*%
%TF.FilePolarity,Positive*%
%FSLAX46Y46*%
G04 Gerber Fmt 4.6, Leading zero omitted, Abs format (unit mm)*
G04 Created by KiCad (PCBNEW 7.0.10) date 2024-03-29 22:24:31*
%MOMM*%
%LPD*%
G01*
G04 APERTURE LIST*
%ADD10C,0.508000*%
G04 APERTURE END LIST*
D10*
%TO.C,J10*%
X70485000Y-86233000D02*
G75*
G03*
X69723000Y-86233000I-381000J0D01*
G01*
X69723000Y-86233000D02*
G75*
G03*
X70485000Y-86233000I381000J0D01*
G01*
%TO.C,G\u002A\u002A\u002A*%
G36*
X75267569Y-54714608D02*
G01*
X75384242Y-54752935D01*
X75544287Y-54830686D01*
X75701432Y-54948423D01*
X75889437Y-55128619D01*
X76014068Y-55265965D01*
X76244668Y-55612493D01*
X76369791Y-55973584D01*
X76389272Y-56348599D01*
X76302947Y-56736897D01*
X76154119Y-57059158D01*
X75911457Y-57384928D01*
X75609777Y-57636532D01*
X75262611Y-57800138D01*
X74932591Y-57870443D01*
X74541632Y-57868120D01*
X74176568Y-57777625D01*
X73848726Y-57608978D01*
X73569435Y-57372197D01*
X73350021Y-57077303D01*
X73201812Y-56734315D01*
X73136136Y-56353253D01*
X73164320Y-55944135D01*
X73278176Y-55577812D01*
X73489614Y-55237604D01*
X73795493Y-54946547D01*
X74057860Y-54783851D01*
X74430925Y-54658504D01*
X74834015Y-54635446D01*
X75267569Y-54714608D01*
G37*
G36*
X70283279Y-54556514D02*
G01*
X70499498Y-54624255D01*
X70793428Y-54733566D01*
X70919798Y-54782502D01*
X71096363Y-54849158D01*
X71220319Y-54893882D01*
X71296670Y-54921077D01*
X71461471Y-54982619D01*
X71647210Y-55054199D01*
X71770792Y-55101407D01*
X71964420Y-55171419D01*
X72112194Y-55220256D01*
X72182985Y-55243401D01*
X72294454Y-55308018D01*
X72323667Y-55405957D01*
X72285524Y-55567027D01*
X72267479Y-55646640D01*
X72245013Y-55833545D01*
X72230227Y-56072832D01*
X72225667Y-56331968D01*
X72228783Y-56906103D01*
X71737891Y-57021407D01*
X71286732Y-57129611D01*
X70774014Y-57260028D01*
X70366538Y-57373733D01*
X70296878Y-57393606D01*
X70141477Y-57432372D01*
X70039364Y-57450125D01*
X69994493Y-57432593D01*
X69933458Y-57328503D01*
X69885500Y-57145333D01*
X69851156Y-56899618D01*
X69830963Y-56607894D01*
X69825458Y-56286698D01*
X69835177Y-55952566D01*
X69860658Y-55622033D01*
X69902438Y-55311637D01*
X69961053Y-55037912D01*
X69989666Y-54933411D01*
X70045498Y-54740415D01*
X70089912Y-54601160D01*
X70115228Y-54540430D01*
X70151688Y-54532312D01*
X70283279Y-54556514D01*
G37*
G36*
X74704762Y-51320652D02*
G01*
X74992219Y-51335420D01*
X75297647Y-51360179D01*
X75594686Y-51392909D01*
X75856974Y-51431591D01*
X76058151Y-51474207D01*
X76221416Y-51522681D01*
X76456234Y-51604570D01*
X76677180Y-51693678D01*
X76862245Y-51780273D01*
X76989423Y-51854620D01*
X77036706Y-51906987D01*
X77034432Y-51918263D01*
X76997952Y-52007760D01*
X76926200Y-52157933D01*
X76831157Y-52343343D01*
X76809052Y-52385226D01*
X76694543Y-52602306D01*
X76561267Y-52855109D01*
X76420647Y-53121948D01*
X76284109Y-53381137D01*
X76163079Y-53610987D01*
X76068980Y-53789811D01*
X76013240Y-53895922D01*
X75984581Y-53935280D01*
X75905897Y-53963603D01*
X75777413Y-53933986D01*
X75580720Y-53844229D01*
X75529106Y-53824987D01*
X75367831Y-53789228D01*
X75149172Y-53758026D01*
X74905229Y-53736502D01*
X74378372Y-53704404D01*
X74343381Y-53271937D01*
X74342437Y-53260386D01*
X74317937Y-53004873D01*
X74287718Y-52747932D01*
X74258098Y-52543526D01*
X74255917Y-52530527D01*
X74225207Y-52321398D01*
X74192788Y-52062999D01*
X74165329Y-51808186D01*
X74146310Y-51600893D01*
X74140613Y-51465431D01*
X74153731Y-51391408D01*
X74189946Y-51355902D01*
X74253541Y-51335991D01*
X74289202Y-51329163D01*
X74461636Y-51317893D01*
X74704762Y-51320652D01*
G37*
G36*
X72987028Y-51736730D02*
G01*
X73054693Y-51856844D01*
X73123465Y-52026370D01*
X73177815Y-52179862D01*
X73270335Y-52432416D01*
X73354249Y-52652706D01*
X73403327Y-52779147D01*
X73470094Y-52955670D01*
X73514857Y-53079597D01*
X73531565Y-53127707D01*
X73566458Y-53223285D01*
X73617764Y-53358355D01*
X73693088Y-53552839D01*
X73800034Y-53826656D01*
X73788501Y-53886057D01*
X73697762Y-53961180D01*
X73515792Y-54058297D01*
X73488555Y-54071981D01*
X73324834Y-54171690D01*
X73142918Y-54304275D01*
X72964195Y-54451307D01*
X72810055Y-54594356D01*
X72701885Y-54714991D01*
X72661076Y-54794783D01*
X72656155Y-54820880D01*
X72614883Y-54835744D01*
X72522507Y-54800041D01*
X72368019Y-54708738D01*
X72140409Y-54556804D01*
X72022354Y-54476023D01*
X71762585Y-54299462D01*
X71480855Y-54109127D01*
X71220319Y-53934218D01*
X71036957Y-53811028D01*
X70857585Y-53689132D01*
X70727356Y-53599039D01*
X70666146Y-53554371D01*
X70658936Y-53514628D01*
X70709203Y-53408450D01*
X70819022Y-53256128D01*
X70975884Y-53071401D01*
X71167279Y-52868008D01*
X71380698Y-52659687D01*
X71603631Y-52460178D01*
X71823568Y-52283219D01*
X71857083Y-52258627D01*
X72036432Y-52139571D01*
X72248776Y-52013055D01*
X72469556Y-51892102D01*
X72674210Y-51789737D01*
X72838178Y-51718982D01*
X72936899Y-51692861D01*
X72987028Y-51736730D01*
G37*
G36*
X77934056Y-53432950D02*
G01*
X77981738Y-53484298D01*
X78328100Y-53937379D01*
X78623223Y-54473728D01*
X78859970Y-55080647D01*
X78880164Y-55145277D01*
X78923126Y-55307368D01*
X78951981Y-55473754D01*
X78969350Y-55670026D01*
X78977851Y-55921777D01*
X78980103Y-56254597D01*
X78979993Y-56315442D01*
X78972103Y-56683496D01*
X78947012Y-56997769D01*
X78898088Y-57282263D01*
X78818701Y-57560980D01*
X78702219Y-57857923D01*
X78542012Y-58197094D01*
X78331447Y-58602496D01*
X78330396Y-58604440D01*
X78254689Y-58709360D01*
X78119730Y-58866088D01*
X77944585Y-59055032D01*
X77748321Y-59256598D01*
X77550003Y-59451194D01*
X77368698Y-59619226D01*
X77223470Y-59741101D01*
X77166710Y-59781556D01*
X76950714Y-59910531D01*
X76676563Y-60050481D01*
X76376613Y-60186433D01*
X76083219Y-60303417D01*
X75828737Y-60386462D01*
X75609762Y-60433156D01*
X75236344Y-60477000D01*
X74821043Y-60494727D01*
X74399970Y-60486269D01*
X74009232Y-60451557D01*
X73684940Y-60390523D01*
X73406235Y-60305326D01*
X72828432Y-60056892D01*
X72287386Y-59728037D01*
X71799471Y-59331225D01*
X71381062Y-58878920D01*
X71048530Y-58383586D01*
X70956784Y-58218038D01*
X71395379Y-57990850D01*
X71456102Y-57959300D01*
X71699067Y-57831564D01*
X71933962Y-57706095D01*
X72117316Y-57606062D01*
X72249835Y-57536859D01*
X72378542Y-57480402D01*
X72445638Y-57465185D01*
X72495760Y-57510761D01*
X72589155Y-57619624D01*
X72704143Y-57767162D01*
X72714669Y-57781091D01*
X73010932Y-58101053D01*
X73378045Y-58388953D01*
X73781664Y-58617684D01*
X73827020Y-58638321D01*
X73957047Y-58689988D01*
X74086845Y-58723742D01*
X74243144Y-58743432D01*
X74452675Y-58752909D01*
X74742168Y-58756021D01*
X75409185Y-58758414D01*
X75836076Y-58547433D01*
X76235134Y-58306357D01*
X76613305Y-57972235D01*
X76914358Y-57581421D01*
X77132386Y-57146016D01*
X77261482Y-56678123D01*
X77295738Y-56189844D01*
X77229247Y-55693282D01*
X77198524Y-55578283D01*
X77057407Y-55201787D01*
X76868537Y-54849495D01*
X76652904Y-54562587D01*
X76567966Y-54465500D01*
X76487361Y-54358363D01*
X76461979Y-54301188D01*
X76489275Y-54262495D01*
X76576271Y-54156855D01*
X76707717Y-54003844D01*
X76868288Y-53820891D01*
X77042661Y-53625427D01*
X77215510Y-53434880D01*
X77371513Y-53266681D01*
X77572917Y-53052916D01*
X77934056Y-53432950D01*
G37*
%TD*%
M02*
