%TF.GenerationSoftware,KiCad,Pcbnew,7.0.10*%
%TF.CreationDate,2024-03-29T22:24:38-04:00*%
%TF.ProjectId,WaveWise_Submersible,57617665-5769-4736-955f-5375626d6572,rev?*%
%TF.SameCoordinates,Original*%
%TF.FileFunction,Drillmap*%
%TF.FilePolarity,Positive*%
%FSLAX45Y45*%
G04 Gerber Fmt 4.5, Leading zero omitted, Abs format (unit mm)*
G04 Created by KiCad (PCBNEW 7.0.10) date 2024-03-29 22:24:38*
%MOMM*%
%LPD*%
G01*
G04 APERTURE LIST*
%ADD10C,0.100000*%
%ADD11C,0.200000*%
%ADD12C,0.120000*%
%ADD13C,0.130000*%
%ADD14C,0.150000*%
%ADD15C,0.180000*%
G04 APERTURE END LIST*
D10*
X3733800Y-8636000D02*
G75*
G03*
X3987800Y-8890000I254000J0D01*
G01*
X14909800Y-8890000D02*
X3987800Y-8890000D01*
X14909800Y-8890000D02*
G75*
G03*
X15163800Y-8636000I0J254000D01*
G01*
X3733800Y-2794000D02*
X3733800Y-8636000D01*
X3987800Y-2540000D02*
G75*
G03*
X3733800Y-2794000I0J-254000D01*
G01*
X15163800Y-2794000D02*
G75*
G03*
X14909800Y-2540000I-254000J0D01*
G01*
X14909800Y-2540000D02*
X3987800Y-2540000D01*
X15163800Y-2794000D02*
X15163800Y-8636000D01*
D11*
D12*
X4481780Y-6260560D02*
X4601780Y-6380560D01*
X4601780Y-6260560D02*
X4481780Y-6380560D01*
X4481780Y-7660560D02*
X4601780Y-7780560D01*
X4601780Y-7660560D02*
X4481780Y-7780560D01*
X4486860Y-3957440D02*
X4606860Y-4077440D01*
X4606860Y-3957440D02*
X4486860Y-4077440D01*
X4486860Y-5757440D02*
X4606860Y-5877440D01*
X4606860Y-5757440D02*
X4486860Y-5877440D01*
D13*
X9995080Y-2812280D02*
G75*
G03*
X9865080Y-2812280I-65000J0D01*
G01*
X9865080Y-2812280D02*
G75*
G03*
X9995080Y-2812280I65000J0D01*
G01*
X11881640Y-2812280D02*
G75*
G03*
X11751640Y-2812280I-65000J0D01*
G01*
X11751640Y-2812280D02*
G75*
G03*
X11881640Y-2812280I65000J0D01*
G01*
D14*
X7225100Y-3493100D02*
X7225100Y-3643100D01*
X7150100Y-3568100D02*
X7300100Y-3568100D01*
X7710100Y-3493100D02*
X7710100Y-3643100D01*
X7635100Y-3568100D02*
X7785100Y-3568100D01*
D15*
X7258740Y-3328740D02*
X7258740Y-3201460D01*
X7131460Y-3201460D01*
X7131460Y-3328740D01*
X7258740Y-3328740D01*
X7803740Y-3328740D02*
X7803740Y-3201460D01*
X7676460Y-3201460D01*
X7676460Y-3328740D01*
X7803740Y-3328740D01*
D11*
X3989577Y-9206484D02*
X3989577Y-9006484D01*
X3989577Y-9006484D02*
X4037196Y-9006484D01*
X4037196Y-9006484D02*
X4065767Y-9016008D01*
X4065767Y-9016008D02*
X4084815Y-9035055D01*
X4084815Y-9035055D02*
X4094339Y-9054103D01*
X4094339Y-9054103D02*
X4103862Y-9092198D01*
X4103862Y-9092198D02*
X4103862Y-9120770D01*
X4103862Y-9120770D02*
X4094339Y-9158865D01*
X4094339Y-9158865D02*
X4084815Y-9177912D01*
X4084815Y-9177912D02*
X4065767Y-9196960D01*
X4065767Y-9196960D02*
X4037196Y-9206484D01*
X4037196Y-9206484D02*
X3989577Y-9206484D01*
X4189577Y-9206484D02*
X4189577Y-9073150D01*
X4189577Y-9111246D02*
X4199101Y-9092198D01*
X4199101Y-9092198D02*
X4208624Y-9082674D01*
X4208624Y-9082674D02*
X4227672Y-9073150D01*
X4227672Y-9073150D02*
X4246720Y-9073150D01*
X4313386Y-9206484D02*
X4313386Y-9073150D01*
X4313386Y-9006484D02*
X4303863Y-9016008D01*
X4303863Y-9016008D02*
X4313386Y-9025531D01*
X4313386Y-9025531D02*
X4322910Y-9016008D01*
X4322910Y-9016008D02*
X4313386Y-9006484D01*
X4313386Y-9006484D02*
X4313386Y-9025531D01*
X4437196Y-9206484D02*
X4418148Y-9196960D01*
X4418148Y-9196960D02*
X4408624Y-9177912D01*
X4408624Y-9177912D02*
X4408624Y-9006484D01*
X4541958Y-9206484D02*
X4522910Y-9196960D01*
X4522910Y-9196960D02*
X4513386Y-9177912D01*
X4513386Y-9177912D02*
X4513386Y-9006484D01*
X4770529Y-9206484D02*
X4770529Y-9006484D01*
X4770529Y-9006484D02*
X4837196Y-9149341D01*
X4837196Y-9149341D02*
X4903863Y-9006484D01*
X4903863Y-9006484D02*
X4903863Y-9206484D01*
X5084815Y-9206484D02*
X5084815Y-9101722D01*
X5084815Y-9101722D02*
X5075291Y-9082674D01*
X5075291Y-9082674D02*
X5056244Y-9073150D01*
X5056244Y-9073150D02*
X5018148Y-9073150D01*
X5018148Y-9073150D02*
X4999101Y-9082674D01*
X5084815Y-9196960D02*
X5065767Y-9206484D01*
X5065767Y-9206484D02*
X5018148Y-9206484D01*
X5018148Y-9206484D02*
X4999101Y-9196960D01*
X4999101Y-9196960D02*
X4989577Y-9177912D01*
X4989577Y-9177912D02*
X4989577Y-9158865D01*
X4989577Y-9158865D02*
X4999101Y-9139817D01*
X4999101Y-9139817D02*
X5018148Y-9130293D01*
X5018148Y-9130293D02*
X5065767Y-9130293D01*
X5065767Y-9130293D02*
X5084815Y-9120770D01*
X5180053Y-9073150D02*
X5180053Y-9273150D01*
X5180053Y-9082674D02*
X5199101Y-9073150D01*
X5199101Y-9073150D02*
X5237196Y-9073150D01*
X5237196Y-9073150D02*
X5256244Y-9082674D01*
X5256244Y-9082674D02*
X5265767Y-9092198D01*
X5265767Y-9092198D02*
X5275291Y-9111246D01*
X5275291Y-9111246D02*
X5275291Y-9168389D01*
X5275291Y-9168389D02*
X5265767Y-9187436D01*
X5265767Y-9187436D02*
X5256244Y-9196960D01*
X5256244Y-9196960D02*
X5237196Y-9206484D01*
X5237196Y-9206484D02*
X5199101Y-9206484D01*
X5199101Y-9206484D02*
X5180053Y-9196960D01*
X5361005Y-9187436D02*
X5370529Y-9196960D01*
X5370529Y-9196960D02*
X5361005Y-9206484D01*
X5361005Y-9206484D02*
X5351482Y-9196960D01*
X5351482Y-9196960D02*
X5361005Y-9187436D01*
X5361005Y-9187436D02*
X5361005Y-9206484D01*
X5361005Y-9082674D02*
X5370529Y-9092198D01*
X5370529Y-9092198D02*
X5361005Y-9101722D01*
X5361005Y-9101722D02*
X5351482Y-9092198D01*
X5351482Y-9092198D02*
X5361005Y-9082674D01*
X5361005Y-9082674D02*
X5361005Y-9101722D01*
D12*
X3608800Y-9475000D02*
X3728800Y-9595000D01*
X3728800Y-9475000D02*
X3608800Y-9595000D01*
D11*
X4094339Y-9626484D02*
X3980053Y-9626484D01*
X4037196Y-9626484D02*
X4037196Y-9426484D01*
X4037196Y-9426484D02*
X4018148Y-9455055D01*
X4018148Y-9455055D02*
X3999101Y-9474103D01*
X3999101Y-9474103D02*
X3980053Y-9483627D01*
X4180053Y-9607436D02*
X4189577Y-9616960D01*
X4189577Y-9616960D02*
X4180053Y-9626484D01*
X4180053Y-9626484D02*
X4170529Y-9616960D01*
X4170529Y-9616960D02*
X4180053Y-9607436D01*
X4180053Y-9607436D02*
X4180053Y-9626484D01*
X4265767Y-9445531D02*
X4275291Y-9436008D01*
X4275291Y-9436008D02*
X4294339Y-9426484D01*
X4294339Y-9426484D02*
X4341958Y-9426484D01*
X4341958Y-9426484D02*
X4361005Y-9436008D01*
X4361005Y-9436008D02*
X4370529Y-9445531D01*
X4370529Y-9445531D02*
X4380053Y-9464579D01*
X4380053Y-9464579D02*
X4380053Y-9483627D01*
X4380053Y-9483627D02*
X4370529Y-9512198D01*
X4370529Y-9512198D02*
X4256244Y-9626484D01*
X4256244Y-9626484D02*
X4380053Y-9626484D01*
X4503863Y-9426484D02*
X4522910Y-9426484D01*
X4522910Y-9426484D02*
X4541958Y-9436008D01*
X4541958Y-9436008D02*
X4551482Y-9445531D01*
X4551482Y-9445531D02*
X4561005Y-9464579D01*
X4561005Y-9464579D02*
X4570529Y-9502674D01*
X4570529Y-9502674D02*
X4570529Y-9550293D01*
X4570529Y-9550293D02*
X4561005Y-9588389D01*
X4561005Y-9588389D02*
X4551482Y-9607436D01*
X4551482Y-9607436D02*
X4541958Y-9616960D01*
X4541958Y-9616960D02*
X4522910Y-9626484D01*
X4522910Y-9626484D02*
X4503863Y-9626484D01*
X4503863Y-9626484D02*
X4484815Y-9616960D01*
X4484815Y-9616960D02*
X4475291Y-9607436D01*
X4475291Y-9607436D02*
X4465767Y-9588389D01*
X4465767Y-9588389D02*
X4456244Y-9550293D01*
X4456244Y-9550293D02*
X4456244Y-9502674D01*
X4456244Y-9502674D02*
X4465767Y-9464579D01*
X4465767Y-9464579D02*
X4475291Y-9445531D01*
X4475291Y-9445531D02*
X4484815Y-9436008D01*
X4484815Y-9436008D02*
X4503863Y-9426484D01*
X4694339Y-9426484D02*
X4713386Y-9426484D01*
X4713386Y-9426484D02*
X4732434Y-9436008D01*
X4732434Y-9436008D02*
X4741958Y-9445531D01*
X4741958Y-9445531D02*
X4751482Y-9464579D01*
X4751482Y-9464579D02*
X4761005Y-9502674D01*
X4761005Y-9502674D02*
X4761005Y-9550293D01*
X4761005Y-9550293D02*
X4751482Y-9588389D01*
X4751482Y-9588389D02*
X4741958Y-9607436D01*
X4741958Y-9607436D02*
X4732434Y-9616960D01*
X4732434Y-9616960D02*
X4713386Y-9626484D01*
X4713386Y-9626484D02*
X4694339Y-9626484D01*
X4694339Y-9626484D02*
X4675291Y-9616960D01*
X4675291Y-9616960D02*
X4665767Y-9607436D01*
X4665767Y-9607436D02*
X4656244Y-9588389D01*
X4656244Y-9588389D02*
X4646720Y-9550293D01*
X4646720Y-9550293D02*
X4646720Y-9502674D01*
X4646720Y-9502674D02*
X4656244Y-9464579D01*
X4656244Y-9464579D02*
X4665767Y-9445531D01*
X4665767Y-9445531D02*
X4675291Y-9436008D01*
X4675291Y-9436008D02*
X4694339Y-9426484D01*
X4846720Y-9626484D02*
X4846720Y-9493150D01*
X4846720Y-9512198D02*
X4856244Y-9502674D01*
X4856244Y-9502674D02*
X4875291Y-9493150D01*
X4875291Y-9493150D02*
X4903863Y-9493150D01*
X4903863Y-9493150D02*
X4922910Y-9502674D01*
X4922910Y-9502674D02*
X4932434Y-9521722D01*
X4932434Y-9521722D02*
X4932434Y-9626484D01*
X4932434Y-9521722D02*
X4941958Y-9502674D01*
X4941958Y-9502674D02*
X4961005Y-9493150D01*
X4961005Y-9493150D02*
X4989577Y-9493150D01*
X4989577Y-9493150D02*
X5008625Y-9502674D01*
X5008625Y-9502674D02*
X5018148Y-9521722D01*
X5018148Y-9521722D02*
X5018148Y-9626484D01*
X5113386Y-9626484D02*
X5113386Y-9493150D01*
X5113386Y-9512198D02*
X5122910Y-9502674D01*
X5122910Y-9502674D02*
X5141958Y-9493150D01*
X5141958Y-9493150D02*
X5170529Y-9493150D01*
X5170529Y-9493150D02*
X5189577Y-9502674D01*
X5189577Y-9502674D02*
X5199101Y-9521722D01*
X5199101Y-9521722D02*
X5199101Y-9626484D01*
X5199101Y-9521722D02*
X5208625Y-9502674D01*
X5208625Y-9502674D02*
X5227672Y-9493150D01*
X5227672Y-9493150D02*
X5256244Y-9493150D01*
X5256244Y-9493150D02*
X5275291Y-9502674D01*
X5275291Y-9502674D02*
X5284815Y-9521722D01*
X5284815Y-9521722D02*
X5284815Y-9626484D01*
X5675291Y-9416960D02*
X5503863Y-9674103D01*
X5932434Y-9426484D02*
X5951482Y-9426484D01*
X5951482Y-9426484D02*
X5970529Y-9436008D01*
X5970529Y-9436008D02*
X5980053Y-9445531D01*
X5980053Y-9445531D02*
X5989577Y-9464579D01*
X5989577Y-9464579D02*
X5999101Y-9502674D01*
X5999101Y-9502674D02*
X5999101Y-9550293D01*
X5999101Y-9550293D02*
X5989577Y-9588389D01*
X5989577Y-9588389D02*
X5980053Y-9607436D01*
X5980053Y-9607436D02*
X5970529Y-9616960D01*
X5970529Y-9616960D02*
X5951482Y-9626484D01*
X5951482Y-9626484D02*
X5932434Y-9626484D01*
X5932434Y-9626484D02*
X5913386Y-9616960D01*
X5913386Y-9616960D02*
X5903863Y-9607436D01*
X5903863Y-9607436D02*
X5894339Y-9588389D01*
X5894339Y-9588389D02*
X5884815Y-9550293D01*
X5884815Y-9550293D02*
X5884815Y-9502674D01*
X5884815Y-9502674D02*
X5894339Y-9464579D01*
X5894339Y-9464579D02*
X5903863Y-9445531D01*
X5903863Y-9445531D02*
X5913386Y-9436008D01*
X5913386Y-9436008D02*
X5932434Y-9426484D01*
X6084815Y-9607436D02*
X6094339Y-9616960D01*
X6094339Y-9616960D02*
X6084815Y-9626484D01*
X6084815Y-9626484D02*
X6075291Y-9616960D01*
X6075291Y-9616960D02*
X6084815Y-9607436D01*
X6084815Y-9607436D02*
X6084815Y-9626484D01*
X6218148Y-9426484D02*
X6237196Y-9426484D01*
X6237196Y-9426484D02*
X6256244Y-9436008D01*
X6256244Y-9436008D02*
X6265767Y-9445531D01*
X6265767Y-9445531D02*
X6275291Y-9464579D01*
X6275291Y-9464579D02*
X6284815Y-9502674D01*
X6284815Y-9502674D02*
X6284815Y-9550293D01*
X6284815Y-9550293D02*
X6275291Y-9588389D01*
X6275291Y-9588389D02*
X6265767Y-9607436D01*
X6265767Y-9607436D02*
X6256244Y-9616960D01*
X6256244Y-9616960D02*
X6237196Y-9626484D01*
X6237196Y-9626484D02*
X6218148Y-9626484D01*
X6218148Y-9626484D02*
X6199101Y-9616960D01*
X6199101Y-9616960D02*
X6189577Y-9607436D01*
X6189577Y-9607436D02*
X6180053Y-9588389D01*
X6180053Y-9588389D02*
X6170529Y-9550293D01*
X6170529Y-9550293D02*
X6170529Y-9502674D01*
X6170529Y-9502674D02*
X6180053Y-9464579D01*
X6180053Y-9464579D02*
X6189577Y-9445531D01*
X6189577Y-9445531D02*
X6199101Y-9436008D01*
X6199101Y-9436008D02*
X6218148Y-9426484D01*
X6456244Y-9493150D02*
X6456244Y-9626484D01*
X6408625Y-9416960D02*
X6361006Y-9559817D01*
X6361006Y-9559817D02*
X6484815Y-9559817D01*
X6541958Y-9426484D02*
X6675291Y-9426484D01*
X6675291Y-9426484D02*
X6589577Y-9626484D01*
X6741958Y-9445531D02*
X6751482Y-9436008D01*
X6751482Y-9436008D02*
X6770529Y-9426484D01*
X6770529Y-9426484D02*
X6818148Y-9426484D01*
X6818148Y-9426484D02*
X6837196Y-9436008D01*
X6837196Y-9436008D02*
X6846720Y-9445531D01*
X6846720Y-9445531D02*
X6856244Y-9464579D01*
X6856244Y-9464579D02*
X6856244Y-9483627D01*
X6856244Y-9483627D02*
X6846720Y-9512198D01*
X6846720Y-9512198D02*
X6732434Y-9626484D01*
X6732434Y-9626484D02*
X6856244Y-9626484D01*
X6932434Y-9426484D02*
X6932434Y-9464579D01*
X7008625Y-9426484D02*
X7008625Y-9464579D01*
X7303863Y-9702674D02*
X7294339Y-9693150D01*
X7294339Y-9693150D02*
X7275291Y-9664579D01*
X7275291Y-9664579D02*
X7265768Y-9645531D01*
X7265768Y-9645531D02*
X7256244Y-9616960D01*
X7256244Y-9616960D02*
X7246720Y-9569341D01*
X7246720Y-9569341D02*
X7246720Y-9531246D01*
X7246720Y-9531246D02*
X7256244Y-9483627D01*
X7256244Y-9483627D02*
X7265768Y-9455055D01*
X7265768Y-9455055D02*
X7275291Y-9436008D01*
X7275291Y-9436008D02*
X7294339Y-9407436D01*
X7294339Y-9407436D02*
X7303863Y-9397912D01*
X7465768Y-9493150D02*
X7465768Y-9626484D01*
X7418148Y-9416960D02*
X7370529Y-9559817D01*
X7370529Y-9559817D02*
X7494339Y-9559817D01*
X7722910Y-9626484D02*
X7722910Y-9426484D01*
X7808625Y-9626484D02*
X7808625Y-9521722D01*
X7808625Y-9521722D02*
X7799101Y-9502674D01*
X7799101Y-9502674D02*
X7780053Y-9493150D01*
X7780053Y-9493150D02*
X7751482Y-9493150D01*
X7751482Y-9493150D02*
X7732434Y-9502674D01*
X7732434Y-9502674D02*
X7722910Y-9512198D01*
X7932434Y-9626484D02*
X7913387Y-9616960D01*
X7913387Y-9616960D02*
X7903863Y-9607436D01*
X7903863Y-9607436D02*
X7894339Y-9588389D01*
X7894339Y-9588389D02*
X7894339Y-9531246D01*
X7894339Y-9531246D02*
X7903863Y-9512198D01*
X7903863Y-9512198D02*
X7913387Y-9502674D01*
X7913387Y-9502674D02*
X7932434Y-9493150D01*
X7932434Y-9493150D02*
X7961006Y-9493150D01*
X7961006Y-9493150D02*
X7980053Y-9502674D01*
X7980053Y-9502674D02*
X7989577Y-9512198D01*
X7989577Y-9512198D02*
X7999101Y-9531246D01*
X7999101Y-9531246D02*
X7999101Y-9588389D01*
X7999101Y-9588389D02*
X7989577Y-9607436D01*
X7989577Y-9607436D02*
X7980053Y-9616960D01*
X7980053Y-9616960D02*
X7961006Y-9626484D01*
X7961006Y-9626484D02*
X7932434Y-9626484D01*
X8113387Y-9626484D02*
X8094339Y-9616960D01*
X8094339Y-9616960D02*
X8084815Y-9597912D01*
X8084815Y-9597912D02*
X8084815Y-9426484D01*
X8265768Y-9616960D02*
X8246720Y-9626484D01*
X8246720Y-9626484D02*
X8208625Y-9626484D01*
X8208625Y-9626484D02*
X8189577Y-9616960D01*
X8189577Y-9616960D02*
X8180053Y-9597912D01*
X8180053Y-9597912D02*
X8180053Y-9521722D01*
X8180053Y-9521722D02*
X8189577Y-9502674D01*
X8189577Y-9502674D02*
X8208625Y-9493150D01*
X8208625Y-9493150D02*
X8246720Y-9493150D01*
X8246720Y-9493150D02*
X8265768Y-9502674D01*
X8265768Y-9502674D02*
X8275291Y-9521722D01*
X8275291Y-9521722D02*
X8275291Y-9540770D01*
X8275291Y-9540770D02*
X8180053Y-9559817D01*
X8351482Y-9616960D02*
X8370530Y-9626484D01*
X8370530Y-9626484D02*
X8408625Y-9626484D01*
X8408625Y-9626484D02*
X8427673Y-9616960D01*
X8427673Y-9616960D02*
X8437196Y-9597912D01*
X8437196Y-9597912D02*
X8437196Y-9588389D01*
X8437196Y-9588389D02*
X8427673Y-9569341D01*
X8427673Y-9569341D02*
X8408625Y-9559817D01*
X8408625Y-9559817D02*
X8380053Y-9559817D01*
X8380053Y-9559817D02*
X8361006Y-9550293D01*
X8361006Y-9550293D02*
X8351482Y-9531246D01*
X8351482Y-9531246D02*
X8351482Y-9521722D01*
X8351482Y-9521722D02*
X8361006Y-9502674D01*
X8361006Y-9502674D02*
X8380053Y-9493150D01*
X8380053Y-9493150D02*
X8408625Y-9493150D01*
X8408625Y-9493150D02*
X8427673Y-9502674D01*
X8503863Y-9702674D02*
X8513387Y-9693150D01*
X8513387Y-9693150D02*
X8532434Y-9664579D01*
X8532434Y-9664579D02*
X8541958Y-9645531D01*
X8541958Y-9645531D02*
X8551482Y-9616960D01*
X8551482Y-9616960D02*
X8561006Y-9569341D01*
X8561006Y-9569341D02*
X8561006Y-9531246D01*
X8561006Y-9531246D02*
X8551482Y-9483627D01*
X8551482Y-9483627D02*
X8541958Y-9455055D01*
X8541958Y-9455055D02*
X8532434Y-9436008D01*
X8532434Y-9436008D02*
X8513387Y-9407436D01*
X8513387Y-9407436D02*
X8503863Y-9397912D01*
X8865768Y-9702674D02*
X8856244Y-9693150D01*
X8856244Y-9693150D02*
X8837196Y-9664579D01*
X8837196Y-9664579D02*
X8827673Y-9645531D01*
X8827673Y-9645531D02*
X8818149Y-9616960D01*
X8818149Y-9616960D02*
X8808625Y-9569341D01*
X8808625Y-9569341D02*
X8808625Y-9531246D01*
X8808625Y-9531246D02*
X8818149Y-9483627D01*
X8818149Y-9483627D02*
X8827673Y-9455055D01*
X8827673Y-9455055D02*
X8837196Y-9436008D01*
X8837196Y-9436008D02*
X8856244Y-9407436D01*
X8856244Y-9407436D02*
X8865768Y-9397912D01*
X8941958Y-9493150D02*
X8941958Y-9626484D01*
X8941958Y-9512198D02*
X8951482Y-9502674D01*
X8951482Y-9502674D02*
X8970530Y-9493150D01*
X8970530Y-9493150D02*
X8999101Y-9493150D01*
X8999101Y-9493150D02*
X9018149Y-9502674D01*
X9018149Y-9502674D02*
X9027673Y-9521722D01*
X9027673Y-9521722D02*
X9027673Y-9626484D01*
X9151482Y-9626484D02*
X9132434Y-9616960D01*
X9132434Y-9616960D02*
X9122911Y-9607436D01*
X9122911Y-9607436D02*
X9113387Y-9588389D01*
X9113387Y-9588389D02*
X9113387Y-9531246D01*
X9113387Y-9531246D02*
X9122911Y-9512198D01*
X9122911Y-9512198D02*
X9132434Y-9502674D01*
X9132434Y-9502674D02*
X9151482Y-9493150D01*
X9151482Y-9493150D02*
X9180054Y-9493150D01*
X9180054Y-9493150D02*
X9199101Y-9502674D01*
X9199101Y-9502674D02*
X9208625Y-9512198D01*
X9208625Y-9512198D02*
X9218149Y-9531246D01*
X9218149Y-9531246D02*
X9218149Y-9588389D01*
X9218149Y-9588389D02*
X9208625Y-9607436D01*
X9208625Y-9607436D02*
X9199101Y-9616960D01*
X9199101Y-9616960D02*
X9180054Y-9626484D01*
X9180054Y-9626484D02*
X9151482Y-9626484D01*
X9275292Y-9493150D02*
X9351482Y-9493150D01*
X9303863Y-9426484D02*
X9303863Y-9597912D01*
X9303863Y-9597912D02*
X9313387Y-9616960D01*
X9313387Y-9616960D02*
X9332434Y-9626484D01*
X9332434Y-9626484D02*
X9351482Y-9626484D01*
X9570530Y-9493150D02*
X9570530Y-9693150D01*
X9570530Y-9502674D02*
X9589577Y-9493150D01*
X9589577Y-9493150D02*
X9627673Y-9493150D01*
X9627673Y-9493150D02*
X9646720Y-9502674D01*
X9646720Y-9502674D02*
X9656244Y-9512198D01*
X9656244Y-9512198D02*
X9665768Y-9531246D01*
X9665768Y-9531246D02*
X9665768Y-9588389D01*
X9665768Y-9588389D02*
X9656244Y-9607436D01*
X9656244Y-9607436D02*
X9646720Y-9616960D01*
X9646720Y-9616960D02*
X9627673Y-9626484D01*
X9627673Y-9626484D02*
X9589577Y-9626484D01*
X9589577Y-9626484D02*
X9570530Y-9616960D01*
X9780054Y-9626484D02*
X9761006Y-9616960D01*
X9761006Y-9616960D02*
X9751482Y-9597912D01*
X9751482Y-9597912D02*
X9751482Y-9426484D01*
X9941958Y-9626484D02*
X9941958Y-9521722D01*
X9941958Y-9521722D02*
X9932435Y-9502674D01*
X9932435Y-9502674D02*
X9913387Y-9493150D01*
X9913387Y-9493150D02*
X9875292Y-9493150D01*
X9875292Y-9493150D02*
X9856244Y-9502674D01*
X9941958Y-9616960D02*
X9922911Y-9626484D01*
X9922911Y-9626484D02*
X9875292Y-9626484D01*
X9875292Y-9626484D02*
X9856244Y-9616960D01*
X9856244Y-9616960D02*
X9846720Y-9597912D01*
X9846720Y-9597912D02*
X9846720Y-9578865D01*
X9846720Y-9578865D02*
X9856244Y-9559817D01*
X9856244Y-9559817D02*
X9875292Y-9550293D01*
X9875292Y-9550293D02*
X9922911Y-9550293D01*
X9922911Y-9550293D02*
X9941958Y-9540770D01*
X10008625Y-9493150D02*
X10084815Y-9493150D01*
X10037196Y-9426484D02*
X10037196Y-9597912D01*
X10037196Y-9597912D02*
X10046720Y-9616960D01*
X10046720Y-9616960D02*
X10065768Y-9626484D01*
X10065768Y-9626484D02*
X10084815Y-9626484D01*
X10227673Y-9616960D02*
X10208625Y-9626484D01*
X10208625Y-9626484D02*
X10170530Y-9626484D01*
X10170530Y-9626484D02*
X10151482Y-9616960D01*
X10151482Y-9616960D02*
X10141958Y-9597912D01*
X10141958Y-9597912D02*
X10141958Y-9521722D01*
X10141958Y-9521722D02*
X10151482Y-9502674D01*
X10151482Y-9502674D02*
X10170530Y-9493150D01*
X10170530Y-9493150D02*
X10208625Y-9493150D01*
X10208625Y-9493150D02*
X10227673Y-9502674D01*
X10227673Y-9502674D02*
X10237196Y-9521722D01*
X10237196Y-9521722D02*
X10237196Y-9540770D01*
X10237196Y-9540770D02*
X10141958Y-9559817D01*
X10408625Y-9626484D02*
X10408625Y-9426484D01*
X10408625Y-9616960D02*
X10389577Y-9626484D01*
X10389577Y-9626484D02*
X10351482Y-9626484D01*
X10351482Y-9626484D02*
X10332435Y-9616960D01*
X10332435Y-9616960D02*
X10322911Y-9607436D01*
X10322911Y-9607436D02*
X10313387Y-9588389D01*
X10313387Y-9588389D02*
X10313387Y-9531246D01*
X10313387Y-9531246D02*
X10322911Y-9512198D01*
X10322911Y-9512198D02*
X10332435Y-9502674D01*
X10332435Y-9502674D02*
X10351482Y-9493150D01*
X10351482Y-9493150D02*
X10389577Y-9493150D01*
X10389577Y-9493150D02*
X10408625Y-9502674D01*
X10484816Y-9702674D02*
X10494339Y-9693150D01*
X10494339Y-9693150D02*
X10513387Y-9664579D01*
X10513387Y-9664579D02*
X10522911Y-9645531D01*
X10522911Y-9645531D02*
X10532435Y-9616960D01*
X10532435Y-9616960D02*
X10541958Y-9569341D01*
X10541958Y-9569341D02*
X10541958Y-9531246D01*
X10541958Y-9531246D02*
X10532435Y-9483627D01*
X10532435Y-9483627D02*
X10522911Y-9455055D01*
X10522911Y-9455055D02*
X10513387Y-9436008D01*
X10513387Y-9436008D02*
X10494339Y-9407436D01*
X10494339Y-9407436D02*
X10484816Y-9397912D01*
D13*
X3728800Y-9799000D02*
G75*
G03*
X3598800Y-9799000I-65000J0D01*
G01*
X3598800Y-9799000D02*
G75*
G03*
X3728800Y-9799000I65000J0D01*
G01*
D11*
X4094339Y-9890484D02*
X3980053Y-9890484D01*
X4037196Y-9890484D02*
X4037196Y-9690484D01*
X4037196Y-9690484D02*
X4018148Y-9719055D01*
X4018148Y-9719055D02*
X3999101Y-9738103D01*
X3999101Y-9738103D02*
X3980053Y-9747627D01*
X4180053Y-9871436D02*
X4189577Y-9880960D01*
X4189577Y-9880960D02*
X4180053Y-9890484D01*
X4180053Y-9890484D02*
X4170529Y-9880960D01*
X4170529Y-9880960D02*
X4180053Y-9871436D01*
X4180053Y-9871436D02*
X4180053Y-9890484D01*
X4256244Y-9690484D02*
X4380053Y-9690484D01*
X4380053Y-9690484D02*
X4313386Y-9766674D01*
X4313386Y-9766674D02*
X4341958Y-9766674D01*
X4341958Y-9766674D02*
X4361005Y-9776198D01*
X4361005Y-9776198D02*
X4370529Y-9785722D01*
X4370529Y-9785722D02*
X4380053Y-9804770D01*
X4380053Y-9804770D02*
X4380053Y-9852389D01*
X4380053Y-9852389D02*
X4370529Y-9871436D01*
X4370529Y-9871436D02*
X4361005Y-9880960D01*
X4361005Y-9880960D02*
X4341958Y-9890484D01*
X4341958Y-9890484D02*
X4284815Y-9890484D01*
X4284815Y-9890484D02*
X4265767Y-9880960D01*
X4265767Y-9880960D02*
X4256244Y-9871436D01*
X4503863Y-9690484D02*
X4522910Y-9690484D01*
X4522910Y-9690484D02*
X4541958Y-9700008D01*
X4541958Y-9700008D02*
X4551482Y-9709531D01*
X4551482Y-9709531D02*
X4561005Y-9728579D01*
X4561005Y-9728579D02*
X4570529Y-9766674D01*
X4570529Y-9766674D02*
X4570529Y-9814293D01*
X4570529Y-9814293D02*
X4561005Y-9852389D01*
X4561005Y-9852389D02*
X4551482Y-9871436D01*
X4551482Y-9871436D02*
X4541958Y-9880960D01*
X4541958Y-9880960D02*
X4522910Y-9890484D01*
X4522910Y-9890484D02*
X4503863Y-9890484D01*
X4503863Y-9890484D02*
X4484815Y-9880960D01*
X4484815Y-9880960D02*
X4475291Y-9871436D01*
X4475291Y-9871436D02*
X4465767Y-9852389D01*
X4465767Y-9852389D02*
X4456244Y-9814293D01*
X4456244Y-9814293D02*
X4456244Y-9766674D01*
X4456244Y-9766674D02*
X4465767Y-9728579D01*
X4465767Y-9728579D02*
X4475291Y-9709531D01*
X4475291Y-9709531D02*
X4484815Y-9700008D01*
X4484815Y-9700008D02*
X4503863Y-9690484D01*
X4694339Y-9690484D02*
X4713386Y-9690484D01*
X4713386Y-9690484D02*
X4732434Y-9700008D01*
X4732434Y-9700008D02*
X4741958Y-9709531D01*
X4741958Y-9709531D02*
X4751482Y-9728579D01*
X4751482Y-9728579D02*
X4761005Y-9766674D01*
X4761005Y-9766674D02*
X4761005Y-9814293D01*
X4761005Y-9814293D02*
X4751482Y-9852389D01*
X4751482Y-9852389D02*
X4741958Y-9871436D01*
X4741958Y-9871436D02*
X4732434Y-9880960D01*
X4732434Y-9880960D02*
X4713386Y-9890484D01*
X4713386Y-9890484D02*
X4694339Y-9890484D01*
X4694339Y-9890484D02*
X4675291Y-9880960D01*
X4675291Y-9880960D02*
X4665767Y-9871436D01*
X4665767Y-9871436D02*
X4656244Y-9852389D01*
X4656244Y-9852389D02*
X4646720Y-9814293D01*
X4646720Y-9814293D02*
X4646720Y-9766674D01*
X4646720Y-9766674D02*
X4656244Y-9728579D01*
X4656244Y-9728579D02*
X4665767Y-9709531D01*
X4665767Y-9709531D02*
X4675291Y-9700008D01*
X4675291Y-9700008D02*
X4694339Y-9690484D01*
X4846720Y-9890484D02*
X4846720Y-9757150D01*
X4846720Y-9776198D02*
X4856244Y-9766674D01*
X4856244Y-9766674D02*
X4875291Y-9757150D01*
X4875291Y-9757150D02*
X4903863Y-9757150D01*
X4903863Y-9757150D02*
X4922910Y-9766674D01*
X4922910Y-9766674D02*
X4932434Y-9785722D01*
X4932434Y-9785722D02*
X4932434Y-9890484D01*
X4932434Y-9785722D02*
X4941958Y-9766674D01*
X4941958Y-9766674D02*
X4961005Y-9757150D01*
X4961005Y-9757150D02*
X4989577Y-9757150D01*
X4989577Y-9757150D02*
X5008625Y-9766674D01*
X5008625Y-9766674D02*
X5018148Y-9785722D01*
X5018148Y-9785722D02*
X5018148Y-9890484D01*
X5113386Y-9890484D02*
X5113386Y-9757150D01*
X5113386Y-9776198D02*
X5122910Y-9766674D01*
X5122910Y-9766674D02*
X5141958Y-9757150D01*
X5141958Y-9757150D02*
X5170529Y-9757150D01*
X5170529Y-9757150D02*
X5189577Y-9766674D01*
X5189577Y-9766674D02*
X5199101Y-9785722D01*
X5199101Y-9785722D02*
X5199101Y-9890484D01*
X5199101Y-9785722D02*
X5208625Y-9766674D01*
X5208625Y-9766674D02*
X5227672Y-9757150D01*
X5227672Y-9757150D02*
X5256244Y-9757150D01*
X5256244Y-9757150D02*
X5275291Y-9766674D01*
X5275291Y-9766674D02*
X5284815Y-9785722D01*
X5284815Y-9785722D02*
X5284815Y-9890484D01*
X5675291Y-9680960D02*
X5503863Y-9938103D01*
X5932434Y-9690484D02*
X5951482Y-9690484D01*
X5951482Y-9690484D02*
X5970529Y-9700008D01*
X5970529Y-9700008D02*
X5980053Y-9709531D01*
X5980053Y-9709531D02*
X5989577Y-9728579D01*
X5989577Y-9728579D02*
X5999101Y-9766674D01*
X5999101Y-9766674D02*
X5999101Y-9814293D01*
X5999101Y-9814293D02*
X5989577Y-9852389D01*
X5989577Y-9852389D02*
X5980053Y-9871436D01*
X5980053Y-9871436D02*
X5970529Y-9880960D01*
X5970529Y-9880960D02*
X5951482Y-9890484D01*
X5951482Y-9890484D02*
X5932434Y-9890484D01*
X5932434Y-9890484D02*
X5913386Y-9880960D01*
X5913386Y-9880960D02*
X5903863Y-9871436D01*
X5903863Y-9871436D02*
X5894339Y-9852389D01*
X5894339Y-9852389D02*
X5884815Y-9814293D01*
X5884815Y-9814293D02*
X5884815Y-9766674D01*
X5884815Y-9766674D02*
X5894339Y-9728579D01*
X5894339Y-9728579D02*
X5903863Y-9709531D01*
X5903863Y-9709531D02*
X5913386Y-9700008D01*
X5913386Y-9700008D02*
X5932434Y-9690484D01*
X6084815Y-9871436D02*
X6094339Y-9880960D01*
X6094339Y-9880960D02*
X6084815Y-9890484D01*
X6084815Y-9890484D02*
X6075291Y-9880960D01*
X6075291Y-9880960D02*
X6084815Y-9871436D01*
X6084815Y-9871436D02*
X6084815Y-9890484D01*
X6218148Y-9690484D02*
X6237196Y-9690484D01*
X6237196Y-9690484D02*
X6256244Y-9700008D01*
X6256244Y-9700008D02*
X6265767Y-9709531D01*
X6265767Y-9709531D02*
X6275291Y-9728579D01*
X6275291Y-9728579D02*
X6284815Y-9766674D01*
X6284815Y-9766674D02*
X6284815Y-9814293D01*
X6284815Y-9814293D02*
X6275291Y-9852389D01*
X6275291Y-9852389D02*
X6265767Y-9871436D01*
X6265767Y-9871436D02*
X6256244Y-9880960D01*
X6256244Y-9880960D02*
X6237196Y-9890484D01*
X6237196Y-9890484D02*
X6218148Y-9890484D01*
X6218148Y-9890484D02*
X6199101Y-9880960D01*
X6199101Y-9880960D02*
X6189577Y-9871436D01*
X6189577Y-9871436D02*
X6180053Y-9852389D01*
X6180053Y-9852389D02*
X6170529Y-9814293D01*
X6170529Y-9814293D02*
X6170529Y-9766674D01*
X6170529Y-9766674D02*
X6180053Y-9728579D01*
X6180053Y-9728579D02*
X6189577Y-9709531D01*
X6189577Y-9709531D02*
X6199101Y-9700008D01*
X6199101Y-9700008D02*
X6218148Y-9690484D01*
X6465767Y-9690484D02*
X6370529Y-9690484D01*
X6370529Y-9690484D02*
X6361006Y-9785722D01*
X6361006Y-9785722D02*
X6370529Y-9776198D01*
X6370529Y-9776198D02*
X6389577Y-9766674D01*
X6389577Y-9766674D02*
X6437196Y-9766674D01*
X6437196Y-9766674D02*
X6456244Y-9776198D01*
X6456244Y-9776198D02*
X6465767Y-9785722D01*
X6465767Y-9785722D02*
X6475291Y-9804770D01*
X6475291Y-9804770D02*
X6475291Y-9852389D01*
X6475291Y-9852389D02*
X6465767Y-9871436D01*
X6465767Y-9871436D02*
X6456244Y-9880960D01*
X6456244Y-9880960D02*
X6437196Y-9890484D01*
X6437196Y-9890484D02*
X6389577Y-9890484D01*
X6389577Y-9890484D02*
X6370529Y-9880960D01*
X6370529Y-9880960D02*
X6361006Y-9871436D01*
X6665767Y-9890484D02*
X6551482Y-9890484D01*
X6608625Y-9890484D02*
X6608625Y-9690484D01*
X6608625Y-9690484D02*
X6589577Y-9719055D01*
X6589577Y-9719055D02*
X6570529Y-9738103D01*
X6570529Y-9738103D02*
X6551482Y-9747627D01*
X6741958Y-9709531D02*
X6751482Y-9700008D01*
X6751482Y-9700008D02*
X6770529Y-9690484D01*
X6770529Y-9690484D02*
X6818148Y-9690484D01*
X6818148Y-9690484D02*
X6837196Y-9700008D01*
X6837196Y-9700008D02*
X6846720Y-9709531D01*
X6846720Y-9709531D02*
X6856244Y-9728579D01*
X6856244Y-9728579D02*
X6856244Y-9747627D01*
X6856244Y-9747627D02*
X6846720Y-9776198D01*
X6846720Y-9776198D02*
X6732434Y-9890484D01*
X6732434Y-9890484D02*
X6856244Y-9890484D01*
X6932434Y-9690484D02*
X6932434Y-9728579D01*
X7008625Y-9690484D02*
X7008625Y-9728579D01*
X7303863Y-9966674D02*
X7294339Y-9957150D01*
X7294339Y-9957150D02*
X7275291Y-9928579D01*
X7275291Y-9928579D02*
X7265768Y-9909531D01*
X7265768Y-9909531D02*
X7256244Y-9880960D01*
X7256244Y-9880960D02*
X7246720Y-9833341D01*
X7246720Y-9833341D02*
X7246720Y-9795246D01*
X7246720Y-9795246D02*
X7256244Y-9747627D01*
X7256244Y-9747627D02*
X7265768Y-9719055D01*
X7265768Y-9719055D02*
X7275291Y-9700008D01*
X7275291Y-9700008D02*
X7294339Y-9671436D01*
X7294339Y-9671436D02*
X7303863Y-9661912D01*
X7370529Y-9709531D02*
X7380053Y-9700008D01*
X7380053Y-9700008D02*
X7399101Y-9690484D01*
X7399101Y-9690484D02*
X7446720Y-9690484D01*
X7446720Y-9690484D02*
X7465768Y-9700008D01*
X7465768Y-9700008D02*
X7475291Y-9709531D01*
X7475291Y-9709531D02*
X7484815Y-9728579D01*
X7484815Y-9728579D02*
X7484815Y-9747627D01*
X7484815Y-9747627D02*
X7475291Y-9776198D01*
X7475291Y-9776198D02*
X7361006Y-9890484D01*
X7361006Y-9890484D02*
X7484815Y-9890484D01*
X7722910Y-9890484D02*
X7722910Y-9690484D01*
X7808625Y-9890484D02*
X7808625Y-9785722D01*
X7808625Y-9785722D02*
X7799101Y-9766674D01*
X7799101Y-9766674D02*
X7780053Y-9757150D01*
X7780053Y-9757150D02*
X7751482Y-9757150D01*
X7751482Y-9757150D02*
X7732434Y-9766674D01*
X7732434Y-9766674D02*
X7722910Y-9776198D01*
X7932434Y-9890484D02*
X7913387Y-9880960D01*
X7913387Y-9880960D02*
X7903863Y-9871436D01*
X7903863Y-9871436D02*
X7894339Y-9852389D01*
X7894339Y-9852389D02*
X7894339Y-9795246D01*
X7894339Y-9795246D02*
X7903863Y-9776198D01*
X7903863Y-9776198D02*
X7913387Y-9766674D01*
X7913387Y-9766674D02*
X7932434Y-9757150D01*
X7932434Y-9757150D02*
X7961006Y-9757150D01*
X7961006Y-9757150D02*
X7980053Y-9766674D01*
X7980053Y-9766674D02*
X7989577Y-9776198D01*
X7989577Y-9776198D02*
X7999101Y-9795246D01*
X7999101Y-9795246D02*
X7999101Y-9852389D01*
X7999101Y-9852389D02*
X7989577Y-9871436D01*
X7989577Y-9871436D02*
X7980053Y-9880960D01*
X7980053Y-9880960D02*
X7961006Y-9890484D01*
X7961006Y-9890484D02*
X7932434Y-9890484D01*
X8113387Y-9890484D02*
X8094339Y-9880960D01*
X8094339Y-9880960D02*
X8084815Y-9861912D01*
X8084815Y-9861912D02*
X8084815Y-9690484D01*
X8265768Y-9880960D02*
X8246720Y-9890484D01*
X8246720Y-9890484D02*
X8208625Y-9890484D01*
X8208625Y-9890484D02*
X8189577Y-9880960D01*
X8189577Y-9880960D02*
X8180053Y-9861912D01*
X8180053Y-9861912D02*
X8180053Y-9785722D01*
X8180053Y-9785722D02*
X8189577Y-9766674D01*
X8189577Y-9766674D02*
X8208625Y-9757150D01*
X8208625Y-9757150D02*
X8246720Y-9757150D01*
X8246720Y-9757150D02*
X8265768Y-9766674D01*
X8265768Y-9766674D02*
X8275291Y-9785722D01*
X8275291Y-9785722D02*
X8275291Y-9804770D01*
X8275291Y-9804770D02*
X8180053Y-9823817D01*
X8351482Y-9880960D02*
X8370530Y-9890484D01*
X8370530Y-9890484D02*
X8408625Y-9890484D01*
X8408625Y-9890484D02*
X8427673Y-9880960D01*
X8427673Y-9880960D02*
X8437196Y-9861912D01*
X8437196Y-9861912D02*
X8437196Y-9852389D01*
X8437196Y-9852389D02*
X8427673Y-9833341D01*
X8427673Y-9833341D02*
X8408625Y-9823817D01*
X8408625Y-9823817D02*
X8380053Y-9823817D01*
X8380053Y-9823817D02*
X8361006Y-9814293D01*
X8361006Y-9814293D02*
X8351482Y-9795246D01*
X8351482Y-9795246D02*
X8351482Y-9785722D01*
X8351482Y-9785722D02*
X8361006Y-9766674D01*
X8361006Y-9766674D02*
X8380053Y-9757150D01*
X8380053Y-9757150D02*
X8408625Y-9757150D01*
X8408625Y-9757150D02*
X8427673Y-9766674D01*
X8503863Y-9966674D02*
X8513387Y-9957150D01*
X8513387Y-9957150D02*
X8532434Y-9928579D01*
X8532434Y-9928579D02*
X8541958Y-9909531D01*
X8541958Y-9909531D02*
X8551482Y-9880960D01*
X8551482Y-9880960D02*
X8561006Y-9833341D01*
X8561006Y-9833341D02*
X8561006Y-9795246D01*
X8561006Y-9795246D02*
X8551482Y-9747627D01*
X8551482Y-9747627D02*
X8541958Y-9719055D01*
X8541958Y-9719055D02*
X8532434Y-9700008D01*
X8532434Y-9700008D02*
X8513387Y-9671436D01*
X8513387Y-9671436D02*
X8503863Y-9661912D01*
X8865768Y-9966674D02*
X8856244Y-9957150D01*
X8856244Y-9957150D02*
X8837196Y-9928579D01*
X8837196Y-9928579D02*
X8827673Y-9909531D01*
X8827673Y-9909531D02*
X8818149Y-9880960D01*
X8818149Y-9880960D02*
X8808625Y-9833341D01*
X8808625Y-9833341D02*
X8808625Y-9795246D01*
X8808625Y-9795246D02*
X8818149Y-9747627D01*
X8818149Y-9747627D02*
X8827673Y-9719055D01*
X8827673Y-9719055D02*
X8837196Y-9700008D01*
X8837196Y-9700008D02*
X8856244Y-9671436D01*
X8856244Y-9671436D02*
X8865768Y-9661912D01*
X8941958Y-9757150D02*
X8941958Y-9890484D01*
X8941958Y-9776198D02*
X8951482Y-9766674D01*
X8951482Y-9766674D02*
X8970530Y-9757150D01*
X8970530Y-9757150D02*
X8999101Y-9757150D01*
X8999101Y-9757150D02*
X9018149Y-9766674D01*
X9018149Y-9766674D02*
X9027673Y-9785722D01*
X9027673Y-9785722D02*
X9027673Y-9890484D01*
X9151482Y-9890484D02*
X9132434Y-9880960D01*
X9132434Y-9880960D02*
X9122911Y-9871436D01*
X9122911Y-9871436D02*
X9113387Y-9852389D01*
X9113387Y-9852389D02*
X9113387Y-9795246D01*
X9113387Y-9795246D02*
X9122911Y-9776198D01*
X9122911Y-9776198D02*
X9132434Y-9766674D01*
X9132434Y-9766674D02*
X9151482Y-9757150D01*
X9151482Y-9757150D02*
X9180054Y-9757150D01*
X9180054Y-9757150D02*
X9199101Y-9766674D01*
X9199101Y-9766674D02*
X9208625Y-9776198D01*
X9208625Y-9776198D02*
X9218149Y-9795246D01*
X9218149Y-9795246D02*
X9218149Y-9852389D01*
X9218149Y-9852389D02*
X9208625Y-9871436D01*
X9208625Y-9871436D02*
X9199101Y-9880960D01*
X9199101Y-9880960D02*
X9180054Y-9890484D01*
X9180054Y-9890484D02*
X9151482Y-9890484D01*
X9275292Y-9757150D02*
X9351482Y-9757150D01*
X9303863Y-9690484D02*
X9303863Y-9861912D01*
X9303863Y-9861912D02*
X9313387Y-9880960D01*
X9313387Y-9880960D02*
X9332434Y-9890484D01*
X9332434Y-9890484D02*
X9351482Y-9890484D01*
X9570530Y-9757150D02*
X9570530Y-9957150D01*
X9570530Y-9766674D02*
X9589577Y-9757150D01*
X9589577Y-9757150D02*
X9627673Y-9757150D01*
X9627673Y-9757150D02*
X9646720Y-9766674D01*
X9646720Y-9766674D02*
X9656244Y-9776198D01*
X9656244Y-9776198D02*
X9665768Y-9795246D01*
X9665768Y-9795246D02*
X9665768Y-9852389D01*
X9665768Y-9852389D02*
X9656244Y-9871436D01*
X9656244Y-9871436D02*
X9646720Y-9880960D01*
X9646720Y-9880960D02*
X9627673Y-9890484D01*
X9627673Y-9890484D02*
X9589577Y-9890484D01*
X9589577Y-9890484D02*
X9570530Y-9880960D01*
X9780054Y-9890484D02*
X9761006Y-9880960D01*
X9761006Y-9880960D02*
X9751482Y-9861912D01*
X9751482Y-9861912D02*
X9751482Y-9690484D01*
X9941958Y-9890484D02*
X9941958Y-9785722D01*
X9941958Y-9785722D02*
X9932435Y-9766674D01*
X9932435Y-9766674D02*
X9913387Y-9757150D01*
X9913387Y-9757150D02*
X9875292Y-9757150D01*
X9875292Y-9757150D02*
X9856244Y-9766674D01*
X9941958Y-9880960D02*
X9922911Y-9890484D01*
X9922911Y-9890484D02*
X9875292Y-9890484D01*
X9875292Y-9890484D02*
X9856244Y-9880960D01*
X9856244Y-9880960D02*
X9846720Y-9861912D01*
X9846720Y-9861912D02*
X9846720Y-9842865D01*
X9846720Y-9842865D02*
X9856244Y-9823817D01*
X9856244Y-9823817D02*
X9875292Y-9814293D01*
X9875292Y-9814293D02*
X9922911Y-9814293D01*
X9922911Y-9814293D02*
X9941958Y-9804770D01*
X10008625Y-9757150D02*
X10084815Y-9757150D01*
X10037196Y-9690484D02*
X10037196Y-9861912D01*
X10037196Y-9861912D02*
X10046720Y-9880960D01*
X10046720Y-9880960D02*
X10065768Y-9890484D01*
X10065768Y-9890484D02*
X10084815Y-9890484D01*
X10227673Y-9880960D02*
X10208625Y-9890484D01*
X10208625Y-9890484D02*
X10170530Y-9890484D01*
X10170530Y-9890484D02*
X10151482Y-9880960D01*
X10151482Y-9880960D02*
X10141958Y-9861912D01*
X10141958Y-9861912D02*
X10141958Y-9785722D01*
X10141958Y-9785722D02*
X10151482Y-9766674D01*
X10151482Y-9766674D02*
X10170530Y-9757150D01*
X10170530Y-9757150D02*
X10208625Y-9757150D01*
X10208625Y-9757150D02*
X10227673Y-9766674D01*
X10227673Y-9766674D02*
X10237196Y-9785722D01*
X10237196Y-9785722D02*
X10237196Y-9804770D01*
X10237196Y-9804770D02*
X10141958Y-9823817D01*
X10408625Y-9890484D02*
X10408625Y-9690484D01*
X10408625Y-9880960D02*
X10389577Y-9890484D01*
X10389577Y-9890484D02*
X10351482Y-9890484D01*
X10351482Y-9890484D02*
X10332435Y-9880960D01*
X10332435Y-9880960D02*
X10322911Y-9871436D01*
X10322911Y-9871436D02*
X10313387Y-9852389D01*
X10313387Y-9852389D02*
X10313387Y-9795246D01*
X10313387Y-9795246D02*
X10322911Y-9776198D01*
X10322911Y-9776198D02*
X10332435Y-9766674D01*
X10332435Y-9766674D02*
X10351482Y-9757150D01*
X10351482Y-9757150D02*
X10389577Y-9757150D01*
X10389577Y-9757150D02*
X10408625Y-9766674D01*
X10484816Y-9966674D02*
X10494339Y-9957150D01*
X10494339Y-9957150D02*
X10513387Y-9928579D01*
X10513387Y-9928579D02*
X10522911Y-9909531D01*
X10522911Y-9909531D02*
X10532435Y-9880960D01*
X10532435Y-9880960D02*
X10541958Y-9833341D01*
X10541958Y-9833341D02*
X10541958Y-9795246D01*
X10541958Y-9795246D02*
X10532435Y-9747627D01*
X10532435Y-9747627D02*
X10522911Y-9719055D01*
X10522911Y-9719055D02*
X10513387Y-9700008D01*
X10513387Y-9700008D02*
X10494339Y-9671436D01*
X10494339Y-9671436D02*
X10484816Y-9661912D01*
D14*
X3653800Y-9988000D02*
X3653800Y-10138000D01*
X3578800Y-10063000D02*
X3728800Y-10063000D01*
D11*
X4094339Y-10154484D02*
X3980053Y-10154484D01*
X4037196Y-10154484D02*
X4037196Y-9954484D01*
X4037196Y-9954484D02*
X4018148Y-9983055D01*
X4018148Y-9983055D02*
X3999101Y-10002103D01*
X3999101Y-10002103D02*
X3980053Y-10011627D01*
X4180053Y-10135436D02*
X4189577Y-10144960D01*
X4189577Y-10144960D02*
X4180053Y-10154484D01*
X4180053Y-10154484D02*
X4170529Y-10144960D01*
X4170529Y-10144960D02*
X4180053Y-10135436D01*
X4180053Y-10135436D02*
X4180053Y-10154484D01*
X4370529Y-9954484D02*
X4275291Y-9954484D01*
X4275291Y-9954484D02*
X4265767Y-10049722D01*
X4265767Y-10049722D02*
X4275291Y-10040198D01*
X4275291Y-10040198D02*
X4294339Y-10030674D01*
X4294339Y-10030674D02*
X4341958Y-10030674D01*
X4341958Y-10030674D02*
X4361005Y-10040198D01*
X4361005Y-10040198D02*
X4370529Y-10049722D01*
X4370529Y-10049722D02*
X4380053Y-10068770D01*
X4380053Y-10068770D02*
X4380053Y-10116389D01*
X4380053Y-10116389D02*
X4370529Y-10135436D01*
X4370529Y-10135436D02*
X4361005Y-10144960D01*
X4361005Y-10144960D02*
X4341958Y-10154484D01*
X4341958Y-10154484D02*
X4294339Y-10154484D01*
X4294339Y-10154484D02*
X4275291Y-10144960D01*
X4275291Y-10144960D02*
X4265767Y-10135436D01*
X4503863Y-9954484D02*
X4522910Y-9954484D01*
X4522910Y-9954484D02*
X4541958Y-9964008D01*
X4541958Y-9964008D02*
X4551482Y-9973531D01*
X4551482Y-9973531D02*
X4561005Y-9992579D01*
X4561005Y-9992579D02*
X4570529Y-10030674D01*
X4570529Y-10030674D02*
X4570529Y-10078293D01*
X4570529Y-10078293D02*
X4561005Y-10116389D01*
X4561005Y-10116389D02*
X4551482Y-10135436D01*
X4551482Y-10135436D02*
X4541958Y-10144960D01*
X4541958Y-10144960D02*
X4522910Y-10154484D01*
X4522910Y-10154484D02*
X4503863Y-10154484D01*
X4503863Y-10154484D02*
X4484815Y-10144960D01*
X4484815Y-10144960D02*
X4475291Y-10135436D01*
X4475291Y-10135436D02*
X4465767Y-10116389D01*
X4465767Y-10116389D02*
X4456244Y-10078293D01*
X4456244Y-10078293D02*
X4456244Y-10030674D01*
X4456244Y-10030674D02*
X4465767Y-9992579D01*
X4465767Y-9992579D02*
X4475291Y-9973531D01*
X4475291Y-9973531D02*
X4484815Y-9964008D01*
X4484815Y-9964008D02*
X4503863Y-9954484D01*
X4694339Y-9954484D02*
X4713386Y-9954484D01*
X4713386Y-9954484D02*
X4732434Y-9964008D01*
X4732434Y-9964008D02*
X4741958Y-9973531D01*
X4741958Y-9973531D02*
X4751482Y-9992579D01*
X4751482Y-9992579D02*
X4761005Y-10030674D01*
X4761005Y-10030674D02*
X4761005Y-10078293D01*
X4761005Y-10078293D02*
X4751482Y-10116389D01*
X4751482Y-10116389D02*
X4741958Y-10135436D01*
X4741958Y-10135436D02*
X4732434Y-10144960D01*
X4732434Y-10144960D02*
X4713386Y-10154484D01*
X4713386Y-10154484D02*
X4694339Y-10154484D01*
X4694339Y-10154484D02*
X4675291Y-10144960D01*
X4675291Y-10144960D02*
X4665767Y-10135436D01*
X4665767Y-10135436D02*
X4656244Y-10116389D01*
X4656244Y-10116389D02*
X4646720Y-10078293D01*
X4646720Y-10078293D02*
X4646720Y-10030674D01*
X4646720Y-10030674D02*
X4656244Y-9992579D01*
X4656244Y-9992579D02*
X4665767Y-9973531D01*
X4665767Y-9973531D02*
X4675291Y-9964008D01*
X4675291Y-9964008D02*
X4694339Y-9954484D01*
X4846720Y-10154484D02*
X4846720Y-10021150D01*
X4846720Y-10040198D02*
X4856244Y-10030674D01*
X4856244Y-10030674D02*
X4875291Y-10021150D01*
X4875291Y-10021150D02*
X4903863Y-10021150D01*
X4903863Y-10021150D02*
X4922910Y-10030674D01*
X4922910Y-10030674D02*
X4932434Y-10049722D01*
X4932434Y-10049722D02*
X4932434Y-10154484D01*
X4932434Y-10049722D02*
X4941958Y-10030674D01*
X4941958Y-10030674D02*
X4961005Y-10021150D01*
X4961005Y-10021150D02*
X4989577Y-10021150D01*
X4989577Y-10021150D02*
X5008625Y-10030674D01*
X5008625Y-10030674D02*
X5018148Y-10049722D01*
X5018148Y-10049722D02*
X5018148Y-10154484D01*
X5113386Y-10154484D02*
X5113386Y-10021150D01*
X5113386Y-10040198D02*
X5122910Y-10030674D01*
X5122910Y-10030674D02*
X5141958Y-10021150D01*
X5141958Y-10021150D02*
X5170529Y-10021150D01*
X5170529Y-10021150D02*
X5189577Y-10030674D01*
X5189577Y-10030674D02*
X5199101Y-10049722D01*
X5199101Y-10049722D02*
X5199101Y-10154484D01*
X5199101Y-10049722D02*
X5208625Y-10030674D01*
X5208625Y-10030674D02*
X5227672Y-10021150D01*
X5227672Y-10021150D02*
X5256244Y-10021150D01*
X5256244Y-10021150D02*
X5275291Y-10030674D01*
X5275291Y-10030674D02*
X5284815Y-10049722D01*
X5284815Y-10049722D02*
X5284815Y-10154484D01*
X5675291Y-9944960D02*
X5503863Y-10202103D01*
X5932434Y-9954484D02*
X5951482Y-9954484D01*
X5951482Y-9954484D02*
X5970529Y-9964008D01*
X5970529Y-9964008D02*
X5980053Y-9973531D01*
X5980053Y-9973531D02*
X5989577Y-9992579D01*
X5989577Y-9992579D02*
X5999101Y-10030674D01*
X5999101Y-10030674D02*
X5999101Y-10078293D01*
X5999101Y-10078293D02*
X5989577Y-10116389D01*
X5989577Y-10116389D02*
X5980053Y-10135436D01*
X5980053Y-10135436D02*
X5970529Y-10144960D01*
X5970529Y-10144960D02*
X5951482Y-10154484D01*
X5951482Y-10154484D02*
X5932434Y-10154484D01*
X5932434Y-10154484D02*
X5913386Y-10144960D01*
X5913386Y-10144960D02*
X5903863Y-10135436D01*
X5903863Y-10135436D02*
X5894339Y-10116389D01*
X5894339Y-10116389D02*
X5884815Y-10078293D01*
X5884815Y-10078293D02*
X5884815Y-10030674D01*
X5884815Y-10030674D02*
X5894339Y-9992579D01*
X5894339Y-9992579D02*
X5903863Y-9973531D01*
X5903863Y-9973531D02*
X5913386Y-9964008D01*
X5913386Y-9964008D02*
X5932434Y-9954484D01*
X6084815Y-10135436D02*
X6094339Y-10144960D01*
X6094339Y-10144960D02*
X6084815Y-10154484D01*
X6084815Y-10154484D02*
X6075291Y-10144960D01*
X6075291Y-10144960D02*
X6084815Y-10135436D01*
X6084815Y-10135436D02*
X6084815Y-10154484D01*
X6218148Y-9954484D02*
X6237196Y-9954484D01*
X6237196Y-9954484D02*
X6256244Y-9964008D01*
X6256244Y-9964008D02*
X6265767Y-9973531D01*
X6265767Y-9973531D02*
X6275291Y-9992579D01*
X6275291Y-9992579D02*
X6284815Y-10030674D01*
X6284815Y-10030674D02*
X6284815Y-10078293D01*
X6284815Y-10078293D02*
X6275291Y-10116389D01*
X6275291Y-10116389D02*
X6265767Y-10135436D01*
X6265767Y-10135436D02*
X6256244Y-10144960D01*
X6256244Y-10144960D02*
X6237196Y-10154484D01*
X6237196Y-10154484D02*
X6218148Y-10154484D01*
X6218148Y-10154484D02*
X6199101Y-10144960D01*
X6199101Y-10144960D02*
X6189577Y-10135436D01*
X6189577Y-10135436D02*
X6180053Y-10116389D01*
X6180053Y-10116389D02*
X6170529Y-10078293D01*
X6170529Y-10078293D02*
X6170529Y-10030674D01*
X6170529Y-10030674D02*
X6180053Y-9992579D01*
X6180053Y-9992579D02*
X6189577Y-9973531D01*
X6189577Y-9973531D02*
X6199101Y-9964008D01*
X6199101Y-9964008D02*
X6218148Y-9954484D01*
X6465767Y-9954484D02*
X6370529Y-9954484D01*
X6370529Y-9954484D02*
X6361006Y-10049722D01*
X6361006Y-10049722D02*
X6370529Y-10040198D01*
X6370529Y-10040198D02*
X6389577Y-10030674D01*
X6389577Y-10030674D02*
X6437196Y-10030674D01*
X6437196Y-10030674D02*
X6456244Y-10040198D01*
X6456244Y-10040198D02*
X6465767Y-10049722D01*
X6465767Y-10049722D02*
X6475291Y-10068770D01*
X6475291Y-10068770D02*
X6475291Y-10116389D01*
X6475291Y-10116389D02*
X6465767Y-10135436D01*
X6465767Y-10135436D02*
X6456244Y-10144960D01*
X6456244Y-10144960D02*
X6437196Y-10154484D01*
X6437196Y-10154484D02*
X6389577Y-10154484D01*
X6389577Y-10154484D02*
X6370529Y-10144960D01*
X6370529Y-10144960D02*
X6361006Y-10135436D01*
X6570529Y-10154484D02*
X6608625Y-10154484D01*
X6608625Y-10154484D02*
X6627672Y-10144960D01*
X6627672Y-10144960D02*
X6637196Y-10135436D01*
X6637196Y-10135436D02*
X6656244Y-10106865D01*
X6656244Y-10106865D02*
X6665767Y-10068770D01*
X6665767Y-10068770D02*
X6665767Y-9992579D01*
X6665767Y-9992579D02*
X6656244Y-9973531D01*
X6656244Y-9973531D02*
X6646720Y-9964008D01*
X6646720Y-9964008D02*
X6627672Y-9954484D01*
X6627672Y-9954484D02*
X6589577Y-9954484D01*
X6589577Y-9954484D02*
X6570529Y-9964008D01*
X6570529Y-9964008D02*
X6561006Y-9973531D01*
X6561006Y-9973531D02*
X6551482Y-9992579D01*
X6551482Y-9992579D02*
X6551482Y-10040198D01*
X6551482Y-10040198D02*
X6561006Y-10059246D01*
X6561006Y-10059246D02*
X6570529Y-10068770D01*
X6570529Y-10068770D02*
X6589577Y-10078293D01*
X6589577Y-10078293D02*
X6627672Y-10078293D01*
X6627672Y-10078293D02*
X6646720Y-10068770D01*
X6646720Y-10068770D02*
X6656244Y-10059246D01*
X6656244Y-10059246D02*
X6665767Y-10040198D01*
X6856244Y-10154484D02*
X6741958Y-10154484D01*
X6799101Y-10154484D02*
X6799101Y-9954484D01*
X6799101Y-9954484D02*
X6780053Y-9983055D01*
X6780053Y-9983055D02*
X6761006Y-10002103D01*
X6761006Y-10002103D02*
X6741958Y-10011627D01*
X6932434Y-9954484D02*
X6932434Y-9992579D01*
X7008625Y-9954484D02*
X7008625Y-9992579D01*
X7303863Y-10230674D02*
X7294339Y-10221150D01*
X7294339Y-10221150D02*
X7275291Y-10192579D01*
X7275291Y-10192579D02*
X7265768Y-10173531D01*
X7265768Y-10173531D02*
X7256244Y-10144960D01*
X7256244Y-10144960D02*
X7246720Y-10097341D01*
X7246720Y-10097341D02*
X7246720Y-10059246D01*
X7246720Y-10059246D02*
X7256244Y-10011627D01*
X7256244Y-10011627D02*
X7265768Y-9983055D01*
X7265768Y-9983055D02*
X7275291Y-9964008D01*
X7275291Y-9964008D02*
X7294339Y-9935436D01*
X7294339Y-9935436D02*
X7303863Y-9925912D01*
X7370529Y-9973531D02*
X7380053Y-9964008D01*
X7380053Y-9964008D02*
X7399101Y-9954484D01*
X7399101Y-9954484D02*
X7446720Y-9954484D01*
X7446720Y-9954484D02*
X7465768Y-9964008D01*
X7465768Y-9964008D02*
X7475291Y-9973531D01*
X7475291Y-9973531D02*
X7484815Y-9992579D01*
X7484815Y-9992579D02*
X7484815Y-10011627D01*
X7484815Y-10011627D02*
X7475291Y-10040198D01*
X7475291Y-10040198D02*
X7361006Y-10154484D01*
X7361006Y-10154484D02*
X7484815Y-10154484D01*
X7722910Y-10154484D02*
X7722910Y-9954484D01*
X7808625Y-10154484D02*
X7808625Y-10049722D01*
X7808625Y-10049722D02*
X7799101Y-10030674D01*
X7799101Y-10030674D02*
X7780053Y-10021150D01*
X7780053Y-10021150D02*
X7751482Y-10021150D01*
X7751482Y-10021150D02*
X7732434Y-10030674D01*
X7732434Y-10030674D02*
X7722910Y-10040198D01*
X7932434Y-10154484D02*
X7913387Y-10144960D01*
X7913387Y-10144960D02*
X7903863Y-10135436D01*
X7903863Y-10135436D02*
X7894339Y-10116389D01*
X7894339Y-10116389D02*
X7894339Y-10059246D01*
X7894339Y-10059246D02*
X7903863Y-10040198D01*
X7903863Y-10040198D02*
X7913387Y-10030674D01*
X7913387Y-10030674D02*
X7932434Y-10021150D01*
X7932434Y-10021150D02*
X7961006Y-10021150D01*
X7961006Y-10021150D02*
X7980053Y-10030674D01*
X7980053Y-10030674D02*
X7989577Y-10040198D01*
X7989577Y-10040198D02*
X7999101Y-10059246D01*
X7999101Y-10059246D02*
X7999101Y-10116389D01*
X7999101Y-10116389D02*
X7989577Y-10135436D01*
X7989577Y-10135436D02*
X7980053Y-10144960D01*
X7980053Y-10144960D02*
X7961006Y-10154484D01*
X7961006Y-10154484D02*
X7932434Y-10154484D01*
X8113387Y-10154484D02*
X8094339Y-10144960D01*
X8094339Y-10144960D02*
X8084815Y-10125912D01*
X8084815Y-10125912D02*
X8084815Y-9954484D01*
X8265768Y-10144960D02*
X8246720Y-10154484D01*
X8246720Y-10154484D02*
X8208625Y-10154484D01*
X8208625Y-10154484D02*
X8189577Y-10144960D01*
X8189577Y-10144960D02*
X8180053Y-10125912D01*
X8180053Y-10125912D02*
X8180053Y-10049722D01*
X8180053Y-10049722D02*
X8189577Y-10030674D01*
X8189577Y-10030674D02*
X8208625Y-10021150D01*
X8208625Y-10021150D02*
X8246720Y-10021150D01*
X8246720Y-10021150D02*
X8265768Y-10030674D01*
X8265768Y-10030674D02*
X8275291Y-10049722D01*
X8275291Y-10049722D02*
X8275291Y-10068770D01*
X8275291Y-10068770D02*
X8180053Y-10087817D01*
X8351482Y-10144960D02*
X8370530Y-10154484D01*
X8370530Y-10154484D02*
X8408625Y-10154484D01*
X8408625Y-10154484D02*
X8427673Y-10144960D01*
X8427673Y-10144960D02*
X8437196Y-10125912D01*
X8437196Y-10125912D02*
X8437196Y-10116389D01*
X8437196Y-10116389D02*
X8427673Y-10097341D01*
X8427673Y-10097341D02*
X8408625Y-10087817D01*
X8408625Y-10087817D02*
X8380053Y-10087817D01*
X8380053Y-10087817D02*
X8361006Y-10078293D01*
X8361006Y-10078293D02*
X8351482Y-10059246D01*
X8351482Y-10059246D02*
X8351482Y-10049722D01*
X8351482Y-10049722D02*
X8361006Y-10030674D01*
X8361006Y-10030674D02*
X8380053Y-10021150D01*
X8380053Y-10021150D02*
X8408625Y-10021150D01*
X8408625Y-10021150D02*
X8427673Y-10030674D01*
X8503863Y-10230674D02*
X8513387Y-10221150D01*
X8513387Y-10221150D02*
X8532434Y-10192579D01*
X8532434Y-10192579D02*
X8541958Y-10173531D01*
X8541958Y-10173531D02*
X8551482Y-10144960D01*
X8551482Y-10144960D02*
X8561006Y-10097341D01*
X8561006Y-10097341D02*
X8561006Y-10059246D01*
X8561006Y-10059246D02*
X8551482Y-10011627D01*
X8551482Y-10011627D02*
X8541958Y-9983055D01*
X8541958Y-9983055D02*
X8532434Y-9964008D01*
X8532434Y-9964008D02*
X8513387Y-9935436D01*
X8513387Y-9935436D02*
X8503863Y-9925912D01*
X8865768Y-10230674D02*
X8856244Y-10221150D01*
X8856244Y-10221150D02*
X8837196Y-10192579D01*
X8837196Y-10192579D02*
X8827673Y-10173531D01*
X8827673Y-10173531D02*
X8818149Y-10144960D01*
X8818149Y-10144960D02*
X8808625Y-10097341D01*
X8808625Y-10097341D02*
X8808625Y-10059246D01*
X8808625Y-10059246D02*
X8818149Y-10011627D01*
X8818149Y-10011627D02*
X8827673Y-9983055D01*
X8827673Y-9983055D02*
X8837196Y-9964008D01*
X8837196Y-9964008D02*
X8856244Y-9935436D01*
X8856244Y-9935436D02*
X8865768Y-9925912D01*
X8941958Y-10021150D02*
X8941958Y-10154484D01*
X8941958Y-10040198D02*
X8951482Y-10030674D01*
X8951482Y-10030674D02*
X8970530Y-10021150D01*
X8970530Y-10021150D02*
X8999101Y-10021150D01*
X8999101Y-10021150D02*
X9018149Y-10030674D01*
X9018149Y-10030674D02*
X9027673Y-10049722D01*
X9027673Y-10049722D02*
X9027673Y-10154484D01*
X9151482Y-10154484D02*
X9132434Y-10144960D01*
X9132434Y-10144960D02*
X9122911Y-10135436D01*
X9122911Y-10135436D02*
X9113387Y-10116389D01*
X9113387Y-10116389D02*
X9113387Y-10059246D01*
X9113387Y-10059246D02*
X9122911Y-10040198D01*
X9122911Y-10040198D02*
X9132434Y-10030674D01*
X9132434Y-10030674D02*
X9151482Y-10021150D01*
X9151482Y-10021150D02*
X9180054Y-10021150D01*
X9180054Y-10021150D02*
X9199101Y-10030674D01*
X9199101Y-10030674D02*
X9208625Y-10040198D01*
X9208625Y-10040198D02*
X9218149Y-10059246D01*
X9218149Y-10059246D02*
X9218149Y-10116389D01*
X9218149Y-10116389D02*
X9208625Y-10135436D01*
X9208625Y-10135436D02*
X9199101Y-10144960D01*
X9199101Y-10144960D02*
X9180054Y-10154484D01*
X9180054Y-10154484D02*
X9151482Y-10154484D01*
X9275292Y-10021150D02*
X9351482Y-10021150D01*
X9303863Y-9954484D02*
X9303863Y-10125912D01*
X9303863Y-10125912D02*
X9313387Y-10144960D01*
X9313387Y-10144960D02*
X9332434Y-10154484D01*
X9332434Y-10154484D02*
X9351482Y-10154484D01*
X9570530Y-10021150D02*
X9570530Y-10221150D01*
X9570530Y-10030674D02*
X9589577Y-10021150D01*
X9589577Y-10021150D02*
X9627673Y-10021150D01*
X9627673Y-10021150D02*
X9646720Y-10030674D01*
X9646720Y-10030674D02*
X9656244Y-10040198D01*
X9656244Y-10040198D02*
X9665768Y-10059246D01*
X9665768Y-10059246D02*
X9665768Y-10116389D01*
X9665768Y-10116389D02*
X9656244Y-10135436D01*
X9656244Y-10135436D02*
X9646720Y-10144960D01*
X9646720Y-10144960D02*
X9627673Y-10154484D01*
X9627673Y-10154484D02*
X9589577Y-10154484D01*
X9589577Y-10154484D02*
X9570530Y-10144960D01*
X9780054Y-10154484D02*
X9761006Y-10144960D01*
X9761006Y-10144960D02*
X9751482Y-10125912D01*
X9751482Y-10125912D02*
X9751482Y-9954484D01*
X9941958Y-10154484D02*
X9941958Y-10049722D01*
X9941958Y-10049722D02*
X9932435Y-10030674D01*
X9932435Y-10030674D02*
X9913387Y-10021150D01*
X9913387Y-10021150D02*
X9875292Y-10021150D01*
X9875292Y-10021150D02*
X9856244Y-10030674D01*
X9941958Y-10144960D02*
X9922911Y-10154484D01*
X9922911Y-10154484D02*
X9875292Y-10154484D01*
X9875292Y-10154484D02*
X9856244Y-10144960D01*
X9856244Y-10144960D02*
X9846720Y-10125912D01*
X9846720Y-10125912D02*
X9846720Y-10106865D01*
X9846720Y-10106865D02*
X9856244Y-10087817D01*
X9856244Y-10087817D02*
X9875292Y-10078293D01*
X9875292Y-10078293D02*
X9922911Y-10078293D01*
X9922911Y-10078293D02*
X9941958Y-10068770D01*
X10008625Y-10021150D02*
X10084815Y-10021150D01*
X10037196Y-9954484D02*
X10037196Y-10125912D01*
X10037196Y-10125912D02*
X10046720Y-10144960D01*
X10046720Y-10144960D02*
X10065768Y-10154484D01*
X10065768Y-10154484D02*
X10084815Y-10154484D01*
X10227673Y-10144960D02*
X10208625Y-10154484D01*
X10208625Y-10154484D02*
X10170530Y-10154484D01*
X10170530Y-10154484D02*
X10151482Y-10144960D01*
X10151482Y-10144960D02*
X10141958Y-10125912D01*
X10141958Y-10125912D02*
X10141958Y-10049722D01*
X10141958Y-10049722D02*
X10151482Y-10030674D01*
X10151482Y-10030674D02*
X10170530Y-10021150D01*
X10170530Y-10021150D02*
X10208625Y-10021150D01*
X10208625Y-10021150D02*
X10227673Y-10030674D01*
X10227673Y-10030674D02*
X10237196Y-10049722D01*
X10237196Y-10049722D02*
X10237196Y-10068770D01*
X10237196Y-10068770D02*
X10141958Y-10087817D01*
X10408625Y-10154484D02*
X10408625Y-9954484D01*
X10408625Y-10144960D02*
X10389577Y-10154484D01*
X10389577Y-10154484D02*
X10351482Y-10154484D01*
X10351482Y-10154484D02*
X10332435Y-10144960D01*
X10332435Y-10144960D02*
X10322911Y-10135436D01*
X10322911Y-10135436D02*
X10313387Y-10116389D01*
X10313387Y-10116389D02*
X10313387Y-10059246D01*
X10313387Y-10059246D02*
X10322911Y-10040198D01*
X10322911Y-10040198D02*
X10332435Y-10030674D01*
X10332435Y-10030674D02*
X10351482Y-10021150D01*
X10351482Y-10021150D02*
X10389577Y-10021150D01*
X10389577Y-10021150D02*
X10408625Y-10030674D01*
X10484816Y-10230674D02*
X10494339Y-10221150D01*
X10494339Y-10221150D02*
X10513387Y-10192579D01*
X10513387Y-10192579D02*
X10522911Y-10173531D01*
X10522911Y-10173531D02*
X10532435Y-10144960D01*
X10532435Y-10144960D02*
X10541958Y-10097341D01*
X10541958Y-10097341D02*
X10541958Y-10059246D01*
X10541958Y-10059246D02*
X10532435Y-10011627D01*
X10532435Y-10011627D02*
X10522911Y-9983055D01*
X10522911Y-9983055D02*
X10513387Y-9964008D01*
X10513387Y-9964008D02*
X10494339Y-9935436D01*
X10494339Y-9935436D02*
X10484816Y-9925912D01*
D15*
X3702440Y-10396640D02*
X3702440Y-10269360D01*
X3575160Y-10269360D01*
X3575160Y-10396640D01*
X3702440Y-10396640D01*
D11*
X4094339Y-10424484D02*
X3980053Y-10424484D01*
X4037196Y-10424484D02*
X4037196Y-10224484D01*
X4037196Y-10224484D02*
X4018148Y-10253055D01*
X4018148Y-10253055D02*
X3999101Y-10272103D01*
X3999101Y-10272103D02*
X3980053Y-10281627D01*
X4180053Y-10405436D02*
X4189577Y-10414960D01*
X4189577Y-10414960D02*
X4180053Y-10424484D01*
X4180053Y-10424484D02*
X4170529Y-10414960D01*
X4170529Y-10414960D02*
X4180053Y-10405436D01*
X4180053Y-10405436D02*
X4180053Y-10424484D01*
X4303863Y-10310198D02*
X4284815Y-10300674D01*
X4284815Y-10300674D02*
X4275291Y-10291150D01*
X4275291Y-10291150D02*
X4265767Y-10272103D01*
X4265767Y-10272103D02*
X4265767Y-10262579D01*
X4265767Y-10262579D02*
X4275291Y-10243531D01*
X4275291Y-10243531D02*
X4284815Y-10234008D01*
X4284815Y-10234008D02*
X4303863Y-10224484D01*
X4303863Y-10224484D02*
X4341958Y-10224484D01*
X4341958Y-10224484D02*
X4361005Y-10234008D01*
X4361005Y-10234008D02*
X4370529Y-10243531D01*
X4370529Y-10243531D02*
X4380053Y-10262579D01*
X4380053Y-10262579D02*
X4380053Y-10272103D01*
X4380053Y-10272103D02*
X4370529Y-10291150D01*
X4370529Y-10291150D02*
X4361005Y-10300674D01*
X4361005Y-10300674D02*
X4341958Y-10310198D01*
X4341958Y-10310198D02*
X4303863Y-10310198D01*
X4303863Y-10310198D02*
X4284815Y-10319722D01*
X4284815Y-10319722D02*
X4275291Y-10329246D01*
X4275291Y-10329246D02*
X4265767Y-10348293D01*
X4265767Y-10348293D02*
X4265767Y-10386389D01*
X4265767Y-10386389D02*
X4275291Y-10405436D01*
X4275291Y-10405436D02*
X4284815Y-10414960D01*
X4284815Y-10414960D02*
X4303863Y-10424484D01*
X4303863Y-10424484D02*
X4341958Y-10424484D01*
X4341958Y-10424484D02*
X4361005Y-10414960D01*
X4361005Y-10414960D02*
X4370529Y-10405436D01*
X4370529Y-10405436D02*
X4380053Y-10386389D01*
X4380053Y-10386389D02*
X4380053Y-10348293D01*
X4380053Y-10348293D02*
X4370529Y-10329246D01*
X4370529Y-10329246D02*
X4361005Y-10319722D01*
X4361005Y-10319722D02*
X4341958Y-10310198D01*
X4503863Y-10224484D02*
X4522910Y-10224484D01*
X4522910Y-10224484D02*
X4541958Y-10234008D01*
X4541958Y-10234008D02*
X4551482Y-10243531D01*
X4551482Y-10243531D02*
X4561005Y-10262579D01*
X4561005Y-10262579D02*
X4570529Y-10300674D01*
X4570529Y-10300674D02*
X4570529Y-10348293D01*
X4570529Y-10348293D02*
X4561005Y-10386389D01*
X4561005Y-10386389D02*
X4551482Y-10405436D01*
X4551482Y-10405436D02*
X4541958Y-10414960D01*
X4541958Y-10414960D02*
X4522910Y-10424484D01*
X4522910Y-10424484D02*
X4503863Y-10424484D01*
X4503863Y-10424484D02*
X4484815Y-10414960D01*
X4484815Y-10414960D02*
X4475291Y-10405436D01*
X4475291Y-10405436D02*
X4465767Y-10386389D01*
X4465767Y-10386389D02*
X4456244Y-10348293D01*
X4456244Y-10348293D02*
X4456244Y-10300674D01*
X4456244Y-10300674D02*
X4465767Y-10262579D01*
X4465767Y-10262579D02*
X4475291Y-10243531D01*
X4475291Y-10243531D02*
X4484815Y-10234008D01*
X4484815Y-10234008D02*
X4503863Y-10224484D01*
X4694339Y-10224484D02*
X4713386Y-10224484D01*
X4713386Y-10224484D02*
X4732434Y-10234008D01*
X4732434Y-10234008D02*
X4741958Y-10243531D01*
X4741958Y-10243531D02*
X4751482Y-10262579D01*
X4751482Y-10262579D02*
X4761005Y-10300674D01*
X4761005Y-10300674D02*
X4761005Y-10348293D01*
X4761005Y-10348293D02*
X4751482Y-10386389D01*
X4751482Y-10386389D02*
X4741958Y-10405436D01*
X4741958Y-10405436D02*
X4732434Y-10414960D01*
X4732434Y-10414960D02*
X4713386Y-10424484D01*
X4713386Y-10424484D02*
X4694339Y-10424484D01*
X4694339Y-10424484D02*
X4675291Y-10414960D01*
X4675291Y-10414960D02*
X4665767Y-10405436D01*
X4665767Y-10405436D02*
X4656244Y-10386389D01*
X4656244Y-10386389D02*
X4646720Y-10348293D01*
X4646720Y-10348293D02*
X4646720Y-10300674D01*
X4646720Y-10300674D02*
X4656244Y-10262579D01*
X4656244Y-10262579D02*
X4665767Y-10243531D01*
X4665767Y-10243531D02*
X4675291Y-10234008D01*
X4675291Y-10234008D02*
X4694339Y-10224484D01*
X4846720Y-10424484D02*
X4846720Y-10291150D01*
X4846720Y-10310198D02*
X4856244Y-10300674D01*
X4856244Y-10300674D02*
X4875291Y-10291150D01*
X4875291Y-10291150D02*
X4903863Y-10291150D01*
X4903863Y-10291150D02*
X4922910Y-10300674D01*
X4922910Y-10300674D02*
X4932434Y-10319722D01*
X4932434Y-10319722D02*
X4932434Y-10424484D01*
X4932434Y-10319722D02*
X4941958Y-10300674D01*
X4941958Y-10300674D02*
X4961005Y-10291150D01*
X4961005Y-10291150D02*
X4989577Y-10291150D01*
X4989577Y-10291150D02*
X5008625Y-10300674D01*
X5008625Y-10300674D02*
X5018148Y-10319722D01*
X5018148Y-10319722D02*
X5018148Y-10424484D01*
X5113386Y-10424484D02*
X5113386Y-10291150D01*
X5113386Y-10310198D02*
X5122910Y-10300674D01*
X5122910Y-10300674D02*
X5141958Y-10291150D01*
X5141958Y-10291150D02*
X5170529Y-10291150D01*
X5170529Y-10291150D02*
X5189577Y-10300674D01*
X5189577Y-10300674D02*
X5199101Y-10319722D01*
X5199101Y-10319722D02*
X5199101Y-10424484D01*
X5199101Y-10319722D02*
X5208625Y-10300674D01*
X5208625Y-10300674D02*
X5227672Y-10291150D01*
X5227672Y-10291150D02*
X5256244Y-10291150D01*
X5256244Y-10291150D02*
X5275291Y-10300674D01*
X5275291Y-10300674D02*
X5284815Y-10319722D01*
X5284815Y-10319722D02*
X5284815Y-10424484D01*
X5675291Y-10214960D02*
X5503863Y-10472103D01*
X5932434Y-10224484D02*
X5951482Y-10224484D01*
X5951482Y-10224484D02*
X5970529Y-10234008D01*
X5970529Y-10234008D02*
X5980053Y-10243531D01*
X5980053Y-10243531D02*
X5989577Y-10262579D01*
X5989577Y-10262579D02*
X5999101Y-10300674D01*
X5999101Y-10300674D02*
X5999101Y-10348293D01*
X5999101Y-10348293D02*
X5989577Y-10386389D01*
X5989577Y-10386389D02*
X5980053Y-10405436D01*
X5980053Y-10405436D02*
X5970529Y-10414960D01*
X5970529Y-10414960D02*
X5951482Y-10424484D01*
X5951482Y-10424484D02*
X5932434Y-10424484D01*
X5932434Y-10424484D02*
X5913386Y-10414960D01*
X5913386Y-10414960D02*
X5903863Y-10405436D01*
X5903863Y-10405436D02*
X5894339Y-10386389D01*
X5894339Y-10386389D02*
X5884815Y-10348293D01*
X5884815Y-10348293D02*
X5884815Y-10300674D01*
X5884815Y-10300674D02*
X5894339Y-10262579D01*
X5894339Y-10262579D02*
X5903863Y-10243531D01*
X5903863Y-10243531D02*
X5913386Y-10234008D01*
X5913386Y-10234008D02*
X5932434Y-10224484D01*
X6084815Y-10405436D02*
X6094339Y-10414960D01*
X6094339Y-10414960D02*
X6084815Y-10424484D01*
X6084815Y-10424484D02*
X6075291Y-10414960D01*
X6075291Y-10414960D02*
X6084815Y-10405436D01*
X6084815Y-10405436D02*
X6084815Y-10424484D01*
X6218148Y-10224484D02*
X6237196Y-10224484D01*
X6237196Y-10224484D02*
X6256244Y-10234008D01*
X6256244Y-10234008D02*
X6265767Y-10243531D01*
X6265767Y-10243531D02*
X6275291Y-10262579D01*
X6275291Y-10262579D02*
X6284815Y-10300674D01*
X6284815Y-10300674D02*
X6284815Y-10348293D01*
X6284815Y-10348293D02*
X6275291Y-10386389D01*
X6275291Y-10386389D02*
X6265767Y-10405436D01*
X6265767Y-10405436D02*
X6256244Y-10414960D01*
X6256244Y-10414960D02*
X6237196Y-10424484D01*
X6237196Y-10424484D02*
X6218148Y-10424484D01*
X6218148Y-10424484D02*
X6199101Y-10414960D01*
X6199101Y-10414960D02*
X6189577Y-10405436D01*
X6189577Y-10405436D02*
X6180053Y-10386389D01*
X6180053Y-10386389D02*
X6170529Y-10348293D01*
X6170529Y-10348293D02*
X6170529Y-10300674D01*
X6170529Y-10300674D02*
X6180053Y-10262579D01*
X6180053Y-10262579D02*
X6189577Y-10243531D01*
X6189577Y-10243531D02*
X6199101Y-10234008D01*
X6199101Y-10234008D02*
X6218148Y-10224484D01*
X6351482Y-10224484D02*
X6484815Y-10224484D01*
X6484815Y-10224484D02*
X6399101Y-10424484D01*
X6599101Y-10224484D02*
X6618148Y-10224484D01*
X6618148Y-10224484D02*
X6637196Y-10234008D01*
X6637196Y-10234008D02*
X6646720Y-10243531D01*
X6646720Y-10243531D02*
X6656244Y-10262579D01*
X6656244Y-10262579D02*
X6665767Y-10300674D01*
X6665767Y-10300674D02*
X6665767Y-10348293D01*
X6665767Y-10348293D02*
X6656244Y-10386389D01*
X6656244Y-10386389D02*
X6646720Y-10405436D01*
X6646720Y-10405436D02*
X6637196Y-10414960D01*
X6637196Y-10414960D02*
X6618148Y-10424484D01*
X6618148Y-10424484D02*
X6599101Y-10424484D01*
X6599101Y-10424484D02*
X6580053Y-10414960D01*
X6580053Y-10414960D02*
X6570529Y-10405436D01*
X6570529Y-10405436D02*
X6561006Y-10386389D01*
X6561006Y-10386389D02*
X6551482Y-10348293D01*
X6551482Y-10348293D02*
X6551482Y-10300674D01*
X6551482Y-10300674D02*
X6561006Y-10262579D01*
X6561006Y-10262579D02*
X6570529Y-10243531D01*
X6570529Y-10243531D02*
X6580053Y-10234008D01*
X6580053Y-10234008D02*
X6599101Y-10224484D01*
X6761006Y-10424484D02*
X6799101Y-10424484D01*
X6799101Y-10424484D02*
X6818148Y-10414960D01*
X6818148Y-10414960D02*
X6827672Y-10405436D01*
X6827672Y-10405436D02*
X6846720Y-10376865D01*
X6846720Y-10376865D02*
X6856244Y-10338770D01*
X6856244Y-10338770D02*
X6856244Y-10262579D01*
X6856244Y-10262579D02*
X6846720Y-10243531D01*
X6846720Y-10243531D02*
X6837196Y-10234008D01*
X6837196Y-10234008D02*
X6818148Y-10224484D01*
X6818148Y-10224484D02*
X6780053Y-10224484D01*
X6780053Y-10224484D02*
X6761006Y-10234008D01*
X6761006Y-10234008D02*
X6751482Y-10243531D01*
X6751482Y-10243531D02*
X6741958Y-10262579D01*
X6741958Y-10262579D02*
X6741958Y-10310198D01*
X6741958Y-10310198D02*
X6751482Y-10329246D01*
X6751482Y-10329246D02*
X6761006Y-10338770D01*
X6761006Y-10338770D02*
X6780053Y-10348293D01*
X6780053Y-10348293D02*
X6818148Y-10348293D01*
X6818148Y-10348293D02*
X6837196Y-10338770D01*
X6837196Y-10338770D02*
X6846720Y-10329246D01*
X6846720Y-10329246D02*
X6856244Y-10310198D01*
X6932434Y-10224484D02*
X6932434Y-10262579D01*
X7008625Y-10224484D02*
X7008625Y-10262579D01*
X7303863Y-10500674D02*
X7294339Y-10491150D01*
X7294339Y-10491150D02*
X7275291Y-10462579D01*
X7275291Y-10462579D02*
X7265768Y-10443531D01*
X7265768Y-10443531D02*
X7256244Y-10414960D01*
X7256244Y-10414960D02*
X7246720Y-10367341D01*
X7246720Y-10367341D02*
X7246720Y-10329246D01*
X7246720Y-10329246D02*
X7256244Y-10281627D01*
X7256244Y-10281627D02*
X7265768Y-10253055D01*
X7265768Y-10253055D02*
X7275291Y-10234008D01*
X7275291Y-10234008D02*
X7294339Y-10205436D01*
X7294339Y-10205436D02*
X7303863Y-10195912D01*
X7370529Y-10243531D02*
X7380053Y-10234008D01*
X7380053Y-10234008D02*
X7399101Y-10224484D01*
X7399101Y-10224484D02*
X7446720Y-10224484D01*
X7446720Y-10224484D02*
X7465768Y-10234008D01*
X7465768Y-10234008D02*
X7475291Y-10243531D01*
X7475291Y-10243531D02*
X7484815Y-10262579D01*
X7484815Y-10262579D02*
X7484815Y-10281627D01*
X7484815Y-10281627D02*
X7475291Y-10310198D01*
X7475291Y-10310198D02*
X7361006Y-10424484D01*
X7361006Y-10424484D02*
X7484815Y-10424484D01*
X7722910Y-10424484D02*
X7722910Y-10224484D01*
X7808625Y-10424484D02*
X7808625Y-10319722D01*
X7808625Y-10319722D02*
X7799101Y-10300674D01*
X7799101Y-10300674D02*
X7780053Y-10291150D01*
X7780053Y-10291150D02*
X7751482Y-10291150D01*
X7751482Y-10291150D02*
X7732434Y-10300674D01*
X7732434Y-10300674D02*
X7722910Y-10310198D01*
X7932434Y-10424484D02*
X7913387Y-10414960D01*
X7913387Y-10414960D02*
X7903863Y-10405436D01*
X7903863Y-10405436D02*
X7894339Y-10386389D01*
X7894339Y-10386389D02*
X7894339Y-10329246D01*
X7894339Y-10329246D02*
X7903863Y-10310198D01*
X7903863Y-10310198D02*
X7913387Y-10300674D01*
X7913387Y-10300674D02*
X7932434Y-10291150D01*
X7932434Y-10291150D02*
X7961006Y-10291150D01*
X7961006Y-10291150D02*
X7980053Y-10300674D01*
X7980053Y-10300674D02*
X7989577Y-10310198D01*
X7989577Y-10310198D02*
X7999101Y-10329246D01*
X7999101Y-10329246D02*
X7999101Y-10386389D01*
X7999101Y-10386389D02*
X7989577Y-10405436D01*
X7989577Y-10405436D02*
X7980053Y-10414960D01*
X7980053Y-10414960D02*
X7961006Y-10424484D01*
X7961006Y-10424484D02*
X7932434Y-10424484D01*
X8113387Y-10424484D02*
X8094339Y-10414960D01*
X8094339Y-10414960D02*
X8084815Y-10395912D01*
X8084815Y-10395912D02*
X8084815Y-10224484D01*
X8265768Y-10414960D02*
X8246720Y-10424484D01*
X8246720Y-10424484D02*
X8208625Y-10424484D01*
X8208625Y-10424484D02*
X8189577Y-10414960D01*
X8189577Y-10414960D02*
X8180053Y-10395912D01*
X8180053Y-10395912D02*
X8180053Y-10319722D01*
X8180053Y-10319722D02*
X8189577Y-10300674D01*
X8189577Y-10300674D02*
X8208625Y-10291150D01*
X8208625Y-10291150D02*
X8246720Y-10291150D01*
X8246720Y-10291150D02*
X8265768Y-10300674D01*
X8265768Y-10300674D02*
X8275291Y-10319722D01*
X8275291Y-10319722D02*
X8275291Y-10338770D01*
X8275291Y-10338770D02*
X8180053Y-10357817D01*
X8351482Y-10414960D02*
X8370530Y-10424484D01*
X8370530Y-10424484D02*
X8408625Y-10424484D01*
X8408625Y-10424484D02*
X8427673Y-10414960D01*
X8427673Y-10414960D02*
X8437196Y-10395912D01*
X8437196Y-10395912D02*
X8437196Y-10386389D01*
X8437196Y-10386389D02*
X8427673Y-10367341D01*
X8427673Y-10367341D02*
X8408625Y-10357817D01*
X8408625Y-10357817D02*
X8380053Y-10357817D01*
X8380053Y-10357817D02*
X8361006Y-10348293D01*
X8361006Y-10348293D02*
X8351482Y-10329246D01*
X8351482Y-10329246D02*
X8351482Y-10319722D01*
X8351482Y-10319722D02*
X8361006Y-10300674D01*
X8361006Y-10300674D02*
X8380053Y-10291150D01*
X8380053Y-10291150D02*
X8408625Y-10291150D01*
X8408625Y-10291150D02*
X8427673Y-10300674D01*
X8503863Y-10500674D02*
X8513387Y-10491150D01*
X8513387Y-10491150D02*
X8532434Y-10462579D01*
X8532434Y-10462579D02*
X8541958Y-10443531D01*
X8541958Y-10443531D02*
X8551482Y-10414960D01*
X8551482Y-10414960D02*
X8561006Y-10367341D01*
X8561006Y-10367341D02*
X8561006Y-10329246D01*
X8561006Y-10329246D02*
X8551482Y-10281627D01*
X8551482Y-10281627D02*
X8541958Y-10253055D01*
X8541958Y-10253055D02*
X8532434Y-10234008D01*
X8532434Y-10234008D02*
X8513387Y-10205436D01*
X8513387Y-10205436D02*
X8503863Y-10195912D01*
X8865768Y-10500674D02*
X8856244Y-10491150D01*
X8856244Y-10491150D02*
X8837196Y-10462579D01*
X8837196Y-10462579D02*
X8827673Y-10443531D01*
X8827673Y-10443531D02*
X8818149Y-10414960D01*
X8818149Y-10414960D02*
X8808625Y-10367341D01*
X8808625Y-10367341D02*
X8808625Y-10329246D01*
X8808625Y-10329246D02*
X8818149Y-10281627D01*
X8818149Y-10281627D02*
X8827673Y-10253055D01*
X8827673Y-10253055D02*
X8837196Y-10234008D01*
X8837196Y-10234008D02*
X8856244Y-10205436D01*
X8856244Y-10205436D02*
X8865768Y-10195912D01*
X8941958Y-10291150D02*
X8941958Y-10424484D01*
X8941958Y-10310198D02*
X8951482Y-10300674D01*
X8951482Y-10300674D02*
X8970530Y-10291150D01*
X8970530Y-10291150D02*
X8999101Y-10291150D01*
X8999101Y-10291150D02*
X9018149Y-10300674D01*
X9018149Y-10300674D02*
X9027673Y-10319722D01*
X9027673Y-10319722D02*
X9027673Y-10424484D01*
X9151482Y-10424484D02*
X9132434Y-10414960D01*
X9132434Y-10414960D02*
X9122911Y-10405436D01*
X9122911Y-10405436D02*
X9113387Y-10386389D01*
X9113387Y-10386389D02*
X9113387Y-10329246D01*
X9113387Y-10329246D02*
X9122911Y-10310198D01*
X9122911Y-10310198D02*
X9132434Y-10300674D01*
X9132434Y-10300674D02*
X9151482Y-10291150D01*
X9151482Y-10291150D02*
X9180054Y-10291150D01*
X9180054Y-10291150D02*
X9199101Y-10300674D01*
X9199101Y-10300674D02*
X9208625Y-10310198D01*
X9208625Y-10310198D02*
X9218149Y-10329246D01*
X9218149Y-10329246D02*
X9218149Y-10386389D01*
X9218149Y-10386389D02*
X9208625Y-10405436D01*
X9208625Y-10405436D02*
X9199101Y-10414960D01*
X9199101Y-10414960D02*
X9180054Y-10424484D01*
X9180054Y-10424484D02*
X9151482Y-10424484D01*
X9275292Y-10291150D02*
X9351482Y-10291150D01*
X9303863Y-10224484D02*
X9303863Y-10395912D01*
X9303863Y-10395912D02*
X9313387Y-10414960D01*
X9313387Y-10414960D02*
X9332434Y-10424484D01*
X9332434Y-10424484D02*
X9351482Y-10424484D01*
X9570530Y-10291150D02*
X9570530Y-10491150D01*
X9570530Y-10300674D02*
X9589577Y-10291150D01*
X9589577Y-10291150D02*
X9627673Y-10291150D01*
X9627673Y-10291150D02*
X9646720Y-10300674D01*
X9646720Y-10300674D02*
X9656244Y-10310198D01*
X9656244Y-10310198D02*
X9665768Y-10329246D01*
X9665768Y-10329246D02*
X9665768Y-10386389D01*
X9665768Y-10386389D02*
X9656244Y-10405436D01*
X9656244Y-10405436D02*
X9646720Y-10414960D01*
X9646720Y-10414960D02*
X9627673Y-10424484D01*
X9627673Y-10424484D02*
X9589577Y-10424484D01*
X9589577Y-10424484D02*
X9570530Y-10414960D01*
X9780054Y-10424484D02*
X9761006Y-10414960D01*
X9761006Y-10414960D02*
X9751482Y-10395912D01*
X9751482Y-10395912D02*
X9751482Y-10224484D01*
X9941958Y-10424484D02*
X9941958Y-10319722D01*
X9941958Y-10319722D02*
X9932435Y-10300674D01*
X9932435Y-10300674D02*
X9913387Y-10291150D01*
X9913387Y-10291150D02*
X9875292Y-10291150D01*
X9875292Y-10291150D02*
X9856244Y-10300674D01*
X9941958Y-10414960D02*
X9922911Y-10424484D01*
X9922911Y-10424484D02*
X9875292Y-10424484D01*
X9875292Y-10424484D02*
X9856244Y-10414960D01*
X9856244Y-10414960D02*
X9846720Y-10395912D01*
X9846720Y-10395912D02*
X9846720Y-10376865D01*
X9846720Y-10376865D02*
X9856244Y-10357817D01*
X9856244Y-10357817D02*
X9875292Y-10348293D01*
X9875292Y-10348293D02*
X9922911Y-10348293D01*
X9922911Y-10348293D02*
X9941958Y-10338770D01*
X10008625Y-10291150D02*
X10084815Y-10291150D01*
X10037196Y-10224484D02*
X10037196Y-10395912D01*
X10037196Y-10395912D02*
X10046720Y-10414960D01*
X10046720Y-10414960D02*
X10065768Y-10424484D01*
X10065768Y-10424484D02*
X10084815Y-10424484D01*
X10227673Y-10414960D02*
X10208625Y-10424484D01*
X10208625Y-10424484D02*
X10170530Y-10424484D01*
X10170530Y-10424484D02*
X10151482Y-10414960D01*
X10151482Y-10414960D02*
X10141958Y-10395912D01*
X10141958Y-10395912D02*
X10141958Y-10319722D01*
X10141958Y-10319722D02*
X10151482Y-10300674D01*
X10151482Y-10300674D02*
X10170530Y-10291150D01*
X10170530Y-10291150D02*
X10208625Y-10291150D01*
X10208625Y-10291150D02*
X10227673Y-10300674D01*
X10227673Y-10300674D02*
X10237196Y-10319722D01*
X10237196Y-10319722D02*
X10237196Y-10338770D01*
X10237196Y-10338770D02*
X10141958Y-10357817D01*
X10408625Y-10424484D02*
X10408625Y-10224484D01*
X10408625Y-10414960D02*
X10389577Y-10424484D01*
X10389577Y-10424484D02*
X10351482Y-10424484D01*
X10351482Y-10424484D02*
X10332435Y-10414960D01*
X10332435Y-10414960D02*
X10322911Y-10405436D01*
X10322911Y-10405436D02*
X10313387Y-10386389D01*
X10313387Y-10386389D02*
X10313387Y-10329246D01*
X10313387Y-10329246D02*
X10322911Y-10310198D01*
X10322911Y-10310198D02*
X10332435Y-10300674D01*
X10332435Y-10300674D02*
X10351482Y-10291150D01*
X10351482Y-10291150D02*
X10389577Y-10291150D01*
X10389577Y-10291150D02*
X10408625Y-10300674D01*
X10484816Y-10500674D02*
X10494339Y-10491150D01*
X10494339Y-10491150D02*
X10513387Y-10462579D01*
X10513387Y-10462579D02*
X10522911Y-10443531D01*
X10522911Y-10443531D02*
X10532435Y-10414960D01*
X10532435Y-10414960D02*
X10541958Y-10367341D01*
X10541958Y-10367341D02*
X10541958Y-10329246D01*
X10541958Y-10329246D02*
X10532435Y-10281627D01*
X10532435Y-10281627D02*
X10522911Y-10253055D01*
X10522911Y-10253055D02*
X10513387Y-10234008D01*
X10513387Y-10234008D02*
X10494339Y-10205436D01*
X10494339Y-10205436D02*
X10484816Y-10195912D01*
M02*
