%TF.GenerationSoftware,KiCad,Pcbnew,7.0.10*%
%TF.CreationDate,2024-03-29T22:24:31-04:00*%
%TF.ProjectId,WaveWise_Submersible,57617665-5769-4736-955f-5375626d6572,rev?*%
%TF.SameCoordinates,Original*%
%TF.FileFunction,Paste,Top*%
%TF.FilePolarity,Positive*%
%FSLAX46Y46*%
G04 Gerber Fmt 4.6, Leading zero omitted, Abs format (unit mm)*
G04 Created by KiCad (PCBNEW 7.0.10) date 2024-03-29 22:24:31*
%MOMM*%
%LPD*%
G01*
G04 APERTURE LIST*
G04 Aperture macros list*
%AMRoundRect*
0 Rectangle with rounded corners*
0 $1 Rounding radius*
0 $2 $3 $4 $5 $6 $7 $8 $9 X,Y pos of 4 corners*
0 Add a 4 corners polygon primitive as box body*
4,1,4,$2,$3,$4,$5,$6,$7,$8,$9,$2,$3,0*
0 Add four circle primitives for the rounded corners*
1,1,$1+$1,$2,$3*
1,1,$1+$1,$4,$5*
1,1,$1+$1,$6,$7*
1,1,$1+$1,$8,$9*
0 Add four rect primitives between the rounded corners*
20,1,$1+$1,$2,$3,$4,$5,0*
20,1,$1+$1,$4,$5,$6,$7,0*
20,1,$1+$1,$6,$7,$8,$9,0*
20,1,$1+$1,$8,$9,$2,$3,0*%
G04 Aperture macros list end*
%ADD10RoundRect,0.250000X-0.262500X-0.450000X0.262500X-0.450000X0.262500X0.450000X-0.262500X0.450000X0*%
%ADD11RoundRect,0.250000X-0.450000X0.262500X-0.450000X-0.262500X0.450000X-0.262500X0.450000X0.262500X0*%
%ADD12RoundRect,0.250000X0.262500X0.450000X-0.262500X0.450000X-0.262500X-0.450000X0.262500X-0.450000X0*%
%ADD13R,5.600000X1.550000*%
%ADD14RoundRect,0.250000X0.250000X0.475000X-0.250000X0.475000X-0.250000X-0.475000X0.250000X-0.475000X0*%
%ADD15RoundRect,0.250000X0.475000X-0.250000X0.475000X0.250000X-0.475000X0.250000X-0.475000X-0.250000X0*%
%ADD16RoundRect,0.250000X-0.475000X0.250000X-0.475000X-0.250000X0.475000X-0.250000X0.475000X0.250000X0*%
%ADD17RoundRect,0.011200X0.128800X-0.723800X0.128800X0.723800X-0.128800X0.723800X-0.128800X-0.723800X0*%
%ADD18R,0.850800X1.761200*%
%ADD19R,3.150799X1.761200*%
%ADD20RoundRect,0.250000X0.450000X-0.262500X0.450000X0.262500X-0.450000X0.262500X-0.450000X-0.262500X0*%
%ADD21RoundRect,0.042000X-0.943000X-0.258000X0.943000X-0.258000X0.943000X0.258000X-0.943000X0.258000X0*%
%ADD22R,1.200000X0.800000*%
%ADD23R,1.200000X1.200000*%
G04 APERTURE END LIST*
D10*
%TO.C,R23*%
X57710700Y-49326800D03*
X59535700Y-49326800D03*
%TD*%
%TO.C,R11*%
X145391500Y-79248000D03*
X147216500Y-79248000D03*
%TD*%
D11*
%TO.C,R27*%
X132588000Y-71350500D03*
X132588000Y-73175500D03*
%TD*%
D12*
%TO.C,R15*%
X49426500Y-83820000D03*
X47601500Y-83820000D03*
%TD*%
D13*
%TO.C,L1*%
X139039600Y-68536200D03*
X139039600Y-72586200D03*
%TD*%
D14*
%TO.C,C14*%
X140853200Y-43992800D03*
X138953200Y-43992800D03*
%TD*%
D15*
%TO.C,C1*%
X142900400Y-51292800D03*
X142900400Y-49392800D03*
%TD*%
D11*
%TO.C,R6*%
X91084400Y-67349700D03*
X91084400Y-69174700D03*
%TD*%
D16*
%TO.C,C2*%
X94234000Y-63093600D03*
X94234000Y-64993600D03*
%TD*%
D12*
%TO.C,R21*%
X52372900Y-35814000D03*
X50547900Y-35814000D03*
%TD*%
D11*
%TO.C,R13*%
X150114000Y-54522500D03*
X150114000Y-56347500D03*
%TD*%
D14*
%TO.C,C16*%
X149159000Y-61595000D03*
X147259000Y-61595000D03*
%TD*%
D16*
%TO.C,C3*%
X94132400Y-67325200D03*
X94132400Y-69225200D03*
%TD*%
D12*
%TO.C,R20*%
X52525300Y-32664400D03*
X50700300Y-32664400D03*
%TD*%
D15*
%TO.C,C11*%
X57226200Y-69936400D03*
X57226200Y-68036400D03*
%TD*%
%TO.C,C6*%
X54406800Y-41031200D03*
X54406800Y-39131200D03*
%TD*%
D17*
%TO.C,U1*%
X52695600Y-48784400D03*
X53195600Y-48784400D03*
X53695600Y-48784400D03*
X54195600Y-48784400D03*
X54695600Y-48784400D03*
X54695600Y-44484400D03*
X54195600Y-44484400D03*
X53695600Y-44484400D03*
X53195600Y-44484400D03*
X52695600Y-44484400D03*
%TD*%
D18*
%TO.C,U10*%
X57418000Y-72440800D03*
X55118000Y-72440800D03*
X52818000Y-72440800D03*
D19*
X55118000Y-78490800D03*
%TD*%
D20*
%TO.C,R10*%
X146812000Y-36472500D03*
X146812000Y-34647500D03*
%TD*%
D15*
%TO.C,C9*%
X52679600Y-70026600D03*
X52679600Y-68126600D03*
%TD*%
D14*
%TO.C,C13*%
X129880400Y-87071200D03*
X127980400Y-87071200D03*
%TD*%
D11*
%TO.C,R24*%
X132588000Y-64111500D03*
X132588000Y-65936500D03*
%TD*%
D20*
%TO.C,R19*%
X54610000Y-57605300D03*
X54610000Y-55780300D03*
%TD*%
D11*
%TO.C,R9*%
X102565200Y-29567500D03*
X102565200Y-31392500D03*
%TD*%
D20*
%TO.C,R14*%
X104140000Y-86193500D03*
X104140000Y-84368500D03*
%TD*%
D10*
%TO.C,R4*%
X120397900Y-85547200D03*
X122222900Y-85547200D03*
%TD*%
%TO.C,R1*%
X57659900Y-59283600D03*
X59484900Y-59283600D03*
%TD*%
D12*
%TO.C,R25*%
X134413000Y-29616400D03*
X132588000Y-29616400D03*
%TD*%
D15*
%TO.C,C10*%
X135636000Y-78216800D03*
X135636000Y-76316800D03*
%TD*%
D12*
%TO.C,R8*%
X43648500Y-35814000D03*
X41823500Y-35814000D03*
%TD*%
D11*
%TO.C,R12*%
X146812000Y-54522500D03*
X146812000Y-56347500D03*
%TD*%
D10*
%TO.C,R3*%
X57659900Y-52730400D03*
X59484900Y-52730400D03*
%TD*%
D21*
%TO.C,U3*%
X126495000Y-81090000D03*
X126495000Y-82360000D03*
X126495000Y-83630000D03*
X126495000Y-84900000D03*
X131445000Y-84900000D03*
X131445000Y-83630000D03*
X131445000Y-82360000D03*
X131445000Y-81090000D03*
%TD*%
%TO.C,U5*%
X138241000Y-53467000D03*
X138241000Y-54737000D03*
X138241000Y-56007000D03*
X138241000Y-57277000D03*
X143191000Y-57277000D03*
X143191000Y-56007000D03*
X143191000Y-54737000D03*
X143191000Y-53467000D03*
%TD*%
D15*
%TO.C,C4*%
X131419600Y-78282800D03*
X131419600Y-76382800D03*
%TD*%
D12*
%TO.C,R5*%
X137668000Y-82346800D03*
X135843000Y-82346800D03*
%TD*%
D13*
%TO.C,L2*%
X138684000Y-35153600D03*
X138684000Y-39203600D03*
%TD*%
D16*
%TO.C,C5*%
X51866800Y-39182000D03*
X51866800Y-41082000D03*
%TD*%
D12*
%TO.C,R7*%
X137666100Y-85090000D03*
X135841100Y-85090000D03*
%TD*%
D15*
%TO.C,C15*%
X134416800Y-53324800D03*
X134416800Y-51424800D03*
%TD*%
D22*
%TO.C,U2*%
X105700000Y-68199000D03*
X105700000Y-66929000D03*
X105700000Y-65659000D03*
X105700000Y-64389000D03*
X97500000Y-64389000D03*
X97500000Y-65659000D03*
X97500000Y-66929000D03*
D23*
X97500000Y-68199000D03*
%TD*%
D10*
%TO.C,R2*%
X120372500Y-81788000D03*
X122197500Y-81788000D03*
%TD*%
%TO.C,R22*%
X57659900Y-56032400D03*
X59484900Y-56032400D03*
%TD*%
D12*
%TO.C,R26*%
X129842900Y-29616400D03*
X128017900Y-29616400D03*
%TD*%
D10*
%TO.C,R17*%
X116716800Y-44907200D03*
X118541800Y-44907200D03*
%TD*%
D15*
%TO.C,C12*%
X126136400Y-78928000D03*
X126136400Y-77028000D03*
%TD*%
D16*
%TO.C,C17*%
X105308400Y-29565600D03*
X105308400Y-31465600D03*
%TD*%
M02*
