M48
; DRILL file {KiCad 7.0.10} date Fri Mar 29 22:24:37 2024
; FORMAT={-:-/ absolute / inch / decimal}
; #@! TF.CreationDate,2024-03-29T22:24:37-04:00
; #@! TF.GenerationSoftware,Kicad,Pcbnew,7.0.10
; #@! TF.FileFunction,Plated,1,4,PTH
FMAT,2
INCH
; #@! TA.AperFunction,Plated,PTH,ViaDrill
T1C0.0157
; #@! TA.AperFunction,Plated,PTH,ComponentDrill
T2C0.0276
; #@! TA.AperFunction,Plated,PTH,ComponentDrill
T3C0.0300
; #@! TA.AperFunction,Plated,PTH,ComponentDrill
T4C0.0315
; #@! TA.AperFunction,Plated,PTH,ComponentDrill
T5C0.0390
; #@! TA.AperFunction,Plated,PTH,ComponentDrill
T6C0.0394
; #@! TA.AperFunction,Plated,PTH,ComponentDrill
T7C0.0402
; #@! TA.AperFunction,Plated,PTH,ComponentDrill
T8C0.0433
; #@! TA.AperFunction,Plated,PTH,ComponentDrill
T9C0.0450
; #@! TA.AperFunction,Plated,PTH,ComponentDrill
T10C0.0510
; #@! TA.AperFunction,Plated,PTH,ComponentDrill
T11C0.0550
; #@! TA.AperFunction,Plated,PTH,ComponentDrill
T12C0.0590
; #@! TA.AperFunction,Plated,PTH,ComponentDrill
T13C0.1260
%
G90
G05
T1
X1.78Y-1.41
X1.992Y-1.348
X2.0002Y-1.2242
X2.015Y-3.3
X2.016Y-1.75
X2.02Y-2.8352
X2.046Y-2.326
X2.056Y-1.684
X2.076Y-1.998
X2.076Y-2.624
X2.142Y-1.668
X2.19Y-2.078
X2.212Y-2.334
X2.25Y-2.625
X2.264Y-2.14
X2.276Y-3.0902
X2.74Y-1.27
X3.625Y-2.6
X3.774Y-2.584
X3.78Y-2.484
X4.18Y-3.36
X4.29Y-1.77
X4.704Y-3.13
X4.884Y-1.238
X4.888Y-3.032
X4.888Y-3.34
X5.095Y-3.2
X5.095Y-3.265
X5.095Y-3.325
X5.174Y-3.136
X5.22Y-2.224
X5.22Y-2.475
X5.2235Y-2.7115
X5.234Y-3.402
X5.262Y-1.69
X5.266Y-1.786
X5.275Y-2.975
X5.294Y-1.246
X5.34Y-2.23
X5.354Y-2.106
X5.3563Y-2.3413
X5.424Y-2.024
X5.478Y-2.504
X5.5Y-2.31
X5.548Y-1.9446
X5.64Y-3.072
X5.84Y-2.3
T2
X4.42Y-2.13
X4.52Y-2.03
X4.62Y-2.13
T3
X4.34Y-2.64
X4.34Y-2.74
X4.34Y-2.84
X4.884Y-1.328
X4.884Y-2.028
X4.984Y-1.328
X4.984Y-2.028
X5.04Y-2.64
X5.04Y-2.74
X5.04Y-2.84
X5.084Y-1.328
X5.084Y-2.028
T4
X1.8826Y-2.5671
X1.8826Y-2.6459
X1.8826Y-2.7246
X1.8826Y-2.8034
X1.8826Y-2.8821
X1.8826Y-2.9609
X1.8846Y-1.6604
X1.8846Y-1.7391
X1.8846Y-1.8179
X1.8846Y-1.8966
X1.8846Y-1.9754
X1.8846Y-2.0541
X1.8846Y-2.1329
X1.8846Y-2.2116
X3.752Y-1.182
X3.8307Y-1.182
X4.416Y-1.182
X4.4947Y-1.182
X4.5735Y-1.182
T5
X3.6618Y-2.0769
X4.1342Y-2.0769
T6
X5.75Y-1.6
X5.75Y-1.7
X5.75Y-1.8
X5.75Y-1.9
X5.75Y-2.6384
X5.75Y-2.7384
X5.75Y-2.8384
X5.75Y-2.9384
T7
X2.59Y-1.2804
X2.59Y-1.3804
X2.59Y-1.4804
X2.59Y-1.5804
X2.59Y-1.6804
X2.59Y-1.7804
X2.59Y-1.8804
X2.59Y-1.9804
X2.59Y-2.0804
X2.59Y-2.1804
X2.59Y-2.2804
X2.59Y-2.3804
X2.59Y-2.4804
X2.59Y-2.5804
X2.59Y-2.6804
X2.59Y-2.7804
X2.59Y-2.8804
X2.59Y-2.9804
X2.59Y-3.0804
X2.59Y-3.1804
X2.84Y-3.1713
X2.94Y-3.1713
X3.04Y-3.1713
X3.29Y-1.2804
X3.29Y-1.3804
X3.29Y-1.4804
X3.29Y-1.5804
X3.29Y-1.6804
X3.29Y-1.7804
X3.29Y-1.8804
X3.29Y-1.9804
X3.29Y-2.0804
X3.29Y-2.1804
X3.29Y-2.2804
X3.29Y-2.3804
X3.29Y-2.4804
X3.29Y-2.5804
X3.29Y-2.6804
X3.29Y-2.7804
X3.29Y-2.8804
X3.29Y-2.9804
X3.29Y-3.0804
X3.29Y-3.1804
T8
X1.97Y-1.11
X2.07Y-1.11
X2.17Y-1.11
X2.27Y-1.11
X2.37Y-1.11
X2.47Y-1.11
X3.264Y-3.402
X3.364Y-3.402
X3.464Y-3.402
X3.564Y-3.402
X3.664Y-3.402
X3.705Y-2.316
X3.764Y-3.402
X3.864Y-3.402
X4.105Y-2.316
T9
X2.29Y-1.442
X2.29Y-1.542
X2.29Y-1.642
X2.29Y-1.742
X2.84Y-3.395
X2.94Y-3.395
X3.04Y-3.395
T10
X3.898Y-2.1556
X4.1342Y-1.5966
T11
X3.8695Y-2.8995
X3.8695Y-3.1005
X4.0705Y-2.8995
X4.0705Y-3.1005
X4.349Y-3.2145
X4.349Y-3.4155
X4.55Y-3.2145
X4.55Y-3.4155
X4.879Y-2.1595
X4.879Y-2.3605
X5.08Y-2.1595
X5.08Y-2.3605
T12
X3.97Y-3.0
X4.4495Y-3.315
X4.9795Y-2.26
T13
X1.67Y-1.2
X1.67Y-3.3
X5.77Y-1.2
X5.77Y-3.3
M30
