%TF.GenerationSoftware,KiCad,Pcbnew,7.0.10*%
%TF.CreationDate,2024-03-29T22:24:38-04:00*%
%TF.ProjectId,WaveWise_Submersible,57617665-5769-4736-955f-5375626d6572,rev?*%
%TF.SameCoordinates,Original*%
%TF.FileFunction,Drillmap*%
%TF.FilePolarity,Positive*%
%FSLAX45Y45*%
G04 Gerber Fmt 4.5, Leading zero omitted, Abs format (unit mm)*
G04 Created by KiCad (PCBNEW 7.0.10) date 2024-03-29 22:24:38*
%MOMM*%
%LPD*%
G01*
G04 APERTURE LIST*
%ADD10C,0.100000*%
%ADD11C,0.200000*%
%ADD12C,0.102000*%
%ADD13C,0.110000*%
%ADD14C,0.114300*%
%ADD15C,0.129540*%
%ADD16C,0.139700*%
%ADD17C,0.149860*%
%ADD18C,0.320000*%
G04 APERTURE END LIST*
D10*
X3733800Y-8636000D02*
G75*
G03*
X3987800Y-8890000I254000J0D01*
G01*
X14909800Y-8890000D02*
X3987800Y-8890000D01*
X14909800Y-8890000D02*
G75*
G03*
X15163800Y-8636000I0J254000D01*
G01*
X3733800Y-2794000D02*
X3733800Y-8636000D01*
X3987800Y-2540000D02*
G75*
G03*
X3733800Y-2794000I0J-254000D01*
G01*
X15163800Y-2794000D02*
G75*
G03*
X14909800Y-2540000I-254000J0D01*
G01*
X14909800Y-2540000D02*
X3987800Y-2540000D01*
X15163800Y-2794000D02*
X15163800Y-8636000D01*
D11*
D10*
X4501200Y-3561400D02*
X4541200Y-3601400D01*
X4541200Y-3561400D02*
X4501200Y-3601400D01*
X5039680Y-3403920D02*
X5079680Y-3443920D01*
X5079680Y-3403920D02*
X5039680Y-3443920D01*
X5060465Y-3089425D02*
X5100465Y-3129425D01*
X5100465Y-3089425D02*
X5060465Y-3129425D01*
X5098100Y-8362000D02*
X5138100Y-8402000D01*
X5138100Y-8362000D02*
X5098100Y-8402000D01*
X5100640Y-4425000D02*
X5140640Y-4465000D01*
X5140640Y-4425000D02*
X5100640Y-4465000D01*
X5110800Y-7181380D02*
X5150800Y-7221380D01*
X5150800Y-7181380D02*
X5110800Y-7221380D01*
X5176840Y-5888040D02*
X5216840Y-5928040D01*
X5216840Y-5888040D02*
X5176840Y-5928040D01*
X5202240Y-4257360D02*
X5242240Y-4297360D01*
X5242240Y-4257360D02*
X5202240Y-4297360D01*
X5253040Y-5054920D02*
X5293040Y-5094920D01*
X5293040Y-5054920D02*
X5253040Y-5094920D01*
X5253040Y-6644960D02*
X5293040Y-6684960D01*
X5293040Y-6644960D02*
X5253040Y-6684960D01*
X5420680Y-4216720D02*
X5460680Y-4256720D01*
X5460680Y-4216720D02*
X5420680Y-4256720D01*
X5542600Y-5258120D02*
X5582600Y-5298120D01*
X5582600Y-5258120D02*
X5542600Y-5298120D01*
X5598480Y-5908360D02*
X5638480Y-5948360D01*
X5638480Y-5908360D02*
X5598480Y-5948360D01*
X5695000Y-6647500D02*
X5735000Y-6687500D01*
X5735000Y-6647500D02*
X5695000Y-6687500D01*
X5730560Y-5415600D02*
X5770560Y-5455600D01*
X5770560Y-5415600D02*
X5730560Y-5455600D01*
X5761040Y-7829080D02*
X5801040Y-7869080D01*
X5801040Y-7829080D02*
X5761040Y-7869080D01*
X6939600Y-3205800D02*
X6979600Y-3245800D01*
X6979600Y-3205800D02*
X6939600Y-3245800D01*
X9187500Y-6584000D02*
X9227500Y-6624000D01*
X9227500Y-6584000D02*
X9187500Y-6624000D01*
X9565960Y-6543360D02*
X9605960Y-6583360D01*
X9605960Y-6543360D02*
X9565960Y-6583360D01*
X9581200Y-6289360D02*
X9621200Y-6329360D01*
X9621200Y-6289360D02*
X9581200Y-6329360D01*
X10597200Y-8514400D02*
X10637200Y-8554400D01*
X10637200Y-8514400D02*
X10597200Y-8554400D01*
X10876600Y-4475800D02*
X10916600Y-4515800D01*
X10916600Y-4475800D02*
X10876600Y-4515800D01*
X11928160Y-7930200D02*
X11968160Y-7970200D01*
X11968160Y-7930200D02*
X11928160Y-7970200D01*
X12385360Y-3124520D02*
X12425360Y-3164520D01*
X12425360Y-3124520D02*
X12385360Y-3164520D01*
X12395520Y-7681280D02*
X12435520Y-7721280D01*
X12435520Y-7681280D02*
X12395520Y-7721280D01*
X12395520Y-8463600D02*
X12435520Y-8503600D01*
X12435520Y-8463600D02*
X12395520Y-8503600D01*
X12921300Y-8108000D02*
X12961300Y-8148000D01*
X12961300Y-8108000D02*
X12921300Y-8148000D01*
X12921300Y-8273100D02*
X12961300Y-8313100D01*
X12961300Y-8273100D02*
X12921300Y-8313100D01*
X12921300Y-8425500D02*
X12961300Y-8465500D01*
X12961300Y-8425500D02*
X12921300Y-8465500D01*
X13121960Y-7945440D02*
X13161960Y-7985440D01*
X13161960Y-7945440D02*
X13121960Y-7985440D01*
X13238800Y-5628960D02*
X13278800Y-5668960D01*
X13278800Y-5628960D02*
X13238800Y-5668960D01*
X13238800Y-6266500D02*
X13278800Y-6306500D01*
X13278800Y-6266500D02*
X13238800Y-6306500D01*
X13247690Y-6867210D02*
X13287690Y-6907210D01*
X13287690Y-6867210D02*
X13247690Y-6907210D01*
X13274360Y-8621080D02*
X13314360Y-8661080D01*
X13314360Y-8621080D02*
X13274360Y-8661080D01*
X13345480Y-4272600D02*
X13385480Y-4312600D01*
X13385480Y-4272600D02*
X13345480Y-4312600D01*
X13355640Y-4516440D02*
X13395640Y-4556440D01*
X13395640Y-4516440D02*
X13355640Y-4556440D01*
X13378500Y-7536500D02*
X13418500Y-7576500D01*
X13418500Y-7536500D02*
X13378500Y-7576500D01*
X13426760Y-3144840D02*
X13466760Y-3184840D01*
X13466760Y-3144840D02*
X13426760Y-3184840D01*
X13543600Y-5644200D02*
X13583600Y-5684200D01*
X13583600Y-5644200D02*
X13543600Y-5684200D01*
X13579160Y-5329240D02*
X13619160Y-5369240D01*
X13619160Y-5329240D02*
X13579160Y-5369240D01*
X13584950Y-5926850D02*
X13624950Y-5966850D01*
X13624950Y-5926850D02*
X13584950Y-5966850D01*
X13756960Y-5120960D02*
X13796960Y-5160960D01*
X13796960Y-5120960D02*
X13756960Y-5160960D01*
X13894120Y-6340160D02*
X13934120Y-6380160D01*
X13934120Y-6340160D02*
X13894120Y-6380160D01*
X13950000Y-5847400D02*
X13990000Y-5887400D01*
X13990000Y-5847400D02*
X13950000Y-5887400D01*
X14071920Y-4919280D02*
X14111920Y-4959280D01*
X14111920Y-4919280D02*
X14071920Y-4959280D01*
X14305600Y-7782880D02*
X14345600Y-7822880D01*
X14345600Y-7782880D02*
X14305600Y-7822880D01*
X14813600Y-5822000D02*
X14853600Y-5862000D01*
X14853600Y-5822000D02*
X14813600Y-5862000D01*
X11261800Y-5410200D02*
G75*
G03*
X11191800Y-5410200I-35000J0D01*
G01*
X11191800Y-5410200D02*
G75*
G03*
X11261800Y-5410200I35000J0D01*
G01*
X11515800Y-5156200D02*
G75*
G03*
X11445800Y-5156200I-35000J0D01*
G01*
X11445800Y-5156200D02*
G75*
G03*
X11515800Y-5156200I35000J0D01*
G01*
X11769800Y-5410200D02*
G75*
G03*
X11699800Y-5410200I-35000J0D01*
G01*
X11699800Y-5410200D02*
G75*
G03*
X11769800Y-5410200I35000J0D01*
G01*
X11023600Y-6667500D02*
X11023600Y-6743700D01*
X10985500Y-6705600D02*
X11061700Y-6705600D01*
X11023600Y-6921500D02*
X11023600Y-6997700D01*
X10985500Y-6959600D02*
X11061700Y-6959600D01*
X11023600Y-7175500D02*
X11023600Y-7251700D01*
X10985500Y-7213600D02*
X11061700Y-7213600D01*
X12405360Y-3335020D02*
X12405360Y-3411220D01*
X12367260Y-3373120D02*
X12443460Y-3373120D01*
X12405360Y-5113020D02*
X12405360Y-5189220D01*
X12367260Y-5151120D02*
X12443460Y-5151120D01*
X12659360Y-3335020D02*
X12659360Y-3411220D01*
X12621260Y-3373120D02*
X12697460Y-3373120D01*
X12659360Y-5113020D02*
X12659360Y-5189220D01*
X12621260Y-5151120D02*
X12697460Y-5151120D01*
X12801600Y-6667500D02*
X12801600Y-6743700D01*
X12763500Y-6705600D02*
X12839700Y-6705600D01*
X12801600Y-6921500D02*
X12801600Y-6997700D01*
X12763500Y-6959600D02*
X12839700Y-6959600D01*
X12801600Y-7175500D02*
X12801600Y-7251700D01*
X12763500Y-7213600D02*
X12839700Y-7213600D01*
X12913360Y-3335020D02*
X12913360Y-3411220D01*
X12875260Y-3373120D02*
X12951460Y-3373120D01*
X12913360Y-5113020D02*
X12913360Y-5189220D01*
X12875260Y-5151120D02*
X12951460Y-5151120D01*
X4810065Y-6548844D02*
X4810065Y-6492275D01*
X4753496Y-6492275D01*
X4753496Y-6548844D01*
X4810065Y-6548844D01*
X4810065Y-6748844D02*
X4810065Y-6692275D01*
X4753496Y-6692275D01*
X4753496Y-6748844D01*
X4810065Y-6748844D01*
X4810065Y-6948844D02*
X4810065Y-6892275D01*
X4753496Y-6892275D01*
X4753496Y-6948844D01*
X4810065Y-6948844D01*
X4810065Y-7148844D02*
X4810065Y-7092275D01*
X4753496Y-7092275D01*
X4753496Y-7148844D01*
X4810065Y-7148844D01*
X4810065Y-7348844D02*
X4810065Y-7292275D01*
X4753496Y-7292275D01*
X4753496Y-7348844D01*
X4810065Y-7348844D01*
X4810065Y-7548844D02*
X4810065Y-7492275D01*
X4753496Y-7492275D01*
X4753496Y-7548844D01*
X4810065Y-7548844D01*
X4815145Y-4245725D02*
X4815145Y-4189155D01*
X4758576Y-4189155D01*
X4758576Y-4245725D01*
X4815145Y-4245725D01*
X4815145Y-4445725D02*
X4815145Y-4389156D01*
X4758576Y-4389156D01*
X4758576Y-4445725D01*
X4815145Y-4445725D01*
X4815145Y-4645725D02*
X4815145Y-4589156D01*
X4758576Y-4589156D01*
X4758576Y-4645725D01*
X4815145Y-4645725D01*
X4815145Y-4845725D02*
X4815145Y-4789156D01*
X4758576Y-4789156D01*
X4758576Y-4845725D01*
X4815145Y-4845725D01*
X4815145Y-5045725D02*
X4815145Y-4989156D01*
X4758576Y-4989156D01*
X4758576Y-5045725D01*
X4815145Y-5045725D01*
X4815145Y-5245725D02*
X4815145Y-5189156D01*
X4758576Y-5189156D01*
X4758576Y-5245725D01*
X4815145Y-5245725D01*
X4815145Y-5445725D02*
X4815145Y-5389156D01*
X4758576Y-5389156D01*
X4758576Y-5445725D01*
X4815145Y-5445725D01*
X4815145Y-5645724D02*
X4815145Y-5589156D01*
X4758576Y-5589156D01*
X4758576Y-5645724D01*
X4815145Y-5645724D01*
X9558365Y-3030564D02*
X9558365Y-2973995D01*
X9501796Y-2973995D01*
X9501796Y-3030564D01*
X9558365Y-3030564D01*
X9758365Y-3030564D02*
X9758365Y-2973995D01*
X9701796Y-2973995D01*
X9701796Y-3030564D01*
X9758365Y-3030564D01*
X11244924Y-3030564D02*
X11244924Y-2973995D01*
X11188355Y-2973995D01*
X11188355Y-3030564D01*
X11244924Y-3030564D01*
X11444924Y-3030564D02*
X11444924Y-2973995D01*
X11388355Y-2973995D01*
X11388355Y-3030564D01*
X11444924Y-3030564D01*
X11644924Y-3030564D02*
X11644924Y-2973995D01*
X11588355Y-2973995D01*
X11588355Y-3030564D01*
X11644924Y-3030564D01*
X9300920Y-5324835D02*
X9350450Y-5275305D01*
X9300920Y-5225775D01*
X9251390Y-5275305D01*
X9300920Y-5324835D01*
X10500920Y-5324835D02*
X10550450Y-5275305D01*
X10500920Y-5225775D01*
X10451390Y-5275305D01*
X10500920Y-5324835D01*
X14555000Y-4014000D02*
X14655000Y-4114000D01*
X14655000Y-4014000D02*
X14555000Y-4114000D01*
X14655000Y-4064000D02*
G75*
G03*
X14555000Y-4064000I-50000J0D01*
G01*
X14555000Y-4064000D02*
G75*
G03*
X14655000Y-4064000I50000J0D01*
G01*
X14555000Y-4268000D02*
X14655000Y-4368000D01*
X14655000Y-4268000D02*
X14555000Y-4368000D01*
X14655000Y-4318000D02*
G75*
G03*
X14555000Y-4318000I-50000J0D01*
G01*
X14555000Y-4318000D02*
G75*
G03*
X14655000Y-4318000I50000J0D01*
G01*
X14555000Y-4522000D02*
X14655000Y-4622000D01*
X14655000Y-4522000D02*
X14555000Y-4622000D01*
X14655000Y-4572000D02*
G75*
G03*
X14555000Y-4572000I-50000J0D01*
G01*
X14555000Y-4572000D02*
G75*
G03*
X14655000Y-4572000I50000J0D01*
G01*
X14555000Y-4776000D02*
X14655000Y-4876000D01*
X14655000Y-4776000D02*
X14555000Y-4876000D01*
X14655000Y-4826000D02*
G75*
G03*
X14555000Y-4826000I-50000J0D01*
G01*
X14555000Y-4826000D02*
G75*
G03*
X14655000Y-4826000I50000J0D01*
G01*
X14555000Y-6651600D02*
X14655000Y-6751600D01*
X14655000Y-6651600D02*
X14555000Y-6751600D01*
X14655000Y-6701600D02*
G75*
G03*
X14555000Y-6701600I-50000J0D01*
G01*
X14555000Y-6701600D02*
G75*
G03*
X14655000Y-6701600I50000J0D01*
G01*
X14555000Y-6905600D02*
X14655000Y-7005600D01*
X14655000Y-6905600D02*
X14555000Y-7005600D01*
X14655000Y-6955600D02*
G75*
G03*
X14555000Y-6955600I-50000J0D01*
G01*
X14555000Y-6955600D02*
G75*
G03*
X14655000Y-6955600I50000J0D01*
G01*
X14555000Y-7159600D02*
X14655000Y-7259600D01*
X14655000Y-7159600D02*
X14555000Y-7259600D01*
X14655000Y-7209600D02*
G75*
G03*
X14555000Y-7209600I-50000J0D01*
G01*
X14555000Y-7209600D02*
G75*
G03*
X14655000Y-7209600I50000J0D01*
G01*
X14555000Y-7413600D02*
X14655000Y-7513600D01*
X14655000Y-7413600D02*
X14555000Y-7513600D01*
X14655000Y-7463600D02*
G75*
G03*
X14555000Y-7463600I-50000J0D01*
G01*
X14555000Y-7463600D02*
G75*
G03*
X14655000Y-7463600I50000J0D01*
G01*
D12*
X6527600Y-3201100D02*
X6629600Y-3303100D01*
X6629600Y-3201100D02*
X6527600Y-3303100D01*
X6578600Y-3201100D02*
X6578600Y-3303100D01*
X6527600Y-3252100D02*
X6629600Y-3252100D01*
X6527600Y-3455100D02*
X6629600Y-3557100D01*
X6629600Y-3455100D02*
X6527600Y-3557100D01*
X6578600Y-3455100D02*
X6578600Y-3557100D01*
X6527600Y-3506100D02*
X6629600Y-3506100D01*
X6527600Y-3709100D02*
X6629600Y-3811100D01*
X6629600Y-3709100D02*
X6527600Y-3811100D01*
X6578600Y-3709100D02*
X6578600Y-3811100D01*
X6527600Y-3760100D02*
X6629600Y-3760100D01*
X6527600Y-3963100D02*
X6629600Y-4065100D01*
X6629600Y-3963100D02*
X6527600Y-4065100D01*
X6578600Y-3963100D02*
X6578600Y-4065100D01*
X6527600Y-4014100D02*
X6629600Y-4014100D01*
X6527600Y-4217100D02*
X6629600Y-4319100D01*
X6629600Y-4217100D02*
X6527600Y-4319100D01*
X6578600Y-4217100D02*
X6578600Y-4319100D01*
X6527600Y-4268100D02*
X6629600Y-4268100D01*
X6527600Y-4471100D02*
X6629600Y-4573100D01*
X6629600Y-4471100D02*
X6527600Y-4573100D01*
X6578600Y-4471100D02*
X6578600Y-4573100D01*
X6527600Y-4522100D02*
X6629600Y-4522100D01*
X6527600Y-4725100D02*
X6629600Y-4827100D01*
X6629600Y-4725100D02*
X6527600Y-4827100D01*
X6578600Y-4725100D02*
X6578600Y-4827100D01*
X6527600Y-4776100D02*
X6629600Y-4776100D01*
X6527600Y-4979100D02*
X6629600Y-5081100D01*
X6629600Y-4979100D02*
X6527600Y-5081100D01*
X6578600Y-4979100D02*
X6578600Y-5081100D01*
X6527600Y-5030100D02*
X6629600Y-5030100D01*
X6527600Y-5233100D02*
X6629600Y-5335100D01*
X6629600Y-5233100D02*
X6527600Y-5335100D01*
X6578600Y-5233100D02*
X6578600Y-5335100D01*
X6527600Y-5284100D02*
X6629600Y-5284100D01*
X6527600Y-5487100D02*
X6629600Y-5589100D01*
X6629600Y-5487100D02*
X6527600Y-5589100D01*
X6578600Y-5487100D02*
X6578600Y-5589100D01*
X6527600Y-5538100D02*
X6629600Y-5538100D01*
X6527600Y-5741100D02*
X6629600Y-5843100D01*
X6629600Y-5741100D02*
X6527600Y-5843100D01*
X6578600Y-5741100D02*
X6578600Y-5843100D01*
X6527600Y-5792100D02*
X6629600Y-5792100D01*
X6527600Y-5995100D02*
X6629600Y-6097100D01*
X6629600Y-5995100D02*
X6527600Y-6097100D01*
X6578600Y-5995100D02*
X6578600Y-6097100D01*
X6527600Y-6046100D02*
X6629600Y-6046100D01*
X6527600Y-6249100D02*
X6629600Y-6351100D01*
X6629600Y-6249100D02*
X6527600Y-6351100D01*
X6578600Y-6249100D02*
X6578600Y-6351100D01*
X6527600Y-6300100D02*
X6629600Y-6300100D01*
X6527600Y-6503100D02*
X6629600Y-6605100D01*
X6629600Y-6503100D02*
X6527600Y-6605100D01*
X6578600Y-6503100D02*
X6578600Y-6605100D01*
X6527600Y-6554100D02*
X6629600Y-6554100D01*
X6527600Y-6757100D02*
X6629600Y-6859100D01*
X6629600Y-6757100D02*
X6527600Y-6859100D01*
X6578600Y-6757100D02*
X6578600Y-6859100D01*
X6527600Y-6808100D02*
X6629600Y-6808100D01*
X6527600Y-7011100D02*
X6629600Y-7113100D01*
X6629600Y-7011100D02*
X6527600Y-7113100D01*
X6578600Y-7011100D02*
X6578600Y-7113100D01*
X6527600Y-7062100D02*
X6629600Y-7062100D01*
X6527600Y-7265100D02*
X6629600Y-7367100D01*
X6629600Y-7265100D02*
X6527600Y-7367100D01*
X6578600Y-7265100D02*
X6578600Y-7367100D01*
X6527600Y-7316100D02*
X6629600Y-7316100D01*
X6527600Y-7519100D02*
X6629600Y-7621100D01*
X6629600Y-7519100D02*
X6527600Y-7621100D01*
X6578600Y-7519100D02*
X6578600Y-7621100D01*
X6527600Y-7570100D02*
X6629600Y-7570100D01*
X6527600Y-7773100D02*
X6629600Y-7875100D01*
X6629600Y-7773100D02*
X6527600Y-7875100D01*
X6578600Y-7773100D02*
X6578600Y-7875100D01*
X6527600Y-7824100D02*
X6629600Y-7824100D01*
X6527600Y-8027100D02*
X6629600Y-8129100D01*
X6629600Y-8027100D02*
X6527600Y-8129100D01*
X6578600Y-8027100D02*
X6578600Y-8129100D01*
X6527600Y-8078100D02*
X6629600Y-8078100D01*
X7162600Y-8004100D02*
X7264600Y-8106100D01*
X7264600Y-8004100D02*
X7162600Y-8106100D01*
X7213600Y-8004100D02*
X7213600Y-8106100D01*
X7162600Y-8055100D02*
X7264600Y-8055100D01*
X7416600Y-8004100D02*
X7518600Y-8106100D01*
X7518600Y-8004100D02*
X7416600Y-8106100D01*
X7467600Y-8004100D02*
X7467600Y-8106100D01*
X7416600Y-8055100D02*
X7518600Y-8055100D01*
X7670600Y-8004100D02*
X7772600Y-8106100D01*
X7772600Y-8004100D02*
X7670600Y-8106100D01*
X7721600Y-8004100D02*
X7721600Y-8106100D01*
X7670600Y-8055100D02*
X7772600Y-8055100D01*
X8305600Y-3201100D02*
X8407600Y-3303100D01*
X8407600Y-3201100D02*
X8305600Y-3303100D01*
X8356600Y-3201100D02*
X8356600Y-3303100D01*
X8305600Y-3252100D02*
X8407600Y-3252100D01*
X8305600Y-3455100D02*
X8407600Y-3557100D01*
X8407600Y-3455100D02*
X8305600Y-3557100D01*
X8356600Y-3455100D02*
X8356600Y-3557100D01*
X8305600Y-3506100D02*
X8407600Y-3506100D01*
X8305600Y-3709100D02*
X8407600Y-3811100D01*
X8407600Y-3709100D02*
X8305600Y-3811100D01*
X8356600Y-3709100D02*
X8356600Y-3811100D01*
X8305600Y-3760100D02*
X8407600Y-3760100D01*
X8305600Y-3963100D02*
X8407600Y-4065100D01*
X8407600Y-3963100D02*
X8305600Y-4065100D01*
X8356600Y-3963100D02*
X8356600Y-4065100D01*
X8305600Y-4014100D02*
X8407600Y-4014100D01*
X8305600Y-4217100D02*
X8407600Y-4319100D01*
X8407600Y-4217100D02*
X8305600Y-4319100D01*
X8356600Y-4217100D02*
X8356600Y-4319100D01*
X8305600Y-4268100D02*
X8407600Y-4268100D01*
X8305600Y-4471100D02*
X8407600Y-4573100D01*
X8407600Y-4471100D02*
X8305600Y-4573100D01*
X8356600Y-4471100D02*
X8356600Y-4573100D01*
X8305600Y-4522100D02*
X8407600Y-4522100D01*
X8305600Y-4725100D02*
X8407600Y-4827100D01*
X8407600Y-4725100D02*
X8305600Y-4827100D01*
X8356600Y-4725100D02*
X8356600Y-4827100D01*
X8305600Y-4776100D02*
X8407600Y-4776100D01*
X8305600Y-4979100D02*
X8407600Y-5081100D01*
X8407600Y-4979100D02*
X8305600Y-5081100D01*
X8356600Y-4979100D02*
X8356600Y-5081100D01*
X8305600Y-5030100D02*
X8407600Y-5030100D01*
X8305600Y-5233100D02*
X8407600Y-5335100D01*
X8407600Y-5233100D02*
X8305600Y-5335100D01*
X8356600Y-5233100D02*
X8356600Y-5335100D01*
X8305600Y-5284100D02*
X8407600Y-5284100D01*
X8305600Y-5487100D02*
X8407600Y-5589100D01*
X8407600Y-5487100D02*
X8305600Y-5589100D01*
X8356600Y-5487100D02*
X8356600Y-5589100D01*
X8305600Y-5538100D02*
X8407600Y-5538100D01*
X8305600Y-5741100D02*
X8407600Y-5843100D01*
X8407600Y-5741100D02*
X8305600Y-5843100D01*
X8356600Y-5741100D02*
X8356600Y-5843100D01*
X8305600Y-5792100D02*
X8407600Y-5792100D01*
X8305600Y-5995100D02*
X8407600Y-6097100D01*
X8407600Y-5995100D02*
X8305600Y-6097100D01*
X8356600Y-5995100D02*
X8356600Y-6097100D01*
X8305600Y-6046100D02*
X8407600Y-6046100D01*
X8305600Y-6249100D02*
X8407600Y-6351100D01*
X8407600Y-6249100D02*
X8305600Y-6351100D01*
X8356600Y-6249100D02*
X8356600Y-6351100D01*
X8305600Y-6300100D02*
X8407600Y-6300100D01*
X8305600Y-6503100D02*
X8407600Y-6605100D01*
X8407600Y-6503100D02*
X8305600Y-6605100D01*
X8356600Y-6503100D02*
X8356600Y-6605100D01*
X8305600Y-6554100D02*
X8407600Y-6554100D01*
X8305600Y-6757100D02*
X8407600Y-6859100D01*
X8407600Y-6757100D02*
X8305600Y-6859100D01*
X8356600Y-6757100D02*
X8356600Y-6859100D01*
X8305600Y-6808100D02*
X8407600Y-6808100D01*
X8305600Y-7011100D02*
X8407600Y-7113100D01*
X8407600Y-7011100D02*
X8305600Y-7113100D01*
X8356600Y-7011100D02*
X8356600Y-7113100D01*
X8305600Y-7062100D02*
X8407600Y-7062100D01*
X8305600Y-7265100D02*
X8407600Y-7367100D01*
X8407600Y-7265100D02*
X8305600Y-7367100D01*
X8356600Y-7265100D02*
X8356600Y-7367100D01*
X8305600Y-7316100D02*
X8407600Y-7316100D01*
X8305600Y-7519100D02*
X8407600Y-7621100D01*
X8407600Y-7519100D02*
X8305600Y-7621100D01*
X8356600Y-7519100D02*
X8356600Y-7621100D01*
X8305600Y-7570100D02*
X8407600Y-7570100D01*
X8305600Y-7773100D02*
X8407600Y-7875100D01*
X8407600Y-7773100D02*
X8305600Y-7875100D01*
X8356600Y-7773100D02*
X8356600Y-7875100D01*
X8305600Y-7824100D02*
X8407600Y-7824100D01*
X8305600Y-8027100D02*
X8407600Y-8129100D01*
X8407600Y-8027100D02*
X8305600Y-8129100D01*
X8356600Y-8027100D02*
X8356600Y-8129100D01*
X8305600Y-8078100D02*
X8407600Y-8078100D01*
D13*
X4948800Y-2764400D02*
X5058800Y-2874400D01*
X5058800Y-2764400D02*
X4948800Y-2874400D01*
X5042691Y-2858291D02*
X5042691Y-2780509D01*
X4964909Y-2780509D01*
X4964909Y-2858291D01*
X5042691Y-2858291D01*
X5202800Y-2764400D02*
X5312800Y-2874400D01*
X5312800Y-2764400D02*
X5202800Y-2874400D01*
X5296691Y-2858291D02*
X5296691Y-2780509D01*
X5218909Y-2780509D01*
X5218909Y-2858291D01*
X5296691Y-2858291D01*
X5456800Y-2764400D02*
X5566800Y-2874400D01*
X5566800Y-2764400D02*
X5456800Y-2874400D01*
X5550691Y-2858291D02*
X5550691Y-2780509D01*
X5472909Y-2780509D01*
X5472909Y-2858291D01*
X5550691Y-2858291D01*
X5710800Y-2764400D02*
X5820800Y-2874400D01*
X5820800Y-2764400D02*
X5710800Y-2874400D01*
X5804691Y-2858291D02*
X5804691Y-2780509D01*
X5726909Y-2780509D01*
X5726909Y-2858291D01*
X5804691Y-2858291D01*
X5964800Y-2764400D02*
X6074800Y-2874400D01*
X6074800Y-2764400D02*
X5964800Y-2874400D01*
X6058691Y-2858291D02*
X6058691Y-2780509D01*
X5980909Y-2780509D01*
X5980909Y-2858291D01*
X6058691Y-2858291D01*
X6218800Y-2764400D02*
X6328800Y-2874400D01*
X6328800Y-2764400D02*
X6218800Y-2874400D01*
X6312691Y-2858291D02*
X6312691Y-2780509D01*
X6234909Y-2780509D01*
X6234909Y-2858291D01*
X6312691Y-2858291D01*
X8235560Y-8586080D02*
X8345560Y-8696080D01*
X8345560Y-8586080D02*
X8235560Y-8696080D01*
X8329451Y-8679971D02*
X8329451Y-8602189D01*
X8251669Y-8602189D01*
X8251669Y-8679971D01*
X8329451Y-8679971D01*
X8489560Y-8586080D02*
X8599560Y-8696080D01*
X8599560Y-8586080D02*
X8489560Y-8696080D01*
X8583451Y-8679971D02*
X8583451Y-8602189D01*
X8505669Y-8602189D01*
X8505669Y-8679971D01*
X8583451Y-8679971D01*
X8743560Y-8586080D02*
X8853560Y-8696080D01*
X8853560Y-8586080D02*
X8743560Y-8696080D01*
X8837451Y-8679971D02*
X8837451Y-8602189D01*
X8759669Y-8602189D01*
X8759669Y-8679971D01*
X8837451Y-8679971D01*
X8997560Y-8586080D02*
X9107560Y-8696080D01*
X9107560Y-8586080D02*
X8997560Y-8696080D01*
X9091451Y-8679971D02*
X9091451Y-8602189D01*
X9013669Y-8602189D01*
X9013669Y-8679971D01*
X9091451Y-8679971D01*
X9251560Y-8586080D02*
X9361560Y-8696080D01*
X9361560Y-8586080D02*
X9251560Y-8696080D01*
X9345451Y-8679971D02*
X9345451Y-8602189D01*
X9267669Y-8602189D01*
X9267669Y-8679971D01*
X9345451Y-8679971D01*
X9355700Y-5827640D02*
X9465700Y-5937640D01*
X9465700Y-5827640D02*
X9355700Y-5937640D01*
X9449591Y-5921531D02*
X9449591Y-5843749D01*
X9371809Y-5843749D01*
X9371809Y-5921531D01*
X9449591Y-5921531D01*
X9505560Y-8586080D02*
X9615560Y-8696080D01*
X9615560Y-8586080D02*
X9505560Y-8696080D01*
X9599451Y-8679971D02*
X9599451Y-8602189D01*
X9521669Y-8602189D01*
X9521669Y-8679971D01*
X9599451Y-8679971D01*
X9759560Y-8586080D02*
X9869560Y-8696080D01*
X9869560Y-8586080D02*
X9759560Y-8696080D01*
X9853451Y-8679971D02*
X9853451Y-8602189D01*
X9775669Y-8602189D01*
X9775669Y-8679971D01*
X9853451Y-8679971D01*
X10371700Y-5827640D02*
X10481700Y-5937640D01*
X10481700Y-5827640D02*
X10371700Y-5937640D01*
X10465591Y-5921531D02*
X10465591Y-5843749D01*
X10387809Y-5843749D01*
X10387809Y-5921531D01*
X10465591Y-5921531D01*
D14*
X5759450Y-3605530D02*
X5873750Y-3719830D01*
X5873750Y-3605530D02*
X5759450Y-3719830D01*
X5816600Y-3719830D02*
X5873750Y-3662680D01*
X5816600Y-3605530D01*
X5759450Y-3662680D01*
X5816600Y-3719830D01*
X5759450Y-3859530D02*
X5873750Y-3973830D01*
X5873750Y-3859530D02*
X5759450Y-3973830D01*
X5816600Y-3973830D02*
X5873750Y-3916680D01*
X5816600Y-3859530D01*
X5759450Y-3916680D01*
X5816600Y-3973830D01*
X5759450Y-4113530D02*
X5873750Y-4227830D01*
X5873750Y-4113530D02*
X5759450Y-4227830D01*
X5816600Y-4227830D02*
X5873750Y-4170680D01*
X5816600Y-4113530D01*
X5759450Y-4170680D01*
X5816600Y-4227830D01*
X5759450Y-4367530D02*
X5873750Y-4481830D01*
X5873750Y-4367530D02*
X5759450Y-4481830D01*
X5816600Y-4481830D02*
X5873750Y-4424680D01*
X5816600Y-4367530D01*
X5759450Y-4424680D01*
X5816600Y-4481830D01*
X7156450Y-8566150D02*
X7270750Y-8680450D01*
X7270750Y-8566150D02*
X7156450Y-8680450D01*
X7213600Y-8680450D02*
X7270750Y-8623300D01*
X7213600Y-8566150D01*
X7156450Y-8623300D01*
X7213600Y-8680450D01*
X7410450Y-8566150D02*
X7524750Y-8680450D01*
X7524750Y-8566150D02*
X7410450Y-8680450D01*
X7467600Y-8680450D02*
X7524750Y-8623300D01*
X7467600Y-8566150D01*
X7410450Y-8623300D01*
X7467600Y-8680450D01*
X7664450Y-8566150D02*
X7778750Y-8680450D01*
X7778750Y-8566150D02*
X7664450Y-8680450D01*
X7721600Y-8680450D02*
X7778750Y-8623300D01*
X7721600Y-8566150D01*
X7664450Y-8623300D01*
X7721600Y-8680450D01*
D15*
X9900920Y-5410535D02*
X9900920Y-5540075D01*
X9836150Y-5475305D02*
X9965690Y-5475305D01*
X9965690Y-5475305D02*
G75*
G03*
X9836150Y-5475305I-64770J0D01*
G01*
X9836150Y-5475305D02*
G75*
G03*
X9965690Y-5475305I64770J0D01*
G01*
X10500920Y-3990615D02*
X10500920Y-4120155D01*
X10436150Y-4055385D02*
X10565690Y-4055385D01*
X10565690Y-4055385D02*
G75*
G03*
X10436150Y-4055385I-64770J0D01*
G01*
X10436150Y-4055385D02*
G75*
G03*
X10565690Y-4055385I64770J0D01*
G01*
D16*
X9877922Y-7414122D02*
X9877922Y-7315338D01*
X9779138Y-7315338D01*
X9779138Y-7414122D01*
X9877922Y-7414122D01*
X9898380Y-7364730D02*
G75*
G03*
X9758680Y-7364730I-69850J0D01*
G01*
X9758680Y-7364730D02*
G75*
G03*
X9898380Y-7364730I69850J0D01*
G01*
X9877922Y-7924662D02*
X9877922Y-7825878D01*
X9779138Y-7825878D01*
X9779138Y-7924662D01*
X9877922Y-7924662D01*
X9898380Y-7875270D02*
G75*
G03*
X9758680Y-7875270I-69850J0D01*
G01*
X9758680Y-7875270D02*
G75*
G03*
X9898380Y-7875270I69850J0D01*
G01*
X10388462Y-7414122D02*
X10388462Y-7315338D01*
X10289678Y-7315338D01*
X10289678Y-7414122D01*
X10388462Y-7414122D01*
X10408920Y-7364730D02*
G75*
G03*
X10269220Y-7364730I-69850J0D01*
G01*
X10269220Y-7364730D02*
G75*
G03*
X10408920Y-7364730I69850J0D01*
G01*
X10388462Y-7924662D02*
X10388462Y-7825878D01*
X10289678Y-7825878D01*
X10289678Y-7924662D01*
X10388462Y-7924662D01*
X10408920Y-7875270D02*
G75*
G03*
X10269220Y-7875270I-69850J0D01*
G01*
X10269220Y-7875270D02*
G75*
G03*
X10408920Y-7875270I69850J0D01*
G01*
X11095852Y-8214222D02*
X11095852Y-8115438D01*
X10997068Y-8115438D01*
X10997068Y-8214222D01*
X11095852Y-8214222D01*
X11116310Y-8164830D02*
G75*
G03*
X10976610Y-8164830I-69850J0D01*
G01*
X10976610Y-8164830D02*
G75*
G03*
X11116310Y-8164830I69850J0D01*
G01*
X11095852Y-8724762D02*
X11095852Y-8625978D01*
X10997068Y-8625978D01*
X10997068Y-8724762D01*
X11095852Y-8724762D01*
X11116310Y-8675370D02*
G75*
G03*
X10976610Y-8675370I-69850J0D01*
G01*
X10976610Y-8675370D02*
G75*
G03*
X11116310Y-8675370I69850J0D01*
G01*
X11606392Y-8214222D02*
X11606392Y-8115438D01*
X11507608Y-8115438D01*
X11507608Y-8214222D01*
X11606392Y-8214222D01*
X11626850Y-8164830D02*
G75*
G03*
X11487150Y-8164830I-69850J0D01*
G01*
X11487150Y-8164830D02*
G75*
G03*
X11626850Y-8164830I69850J0D01*
G01*
X11606392Y-8724762D02*
X11606392Y-8625978D01*
X11507608Y-8625978D01*
X11507608Y-8724762D01*
X11606392Y-8724762D01*
X11626850Y-8675370D02*
G75*
G03*
X11487150Y-8675370I-69850J0D01*
G01*
X11487150Y-8675370D02*
G75*
G03*
X11626850Y-8675370I69850J0D01*
G01*
X12442052Y-5534522D02*
X12442052Y-5435738D01*
X12343268Y-5435738D01*
X12343268Y-5534522D01*
X12442052Y-5534522D01*
X12462510Y-5485130D02*
G75*
G03*
X12322810Y-5485130I-69850J0D01*
G01*
X12322810Y-5485130D02*
G75*
G03*
X12462510Y-5485130I69850J0D01*
G01*
X12442052Y-6045062D02*
X12442052Y-5946278D01*
X12343268Y-5946278D01*
X12343268Y-6045062D01*
X12442052Y-6045062D01*
X12462510Y-5995670D02*
G75*
G03*
X12322810Y-5995670I-69850J0D01*
G01*
X12322810Y-5995670D02*
G75*
G03*
X12462510Y-5995670I69850J0D01*
G01*
X12952592Y-5534522D02*
X12952592Y-5435738D01*
X12853808Y-5435738D01*
X12853808Y-5534522D01*
X12952592Y-5534522D01*
X12973050Y-5485130D02*
G75*
G03*
X12833350Y-5485130I-69850J0D01*
G01*
X12833350Y-5485130D02*
G75*
G03*
X12973050Y-5485130I69850J0D01*
G01*
X12952592Y-6045062D02*
X12952592Y-5946278D01*
X12853808Y-5946278D01*
X12853808Y-6045062D01*
X12952592Y-6045062D01*
X12973050Y-5995670D02*
G75*
G03*
X12833350Y-5995670I-69850J0D01*
G01*
X12833350Y-5995670D02*
G75*
G03*
X12973050Y-5995670I69850J0D01*
G01*
D17*
X10083800Y-7694930D02*
X10158730Y-7620000D01*
X10083800Y-7545070D01*
X10008870Y-7620000D01*
X10083800Y-7694930D01*
X10158730Y-7620000D02*
G75*
G03*
X10008870Y-7620000I-74930J0D01*
G01*
X10008870Y-7620000D02*
G75*
G03*
X10158730Y-7620000I74930J0D01*
G01*
X11301730Y-8495030D02*
X11376660Y-8420100D01*
X11301730Y-8345170D01*
X11226800Y-8420100D01*
X11301730Y-8495030D01*
X11376660Y-8420100D02*
G75*
G03*
X11226800Y-8420100I-74930J0D01*
G01*
X11226800Y-8420100D02*
G75*
G03*
X11376660Y-8420100I74930J0D01*
G01*
X12647930Y-5815330D02*
X12722860Y-5740400D01*
X12647930Y-5665470D01*
X12573000Y-5740400D01*
X12647930Y-5815330D01*
X12722860Y-5740400D02*
G75*
G03*
X12573000Y-5740400I-74930J0D01*
G01*
X12573000Y-5740400D02*
G75*
G03*
X12722860Y-5740400I74930J0D01*
G01*
D18*
X4241800Y-2888000D02*
X4241800Y-3208000D01*
X4081800Y-3048000D02*
X4401800Y-3048000D01*
X4354938Y-3161138D02*
X4354938Y-2934862D01*
X4128662Y-2934862D01*
X4128662Y-3161138D01*
X4354938Y-3161138D01*
X4241800Y-8222000D02*
X4241800Y-8542000D01*
X4081800Y-8382000D02*
X4401800Y-8382000D01*
X4354938Y-8495138D02*
X4354938Y-8268862D01*
X4128662Y-8268862D01*
X4128662Y-8495138D01*
X4354938Y-8495138D01*
X14655800Y-2888000D02*
X14655800Y-3208000D01*
X14495800Y-3048000D02*
X14815800Y-3048000D01*
X14768938Y-3161138D02*
X14768938Y-2934862D01*
X14542662Y-2934862D01*
X14542662Y-3161138D01*
X14768938Y-3161138D01*
X14655800Y-8222000D02*
X14655800Y-8542000D01*
X14495800Y-8382000D02*
X14815800Y-8382000D01*
X14768938Y-8495138D02*
X14768938Y-8268862D01*
X14542662Y-8268862D01*
X14542662Y-8495138D01*
X14768938Y-8495138D01*
D11*
X3989577Y-9206484D02*
X3989577Y-9006484D01*
X3989577Y-9006484D02*
X4037196Y-9006484D01*
X4037196Y-9006484D02*
X4065767Y-9016008D01*
X4065767Y-9016008D02*
X4084815Y-9035055D01*
X4084815Y-9035055D02*
X4094339Y-9054103D01*
X4094339Y-9054103D02*
X4103862Y-9092198D01*
X4103862Y-9092198D02*
X4103862Y-9120770D01*
X4103862Y-9120770D02*
X4094339Y-9158865D01*
X4094339Y-9158865D02*
X4084815Y-9177912D01*
X4084815Y-9177912D02*
X4065767Y-9196960D01*
X4065767Y-9196960D02*
X4037196Y-9206484D01*
X4037196Y-9206484D02*
X3989577Y-9206484D01*
X4189577Y-9206484D02*
X4189577Y-9073150D01*
X4189577Y-9111246D02*
X4199101Y-9092198D01*
X4199101Y-9092198D02*
X4208624Y-9082674D01*
X4208624Y-9082674D02*
X4227672Y-9073150D01*
X4227672Y-9073150D02*
X4246720Y-9073150D01*
X4313386Y-9206484D02*
X4313386Y-9073150D01*
X4313386Y-9006484D02*
X4303863Y-9016008D01*
X4303863Y-9016008D02*
X4313386Y-9025531D01*
X4313386Y-9025531D02*
X4322910Y-9016008D01*
X4322910Y-9016008D02*
X4313386Y-9006484D01*
X4313386Y-9006484D02*
X4313386Y-9025531D01*
X4437196Y-9206484D02*
X4418148Y-9196960D01*
X4418148Y-9196960D02*
X4408624Y-9177912D01*
X4408624Y-9177912D02*
X4408624Y-9006484D01*
X4541958Y-9206484D02*
X4522910Y-9196960D01*
X4522910Y-9196960D02*
X4513386Y-9177912D01*
X4513386Y-9177912D02*
X4513386Y-9006484D01*
X4770529Y-9206484D02*
X4770529Y-9006484D01*
X4770529Y-9006484D02*
X4837196Y-9149341D01*
X4837196Y-9149341D02*
X4903863Y-9006484D01*
X4903863Y-9006484D02*
X4903863Y-9206484D01*
X5084815Y-9206484D02*
X5084815Y-9101722D01*
X5084815Y-9101722D02*
X5075291Y-9082674D01*
X5075291Y-9082674D02*
X5056244Y-9073150D01*
X5056244Y-9073150D02*
X5018148Y-9073150D01*
X5018148Y-9073150D02*
X4999101Y-9082674D01*
X5084815Y-9196960D02*
X5065767Y-9206484D01*
X5065767Y-9206484D02*
X5018148Y-9206484D01*
X5018148Y-9206484D02*
X4999101Y-9196960D01*
X4999101Y-9196960D02*
X4989577Y-9177912D01*
X4989577Y-9177912D02*
X4989577Y-9158865D01*
X4989577Y-9158865D02*
X4999101Y-9139817D01*
X4999101Y-9139817D02*
X5018148Y-9130293D01*
X5018148Y-9130293D02*
X5065767Y-9130293D01*
X5065767Y-9130293D02*
X5084815Y-9120770D01*
X5180053Y-9073150D02*
X5180053Y-9273150D01*
X5180053Y-9082674D02*
X5199101Y-9073150D01*
X5199101Y-9073150D02*
X5237196Y-9073150D01*
X5237196Y-9073150D02*
X5256244Y-9082674D01*
X5256244Y-9082674D02*
X5265767Y-9092198D01*
X5265767Y-9092198D02*
X5275291Y-9111246D01*
X5275291Y-9111246D02*
X5275291Y-9168389D01*
X5275291Y-9168389D02*
X5265767Y-9187436D01*
X5265767Y-9187436D02*
X5256244Y-9196960D01*
X5256244Y-9196960D02*
X5237196Y-9206484D01*
X5237196Y-9206484D02*
X5199101Y-9206484D01*
X5199101Y-9206484D02*
X5180053Y-9196960D01*
X5361005Y-9187436D02*
X5370529Y-9196960D01*
X5370529Y-9196960D02*
X5361005Y-9206484D01*
X5361005Y-9206484D02*
X5351482Y-9196960D01*
X5351482Y-9196960D02*
X5361005Y-9187436D01*
X5361005Y-9187436D02*
X5361005Y-9206484D01*
X5361005Y-9082674D02*
X5370529Y-9092198D01*
X5370529Y-9092198D02*
X5361005Y-9101722D01*
X5361005Y-9101722D02*
X5351482Y-9092198D01*
X5351482Y-9092198D02*
X5361005Y-9082674D01*
X5361005Y-9082674D02*
X5361005Y-9101722D01*
D10*
X3688800Y-9515000D02*
X3728800Y-9555000D01*
X3728800Y-9515000D02*
X3688800Y-9555000D01*
D11*
X4027672Y-9426484D02*
X4046720Y-9426484D01*
X4046720Y-9426484D02*
X4065767Y-9436008D01*
X4065767Y-9436008D02*
X4075291Y-9445531D01*
X4075291Y-9445531D02*
X4084815Y-9464579D01*
X4084815Y-9464579D02*
X4094339Y-9502674D01*
X4094339Y-9502674D02*
X4094339Y-9550293D01*
X4094339Y-9550293D02*
X4084815Y-9588389D01*
X4084815Y-9588389D02*
X4075291Y-9607436D01*
X4075291Y-9607436D02*
X4065767Y-9616960D01*
X4065767Y-9616960D02*
X4046720Y-9626484D01*
X4046720Y-9626484D02*
X4027672Y-9626484D01*
X4027672Y-9626484D02*
X4008624Y-9616960D01*
X4008624Y-9616960D02*
X3999101Y-9607436D01*
X3999101Y-9607436D02*
X3989577Y-9588389D01*
X3989577Y-9588389D02*
X3980053Y-9550293D01*
X3980053Y-9550293D02*
X3980053Y-9502674D01*
X3980053Y-9502674D02*
X3989577Y-9464579D01*
X3989577Y-9464579D02*
X3999101Y-9445531D01*
X3999101Y-9445531D02*
X4008624Y-9436008D01*
X4008624Y-9436008D02*
X4027672Y-9426484D01*
X4180053Y-9607436D02*
X4189577Y-9616960D01*
X4189577Y-9616960D02*
X4180053Y-9626484D01*
X4180053Y-9626484D02*
X4170529Y-9616960D01*
X4170529Y-9616960D02*
X4180053Y-9607436D01*
X4180053Y-9607436D02*
X4180053Y-9626484D01*
X4361005Y-9493150D02*
X4361005Y-9626484D01*
X4313386Y-9416960D02*
X4265767Y-9559817D01*
X4265767Y-9559817D02*
X4389577Y-9559817D01*
X4503863Y-9426484D02*
X4522910Y-9426484D01*
X4522910Y-9426484D02*
X4541958Y-9436008D01*
X4541958Y-9436008D02*
X4551482Y-9445531D01*
X4551482Y-9445531D02*
X4561005Y-9464579D01*
X4561005Y-9464579D02*
X4570529Y-9502674D01*
X4570529Y-9502674D02*
X4570529Y-9550293D01*
X4570529Y-9550293D02*
X4561005Y-9588389D01*
X4561005Y-9588389D02*
X4551482Y-9607436D01*
X4551482Y-9607436D02*
X4541958Y-9616960D01*
X4541958Y-9616960D02*
X4522910Y-9626484D01*
X4522910Y-9626484D02*
X4503863Y-9626484D01*
X4503863Y-9626484D02*
X4484815Y-9616960D01*
X4484815Y-9616960D02*
X4475291Y-9607436D01*
X4475291Y-9607436D02*
X4465767Y-9588389D01*
X4465767Y-9588389D02*
X4456244Y-9550293D01*
X4456244Y-9550293D02*
X4456244Y-9502674D01*
X4456244Y-9502674D02*
X4465767Y-9464579D01*
X4465767Y-9464579D02*
X4475291Y-9445531D01*
X4475291Y-9445531D02*
X4484815Y-9436008D01*
X4484815Y-9436008D02*
X4503863Y-9426484D01*
X4694339Y-9426484D02*
X4713386Y-9426484D01*
X4713386Y-9426484D02*
X4732434Y-9436008D01*
X4732434Y-9436008D02*
X4741958Y-9445531D01*
X4741958Y-9445531D02*
X4751482Y-9464579D01*
X4751482Y-9464579D02*
X4761005Y-9502674D01*
X4761005Y-9502674D02*
X4761005Y-9550293D01*
X4761005Y-9550293D02*
X4751482Y-9588389D01*
X4751482Y-9588389D02*
X4741958Y-9607436D01*
X4741958Y-9607436D02*
X4732434Y-9616960D01*
X4732434Y-9616960D02*
X4713386Y-9626484D01*
X4713386Y-9626484D02*
X4694339Y-9626484D01*
X4694339Y-9626484D02*
X4675291Y-9616960D01*
X4675291Y-9616960D02*
X4665767Y-9607436D01*
X4665767Y-9607436D02*
X4656244Y-9588389D01*
X4656244Y-9588389D02*
X4646720Y-9550293D01*
X4646720Y-9550293D02*
X4646720Y-9502674D01*
X4646720Y-9502674D02*
X4656244Y-9464579D01*
X4656244Y-9464579D02*
X4665767Y-9445531D01*
X4665767Y-9445531D02*
X4675291Y-9436008D01*
X4675291Y-9436008D02*
X4694339Y-9426484D01*
X4846720Y-9626484D02*
X4846720Y-9493150D01*
X4846720Y-9512198D02*
X4856244Y-9502674D01*
X4856244Y-9502674D02*
X4875291Y-9493150D01*
X4875291Y-9493150D02*
X4903863Y-9493150D01*
X4903863Y-9493150D02*
X4922910Y-9502674D01*
X4922910Y-9502674D02*
X4932434Y-9521722D01*
X4932434Y-9521722D02*
X4932434Y-9626484D01*
X4932434Y-9521722D02*
X4941958Y-9502674D01*
X4941958Y-9502674D02*
X4961005Y-9493150D01*
X4961005Y-9493150D02*
X4989577Y-9493150D01*
X4989577Y-9493150D02*
X5008625Y-9502674D01*
X5008625Y-9502674D02*
X5018148Y-9521722D01*
X5018148Y-9521722D02*
X5018148Y-9626484D01*
X5113386Y-9626484D02*
X5113386Y-9493150D01*
X5113386Y-9512198D02*
X5122910Y-9502674D01*
X5122910Y-9502674D02*
X5141958Y-9493150D01*
X5141958Y-9493150D02*
X5170529Y-9493150D01*
X5170529Y-9493150D02*
X5189577Y-9502674D01*
X5189577Y-9502674D02*
X5199101Y-9521722D01*
X5199101Y-9521722D02*
X5199101Y-9626484D01*
X5199101Y-9521722D02*
X5208625Y-9502674D01*
X5208625Y-9502674D02*
X5227672Y-9493150D01*
X5227672Y-9493150D02*
X5256244Y-9493150D01*
X5256244Y-9493150D02*
X5275291Y-9502674D01*
X5275291Y-9502674D02*
X5284815Y-9521722D01*
X5284815Y-9521722D02*
X5284815Y-9626484D01*
X5675291Y-9416960D02*
X5503863Y-9674103D01*
X5932434Y-9426484D02*
X5951482Y-9426484D01*
X5951482Y-9426484D02*
X5970529Y-9436008D01*
X5970529Y-9436008D02*
X5980053Y-9445531D01*
X5980053Y-9445531D02*
X5989577Y-9464579D01*
X5989577Y-9464579D02*
X5999101Y-9502674D01*
X5999101Y-9502674D02*
X5999101Y-9550293D01*
X5999101Y-9550293D02*
X5989577Y-9588389D01*
X5989577Y-9588389D02*
X5980053Y-9607436D01*
X5980053Y-9607436D02*
X5970529Y-9616960D01*
X5970529Y-9616960D02*
X5951482Y-9626484D01*
X5951482Y-9626484D02*
X5932434Y-9626484D01*
X5932434Y-9626484D02*
X5913386Y-9616960D01*
X5913386Y-9616960D02*
X5903863Y-9607436D01*
X5903863Y-9607436D02*
X5894339Y-9588389D01*
X5894339Y-9588389D02*
X5884815Y-9550293D01*
X5884815Y-9550293D02*
X5884815Y-9502674D01*
X5884815Y-9502674D02*
X5894339Y-9464579D01*
X5894339Y-9464579D02*
X5903863Y-9445531D01*
X5903863Y-9445531D02*
X5913386Y-9436008D01*
X5913386Y-9436008D02*
X5932434Y-9426484D01*
X6084815Y-9607436D02*
X6094339Y-9616960D01*
X6094339Y-9616960D02*
X6084815Y-9626484D01*
X6084815Y-9626484D02*
X6075291Y-9616960D01*
X6075291Y-9616960D02*
X6084815Y-9607436D01*
X6084815Y-9607436D02*
X6084815Y-9626484D01*
X6218148Y-9426484D02*
X6237196Y-9426484D01*
X6237196Y-9426484D02*
X6256244Y-9436008D01*
X6256244Y-9436008D02*
X6265767Y-9445531D01*
X6265767Y-9445531D02*
X6275291Y-9464579D01*
X6275291Y-9464579D02*
X6284815Y-9502674D01*
X6284815Y-9502674D02*
X6284815Y-9550293D01*
X6284815Y-9550293D02*
X6275291Y-9588389D01*
X6275291Y-9588389D02*
X6265767Y-9607436D01*
X6265767Y-9607436D02*
X6256244Y-9616960D01*
X6256244Y-9616960D02*
X6237196Y-9626484D01*
X6237196Y-9626484D02*
X6218148Y-9626484D01*
X6218148Y-9626484D02*
X6199101Y-9616960D01*
X6199101Y-9616960D02*
X6189577Y-9607436D01*
X6189577Y-9607436D02*
X6180053Y-9588389D01*
X6180053Y-9588389D02*
X6170529Y-9550293D01*
X6170529Y-9550293D02*
X6170529Y-9502674D01*
X6170529Y-9502674D02*
X6180053Y-9464579D01*
X6180053Y-9464579D02*
X6189577Y-9445531D01*
X6189577Y-9445531D02*
X6199101Y-9436008D01*
X6199101Y-9436008D02*
X6218148Y-9426484D01*
X6475291Y-9626484D02*
X6361006Y-9626484D01*
X6418148Y-9626484D02*
X6418148Y-9426484D01*
X6418148Y-9426484D02*
X6399101Y-9455055D01*
X6399101Y-9455055D02*
X6380053Y-9474103D01*
X6380053Y-9474103D02*
X6361006Y-9483627D01*
X6656244Y-9426484D02*
X6561006Y-9426484D01*
X6561006Y-9426484D02*
X6551482Y-9521722D01*
X6551482Y-9521722D02*
X6561006Y-9512198D01*
X6561006Y-9512198D02*
X6580053Y-9502674D01*
X6580053Y-9502674D02*
X6627672Y-9502674D01*
X6627672Y-9502674D02*
X6646720Y-9512198D01*
X6646720Y-9512198D02*
X6656244Y-9521722D01*
X6656244Y-9521722D02*
X6665767Y-9540770D01*
X6665767Y-9540770D02*
X6665767Y-9588389D01*
X6665767Y-9588389D02*
X6656244Y-9607436D01*
X6656244Y-9607436D02*
X6646720Y-9616960D01*
X6646720Y-9616960D02*
X6627672Y-9626484D01*
X6627672Y-9626484D02*
X6580053Y-9626484D01*
X6580053Y-9626484D02*
X6561006Y-9616960D01*
X6561006Y-9616960D02*
X6551482Y-9607436D01*
X6732434Y-9426484D02*
X6865767Y-9426484D01*
X6865767Y-9426484D02*
X6780053Y-9626484D01*
X6932434Y-9426484D02*
X6932434Y-9464579D01*
X7008625Y-9426484D02*
X7008625Y-9464579D01*
X7303863Y-9702674D02*
X7294339Y-9693150D01*
X7294339Y-9693150D02*
X7275291Y-9664579D01*
X7275291Y-9664579D02*
X7265768Y-9645531D01*
X7265768Y-9645531D02*
X7256244Y-9616960D01*
X7256244Y-9616960D02*
X7246720Y-9569341D01*
X7246720Y-9569341D02*
X7246720Y-9531246D01*
X7246720Y-9531246D02*
X7256244Y-9483627D01*
X7256244Y-9483627D02*
X7265768Y-9455055D01*
X7265768Y-9455055D02*
X7275291Y-9436008D01*
X7275291Y-9436008D02*
X7294339Y-9407436D01*
X7294339Y-9407436D02*
X7303863Y-9397912D01*
X7465768Y-9493150D02*
X7465768Y-9626484D01*
X7418148Y-9416960D02*
X7370529Y-9559817D01*
X7370529Y-9559817D02*
X7494339Y-9559817D01*
X7551482Y-9426484D02*
X7684815Y-9426484D01*
X7684815Y-9426484D02*
X7599101Y-9626484D01*
X7913387Y-9626484D02*
X7913387Y-9426484D01*
X7999101Y-9626484D02*
X7999101Y-9521722D01*
X7999101Y-9521722D02*
X7989577Y-9502674D01*
X7989577Y-9502674D02*
X7970530Y-9493150D01*
X7970530Y-9493150D02*
X7941958Y-9493150D01*
X7941958Y-9493150D02*
X7922910Y-9502674D01*
X7922910Y-9502674D02*
X7913387Y-9512198D01*
X8122910Y-9626484D02*
X8103863Y-9616960D01*
X8103863Y-9616960D02*
X8094339Y-9607436D01*
X8094339Y-9607436D02*
X8084815Y-9588389D01*
X8084815Y-9588389D02*
X8084815Y-9531246D01*
X8084815Y-9531246D02*
X8094339Y-9512198D01*
X8094339Y-9512198D02*
X8103863Y-9502674D01*
X8103863Y-9502674D02*
X8122910Y-9493150D01*
X8122910Y-9493150D02*
X8151482Y-9493150D01*
X8151482Y-9493150D02*
X8170530Y-9502674D01*
X8170530Y-9502674D02*
X8180053Y-9512198D01*
X8180053Y-9512198D02*
X8189577Y-9531246D01*
X8189577Y-9531246D02*
X8189577Y-9588389D01*
X8189577Y-9588389D02*
X8180053Y-9607436D01*
X8180053Y-9607436D02*
X8170530Y-9616960D01*
X8170530Y-9616960D02*
X8151482Y-9626484D01*
X8151482Y-9626484D02*
X8122910Y-9626484D01*
X8303863Y-9626484D02*
X8284815Y-9616960D01*
X8284815Y-9616960D02*
X8275291Y-9597912D01*
X8275291Y-9597912D02*
X8275291Y-9426484D01*
X8456244Y-9616960D02*
X8437196Y-9626484D01*
X8437196Y-9626484D02*
X8399101Y-9626484D01*
X8399101Y-9626484D02*
X8380053Y-9616960D01*
X8380053Y-9616960D02*
X8370530Y-9597912D01*
X8370530Y-9597912D02*
X8370530Y-9521722D01*
X8370530Y-9521722D02*
X8380053Y-9502674D01*
X8380053Y-9502674D02*
X8399101Y-9493150D01*
X8399101Y-9493150D02*
X8437196Y-9493150D01*
X8437196Y-9493150D02*
X8456244Y-9502674D01*
X8456244Y-9502674D02*
X8465768Y-9521722D01*
X8465768Y-9521722D02*
X8465768Y-9540770D01*
X8465768Y-9540770D02*
X8370530Y-9559817D01*
X8541958Y-9616960D02*
X8561006Y-9626484D01*
X8561006Y-9626484D02*
X8599101Y-9626484D01*
X8599101Y-9626484D02*
X8618149Y-9616960D01*
X8618149Y-9616960D02*
X8627673Y-9597912D01*
X8627673Y-9597912D02*
X8627673Y-9588389D01*
X8627673Y-9588389D02*
X8618149Y-9569341D01*
X8618149Y-9569341D02*
X8599101Y-9559817D01*
X8599101Y-9559817D02*
X8570530Y-9559817D01*
X8570530Y-9559817D02*
X8551482Y-9550293D01*
X8551482Y-9550293D02*
X8541958Y-9531246D01*
X8541958Y-9531246D02*
X8541958Y-9521722D01*
X8541958Y-9521722D02*
X8551482Y-9502674D01*
X8551482Y-9502674D02*
X8570530Y-9493150D01*
X8570530Y-9493150D02*
X8599101Y-9493150D01*
X8599101Y-9493150D02*
X8618149Y-9502674D01*
X8694339Y-9702674D02*
X8703863Y-9693150D01*
X8703863Y-9693150D02*
X8722911Y-9664579D01*
X8722911Y-9664579D02*
X8732434Y-9645531D01*
X8732434Y-9645531D02*
X8741958Y-9616960D01*
X8741958Y-9616960D02*
X8751482Y-9569341D01*
X8751482Y-9569341D02*
X8751482Y-9531246D01*
X8751482Y-9531246D02*
X8741958Y-9483627D01*
X8741958Y-9483627D02*
X8732434Y-9455055D01*
X8732434Y-9455055D02*
X8722911Y-9436008D01*
X8722911Y-9436008D02*
X8703863Y-9407436D01*
X8703863Y-9407436D02*
X8694339Y-9397912D01*
D10*
X3728800Y-9799000D02*
G75*
G03*
X3658800Y-9799000I-35000J0D01*
G01*
X3658800Y-9799000D02*
G75*
G03*
X3728800Y-9799000I35000J0D01*
G01*
D11*
X4027672Y-9690484D02*
X4046720Y-9690484D01*
X4046720Y-9690484D02*
X4065767Y-9700008D01*
X4065767Y-9700008D02*
X4075291Y-9709531D01*
X4075291Y-9709531D02*
X4084815Y-9728579D01*
X4084815Y-9728579D02*
X4094339Y-9766674D01*
X4094339Y-9766674D02*
X4094339Y-9814293D01*
X4094339Y-9814293D02*
X4084815Y-9852389D01*
X4084815Y-9852389D02*
X4075291Y-9871436D01*
X4075291Y-9871436D02*
X4065767Y-9880960D01*
X4065767Y-9880960D02*
X4046720Y-9890484D01*
X4046720Y-9890484D02*
X4027672Y-9890484D01*
X4027672Y-9890484D02*
X4008624Y-9880960D01*
X4008624Y-9880960D02*
X3999101Y-9871436D01*
X3999101Y-9871436D02*
X3989577Y-9852389D01*
X3989577Y-9852389D02*
X3980053Y-9814293D01*
X3980053Y-9814293D02*
X3980053Y-9766674D01*
X3980053Y-9766674D02*
X3989577Y-9728579D01*
X3989577Y-9728579D02*
X3999101Y-9709531D01*
X3999101Y-9709531D02*
X4008624Y-9700008D01*
X4008624Y-9700008D02*
X4027672Y-9690484D01*
X4180053Y-9871436D02*
X4189577Y-9880960D01*
X4189577Y-9880960D02*
X4180053Y-9890484D01*
X4180053Y-9890484D02*
X4170529Y-9880960D01*
X4170529Y-9880960D02*
X4180053Y-9871436D01*
X4180053Y-9871436D02*
X4180053Y-9890484D01*
X4256244Y-9690484D02*
X4389577Y-9690484D01*
X4389577Y-9690484D02*
X4303863Y-9890484D01*
X4503863Y-9690484D02*
X4522910Y-9690484D01*
X4522910Y-9690484D02*
X4541958Y-9700008D01*
X4541958Y-9700008D02*
X4551482Y-9709531D01*
X4551482Y-9709531D02*
X4561005Y-9728579D01*
X4561005Y-9728579D02*
X4570529Y-9766674D01*
X4570529Y-9766674D02*
X4570529Y-9814293D01*
X4570529Y-9814293D02*
X4561005Y-9852389D01*
X4561005Y-9852389D02*
X4551482Y-9871436D01*
X4551482Y-9871436D02*
X4541958Y-9880960D01*
X4541958Y-9880960D02*
X4522910Y-9890484D01*
X4522910Y-9890484D02*
X4503863Y-9890484D01*
X4503863Y-9890484D02*
X4484815Y-9880960D01*
X4484815Y-9880960D02*
X4475291Y-9871436D01*
X4475291Y-9871436D02*
X4465767Y-9852389D01*
X4465767Y-9852389D02*
X4456244Y-9814293D01*
X4456244Y-9814293D02*
X4456244Y-9766674D01*
X4456244Y-9766674D02*
X4465767Y-9728579D01*
X4465767Y-9728579D02*
X4475291Y-9709531D01*
X4475291Y-9709531D02*
X4484815Y-9700008D01*
X4484815Y-9700008D02*
X4503863Y-9690484D01*
X4694339Y-9690484D02*
X4713386Y-9690484D01*
X4713386Y-9690484D02*
X4732434Y-9700008D01*
X4732434Y-9700008D02*
X4741958Y-9709531D01*
X4741958Y-9709531D02*
X4751482Y-9728579D01*
X4751482Y-9728579D02*
X4761005Y-9766674D01*
X4761005Y-9766674D02*
X4761005Y-9814293D01*
X4761005Y-9814293D02*
X4751482Y-9852389D01*
X4751482Y-9852389D02*
X4741958Y-9871436D01*
X4741958Y-9871436D02*
X4732434Y-9880960D01*
X4732434Y-9880960D02*
X4713386Y-9890484D01*
X4713386Y-9890484D02*
X4694339Y-9890484D01*
X4694339Y-9890484D02*
X4675291Y-9880960D01*
X4675291Y-9880960D02*
X4665767Y-9871436D01*
X4665767Y-9871436D02*
X4656244Y-9852389D01*
X4656244Y-9852389D02*
X4646720Y-9814293D01*
X4646720Y-9814293D02*
X4646720Y-9766674D01*
X4646720Y-9766674D02*
X4656244Y-9728579D01*
X4656244Y-9728579D02*
X4665767Y-9709531D01*
X4665767Y-9709531D02*
X4675291Y-9700008D01*
X4675291Y-9700008D02*
X4694339Y-9690484D01*
X4846720Y-9890484D02*
X4846720Y-9757150D01*
X4846720Y-9776198D02*
X4856244Y-9766674D01*
X4856244Y-9766674D02*
X4875291Y-9757150D01*
X4875291Y-9757150D02*
X4903863Y-9757150D01*
X4903863Y-9757150D02*
X4922910Y-9766674D01*
X4922910Y-9766674D02*
X4932434Y-9785722D01*
X4932434Y-9785722D02*
X4932434Y-9890484D01*
X4932434Y-9785722D02*
X4941958Y-9766674D01*
X4941958Y-9766674D02*
X4961005Y-9757150D01*
X4961005Y-9757150D02*
X4989577Y-9757150D01*
X4989577Y-9757150D02*
X5008625Y-9766674D01*
X5008625Y-9766674D02*
X5018148Y-9785722D01*
X5018148Y-9785722D02*
X5018148Y-9890484D01*
X5113386Y-9890484D02*
X5113386Y-9757150D01*
X5113386Y-9776198D02*
X5122910Y-9766674D01*
X5122910Y-9766674D02*
X5141958Y-9757150D01*
X5141958Y-9757150D02*
X5170529Y-9757150D01*
X5170529Y-9757150D02*
X5189577Y-9766674D01*
X5189577Y-9766674D02*
X5199101Y-9785722D01*
X5199101Y-9785722D02*
X5199101Y-9890484D01*
X5199101Y-9785722D02*
X5208625Y-9766674D01*
X5208625Y-9766674D02*
X5227672Y-9757150D01*
X5227672Y-9757150D02*
X5256244Y-9757150D01*
X5256244Y-9757150D02*
X5275291Y-9766674D01*
X5275291Y-9766674D02*
X5284815Y-9785722D01*
X5284815Y-9785722D02*
X5284815Y-9890484D01*
X5675291Y-9680960D02*
X5503863Y-9938103D01*
X5932434Y-9690484D02*
X5951482Y-9690484D01*
X5951482Y-9690484D02*
X5970529Y-9700008D01*
X5970529Y-9700008D02*
X5980053Y-9709531D01*
X5980053Y-9709531D02*
X5989577Y-9728579D01*
X5989577Y-9728579D02*
X5999101Y-9766674D01*
X5999101Y-9766674D02*
X5999101Y-9814293D01*
X5999101Y-9814293D02*
X5989577Y-9852389D01*
X5989577Y-9852389D02*
X5980053Y-9871436D01*
X5980053Y-9871436D02*
X5970529Y-9880960D01*
X5970529Y-9880960D02*
X5951482Y-9890484D01*
X5951482Y-9890484D02*
X5932434Y-9890484D01*
X5932434Y-9890484D02*
X5913386Y-9880960D01*
X5913386Y-9880960D02*
X5903863Y-9871436D01*
X5903863Y-9871436D02*
X5894339Y-9852389D01*
X5894339Y-9852389D02*
X5884815Y-9814293D01*
X5884815Y-9814293D02*
X5884815Y-9766674D01*
X5884815Y-9766674D02*
X5894339Y-9728579D01*
X5894339Y-9728579D02*
X5903863Y-9709531D01*
X5903863Y-9709531D02*
X5913386Y-9700008D01*
X5913386Y-9700008D02*
X5932434Y-9690484D01*
X6084815Y-9871436D02*
X6094339Y-9880960D01*
X6094339Y-9880960D02*
X6084815Y-9890484D01*
X6084815Y-9890484D02*
X6075291Y-9880960D01*
X6075291Y-9880960D02*
X6084815Y-9871436D01*
X6084815Y-9871436D02*
X6084815Y-9890484D01*
X6218148Y-9690484D02*
X6237196Y-9690484D01*
X6237196Y-9690484D02*
X6256244Y-9700008D01*
X6256244Y-9700008D02*
X6265767Y-9709531D01*
X6265767Y-9709531D02*
X6275291Y-9728579D01*
X6275291Y-9728579D02*
X6284815Y-9766674D01*
X6284815Y-9766674D02*
X6284815Y-9814293D01*
X6284815Y-9814293D02*
X6275291Y-9852389D01*
X6275291Y-9852389D02*
X6265767Y-9871436D01*
X6265767Y-9871436D02*
X6256244Y-9880960D01*
X6256244Y-9880960D02*
X6237196Y-9890484D01*
X6237196Y-9890484D02*
X6218148Y-9890484D01*
X6218148Y-9890484D02*
X6199101Y-9880960D01*
X6199101Y-9880960D02*
X6189577Y-9871436D01*
X6189577Y-9871436D02*
X6180053Y-9852389D01*
X6180053Y-9852389D02*
X6170529Y-9814293D01*
X6170529Y-9814293D02*
X6170529Y-9766674D01*
X6170529Y-9766674D02*
X6180053Y-9728579D01*
X6180053Y-9728579D02*
X6189577Y-9709531D01*
X6189577Y-9709531D02*
X6199101Y-9700008D01*
X6199101Y-9700008D02*
X6218148Y-9690484D01*
X6361006Y-9709531D02*
X6370529Y-9700008D01*
X6370529Y-9700008D02*
X6389577Y-9690484D01*
X6389577Y-9690484D02*
X6437196Y-9690484D01*
X6437196Y-9690484D02*
X6456244Y-9700008D01*
X6456244Y-9700008D02*
X6465767Y-9709531D01*
X6465767Y-9709531D02*
X6475291Y-9728579D01*
X6475291Y-9728579D02*
X6475291Y-9747627D01*
X6475291Y-9747627D02*
X6465767Y-9776198D01*
X6465767Y-9776198D02*
X6351482Y-9890484D01*
X6351482Y-9890484D02*
X6475291Y-9890484D01*
X6541958Y-9690484D02*
X6675291Y-9690484D01*
X6675291Y-9690484D02*
X6589577Y-9890484D01*
X6837196Y-9690484D02*
X6799101Y-9690484D01*
X6799101Y-9690484D02*
X6780053Y-9700008D01*
X6780053Y-9700008D02*
X6770529Y-9709531D01*
X6770529Y-9709531D02*
X6751482Y-9738103D01*
X6751482Y-9738103D02*
X6741958Y-9776198D01*
X6741958Y-9776198D02*
X6741958Y-9852389D01*
X6741958Y-9852389D02*
X6751482Y-9871436D01*
X6751482Y-9871436D02*
X6761006Y-9880960D01*
X6761006Y-9880960D02*
X6780053Y-9890484D01*
X6780053Y-9890484D02*
X6818148Y-9890484D01*
X6818148Y-9890484D02*
X6837196Y-9880960D01*
X6837196Y-9880960D02*
X6846720Y-9871436D01*
X6846720Y-9871436D02*
X6856244Y-9852389D01*
X6856244Y-9852389D02*
X6856244Y-9804770D01*
X6856244Y-9804770D02*
X6846720Y-9785722D01*
X6846720Y-9785722D02*
X6837196Y-9776198D01*
X6837196Y-9776198D02*
X6818148Y-9766674D01*
X6818148Y-9766674D02*
X6780053Y-9766674D01*
X6780053Y-9766674D02*
X6761006Y-9776198D01*
X6761006Y-9776198D02*
X6751482Y-9785722D01*
X6751482Y-9785722D02*
X6741958Y-9804770D01*
X6932434Y-9690484D02*
X6932434Y-9728579D01*
X7008625Y-9690484D02*
X7008625Y-9728579D01*
X7303863Y-9966674D02*
X7294339Y-9957150D01*
X7294339Y-9957150D02*
X7275291Y-9928579D01*
X7275291Y-9928579D02*
X7265768Y-9909531D01*
X7265768Y-9909531D02*
X7256244Y-9880960D01*
X7256244Y-9880960D02*
X7246720Y-9833341D01*
X7246720Y-9833341D02*
X7246720Y-9795246D01*
X7246720Y-9795246D02*
X7256244Y-9747627D01*
X7256244Y-9747627D02*
X7265768Y-9719055D01*
X7265768Y-9719055D02*
X7275291Y-9700008D01*
X7275291Y-9700008D02*
X7294339Y-9671436D01*
X7294339Y-9671436D02*
X7303863Y-9661912D01*
X7361006Y-9690484D02*
X7484815Y-9690484D01*
X7484815Y-9690484D02*
X7418148Y-9766674D01*
X7418148Y-9766674D02*
X7446720Y-9766674D01*
X7446720Y-9766674D02*
X7465768Y-9776198D01*
X7465768Y-9776198D02*
X7475291Y-9785722D01*
X7475291Y-9785722D02*
X7484815Y-9804770D01*
X7484815Y-9804770D02*
X7484815Y-9852389D01*
X7484815Y-9852389D02*
X7475291Y-9871436D01*
X7475291Y-9871436D02*
X7465768Y-9880960D01*
X7465768Y-9880960D02*
X7446720Y-9890484D01*
X7446720Y-9890484D02*
X7389577Y-9890484D01*
X7389577Y-9890484D02*
X7370529Y-9880960D01*
X7370529Y-9880960D02*
X7361006Y-9871436D01*
X7722910Y-9890484D02*
X7722910Y-9690484D01*
X7808625Y-9890484D02*
X7808625Y-9785722D01*
X7808625Y-9785722D02*
X7799101Y-9766674D01*
X7799101Y-9766674D02*
X7780053Y-9757150D01*
X7780053Y-9757150D02*
X7751482Y-9757150D01*
X7751482Y-9757150D02*
X7732434Y-9766674D01*
X7732434Y-9766674D02*
X7722910Y-9776198D01*
X7932434Y-9890484D02*
X7913387Y-9880960D01*
X7913387Y-9880960D02*
X7903863Y-9871436D01*
X7903863Y-9871436D02*
X7894339Y-9852389D01*
X7894339Y-9852389D02*
X7894339Y-9795246D01*
X7894339Y-9795246D02*
X7903863Y-9776198D01*
X7903863Y-9776198D02*
X7913387Y-9766674D01*
X7913387Y-9766674D02*
X7932434Y-9757150D01*
X7932434Y-9757150D02*
X7961006Y-9757150D01*
X7961006Y-9757150D02*
X7980053Y-9766674D01*
X7980053Y-9766674D02*
X7989577Y-9776198D01*
X7989577Y-9776198D02*
X7999101Y-9795246D01*
X7999101Y-9795246D02*
X7999101Y-9852389D01*
X7999101Y-9852389D02*
X7989577Y-9871436D01*
X7989577Y-9871436D02*
X7980053Y-9880960D01*
X7980053Y-9880960D02*
X7961006Y-9890484D01*
X7961006Y-9890484D02*
X7932434Y-9890484D01*
X8113387Y-9890484D02*
X8094339Y-9880960D01*
X8094339Y-9880960D02*
X8084815Y-9861912D01*
X8084815Y-9861912D02*
X8084815Y-9690484D01*
X8265768Y-9880960D02*
X8246720Y-9890484D01*
X8246720Y-9890484D02*
X8208625Y-9890484D01*
X8208625Y-9890484D02*
X8189577Y-9880960D01*
X8189577Y-9880960D02*
X8180053Y-9861912D01*
X8180053Y-9861912D02*
X8180053Y-9785722D01*
X8180053Y-9785722D02*
X8189577Y-9766674D01*
X8189577Y-9766674D02*
X8208625Y-9757150D01*
X8208625Y-9757150D02*
X8246720Y-9757150D01*
X8246720Y-9757150D02*
X8265768Y-9766674D01*
X8265768Y-9766674D02*
X8275291Y-9785722D01*
X8275291Y-9785722D02*
X8275291Y-9804770D01*
X8275291Y-9804770D02*
X8180053Y-9823817D01*
X8351482Y-9880960D02*
X8370530Y-9890484D01*
X8370530Y-9890484D02*
X8408625Y-9890484D01*
X8408625Y-9890484D02*
X8427673Y-9880960D01*
X8427673Y-9880960D02*
X8437196Y-9861912D01*
X8437196Y-9861912D02*
X8437196Y-9852389D01*
X8437196Y-9852389D02*
X8427673Y-9833341D01*
X8427673Y-9833341D02*
X8408625Y-9823817D01*
X8408625Y-9823817D02*
X8380053Y-9823817D01*
X8380053Y-9823817D02*
X8361006Y-9814293D01*
X8361006Y-9814293D02*
X8351482Y-9795246D01*
X8351482Y-9795246D02*
X8351482Y-9785722D01*
X8351482Y-9785722D02*
X8361006Y-9766674D01*
X8361006Y-9766674D02*
X8380053Y-9757150D01*
X8380053Y-9757150D02*
X8408625Y-9757150D01*
X8408625Y-9757150D02*
X8427673Y-9766674D01*
X8503863Y-9966674D02*
X8513387Y-9957150D01*
X8513387Y-9957150D02*
X8532434Y-9928579D01*
X8532434Y-9928579D02*
X8541958Y-9909531D01*
X8541958Y-9909531D02*
X8551482Y-9880960D01*
X8551482Y-9880960D02*
X8561006Y-9833341D01*
X8561006Y-9833341D02*
X8561006Y-9795246D01*
X8561006Y-9795246D02*
X8551482Y-9747627D01*
X8551482Y-9747627D02*
X8541958Y-9719055D01*
X8541958Y-9719055D02*
X8532434Y-9700008D01*
X8532434Y-9700008D02*
X8513387Y-9671436D01*
X8513387Y-9671436D02*
X8503863Y-9661912D01*
D10*
X3690700Y-10024900D02*
X3690700Y-10101100D01*
X3652600Y-10063000D02*
X3728800Y-10063000D01*
D11*
X4027672Y-9954484D02*
X4046720Y-9954484D01*
X4046720Y-9954484D02*
X4065767Y-9964008D01*
X4065767Y-9964008D02*
X4075291Y-9973531D01*
X4075291Y-9973531D02*
X4084815Y-9992579D01*
X4084815Y-9992579D02*
X4094339Y-10030674D01*
X4094339Y-10030674D02*
X4094339Y-10078293D01*
X4094339Y-10078293D02*
X4084815Y-10116389D01*
X4084815Y-10116389D02*
X4075291Y-10135436D01*
X4075291Y-10135436D02*
X4065767Y-10144960D01*
X4065767Y-10144960D02*
X4046720Y-10154484D01*
X4046720Y-10154484D02*
X4027672Y-10154484D01*
X4027672Y-10154484D02*
X4008624Y-10144960D01*
X4008624Y-10144960D02*
X3999101Y-10135436D01*
X3999101Y-10135436D02*
X3989577Y-10116389D01*
X3989577Y-10116389D02*
X3980053Y-10078293D01*
X3980053Y-10078293D02*
X3980053Y-10030674D01*
X3980053Y-10030674D02*
X3989577Y-9992579D01*
X3989577Y-9992579D02*
X3999101Y-9973531D01*
X3999101Y-9973531D02*
X4008624Y-9964008D01*
X4008624Y-9964008D02*
X4027672Y-9954484D01*
X4180053Y-10135436D02*
X4189577Y-10144960D01*
X4189577Y-10144960D02*
X4180053Y-10154484D01*
X4180053Y-10154484D02*
X4170529Y-10144960D01*
X4170529Y-10144960D02*
X4180053Y-10135436D01*
X4180053Y-10135436D02*
X4180053Y-10154484D01*
X4256244Y-9954484D02*
X4389577Y-9954484D01*
X4389577Y-9954484D02*
X4303863Y-10154484D01*
X4551482Y-9954484D02*
X4513386Y-9954484D01*
X4513386Y-9954484D02*
X4494339Y-9964008D01*
X4494339Y-9964008D02*
X4484815Y-9973531D01*
X4484815Y-9973531D02*
X4465767Y-10002103D01*
X4465767Y-10002103D02*
X4456244Y-10040198D01*
X4456244Y-10040198D02*
X4456244Y-10116389D01*
X4456244Y-10116389D02*
X4465767Y-10135436D01*
X4465767Y-10135436D02*
X4475291Y-10144960D01*
X4475291Y-10144960D02*
X4494339Y-10154484D01*
X4494339Y-10154484D02*
X4532434Y-10154484D01*
X4532434Y-10154484D02*
X4551482Y-10144960D01*
X4551482Y-10144960D02*
X4561005Y-10135436D01*
X4561005Y-10135436D02*
X4570529Y-10116389D01*
X4570529Y-10116389D02*
X4570529Y-10068770D01*
X4570529Y-10068770D02*
X4561005Y-10049722D01*
X4561005Y-10049722D02*
X4551482Y-10040198D01*
X4551482Y-10040198D02*
X4532434Y-10030674D01*
X4532434Y-10030674D02*
X4494339Y-10030674D01*
X4494339Y-10030674D02*
X4475291Y-10040198D01*
X4475291Y-10040198D02*
X4465767Y-10049722D01*
X4465767Y-10049722D02*
X4456244Y-10068770D01*
X4646720Y-9973531D02*
X4656244Y-9964008D01*
X4656244Y-9964008D02*
X4675291Y-9954484D01*
X4675291Y-9954484D02*
X4722910Y-9954484D01*
X4722910Y-9954484D02*
X4741958Y-9964008D01*
X4741958Y-9964008D02*
X4751482Y-9973531D01*
X4751482Y-9973531D02*
X4761005Y-9992579D01*
X4761005Y-9992579D02*
X4761005Y-10011627D01*
X4761005Y-10011627D02*
X4751482Y-10040198D01*
X4751482Y-10040198D02*
X4637196Y-10154484D01*
X4637196Y-10154484D02*
X4761005Y-10154484D01*
X4846720Y-10154484D02*
X4846720Y-10021150D01*
X4846720Y-10040198D02*
X4856244Y-10030674D01*
X4856244Y-10030674D02*
X4875291Y-10021150D01*
X4875291Y-10021150D02*
X4903863Y-10021150D01*
X4903863Y-10021150D02*
X4922910Y-10030674D01*
X4922910Y-10030674D02*
X4932434Y-10049722D01*
X4932434Y-10049722D02*
X4932434Y-10154484D01*
X4932434Y-10049722D02*
X4941958Y-10030674D01*
X4941958Y-10030674D02*
X4961005Y-10021150D01*
X4961005Y-10021150D02*
X4989577Y-10021150D01*
X4989577Y-10021150D02*
X5008625Y-10030674D01*
X5008625Y-10030674D02*
X5018148Y-10049722D01*
X5018148Y-10049722D02*
X5018148Y-10154484D01*
X5113386Y-10154484D02*
X5113386Y-10021150D01*
X5113386Y-10040198D02*
X5122910Y-10030674D01*
X5122910Y-10030674D02*
X5141958Y-10021150D01*
X5141958Y-10021150D02*
X5170529Y-10021150D01*
X5170529Y-10021150D02*
X5189577Y-10030674D01*
X5189577Y-10030674D02*
X5199101Y-10049722D01*
X5199101Y-10049722D02*
X5199101Y-10154484D01*
X5199101Y-10049722D02*
X5208625Y-10030674D01*
X5208625Y-10030674D02*
X5227672Y-10021150D01*
X5227672Y-10021150D02*
X5256244Y-10021150D01*
X5256244Y-10021150D02*
X5275291Y-10030674D01*
X5275291Y-10030674D02*
X5284815Y-10049722D01*
X5284815Y-10049722D02*
X5284815Y-10154484D01*
X5675291Y-9944960D02*
X5503863Y-10202103D01*
X5932434Y-9954484D02*
X5951482Y-9954484D01*
X5951482Y-9954484D02*
X5970529Y-9964008D01*
X5970529Y-9964008D02*
X5980053Y-9973531D01*
X5980053Y-9973531D02*
X5989577Y-9992579D01*
X5989577Y-9992579D02*
X5999101Y-10030674D01*
X5999101Y-10030674D02*
X5999101Y-10078293D01*
X5999101Y-10078293D02*
X5989577Y-10116389D01*
X5989577Y-10116389D02*
X5980053Y-10135436D01*
X5980053Y-10135436D02*
X5970529Y-10144960D01*
X5970529Y-10144960D02*
X5951482Y-10154484D01*
X5951482Y-10154484D02*
X5932434Y-10154484D01*
X5932434Y-10154484D02*
X5913386Y-10144960D01*
X5913386Y-10144960D02*
X5903863Y-10135436D01*
X5903863Y-10135436D02*
X5894339Y-10116389D01*
X5894339Y-10116389D02*
X5884815Y-10078293D01*
X5884815Y-10078293D02*
X5884815Y-10030674D01*
X5884815Y-10030674D02*
X5894339Y-9992579D01*
X5894339Y-9992579D02*
X5903863Y-9973531D01*
X5903863Y-9973531D02*
X5913386Y-9964008D01*
X5913386Y-9964008D02*
X5932434Y-9954484D01*
X6084815Y-10135436D02*
X6094339Y-10144960D01*
X6094339Y-10144960D02*
X6084815Y-10154484D01*
X6084815Y-10154484D02*
X6075291Y-10144960D01*
X6075291Y-10144960D02*
X6084815Y-10135436D01*
X6084815Y-10135436D02*
X6084815Y-10154484D01*
X6218148Y-9954484D02*
X6237196Y-9954484D01*
X6237196Y-9954484D02*
X6256244Y-9964008D01*
X6256244Y-9964008D02*
X6265767Y-9973531D01*
X6265767Y-9973531D02*
X6275291Y-9992579D01*
X6275291Y-9992579D02*
X6284815Y-10030674D01*
X6284815Y-10030674D02*
X6284815Y-10078293D01*
X6284815Y-10078293D02*
X6275291Y-10116389D01*
X6275291Y-10116389D02*
X6265767Y-10135436D01*
X6265767Y-10135436D02*
X6256244Y-10144960D01*
X6256244Y-10144960D02*
X6237196Y-10154484D01*
X6237196Y-10154484D02*
X6218148Y-10154484D01*
X6218148Y-10154484D02*
X6199101Y-10144960D01*
X6199101Y-10144960D02*
X6189577Y-10135436D01*
X6189577Y-10135436D02*
X6180053Y-10116389D01*
X6180053Y-10116389D02*
X6170529Y-10078293D01*
X6170529Y-10078293D02*
X6170529Y-10030674D01*
X6170529Y-10030674D02*
X6180053Y-9992579D01*
X6180053Y-9992579D02*
X6189577Y-9973531D01*
X6189577Y-9973531D02*
X6199101Y-9964008D01*
X6199101Y-9964008D02*
X6218148Y-9954484D01*
X6351482Y-9954484D02*
X6475291Y-9954484D01*
X6475291Y-9954484D02*
X6408625Y-10030674D01*
X6408625Y-10030674D02*
X6437196Y-10030674D01*
X6437196Y-10030674D02*
X6456244Y-10040198D01*
X6456244Y-10040198D02*
X6465767Y-10049722D01*
X6465767Y-10049722D02*
X6475291Y-10068770D01*
X6475291Y-10068770D02*
X6475291Y-10116389D01*
X6475291Y-10116389D02*
X6465767Y-10135436D01*
X6465767Y-10135436D02*
X6456244Y-10144960D01*
X6456244Y-10144960D02*
X6437196Y-10154484D01*
X6437196Y-10154484D02*
X6380053Y-10154484D01*
X6380053Y-10154484D02*
X6361006Y-10144960D01*
X6361006Y-10144960D02*
X6351482Y-10135436D01*
X6599101Y-9954484D02*
X6618148Y-9954484D01*
X6618148Y-9954484D02*
X6637196Y-9964008D01*
X6637196Y-9964008D02*
X6646720Y-9973531D01*
X6646720Y-9973531D02*
X6656244Y-9992579D01*
X6656244Y-9992579D02*
X6665767Y-10030674D01*
X6665767Y-10030674D02*
X6665767Y-10078293D01*
X6665767Y-10078293D02*
X6656244Y-10116389D01*
X6656244Y-10116389D02*
X6646720Y-10135436D01*
X6646720Y-10135436D02*
X6637196Y-10144960D01*
X6637196Y-10144960D02*
X6618148Y-10154484D01*
X6618148Y-10154484D02*
X6599101Y-10154484D01*
X6599101Y-10154484D02*
X6580053Y-10144960D01*
X6580053Y-10144960D02*
X6570529Y-10135436D01*
X6570529Y-10135436D02*
X6561006Y-10116389D01*
X6561006Y-10116389D02*
X6551482Y-10078293D01*
X6551482Y-10078293D02*
X6551482Y-10030674D01*
X6551482Y-10030674D02*
X6561006Y-9992579D01*
X6561006Y-9992579D02*
X6570529Y-9973531D01*
X6570529Y-9973531D02*
X6580053Y-9964008D01*
X6580053Y-9964008D02*
X6599101Y-9954484D01*
X6789577Y-9954484D02*
X6808625Y-9954484D01*
X6808625Y-9954484D02*
X6827672Y-9964008D01*
X6827672Y-9964008D02*
X6837196Y-9973531D01*
X6837196Y-9973531D02*
X6846720Y-9992579D01*
X6846720Y-9992579D02*
X6856244Y-10030674D01*
X6856244Y-10030674D02*
X6856244Y-10078293D01*
X6856244Y-10078293D02*
X6846720Y-10116389D01*
X6846720Y-10116389D02*
X6837196Y-10135436D01*
X6837196Y-10135436D02*
X6827672Y-10144960D01*
X6827672Y-10144960D02*
X6808625Y-10154484D01*
X6808625Y-10154484D02*
X6789577Y-10154484D01*
X6789577Y-10154484D02*
X6770529Y-10144960D01*
X6770529Y-10144960D02*
X6761006Y-10135436D01*
X6761006Y-10135436D02*
X6751482Y-10116389D01*
X6751482Y-10116389D02*
X6741958Y-10078293D01*
X6741958Y-10078293D02*
X6741958Y-10030674D01*
X6741958Y-10030674D02*
X6751482Y-9992579D01*
X6751482Y-9992579D02*
X6761006Y-9973531D01*
X6761006Y-9973531D02*
X6770529Y-9964008D01*
X6770529Y-9964008D02*
X6789577Y-9954484D01*
X6932434Y-9954484D02*
X6932434Y-9992579D01*
X7008625Y-9954484D02*
X7008625Y-9992579D01*
X7303863Y-10230674D02*
X7294339Y-10221150D01*
X7294339Y-10221150D02*
X7275291Y-10192579D01*
X7275291Y-10192579D02*
X7265768Y-10173531D01*
X7265768Y-10173531D02*
X7256244Y-10144960D01*
X7256244Y-10144960D02*
X7246720Y-10097341D01*
X7246720Y-10097341D02*
X7246720Y-10059246D01*
X7246720Y-10059246D02*
X7256244Y-10011627D01*
X7256244Y-10011627D02*
X7265768Y-9983055D01*
X7265768Y-9983055D02*
X7275291Y-9964008D01*
X7275291Y-9964008D02*
X7294339Y-9935436D01*
X7294339Y-9935436D02*
X7303863Y-9925912D01*
X7484815Y-10154484D02*
X7370529Y-10154484D01*
X7427672Y-10154484D02*
X7427672Y-9954484D01*
X7427672Y-9954484D02*
X7408625Y-9983055D01*
X7408625Y-9983055D02*
X7389577Y-10002103D01*
X7389577Y-10002103D02*
X7370529Y-10011627D01*
X7561006Y-9973531D02*
X7570529Y-9964008D01*
X7570529Y-9964008D02*
X7589577Y-9954484D01*
X7589577Y-9954484D02*
X7637196Y-9954484D01*
X7637196Y-9954484D02*
X7656244Y-9964008D01*
X7656244Y-9964008D02*
X7665768Y-9973531D01*
X7665768Y-9973531D02*
X7675291Y-9992579D01*
X7675291Y-9992579D02*
X7675291Y-10011627D01*
X7675291Y-10011627D02*
X7665768Y-10040198D01*
X7665768Y-10040198D02*
X7551482Y-10154484D01*
X7551482Y-10154484D02*
X7675291Y-10154484D01*
X7913387Y-10154484D02*
X7913387Y-9954484D01*
X7999101Y-10154484D02*
X7999101Y-10049722D01*
X7999101Y-10049722D02*
X7989577Y-10030674D01*
X7989577Y-10030674D02*
X7970530Y-10021150D01*
X7970530Y-10021150D02*
X7941958Y-10021150D01*
X7941958Y-10021150D02*
X7922910Y-10030674D01*
X7922910Y-10030674D02*
X7913387Y-10040198D01*
X8122910Y-10154484D02*
X8103863Y-10144960D01*
X8103863Y-10144960D02*
X8094339Y-10135436D01*
X8094339Y-10135436D02*
X8084815Y-10116389D01*
X8084815Y-10116389D02*
X8084815Y-10059246D01*
X8084815Y-10059246D02*
X8094339Y-10040198D01*
X8094339Y-10040198D02*
X8103863Y-10030674D01*
X8103863Y-10030674D02*
X8122910Y-10021150D01*
X8122910Y-10021150D02*
X8151482Y-10021150D01*
X8151482Y-10021150D02*
X8170530Y-10030674D01*
X8170530Y-10030674D02*
X8180053Y-10040198D01*
X8180053Y-10040198D02*
X8189577Y-10059246D01*
X8189577Y-10059246D02*
X8189577Y-10116389D01*
X8189577Y-10116389D02*
X8180053Y-10135436D01*
X8180053Y-10135436D02*
X8170530Y-10144960D01*
X8170530Y-10144960D02*
X8151482Y-10154484D01*
X8151482Y-10154484D02*
X8122910Y-10154484D01*
X8303863Y-10154484D02*
X8284815Y-10144960D01*
X8284815Y-10144960D02*
X8275291Y-10125912D01*
X8275291Y-10125912D02*
X8275291Y-9954484D01*
X8456244Y-10144960D02*
X8437196Y-10154484D01*
X8437196Y-10154484D02*
X8399101Y-10154484D01*
X8399101Y-10154484D02*
X8380053Y-10144960D01*
X8380053Y-10144960D02*
X8370530Y-10125912D01*
X8370530Y-10125912D02*
X8370530Y-10049722D01*
X8370530Y-10049722D02*
X8380053Y-10030674D01*
X8380053Y-10030674D02*
X8399101Y-10021150D01*
X8399101Y-10021150D02*
X8437196Y-10021150D01*
X8437196Y-10021150D02*
X8456244Y-10030674D01*
X8456244Y-10030674D02*
X8465768Y-10049722D01*
X8465768Y-10049722D02*
X8465768Y-10068770D01*
X8465768Y-10068770D02*
X8370530Y-10087817D01*
X8541958Y-10144960D02*
X8561006Y-10154484D01*
X8561006Y-10154484D02*
X8599101Y-10154484D01*
X8599101Y-10154484D02*
X8618149Y-10144960D01*
X8618149Y-10144960D02*
X8627673Y-10125912D01*
X8627673Y-10125912D02*
X8627673Y-10116389D01*
X8627673Y-10116389D02*
X8618149Y-10097341D01*
X8618149Y-10097341D02*
X8599101Y-10087817D01*
X8599101Y-10087817D02*
X8570530Y-10087817D01*
X8570530Y-10087817D02*
X8551482Y-10078293D01*
X8551482Y-10078293D02*
X8541958Y-10059246D01*
X8541958Y-10059246D02*
X8541958Y-10049722D01*
X8541958Y-10049722D02*
X8551482Y-10030674D01*
X8551482Y-10030674D02*
X8570530Y-10021150D01*
X8570530Y-10021150D02*
X8599101Y-10021150D01*
X8599101Y-10021150D02*
X8618149Y-10030674D01*
X8694339Y-10230674D02*
X8703863Y-10221150D01*
X8703863Y-10221150D02*
X8722911Y-10192579D01*
X8722911Y-10192579D02*
X8732434Y-10173531D01*
X8732434Y-10173531D02*
X8741958Y-10144960D01*
X8741958Y-10144960D02*
X8751482Y-10097341D01*
X8751482Y-10097341D02*
X8751482Y-10059246D01*
X8751482Y-10059246D02*
X8741958Y-10011627D01*
X8741958Y-10011627D02*
X8732434Y-9983055D01*
X8732434Y-9983055D02*
X8722911Y-9964008D01*
X8722911Y-9964008D02*
X8703863Y-9935436D01*
X8703863Y-9935436D02*
X8694339Y-9925912D01*
D10*
X3717084Y-10355285D02*
X3717084Y-10298716D01*
X3660515Y-10298716D01*
X3660515Y-10355285D01*
X3717084Y-10355285D01*
D11*
X4027672Y-10218484D02*
X4046720Y-10218484D01*
X4046720Y-10218484D02*
X4065767Y-10228008D01*
X4065767Y-10228008D02*
X4075291Y-10237531D01*
X4075291Y-10237531D02*
X4084815Y-10256579D01*
X4084815Y-10256579D02*
X4094339Y-10294674D01*
X4094339Y-10294674D02*
X4094339Y-10342293D01*
X4094339Y-10342293D02*
X4084815Y-10380389D01*
X4084815Y-10380389D02*
X4075291Y-10399436D01*
X4075291Y-10399436D02*
X4065767Y-10408960D01*
X4065767Y-10408960D02*
X4046720Y-10418484D01*
X4046720Y-10418484D02*
X4027672Y-10418484D01*
X4027672Y-10418484D02*
X4008624Y-10408960D01*
X4008624Y-10408960D02*
X3999101Y-10399436D01*
X3999101Y-10399436D02*
X3989577Y-10380389D01*
X3989577Y-10380389D02*
X3980053Y-10342293D01*
X3980053Y-10342293D02*
X3980053Y-10294674D01*
X3980053Y-10294674D02*
X3989577Y-10256579D01*
X3989577Y-10256579D02*
X3999101Y-10237531D01*
X3999101Y-10237531D02*
X4008624Y-10228008D01*
X4008624Y-10228008D02*
X4027672Y-10218484D01*
X4180053Y-10399436D02*
X4189577Y-10408960D01*
X4189577Y-10408960D02*
X4180053Y-10418484D01*
X4180053Y-10418484D02*
X4170529Y-10408960D01*
X4170529Y-10408960D02*
X4180053Y-10399436D01*
X4180053Y-10399436D02*
X4180053Y-10418484D01*
X4303863Y-10304198D02*
X4284815Y-10294674D01*
X4284815Y-10294674D02*
X4275291Y-10285150D01*
X4275291Y-10285150D02*
X4265767Y-10266103D01*
X4265767Y-10266103D02*
X4265767Y-10256579D01*
X4265767Y-10256579D02*
X4275291Y-10237531D01*
X4275291Y-10237531D02*
X4284815Y-10228008D01*
X4284815Y-10228008D02*
X4303863Y-10218484D01*
X4303863Y-10218484D02*
X4341958Y-10218484D01*
X4341958Y-10218484D02*
X4361005Y-10228008D01*
X4361005Y-10228008D02*
X4370529Y-10237531D01*
X4370529Y-10237531D02*
X4380053Y-10256579D01*
X4380053Y-10256579D02*
X4380053Y-10266103D01*
X4380053Y-10266103D02*
X4370529Y-10285150D01*
X4370529Y-10285150D02*
X4361005Y-10294674D01*
X4361005Y-10294674D02*
X4341958Y-10304198D01*
X4341958Y-10304198D02*
X4303863Y-10304198D01*
X4303863Y-10304198D02*
X4284815Y-10313722D01*
X4284815Y-10313722D02*
X4275291Y-10323246D01*
X4275291Y-10323246D02*
X4265767Y-10342293D01*
X4265767Y-10342293D02*
X4265767Y-10380389D01*
X4265767Y-10380389D02*
X4275291Y-10399436D01*
X4275291Y-10399436D02*
X4284815Y-10408960D01*
X4284815Y-10408960D02*
X4303863Y-10418484D01*
X4303863Y-10418484D02*
X4341958Y-10418484D01*
X4341958Y-10418484D02*
X4361005Y-10408960D01*
X4361005Y-10408960D02*
X4370529Y-10399436D01*
X4370529Y-10399436D02*
X4380053Y-10380389D01*
X4380053Y-10380389D02*
X4380053Y-10342293D01*
X4380053Y-10342293D02*
X4370529Y-10323246D01*
X4370529Y-10323246D02*
X4361005Y-10313722D01*
X4361005Y-10313722D02*
X4341958Y-10304198D01*
X4503863Y-10218484D02*
X4522910Y-10218484D01*
X4522910Y-10218484D02*
X4541958Y-10228008D01*
X4541958Y-10228008D02*
X4551482Y-10237531D01*
X4551482Y-10237531D02*
X4561005Y-10256579D01*
X4561005Y-10256579D02*
X4570529Y-10294674D01*
X4570529Y-10294674D02*
X4570529Y-10342293D01*
X4570529Y-10342293D02*
X4561005Y-10380389D01*
X4561005Y-10380389D02*
X4551482Y-10399436D01*
X4551482Y-10399436D02*
X4541958Y-10408960D01*
X4541958Y-10408960D02*
X4522910Y-10418484D01*
X4522910Y-10418484D02*
X4503863Y-10418484D01*
X4503863Y-10418484D02*
X4484815Y-10408960D01*
X4484815Y-10408960D02*
X4475291Y-10399436D01*
X4475291Y-10399436D02*
X4465767Y-10380389D01*
X4465767Y-10380389D02*
X4456244Y-10342293D01*
X4456244Y-10342293D02*
X4456244Y-10294674D01*
X4456244Y-10294674D02*
X4465767Y-10256579D01*
X4465767Y-10256579D02*
X4475291Y-10237531D01*
X4475291Y-10237531D02*
X4484815Y-10228008D01*
X4484815Y-10228008D02*
X4503863Y-10218484D01*
X4694339Y-10218484D02*
X4713386Y-10218484D01*
X4713386Y-10218484D02*
X4732434Y-10228008D01*
X4732434Y-10228008D02*
X4741958Y-10237531D01*
X4741958Y-10237531D02*
X4751482Y-10256579D01*
X4751482Y-10256579D02*
X4761005Y-10294674D01*
X4761005Y-10294674D02*
X4761005Y-10342293D01*
X4761005Y-10342293D02*
X4751482Y-10380389D01*
X4751482Y-10380389D02*
X4741958Y-10399436D01*
X4741958Y-10399436D02*
X4732434Y-10408960D01*
X4732434Y-10408960D02*
X4713386Y-10418484D01*
X4713386Y-10418484D02*
X4694339Y-10418484D01*
X4694339Y-10418484D02*
X4675291Y-10408960D01*
X4675291Y-10408960D02*
X4665767Y-10399436D01*
X4665767Y-10399436D02*
X4656244Y-10380389D01*
X4656244Y-10380389D02*
X4646720Y-10342293D01*
X4646720Y-10342293D02*
X4646720Y-10294674D01*
X4646720Y-10294674D02*
X4656244Y-10256579D01*
X4656244Y-10256579D02*
X4665767Y-10237531D01*
X4665767Y-10237531D02*
X4675291Y-10228008D01*
X4675291Y-10228008D02*
X4694339Y-10218484D01*
X4846720Y-10418484D02*
X4846720Y-10285150D01*
X4846720Y-10304198D02*
X4856244Y-10294674D01*
X4856244Y-10294674D02*
X4875291Y-10285150D01*
X4875291Y-10285150D02*
X4903863Y-10285150D01*
X4903863Y-10285150D02*
X4922910Y-10294674D01*
X4922910Y-10294674D02*
X4932434Y-10313722D01*
X4932434Y-10313722D02*
X4932434Y-10418484D01*
X4932434Y-10313722D02*
X4941958Y-10294674D01*
X4941958Y-10294674D02*
X4961005Y-10285150D01*
X4961005Y-10285150D02*
X4989577Y-10285150D01*
X4989577Y-10285150D02*
X5008625Y-10294674D01*
X5008625Y-10294674D02*
X5018148Y-10313722D01*
X5018148Y-10313722D02*
X5018148Y-10418484D01*
X5113386Y-10418484D02*
X5113386Y-10285150D01*
X5113386Y-10304198D02*
X5122910Y-10294674D01*
X5122910Y-10294674D02*
X5141958Y-10285150D01*
X5141958Y-10285150D02*
X5170529Y-10285150D01*
X5170529Y-10285150D02*
X5189577Y-10294674D01*
X5189577Y-10294674D02*
X5199101Y-10313722D01*
X5199101Y-10313722D02*
X5199101Y-10418484D01*
X5199101Y-10313722D02*
X5208625Y-10294674D01*
X5208625Y-10294674D02*
X5227672Y-10285150D01*
X5227672Y-10285150D02*
X5256244Y-10285150D01*
X5256244Y-10285150D02*
X5275291Y-10294674D01*
X5275291Y-10294674D02*
X5284815Y-10313722D01*
X5284815Y-10313722D02*
X5284815Y-10418484D01*
X5675291Y-10208960D02*
X5503863Y-10466103D01*
X5932434Y-10218484D02*
X5951482Y-10218484D01*
X5951482Y-10218484D02*
X5970529Y-10228008D01*
X5970529Y-10228008D02*
X5980053Y-10237531D01*
X5980053Y-10237531D02*
X5989577Y-10256579D01*
X5989577Y-10256579D02*
X5999101Y-10294674D01*
X5999101Y-10294674D02*
X5999101Y-10342293D01*
X5999101Y-10342293D02*
X5989577Y-10380389D01*
X5989577Y-10380389D02*
X5980053Y-10399436D01*
X5980053Y-10399436D02*
X5970529Y-10408960D01*
X5970529Y-10408960D02*
X5951482Y-10418484D01*
X5951482Y-10418484D02*
X5932434Y-10418484D01*
X5932434Y-10418484D02*
X5913386Y-10408960D01*
X5913386Y-10408960D02*
X5903863Y-10399436D01*
X5903863Y-10399436D02*
X5894339Y-10380389D01*
X5894339Y-10380389D02*
X5884815Y-10342293D01*
X5884815Y-10342293D02*
X5884815Y-10294674D01*
X5884815Y-10294674D02*
X5894339Y-10256579D01*
X5894339Y-10256579D02*
X5903863Y-10237531D01*
X5903863Y-10237531D02*
X5913386Y-10228008D01*
X5913386Y-10228008D02*
X5932434Y-10218484D01*
X6084815Y-10399436D02*
X6094339Y-10408960D01*
X6094339Y-10408960D02*
X6084815Y-10418484D01*
X6084815Y-10418484D02*
X6075291Y-10408960D01*
X6075291Y-10408960D02*
X6084815Y-10399436D01*
X6084815Y-10399436D02*
X6084815Y-10418484D01*
X6218148Y-10218484D02*
X6237196Y-10218484D01*
X6237196Y-10218484D02*
X6256244Y-10228008D01*
X6256244Y-10228008D02*
X6265767Y-10237531D01*
X6265767Y-10237531D02*
X6275291Y-10256579D01*
X6275291Y-10256579D02*
X6284815Y-10294674D01*
X6284815Y-10294674D02*
X6284815Y-10342293D01*
X6284815Y-10342293D02*
X6275291Y-10380389D01*
X6275291Y-10380389D02*
X6265767Y-10399436D01*
X6265767Y-10399436D02*
X6256244Y-10408960D01*
X6256244Y-10408960D02*
X6237196Y-10418484D01*
X6237196Y-10418484D02*
X6218148Y-10418484D01*
X6218148Y-10418484D02*
X6199101Y-10408960D01*
X6199101Y-10408960D02*
X6189577Y-10399436D01*
X6189577Y-10399436D02*
X6180053Y-10380389D01*
X6180053Y-10380389D02*
X6170529Y-10342293D01*
X6170529Y-10342293D02*
X6170529Y-10294674D01*
X6170529Y-10294674D02*
X6180053Y-10256579D01*
X6180053Y-10256579D02*
X6189577Y-10237531D01*
X6189577Y-10237531D02*
X6199101Y-10228008D01*
X6199101Y-10228008D02*
X6218148Y-10218484D01*
X6351482Y-10218484D02*
X6475291Y-10218484D01*
X6475291Y-10218484D02*
X6408625Y-10294674D01*
X6408625Y-10294674D02*
X6437196Y-10294674D01*
X6437196Y-10294674D02*
X6456244Y-10304198D01*
X6456244Y-10304198D02*
X6465767Y-10313722D01*
X6465767Y-10313722D02*
X6475291Y-10332770D01*
X6475291Y-10332770D02*
X6475291Y-10380389D01*
X6475291Y-10380389D02*
X6465767Y-10399436D01*
X6465767Y-10399436D02*
X6456244Y-10408960D01*
X6456244Y-10408960D02*
X6437196Y-10418484D01*
X6437196Y-10418484D02*
X6380053Y-10418484D01*
X6380053Y-10418484D02*
X6361006Y-10408960D01*
X6361006Y-10408960D02*
X6351482Y-10399436D01*
X6665767Y-10418484D02*
X6551482Y-10418484D01*
X6608625Y-10418484D02*
X6608625Y-10218484D01*
X6608625Y-10218484D02*
X6589577Y-10247055D01*
X6589577Y-10247055D02*
X6570529Y-10266103D01*
X6570529Y-10266103D02*
X6551482Y-10275627D01*
X6846720Y-10218484D02*
X6751482Y-10218484D01*
X6751482Y-10218484D02*
X6741958Y-10313722D01*
X6741958Y-10313722D02*
X6751482Y-10304198D01*
X6751482Y-10304198D02*
X6770529Y-10294674D01*
X6770529Y-10294674D02*
X6818148Y-10294674D01*
X6818148Y-10294674D02*
X6837196Y-10304198D01*
X6837196Y-10304198D02*
X6846720Y-10313722D01*
X6846720Y-10313722D02*
X6856244Y-10332770D01*
X6856244Y-10332770D02*
X6856244Y-10380389D01*
X6856244Y-10380389D02*
X6846720Y-10399436D01*
X6846720Y-10399436D02*
X6837196Y-10408960D01*
X6837196Y-10408960D02*
X6818148Y-10418484D01*
X6818148Y-10418484D02*
X6770529Y-10418484D01*
X6770529Y-10418484D02*
X6751482Y-10408960D01*
X6751482Y-10408960D02*
X6741958Y-10399436D01*
X6932434Y-10218484D02*
X6932434Y-10256579D01*
X7008625Y-10218484D02*
X7008625Y-10256579D01*
X7303863Y-10494674D02*
X7294339Y-10485150D01*
X7294339Y-10485150D02*
X7275291Y-10456579D01*
X7275291Y-10456579D02*
X7265768Y-10437531D01*
X7265768Y-10437531D02*
X7256244Y-10408960D01*
X7256244Y-10408960D02*
X7246720Y-10361341D01*
X7246720Y-10361341D02*
X7246720Y-10323246D01*
X7246720Y-10323246D02*
X7256244Y-10275627D01*
X7256244Y-10275627D02*
X7265768Y-10247055D01*
X7265768Y-10247055D02*
X7275291Y-10228008D01*
X7275291Y-10228008D02*
X7294339Y-10199436D01*
X7294339Y-10199436D02*
X7303863Y-10189912D01*
X7484815Y-10418484D02*
X7370529Y-10418484D01*
X7427672Y-10418484D02*
X7427672Y-10218484D01*
X7427672Y-10218484D02*
X7408625Y-10247055D01*
X7408625Y-10247055D02*
X7389577Y-10266103D01*
X7389577Y-10266103D02*
X7370529Y-10275627D01*
X7580053Y-10418484D02*
X7618148Y-10418484D01*
X7618148Y-10418484D02*
X7637196Y-10408960D01*
X7637196Y-10408960D02*
X7646720Y-10399436D01*
X7646720Y-10399436D02*
X7665768Y-10370865D01*
X7665768Y-10370865D02*
X7675291Y-10332770D01*
X7675291Y-10332770D02*
X7675291Y-10256579D01*
X7675291Y-10256579D02*
X7665768Y-10237531D01*
X7665768Y-10237531D02*
X7656244Y-10228008D01*
X7656244Y-10228008D02*
X7637196Y-10218484D01*
X7637196Y-10218484D02*
X7599101Y-10218484D01*
X7599101Y-10218484D02*
X7580053Y-10228008D01*
X7580053Y-10228008D02*
X7570529Y-10237531D01*
X7570529Y-10237531D02*
X7561006Y-10256579D01*
X7561006Y-10256579D02*
X7561006Y-10304198D01*
X7561006Y-10304198D02*
X7570529Y-10323246D01*
X7570529Y-10323246D02*
X7580053Y-10332770D01*
X7580053Y-10332770D02*
X7599101Y-10342293D01*
X7599101Y-10342293D02*
X7637196Y-10342293D01*
X7637196Y-10342293D02*
X7656244Y-10332770D01*
X7656244Y-10332770D02*
X7665768Y-10323246D01*
X7665768Y-10323246D02*
X7675291Y-10304198D01*
X7913387Y-10418484D02*
X7913387Y-10218484D01*
X7999101Y-10418484D02*
X7999101Y-10313722D01*
X7999101Y-10313722D02*
X7989577Y-10294674D01*
X7989577Y-10294674D02*
X7970530Y-10285150D01*
X7970530Y-10285150D02*
X7941958Y-10285150D01*
X7941958Y-10285150D02*
X7922910Y-10294674D01*
X7922910Y-10294674D02*
X7913387Y-10304198D01*
X8122910Y-10418484D02*
X8103863Y-10408960D01*
X8103863Y-10408960D02*
X8094339Y-10399436D01*
X8094339Y-10399436D02*
X8084815Y-10380389D01*
X8084815Y-10380389D02*
X8084815Y-10323246D01*
X8084815Y-10323246D02*
X8094339Y-10304198D01*
X8094339Y-10304198D02*
X8103863Y-10294674D01*
X8103863Y-10294674D02*
X8122910Y-10285150D01*
X8122910Y-10285150D02*
X8151482Y-10285150D01*
X8151482Y-10285150D02*
X8170530Y-10294674D01*
X8170530Y-10294674D02*
X8180053Y-10304198D01*
X8180053Y-10304198D02*
X8189577Y-10323246D01*
X8189577Y-10323246D02*
X8189577Y-10380389D01*
X8189577Y-10380389D02*
X8180053Y-10399436D01*
X8180053Y-10399436D02*
X8170530Y-10408960D01*
X8170530Y-10408960D02*
X8151482Y-10418484D01*
X8151482Y-10418484D02*
X8122910Y-10418484D01*
X8303863Y-10418484D02*
X8284815Y-10408960D01*
X8284815Y-10408960D02*
X8275291Y-10389912D01*
X8275291Y-10389912D02*
X8275291Y-10218484D01*
X8456244Y-10408960D02*
X8437196Y-10418484D01*
X8437196Y-10418484D02*
X8399101Y-10418484D01*
X8399101Y-10418484D02*
X8380053Y-10408960D01*
X8380053Y-10408960D02*
X8370530Y-10389912D01*
X8370530Y-10389912D02*
X8370530Y-10313722D01*
X8370530Y-10313722D02*
X8380053Y-10294674D01*
X8380053Y-10294674D02*
X8399101Y-10285150D01*
X8399101Y-10285150D02*
X8437196Y-10285150D01*
X8437196Y-10285150D02*
X8456244Y-10294674D01*
X8456244Y-10294674D02*
X8465768Y-10313722D01*
X8465768Y-10313722D02*
X8465768Y-10332770D01*
X8465768Y-10332770D02*
X8370530Y-10351817D01*
X8541958Y-10408960D02*
X8561006Y-10418484D01*
X8561006Y-10418484D02*
X8599101Y-10418484D01*
X8599101Y-10418484D02*
X8618149Y-10408960D01*
X8618149Y-10408960D02*
X8627673Y-10389912D01*
X8627673Y-10389912D02*
X8627673Y-10380389D01*
X8627673Y-10380389D02*
X8618149Y-10361341D01*
X8618149Y-10361341D02*
X8599101Y-10351817D01*
X8599101Y-10351817D02*
X8570530Y-10351817D01*
X8570530Y-10351817D02*
X8551482Y-10342293D01*
X8551482Y-10342293D02*
X8541958Y-10323246D01*
X8541958Y-10323246D02*
X8541958Y-10313722D01*
X8541958Y-10313722D02*
X8551482Y-10294674D01*
X8551482Y-10294674D02*
X8570530Y-10285150D01*
X8570530Y-10285150D02*
X8599101Y-10285150D01*
X8599101Y-10285150D02*
X8618149Y-10294674D01*
X8694339Y-10494674D02*
X8703863Y-10485150D01*
X8703863Y-10485150D02*
X8722911Y-10456579D01*
X8722911Y-10456579D02*
X8732434Y-10437531D01*
X8732434Y-10437531D02*
X8741958Y-10408960D01*
X8741958Y-10408960D02*
X8751482Y-10361341D01*
X8751482Y-10361341D02*
X8751482Y-10323246D01*
X8751482Y-10323246D02*
X8741958Y-10275627D01*
X8741958Y-10275627D02*
X8732434Y-10247055D01*
X8732434Y-10247055D02*
X8722911Y-10228008D01*
X8722911Y-10228008D02*
X8703863Y-10199436D01*
X8703863Y-10199436D02*
X8694339Y-10189912D01*
D10*
X3679270Y-10640530D02*
X3728800Y-10591000D01*
X3679270Y-10541470D01*
X3629740Y-10591000D01*
X3679270Y-10640530D01*
D11*
X4027672Y-10482484D02*
X4046720Y-10482484D01*
X4046720Y-10482484D02*
X4065767Y-10492008D01*
X4065767Y-10492008D02*
X4075291Y-10501531D01*
X4075291Y-10501531D02*
X4084815Y-10520579D01*
X4084815Y-10520579D02*
X4094339Y-10558674D01*
X4094339Y-10558674D02*
X4094339Y-10606293D01*
X4094339Y-10606293D02*
X4084815Y-10644389D01*
X4084815Y-10644389D02*
X4075291Y-10663436D01*
X4075291Y-10663436D02*
X4065767Y-10672960D01*
X4065767Y-10672960D02*
X4046720Y-10682484D01*
X4046720Y-10682484D02*
X4027672Y-10682484D01*
X4027672Y-10682484D02*
X4008624Y-10672960D01*
X4008624Y-10672960D02*
X3999101Y-10663436D01*
X3999101Y-10663436D02*
X3989577Y-10644389D01*
X3989577Y-10644389D02*
X3980053Y-10606293D01*
X3980053Y-10606293D02*
X3980053Y-10558674D01*
X3980053Y-10558674D02*
X3989577Y-10520579D01*
X3989577Y-10520579D02*
X3999101Y-10501531D01*
X3999101Y-10501531D02*
X4008624Y-10492008D01*
X4008624Y-10492008D02*
X4027672Y-10482484D01*
X4180053Y-10663436D02*
X4189577Y-10672960D01*
X4189577Y-10672960D02*
X4180053Y-10682484D01*
X4180053Y-10682484D02*
X4170529Y-10672960D01*
X4170529Y-10672960D02*
X4180053Y-10663436D01*
X4180053Y-10663436D02*
X4180053Y-10682484D01*
X4284815Y-10682484D02*
X4322910Y-10682484D01*
X4322910Y-10682484D02*
X4341958Y-10672960D01*
X4341958Y-10672960D02*
X4351482Y-10663436D01*
X4351482Y-10663436D02*
X4370529Y-10634865D01*
X4370529Y-10634865D02*
X4380053Y-10596770D01*
X4380053Y-10596770D02*
X4380053Y-10520579D01*
X4380053Y-10520579D02*
X4370529Y-10501531D01*
X4370529Y-10501531D02*
X4361005Y-10492008D01*
X4361005Y-10492008D02*
X4341958Y-10482484D01*
X4341958Y-10482484D02*
X4303863Y-10482484D01*
X4303863Y-10482484D02*
X4284815Y-10492008D01*
X4284815Y-10492008D02*
X4275291Y-10501531D01*
X4275291Y-10501531D02*
X4265767Y-10520579D01*
X4265767Y-10520579D02*
X4265767Y-10568198D01*
X4265767Y-10568198D02*
X4275291Y-10587246D01*
X4275291Y-10587246D02*
X4284815Y-10596770D01*
X4284815Y-10596770D02*
X4303863Y-10606293D01*
X4303863Y-10606293D02*
X4341958Y-10606293D01*
X4341958Y-10606293D02*
X4361005Y-10596770D01*
X4361005Y-10596770D02*
X4370529Y-10587246D01*
X4370529Y-10587246D02*
X4380053Y-10568198D01*
X4475291Y-10682484D02*
X4513386Y-10682484D01*
X4513386Y-10682484D02*
X4532434Y-10672960D01*
X4532434Y-10672960D02*
X4541958Y-10663436D01*
X4541958Y-10663436D02*
X4561005Y-10634865D01*
X4561005Y-10634865D02*
X4570529Y-10596770D01*
X4570529Y-10596770D02*
X4570529Y-10520579D01*
X4570529Y-10520579D02*
X4561005Y-10501531D01*
X4561005Y-10501531D02*
X4551482Y-10492008D01*
X4551482Y-10492008D02*
X4532434Y-10482484D01*
X4532434Y-10482484D02*
X4494339Y-10482484D01*
X4494339Y-10482484D02*
X4475291Y-10492008D01*
X4475291Y-10492008D02*
X4465767Y-10501531D01*
X4465767Y-10501531D02*
X4456244Y-10520579D01*
X4456244Y-10520579D02*
X4456244Y-10568198D01*
X4456244Y-10568198D02*
X4465767Y-10587246D01*
X4465767Y-10587246D02*
X4475291Y-10596770D01*
X4475291Y-10596770D02*
X4494339Y-10606293D01*
X4494339Y-10606293D02*
X4532434Y-10606293D01*
X4532434Y-10606293D02*
X4551482Y-10596770D01*
X4551482Y-10596770D02*
X4561005Y-10587246D01*
X4561005Y-10587246D02*
X4570529Y-10568198D01*
X4761005Y-10682484D02*
X4646720Y-10682484D01*
X4703863Y-10682484D02*
X4703863Y-10482484D01*
X4703863Y-10482484D02*
X4684815Y-10511055D01*
X4684815Y-10511055D02*
X4665767Y-10530103D01*
X4665767Y-10530103D02*
X4646720Y-10539627D01*
X4846720Y-10682484D02*
X4846720Y-10549150D01*
X4846720Y-10568198D02*
X4856244Y-10558674D01*
X4856244Y-10558674D02*
X4875291Y-10549150D01*
X4875291Y-10549150D02*
X4903863Y-10549150D01*
X4903863Y-10549150D02*
X4922910Y-10558674D01*
X4922910Y-10558674D02*
X4932434Y-10577722D01*
X4932434Y-10577722D02*
X4932434Y-10682484D01*
X4932434Y-10577722D02*
X4941958Y-10558674D01*
X4941958Y-10558674D02*
X4961005Y-10549150D01*
X4961005Y-10549150D02*
X4989577Y-10549150D01*
X4989577Y-10549150D02*
X5008625Y-10558674D01*
X5008625Y-10558674D02*
X5018148Y-10577722D01*
X5018148Y-10577722D02*
X5018148Y-10682484D01*
X5113386Y-10682484D02*
X5113386Y-10549150D01*
X5113386Y-10568198D02*
X5122910Y-10558674D01*
X5122910Y-10558674D02*
X5141958Y-10549150D01*
X5141958Y-10549150D02*
X5170529Y-10549150D01*
X5170529Y-10549150D02*
X5189577Y-10558674D01*
X5189577Y-10558674D02*
X5199101Y-10577722D01*
X5199101Y-10577722D02*
X5199101Y-10682484D01*
X5199101Y-10577722D02*
X5208625Y-10558674D01*
X5208625Y-10558674D02*
X5227672Y-10549150D01*
X5227672Y-10549150D02*
X5256244Y-10549150D01*
X5256244Y-10549150D02*
X5275291Y-10558674D01*
X5275291Y-10558674D02*
X5284815Y-10577722D01*
X5284815Y-10577722D02*
X5284815Y-10682484D01*
X5675291Y-10472960D02*
X5503863Y-10730103D01*
X5932434Y-10482484D02*
X5951482Y-10482484D01*
X5951482Y-10482484D02*
X5970529Y-10492008D01*
X5970529Y-10492008D02*
X5980053Y-10501531D01*
X5980053Y-10501531D02*
X5989577Y-10520579D01*
X5989577Y-10520579D02*
X5999101Y-10558674D01*
X5999101Y-10558674D02*
X5999101Y-10606293D01*
X5999101Y-10606293D02*
X5989577Y-10644389D01*
X5989577Y-10644389D02*
X5980053Y-10663436D01*
X5980053Y-10663436D02*
X5970529Y-10672960D01*
X5970529Y-10672960D02*
X5951482Y-10682484D01*
X5951482Y-10682484D02*
X5932434Y-10682484D01*
X5932434Y-10682484D02*
X5913386Y-10672960D01*
X5913386Y-10672960D02*
X5903863Y-10663436D01*
X5903863Y-10663436D02*
X5894339Y-10644389D01*
X5894339Y-10644389D02*
X5884815Y-10606293D01*
X5884815Y-10606293D02*
X5884815Y-10558674D01*
X5884815Y-10558674D02*
X5894339Y-10520579D01*
X5894339Y-10520579D02*
X5903863Y-10501531D01*
X5903863Y-10501531D02*
X5913386Y-10492008D01*
X5913386Y-10492008D02*
X5932434Y-10482484D01*
X6084815Y-10663436D02*
X6094339Y-10672960D01*
X6094339Y-10672960D02*
X6084815Y-10682484D01*
X6084815Y-10682484D02*
X6075291Y-10672960D01*
X6075291Y-10672960D02*
X6084815Y-10663436D01*
X6084815Y-10663436D02*
X6084815Y-10682484D01*
X6218148Y-10482484D02*
X6237196Y-10482484D01*
X6237196Y-10482484D02*
X6256244Y-10492008D01*
X6256244Y-10492008D02*
X6265767Y-10501531D01*
X6265767Y-10501531D02*
X6275291Y-10520579D01*
X6275291Y-10520579D02*
X6284815Y-10558674D01*
X6284815Y-10558674D02*
X6284815Y-10606293D01*
X6284815Y-10606293D02*
X6275291Y-10644389D01*
X6275291Y-10644389D02*
X6265767Y-10663436D01*
X6265767Y-10663436D02*
X6256244Y-10672960D01*
X6256244Y-10672960D02*
X6237196Y-10682484D01*
X6237196Y-10682484D02*
X6218148Y-10682484D01*
X6218148Y-10682484D02*
X6199101Y-10672960D01*
X6199101Y-10672960D02*
X6189577Y-10663436D01*
X6189577Y-10663436D02*
X6180053Y-10644389D01*
X6180053Y-10644389D02*
X6170529Y-10606293D01*
X6170529Y-10606293D02*
X6170529Y-10558674D01*
X6170529Y-10558674D02*
X6180053Y-10520579D01*
X6180053Y-10520579D02*
X6189577Y-10501531D01*
X6189577Y-10501531D02*
X6199101Y-10492008D01*
X6199101Y-10492008D02*
X6218148Y-10482484D01*
X6351482Y-10482484D02*
X6475291Y-10482484D01*
X6475291Y-10482484D02*
X6408625Y-10558674D01*
X6408625Y-10558674D02*
X6437196Y-10558674D01*
X6437196Y-10558674D02*
X6456244Y-10568198D01*
X6456244Y-10568198D02*
X6465767Y-10577722D01*
X6465767Y-10577722D02*
X6475291Y-10596770D01*
X6475291Y-10596770D02*
X6475291Y-10644389D01*
X6475291Y-10644389D02*
X6465767Y-10663436D01*
X6465767Y-10663436D02*
X6456244Y-10672960D01*
X6456244Y-10672960D02*
X6437196Y-10682484D01*
X6437196Y-10682484D02*
X6380053Y-10682484D01*
X6380053Y-10682484D02*
X6361006Y-10672960D01*
X6361006Y-10672960D02*
X6351482Y-10663436D01*
X6570529Y-10682484D02*
X6608625Y-10682484D01*
X6608625Y-10682484D02*
X6627672Y-10672960D01*
X6627672Y-10672960D02*
X6637196Y-10663436D01*
X6637196Y-10663436D02*
X6656244Y-10634865D01*
X6656244Y-10634865D02*
X6665767Y-10596770D01*
X6665767Y-10596770D02*
X6665767Y-10520579D01*
X6665767Y-10520579D02*
X6656244Y-10501531D01*
X6656244Y-10501531D02*
X6646720Y-10492008D01*
X6646720Y-10492008D02*
X6627672Y-10482484D01*
X6627672Y-10482484D02*
X6589577Y-10482484D01*
X6589577Y-10482484D02*
X6570529Y-10492008D01*
X6570529Y-10492008D02*
X6561006Y-10501531D01*
X6561006Y-10501531D02*
X6551482Y-10520579D01*
X6551482Y-10520579D02*
X6551482Y-10568198D01*
X6551482Y-10568198D02*
X6561006Y-10587246D01*
X6561006Y-10587246D02*
X6570529Y-10596770D01*
X6570529Y-10596770D02*
X6589577Y-10606293D01*
X6589577Y-10606293D02*
X6627672Y-10606293D01*
X6627672Y-10606293D02*
X6646720Y-10596770D01*
X6646720Y-10596770D02*
X6656244Y-10587246D01*
X6656244Y-10587246D02*
X6665767Y-10568198D01*
X6789577Y-10482484D02*
X6808625Y-10482484D01*
X6808625Y-10482484D02*
X6827672Y-10492008D01*
X6827672Y-10492008D02*
X6837196Y-10501531D01*
X6837196Y-10501531D02*
X6846720Y-10520579D01*
X6846720Y-10520579D02*
X6856244Y-10558674D01*
X6856244Y-10558674D02*
X6856244Y-10606293D01*
X6856244Y-10606293D02*
X6846720Y-10644389D01*
X6846720Y-10644389D02*
X6837196Y-10663436D01*
X6837196Y-10663436D02*
X6827672Y-10672960D01*
X6827672Y-10672960D02*
X6808625Y-10682484D01*
X6808625Y-10682484D02*
X6789577Y-10682484D01*
X6789577Y-10682484D02*
X6770529Y-10672960D01*
X6770529Y-10672960D02*
X6761006Y-10663436D01*
X6761006Y-10663436D02*
X6751482Y-10644389D01*
X6751482Y-10644389D02*
X6741958Y-10606293D01*
X6741958Y-10606293D02*
X6741958Y-10558674D01*
X6741958Y-10558674D02*
X6751482Y-10520579D01*
X6751482Y-10520579D02*
X6761006Y-10501531D01*
X6761006Y-10501531D02*
X6770529Y-10492008D01*
X6770529Y-10492008D02*
X6789577Y-10482484D01*
X6932434Y-10482484D02*
X6932434Y-10520579D01*
X7008625Y-10482484D02*
X7008625Y-10520579D01*
X7303863Y-10758674D02*
X7294339Y-10749150D01*
X7294339Y-10749150D02*
X7275291Y-10720579D01*
X7275291Y-10720579D02*
X7265768Y-10701531D01*
X7265768Y-10701531D02*
X7256244Y-10672960D01*
X7256244Y-10672960D02*
X7246720Y-10625341D01*
X7246720Y-10625341D02*
X7246720Y-10587246D01*
X7246720Y-10587246D02*
X7256244Y-10539627D01*
X7256244Y-10539627D02*
X7265768Y-10511055D01*
X7265768Y-10511055D02*
X7275291Y-10492008D01*
X7275291Y-10492008D02*
X7294339Y-10463436D01*
X7294339Y-10463436D02*
X7303863Y-10453912D01*
X7370529Y-10501531D02*
X7380053Y-10492008D01*
X7380053Y-10492008D02*
X7399101Y-10482484D01*
X7399101Y-10482484D02*
X7446720Y-10482484D01*
X7446720Y-10482484D02*
X7465768Y-10492008D01*
X7465768Y-10492008D02*
X7475291Y-10501531D01*
X7475291Y-10501531D02*
X7484815Y-10520579D01*
X7484815Y-10520579D02*
X7484815Y-10539627D01*
X7484815Y-10539627D02*
X7475291Y-10568198D01*
X7475291Y-10568198D02*
X7361006Y-10682484D01*
X7361006Y-10682484D02*
X7484815Y-10682484D01*
X7722910Y-10682484D02*
X7722910Y-10482484D01*
X7808625Y-10682484D02*
X7808625Y-10577722D01*
X7808625Y-10577722D02*
X7799101Y-10558674D01*
X7799101Y-10558674D02*
X7780053Y-10549150D01*
X7780053Y-10549150D02*
X7751482Y-10549150D01*
X7751482Y-10549150D02*
X7732434Y-10558674D01*
X7732434Y-10558674D02*
X7722910Y-10568198D01*
X7932434Y-10682484D02*
X7913387Y-10672960D01*
X7913387Y-10672960D02*
X7903863Y-10663436D01*
X7903863Y-10663436D02*
X7894339Y-10644389D01*
X7894339Y-10644389D02*
X7894339Y-10587246D01*
X7894339Y-10587246D02*
X7903863Y-10568198D01*
X7903863Y-10568198D02*
X7913387Y-10558674D01*
X7913387Y-10558674D02*
X7932434Y-10549150D01*
X7932434Y-10549150D02*
X7961006Y-10549150D01*
X7961006Y-10549150D02*
X7980053Y-10558674D01*
X7980053Y-10558674D02*
X7989577Y-10568198D01*
X7989577Y-10568198D02*
X7999101Y-10587246D01*
X7999101Y-10587246D02*
X7999101Y-10644389D01*
X7999101Y-10644389D02*
X7989577Y-10663436D01*
X7989577Y-10663436D02*
X7980053Y-10672960D01*
X7980053Y-10672960D02*
X7961006Y-10682484D01*
X7961006Y-10682484D02*
X7932434Y-10682484D01*
X8113387Y-10682484D02*
X8094339Y-10672960D01*
X8094339Y-10672960D02*
X8084815Y-10653912D01*
X8084815Y-10653912D02*
X8084815Y-10482484D01*
X8265768Y-10672960D02*
X8246720Y-10682484D01*
X8246720Y-10682484D02*
X8208625Y-10682484D01*
X8208625Y-10682484D02*
X8189577Y-10672960D01*
X8189577Y-10672960D02*
X8180053Y-10653912D01*
X8180053Y-10653912D02*
X8180053Y-10577722D01*
X8180053Y-10577722D02*
X8189577Y-10558674D01*
X8189577Y-10558674D02*
X8208625Y-10549150D01*
X8208625Y-10549150D02*
X8246720Y-10549150D01*
X8246720Y-10549150D02*
X8265768Y-10558674D01*
X8265768Y-10558674D02*
X8275291Y-10577722D01*
X8275291Y-10577722D02*
X8275291Y-10596770D01*
X8275291Y-10596770D02*
X8180053Y-10615817D01*
X8351482Y-10672960D02*
X8370530Y-10682484D01*
X8370530Y-10682484D02*
X8408625Y-10682484D01*
X8408625Y-10682484D02*
X8427673Y-10672960D01*
X8427673Y-10672960D02*
X8437196Y-10653912D01*
X8437196Y-10653912D02*
X8437196Y-10644389D01*
X8437196Y-10644389D02*
X8427673Y-10625341D01*
X8427673Y-10625341D02*
X8408625Y-10615817D01*
X8408625Y-10615817D02*
X8380053Y-10615817D01*
X8380053Y-10615817D02*
X8361006Y-10606293D01*
X8361006Y-10606293D02*
X8351482Y-10587246D01*
X8351482Y-10587246D02*
X8351482Y-10577722D01*
X8351482Y-10577722D02*
X8361006Y-10558674D01*
X8361006Y-10558674D02*
X8380053Y-10549150D01*
X8380053Y-10549150D02*
X8408625Y-10549150D01*
X8408625Y-10549150D02*
X8427673Y-10558674D01*
X8503863Y-10758674D02*
X8513387Y-10749150D01*
X8513387Y-10749150D02*
X8532434Y-10720579D01*
X8532434Y-10720579D02*
X8541958Y-10701531D01*
X8541958Y-10701531D02*
X8551482Y-10672960D01*
X8551482Y-10672960D02*
X8561006Y-10625341D01*
X8561006Y-10625341D02*
X8561006Y-10587246D01*
X8561006Y-10587246D02*
X8551482Y-10539627D01*
X8551482Y-10539627D02*
X8541958Y-10511055D01*
X8541958Y-10511055D02*
X8532434Y-10492008D01*
X8532434Y-10492008D02*
X8513387Y-10463436D01*
X8513387Y-10463436D02*
X8503863Y-10453912D01*
D10*
X3628800Y-10805000D02*
X3728800Y-10905000D01*
X3728800Y-10805000D02*
X3628800Y-10905000D01*
X3728800Y-10855000D02*
G75*
G03*
X3628800Y-10855000I-50000J0D01*
G01*
X3628800Y-10855000D02*
G75*
G03*
X3728800Y-10855000I50000J0D01*
G01*
D11*
X4094339Y-10946484D02*
X3980053Y-10946484D01*
X4037196Y-10946484D02*
X4037196Y-10746484D01*
X4037196Y-10746484D02*
X4018148Y-10775055D01*
X4018148Y-10775055D02*
X3999101Y-10794103D01*
X3999101Y-10794103D02*
X3980053Y-10803627D01*
X4180053Y-10927436D02*
X4189577Y-10936960D01*
X4189577Y-10936960D02*
X4180053Y-10946484D01*
X4180053Y-10946484D02*
X4170529Y-10936960D01*
X4170529Y-10936960D02*
X4180053Y-10927436D01*
X4180053Y-10927436D02*
X4180053Y-10946484D01*
X4313386Y-10746484D02*
X4332434Y-10746484D01*
X4332434Y-10746484D02*
X4351482Y-10756008D01*
X4351482Y-10756008D02*
X4361005Y-10765531D01*
X4361005Y-10765531D02*
X4370529Y-10784579D01*
X4370529Y-10784579D02*
X4380053Y-10822674D01*
X4380053Y-10822674D02*
X4380053Y-10870293D01*
X4380053Y-10870293D02*
X4370529Y-10908389D01*
X4370529Y-10908389D02*
X4361005Y-10927436D01*
X4361005Y-10927436D02*
X4351482Y-10936960D01*
X4351482Y-10936960D02*
X4332434Y-10946484D01*
X4332434Y-10946484D02*
X4313386Y-10946484D01*
X4313386Y-10946484D02*
X4294339Y-10936960D01*
X4294339Y-10936960D02*
X4284815Y-10927436D01*
X4284815Y-10927436D02*
X4275291Y-10908389D01*
X4275291Y-10908389D02*
X4265767Y-10870293D01*
X4265767Y-10870293D02*
X4265767Y-10822674D01*
X4265767Y-10822674D02*
X4275291Y-10784579D01*
X4275291Y-10784579D02*
X4284815Y-10765531D01*
X4284815Y-10765531D02*
X4294339Y-10756008D01*
X4294339Y-10756008D02*
X4313386Y-10746484D01*
X4503863Y-10746484D02*
X4522910Y-10746484D01*
X4522910Y-10746484D02*
X4541958Y-10756008D01*
X4541958Y-10756008D02*
X4551482Y-10765531D01*
X4551482Y-10765531D02*
X4561005Y-10784579D01*
X4561005Y-10784579D02*
X4570529Y-10822674D01*
X4570529Y-10822674D02*
X4570529Y-10870293D01*
X4570529Y-10870293D02*
X4561005Y-10908389D01*
X4561005Y-10908389D02*
X4551482Y-10927436D01*
X4551482Y-10927436D02*
X4541958Y-10936960D01*
X4541958Y-10936960D02*
X4522910Y-10946484D01*
X4522910Y-10946484D02*
X4503863Y-10946484D01*
X4503863Y-10946484D02*
X4484815Y-10936960D01*
X4484815Y-10936960D02*
X4475291Y-10927436D01*
X4475291Y-10927436D02*
X4465767Y-10908389D01*
X4465767Y-10908389D02*
X4456244Y-10870293D01*
X4456244Y-10870293D02*
X4456244Y-10822674D01*
X4456244Y-10822674D02*
X4465767Y-10784579D01*
X4465767Y-10784579D02*
X4475291Y-10765531D01*
X4475291Y-10765531D02*
X4484815Y-10756008D01*
X4484815Y-10756008D02*
X4503863Y-10746484D01*
X4694339Y-10746484D02*
X4713386Y-10746484D01*
X4713386Y-10746484D02*
X4732434Y-10756008D01*
X4732434Y-10756008D02*
X4741958Y-10765531D01*
X4741958Y-10765531D02*
X4751482Y-10784579D01*
X4751482Y-10784579D02*
X4761005Y-10822674D01*
X4761005Y-10822674D02*
X4761005Y-10870293D01*
X4761005Y-10870293D02*
X4751482Y-10908389D01*
X4751482Y-10908389D02*
X4741958Y-10927436D01*
X4741958Y-10927436D02*
X4732434Y-10936960D01*
X4732434Y-10936960D02*
X4713386Y-10946484D01*
X4713386Y-10946484D02*
X4694339Y-10946484D01*
X4694339Y-10946484D02*
X4675291Y-10936960D01*
X4675291Y-10936960D02*
X4665767Y-10927436D01*
X4665767Y-10927436D02*
X4656244Y-10908389D01*
X4656244Y-10908389D02*
X4646720Y-10870293D01*
X4646720Y-10870293D02*
X4646720Y-10822674D01*
X4646720Y-10822674D02*
X4656244Y-10784579D01*
X4656244Y-10784579D02*
X4665767Y-10765531D01*
X4665767Y-10765531D02*
X4675291Y-10756008D01*
X4675291Y-10756008D02*
X4694339Y-10746484D01*
X4846720Y-10946484D02*
X4846720Y-10813150D01*
X4846720Y-10832198D02*
X4856244Y-10822674D01*
X4856244Y-10822674D02*
X4875291Y-10813150D01*
X4875291Y-10813150D02*
X4903863Y-10813150D01*
X4903863Y-10813150D02*
X4922910Y-10822674D01*
X4922910Y-10822674D02*
X4932434Y-10841722D01*
X4932434Y-10841722D02*
X4932434Y-10946484D01*
X4932434Y-10841722D02*
X4941958Y-10822674D01*
X4941958Y-10822674D02*
X4961005Y-10813150D01*
X4961005Y-10813150D02*
X4989577Y-10813150D01*
X4989577Y-10813150D02*
X5008625Y-10822674D01*
X5008625Y-10822674D02*
X5018148Y-10841722D01*
X5018148Y-10841722D02*
X5018148Y-10946484D01*
X5113386Y-10946484D02*
X5113386Y-10813150D01*
X5113386Y-10832198D02*
X5122910Y-10822674D01*
X5122910Y-10822674D02*
X5141958Y-10813150D01*
X5141958Y-10813150D02*
X5170529Y-10813150D01*
X5170529Y-10813150D02*
X5189577Y-10822674D01*
X5189577Y-10822674D02*
X5199101Y-10841722D01*
X5199101Y-10841722D02*
X5199101Y-10946484D01*
X5199101Y-10841722D02*
X5208625Y-10822674D01*
X5208625Y-10822674D02*
X5227672Y-10813150D01*
X5227672Y-10813150D02*
X5256244Y-10813150D01*
X5256244Y-10813150D02*
X5275291Y-10822674D01*
X5275291Y-10822674D02*
X5284815Y-10841722D01*
X5284815Y-10841722D02*
X5284815Y-10946484D01*
X5675291Y-10736960D02*
X5503863Y-10994103D01*
X5932434Y-10746484D02*
X5951482Y-10746484D01*
X5951482Y-10746484D02*
X5970529Y-10756008D01*
X5970529Y-10756008D02*
X5980053Y-10765531D01*
X5980053Y-10765531D02*
X5989577Y-10784579D01*
X5989577Y-10784579D02*
X5999101Y-10822674D01*
X5999101Y-10822674D02*
X5999101Y-10870293D01*
X5999101Y-10870293D02*
X5989577Y-10908389D01*
X5989577Y-10908389D02*
X5980053Y-10927436D01*
X5980053Y-10927436D02*
X5970529Y-10936960D01*
X5970529Y-10936960D02*
X5951482Y-10946484D01*
X5951482Y-10946484D02*
X5932434Y-10946484D01*
X5932434Y-10946484D02*
X5913386Y-10936960D01*
X5913386Y-10936960D02*
X5903863Y-10927436D01*
X5903863Y-10927436D02*
X5894339Y-10908389D01*
X5894339Y-10908389D02*
X5884815Y-10870293D01*
X5884815Y-10870293D02*
X5884815Y-10822674D01*
X5884815Y-10822674D02*
X5894339Y-10784579D01*
X5894339Y-10784579D02*
X5903863Y-10765531D01*
X5903863Y-10765531D02*
X5913386Y-10756008D01*
X5913386Y-10756008D02*
X5932434Y-10746484D01*
X6084815Y-10927436D02*
X6094339Y-10936960D01*
X6094339Y-10936960D02*
X6084815Y-10946484D01*
X6084815Y-10946484D02*
X6075291Y-10936960D01*
X6075291Y-10936960D02*
X6084815Y-10927436D01*
X6084815Y-10927436D02*
X6084815Y-10946484D01*
X6218148Y-10746484D02*
X6237196Y-10746484D01*
X6237196Y-10746484D02*
X6256244Y-10756008D01*
X6256244Y-10756008D02*
X6265767Y-10765531D01*
X6265767Y-10765531D02*
X6275291Y-10784579D01*
X6275291Y-10784579D02*
X6284815Y-10822674D01*
X6284815Y-10822674D02*
X6284815Y-10870293D01*
X6284815Y-10870293D02*
X6275291Y-10908389D01*
X6275291Y-10908389D02*
X6265767Y-10927436D01*
X6265767Y-10927436D02*
X6256244Y-10936960D01*
X6256244Y-10936960D02*
X6237196Y-10946484D01*
X6237196Y-10946484D02*
X6218148Y-10946484D01*
X6218148Y-10946484D02*
X6199101Y-10936960D01*
X6199101Y-10936960D02*
X6189577Y-10927436D01*
X6189577Y-10927436D02*
X6180053Y-10908389D01*
X6180053Y-10908389D02*
X6170529Y-10870293D01*
X6170529Y-10870293D02*
X6170529Y-10822674D01*
X6170529Y-10822674D02*
X6180053Y-10784579D01*
X6180053Y-10784579D02*
X6189577Y-10765531D01*
X6189577Y-10765531D02*
X6199101Y-10756008D01*
X6199101Y-10756008D02*
X6218148Y-10746484D01*
X6351482Y-10746484D02*
X6475291Y-10746484D01*
X6475291Y-10746484D02*
X6408625Y-10822674D01*
X6408625Y-10822674D02*
X6437196Y-10822674D01*
X6437196Y-10822674D02*
X6456244Y-10832198D01*
X6456244Y-10832198D02*
X6465767Y-10841722D01*
X6465767Y-10841722D02*
X6475291Y-10860770D01*
X6475291Y-10860770D02*
X6475291Y-10908389D01*
X6475291Y-10908389D02*
X6465767Y-10927436D01*
X6465767Y-10927436D02*
X6456244Y-10936960D01*
X6456244Y-10936960D02*
X6437196Y-10946484D01*
X6437196Y-10946484D02*
X6380053Y-10946484D01*
X6380053Y-10946484D02*
X6361006Y-10936960D01*
X6361006Y-10936960D02*
X6351482Y-10927436D01*
X6570529Y-10946484D02*
X6608625Y-10946484D01*
X6608625Y-10946484D02*
X6627672Y-10936960D01*
X6627672Y-10936960D02*
X6637196Y-10927436D01*
X6637196Y-10927436D02*
X6656244Y-10898865D01*
X6656244Y-10898865D02*
X6665767Y-10860770D01*
X6665767Y-10860770D02*
X6665767Y-10784579D01*
X6665767Y-10784579D02*
X6656244Y-10765531D01*
X6656244Y-10765531D02*
X6646720Y-10756008D01*
X6646720Y-10756008D02*
X6627672Y-10746484D01*
X6627672Y-10746484D02*
X6589577Y-10746484D01*
X6589577Y-10746484D02*
X6570529Y-10756008D01*
X6570529Y-10756008D02*
X6561006Y-10765531D01*
X6561006Y-10765531D02*
X6551482Y-10784579D01*
X6551482Y-10784579D02*
X6551482Y-10832198D01*
X6551482Y-10832198D02*
X6561006Y-10851246D01*
X6561006Y-10851246D02*
X6570529Y-10860770D01*
X6570529Y-10860770D02*
X6589577Y-10870293D01*
X6589577Y-10870293D02*
X6627672Y-10870293D01*
X6627672Y-10870293D02*
X6646720Y-10860770D01*
X6646720Y-10860770D02*
X6656244Y-10851246D01*
X6656244Y-10851246D02*
X6665767Y-10832198D01*
X6837196Y-10813150D02*
X6837196Y-10946484D01*
X6789577Y-10736960D02*
X6741958Y-10879817D01*
X6741958Y-10879817D02*
X6865767Y-10879817D01*
X6932434Y-10746484D02*
X6932434Y-10784579D01*
X7008625Y-10746484D02*
X7008625Y-10784579D01*
X7303863Y-11022674D02*
X7294339Y-11013150D01*
X7294339Y-11013150D02*
X7275291Y-10984579D01*
X7275291Y-10984579D02*
X7265768Y-10965531D01*
X7265768Y-10965531D02*
X7256244Y-10936960D01*
X7256244Y-10936960D02*
X7246720Y-10889341D01*
X7246720Y-10889341D02*
X7246720Y-10851246D01*
X7246720Y-10851246D02*
X7256244Y-10803627D01*
X7256244Y-10803627D02*
X7265768Y-10775055D01*
X7265768Y-10775055D02*
X7275291Y-10756008D01*
X7275291Y-10756008D02*
X7294339Y-10727436D01*
X7294339Y-10727436D02*
X7303863Y-10717912D01*
X7408625Y-10832198D02*
X7389577Y-10822674D01*
X7389577Y-10822674D02*
X7380053Y-10813150D01*
X7380053Y-10813150D02*
X7370529Y-10794103D01*
X7370529Y-10794103D02*
X7370529Y-10784579D01*
X7370529Y-10784579D02*
X7380053Y-10765531D01*
X7380053Y-10765531D02*
X7389577Y-10756008D01*
X7389577Y-10756008D02*
X7408625Y-10746484D01*
X7408625Y-10746484D02*
X7446720Y-10746484D01*
X7446720Y-10746484D02*
X7465768Y-10756008D01*
X7465768Y-10756008D02*
X7475291Y-10765531D01*
X7475291Y-10765531D02*
X7484815Y-10784579D01*
X7484815Y-10784579D02*
X7484815Y-10794103D01*
X7484815Y-10794103D02*
X7475291Y-10813150D01*
X7475291Y-10813150D02*
X7465768Y-10822674D01*
X7465768Y-10822674D02*
X7446720Y-10832198D01*
X7446720Y-10832198D02*
X7408625Y-10832198D01*
X7408625Y-10832198D02*
X7389577Y-10841722D01*
X7389577Y-10841722D02*
X7380053Y-10851246D01*
X7380053Y-10851246D02*
X7370529Y-10870293D01*
X7370529Y-10870293D02*
X7370529Y-10908389D01*
X7370529Y-10908389D02*
X7380053Y-10927436D01*
X7380053Y-10927436D02*
X7389577Y-10936960D01*
X7389577Y-10936960D02*
X7408625Y-10946484D01*
X7408625Y-10946484D02*
X7446720Y-10946484D01*
X7446720Y-10946484D02*
X7465768Y-10936960D01*
X7465768Y-10936960D02*
X7475291Y-10927436D01*
X7475291Y-10927436D02*
X7484815Y-10908389D01*
X7484815Y-10908389D02*
X7484815Y-10870293D01*
X7484815Y-10870293D02*
X7475291Y-10851246D01*
X7475291Y-10851246D02*
X7465768Y-10841722D01*
X7465768Y-10841722D02*
X7446720Y-10832198D01*
X7722910Y-10946484D02*
X7722910Y-10746484D01*
X7808625Y-10946484D02*
X7808625Y-10841722D01*
X7808625Y-10841722D02*
X7799101Y-10822674D01*
X7799101Y-10822674D02*
X7780053Y-10813150D01*
X7780053Y-10813150D02*
X7751482Y-10813150D01*
X7751482Y-10813150D02*
X7732434Y-10822674D01*
X7732434Y-10822674D02*
X7722910Y-10832198D01*
X7932434Y-10946484D02*
X7913387Y-10936960D01*
X7913387Y-10936960D02*
X7903863Y-10927436D01*
X7903863Y-10927436D02*
X7894339Y-10908389D01*
X7894339Y-10908389D02*
X7894339Y-10851246D01*
X7894339Y-10851246D02*
X7903863Y-10832198D01*
X7903863Y-10832198D02*
X7913387Y-10822674D01*
X7913387Y-10822674D02*
X7932434Y-10813150D01*
X7932434Y-10813150D02*
X7961006Y-10813150D01*
X7961006Y-10813150D02*
X7980053Y-10822674D01*
X7980053Y-10822674D02*
X7989577Y-10832198D01*
X7989577Y-10832198D02*
X7999101Y-10851246D01*
X7999101Y-10851246D02*
X7999101Y-10908389D01*
X7999101Y-10908389D02*
X7989577Y-10927436D01*
X7989577Y-10927436D02*
X7980053Y-10936960D01*
X7980053Y-10936960D02*
X7961006Y-10946484D01*
X7961006Y-10946484D02*
X7932434Y-10946484D01*
X8113387Y-10946484D02*
X8094339Y-10936960D01*
X8094339Y-10936960D02*
X8084815Y-10917912D01*
X8084815Y-10917912D02*
X8084815Y-10746484D01*
X8265768Y-10936960D02*
X8246720Y-10946484D01*
X8246720Y-10946484D02*
X8208625Y-10946484D01*
X8208625Y-10946484D02*
X8189577Y-10936960D01*
X8189577Y-10936960D02*
X8180053Y-10917912D01*
X8180053Y-10917912D02*
X8180053Y-10841722D01*
X8180053Y-10841722D02*
X8189577Y-10822674D01*
X8189577Y-10822674D02*
X8208625Y-10813150D01*
X8208625Y-10813150D02*
X8246720Y-10813150D01*
X8246720Y-10813150D02*
X8265768Y-10822674D01*
X8265768Y-10822674D02*
X8275291Y-10841722D01*
X8275291Y-10841722D02*
X8275291Y-10860770D01*
X8275291Y-10860770D02*
X8180053Y-10879817D01*
X8351482Y-10936960D02*
X8370530Y-10946484D01*
X8370530Y-10946484D02*
X8408625Y-10946484D01*
X8408625Y-10946484D02*
X8427673Y-10936960D01*
X8427673Y-10936960D02*
X8437196Y-10917912D01*
X8437196Y-10917912D02*
X8437196Y-10908389D01*
X8437196Y-10908389D02*
X8427673Y-10889341D01*
X8427673Y-10889341D02*
X8408625Y-10879817D01*
X8408625Y-10879817D02*
X8380053Y-10879817D01*
X8380053Y-10879817D02*
X8361006Y-10870293D01*
X8361006Y-10870293D02*
X8351482Y-10851246D01*
X8351482Y-10851246D02*
X8351482Y-10841722D01*
X8351482Y-10841722D02*
X8361006Y-10822674D01*
X8361006Y-10822674D02*
X8380053Y-10813150D01*
X8380053Y-10813150D02*
X8408625Y-10813150D01*
X8408625Y-10813150D02*
X8427673Y-10822674D01*
X8503863Y-11022674D02*
X8513387Y-11013150D01*
X8513387Y-11013150D02*
X8532434Y-10984579D01*
X8532434Y-10984579D02*
X8541958Y-10965531D01*
X8541958Y-10965531D02*
X8551482Y-10936960D01*
X8551482Y-10936960D02*
X8561006Y-10889341D01*
X8561006Y-10889341D02*
X8561006Y-10851246D01*
X8561006Y-10851246D02*
X8551482Y-10803627D01*
X8551482Y-10803627D02*
X8541958Y-10775055D01*
X8541958Y-10775055D02*
X8532434Y-10756008D01*
X8532434Y-10756008D02*
X8513387Y-10727436D01*
X8513387Y-10727436D02*
X8503863Y-10717912D01*
D12*
X3626800Y-11068000D02*
X3728800Y-11170000D01*
X3728800Y-11068000D02*
X3626800Y-11170000D01*
X3677800Y-11068000D02*
X3677800Y-11170000D01*
X3626800Y-11119000D02*
X3728800Y-11119000D01*
D11*
X4094339Y-11210484D02*
X3980053Y-11210484D01*
X4037196Y-11210484D02*
X4037196Y-11010484D01*
X4037196Y-11010484D02*
X4018148Y-11039055D01*
X4018148Y-11039055D02*
X3999101Y-11058103D01*
X3999101Y-11058103D02*
X3980053Y-11067627D01*
X4180053Y-11191436D02*
X4189577Y-11200960D01*
X4189577Y-11200960D02*
X4180053Y-11210484D01*
X4180053Y-11210484D02*
X4170529Y-11200960D01*
X4170529Y-11200960D02*
X4180053Y-11191436D01*
X4180053Y-11191436D02*
X4180053Y-11210484D01*
X4313386Y-11010484D02*
X4332434Y-11010484D01*
X4332434Y-11010484D02*
X4351482Y-11020008D01*
X4351482Y-11020008D02*
X4361005Y-11029531D01*
X4361005Y-11029531D02*
X4370529Y-11048579D01*
X4370529Y-11048579D02*
X4380053Y-11086674D01*
X4380053Y-11086674D02*
X4380053Y-11134293D01*
X4380053Y-11134293D02*
X4370529Y-11172389D01*
X4370529Y-11172389D02*
X4361005Y-11191436D01*
X4361005Y-11191436D02*
X4351482Y-11200960D01*
X4351482Y-11200960D02*
X4332434Y-11210484D01*
X4332434Y-11210484D02*
X4313386Y-11210484D01*
X4313386Y-11210484D02*
X4294339Y-11200960D01*
X4294339Y-11200960D02*
X4284815Y-11191436D01*
X4284815Y-11191436D02*
X4275291Y-11172389D01*
X4275291Y-11172389D02*
X4265767Y-11134293D01*
X4265767Y-11134293D02*
X4265767Y-11086674D01*
X4265767Y-11086674D02*
X4275291Y-11048579D01*
X4275291Y-11048579D02*
X4284815Y-11029531D01*
X4284815Y-11029531D02*
X4294339Y-11020008D01*
X4294339Y-11020008D02*
X4313386Y-11010484D01*
X4456244Y-11029531D02*
X4465767Y-11020008D01*
X4465767Y-11020008D02*
X4484815Y-11010484D01*
X4484815Y-11010484D02*
X4532434Y-11010484D01*
X4532434Y-11010484D02*
X4551482Y-11020008D01*
X4551482Y-11020008D02*
X4561005Y-11029531D01*
X4561005Y-11029531D02*
X4570529Y-11048579D01*
X4570529Y-11048579D02*
X4570529Y-11067627D01*
X4570529Y-11067627D02*
X4561005Y-11096198D01*
X4561005Y-11096198D02*
X4446720Y-11210484D01*
X4446720Y-11210484D02*
X4570529Y-11210484D01*
X4694339Y-11010484D02*
X4713386Y-11010484D01*
X4713386Y-11010484D02*
X4732434Y-11020008D01*
X4732434Y-11020008D02*
X4741958Y-11029531D01*
X4741958Y-11029531D02*
X4751482Y-11048579D01*
X4751482Y-11048579D02*
X4761005Y-11086674D01*
X4761005Y-11086674D02*
X4761005Y-11134293D01*
X4761005Y-11134293D02*
X4751482Y-11172389D01*
X4751482Y-11172389D02*
X4741958Y-11191436D01*
X4741958Y-11191436D02*
X4732434Y-11200960D01*
X4732434Y-11200960D02*
X4713386Y-11210484D01*
X4713386Y-11210484D02*
X4694339Y-11210484D01*
X4694339Y-11210484D02*
X4675291Y-11200960D01*
X4675291Y-11200960D02*
X4665767Y-11191436D01*
X4665767Y-11191436D02*
X4656244Y-11172389D01*
X4656244Y-11172389D02*
X4646720Y-11134293D01*
X4646720Y-11134293D02*
X4646720Y-11086674D01*
X4646720Y-11086674D02*
X4656244Y-11048579D01*
X4656244Y-11048579D02*
X4665767Y-11029531D01*
X4665767Y-11029531D02*
X4675291Y-11020008D01*
X4675291Y-11020008D02*
X4694339Y-11010484D01*
X4846720Y-11210484D02*
X4846720Y-11077150D01*
X4846720Y-11096198D02*
X4856244Y-11086674D01*
X4856244Y-11086674D02*
X4875291Y-11077150D01*
X4875291Y-11077150D02*
X4903863Y-11077150D01*
X4903863Y-11077150D02*
X4922910Y-11086674D01*
X4922910Y-11086674D02*
X4932434Y-11105722D01*
X4932434Y-11105722D02*
X4932434Y-11210484D01*
X4932434Y-11105722D02*
X4941958Y-11086674D01*
X4941958Y-11086674D02*
X4961005Y-11077150D01*
X4961005Y-11077150D02*
X4989577Y-11077150D01*
X4989577Y-11077150D02*
X5008625Y-11086674D01*
X5008625Y-11086674D02*
X5018148Y-11105722D01*
X5018148Y-11105722D02*
X5018148Y-11210484D01*
X5113386Y-11210484D02*
X5113386Y-11077150D01*
X5113386Y-11096198D02*
X5122910Y-11086674D01*
X5122910Y-11086674D02*
X5141958Y-11077150D01*
X5141958Y-11077150D02*
X5170529Y-11077150D01*
X5170529Y-11077150D02*
X5189577Y-11086674D01*
X5189577Y-11086674D02*
X5199101Y-11105722D01*
X5199101Y-11105722D02*
X5199101Y-11210484D01*
X5199101Y-11105722D02*
X5208625Y-11086674D01*
X5208625Y-11086674D02*
X5227672Y-11077150D01*
X5227672Y-11077150D02*
X5256244Y-11077150D01*
X5256244Y-11077150D02*
X5275291Y-11086674D01*
X5275291Y-11086674D02*
X5284815Y-11105722D01*
X5284815Y-11105722D02*
X5284815Y-11210484D01*
X5675291Y-11000960D02*
X5503863Y-11258103D01*
X5932434Y-11010484D02*
X5951482Y-11010484D01*
X5951482Y-11010484D02*
X5970529Y-11020008D01*
X5970529Y-11020008D02*
X5980053Y-11029531D01*
X5980053Y-11029531D02*
X5989577Y-11048579D01*
X5989577Y-11048579D02*
X5999101Y-11086674D01*
X5999101Y-11086674D02*
X5999101Y-11134293D01*
X5999101Y-11134293D02*
X5989577Y-11172389D01*
X5989577Y-11172389D02*
X5980053Y-11191436D01*
X5980053Y-11191436D02*
X5970529Y-11200960D01*
X5970529Y-11200960D02*
X5951482Y-11210484D01*
X5951482Y-11210484D02*
X5932434Y-11210484D01*
X5932434Y-11210484D02*
X5913386Y-11200960D01*
X5913386Y-11200960D02*
X5903863Y-11191436D01*
X5903863Y-11191436D02*
X5894339Y-11172389D01*
X5894339Y-11172389D02*
X5884815Y-11134293D01*
X5884815Y-11134293D02*
X5884815Y-11086674D01*
X5884815Y-11086674D02*
X5894339Y-11048579D01*
X5894339Y-11048579D02*
X5903863Y-11029531D01*
X5903863Y-11029531D02*
X5913386Y-11020008D01*
X5913386Y-11020008D02*
X5932434Y-11010484D01*
X6084815Y-11191436D02*
X6094339Y-11200960D01*
X6094339Y-11200960D02*
X6084815Y-11210484D01*
X6084815Y-11210484D02*
X6075291Y-11200960D01*
X6075291Y-11200960D02*
X6084815Y-11191436D01*
X6084815Y-11191436D02*
X6084815Y-11210484D01*
X6218148Y-11010484D02*
X6237196Y-11010484D01*
X6237196Y-11010484D02*
X6256244Y-11020008D01*
X6256244Y-11020008D02*
X6265767Y-11029531D01*
X6265767Y-11029531D02*
X6275291Y-11048579D01*
X6275291Y-11048579D02*
X6284815Y-11086674D01*
X6284815Y-11086674D02*
X6284815Y-11134293D01*
X6284815Y-11134293D02*
X6275291Y-11172389D01*
X6275291Y-11172389D02*
X6265767Y-11191436D01*
X6265767Y-11191436D02*
X6256244Y-11200960D01*
X6256244Y-11200960D02*
X6237196Y-11210484D01*
X6237196Y-11210484D02*
X6218148Y-11210484D01*
X6218148Y-11210484D02*
X6199101Y-11200960D01*
X6199101Y-11200960D02*
X6189577Y-11191436D01*
X6189577Y-11191436D02*
X6180053Y-11172389D01*
X6180053Y-11172389D02*
X6170529Y-11134293D01*
X6170529Y-11134293D02*
X6170529Y-11086674D01*
X6170529Y-11086674D02*
X6180053Y-11048579D01*
X6180053Y-11048579D02*
X6189577Y-11029531D01*
X6189577Y-11029531D02*
X6199101Y-11020008D01*
X6199101Y-11020008D02*
X6218148Y-11010484D01*
X6456244Y-11077150D02*
X6456244Y-11210484D01*
X6408625Y-11000960D02*
X6361006Y-11143817D01*
X6361006Y-11143817D02*
X6484815Y-11143817D01*
X6599101Y-11010484D02*
X6618148Y-11010484D01*
X6618148Y-11010484D02*
X6637196Y-11020008D01*
X6637196Y-11020008D02*
X6646720Y-11029531D01*
X6646720Y-11029531D02*
X6656244Y-11048579D01*
X6656244Y-11048579D02*
X6665767Y-11086674D01*
X6665767Y-11086674D02*
X6665767Y-11134293D01*
X6665767Y-11134293D02*
X6656244Y-11172389D01*
X6656244Y-11172389D02*
X6646720Y-11191436D01*
X6646720Y-11191436D02*
X6637196Y-11200960D01*
X6637196Y-11200960D02*
X6618148Y-11210484D01*
X6618148Y-11210484D02*
X6599101Y-11210484D01*
X6599101Y-11210484D02*
X6580053Y-11200960D01*
X6580053Y-11200960D02*
X6570529Y-11191436D01*
X6570529Y-11191436D02*
X6561006Y-11172389D01*
X6561006Y-11172389D02*
X6551482Y-11134293D01*
X6551482Y-11134293D02*
X6551482Y-11086674D01*
X6551482Y-11086674D02*
X6561006Y-11048579D01*
X6561006Y-11048579D02*
X6570529Y-11029531D01*
X6570529Y-11029531D02*
X6580053Y-11020008D01*
X6580053Y-11020008D02*
X6599101Y-11010484D01*
X6741958Y-11029531D02*
X6751482Y-11020008D01*
X6751482Y-11020008D02*
X6770529Y-11010484D01*
X6770529Y-11010484D02*
X6818148Y-11010484D01*
X6818148Y-11010484D02*
X6837196Y-11020008D01*
X6837196Y-11020008D02*
X6846720Y-11029531D01*
X6846720Y-11029531D02*
X6856244Y-11048579D01*
X6856244Y-11048579D02*
X6856244Y-11067627D01*
X6856244Y-11067627D02*
X6846720Y-11096198D01*
X6846720Y-11096198D02*
X6732434Y-11210484D01*
X6732434Y-11210484D02*
X6856244Y-11210484D01*
X6932434Y-11010484D02*
X6932434Y-11048579D01*
X7008625Y-11010484D02*
X7008625Y-11048579D01*
X7303863Y-11286674D02*
X7294339Y-11277150D01*
X7294339Y-11277150D02*
X7275291Y-11248579D01*
X7275291Y-11248579D02*
X7265768Y-11229531D01*
X7265768Y-11229531D02*
X7256244Y-11200960D01*
X7256244Y-11200960D02*
X7246720Y-11153341D01*
X7246720Y-11153341D02*
X7246720Y-11115246D01*
X7246720Y-11115246D02*
X7256244Y-11067627D01*
X7256244Y-11067627D02*
X7265768Y-11039055D01*
X7265768Y-11039055D02*
X7275291Y-11020008D01*
X7275291Y-11020008D02*
X7294339Y-10991436D01*
X7294339Y-10991436D02*
X7303863Y-10981912D01*
X7465768Y-11077150D02*
X7465768Y-11210484D01*
X7418148Y-11000960D02*
X7370529Y-11143817D01*
X7370529Y-11143817D02*
X7494339Y-11143817D01*
X7551482Y-11010484D02*
X7675291Y-11010484D01*
X7675291Y-11010484D02*
X7608625Y-11086674D01*
X7608625Y-11086674D02*
X7637196Y-11086674D01*
X7637196Y-11086674D02*
X7656244Y-11096198D01*
X7656244Y-11096198D02*
X7665768Y-11105722D01*
X7665768Y-11105722D02*
X7675291Y-11124770D01*
X7675291Y-11124770D02*
X7675291Y-11172389D01*
X7675291Y-11172389D02*
X7665768Y-11191436D01*
X7665768Y-11191436D02*
X7656244Y-11200960D01*
X7656244Y-11200960D02*
X7637196Y-11210484D01*
X7637196Y-11210484D02*
X7580053Y-11210484D01*
X7580053Y-11210484D02*
X7561006Y-11200960D01*
X7561006Y-11200960D02*
X7551482Y-11191436D01*
X7913387Y-11210484D02*
X7913387Y-11010484D01*
X7999101Y-11210484D02*
X7999101Y-11105722D01*
X7999101Y-11105722D02*
X7989577Y-11086674D01*
X7989577Y-11086674D02*
X7970530Y-11077150D01*
X7970530Y-11077150D02*
X7941958Y-11077150D01*
X7941958Y-11077150D02*
X7922910Y-11086674D01*
X7922910Y-11086674D02*
X7913387Y-11096198D01*
X8122910Y-11210484D02*
X8103863Y-11200960D01*
X8103863Y-11200960D02*
X8094339Y-11191436D01*
X8094339Y-11191436D02*
X8084815Y-11172389D01*
X8084815Y-11172389D02*
X8084815Y-11115246D01*
X8084815Y-11115246D02*
X8094339Y-11096198D01*
X8094339Y-11096198D02*
X8103863Y-11086674D01*
X8103863Y-11086674D02*
X8122910Y-11077150D01*
X8122910Y-11077150D02*
X8151482Y-11077150D01*
X8151482Y-11077150D02*
X8170530Y-11086674D01*
X8170530Y-11086674D02*
X8180053Y-11096198D01*
X8180053Y-11096198D02*
X8189577Y-11115246D01*
X8189577Y-11115246D02*
X8189577Y-11172389D01*
X8189577Y-11172389D02*
X8180053Y-11191436D01*
X8180053Y-11191436D02*
X8170530Y-11200960D01*
X8170530Y-11200960D02*
X8151482Y-11210484D01*
X8151482Y-11210484D02*
X8122910Y-11210484D01*
X8303863Y-11210484D02*
X8284815Y-11200960D01*
X8284815Y-11200960D02*
X8275291Y-11181912D01*
X8275291Y-11181912D02*
X8275291Y-11010484D01*
X8456244Y-11200960D02*
X8437196Y-11210484D01*
X8437196Y-11210484D02*
X8399101Y-11210484D01*
X8399101Y-11210484D02*
X8380053Y-11200960D01*
X8380053Y-11200960D02*
X8370530Y-11181912D01*
X8370530Y-11181912D02*
X8370530Y-11105722D01*
X8370530Y-11105722D02*
X8380053Y-11086674D01*
X8380053Y-11086674D02*
X8399101Y-11077150D01*
X8399101Y-11077150D02*
X8437196Y-11077150D01*
X8437196Y-11077150D02*
X8456244Y-11086674D01*
X8456244Y-11086674D02*
X8465768Y-11105722D01*
X8465768Y-11105722D02*
X8465768Y-11124770D01*
X8465768Y-11124770D02*
X8370530Y-11143817D01*
X8541958Y-11200960D02*
X8561006Y-11210484D01*
X8561006Y-11210484D02*
X8599101Y-11210484D01*
X8599101Y-11210484D02*
X8618149Y-11200960D01*
X8618149Y-11200960D02*
X8627673Y-11181912D01*
X8627673Y-11181912D02*
X8627673Y-11172389D01*
X8627673Y-11172389D02*
X8618149Y-11153341D01*
X8618149Y-11153341D02*
X8599101Y-11143817D01*
X8599101Y-11143817D02*
X8570530Y-11143817D01*
X8570530Y-11143817D02*
X8551482Y-11134293D01*
X8551482Y-11134293D02*
X8541958Y-11115246D01*
X8541958Y-11115246D02*
X8541958Y-11105722D01*
X8541958Y-11105722D02*
X8551482Y-11086674D01*
X8551482Y-11086674D02*
X8570530Y-11077150D01*
X8570530Y-11077150D02*
X8599101Y-11077150D01*
X8599101Y-11077150D02*
X8618149Y-11086674D01*
X8694339Y-11286674D02*
X8703863Y-11277150D01*
X8703863Y-11277150D02*
X8722911Y-11248579D01*
X8722911Y-11248579D02*
X8732434Y-11229531D01*
X8732434Y-11229531D02*
X8741958Y-11200960D01*
X8741958Y-11200960D02*
X8751482Y-11153341D01*
X8751482Y-11153341D02*
X8751482Y-11115246D01*
X8751482Y-11115246D02*
X8741958Y-11067627D01*
X8741958Y-11067627D02*
X8732434Y-11039055D01*
X8732434Y-11039055D02*
X8722911Y-11020008D01*
X8722911Y-11020008D02*
X8703863Y-10991436D01*
X8703863Y-10991436D02*
X8694339Y-10981912D01*
D13*
X3618800Y-11328000D02*
X3728800Y-11438000D01*
X3728800Y-11328000D02*
X3618800Y-11438000D01*
X3712691Y-11421891D02*
X3712691Y-11344109D01*
X3634909Y-11344109D01*
X3634909Y-11421891D01*
X3712691Y-11421891D01*
D11*
X4094339Y-11474484D02*
X3980053Y-11474484D01*
X4037196Y-11474484D02*
X4037196Y-11274484D01*
X4037196Y-11274484D02*
X4018148Y-11303055D01*
X4018148Y-11303055D02*
X3999101Y-11322103D01*
X3999101Y-11322103D02*
X3980053Y-11331627D01*
X4180053Y-11455436D02*
X4189577Y-11464960D01*
X4189577Y-11464960D02*
X4180053Y-11474484D01*
X4180053Y-11474484D02*
X4170529Y-11464960D01*
X4170529Y-11464960D02*
X4180053Y-11455436D01*
X4180053Y-11455436D02*
X4180053Y-11474484D01*
X4380053Y-11474484D02*
X4265767Y-11474484D01*
X4322910Y-11474484D02*
X4322910Y-11274484D01*
X4322910Y-11274484D02*
X4303863Y-11303055D01*
X4303863Y-11303055D02*
X4284815Y-11322103D01*
X4284815Y-11322103D02*
X4265767Y-11331627D01*
X4503863Y-11274484D02*
X4522910Y-11274484D01*
X4522910Y-11274484D02*
X4541958Y-11284008D01*
X4541958Y-11284008D02*
X4551482Y-11293531D01*
X4551482Y-11293531D02*
X4561005Y-11312579D01*
X4561005Y-11312579D02*
X4570529Y-11350674D01*
X4570529Y-11350674D02*
X4570529Y-11398293D01*
X4570529Y-11398293D02*
X4561005Y-11436388D01*
X4561005Y-11436388D02*
X4551482Y-11455436D01*
X4551482Y-11455436D02*
X4541958Y-11464960D01*
X4541958Y-11464960D02*
X4522910Y-11474484D01*
X4522910Y-11474484D02*
X4503863Y-11474484D01*
X4503863Y-11474484D02*
X4484815Y-11464960D01*
X4484815Y-11464960D02*
X4475291Y-11455436D01*
X4475291Y-11455436D02*
X4465767Y-11436388D01*
X4465767Y-11436388D02*
X4456244Y-11398293D01*
X4456244Y-11398293D02*
X4456244Y-11350674D01*
X4456244Y-11350674D02*
X4465767Y-11312579D01*
X4465767Y-11312579D02*
X4475291Y-11293531D01*
X4475291Y-11293531D02*
X4484815Y-11284008D01*
X4484815Y-11284008D02*
X4503863Y-11274484D01*
X4694339Y-11274484D02*
X4713386Y-11274484D01*
X4713386Y-11274484D02*
X4732434Y-11284008D01*
X4732434Y-11284008D02*
X4741958Y-11293531D01*
X4741958Y-11293531D02*
X4751482Y-11312579D01*
X4751482Y-11312579D02*
X4761005Y-11350674D01*
X4761005Y-11350674D02*
X4761005Y-11398293D01*
X4761005Y-11398293D02*
X4751482Y-11436388D01*
X4751482Y-11436388D02*
X4741958Y-11455436D01*
X4741958Y-11455436D02*
X4732434Y-11464960D01*
X4732434Y-11464960D02*
X4713386Y-11474484D01*
X4713386Y-11474484D02*
X4694339Y-11474484D01*
X4694339Y-11474484D02*
X4675291Y-11464960D01*
X4675291Y-11464960D02*
X4665767Y-11455436D01*
X4665767Y-11455436D02*
X4656244Y-11436388D01*
X4656244Y-11436388D02*
X4646720Y-11398293D01*
X4646720Y-11398293D02*
X4646720Y-11350674D01*
X4646720Y-11350674D02*
X4656244Y-11312579D01*
X4656244Y-11312579D02*
X4665767Y-11293531D01*
X4665767Y-11293531D02*
X4675291Y-11284008D01*
X4675291Y-11284008D02*
X4694339Y-11274484D01*
X4846720Y-11474484D02*
X4846720Y-11341150D01*
X4846720Y-11360198D02*
X4856244Y-11350674D01*
X4856244Y-11350674D02*
X4875291Y-11341150D01*
X4875291Y-11341150D02*
X4903863Y-11341150D01*
X4903863Y-11341150D02*
X4922910Y-11350674D01*
X4922910Y-11350674D02*
X4932434Y-11369722D01*
X4932434Y-11369722D02*
X4932434Y-11474484D01*
X4932434Y-11369722D02*
X4941958Y-11350674D01*
X4941958Y-11350674D02*
X4961005Y-11341150D01*
X4961005Y-11341150D02*
X4989577Y-11341150D01*
X4989577Y-11341150D02*
X5008625Y-11350674D01*
X5008625Y-11350674D02*
X5018148Y-11369722D01*
X5018148Y-11369722D02*
X5018148Y-11474484D01*
X5113386Y-11474484D02*
X5113386Y-11341150D01*
X5113386Y-11360198D02*
X5122910Y-11350674D01*
X5122910Y-11350674D02*
X5141958Y-11341150D01*
X5141958Y-11341150D02*
X5170529Y-11341150D01*
X5170529Y-11341150D02*
X5189577Y-11350674D01*
X5189577Y-11350674D02*
X5199101Y-11369722D01*
X5199101Y-11369722D02*
X5199101Y-11474484D01*
X5199101Y-11369722D02*
X5208625Y-11350674D01*
X5208625Y-11350674D02*
X5227672Y-11341150D01*
X5227672Y-11341150D02*
X5256244Y-11341150D01*
X5256244Y-11341150D02*
X5275291Y-11350674D01*
X5275291Y-11350674D02*
X5284815Y-11369722D01*
X5284815Y-11369722D02*
X5284815Y-11474484D01*
X5675291Y-11264960D02*
X5503863Y-11522103D01*
X5932434Y-11274484D02*
X5951482Y-11274484D01*
X5951482Y-11274484D02*
X5970529Y-11284008D01*
X5970529Y-11284008D02*
X5980053Y-11293531D01*
X5980053Y-11293531D02*
X5989577Y-11312579D01*
X5989577Y-11312579D02*
X5999101Y-11350674D01*
X5999101Y-11350674D02*
X5999101Y-11398293D01*
X5999101Y-11398293D02*
X5989577Y-11436388D01*
X5989577Y-11436388D02*
X5980053Y-11455436D01*
X5980053Y-11455436D02*
X5970529Y-11464960D01*
X5970529Y-11464960D02*
X5951482Y-11474484D01*
X5951482Y-11474484D02*
X5932434Y-11474484D01*
X5932434Y-11474484D02*
X5913386Y-11464960D01*
X5913386Y-11464960D02*
X5903863Y-11455436D01*
X5903863Y-11455436D02*
X5894339Y-11436388D01*
X5894339Y-11436388D02*
X5884815Y-11398293D01*
X5884815Y-11398293D02*
X5884815Y-11350674D01*
X5884815Y-11350674D02*
X5894339Y-11312579D01*
X5894339Y-11312579D02*
X5903863Y-11293531D01*
X5903863Y-11293531D02*
X5913386Y-11284008D01*
X5913386Y-11284008D02*
X5932434Y-11274484D01*
X6084815Y-11455436D02*
X6094339Y-11464960D01*
X6094339Y-11464960D02*
X6084815Y-11474484D01*
X6084815Y-11474484D02*
X6075291Y-11464960D01*
X6075291Y-11464960D02*
X6084815Y-11455436D01*
X6084815Y-11455436D02*
X6084815Y-11474484D01*
X6218148Y-11274484D02*
X6237196Y-11274484D01*
X6237196Y-11274484D02*
X6256244Y-11284008D01*
X6256244Y-11284008D02*
X6265767Y-11293531D01*
X6265767Y-11293531D02*
X6275291Y-11312579D01*
X6275291Y-11312579D02*
X6284815Y-11350674D01*
X6284815Y-11350674D02*
X6284815Y-11398293D01*
X6284815Y-11398293D02*
X6275291Y-11436388D01*
X6275291Y-11436388D02*
X6265767Y-11455436D01*
X6265767Y-11455436D02*
X6256244Y-11464960D01*
X6256244Y-11464960D02*
X6237196Y-11474484D01*
X6237196Y-11474484D02*
X6218148Y-11474484D01*
X6218148Y-11474484D02*
X6199101Y-11464960D01*
X6199101Y-11464960D02*
X6189577Y-11455436D01*
X6189577Y-11455436D02*
X6180053Y-11436388D01*
X6180053Y-11436388D02*
X6170529Y-11398293D01*
X6170529Y-11398293D02*
X6170529Y-11350674D01*
X6170529Y-11350674D02*
X6180053Y-11312579D01*
X6180053Y-11312579D02*
X6189577Y-11293531D01*
X6189577Y-11293531D02*
X6199101Y-11284008D01*
X6199101Y-11284008D02*
X6218148Y-11274484D01*
X6456244Y-11341150D02*
X6456244Y-11474484D01*
X6408625Y-11264960D02*
X6361006Y-11407817D01*
X6361006Y-11407817D02*
X6484815Y-11407817D01*
X6541958Y-11274484D02*
X6665767Y-11274484D01*
X6665767Y-11274484D02*
X6599101Y-11350674D01*
X6599101Y-11350674D02*
X6627672Y-11350674D01*
X6627672Y-11350674D02*
X6646720Y-11360198D01*
X6646720Y-11360198D02*
X6656244Y-11369722D01*
X6656244Y-11369722D02*
X6665767Y-11388769D01*
X6665767Y-11388769D02*
X6665767Y-11436388D01*
X6665767Y-11436388D02*
X6656244Y-11455436D01*
X6656244Y-11455436D02*
X6646720Y-11464960D01*
X6646720Y-11464960D02*
X6627672Y-11474484D01*
X6627672Y-11474484D02*
X6570529Y-11474484D01*
X6570529Y-11474484D02*
X6551482Y-11464960D01*
X6551482Y-11464960D02*
X6541958Y-11455436D01*
X6732434Y-11274484D02*
X6856244Y-11274484D01*
X6856244Y-11274484D02*
X6789577Y-11350674D01*
X6789577Y-11350674D02*
X6818148Y-11350674D01*
X6818148Y-11350674D02*
X6837196Y-11360198D01*
X6837196Y-11360198D02*
X6846720Y-11369722D01*
X6846720Y-11369722D02*
X6856244Y-11388769D01*
X6856244Y-11388769D02*
X6856244Y-11436388D01*
X6856244Y-11436388D02*
X6846720Y-11455436D01*
X6846720Y-11455436D02*
X6837196Y-11464960D01*
X6837196Y-11464960D02*
X6818148Y-11474484D01*
X6818148Y-11474484D02*
X6761006Y-11474484D01*
X6761006Y-11474484D02*
X6741958Y-11464960D01*
X6741958Y-11464960D02*
X6732434Y-11455436D01*
X6932434Y-11274484D02*
X6932434Y-11312579D01*
X7008625Y-11274484D02*
X7008625Y-11312579D01*
X7303863Y-11550674D02*
X7294339Y-11541150D01*
X7294339Y-11541150D02*
X7275291Y-11512579D01*
X7275291Y-11512579D02*
X7265768Y-11493531D01*
X7265768Y-11493531D02*
X7256244Y-11464960D01*
X7256244Y-11464960D02*
X7246720Y-11417341D01*
X7246720Y-11417341D02*
X7246720Y-11379246D01*
X7246720Y-11379246D02*
X7256244Y-11331627D01*
X7256244Y-11331627D02*
X7265768Y-11303055D01*
X7265768Y-11303055D02*
X7275291Y-11284008D01*
X7275291Y-11284008D02*
X7294339Y-11255436D01*
X7294339Y-11255436D02*
X7303863Y-11245912D01*
X7484815Y-11474484D02*
X7370529Y-11474484D01*
X7427672Y-11474484D02*
X7427672Y-11274484D01*
X7427672Y-11274484D02*
X7408625Y-11303055D01*
X7408625Y-11303055D02*
X7389577Y-11322103D01*
X7389577Y-11322103D02*
X7370529Y-11331627D01*
X7665768Y-11274484D02*
X7570529Y-11274484D01*
X7570529Y-11274484D02*
X7561006Y-11369722D01*
X7561006Y-11369722D02*
X7570529Y-11360198D01*
X7570529Y-11360198D02*
X7589577Y-11350674D01*
X7589577Y-11350674D02*
X7637196Y-11350674D01*
X7637196Y-11350674D02*
X7656244Y-11360198D01*
X7656244Y-11360198D02*
X7665768Y-11369722D01*
X7665768Y-11369722D02*
X7675291Y-11388769D01*
X7675291Y-11388769D02*
X7675291Y-11436388D01*
X7675291Y-11436388D02*
X7665768Y-11455436D01*
X7665768Y-11455436D02*
X7656244Y-11464960D01*
X7656244Y-11464960D02*
X7637196Y-11474484D01*
X7637196Y-11474484D02*
X7589577Y-11474484D01*
X7589577Y-11474484D02*
X7570529Y-11464960D01*
X7570529Y-11464960D02*
X7561006Y-11455436D01*
X7913387Y-11474484D02*
X7913387Y-11274484D01*
X7999101Y-11474484D02*
X7999101Y-11369722D01*
X7999101Y-11369722D02*
X7989577Y-11350674D01*
X7989577Y-11350674D02*
X7970530Y-11341150D01*
X7970530Y-11341150D02*
X7941958Y-11341150D01*
X7941958Y-11341150D02*
X7922910Y-11350674D01*
X7922910Y-11350674D02*
X7913387Y-11360198D01*
X8122910Y-11474484D02*
X8103863Y-11464960D01*
X8103863Y-11464960D02*
X8094339Y-11455436D01*
X8094339Y-11455436D02*
X8084815Y-11436388D01*
X8084815Y-11436388D02*
X8084815Y-11379246D01*
X8084815Y-11379246D02*
X8094339Y-11360198D01*
X8094339Y-11360198D02*
X8103863Y-11350674D01*
X8103863Y-11350674D02*
X8122910Y-11341150D01*
X8122910Y-11341150D02*
X8151482Y-11341150D01*
X8151482Y-11341150D02*
X8170530Y-11350674D01*
X8170530Y-11350674D02*
X8180053Y-11360198D01*
X8180053Y-11360198D02*
X8189577Y-11379246D01*
X8189577Y-11379246D02*
X8189577Y-11436388D01*
X8189577Y-11436388D02*
X8180053Y-11455436D01*
X8180053Y-11455436D02*
X8170530Y-11464960D01*
X8170530Y-11464960D02*
X8151482Y-11474484D01*
X8151482Y-11474484D02*
X8122910Y-11474484D01*
X8303863Y-11474484D02*
X8284815Y-11464960D01*
X8284815Y-11464960D02*
X8275291Y-11445912D01*
X8275291Y-11445912D02*
X8275291Y-11274484D01*
X8456244Y-11464960D02*
X8437196Y-11474484D01*
X8437196Y-11474484D02*
X8399101Y-11474484D01*
X8399101Y-11474484D02*
X8380053Y-11464960D01*
X8380053Y-11464960D02*
X8370530Y-11445912D01*
X8370530Y-11445912D02*
X8370530Y-11369722D01*
X8370530Y-11369722D02*
X8380053Y-11350674D01*
X8380053Y-11350674D02*
X8399101Y-11341150D01*
X8399101Y-11341150D02*
X8437196Y-11341150D01*
X8437196Y-11341150D02*
X8456244Y-11350674D01*
X8456244Y-11350674D02*
X8465768Y-11369722D01*
X8465768Y-11369722D02*
X8465768Y-11388769D01*
X8465768Y-11388769D02*
X8370530Y-11407817D01*
X8541958Y-11464960D02*
X8561006Y-11474484D01*
X8561006Y-11474484D02*
X8599101Y-11474484D01*
X8599101Y-11474484D02*
X8618149Y-11464960D01*
X8618149Y-11464960D02*
X8627673Y-11445912D01*
X8627673Y-11445912D02*
X8627673Y-11436388D01*
X8627673Y-11436388D02*
X8618149Y-11417341D01*
X8618149Y-11417341D02*
X8599101Y-11407817D01*
X8599101Y-11407817D02*
X8570530Y-11407817D01*
X8570530Y-11407817D02*
X8551482Y-11398293D01*
X8551482Y-11398293D02*
X8541958Y-11379246D01*
X8541958Y-11379246D02*
X8541958Y-11369722D01*
X8541958Y-11369722D02*
X8551482Y-11350674D01*
X8551482Y-11350674D02*
X8570530Y-11341150D01*
X8570530Y-11341150D02*
X8599101Y-11341150D01*
X8599101Y-11341150D02*
X8618149Y-11350674D01*
X8694339Y-11550674D02*
X8703863Y-11541150D01*
X8703863Y-11541150D02*
X8722911Y-11512579D01*
X8722911Y-11512579D02*
X8732434Y-11493531D01*
X8732434Y-11493531D02*
X8741958Y-11464960D01*
X8741958Y-11464960D02*
X8751482Y-11417341D01*
X8751482Y-11417341D02*
X8751482Y-11379246D01*
X8751482Y-11379246D02*
X8741958Y-11331627D01*
X8741958Y-11331627D02*
X8732434Y-11303055D01*
X8732434Y-11303055D02*
X8722911Y-11284008D01*
X8722911Y-11284008D02*
X8703863Y-11255436D01*
X8703863Y-11255436D02*
X8694339Y-11245912D01*
D14*
X3614500Y-11589850D02*
X3728800Y-11704150D01*
X3728800Y-11589850D02*
X3614500Y-11704150D01*
X3671650Y-11704150D02*
X3728800Y-11647000D01*
X3671650Y-11589850D01*
X3614500Y-11647000D01*
X3671650Y-11704150D01*
D11*
X4094339Y-11738484D02*
X3980053Y-11738484D01*
X4037196Y-11738484D02*
X4037196Y-11538484D01*
X4037196Y-11538484D02*
X4018148Y-11567055D01*
X4018148Y-11567055D02*
X3999101Y-11586103D01*
X3999101Y-11586103D02*
X3980053Y-11595627D01*
X4180053Y-11719436D02*
X4189577Y-11728960D01*
X4189577Y-11728960D02*
X4180053Y-11738484D01*
X4180053Y-11738484D02*
X4170529Y-11728960D01*
X4170529Y-11728960D02*
X4180053Y-11719436D01*
X4180053Y-11719436D02*
X4180053Y-11738484D01*
X4380053Y-11738484D02*
X4265767Y-11738484D01*
X4322910Y-11738484D02*
X4322910Y-11538484D01*
X4322910Y-11538484D02*
X4303863Y-11567055D01*
X4303863Y-11567055D02*
X4284815Y-11586103D01*
X4284815Y-11586103D02*
X4265767Y-11595627D01*
X4551482Y-11605150D02*
X4551482Y-11738484D01*
X4503863Y-11528960D02*
X4456244Y-11671817D01*
X4456244Y-11671817D02*
X4580053Y-11671817D01*
X4637196Y-11538484D02*
X4761005Y-11538484D01*
X4761005Y-11538484D02*
X4694339Y-11614674D01*
X4694339Y-11614674D02*
X4722910Y-11614674D01*
X4722910Y-11614674D02*
X4741958Y-11624198D01*
X4741958Y-11624198D02*
X4751482Y-11633722D01*
X4751482Y-11633722D02*
X4761005Y-11652769D01*
X4761005Y-11652769D02*
X4761005Y-11700388D01*
X4761005Y-11700388D02*
X4751482Y-11719436D01*
X4751482Y-11719436D02*
X4741958Y-11728960D01*
X4741958Y-11728960D02*
X4722910Y-11738484D01*
X4722910Y-11738484D02*
X4665767Y-11738484D01*
X4665767Y-11738484D02*
X4646720Y-11728960D01*
X4646720Y-11728960D02*
X4637196Y-11719436D01*
X4846720Y-11738484D02*
X4846720Y-11605150D01*
X4846720Y-11624198D02*
X4856244Y-11614674D01*
X4856244Y-11614674D02*
X4875291Y-11605150D01*
X4875291Y-11605150D02*
X4903863Y-11605150D01*
X4903863Y-11605150D02*
X4922910Y-11614674D01*
X4922910Y-11614674D02*
X4932434Y-11633722D01*
X4932434Y-11633722D02*
X4932434Y-11738484D01*
X4932434Y-11633722D02*
X4941958Y-11614674D01*
X4941958Y-11614674D02*
X4961005Y-11605150D01*
X4961005Y-11605150D02*
X4989577Y-11605150D01*
X4989577Y-11605150D02*
X5008625Y-11614674D01*
X5008625Y-11614674D02*
X5018148Y-11633722D01*
X5018148Y-11633722D02*
X5018148Y-11738484D01*
X5113386Y-11738484D02*
X5113386Y-11605150D01*
X5113386Y-11624198D02*
X5122910Y-11614674D01*
X5122910Y-11614674D02*
X5141958Y-11605150D01*
X5141958Y-11605150D02*
X5170529Y-11605150D01*
X5170529Y-11605150D02*
X5189577Y-11614674D01*
X5189577Y-11614674D02*
X5199101Y-11633722D01*
X5199101Y-11633722D02*
X5199101Y-11738484D01*
X5199101Y-11633722D02*
X5208625Y-11614674D01*
X5208625Y-11614674D02*
X5227672Y-11605150D01*
X5227672Y-11605150D02*
X5256244Y-11605150D01*
X5256244Y-11605150D02*
X5275291Y-11614674D01*
X5275291Y-11614674D02*
X5284815Y-11633722D01*
X5284815Y-11633722D02*
X5284815Y-11738484D01*
X5675291Y-11528960D02*
X5503863Y-11786103D01*
X5932434Y-11538484D02*
X5951482Y-11538484D01*
X5951482Y-11538484D02*
X5970529Y-11548008D01*
X5970529Y-11548008D02*
X5980053Y-11557531D01*
X5980053Y-11557531D02*
X5989577Y-11576579D01*
X5989577Y-11576579D02*
X5999101Y-11614674D01*
X5999101Y-11614674D02*
X5999101Y-11662293D01*
X5999101Y-11662293D02*
X5989577Y-11700388D01*
X5989577Y-11700388D02*
X5980053Y-11719436D01*
X5980053Y-11719436D02*
X5970529Y-11728960D01*
X5970529Y-11728960D02*
X5951482Y-11738484D01*
X5951482Y-11738484D02*
X5932434Y-11738484D01*
X5932434Y-11738484D02*
X5913386Y-11728960D01*
X5913386Y-11728960D02*
X5903863Y-11719436D01*
X5903863Y-11719436D02*
X5894339Y-11700388D01*
X5894339Y-11700388D02*
X5884815Y-11662293D01*
X5884815Y-11662293D02*
X5884815Y-11614674D01*
X5884815Y-11614674D02*
X5894339Y-11576579D01*
X5894339Y-11576579D02*
X5903863Y-11557531D01*
X5903863Y-11557531D02*
X5913386Y-11548008D01*
X5913386Y-11548008D02*
X5932434Y-11538484D01*
X6084815Y-11719436D02*
X6094339Y-11728960D01*
X6094339Y-11728960D02*
X6084815Y-11738484D01*
X6084815Y-11738484D02*
X6075291Y-11728960D01*
X6075291Y-11728960D02*
X6084815Y-11719436D01*
X6084815Y-11719436D02*
X6084815Y-11738484D01*
X6218148Y-11538484D02*
X6237196Y-11538484D01*
X6237196Y-11538484D02*
X6256244Y-11548008D01*
X6256244Y-11548008D02*
X6265767Y-11557531D01*
X6265767Y-11557531D02*
X6275291Y-11576579D01*
X6275291Y-11576579D02*
X6284815Y-11614674D01*
X6284815Y-11614674D02*
X6284815Y-11662293D01*
X6284815Y-11662293D02*
X6275291Y-11700388D01*
X6275291Y-11700388D02*
X6265767Y-11719436D01*
X6265767Y-11719436D02*
X6256244Y-11728960D01*
X6256244Y-11728960D02*
X6237196Y-11738484D01*
X6237196Y-11738484D02*
X6218148Y-11738484D01*
X6218148Y-11738484D02*
X6199101Y-11728960D01*
X6199101Y-11728960D02*
X6189577Y-11719436D01*
X6189577Y-11719436D02*
X6180053Y-11700388D01*
X6180053Y-11700388D02*
X6170529Y-11662293D01*
X6170529Y-11662293D02*
X6170529Y-11614674D01*
X6170529Y-11614674D02*
X6180053Y-11576579D01*
X6180053Y-11576579D02*
X6189577Y-11557531D01*
X6189577Y-11557531D02*
X6199101Y-11548008D01*
X6199101Y-11548008D02*
X6218148Y-11538484D01*
X6456244Y-11605150D02*
X6456244Y-11738484D01*
X6408625Y-11528960D02*
X6361006Y-11671817D01*
X6361006Y-11671817D02*
X6484815Y-11671817D01*
X6656244Y-11538484D02*
X6561006Y-11538484D01*
X6561006Y-11538484D02*
X6551482Y-11633722D01*
X6551482Y-11633722D02*
X6561006Y-11624198D01*
X6561006Y-11624198D02*
X6580053Y-11614674D01*
X6580053Y-11614674D02*
X6627672Y-11614674D01*
X6627672Y-11614674D02*
X6646720Y-11624198D01*
X6646720Y-11624198D02*
X6656244Y-11633722D01*
X6656244Y-11633722D02*
X6665767Y-11652769D01*
X6665767Y-11652769D02*
X6665767Y-11700388D01*
X6665767Y-11700388D02*
X6656244Y-11719436D01*
X6656244Y-11719436D02*
X6646720Y-11728960D01*
X6646720Y-11728960D02*
X6627672Y-11738484D01*
X6627672Y-11738484D02*
X6580053Y-11738484D01*
X6580053Y-11738484D02*
X6561006Y-11728960D01*
X6561006Y-11728960D02*
X6551482Y-11719436D01*
X6789577Y-11538484D02*
X6808625Y-11538484D01*
X6808625Y-11538484D02*
X6827672Y-11548008D01*
X6827672Y-11548008D02*
X6837196Y-11557531D01*
X6837196Y-11557531D02*
X6846720Y-11576579D01*
X6846720Y-11576579D02*
X6856244Y-11614674D01*
X6856244Y-11614674D02*
X6856244Y-11662293D01*
X6856244Y-11662293D02*
X6846720Y-11700388D01*
X6846720Y-11700388D02*
X6837196Y-11719436D01*
X6837196Y-11719436D02*
X6827672Y-11728960D01*
X6827672Y-11728960D02*
X6808625Y-11738484D01*
X6808625Y-11738484D02*
X6789577Y-11738484D01*
X6789577Y-11738484D02*
X6770529Y-11728960D01*
X6770529Y-11728960D02*
X6761006Y-11719436D01*
X6761006Y-11719436D02*
X6751482Y-11700388D01*
X6751482Y-11700388D02*
X6741958Y-11662293D01*
X6741958Y-11662293D02*
X6741958Y-11614674D01*
X6741958Y-11614674D02*
X6751482Y-11576579D01*
X6751482Y-11576579D02*
X6761006Y-11557531D01*
X6761006Y-11557531D02*
X6770529Y-11548008D01*
X6770529Y-11548008D02*
X6789577Y-11538484D01*
X6932434Y-11538484D02*
X6932434Y-11576579D01*
X7008625Y-11538484D02*
X7008625Y-11576579D01*
X7303863Y-11814674D02*
X7294339Y-11805150D01*
X7294339Y-11805150D02*
X7275291Y-11776579D01*
X7275291Y-11776579D02*
X7265768Y-11757531D01*
X7265768Y-11757531D02*
X7256244Y-11728960D01*
X7256244Y-11728960D02*
X7246720Y-11681341D01*
X7246720Y-11681341D02*
X7246720Y-11643246D01*
X7246720Y-11643246D02*
X7256244Y-11595627D01*
X7256244Y-11595627D02*
X7265768Y-11567055D01*
X7265768Y-11567055D02*
X7275291Y-11548008D01*
X7275291Y-11548008D02*
X7294339Y-11519436D01*
X7294339Y-11519436D02*
X7303863Y-11509912D01*
X7361006Y-11538484D02*
X7494339Y-11538484D01*
X7494339Y-11538484D02*
X7408625Y-11738484D01*
X7722910Y-11738484D02*
X7722910Y-11538484D01*
X7808625Y-11738484D02*
X7808625Y-11633722D01*
X7808625Y-11633722D02*
X7799101Y-11614674D01*
X7799101Y-11614674D02*
X7780053Y-11605150D01*
X7780053Y-11605150D02*
X7751482Y-11605150D01*
X7751482Y-11605150D02*
X7732434Y-11614674D01*
X7732434Y-11614674D02*
X7722910Y-11624198D01*
X7932434Y-11738484D02*
X7913387Y-11728960D01*
X7913387Y-11728960D02*
X7903863Y-11719436D01*
X7903863Y-11719436D02*
X7894339Y-11700388D01*
X7894339Y-11700388D02*
X7894339Y-11643246D01*
X7894339Y-11643246D02*
X7903863Y-11624198D01*
X7903863Y-11624198D02*
X7913387Y-11614674D01*
X7913387Y-11614674D02*
X7932434Y-11605150D01*
X7932434Y-11605150D02*
X7961006Y-11605150D01*
X7961006Y-11605150D02*
X7980053Y-11614674D01*
X7980053Y-11614674D02*
X7989577Y-11624198D01*
X7989577Y-11624198D02*
X7999101Y-11643246D01*
X7999101Y-11643246D02*
X7999101Y-11700388D01*
X7999101Y-11700388D02*
X7989577Y-11719436D01*
X7989577Y-11719436D02*
X7980053Y-11728960D01*
X7980053Y-11728960D02*
X7961006Y-11738484D01*
X7961006Y-11738484D02*
X7932434Y-11738484D01*
X8113387Y-11738484D02*
X8094339Y-11728960D01*
X8094339Y-11728960D02*
X8084815Y-11709912D01*
X8084815Y-11709912D02*
X8084815Y-11538484D01*
X8265768Y-11728960D02*
X8246720Y-11738484D01*
X8246720Y-11738484D02*
X8208625Y-11738484D01*
X8208625Y-11738484D02*
X8189577Y-11728960D01*
X8189577Y-11728960D02*
X8180053Y-11709912D01*
X8180053Y-11709912D02*
X8180053Y-11633722D01*
X8180053Y-11633722D02*
X8189577Y-11614674D01*
X8189577Y-11614674D02*
X8208625Y-11605150D01*
X8208625Y-11605150D02*
X8246720Y-11605150D01*
X8246720Y-11605150D02*
X8265768Y-11614674D01*
X8265768Y-11614674D02*
X8275291Y-11633722D01*
X8275291Y-11633722D02*
X8275291Y-11652769D01*
X8275291Y-11652769D02*
X8180053Y-11671817D01*
X8351482Y-11728960D02*
X8370530Y-11738484D01*
X8370530Y-11738484D02*
X8408625Y-11738484D01*
X8408625Y-11738484D02*
X8427673Y-11728960D01*
X8427673Y-11728960D02*
X8437196Y-11709912D01*
X8437196Y-11709912D02*
X8437196Y-11700388D01*
X8437196Y-11700388D02*
X8427673Y-11681341D01*
X8427673Y-11681341D02*
X8408625Y-11671817D01*
X8408625Y-11671817D02*
X8380053Y-11671817D01*
X8380053Y-11671817D02*
X8361006Y-11662293D01*
X8361006Y-11662293D02*
X8351482Y-11643246D01*
X8351482Y-11643246D02*
X8351482Y-11633722D01*
X8351482Y-11633722D02*
X8361006Y-11614674D01*
X8361006Y-11614674D02*
X8380053Y-11605150D01*
X8380053Y-11605150D02*
X8408625Y-11605150D01*
X8408625Y-11605150D02*
X8427673Y-11614674D01*
X8503863Y-11814674D02*
X8513387Y-11805150D01*
X8513387Y-11805150D02*
X8532434Y-11776579D01*
X8532434Y-11776579D02*
X8541958Y-11757531D01*
X8541958Y-11757531D02*
X8551482Y-11728960D01*
X8551482Y-11728960D02*
X8561006Y-11681341D01*
X8561006Y-11681341D02*
X8561006Y-11643246D01*
X8561006Y-11643246D02*
X8551482Y-11595627D01*
X8551482Y-11595627D02*
X8541958Y-11567055D01*
X8541958Y-11567055D02*
X8532434Y-11548008D01*
X8532434Y-11548008D02*
X8513387Y-11519436D01*
X8513387Y-11519436D02*
X8503863Y-11509912D01*
D15*
X3664030Y-11846230D02*
X3664030Y-11975770D01*
X3599260Y-11911000D02*
X3728800Y-11911000D01*
X3728800Y-11911000D02*
G75*
G03*
X3599260Y-11911000I-64770J0D01*
G01*
X3599260Y-11911000D02*
G75*
G03*
X3728800Y-11911000I64770J0D01*
G01*
D11*
X4094339Y-12002484D02*
X3980053Y-12002484D01*
X4037196Y-12002484D02*
X4037196Y-11802484D01*
X4037196Y-11802484D02*
X4018148Y-11831055D01*
X4018148Y-11831055D02*
X3999101Y-11850103D01*
X3999101Y-11850103D02*
X3980053Y-11859627D01*
X4180053Y-11983436D02*
X4189577Y-11992960D01*
X4189577Y-11992960D02*
X4180053Y-12002484D01*
X4180053Y-12002484D02*
X4170529Y-11992960D01*
X4170529Y-11992960D02*
X4180053Y-11983436D01*
X4180053Y-11983436D02*
X4180053Y-12002484D01*
X4265767Y-11821531D02*
X4275291Y-11812008D01*
X4275291Y-11812008D02*
X4294339Y-11802484D01*
X4294339Y-11802484D02*
X4341958Y-11802484D01*
X4341958Y-11802484D02*
X4361005Y-11812008D01*
X4361005Y-11812008D02*
X4370529Y-11821531D01*
X4370529Y-11821531D02*
X4380053Y-11840579D01*
X4380053Y-11840579D02*
X4380053Y-11859627D01*
X4380053Y-11859627D02*
X4370529Y-11888198D01*
X4370529Y-11888198D02*
X4256244Y-12002484D01*
X4256244Y-12002484D02*
X4380053Y-12002484D01*
X4475291Y-12002484D02*
X4513386Y-12002484D01*
X4513386Y-12002484D02*
X4532434Y-11992960D01*
X4532434Y-11992960D02*
X4541958Y-11983436D01*
X4541958Y-11983436D02*
X4561005Y-11954865D01*
X4561005Y-11954865D02*
X4570529Y-11916769D01*
X4570529Y-11916769D02*
X4570529Y-11840579D01*
X4570529Y-11840579D02*
X4561005Y-11821531D01*
X4561005Y-11821531D02*
X4551482Y-11812008D01*
X4551482Y-11812008D02*
X4532434Y-11802484D01*
X4532434Y-11802484D02*
X4494339Y-11802484D01*
X4494339Y-11802484D02*
X4475291Y-11812008D01*
X4475291Y-11812008D02*
X4465767Y-11821531D01*
X4465767Y-11821531D02*
X4456244Y-11840579D01*
X4456244Y-11840579D02*
X4456244Y-11888198D01*
X4456244Y-11888198D02*
X4465767Y-11907246D01*
X4465767Y-11907246D02*
X4475291Y-11916769D01*
X4475291Y-11916769D02*
X4494339Y-11926293D01*
X4494339Y-11926293D02*
X4532434Y-11926293D01*
X4532434Y-11926293D02*
X4551482Y-11916769D01*
X4551482Y-11916769D02*
X4561005Y-11907246D01*
X4561005Y-11907246D02*
X4570529Y-11888198D01*
X4751482Y-11802484D02*
X4656244Y-11802484D01*
X4656244Y-11802484D02*
X4646720Y-11897722D01*
X4646720Y-11897722D02*
X4656244Y-11888198D01*
X4656244Y-11888198D02*
X4675291Y-11878674D01*
X4675291Y-11878674D02*
X4722910Y-11878674D01*
X4722910Y-11878674D02*
X4741958Y-11888198D01*
X4741958Y-11888198D02*
X4751482Y-11897722D01*
X4751482Y-11897722D02*
X4761005Y-11916769D01*
X4761005Y-11916769D02*
X4761005Y-11964388D01*
X4761005Y-11964388D02*
X4751482Y-11983436D01*
X4751482Y-11983436D02*
X4741958Y-11992960D01*
X4741958Y-11992960D02*
X4722910Y-12002484D01*
X4722910Y-12002484D02*
X4675291Y-12002484D01*
X4675291Y-12002484D02*
X4656244Y-11992960D01*
X4656244Y-11992960D02*
X4646720Y-11983436D01*
X4846720Y-12002484D02*
X4846720Y-11869150D01*
X4846720Y-11888198D02*
X4856244Y-11878674D01*
X4856244Y-11878674D02*
X4875291Y-11869150D01*
X4875291Y-11869150D02*
X4903863Y-11869150D01*
X4903863Y-11869150D02*
X4922910Y-11878674D01*
X4922910Y-11878674D02*
X4932434Y-11897722D01*
X4932434Y-11897722D02*
X4932434Y-12002484D01*
X4932434Y-11897722D02*
X4941958Y-11878674D01*
X4941958Y-11878674D02*
X4961005Y-11869150D01*
X4961005Y-11869150D02*
X4989577Y-11869150D01*
X4989577Y-11869150D02*
X5008625Y-11878674D01*
X5008625Y-11878674D02*
X5018148Y-11897722D01*
X5018148Y-11897722D02*
X5018148Y-12002484D01*
X5113386Y-12002484D02*
X5113386Y-11869150D01*
X5113386Y-11888198D02*
X5122910Y-11878674D01*
X5122910Y-11878674D02*
X5141958Y-11869150D01*
X5141958Y-11869150D02*
X5170529Y-11869150D01*
X5170529Y-11869150D02*
X5189577Y-11878674D01*
X5189577Y-11878674D02*
X5199101Y-11897722D01*
X5199101Y-11897722D02*
X5199101Y-12002484D01*
X5199101Y-11897722D02*
X5208625Y-11878674D01*
X5208625Y-11878674D02*
X5227672Y-11869150D01*
X5227672Y-11869150D02*
X5256244Y-11869150D01*
X5256244Y-11869150D02*
X5275291Y-11878674D01*
X5275291Y-11878674D02*
X5284815Y-11897722D01*
X5284815Y-11897722D02*
X5284815Y-12002484D01*
X5675291Y-11792960D02*
X5503863Y-12050103D01*
X5932434Y-11802484D02*
X5951482Y-11802484D01*
X5951482Y-11802484D02*
X5970529Y-11812008D01*
X5970529Y-11812008D02*
X5980053Y-11821531D01*
X5980053Y-11821531D02*
X5989577Y-11840579D01*
X5989577Y-11840579D02*
X5999101Y-11878674D01*
X5999101Y-11878674D02*
X5999101Y-11926293D01*
X5999101Y-11926293D02*
X5989577Y-11964388D01*
X5989577Y-11964388D02*
X5980053Y-11983436D01*
X5980053Y-11983436D02*
X5970529Y-11992960D01*
X5970529Y-11992960D02*
X5951482Y-12002484D01*
X5951482Y-12002484D02*
X5932434Y-12002484D01*
X5932434Y-12002484D02*
X5913386Y-11992960D01*
X5913386Y-11992960D02*
X5903863Y-11983436D01*
X5903863Y-11983436D02*
X5894339Y-11964388D01*
X5894339Y-11964388D02*
X5884815Y-11926293D01*
X5884815Y-11926293D02*
X5884815Y-11878674D01*
X5884815Y-11878674D02*
X5894339Y-11840579D01*
X5894339Y-11840579D02*
X5903863Y-11821531D01*
X5903863Y-11821531D02*
X5913386Y-11812008D01*
X5913386Y-11812008D02*
X5932434Y-11802484D01*
X6084815Y-11983436D02*
X6094339Y-11992960D01*
X6094339Y-11992960D02*
X6084815Y-12002484D01*
X6084815Y-12002484D02*
X6075291Y-11992960D01*
X6075291Y-11992960D02*
X6084815Y-11983436D01*
X6084815Y-11983436D02*
X6084815Y-12002484D01*
X6218148Y-11802484D02*
X6237196Y-11802484D01*
X6237196Y-11802484D02*
X6256244Y-11812008D01*
X6256244Y-11812008D02*
X6265767Y-11821531D01*
X6265767Y-11821531D02*
X6275291Y-11840579D01*
X6275291Y-11840579D02*
X6284815Y-11878674D01*
X6284815Y-11878674D02*
X6284815Y-11926293D01*
X6284815Y-11926293D02*
X6275291Y-11964388D01*
X6275291Y-11964388D02*
X6265767Y-11983436D01*
X6265767Y-11983436D02*
X6256244Y-11992960D01*
X6256244Y-11992960D02*
X6237196Y-12002484D01*
X6237196Y-12002484D02*
X6218148Y-12002484D01*
X6218148Y-12002484D02*
X6199101Y-11992960D01*
X6199101Y-11992960D02*
X6189577Y-11983436D01*
X6189577Y-11983436D02*
X6180053Y-11964388D01*
X6180053Y-11964388D02*
X6170529Y-11926293D01*
X6170529Y-11926293D02*
X6170529Y-11878674D01*
X6170529Y-11878674D02*
X6180053Y-11840579D01*
X6180053Y-11840579D02*
X6189577Y-11821531D01*
X6189577Y-11821531D02*
X6199101Y-11812008D01*
X6199101Y-11812008D02*
X6218148Y-11802484D01*
X6465767Y-11802484D02*
X6370529Y-11802484D01*
X6370529Y-11802484D02*
X6361006Y-11897722D01*
X6361006Y-11897722D02*
X6370529Y-11888198D01*
X6370529Y-11888198D02*
X6389577Y-11878674D01*
X6389577Y-11878674D02*
X6437196Y-11878674D01*
X6437196Y-11878674D02*
X6456244Y-11888198D01*
X6456244Y-11888198D02*
X6465767Y-11897722D01*
X6465767Y-11897722D02*
X6475291Y-11916769D01*
X6475291Y-11916769D02*
X6475291Y-11964388D01*
X6475291Y-11964388D02*
X6465767Y-11983436D01*
X6465767Y-11983436D02*
X6456244Y-11992960D01*
X6456244Y-11992960D02*
X6437196Y-12002484D01*
X6437196Y-12002484D02*
X6389577Y-12002484D01*
X6389577Y-12002484D02*
X6370529Y-11992960D01*
X6370529Y-11992960D02*
X6361006Y-11983436D01*
X6665767Y-12002484D02*
X6551482Y-12002484D01*
X6608625Y-12002484D02*
X6608625Y-11802484D01*
X6608625Y-11802484D02*
X6589577Y-11831055D01*
X6589577Y-11831055D02*
X6570529Y-11850103D01*
X6570529Y-11850103D02*
X6551482Y-11859627D01*
X6789577Y-11802484D02*
X6808625Y-11802484D01*
X6808625Y-11802484D02*
X6827672Y-11812008D01*
X6827672Y-11812008D02*
X6837196Y-11821531D01*
X6837196Y-11821531D02*
X6846720Y-11840579D01*
X6846720Y-11840579D02*
X6856244Y-11878674D01*
X6856244Y-11878674D02*
X6856244Y-11926293D01*
X6856244Y-11926293D02*
X6846720Y-11964388D01*
X6846720Y-11964388D02*
X6837196Y-11983436D01*
X6837196Y-11983436D02*
X6827672Y-11992960D01*
X6827672Y-11992960D02*
X6808625Y-12002484D01*
X6808625Y-12002484D02*
X6789577Y-12002484D01*
X6789577Y-12002484D02*
X6770529Y-11992960D01*
X6770529Y-11992960D02*
X6761006Y-11983436D01*
X6761006Y-11983436D02*
X6751482Y-11964388D01*
X6751482Y-11964388D02*
X6741958Y-11926293D01*
X6741958Y-11926293D02*
X6741958Y-11878674D01*
X6741958Y-11878674D02*
X6751482Y-11840579D01*
X6751482Y-11840579D02*
X6761006Y-11821531D01*
X6761006Y-11821531D02*
X6770529Y-11812008D01*
X6770529Y-11812008D02*
X6789577Y-11802484D01*
X6932434Y-11802484D02*
X6932434Y-11840579D01*
X7008625Y-11802484D02*
X7008625Y-11840579D01*
X7303863Y-12078674D02*
X7294339Y-12069150D01*
X7294339Y-12069150D02*
X7275291Y-12040579D01*
X7275291Y-12040579D02*
X7265768Y-12021531D01*
X7265768Y-12021531D02*
X7256244Y-11992960D01*
X7256244Y-11992960D02*
X7246720Y-11945341D01*
X7246720Y-11945341D02*
X7246720Y-11907246D01*
X7246720Y-11907246D02*
X7256244Y-11859627D01*
X7256244Y-11859627D02*
X7265768Y-11831055D01*
X7265768Y-11831055D02*
X7275291Y-11812008D01*
X7275291Y-11812008D02*
X7294339Y-11783436D01*
X7294339Y-11783436D02*
X7303863Y-11773912D01*
X7370529Y-11821531D02*
X7380053Y-11812008D01*
X7380053Y-11812008D02*
X7399101Y-11802484D01*
X7399101Y-11802484D02*
X7446720Y-11802484D01*
X7446720Y-11802484D02*
X7465768Y-11812008D01*
X7465768Y-11812008D02*
X7475291Y-11821531D01*
X7475291Y-11821531D02*
X7484815Y-11840579D01*
X7484815Y-11840579D02*
X7484815Y-11859627D01*
X7484815Y-11859627D02*
X7475291Y-11888198D01*
X7475291Y-11888198D02*
X7361006Y-12002484D01*
X7361006Y-12002484D02*
X7484815Y-12002484D01*
X7722910Y-12002484D02*
X7722910Y-11802484D01*
X7808625Y-12002484D02*
X7808625Y-11897722D01*
X7808625Y-11897722D02*
X7799101Y-11878674D01*
X7799101Y-11878674D02*
X7780053Y-11869150D01*
X7780053Y-11869150D02*
X7751482Y-11869150D01*
X7751482Y-11869150D02*
X7732434Y-11878674D01*
X7732434Y-11878674D02*
X7722910Y-11888198D01*
X7932434Y-12002484D02*
X7913387Y-11992960D01*
X7913387Y-11992960D02*
X7903863Y-11983436D01*
X7903863Y-11983436D02*
X7894339Y-11964388D01*
X7894339Y-11964388D02*
X7894339Y-11907246D01*
X7894339Y-11907246D02*
X7903863Y-11888198D01*
X7903863Y-11888198D02*
X7913387Y-11878674D01*
X7913387Y-11878674D02*
X7932434Y-11869150D01*
X7932434Y-11869150D02*
X7961006Y-11869150D01*
X7961006Y-11869150D02*
X7980053Y-11878674D01*
X7980053Y-11878674D02*
X7989577Y-11888198D01*
X7989577Y-11888198D02*
X7999101Y-11907246D01*
X7999101Y-11907246D02*
X7999101Y-11964388D01*
X7999101Y-11964388D02*
X7989577Y-11983436D01*
X7989577Y-11983436D02*
X7980053Y-11992960D01*
X7980053Y-11992960D02*
X7961006Y-12002484D01*
X7961006Y-12002484D02*
X7932434Y-12002484D01*
X8113387Y-12002484D02*
X8094339Y-11992960D01*
X8094339Y-11992960D02*
X8084815Y-11973912D01*
X8084815Y-11973912D02*
X8084815Y-11802484D01*
X8265768Y-11992960D02*
X8246720Y-12002484D01*
X8246720Y-12002484D02*
X8208625Y-12002484D01*
X8208625Y-12002484D02*
X8189577Y-11992960D01*
X8189577Y-11992960D02*
X8180053Y-11973912D01*
X8180053Y-11973912D02*
X8180053Y-11897722D01*
X8180053Y-11897722D02*
X8189577Y-11878674D01*
X8189577Y-11878674D02*
X8208625Y-11869150D01*
X8208625Y-11869150D02*
X8246720Y-11869150D01*
X8246720Y-11869150D02*
X8265768Y-11878674D01*
X8265768Y-11878674D02*
X8275291Y-11897722D01*
X8275291Y-11897722D02*
X8275291Y-11916769D01*
X8275291Y-11916769D02*
X8180053Y-11935817D01*
X8351482Y-11992960D02*
X8370530Y-12002484D01*
X8370530Y-12002484D02*
X8408625Y-12002484D01*
X8408625Y-12002484D02*
X8427673Y-11992960D01*
X8427673Y-11992960D02*
X8437196Y-11973912D01*
X8437196Y-11973912D02*
X8437196Y-11964388D01*
X8437196Y-11964388D02*
X8427673Y-11945341D01*
X8427673Y-11945341D02*
X8408625Y-11935817D01*
X8408625Y-11935817D02*
X8380053Y-11935817D01*
X8380053Y-11935817D02*
X8361006Y-11926293D01*
X8361006Y-11926293D02*
X8351482Y-11907246D01*
X8351482Y-11907246D02*
X8351482Y-11897722D01*
X8351482Y-11897722D02*
X8361006Y-11878674D01*
X8361006Y-11878674D02*
X8380053Y-11869150D01*
X8380053Y-11869150D02*
X8408625Y-11869150D01*
X8408625Y-11869150D02*
X8427673Y-11878674D01*
X8503863Y-12078674D02*
X8513387Y-12069150D01*
X8513387Y-12069150D02*
X8532434Y-12040579D01*
X8532434Y-12040579D02*
X8541958Y-12021531D01*
X8541958Y-12021531D02*
X8551482Y-11992960D01*
X8551482Y-11992960D02*
X8561006Y-11945341D01*
X8561006Y-11945341D02*
X8561006Y-11907246D01*
X8561006Y-11907246D02*
X8551482Y-11859627D01*
X8551482Y-11859627D02*
X8541958Y-11831055D01*
X8541958Y-11831055D02*
X8532434Y-11812008D01*
X8532434Y-11812008D02*
X8513387Y-11783436D01*
X8513387Y-11783436D02*
X8503863Y-11773912D01*
D16*
X3708342Y-12224392D02*
X3708342Y-12125608D01*
X3609558Y-12125608D01*
X3609558Y-12224392D01*
X3708342Y-12224392D01*
X3728800Y-12175000D02*
G75*
G03*
X3589100Y-12175000I-69850J0D01*
G01*
X3589100Y-12175000D02*
G75*
G03*
X3728800Y-12175000I69850J0D01*
G01*
D11*
X4094339Y-12266484D02*
X3980053Y-12266484D01*
X4037196Y-12266484D02*
X4037196Y-12066484D01*
X4037196Y-12066484D02*
X4018148Y-12095055D01*
X4018148Y-12095055D02*
X3999101Y-12114103D01*
X3999101Y-12114103D02*
X3980053Y-12123627D01*
X4180053Y-12247436D02*
X4189577Y-12256960D01*
X4189577Y-12256960D02*
X4180053Y-12266484D01*
X4180053Y-12266484D02*
X4170529Y-12256960D01*
X4170529Y-12256960D02*
X4180053Y-12247436D01*
X4180053Y-12247436D02*
X4180053Y-12266484D01*
X4256244Y-12066484D02*
X4380053Y-12066484D01*
X4380053Y-12066484D02*
X4313386Y-12142674D01*
X4313386Y-12142674D02*
X4341958Y-12142674D01*
X4341958Y-12142674D02*
X4361005Y-12152198D01*
X4361005Y-12152198D02*
X4370529Y-12161722D01*
X4370529Y-12161722D02*
X4380053Y-12180769D01*
X4380053Y-12180769D02*
X4380053Y-12228388D01*
X4380053Y-12228388D02*
X4370529Y-12247436D01*
X4370529Y-12247436D02*
X4361005Y-12256960D01*
X4361005Y-12256960D02*
X4341958Y-12266484D01*
X4341958Y-12266484D02*
X4284815Y-12266484D01*
X4284815Y-12266484D02*
X4265767Y-12256960D01*
X4265767Y-12256960D02*
X4256244Y-12247436D01*
X4475291Y-12266484D02*
X4513386Y-12266484D01*
X4513386Y-12266484D02*
X4532434Y-12256960D01*
X4532434Y-12256960D02*
X4541958Y-12247436D01*
X4541958Y-12247436D02*
X4561005Y-12218865D01*
X4561005Y-12218865D02*
X4570529Y-12180769D01*
X4570529Y-12180769D02*
X4570529Y-12104579D01*
X4570529Y-12104579D02*
X4561005Y-12085531D01*
X4561005Y-12085531D02*
X4551482Y-12076008D01*
X4551482Y-12076008D02*
X4532434Y-12066484D01*
X4532434Y-12066484D02*
X4494339Y-12066484D01*
X4494339Y-12066484D02*
X4475291Y-12076008D01*
X4475291Y-12076008D02*
X4465767Y-12085531D01*
X4465767Y-12085531D02*
X4456244Y-12104579D01*
X4456244Y-12104579D02*
X4456244Y-12152198D01*
X4456244Y-12152198D02*
X4465767Y-12171246D01*
X4465767Y-12171246D02*
X4475291Y-12180769D01*
X4475291Y-12180769D02*
X4494339Y-12190293D01*
X4494339Y-12190293D02*
X4532434Y-12190293D01*
X4532434Y-12190293D02*
X4551482Y-12180769D01*
X4551482Y-12180769D02*
X4561005Y-12171246D01*
X4561005Y-12171246D02*
X4570529Y-12152198D01*
X4637196Y-12066484D02*
X4770529Y-12066484D01*
X4770529Y-12066484D02*
X4684815Y-12266484D01*
X4846720Y-12266484D02*
X4846720Y-12133150D01*
X4846720Y-12152198D02*
X4856244Y-12142674D01*
X4856244Y-12142674D02*
X4875291Y-12133150D01*
X4875291Y-12133150D02*
X4903863Y-12133150D01*
X4903863Y-12133150D02*
X4922910Y-12142674D01*
X4922910Y-12142674D02*
X4932434Y-12161722D01*
X4932434Y-12161722D02*
X4932434Y-12266484D01*
X4932434Y-12161722D02*
X4941958Y-12142674D01*
X4941958Y-12142674D02*
X4961005Y-12133150D01*
X4961005Y-12133150D02*
X4989577Y-12133150D01*
X4989577Y-12133150D02*
X5008625Y-12142674D01*
X5008625Y-12142674D02*
X5018148Y-12161722D01*
X5018148Y-12161722D02*
X5018148Y-12266484D01*
X5113386Y-12266484D02*
X5113386Y-12133150D01*
X5113386Y-12152198D02*
X5122910Y-12142674D01*
X5122910Y-12142674D02*
X5141958Y-12133150D01*
X5141958Y-12133150D02*
X5170529Y-12133150D01*
X5170529Y-12133150D02*
X5189577Y-12142674D01*
X5189577Y-12142674D02*
X5199101Y-12161722D01*
X5199101Y-12161722D02*
X5199101Y-12266484D01*
X5199101Y-12161722D02*
X5208625Y-12142674D01*
X5208625Y-12142674D02*
X5227672Y-12133150D01*
X5227672Y-12133150D02*
X5256244Y-12133150D01*
X5256244Y-12133150D02*
X5275291Y-12142674D01*
X5275291Y-12142674D02*
X5284815Y-12161722D01*
X5284815Y-12161722D02*
X5284815Y-12266484D01*
X5675291Y-12056960D02*
X5503863Y-12314103D01*
X5932434Y-12066484D02*
X5951482Y-12066484D01*
X5951482Y-12066484D02*
X5970529Y-12076008D01*
X5970529Y-12076008D02*
X5980053Y-12085531D01*
X5980053Y-12085531D02*
X5989577Y-12104579D01*
X5989577Y-12104579D02*
X5999101Y-12142674D01*
X5999101Y-12142674D02*
X5999101Y-12190293D01*
X5999101Y-12190293D02*
X5989577Y-12228388D01*
X5989577Y-12228388D02*
X5980053Y-12247436D01*
X5980053Y-12247436D02*
X5970529Y-12256960D01*
X5970529Y-12256960D02*
X5951482Y-12266484D01*
X5951482Y-12266484D02*
X5932434Y-12266484D01*
X5932434Y-12266484D02*
X5913386Y-12256960D01*
X5913386Y-12256960D02*
X5903863Y-12247436D01*
X5903863Y-12247436D02*
X5894339Y-12228388D01*
X5894339Y-12228388D02*
X5884815Y-12190293D01*
X5884815Y-12190293D02*
X5884815Y-12142674D01*
X5884815Y-12142674D02*
X5894339Y-12104579D01*
X5894339Y-12104579D02*
X5903863Y-12085531D01*
X5903863Y-12085531D02*
X5913386Y-12076008D01*
X5913386Y-12076008D02*
X5932434Y-12066484D01*
X6084815Y-12247436D02*
X6094339Y-12256960D01*
X6094339Y-12256960D02*
X6084815Y-12266484D01*
X6084815Y-12266484D02*
X6075291Y-12256960D01*
X6075291Y-12256960D02*
X6084815Y-12247436D01*
X6084815Y-12247436D02*
X6084815Y-12266484D01*
X6218148Y-12066484D02*
X6237196Y-12066484D01*
X6237196Y-12066484D02*
X6256244Y-12076008D01*
X6256244Y-12076008D02*
X6265767Y-12085531D01*
X6265767Y-12085531D02*
X6275291Y-12104579D01*
X6275291Y-12104579D02*
X6284815Y-12142674D01*
X6284815Y-12142674D02*
X6284815Y-12190293D01*
X6284815Y-12190293D02*
X6275291Y-12228388D01*
X6275291Y-12228388D02*
X6265767Y-12247436D01*
X6265767Y-12247436D02*
X6256244Y-12256960D01*
X6256244Y-12256960D02*
X6237196Y-12266484D01*
X6237196Y-12266484D02*
X6218148Y-12266484D01*
X6218148Y-12266484D02*
X6199101Y-12256960D01*
X6199101Y-12256960D02*
X6189577Y-12247436D01*
X6189577Y-12247436D02*
X6180053Y-12228388D01*
X6180053Y-12228388D02*
X6170529Y-12190293D01*
X6170529Y-12190293D02*
X6170529Y-12142674D01*
X6170529Y-12142674D02*
X6180053Y-12104579D01*
X6180053Y-12104579D02*
X6189577Y-12085531D01*
X6189577Y-12085531D02*
X6199101Y-12076008D01*
X6199101Y-12076008D02*
X6218148Y-12066484D01*
X6465767Y-12066484D02*
X6370529Y-12066484D01*
X6370529Y-12066484D02*
X6361006Y-12161722D01*
X6361006Y-12161722D02*
X6370529Y-12152198D01*
X6370529Y-12152198D02*
X6389577Y-12142674D01*
X6389577Y-12142674D02*
X6437196Y-12142674D01*
X6437196Y-12142674D02*
X6456244Y-12152198D01*
X6456244Y-12152198D02*
X6465767Y-12161722D01*
X6465767Y-12161722D02*
X6475291Y-12180769D01*
X6475291Y-12180769D02*
X6475291Y-12228388D01*
X6475291Y-12228388D02*
X6465767Y-12247436D01*
X6465767Y-12247436D02*
X6456244Y-12256960D01*
X6456244Y-12256960D02*
X6437196Y-12266484D01*
X6437196Y-12266484D02*
X6389577Y-12266484D01*
X6389577Y-12266484D02*
X6370529Y-12256960D01*
X6370529Y-12256960D02*
X6361006Y-12247436D01*
X6656244Y-12066484D02*
X6561006Y-12066484D01*
X6561006Y-12066484D02*
X6551482Y-12161722D01*
X6551482Y-12161722D02*
X6561006Y-12152198D01*
X6561006Y-12152198D02*
X6580053Y-12142674D01*
X6580053Y-12142674D02*
X6627672Y-12142674D01*
X6627672Y-12142674D02*
X6646720Y-12152198D01*
X6646720Y-12152198D02*
X6656244Y-12161722D01*
X6656244Y-12161722D02*
X6665767Y-12180769D01*
X6665767Y-12180769D02*
X6665767Y-12228388D01*
X6665767Y-12228388D02*
X6656244Y-12247436D01*
X6656244Y-12247436D02*
X6646720Y-12256960D01*
X6646720Y-12256960D02*
X6627672Y-12266484D01*
X6627672Y-12266484D02*
X6580053Y-12266484D01*
X6580053Y-12266484D02*
X6561006Y-12256960D01*
X6561006Y-12256960D02*
X6551482Y-12247436D01*
X6789577Y-12066484D02*
X6808625Y-12066484D01*
X6808625Y-12066484D02*
X6827672Y-12076008D01*
X6827672Y-12076008D02*
X6837196Y-12085531D01*
X6837196Y-12085531D02*
X6846720Y-12104579D01*
X6846720Y-12104579D02*
X6856244Y-12142674D01*
X6856244Y-12142674D02*
X6856244Y-12190293D01*
X6856244Y-12190293D02*
X6846720Y-12228388D01*
X6846720Y-12228388D02*
X6837196Y-12247436D01*
X6837196Y-12247436D02*
X6827672Y-12256960D01*
X6827672Y-12256960D02*
X6808625Y-12266484D01*
X6808625Y-12266484D02*
X6789577Y-12266484D01*
X6789577Y-12266484D02*
X6770529Y-12256960D01*
X6770529Y-12256960D02*
X6761006Y-12247436D01*
X6761006Y-12247436D02*
X6751482Y-12228388D01*
X6751482Y-12228388D02*
X6741958Y-12190293D01*
X6741958Y-12190293D02*
X6741958Y-12142674D01*
X6741958Y-12142674D02*
X6751482Y-12104579D01*
X6751482Y-12104579D02*
X6761006Y-12085531D01*
X6761006Y-12085531D02*
X6770529Y-12076008D01*
X6770529Y-12076008D02*
X6789577Y-12066484D01*
X6932434Y-12066484D02*
X6932434Y-12104579D01*
X7008625Y-12066484D02*
X7008625Y-12104579D01*
X7303863Y-12342674D02*
X7294339Y-12333150D01*
X7294339Y-12333150D02*
X7275291Y-12304579D01*
X7275291Y-12304579D02*
X7265768Y-12285531D01*
X7265768Y-12285531D02*
X7256244Y-12256960D01*
X7256244Y-12256960D02*
X7246720Y-12209341D01*
X7246720Y-12209341D02*
X7246720Y-12171246D01*
X7246720Y-12171246D02*
X7256244Y-12123627D01*
X7256244Y-12123627D02*
X7265768Y-12095055D01*
X7265768Y-12095055D02*
X7275291Y-12076008D01*
X7275291Y-12076008D02*
X7294339Y-12047436D01*
X7294339Y-12047436D02*
X7303863Y-12037912D01*
X7484815Y-12266484D02*
X7370529Y-12266484D01*
X7427672Y-12266484D02*
X7427672Y-12066484D01*
X7427672Y-12066484D02*
X7408625Y-12095055D01*
X7408625Y-12095055D02*
X7389577Y-12114103D01*
X7389577Y-12114103D02*
X7370529Y-12123627D01*
X7561006Y-12085531D02*
X7570529Y-12076008D01*
X7570529Y-12076008D02*
X7589577Y-12066484D01*
X7589577Y-12066484D02*
X7637196Y-12066484D01*
X7637196Y-12066484D02*
X7656244Y-12076008D01*
X7656244Y-12076008D02*
X7665768Y-12085531D01*
X7665768Y-12085531D02*
X7675291Y-12104579D01*
X7675291Y-12104579D02*
X7675291Y-12123627D01*
X7675291Y-12123627D02*
X7665768Y-12152198D01*
X7665768Y-12152198D02*
X7551482Y-12266484D01*
X7551482Y-12266484D02*
X7675291Y-12266484D01*
X7913387Y-12266484D02*
X7913387Y-12066484D01*
X7999101Y-12266484D02*
X7999101Y-12161722D01*
X7999101Y-12161722D02*
X7989577Y-12142674D01*
X7989577Y-12142674D02*
X7970530Y-12133150D01*
X7970530Y-12133150D02*
X7941958Y-12133150D01*
X7941958Y-12133150D02*
X7922910Y-12142674D01*
X7922910Y-12142674D02*
X7913387Y-12152198D01*
X8122910Y-12266484D02*
X8103863Y-12256960D01*
X8103863Y-12256960D02*
X8094339Y-12247436D01*
X8094339Y-12247436D02*
X8084815Y-12228388D01*
X8084815Y-12228388D02*
X8084815Y-12171246D01*
X8084815Y-12171246D02*
X8094339Y-12152198D01*
X8094339Y-12152198D02*
X8103863Y-12142674D01*
X8103863Y-12142674D02*
X8122910Y-12133150D01*
X8122910Y-12133150D02*
X8151482Y-12133150D01*
X8151482Y-12133150D02*
X8170530Y-12142674D01*
X8170530Y-12142674D02*
X8180053Y-12152198D01*
X8180053Y-12152198D02*
X8189577Y-12171246D01*
X8189577Y-12171246D02*
X8189577Y-12228388D01*
X8189577Y-12228388D02*
X8180053Y-12247436D01*
X8180053Y-12247436D02*
X8170530Y-12256960D01*
X8170530Y-12256960D02*
X8151482Y-12266484D01*
X8151482Y-12266484D02*
X8122910Y-12266484D01*
X8303863Y-12266484D02*
X8284815Y-12256960D01*
X8284815Y-12256960D02*
X8275291Y-12237912D01*
X8275291Y-12237912D02*
X8275291Y-12066484D01*
X8456244Y-12256960D02*
X8437196Y-12266484D01*
X8437196Y-12266484D02*
X8399101Y-12266484D01*
X8399101Y-12266484D02*
X8380053Y-12256960D01*
X8380053Y-12256960D02*
X8370530Y-12237912D01*
X8370530Y-12237912D02*
X8370530Y-12161722D01*
X8370530Y-12161722D02*
X8380053Y-12142674D01*
X8380053Y-12142674D02*
X8399101Y-12133150D01*
X8399101Y-12133150D02*
X8437196Y-12133150D01*
X8437196Y-12133150D02*
X8456244Y-12142674D01*
X8456244Y-12142674D02*
X8465768Y-12161722D01*
X8465768Y-12161722D02*
X8465768Y-12180769D01*
X8465768Y-12180769D02*
X8370530Y-12199817D01*
X8541958Y-12256960D02*
X8561006Y-12266484D01*
X8561006Y-12266484D02*
X8599101Y-12266484D01*
X8599101Y-12266484D02*
X8618149Y-12256960D01*
X8618149Y-12256960D02*
X8627673Y-12237912D01*
X8627673Y-12237912D02*
X8627673Y-12228388D01*
X8627673Y-12228388D02*
X8618149Y-12209341D01*
X8618149Y-12209341D02*
X8599101Y-12199817D01*
X8599101Y-12199817D02*
X8570530Y-12199817D01*
X8570530Y-12199817D02*
X8551482Y-12190293D01*
X8551482Y-12190293D02*
X8541958Y-12171246D01*
X8541958Y-12171246D02*
X8541958Y-12161722D01*
X8541958Y-12161722D02*
X8551482Y-12142674D01*
X8551482Y-12142674D02*
X8570530Y-12133150D01*
X8570530Y-12133150D02*
X8599101Y-12133150D01*
X8599101Y-12133150D02*
X8618149Y-12142674D01*
X8694339Y-12342674D02*
X8703863Y-12333150D01*
X8703863Y-12333150D02*
X8722911Y-12304579D01*
X8722911Y-12304579D02*
X8732434Y-12285531D01*
X8732434Y-12285531D02*
X8741958Y-12256960D01*
X8741958Y-12256960D02*
X8751482Y-12209341D01*
X8751482Y-12209341D02*
X8751482Y-12171246D01*
X8751482Y-12171246D02*
X8741958Y-12123627D01*
X8741958Y-12123627D02*
X8732434Y-12095055D01*
X8732434Y-12095055D02*
X8722911Y-12076008D01*
X8722911Y-12076008D02*
X8703863Y-12047436D01*
X8703863Y-12047436D02*
X8694339Y-12037912D01*
D17*
X3653870Y-12513930D02*
X3728800Y-12439000D01*
X3653870Y-12364070D01*
X3578940Y-12439000D01*
X3653870Y-12513930D01*
X3728800Y-12439000D02*
G75*
G03*
X3578940Y-12439000I-74930J0D01*
G01*
X3578940Y-12439000D02*
G75*
G03*
X3728800Y-12439000I74930J0D01*
G01*
D11*
X4094339Y-12530484D02*
X3980053Y-12530484D01*
X4037196Y-12530484D02*
X4037196Y-12330484D01*
X4037196Y-12330484D02*
X4018148Y-12359055D01*
X4018148Y-12359055D02*
X3999101Y-12378103D01*
X3999101Y-12378103D02*
X3980053Y-12387627D01*
X4180053Y-12511436D02*
X4189577Y-12520960D01*
X4189577Y-12520960D02*
X4180053Y-12530484D01*
X4180053Y-12530484D02*
X4170529Y-12520960D01*
X4170529Y-12520960D02*
X4180053Y-12511436D01*
X4180053Y-12511436D02*
X4180053Y-12530484D01*
X4361005Y-12397150D02*
X4361005Y-12530484D01*
X4313386Y-12320960D02*
X4265767Y-12463817D01*
X4265767Y-12463817D02*
X4389577Y-12463817D01*
X4475291Y-12530484D02*
X4513386Y-12530484D01*
X4513386Y-12530484D02*
X4532434Y-12520960D01*
X4532434Y-12520960D02*
X4541958Y-12511436D01*
X4541958Y-12511436D02*
X4561005Y-12482865D01*
X4561005Y-12482865D02*
X4570529Y-12444769D01*
X4570529Y-12444769D02*
X4570529Y-12368579D01*
X4570529Y-12368579D02*
X4561005Y-12349531D01*
X4561005Y-12349531D02*
X4551482Y-12340008D01*
X4551482Y-12340008D02*
X4532434Y-12330484D01*
X4532434Y-12330484D02*
X4494339Y-12330484D01*
X4494339Y-12330484D02*
X4475291Y-12340008D01*
X4475291Y-12340008D02*
X4465767Y-12349531D01*
X4465767Y-12349531D02*
X4456244Y-12368579D01*
X4456244Y-12368579D02*
X4456244Y-12416198D01*
X4456244Y-12416198D02*
X4465767Y-12435246D01*
X4465767Y-12435246D02*
X4475291Y-12444769D01*
X4475291Y-12444769D02*
X4494339Y-12454293D01*
X4494339Y-12454293D02*
X4532434Y-12454293D01*
X4532434Y-12454293D02*
X4551482Y-12444769D01*
X4551482Y-12444769D02*
X4561005Y-12435246D01*
X4561005Y-12435246D02*
X4570529Y-12416198D01*
X4665767Y-12530484D02*
X4703863Y-12530484D01*
X4703863Y-12530484D02*
X4722910Y-12520960D01*
X4722910Y-12520960D02*
X4732434Y-12511436D01*
X4732434Y-12511436D02*
X4751482Y-12482865D01*
X4751482Y-12482865D02*
X4761005Y-12444769D01*
X4761005Y-12444769D02*
X4761005Y-12368579D01*
X4761005Y-12368579D02*
X4751482Y-12349531D01*
X4751482Y-12349531D02*
X4741958Y-12340008D01*
X4741958Y-12340008D02*
X4722910Y-12330484D01*
X4722910Y-12330484D02*
X4684815Y-12330484D01*
X4684815Y-12330484D02*
X4665767Y-12340008D01*
X4665767Y-12340008D02*
X4656244Y-12349531D01*
X4656244Y-12349531D02*
X4646720Y-12368579D01*
X4646720Y-12368579D02*
X4646720Y-12416198D01*
X4646720Y-12416198D02*
X4656244Y-12435246D01*
X4656244Y-12435246D02*
X4665767Y-12444769D01*
X4665767Y-12444769D02*
X4684815Y-12454293D01*
X4684815Y-12454293D02*
X4722910Y-12454293D01*
X4722910Y-12454293D02*
X4741958Y-12444769D01*
X4741958Y-12444769D02*
X4751482Y-12435246D01*
X4751482Y-12435246D02*
X4761005Y-12416198D01*
X4846720Y-12530484D02*
X4846720Y-12397150D01*
X4846720Y-12416198D02*
X4856244Y-12406674D01*
X4856244Y-12406674D02*
X4875291Y-12397150D01*
X4875291Y-12397150D02*
X4903863Y-12397150D01*
X4903863Y-12397150D02*
X4922910Y-12406674D01*
X4922910Y-12406674D02*
X4932434Y-12425722D01*
X4932434Y-12425722D02*
X4932434Y-12530484D01*
X4932434Y-12425722D02*
X4941958Y-12406674D01*
X4941958Y-12406674D02*
X4961005Y-12397150D01*
X4961005Y-12397150D02*
X4989577Y-12397150D01*
X4989577Y-12397150D02*
X5008625Y-12406674D01*
X5008625Y-12406674D02*
X5018148Y-12425722D01*
X5018148Y-12425722D02*
X5018148Y-12530484D01*
X5113386Y-12530484D02*
X5113386Y-12397150D01*
X5113386Y-12416198D02*
X5122910Y-12406674D01*
X5122910Y-12406674D02*
X5141958Y-12397150D01*
X5141958Y-12397150D02*
X5170529Y-12397150D01*
X5170529Y-12397150D02*
X5189577Y-12406674D01*
X5189577Y-12406674D02*
X5199101Y-12425722D01*
X5199101Y-12425722D02*
X5199101Y-12530484D01*
X5199101Y-12425722D02*
X5208625Y-12406674D01*
X5208625Y-12406674D02*
X5227672Y-12397150D01*
X5227672Y-12397150D02*
X5256244Y-12397150D01*
X5256244Y-12397150D02*
X5275291Y-12406674D01*
X5275291Y-12406674D02*
X5284815Y-12425722D01*
X5284815Y-12425722D02*
X5284815Y-12530484D01*
X5675291Y-12320960D02*
X5503863Y-12578103D01*
X5932434Y-12330484D02*
X5951482Y-12330484D01*
X5951482Y-12330484D02*
X5970529Y-12340008D01*
X5970529Y-12340008D02*
X5980053Y-12349531D01*
X5980053Y-12349531D02*
X5989577Y-12368579D01*
X5989577Y-12368579D02*
X5999101Y-12406674D01*
X5999101Y-12406674D02*
X5999101Y-12454293D01*
X5999101Y-12454293D02*
X5989577Y-12492388D01*
X5989577Y-12492388D02*
X5980053Y-12511436D01*
X5980053Y-12511436D02*
X5970529Y-12520960D01*
X5970529Y-12520960D02*
X5951482Y-12530484D01*
X5951482Y-12530484D02*
X5932434Y-12530484D01*
X5932434Y-12530484D02*
X5913386Y-12520960D01*
X5913386Y-12520960D02*
X5903863Y-12511436D01*
X5903863Y-12511436D02*
X5894339Y-12492388D01*
X5894339Y-12492388D02*
X5884815Y-12454293D01*
X5884815Y-12454293D02*
X5884815Y-12406674D01*
X5884815Y-12406674D02*
X5894339Y-12368579D01*
X5894339Y-12368579D02*
X5903863Y-12349531D01*
X5903863Y-12349531D02*
X5913386Y-12340008D01*
X5913386Y-12340008D02*
X5932434Y-12330484D01*
X6084815Y-12511436D02*
X6094339Y-12520960D01*
X6094339Y-12520960D02*
X6084815Y-12530484D01*
X6084815Y-12530484D02*
X6075291Y-12520960D01*
X6075291Y-12520960D02*
X6084815Y-12511436D01*
X6084815Y-12511436D02*
X6084815Y-12530484D01*
X6218148Y-12330484D02*
X6237196Y-12330484D01*
X6237196Y-12330484D02*
X6256244Y-12340008D01*
X6256244Y-12340008D02*
X6265767Y-12349531D01*
X6265767Y-12349531D02*
X6275291Y-12368579D01*
X6275291Y-12368579D02*
X6284815Y-12406674D01*
X6284815Y-12406674D02*
X6284815Y-12454293D01*
X6284815Y-12454293D02*
X6275291Y-12492388D01*
X6275291Y-12492388D02*
X6265767Y-12511436D01*
X6265767Y-12511436D02*
X6256244Y-12520960D01*
X6256244Y-12520960D02*
X6237196Y-12530484D01*
X6237196Y-12530484D02*
X6218148Y-12530484D01*
X6218148Y-12530484D02*
X6199101Y-12520960D01*
X6199101Y-12520960D02*
X6189577Y-12511436D01*
X6189577Y-12511436D02*
X6180053Y-12492388D01*
X6180053Y-12492388D02*
X6170529Y-12454293D01*
X6170529Y-12454293D02*
X6170529Y-12406674D01*
X6170529Y-12406674D02*
X6180053Y-12368579D01*
X6180053Y-12368579D02*
X6189577Y-12349531D01*
X6189577Y-12349531D02*
X6199101Y-12340008D01*
X6199101Y-12340008D02*
X6218148Y-12330484D01*
X6465767Y-12330484D02*
X6370529Y-12330484D01*
X6370529Y-12330484D02*
X6361006Y-12425722D01*
X6361006Y-12425722D02*
X6370529Y-12416198D01*
X6370529Y-12416198D02*
X6389577Y-12406674D01*
X6389577Y-12406674D02*
X6437196Y-12406674D01*
X6437196Y-12406674D02*
X6456244Y-12416198D01*
X6456244Y-12416198D02*
X6465767Y-12425722D01*
X6465767Y-12425722D02*
X6475291Y-12444769D01*
X6475291Y-12444769D02*
X6475291Y-12492388D01*
X6475291Y-12492388D02*
X6465767Y-12511436D01*
X6465767Y-12511436D02*
X6456244Y-12520960D01*
X6456244Y-12520960D02*
X6437196Y-12530484D01*
X6437196Y-12530484D02*
X6389577Y-12530484D01*
X6389577Y-12530484D02*
X6370529Y-12520960D01*
X6370529Y-12520960D02*
X6361006Y-12511436D01*
X6570529Y-12530484D02*
X6608625Y-12530484D01*
X6608625Y-12530484D02*
X6627672Y-12520960D01*
X6627672Y-12520960D02*
X6637196Y-12511436D01*
X6637196Y-12511436D02*
X6656244Y-12482865D01*
X6656244Y-12482865D02*
X6665767Y-12444769D01*
X6665767Y-12444769D02*
X6665767Y-12368579D01*
X6665767Y-12368579D02*
X6656244Y-12349531D01*
X6656244Y-12349531D02*
X6646720Y-12340008D01*
X6646720Y-12340008D02*
X6627672Y-12330484D01*
X6627672Y-12330484D02*
X6589577Y-12330484D01*
X6589577Y-12330484D02*
X6570529Y-12340008D01*
X6570529Y-12340008D02*
X6561006Y-12349531D01*
X6561006Y-12349531D02*
X6551482Y-12368579D01*
X6551482Y-12368579D02*
X6551482Y-12416198D01*
X6551482Y-12416198D02*
X6561006Y-12435246D01*
X6561006Y-12435246D02*
X6570529Y-12444769D01*
X6570529Y-12444769D02*
X6589577Y-12454293D01*
X6589577Y-12454293D02*
X6627672Y-12454293D01*
X6627672Y-12454293D02*
X6646720Y-12444769D01*
X6646720Y-12444769D02*
X6656244Y-12435246D01*
X6656244Y-12435246D02*
X6665767Y-12416198D01*
X6789577Y-12330484D02*
X6808625Y-12330484D01*
X6808625Y-12330484D02*
X6827672Y-12340008D01*
X6827672Y-12340008D02*
X6837196Y-12349531D01*
X6837196Y-12349531D02*
X6846720Y-12368579D01*
X6846720Y-12368579D02*
X6856244Y-12406674D01*
X6856244Y-12406674D02*
X6856244Y-12454293D01*
X6856244Y-12454293D02*
X6846720Y-12492388D01*
X6846720Y-12492388D02*
X6837196Y-12511436D01*
X6837196Y-12511436D02*
X6827672Y-12520960D01*
X6827672Y-12520960D02*
X6808625Y-12530484D01*
X6808625Y-12530484D02*
X6789577Y-12530484D01*
X6789577Y-12530484D02*
X6770529Y-12520960D01*
X6770529Y-12520960D02*
X6761006Y-12511436D01*
X6761006Y-12511436D02*
X6751482Y-12492388D01*
X6751482Y-12492388D02*
X6741958Y-12454293D01*
X6741958Y-12454293D02*
X6741958Y-12406674D01*
X6741958Y-12406674D02*
X6751482Y-12368579D01*
X6751482Y-12368579D02*
X6761006Y-12349531D01*
X6761006Y-12349531D02*
X6770529Y-12340008D01*
X6770529Y-12340008D02*
X6789577Y-12330484D01*
X6932434Y-12330484D02*
X6932434Y-12368579D01*
X7008625Y-12330484D02*
X7008625Y-12368579D01*
X7303863Y-12606674D02*
X7294339Y-12597150D01*
X7294339Y-12597150D02*
X7275291Y-12568579D01*
X7275291Y-12568579D02*
X7265768Y-12549531D01*
X7265768Y-12549531D02*
X7256244Y-12520960D01*
X7256244Y-12520960D02*
X7246720Y-12473341D01*
X7246720Y-12473341D02*
X7246720Y-12435246D01*
X7246720Y-12435246D02*
X7256244Y-12387627D01*
X7256244Y-12387627D02*
X7265768Y-12359055D01*
X7265768Y-12359055D02*
X7275291Y-12340008D01*
X7275291Y-12340008D02*
X7294339Y-12311436D01*
X7294339Y-12311436D02*
X7303863Y-12301912D01*
X7361006Y-12330484D02*
X7484815Y-12330484D01*
X7484815Y-12330484D02*
X7418148Y-12406674D01*
X7418148Y-12406674D02*
X7446720Y-12406674D01*
X7446720Y-12406674D02*
X7465768Y-12416198D01*
X7465768Y-12416198D02*
X7475291Y-12425722D01*
X7475291Y-12425722D02*
X7484815Y-12444769D01*
X7484815Y-12444769D02*
X7484815Y-12492388D01*
X7484815Y-12492388D02*
X7475291Y-12511436D01*
X7475291Y-12511436D02*
X7465768Y-12520960D01*
X7465768Y-12520960D02*
X7446720Y-12530484D01*
X7446720Y-12530484D02*
X7389577Y-12530484D01*
X7389577Y-12530484D02*
X7370529Y-12520960D01*
X7370529Y-12520960D02*
X7361006Y-12511436D01*
X7722910Y-12530484D02*
X7722910Y-12330484D01*
X7808625Y-12530484D02*
X7808625Y-12425722D01*
X7808625Y-12425722D02*
X7799101Y-12406674D01*
X7799101Y-12406674D02*
X7780053Y-12397150D01*
X7780053Y-12397150D02*
X7751482Y-12397150D01*
X7751482Y-12397150D02*
X7732434Y-12406674D01*
X7732434Y-12406674D02*
X7722910Y-12416198D01*
X7932434Y-12530484D02*
X7913387Y-12520960D01*
X7913387Y-12520960D02*
X7903863Y-12511436D01*
X7903863Y-12511436D02*
X7894339Y-12492388D01*
X7894339Y-12492388D02*
X7894339Y-12435246D01*
X7894339Y-12435246D02*
X7903863Y-12416198D01*
X7903863Y-12416198D02*
X7913387Y-12406674D01*
X7913387Y-12406674D02*
X7932434Y-12397150D01*
X7932434Y-12397150D02*
X7961006Y-12397150D01*
X7961006Y-12397150D02*
X7980053Y-12406674D01*
X7980053Y-12406674D02*
X7989577Y-12416198D01*
X7989577Y-12416198D02*
X7999101Y-12435246D01*
X7999101Y-12435246D02*
X7999101Y-12492388D01*
X7999101Y-12492388D02*
X7989577Y-12511436D01*
X7989577Y-12511436D02*
X7980053Y-12520960D01*
X7980053Y-12520960D02*
X7961006Y-12530484D01*
X7961006Y-12530484D02*
X7932434Y-12530484D01*
X8113387Y-12530484D02*
X8094339Y-12520960D01*
X8094339Y-12520960D02*
X8084815Y-12501912D01*
X8084815Y-12501912D02*
X8084815Y-12330484D01*
X8265768Y-12520960D02*
X8246720Y-12530484D01*
X8246720Y-12530484D02*
X8208625Y-12530484D01*
X8208625Y-12530484D02*
X8189577Y-12520960D01*
X8189577Y-12520960D02*
X8180053Y-12501912D01*
X8180053Y-12501912D02*
X8180053Y-12425722D01*
X8180053Y-12425722D02*
X8189577Y-12406674D01*
X8189577Y-12406674D02*
X8208625Y-12397150D01*
X8208625Y-12397150D02*
X8246720Y-12397150D01*
X8246720Y-12397150D02*
X8265768Y-12406674D01*
X8265768Y-12406674D02*
X8275291Y-12425722D01*
X8275291Y-12425722D02*
X8275291Y-12444769D01*
X8275291Y-12444769D02*
X8180053Y-12463817D01*
X8351482Y-12520960D02*
X8370530Y-12530484D01*
X8370530Y-12530484D02*
X8408625Y-12530484D01*
X8408625Y-12530484D02*
X8427673Y-12520960D01*
X8427673Y-12520960D02*
X8437196Y-12501912D01*
X8437196Y-12501912D02*
X8437196Y-12492388D01*
X8437196Y-12492388D02*
X8427673Y-12473341D01*
X8427673Y-12473341D02*
X8408625Y-12463817D01*
X8408625Y-12463817D02*
X8380053Y-12463817D01*
X8380053Y-12463817D02*
X8361006Y-12454293D01*
X8361006Y-12454293D02*
X8351482Y-12435246D01*
X8351482Y-12435246D02*
X8351482Y-12425722D01*
X8351482Y-12425722D02*
X8361006Y-12406674D01*
X8361006Y-12406674D02*
X8380053Y-12397150D01*
X8380053Y-12397150D02*
X8408625Y-12397150D01*
X8408625Y-12397150D02*
X8427673Y-12406674D01*
X8503863Y-12606674D02*
X8513387Y-12597150D01*
X8513387Y-12597150D02*
X8532434Y-12568579D01*
X8532434Y-12568579D02*
X8541958Y-12549531D01*
X8541958Y-12549531D02*
X8551482Y-12520960D01*
X8551482Y-12520960D02*
X8561006Y-12473341D01*
X8561006Y-12473341D02*
X8561006Y-12435246D01*
X8561006Y-12435246D02*
X8551482Y-12387627D01*
X8551482Y-12387627D02*
X8541958Y-12359055D01*
X8541958Y-12359055D02*
X8532434Y-12340008D01*
X8532434Y-12340008D02*
X8513387Y-12311436D01*
X8513387Y-12311436D02*
X8503863Y-12301912D01*
X3628800Y-12608860D02*
X3628800Y-12808860D01*
X3528800Y-12708860D02*
X3728800Y-12708860D01*
X3699511Y-12779571D02*
X3699511Y-12638149D01*
X3558089Y-12638149D01*
X3558089Y-12779571D01*
X3699511Y-12779571D01*
X3970529Y-12600344D02*
X4094339Y-12600344D01*
X4094339Y-12600344D02*
X4027672Y-12676534D01*
X4027672Y-12676534D02*
X4056243Y-12676534D01*
X4056243Y-12676534D02*
X4075291Y-12686058D01*
X4075291Y-12686058D02*
X4084815Y-12695582D01*
X4084815Y-12695582D02*
X4094339Y-12714629D01*
X4094339Y-12714629D02*
X4094339Y-12762248D01*
X4094339Y-12762248D02*
X4084815Y-12781296D01*
X4084815Y-12781296D02*
X4075291Y-12790820D01*
X4075291Y-12790820D02*
X4056243Y-12800344D01*
X4056243Y-12800344D02*
X3999101Y-12800344D01*
X3999101Y-12800344D02*
X3980053Y-12790820D01*
X3980053Y-12790820D02*
X3970529Y-12781296D01*
X4180053Y-12781296D02*
X4189577Y-12790820D01*
X4189577Y-12790820D02*
X4180053Y-12800344D01*
X4180053Y-12800344D02*
X4170529Y-12790820D01*
X4170529Y-12790820D02*
X4180053Y-12781296D01*
X4180053Y-12781296D02*
X4180053Y-12800344D01*
X4265767Y-12619391D02*
X4275291Y-12609868D01*
X4275291Y-12609868D02*
X4294339Y-12600344D01*
X4294339Y-12600344D02*
X4341958Y-12600344D01*
X4341958Y-12600344D02*
X4361005Y-12609868D01*
X4361005Y-12609868D02*
X4370529Y-12619391D01*
X4370529Y-12619391D02*
X4380053Y-12638439D01*
X4380053Y-12638439D02*
X4380053Y-12657487D01*
X4380053Y-12657487D02*
X4370529Y-12686058D01*
X4370529Y-12686058D02*
X4256244Y-12800344D01*
X4256244Y-12800344D02*
X4380053Y-12800344D01*
X4503863Y-12600344D02*
X4522910Y-12600344D01*
X4522910Y-12600344D02*
X4541958Y-12609868D01*
X4541958Y-12609868D02*
X4551482Y-12619391D01*
X4551482Y-12619391D02*
X4561005Y-12638439D01*
X4561005Y-12638439D02*
X4570529Y-12676534D01*
X4570529Y-12676534D02*
X4570529Y-12724153D01*
X4570529Y-12724153D02*
X4561005Y-12762248D01*
X4561005Y-12762248D02*
X4551482Y-12781296D01*
X4551482Y-12781296D02*
X4541958Y-12790820D01*
X4541958Y-12790820D02*
X4522910Y-12800344D01*
X4522910Y-12800344D02*
X4503863Y-12800344D01*
X4503863Y-12800344D02*
X4484815Y-12790820D01*
X4484815Y-12790820D02*
X4475291Y-12781296D01*
X4475291Y-12781296D02*
X4465767Y-12762248D01*
X4465767Y-12762248D02*
X4456244Y-12724153D01*
X4456244Y-12724153D02*
X4456244Y-12676534D01*
X4456244Y-12676534D02*
X4465767Y-12638439D01*
X4465767Y-12638439D02*
X4475291Y-12619391D01*
X4475291Y-12619391D02*
X4484815Y-12609868D01*
X4484815Y-12609868D02*
X4503863Y-12600344D01*
X4694339Y-12600344D02*
X4713386Y-12600344D01*
X4713386Y-12600344D02*
X4732434Y-12609868D01*
X4732434Y-12609868D02*
X4741958Y-12619391D01*
X4741958Y-12619391D02*
X4751482Y-12638439D01*
X4751482Y-12638439D02*
X4761005Y-12676534D01*
X4761005Y-12676534D02*
X4761005Y-12724153D01*
X4761005Y-12724153D02*
X4751482Y-12762248D01*
X4751482Y-12762248D02*
X4741958Y-12781296D01*
X4741958Y-12781296D02*
X4732434Y-12790820D01*
X4732434Y-12790820D02*
X4713386Y-12800344D01*
X4713386Y-12800344D02*
X4694339Y-12800344D01*
X4694339Y-12800344D02*
X4675291Y-12790820D01*
X4675291Y-12790820D02*
X4665767Y-12781296D01*
X4665767Y-12781296D02*
X4656244Y-12762248D01*
X4656244Y-12762248D02*
X4646720Y-12724153D01*
X4646720Y-12724153D02*
X4646720Y-12676534D01*
X4646720Y-12676534D02*
X4656244Y-12638439D01*
X4656244Y-12638439D02*
X4665767Y-12619391D01*
X4665767Y-12619391D02*
X4675291Y-12609868D01*
X4675291Y-12609868D02*
X4694339Y-12600344D01*
X4846720Y-12800344D02*
X4846720Y-12667010D01*
X4846720Y-12686058D02*
X4856244Y-12676534D01*
X4856244Y-12676534D02*
X4875291Y-12667010D01*
X4875291Y-12667010D02*
X4903863Y-12667010D01*
X4903863Y-12667010D02*
X4922910Y-12676534D01*
X4922910Y-12676534D02*
X4932434Y-12695582D01*
X4932434Y-12695582D02*
X4932434Y-12800344D01*
X4932434Y-12695582D02*
X4941958Y-12676534D01*
X4941958Y-12676534D02*
X4961005Y-12667010D01*
X4961005Y-12667010D02*
X4989577Y-12667010D01*
X4989577Y-12667010D02*
X5008625Y-12676534D01*
X5008625Y-12676534D02*
X5018148Y-12695582D01*
X5018148Y-12695582D02*
X5018148Y-12800344D01*
X5113386Y-12800344D02*
X5113386Y-12667010D01*
X5113386Y-12686058D02*
X5122910Y-12676534D01*
X5122910Y-12676534D02*
X5141958Y-12667010D01*
X5141958Y-12667010D02*
X5170529Y-12667010D01*
X5170529Y-12667010D02*
X5189577Y-12676534D01*
X5189577Y-12676534D02*
X5199101Y-12695582D01*
X5199101Y-12695582D02*
X5199101Y-12800344D01*
X5199101Y-12695582D02*
X5208625Y-12676534D01*
X5208625Y-12676534D02*
X5227672Y-12667010D01*
X5227672Y-12667010D02*
X5256244Y-12667010D01*
X5256244Y-12667010D02*
X5275291Y-12676534D01*
X5275291Y-12676534D02*
X5284815Y-12695582D01*
X5284815Y-12695582D02*
X5284815Y-12800344D01*
X5675291Y-12590820D02*
X5503863Y-12847963D01*
X5932434Y-12600344D02*
X5951482Y-12600344D01*
X5951482Y-12600344D02*
X5970529Y-12609868D01*
X5970529Y-12609868D02*
X5980053Y-12619391D01*
X5980053Y-12619391D02*
X5989577Y-12638439D01*
X5989577Y-12638439D02*
X5999101Y-12676534D01*
X5999101Y-12676534D02*
X5999101Y-12724153D01*
X5999101Y-12724153D02*
X5989577Y-12762248D01*
X5989577Y-12762248D02*
X5980053Y-12781296D01*
X5980053Y-12781296D02*
X5970529Y-12790820D01*
X5970529Y-12790820D02*
X5951482Y-12800344D01*
X5951482Y-12800344D02*
X5932434Y-12800344D01*
X5932434Y-12800344D02*
X5913386Y-12790820D01*
X5913386Y-12790820D02*
X5903863Y-12781296D01*
X5903863Y-12781296D02*
X5894339Y-12762248D01*
X5894339Y-12762248D02*
X5884815Y-12724153D01*
X5884815Y-12724153D02*
X5884815Y-12676534D01*
X5884815Y-12676534D02*
X5894339Y-12638439D01*
X5894339Y-12638439D02*
X5903863Y-12619391D01*
X5903863Y-12619391D02*
X5913386Y-12609868D01*
X5913386Y-12609868D02*
X5932434Y-12600344D01*
X6084815Y-12781296D02*
X6094339Y-12790820D01*
X6094339Y-12790820D02*
X6084815Y-12800344D01*
X6084815Y-12800344D02*
X6075291Y-12790820D01*
X6075291Y-12790820D02*
X6084815Y-12781296D01*
X6084815Y-12781296D02*
X6084815Y-12800344D01*
X6284815Y-12800344D02*
X6170529Y-12800344D01*
X6227672Y-12800344D02*
X6227672Y-12600344D01*
X6227672Y-12600344D02*
X6208625Y-12628915D01*
X6208625Y-12628915D02*
X6189577Y-12647963D01*
X6189577Y-12647963D02*
X6170529Y-12657487D01*
X6361006Y-12619391D02*
X6370529Y-12609868D01*
X6370529Y-12609868D02*
X6389577Y-12600344D01*
X6389577Y-12600344D02*
X6437196Y-12600344D01*
X6437196Y-12600344D02*
X6456244Y-12609868D01*
X6456244Y-12609868D02*
X6465767Y-12619391D01*
X6465767Y-12619391D02*
X6475291Y-12638439D01*
X6475291Y-12638439D02*
X6475291Y-12657487D01*
X6475291Y-12657487D02*
X6465767Y-12686058D01*
X6465767Y-12686058D02*
X6351482Y-12800344D01*
X6351482Y-12800344D02*
X6475291Y-12800344D01*
X6646720Y-12600344D02*
X6608625Y-12600344D01*
X6608625Y-12600344D02*
X6589577Y-12609868D01*
X6589577Y-12609868D02*
X6580053Y-12619391D01*
X6580053Y-12619391D02*
X6561006Y-12647963D01*
X6561006Y-12647963D02*
X6551482Y-12686058D01*
X6551482Y-12686058D02*
X6551482Y-12762248D01*
X6551482Y-12762248D02*
X6561006Y-12781296D01*
X6561006Y-12781296D02*
X6570529Y-12790820D01*
X6570529Y-12790820D02*
X6589577Y-12800344D01*
X6589577Y-12800344D02*
X6627672Y-12800344D01*
X6627672Y-12800344D02*
X6646720Y-12790820D01*
X6646720Y-12790820D02*
X6656244Y-12781296D01*
X6656244Y-12781296D02*
X6665767Y-12762248D01*
X6665767Y-12762248D02*
X6665767Y-12714629D01*
X6665767Y-12714629D02*
X6656244Y-12695582D01*
X6656244Y-12695582D02*
X6646720Y-12686058D01*
X6646720Y-12686058D02*
X6627672Y-12676534D01*
X6627672Y-12676534D02*
X6589577Y-12676534D01*
X6589577Y-12676534D02*
X6570529Y-12686058D01*
X6570529Y-12686058D02*
X6561006Y-12695582D01*
X6561006Y-12695582D02*
X6551482Y-12714629D01*
X6789577Y-12600344D02*
X6808625Y-12600344D01*
X6808625Y-12600344D02*
X6827672Y-12609868D01*
X6827672Y-12609868D02*
X6837196Y-12619391D01*
X6837196Y-12619391D02*
X6846720Y-12638439D01*
X6846720Y-12638439D02*
X6856244Y-12676534D01*
X6856244Y-12676534D02*
X6856244Y-12724153D01*
X6856244Y-12724153D02*
X6846720Y-12762248D01*
X6846720Y-12762248D02*
X6837196Y-12781296D01*
X6837196Y-12781296D02*
X6827672Y-12790820D01*
X6827672Y-12790820D02*
X6808625Y-12800344D01*
X6808625Y-12800344D02*
X6789577Y-12800344D01*
X6789577Y-12800344D02*
X6770529Y-12790820D01*
X6770529Y-12790820D02*
X6761006Y-12781296D01*
X6761006Y-12781296D02*
X6751482Y-12762248D01*
X6751482Y-12762248D02*
X6741958Y-12724153D01*
X6741958Y-12724153D02*
X6741958Y-12676534D01*
X6741958Y-12676534D02*
X6751482Y-12638439D01*
X6751482Y-12638439D02*
X6761006Y-12619391D01*
X6761006Y-12619391D02*
X6770529Y-12609868D01*
X6770529Y-12609868D02*
X6789577Y-12600344D01*
X6932434Y-12600344D02*
X6932434Y-12638439D01*
X7008625Y-12600344D02*
X7008625Y-12638439D01*
X7303863Y-12876534D02*
X7294339Y-12867010D01*
X7294339Y-12867010D02*
X7275291Y-12838439D01*
X7275291Y-12838439D02*
X7265768Y-12819391D01*
X7265768Y-12819391D02*
X7256244Y-12790820D01*
X7256244Y-12790820D02*
X7246720Y-12743201D01*
X7246720Y-12743201D02*
X7246720Y-12705106D01*
X7246720Y-12705106D02*
X7256244Y-12657487D01*
X7256244Y-12657487D02*
X7265768Y-12628915D01*
X7265768Y-12628915D02*
X7275291Y-12609868D01*
X7275291Y-12609868D02*
X7294339Y-12581296D01*
X7294339Y-12581296D02*
X7303863Y-12571772D01*
X7465768Y-12667010D02*
X7465768Y-12800344D01*
X7418148Y-12590820D02*
X7370529Y-12733677D01*
X7370529Y-12733677D02*
X7494339Y-12733677D01*
X7722910Y-12800344D02*
X7722910Y-12600344D01*
X7808625Y-12800344D02*
X7808625Y-12695582D01*
X7808625Y-12695582D02*
X7799101Y-12676534D01*
X7799101Y-12676534D02*
X7780053Y-12667010D01*
X7780053Y-12667010D02*
X7751482Y-12667010D01*
X7751482Y-12667010D02*
X7732434Y-12676534D01*
X7732434Y-12676534D02*
X7722910Y-12686058D01*
X7932434Y-12800344D02*
X7913387Y-12790820D01*
X7913387Y-12790820D02*
X7903863Y-12781296D01*
X7903863Y-12781296D02*
X7894339Y-12762248D01*
X7894339Y-12762248D02*
X7894339Y-12705106D01*
X7894339Y-12705106D02*
X7903863Y-12686058D01*
X7903863Y-12686058D02*
X7913387Y-12676534D01*
X7913387Y-12676534D02*
X7932434Y-12667010D01*
X7932434Y-12667010D02*
X7961006Y-12667010D01*
X7961006Y-12667010D02*
X7980053Y-12676534D01*
X7980053Y-12676534D02*
X7989577Y-12686058D01*
X7989577Y-12686058D02*
X7999101Y-12705106D01*
X7999101Y-12705106D02*
X7999101Y-12762248D01*
X7999101Y-12762248D02*
X7989577Y-12781296D01*
X7989577Y-12781296D02*
X7980053Y-12790820D01*
X7980053Y-12790820D02*
X7961006Y-12800344D01*
X7961006Y-12800344D02*
X7932434Y-12800344D01*
X8113387Y-12800344D02*
X8094339Y-12790820D01*
X8094339Y-12790820D02*
X8084815Y-12771772D01*
X8084815Y-12771772D02*
X8084815Y-12600344D01*
X8265768Y-12790820D02*
X8246720Y-12800344D01*
X8246720Y-12800344D02*
X8208625Y-12800344D01*
X8208625Y-12800344D02*
X8189577Y-12790820D01*
X8189577Y-12790820D02*
X8180053Y-12771772D01*
X8180053Y-12771772D02*
X8180053Y-12695582D01*
X8180053Y-12695582D02*
X8189577Y-12676534D01*
X8189577Y-12676534D02*
X8208625Y-12667010D01*
X8208625Y-12667010D02*
X8246720Y-12667010D01*
X8246720Y-12667010D02*
X8265768Y-12676534D01*
X8265768Y-12676534D02*
X8275291Y-12695582D01*
X8275291Y-12695582D02*
X8275291Y-12714629D01*
X8275291Y-12714629D02*
X8180053Y-12733677D01*
X8351482Y-12790820D02*
X8370530Y-12800344D01*
X8370530Y-12800344D02*
X8408625Y-12800344D01*
X8408625Y-12800344D02*
X8427673Y-12790820D01*
X8427673Y-12790820D02*
X8437196Y-12771772D01*
X8437196Y-12771772D02*
X8437196Y-12762248D01*
X8437196Y-12762248D02*
X8427673Y-12743201D01*
X8427673Y-12743201D02*
X8408625Y-12733677D01*
X8408625Y-12733677D02*
X8380053Y-12733677D01*
X8380053Y-12733677D02*
X8361006Y-12724153D01*
X8361006Y-12724153D02*
X8351482Y-12705106D01*
X8351482Y-12705106D02*
X8351482Y-12695582D01*
X8351482Y-12695582D02*
X8361006Y-12676534D01*
X8361006Y-12676534D02*
X8380053Y-12667010D01*
X8380053Y-12667010D02*
X8408625Y-12667010D01*
X8408625Y-12667010D02*
X8427673Y-12676534D01*
X8503863Y-12876534D02*
X8513387Y-12867010D01*
X8513387Y-12867010D02*
X8532434Y-12838439D01*
X8532434Y-12838439D02*
X8541958Y-12819391D01*
X8541958Y-12819391D02*
X8551482Y-12790820D01*
X8551482Y-12790820D02*
X8561006Y-12743201D01*
X8561006Y-12743201D02*
X8561006Y-12705106D01*
X8561006Y-12705106D02*
X8551482Y-12657487D01*
X8551482Y-12657487D02*
X8541958Y-12628915D01*
X8541958Y-12628915D02*
X8532434Y-12609868D01*
X8532434Y-12609868D02*
X8513387Y-12581296D01*
X8513387Y-12581296D02*
X8503863Y-12571772D01*
M02*
