%TF.GenerationSoftware,KiCad,Pcbnew,7.0.10*%
%TF.CreationDate,2024-03-29T22:24:31-04:00*%
%TF.ProjectId,WaveWise_Submersible,57617665-5769-4736-955f-5375626d6572,rev?*%
%TF.SameCoordinates,Original*%
%TF.FileFunction,Copper,L1,Top*%
%TF.FilePolarity,Positive*%
%FSLAX46Y46*%
G04 Gerber Fmt 4.6, Leading zero omitted, Abs format (unit mm)*
G04 Created by KiCad (PCBNEW 7.0.10) date 2024-03-29 22:24:31*
%MOMM*%
%LPD*%
G01*
G04 APERTURE LIST*
G04 Aperture macros list*
%AMRoundRect*
0 Rectangle with rounded corners*
0 $1 Rounding radius*
0 $2 $3 $4 $5 $6 $7 $8 $9 X,Y pos of 4 corners*
0 Add a 4 corners polygon primitive as box body*
4,1,4,$2,$3,$4,$5,$6,$7,$8,$9,$2,$3,0*
0 Add four circle primitives for the rounded corners*
1,1,$1+$1,$2,$3*
1,1,$1+$1,$4,$5*
1,1,$1+$1,$6,$7*
1,1,$1+$1,$8,$9*
0 Add four rect primitives between the rounded corners*
20,1,$1+$1,$2,$3,$4,$5,0*
20,1,$1+$1,$4,$5,$6,$7,0*
20,1,$1+$1,$6,$7,$8,$9,0*
20,1,$1+$1,$8,$9,$2,$3,0*%
G04 Aperture macros list end*
%TA.AperFunction,SMDPad,CuDef*%
%ADD10RoundRect,0.250000X-0.262500X-0.450000X0.262500X-0.450000X0.262500X0.450000X-0.262500X0.450000X0*%
%TD*%
%TA.AperFunction,SMDPad,CuDef*%
%ADD11C,1.500000*%
%TD*%
%TA.AperFunction,SMDPad,CuDef*%
%ADD12RoundRect,0.250000X-0.450000X0.262500X-0.450000X-0.262500X0.450000X-0.262500X0.450000X0.262500X0*%
%TD*%
%TA.AperFunction,SMDPad,CuDef*%
%ADD13RoundRect,0.250000X0.262500X0.450000X-0.262500X0.450000X-0.262500X-0.450000X0.262500X-0.450000X0*%
%TD*%
%TA.AperFunction,SMDPad,CuDef*%
%ADD14R,5.600000X1.550000*%
%TD*%
%TA.AperFunction,ComponentPad*%
%ADD15R,1.651000X1.651000*%
%TD*%
%TA.AperFunction,ComponentPad*%
%ADD16C,1.651000*%
%TD*%
%TA.AperFunction,SMDPad,CuDef*%
%ADD17RoundRect,0.250000X0.250000X0.475000X-0.250000X0.475000X-0.250000X-0.475000X0.250000X-0.475000X0*%
%TD*%
%TA.AperFunction,SMDPad,CuDef*%
%ADD18RoundRect,0.250000X0.475000X-0.250000X0.475000X0.250000X-0.475000X0.250000X-0.475000X-0.250000X0*%
%TD*%
%TA.AperFunction,SMDPad,CuDef*%
%ADD19RoundRect,0.250000X-0.475000X0.250000X-0.475000X-0.250000X0.475000X-0.250000X0.475000X0.250000X0*%
%TD*%
%TA.AperFunction,SMDPad,CuDef*%
%ADD20RoundRect,0.011200X0.128800X-0.723800X0.128800X0.723800X-0.128800X0.723800X-0.128800X-0.723800X0*%
%TD*%
%TA.AperFunction,ComponentPad*%
%ADD21RoundRect,0.250000X-0.650000X0.350000X-0.650000X-0.350000X0.650000X-0.350000X0.650000X0.350000X0*%
%TD*%
%TA.AperFunction,ComponentPad*%
%ADD22O,1.800000X1.200000*%
%TD*%
%TA.AperFunction,ComponentPad*%
%ADD23O,1.600000X1.200000*%
%TD*%
%TA.AperFunction,ComponentPad*%
%ADD24O,1.200000X1.200000*%
%TD*%
%TA.AperFunction,ComponentPad*%
%ADD25C,2.006600*%
%TD*%
%TA.AperFunction,ComponentPad*%
%ADD26C,1.905000*%
%TD*%
%TA.AperFunction,SMDPad,CuDef*%
%ADD27R,0.850800X1.761200*%
%TD*%
%TA.AperFunction,SMDPad,CuDef*%
%ADD28R,3.150799X1.761200*%
%TD*%
%TA.AperFunction,ComponentPad*%
%ADD29R,1.803400X1.803400*%
%TD*%
%TA.AperFunction,ComponentPad*%
%ADD30C,1.498600*%
%TD*%
%TA.AperFunction,ComponentPad*%
%ADD31C,1.803400*%
%TD*%
%TA.AperFunction,SMDPad,CuDef*%
%ADD32RoundRect,0.250000X0.450000X-0.262500X0.450000X0.262500X-0.450000X0.262500X-0.450000X-0.262500X0*%
%TD*%
%TA.AperFunction,ComponentPad*%
%ADD33RoundRect,0.250000X-0.350000X-0.650000X0.350000X-0.650000X0.350000X0.650000X-0.350000X0.650000X0*%
%TD*%
%TA.AperFunction,ComponentPad*%
%ADD34O,1.200000X1.800000*%
%TD*%
%TA.AperFunction,ComponentPad*%
%ADD35C,1.524000*%
%TD*%
%TA.AperFunction,ComponentPad*%
%ADD36O,1.700000X1.700000*%
%TD*%
%TA.AperFunction,SMDPad,CuDef*%
%ADD37R,3.500000X1.700000*%
%TD*%
%TA.AperFunction,ComponentPad*%
%ADD38R,1.700000X1.700000*%
%TD*%
%TA.AperFunction,SMDPad,CuDef*%
%ADD39R,1.700000X3.500000*%
%TD*%
%TA.AperFunction,ComponentPad*%
%ADD40R,1.508000X1.508000*%
%TD*%
%TA.AperFunction,ComponentPad*%
%ADD41C,1.508000*%
%TD*%
%TA.AperFunction,ComponentPad*%
%ADD42R,1.650000X1.650000*%
%TD*%
%TA.AperFunction,ComponentPad*%
%ADD43C,1.650000*%
%TD*%
%TA.AperFunction,ComponentPad*%
%ADD44C,5.700000*%
%TD*%
%TA.AperFunction,ComponentPad*%
%ADD45R,2.200000X2.200000*%
%TD*%
%TA.AperFunction,ComponentPad*%
%ADD46O,2.200000X2.200000*%
%TD*%
%TA.AperFunction,SMDPad,CuDef*%
%ADD47RoundRect,0.042000X-0.943000X-0.258000X0.943000X-0.258000X0.943000X0.258000X-0.943000X0.258000X0*%
%TD*%
%TA.AperFunction,SMDPad,CuDef*%
%ADD48R,1.200000X0.800000*%
%TD*%
%TA.AperFunction,SMDPad,CuDef*%
%ADD49R,1.200000X1.200000*%
%TD*%
%TA.AperFunction,ViaPad*%
%ADD50C,0.800000*%
%TD*%
%TA.AperFunction,Conductor*%
%ADD51C,0.250000*%
%TD*%
%TA.AperFunction,Conductor*%
%ADD52C,0.508000*%
%TD*%
%TA.AperFunction,Conductor*%
%ADD53C,0.500000*%
%TD*%
G04 APERTURE END LIST*
D10*
%TO.P,R23,1*%
%TO.N,/ADC1*%
X57710700Y-49326800D03*
%TO.P,R23,2*%
%TO.N,PANEL_SENSE*%
X59535700Y-49326800D03*
%TD*%
D11*
%TO.P,3V3,1,1*%
%TO.N,+3V3*%
X51511200Y-80162400D03*
%TD*%
D10*
%TO.P,R11,1*%
%TO.N,GNDREF*%
X145391500Y-79248000D03*
%TO.P,R11,2*%
%TO.N,Net-(H4-Pad1)*%
X147216500Y-79248000D03*
%TD*%
D12*
%TO.P,R27,1*%
%TO.N,SCL*%
X132588000Y-71350500D03*
%TO.P,R27,2*%
%TO.N,Net-(U3-BSCL)*%
X132588000Y-73175500D03*
%TD*%
D13*
%TO.P,R15,1*%
%TO.N,GNDREF*%
X49426500Y-83820000D03*
%TO.P,R15,2*%
%TO.N,Net-(H3-Pad1)*%
X47601500Y-83820000D03*
%TD*%
D14*
%TO.P,L1,1,1*%
%TO.N,+5V*%
X139039600Y-68536200D03*
%TO.P,L1,2,2*%
%TO.N,Net-(PS1-+VIN)*%
X139039600Y-72586200D03*
%TD*%
D15*
%TO.P,J3,1,Pin_1*%
%TO.N,/ADC3*%
X58166000Y-36626800D03*
D16*
%TO.P,J3,2,Pin_2*%
%TO.N,/ADC2*%
X58166000Y-39166800D03*
%TO.P,J3,3,Pin_3*%
%TO.N,/ADC1*%
X58166000Y-41706800D03*
%TO.P,J3,4,Pin_4*%
%TO.N,/ADC0*%
X58166000Y-44246800D03*
%TD*%
D11*
%TO.P,TEMP1,1,1*%
%TO.N,TEMP_INPUT*%
X101028500Y-82804000D03*
%TD*%
D17*
%TO.P,C14,1*%
%TO.N,VEE*%
X140853200Y-43992800D03*
%TO.P,C14,2*%
%TO.N,Net-(PS2-+VIN)*%
X138953200Y-43992800D03*
%TD*%
D18*
%TO.P,C1,1*%
%TO.N,VEE*%
X142900400Y-51292800D03*
%TO.P,C1,2*%
%TO.N,GND2*%
X142900400Y-49392800D03*
%TD*%
D11*
%TO.P,PRESSURE1,1,1*%
%TO.N,PRESSURE_INPUT*%
X121513600Y-28194000D03*
%TD*%
D12*
%TO.P,R6,1*%
%TO.N,Net-(U2-VOUT)*%
X91084400Y-67349700D03*
%TO.P,R6,2*%
%TO.N,AIR_INPUT*%
X91084400Y-69174700D03*
%TD*%
D19*
%TO.P,C2,1*%
%TO.N,+5V*%
X94234000Y-63093600D03*
%TO.P,C2,2*%
%TO.N,GNDREF*%
X94234000Y-64993600D03*
%TD*%
D13*
%TO.P,R21,1*%
%TO.N,+3V3*%
X52372900Y-35814000D03*
%TO.P,R21,2*%
%TO.N,SDA*%
X50547900Y-35814000D03*
%TD*%
D11*
%TO.P,GNDREF1,1,1*%
%TO.N,GNDREF*%
X117094000Y-36474400D03*
%TD*%
D12*
%TO.P,R13,1*%
%TO.N,VEE*%
X150114000Y-54522500D03*
%TO.P,R13,2*%
%TO.N,Net-(U5-BSCL)*%
X150114000Y-56347500D03*
%TD*%
D17*
%TO.P,C16,1*%
%TO.N,GND2*%
X149159000Y-61595000D03*
%TO.P,C16,2*%
%TO.N,GNDREF*%
X147259000Y-61595000D03*
%TD*%
D19*
%TO.P,C3,1*%
%TO.N,Net-(U2-VOUT)*%
X94132400Y-67325200D03*
%TO.P,C3,2*%
%TO.N,GNDREF*%
X94132400Y-69225200D03*
%TD*%
D13*
%TO.P,R20,1*%
%TO.N,+3V3*%
X52525300Y-32664400D03*
%TO.P,R20,2*%
%TO.N,SCL*%
X50700300Y-32664400D03*
%TD*%
D18*
%TO.P,C11,1*%
%TO.N,+3V3*%
X57226200Y-69936400D03*
%TO.P,C11,2*%
%TO.N,GNDREF*%
X57226200Y-68036400D03*
%TD*%
%TO.P,C6,1*%
%TO.N,GNDREF*%
X54406800Y-41031200D03*
%TO.P,C6,2*%
%TO.N,Net-(C5-Pad1)*%
X54406800Y-39131200D03*
%TD*%
D20*
%TO.P,U1,1,ADDR*%
%TO.N,GNDREF*%
X52695600Y-48784400D03*
%TO.P,U1,2,ALERT/RDY*%
%TO.N,ADC_RDY*%
X53195600Y-48784400D03*
%TO.P,U1,3,GND*%
%TO.N,GNDREF*%
X53695600Y-48784400D03*
%TO.P,U1,4,AIN0*%
%TO.N,/ADC0*%
X54195600Y-48784400D03*
%TO.P,U1,5,AIN1*%
%TO.N,/ADC1*%
X54695600Y-48784400D03*
%TO.P,U1,6,AIN2*%
%TO.N,/ADC2*%
X54695600Y-44484400D03*
%TO.P,U1,7,AIN3*%
%TO.N,/ADC3*%
X54195600Y-44484400D03*
%TO.P,U1,8,VDD*%
%TO.N,+3V3*%
X53695600Y-44484400D03*
%TO.P,U1,9,SDA*%
%TO.N,SDA*%
X53195600Y-44484400D03*
%TO.P,U1,10,SCL*%
%TO.N,SCL*%
X52695600Y-44484400D03*
%TD*%
D21*
%TO.P,J7,1,1*%
%TO.N,+24V*%
X47868600Y-42174400D03*
D22*
%TO.P,J7,2,2*%
%TO.N,+5V*%
X47868600Y-44174400D03*
%TO.P,J7,3,3*%
%TO.N,SUB_TX*%
X47868600Y-46174400D03*
%TO.P,J7,4,4*%
%TO.N,SUB_RX*%
X47868600Y-48174400D03*
%TO.P,J7,5,5*%
%TO.N,AIR_COMP*%
X47868600Y-50174400D03*
%TO.P,J7,6,6*%
%TO.N,BATTERY_SENSE*%
X47868600Y-52174400D03*
%TO.P,J7,7,7*%
%TO.N,PANEL_SENSE*%
X47868600Y-54174400D03*
%TO.P,J7,8,8*%
%TO.N,GNDREF*%
X47868600Y-56174400D03*
%TD*%
D11*
%TO.P,GND2,1,1*%
%TO.N,GND2*%
X141859000Y-60579000D03*
%TD*%
D16*
%TO.P,J10,1,Pin_1*%
%TO.N,SWCLK*%
X72136000Y-86233000D03*
%TO.P,J10,2,Pin_2*%
%TO.N,GND*%
X74676000Y-86233000D03*
%TO.P,J10,3,Pin_3*%
%TO.N,SWDIO*%
X77216000Y-86233000D03*
%TD*%
D23*
%TO.P,Q2,1,E*%
%TO.N,GNDREF*%
X117348000Y-54102000D03*
D24*
%TO.P,Q2,2,B*%
%TO.N,Net-(Q2-B)*%
X114808000Y-51562000D03*
%TO.P,Q2,3,C*%
%TO.N,Net-(D2-A)*%
X112268000Y-54102000D03*
%TD*%
D25*
%TO.P,J4,1*%
%TO.N,Net-(U6-PRB)*%
X126479300Y-57404000D03*
D26*
%TO.P,J4,2*%
%TO.N,Net-(U6-PGND)*%
X123926600Y-59956700D03*
%TO.P,J4,3*%
X129032000Y-59956700D03*
%TO.P,J4,4*%
X129032000Y-54851300D03*
%TO.P,J4,5*%
X123926600Y-54851300D03*
%TD*%
D27*
%TO.P,U10,1,GND*%
%TO.N,GNDREF*%
X57418000Y-72440800D03*
%TO.P,U10,2,OUTPUT*%
%TO.N,+3V3*%
X55118000Y-72440800D03*
%TO.P,U10,3,INPUT*%
%TO.N,+5V*%
X52818000Y-72440800D03*
D28*
%TO.P,U10,4,EPAD*%
%TO.N,GNDREF*%
X55118000Y-78490800D03*
%TD*%
D29*
%TO.P,K2,1,1*%
%TO.N,Net-(J6-Pad1)*%
X99009200Y-54753050D03*
D30*
%TO.P,K2,2,2*%
%TO.N,Net-(D2-A)*%
X105009199Y-52753049D03*
D31*
%TO.P,K2,3,3*%
%TO.N,+24V*%
X105009199Y-40553851D03*
D30*
%TO.P,K2,5,5*%
%TO.N,+5V*%
X93009201Y-52753049D03*
%TD*%
D11*
%TO.P,AIR_COMP1,1,1*%
%TO.N,AIR_COMP*%
X57404000Y-81584800D03*
%TD*%
D32*
%TO.P,R10,1*%
%TO.N,GNDREF*%
X146812000Y-36472500D03*
%TO.P,R10,2*%
%TO.N,Net-(H2-Pad1)*%
X146812000Y-34647500D03*
%TD*%
D25*
%TO.P,J1,1*%
%TO.N,Net-(U4-PRB)*%
X113017300Y-84201000D03*
D26*
%TO.P,J1,2*%
%TO.N,Net-(U4-PGND)*%
X115570000Y-81648300D03*
%TO.P,J1,3*%
X110464600Y-81648300D03*
%TO.P,J1,4*%
X110464600Y-86753700D03*
%TO.P,J1,5*%
X115570000Y-86753700D03*
%TD*%
D33*
%TO.P,J9,1,1*%
%TO.N,+5V*%
X112166400Y-30022800D03*
D34*
%TO.P,J9,2,2*%
%TO.N,PRESSURE_INPUT*%
X114166400Y-30022800D03*
%TO.P,J9,3,3*%
%TO.N,GNDREF*%
X116166400Y-30022800D03*
%TD*%
D18*
%TO.P,C9,1*%
%TO.N,+5V*%
X52679600Y-70026600D03*
%TO.P,C9,2*%
%TO.N,GNDREF*%
X52679600Y-68126600D03*
%TD*%
D17*
%TO.P,C13,1*%
%TO.N,GND1*%
X129880400Y-87071200D03*
%TO.P,C13,2*%
%TO.N,GNDREF*%
X127980400Y-87071200D03*
%TD*%
D35*
%TO.P,U4,1,VCC*%
%TO.N,VDD*%
X110236000Y-67056000D03*
%TO.P,U4,2,RX/SCL*%
%TO.N,Net-(U3-BSCL)*%
X128016000Y-72136000D03*
%TO.P,U4,3,TX/SDA*%
%TO.N,Net-(U3-BSDA)*%
X128016000Y-69596000D03*
%TO.P,U4,4,PGND*%
%TO.N,Net-(U4-PGND)*%
X110236000Y-72136000D03*
%TO.P,U4,5,PRB*%
%TO.N,Net-(U4-PRB)*%
X110236000Y-69596000D03*
%TO.P,U4,6,GND*%
%TO.N,GND1*%
X128016000Y-67056000D03*
%TD*%
D12*
%TO.P,R24,1*%
%TO.N,SDA*%
X132588000Y-64111500D03*
%TO.P,R24,2*%
%TO.N,Net-(U3-BSDA)*%
X132588000Y-65936500D03*
%TD*%
D36*
%TO.P,U9,1,GPIO0*%
%TO.N,SUB_TX*%
X65786000Y-32521000D03*
D37*
X64886000Y-32521000D03*
D36*
%TO.P,U9,2,GPIO1*%
%TO.N,SUB_RX*%
X65786000Y-35061000D03*
D37*
X64886000Y-35061000D03*
D38*
%TO.P,U9,3,GND*%
%TO.N,GNDREF*%
X65786000Y-37601000D03*
D37*
X64886000Y-37601000D03*
D36*
%TO.P,U9,4,GPIO2*%
%TO.N,unconnected-(U9-GPIO2-Pad4)*%
X65786000Y-40141000D03*
D37*
X64886000Y-40141000D03*
D36*
%TO.P,U9,5,GPIO3*%
%TO.N,unconnected-(U9-GPIO3-Pad5)*%
X65786000Y-42681000D03*
D37*
X64886000Y-42681000D03*
D36*
%TO.P,U9,6,GPIO4*%
%TO.N,SDA*%
X65786000Y-45221000D03*
D37*
X64886000Y-45221000D03*
D36*
%TO.P,U9,7,GPIO5*%
%TO.N,SCL*%
X65786000Y-47761000D03*
D37*
X64886000Y-47761000D03*
D38*
%TO.P,U9,8,GND*%
%TO.N,GNDREF*%
X65786000Y-50301000D03*
D37*
X64886000Y-50301000D03*
D36*
%TO.P,U9,9,GPIO6*%
%TO.N,ADC_RDY*%
X65786000Y-52841000D03*
D37*
X64886000Y-52841000D03*
D36*
%TO.P,U9,10,GPIO7*%
%TO.N,Net-(U9-GPIO7)*%
X65786000Y-55381000D03*
D37*
X64886000Y-55381000D03*
D36*
%TO.P,U9,11,GPIO8*%
%TO.N,Net-(U9-GPIO8)*%
X65786000Y-57921000D03*
D37*
X64886000Y-57921000D03*
D36*
%TO.P,U9,12,GPIO9*%
%TO.N,unconnected-(U9-GPIO9-Pad12)*%
X65786000Y-60461000D03*
D37*
X64886000Y-60461000D03*
D38*
%TO.P,U9,13,GND*%
%TO.N,GNDREF*%
X65786000Y-63001000D03*
D37*
X64886000Y-63001000D03*
D36*
%TO.P,U9,14,GPIO10*%
%TO.N,SYNC*%
X65786000Y-65541000D03*
D37*
X64886000Y-65541000D03*
D36*
%TO.P,U9,15,GPIO11*%
%TO.N,READY{slash}INT*%
X65786000Y-68081000D03*
D37*
X64886000Y-68081000D03*
D36*
%TO.P,U9,16,GPIO12*%
%TO.N,unconnected-(U9-GPIO12-Pad16)*%
X65786000Y-70621000D03*
D37*
X64886000Y-70621000D03*
D36*
%TO.P,U9,17,GPIO13*%
%TO.N,AIR_COMP*%
X65786000Y-73161000D03*
D37*
X64886000Y-73161000D03*
D38*
%TO.P,U9,18,GND*%
%TO.N,GNDREF*%
X65786000Y-75701000D03*
D37*
X64886000Y-75701000D03*
D36*
%TO.P,U9,19,GPIO14*%
%TO.N,unconnected-(U9-GPIO14-Pad19)*%
X65786000Y-78241000D03*
D37*
X64886000Y-78241000D03*
D36*
%TO.P,U9,20,GPIO15*%
%TO.N,unconnected-(U9-GPIO15-Pad20)*%
X65786000Y-80781000D03*
D37*
X64886000Y-80781000D03*
D36*
%TO.P,U9,21,GPIO16*%
%TO.N,EXTGPIO5*%
X83566000Y-80781000D03*
D37*
X84466000Y-80781000D03*
D36*
%TO.P,U9,22,GPIO17*%
%TO.N,EXTGPIO4*%
X83566000Y-78241000D03*
D37*
X84466000Y-78241000D03*
D38*
%TO.P,U9,23,GND*%
%TO.N,GNDREF*%
X83566000Y-75701000D03*
D37*
X84466000Y-75701000D03*
D36*
%TO.P,U9,24,GPIO18*%
%TO.N,EXTGPIO3*%
X83566000Y-73161000D03*
D37*
X84466000Y-73161000D03*
D36*
%TO.P,U9,25,GPIO19*%
%TO.N,EXTGPIO2*%
X83566000Y-70621000D03*
D37*
X84466000Y-70621000D03*
D36*
%TO.P,U9,26,GPIO20*%
%TO.N,EXTGPIO1*%
X83566000Y-68081000D03*
D37*
X84466000Y-68081000D03*
D36*
%TO.P,U9,27,GPIO21*%
%TO.N,unconnected-(U9-GPIO21-Pad27)*%
X83566000Y-65541000D03*
D37*
X84466000Y-65541000D03*
D38*
%TO.P,U9,28,GND*%
%TO.N,GNDREF*%
X83566000Y-63001000D03*
D37*
X84466000Y-63001000D03*
D36*
%TO.P,U9,29,GPIO22*%
%TO.N,VALVE_OUT*%
X83566000Y-60461000D03*
D37*
X84466000Y-60461000D03*
D36*
%TO.P,U9,30,RUN*%
%TO.N,unconnected-(U9-RUN-Pad30)*%
X83566000Y-57921000D03*
D37*
X84466000Y-57921000D03*
D36*
%TO.P,U9,31,GPIO26_ADC0*%
%TO.N,TEMP_INPUT*%
X83566000Y-55381000D03*
D37*
X84466000Y-55381000D03*
D36*
%TO.P,U9,32,GPIO27_ADC1*%
%TO.N,AIR_INPUT*%
X83566000Y-52841000D03*
D37*
X84466000Y-52841000D03*
D38*
%TO.P,U9,33,AGND*%
%TO.N,unconnected-(U9-AGND-Pad33)*%
X83566000Y-50301000D03*
D37*
X84466000Y-50301000D03*
D36*
%TO.P,U9,34,GPIO28_ADC2*%
%TO.N,PRESSURE_INPUT*%
X83566000Y-47761000D03*
D37*
X84466000Y-47761000D03*
D36*
%TO.P,U9,35,ADC_VREF*%
%TO.N,unconnected-(U9-ADC_VREF-Pad35)*%
X83566000Y-45221000D03*
D37*
X84466000Y-45221000D03*
D36*
%TO.P,U9,36,3V3*%
%TO.N,unconnected-(U9-3V3-Pad36)*%
X83566000Y-42681000D03*
D37*
X84466000Y-42681000D03*
D36*
%TO.P,U9,37,3V3_EN*%
%TO.N,unconnected-(U9-3V3_EN-Pad37)*%
X83566000Y-40141000D03*
D37*
X84466000Y-40141000D03*
D38*
%TO.P,U9,38,GND*%
%TO.N,GNDREF*%
X83566000Y-37601000D03*
D37*
X84466000Y-37601000D03*
D36*
%TO.P,U9,39,VSYS*%
%TO.N,+5V*%
X83566000Y-35061000D03*
D37*
X84466000Y-35061000D03*
D36*
%TO.P,U9,40,VBUS*%
%TO.N,unconnected-(U9-VBUS-Pad40)*%
X83566000Y-32521000D03*
D37*
X84466000Y-32521000D03*
D36*
%TO.P,U9,41,SWCLK*%
%TO.N,SWCLK*%
X72136000Y-80551000D03*
D39*
X72136000Y-81451000D03*
D38*
%TO.P,U9,42,GND*%
%TO.N,GND*%
X74676000Y-80551000D03*
D39*
X74676000Y-81451000D03*
D36*
%TO.P,U9,43,SWDIO*%
%TO.N,SWDIO*%
X77216000Y-80551000D03*
D39*
X77216000Y-81451000D03*
%TD*%
D11*
%TO.P,VEE1,1,1*%
%TO.N,VEE*%
X135839200Y-44246800D03*
%TD*%
D32*
%TO.P,R19,1*%
%TO.N,+3V3*%
X54610000Y-57605300D03*
%TO.P,R19,2*%
%TO.N,ADC_RDY*%
X54610000Y-55780300D03*
%TD*%
D12*
%TO.P,R9,1*%
%TO.N,Net-(C17-Pad1)*%
X102565200Y-29567500D03*
%TO.P,R9,2*%
%TO.N,Net-(J6-Pad1)*%
X102565200Y-31392500D03*
%TD*%
D40*
%TO.P,PS1,1,-VIN*%
%TO.N,GNDREF*%
X146050000Y-67016000D03*
D41*
%TO.P,PS1,2,+VIN*%
%TO.N,Net-(PS1-+VIN)*%
X146050000Y-69556000D03*
%TO.P,PS1,3,-VOUT*%
%TO.N,GND1*%
X146050000Y-72096000D03*
%TO.P,PS1,4,+VOUT*%
%TO.N,VDD*%
X146050000Y-74636000D03*
%TD*%
D42*
%TO.P,J13,1,Pin_1*%
%TO.N,+5V*%
X62738000Y-28194000D03*
D43*
%TO.P,J13,2,Pin_2*%
%TO.N,SUB_TX*%
X60198000Y-28194000D03*
%TO.P,J13,3,Pin_3*%
%TO.N,SUB_RX*%
X57658000Y-28194000D03*
%TO.P,J13,4,Pin_4*%
%TO.N,SDA*%
X55118000Y-28194000D03*
%TO.P,J13,5,Pin_5*%
%TO.N,SCL*%
X52578000Y-28194000D03*
%TO.P,J13,6,Pin_6*%
%TO.N,GNDREF*%
X50038000Y-28194000D03*
%TD*%
D25*
%TO.P,J2,1*%
%TO.N,TEMP_INPUT*%
X100838000Y-76200000D03*
D26*
%TO.P,J2,2*%
%TO.N,GNDREF*%
X103390700Y-78752700D03*
%TO.P,J2,3*%
X103390700Y-73647300D03*
%TO.P,J2,4*%
X98285300Y-73647300D03*
%TO.P,J2,5*%
X98285300Y-78752700D03*
%TD*%
D32*
%TO.P,R14,1*%
%TO.N,+5V*%
X104140000Y-86193500D03*
%TO.P,R14,2*%
%TO.N,TEMP_INPUT*%
X104140000Y-84368500D03*
%TD*%
D10*
%TO.P,R4,1*%
%TO.N,+5V*%
X120397900Y-85547200D03*
%TO.P,R4,2*%
%TO.N,SCL*%
X122222900Y-85547200D03*
%TD*%
D11*
%TO.P,SDA1,1,1*%
%TO.N,SDA*%
X83515200Y-27940000D03*
%TD*%
%TO.P,SUB_TX1,1,1*%
%TO.N,SUB_TX*%
X68580000Y-27940000D03*
%TD*%
D10*
%TO.P,R1,1*%
%TO.N,BATTERY_SENSE*%
X57659900Y-59283600D03*
%TO.P,R1,2*%
%TO.N,Net-(U9-GPIO8)*%
X59484900Y-59283600D03*
%TD*%
D44*
%TO.P,H1,1,1*%
%TO.N,Net-(H1-Pad1)*%
X42418000Y-30480000D03*
%TD*%
D40*
%TO.P,PS2,1,-VIN*%
%TO.N,GNDREF*%
X146050000Y-40640000D03*
D41*
%TO.P,PS2,2,+VIN*%
%TO.N,Net-(PS2-+VIN)*%
X146050000Y-43180000D03*
%TO.P,PS2,3,-VOUT*%
%TO.N,GND2*%
X146050000Y-45720000D03*
%TO.P,PS2,4,+VOUT*%
%TO.N,VEE*%
X146050000Y-48260000D03*
%TD*%
D13*
%TO.P,R25,1*%
%TO.N,SCL*%
X134413000Y-29616400D03*
%TO.P,R25,2*%
%TO.N,Net-(U5-BSCL)*%
X132588000Y-29616400D03*
%TD*%
D18*
%TO.P,C10,1*%
%TO.N,VDD*%
X135636000Y-78216800D03*
%TO.P,C10,2*%
%TO.N,Net-(PS1-+VIN)*%
X135636000Y-76316800D03*
%TD*%
D45*
%TO.P,D2,1,K*%
%TO.N,+5V*%
X94107000Y-58826400D03*
D46*
%TO.P,D2,2,A*%
%TO.N,Net-(D2-A)*%
X104267000Y-58826400D03*
%TD*%
D13*
%TO.P,R8,1*%
%TO.N,GNDREF*%
X43648500Y-35814000D03*
%TO.P,R8,2*%
%TO.N,Net-(H1-Pad1)*%
X41823500Y-35814000D03*
%TD*%
D12*
%TO.P,R12,1*%
%TO.N,VEE*%
X146812000Y-54522500D03*
%TO.P,R12,2*%
%TO.N,Net-(U5-BSDA)*%
X146812000Y-56347500D03*
%TD*%
D11*
%TO.P,BATT_SENSE1,1,1*%
%TO.N,BATTERY_SENSE*%
X58115200Y-62839600D03*
%TD*%
%TO.P,VALVE1,1,1*%
%TO.N,VALVE_OUT*%
X112014000Y-44958000D03*
%TD*%
%TO.P,PANEL_SENSE1,1,1*%
%TO.N,PANEL_SENSE*%
X52070000Y-63296800D03*
%TD*%
D42*
%TO.P,J8,1,Pin_1*%
%TO.N,+5V*%
X98145600Y-86410800D03*
D43*
%TO.P,J8,2,Pin_2*%
%TO.N,EXTGPIO1*%
X95605600Y-86410800D03*
%TO.P,J8,3,Pin_3*%
%TO.N,EXTGPIO2*%
X93065600Y-86410800D03*
%TO.P,J8,4,Pin_4*%
%TO.N,EXTGPIO3*%
X90525600Y-86410800D03*
%TO.P,J8,5,Pin_5*%
%TO.N,EXTGPIO4*%
X87985600Y-86410800D03*
%TO.P,J8,6,Pin_6*%
%TO.N,EXTGPIO5*%
X85445600Y-86410800D03*
%TO.P,J8,7,Pin_7*%
%TO.N,GNDREF*%
X82905600Y-86410800D03*
%TD*%
D10*
%TO.P,R3,1*%
%TO.N,PANEL_SENSE*%
X57659900Y-52730400D03*
%TO.P,R3,2*%
%TO.N,Net-(U9-GPIO7)*%
X59484900Y-52730400D03*
%TD*%
D47*
%TO.P,U3,1,AVDD*%
%TO.N,+5V*%
X126495000Y-81090000D03*
%TO.P,U3,2,ASDA*%
%TO.N,SDA*%
X126495000Y-82360000D03*
%TO.P,U3,3,ASCL*%
%TO.N,SCL*%
X126495000Y-83630000D03*
%TO.P,U3,4,AGND*%
%TO.N,GNDREF*%
X126495000Y-84900000D03*
%TO.P,U3,5,BGND*%
%TO.N,GND1*%
X131445000Y-84900000D03*
%TO.P,U3,6,BSCL*%
%TO.N,Net-(U3-BSCL)*%
X131445000Y-83630000D03*
%TO.P,U3,7,BSDA*%
%TO.N,Net-(U3-BSDA)*%
X131445000Y-82360000D03*
%TO.P,U3,8,BVDD*%
%TO.N,VDD*%
X131445000Y-81090000D03*
%TD*%
%TO.P,U5,1,AVDD*%
%TO.N,+5V*%
X138241000Y-53467000D03*
%TO.P,U5,2,ASDA*%
%TO.N,SDA*%
X138241000Y-54737000D03*
%TO.P,U5,3,ASCL*%
%TO.N,SCL*%
X138241000Y-56007000D03*
%TO.P,U5,4,AGND*%
%TO.N,GNDREF*%
X138241000Y-57277000D03*
%TO.P,U5,5,BGND*%
%TO.N,GND2*%
X143191000Y-57277000D03*
%TO.P,U5,6,BSCL*%
%TO.N,Net-(U5-BSCL)*%
X143191000Y-56007000D03*
%TO.P,U5,7,BSDA*%
%TO.N,Net-(U5-BSDA)*%
X143191000Y-54737000D03*
%TO.P,U5,8,BVDD*%
%TO.N,VEE*%
X143191000Y-53467000D03*
%TD*%
D18*
%TO.P,C4,1*%
%TO.N,VDD*%
X131419600Y-78282800D03*
%TO.P,C4,2*%
%TO.N,GND1*%
X131419600Y-76382800D03*
%TD*%
D11*
%TO.P,VDD1,1,1*%
%TO.N,VDD*%
X113284000Y-77724000D03*
%TD*%
D13*
%TO.P,R5,1*%
%TO.N,VDD*%
X137668000Y-82346800D03*
%TO.P,R5,2*%
%TO.N,Net-(U3-BSDA)*%
X135843000Y-82346800D03*
%TD*%
D14*
%TO.P,L2,1,1*%
%TO.N,+5V*%
X138684000Y-35153600D03*
%TO.P,L2,2,2*%
%TO.N,Net-(PS2-+VIN)*%
X138684000Y-39203600D03*
%TD*%
D35*
%TO.P,U6,1,VCC*%
%TO.N,VEE*%
X124053600Y-51511200D03*
%TO.P,U6,2,RX/SCL*%
%TO.N,Net-(U5-BSCL)*%
X129133600Y-33731200D03*
%TO.P,U6,3,TX/SDA*%
%TO.N,Net-(U5-BSDA)*%
X126593600Y-33731200D03*
%TO.P,U6,4,PGND*%
%TO.N,Net-(U6-PGND)*%
X129133600Y-51511200D03*
%TO.P,U6,5,PRB*%
%TO.N,Net-(U6-PRB)*%
X126593600Y-51511200D03*
%TO.P,U6,6,GND*%
%TO.N,GND2*%
X124053600Y-33731200D03*
%TD*%
D21*
%TO.P,J11,1,1*%
%TO.N,SYNC*%
X47817800Y-65205600D03*
D22*
%TO.P,J11,2,2*%
%TO.N,READY{slash}INT*%
X47817800Y-67205600D03*
%TO.P,J11,3,3*%
%TO.N,GNDREF*%
X47817800Y-69205600D03*
%TO.P,J11,4,4*%
%TO.N,+3V3*%
X47817800Y-71205600D03*
%TO.P,J11,5,5*%
%TO.N,SDA*%
X47817800Y-73205600D03*
%TO.P,J11,6,6*%
%TO.N,SCL*%
X47817800Y-75205600D03*
%TD*%
D19*
%TO.P,C5,1*%
%TO.N,Net-(C5-Pad1)*%
X51866800Y-39182000D03*
%TO.P,C5,2*%
%TO.N,+3V3*%
X51866800Y-41082000D03*
%TD*%
D13*
%TO.P,R7,1*%
%TO.N,VDD*%
X137666100Y-85090000D03*
%TO.P,R7,2*%
%TO.N,Net-(U3-BSCL)*%
X135841100Y-85090000D03*
%TD*%
D33*
%TO.P,J6,1,1*%
%TO.N,Net-(J6-Pad1)*%
X95300800Y-30022800D03*
D34*
%TO.P,J6,2,2*%
%TO.N,GNDREF*%
X97300800Y-30022800D03*
%TD*%
D44*
%TO.P,H2,1,1*%
%TO.N,Net-(H2-Pad1)*%
X146558000Y-30480000D03*
%TD*%
D18*
%TO.P,C15,1*%
%TO.N,+5V*%
X134416800Y-53324800D03*
%TO.P,C15,2*%
%TO.N,GNDREF*%
X134416800Y-51424800D03*
%TD*%
D11*
%TO.P,24V1,1,1*%
%TO.N,+24V*%
X105029000Y-34874200D03*
%TD*%
%TO.P,SUB_RX1,1,1*%
%TO.N,SUB_RX*%
X59055000Y-31927800D03*
%TD*%
D48*
%TO.P,U2,1,TEST*%
%TO.N,unconnected-(U2-TEST-Pad1)*%
X105700000Y-68199000D03*
%TO.P,U2,2,CLOCK/VPROG*%
%TO.N,unconnected-(U2-CLOCK{slash}VPROG-Pad2)*%
X105700000Y-66929000D03*
%TO.P,U2,3,DATA_IN*%
%TO.N,unconnected-(U2-DATA_IN-Pad3)*%
X105700000Y-65659000D03*
%TO.P,U2,4,DATA_OUT*%
%TO.N,unconnected-(U2-DATA_OUT-Pad4)*%
X105700000Y-64389000D03*
%TO.P,U2,5,VDD*%
%TO.N,+5V*%
X97500000Y-64389000D03*
%TO.P,U2,6,GND*%
%TO.N,GNDREF*%
X97500000Y-65659000D03*
%TO.P,U2,7,VOUT*%
%TO.N,Net-(U2-VOUT)*%
X97500000Y-66929000D03*
D49*
%TO.P,U2,8,GND__1*%
%TO.N,GNDREF*%
X97500000Y-68199000D03*
%TD*%
D10*
%TO.P,R2,1*%
%TO.N,+5V*%
X120372500Y-81788000D03*
%TO.P,R2,2*%
%TO.N,SDA*%
X122197500Y-81788000D03*
%TD*%
D44*
%TO.P,H3,1,1*%
%TO.N,Net-(H3-Pad1)*%
X42418000Y-83820000D03*
%TD*%
D11*
%TO.P,SCL1,1,1*%
%TO.N,SCL*%
X87884000Y-27025600D03*
%TD*%
D10*
%TO.P,R22,1*%
%TO.N,/ADC0*%
X57659900Y-56032400D03*
%TO.P,R22,2*%
%TO.N,BATTERY_SENSE*%
X59484900Y-56032400D03*
%TD*%
D11*
%TO.P,AIR_IN1,1,1*%
%TO.N,AIR_INPUT*%
X89814400Y-61976000D03*
%TD*%
D13*
%TO.P,R26,1*%
%TO.N,SDA*%
X129842900Y-29616400D03*
%TO.P,R26,2*%
%TO.N,Net-(U5-BSDA)*%
X128017900Y-29616400D03*
%TD*%
D11*
%TO.P,GND1,1,1*%
%TO.N,GND1*%
X141782800Y-85801200D03*
%TD*%
%TO.P,5V1,1,1*%
%TO.N,+5V*%
X110998000Y-36423600D03*
%TD*%
D10*
%TO.P,R17,1*%
%TO.N,VALVE_OUT*%
X116716800Y-44907200D03*
%TO.P,R17,2*%
%TO.N,Net-(Q2-B)*%
X118541800Y-44907200D03*
%TD*%
D44*
%TO.P,H4,1,1*%
%TO.N,Net-(H4-Pad1)*%
X146558000Y-83820000D03*
%TD*%
D18*
%TO.P,C12,1*%
%TO.N,+5V*%
X126136400Y-78928000D03*
%TO.P,C12,2*%
%TO.N,GNDREF*%
X126136400Y-77028000D03*
%TD*%
D19*
%TO.P,C17,1*%
%TO.N,Net-(C17-Pad1)*%
X105308400Y-29565600D03*
%TO.P,C17,2*%
%TO.N,+24V*%
X105308400Y-31465600D03*
%TD*%
D50*
%TO.N,+5V*%
X106172000Y-85344000D03*
X133654800Y-42926000D03*
X135991600Y-53492400D03*
X139141200Y-63601600D03*
X96012000Y-63093600D03*
X119481600Y-79502000D03*
X139700000Y-58674000D03*
X51308000Y-72013800D03*
%TO.N,GNDREF*%
X52730400Y-50749200D03*
X95859600Y-65633600D03*
X124155200Y-77012800D03*
X137769600Y-51409600D03*
X51181000Y-83820000D03*
X57810400Y-78490800D03*
X129413000Y-84455000D03*
X54406800Y-42367200D03*
X57150000Y-66675000D03*
X92075000Y-66040000D03*
X45212000Y-35814000D03*
X143256000Y-78028800D03*
X52730400Y-66649600D03*
X136049500Y-59468500D03*
X124155200Y-84836000D03*
%TO.N,VDD*%
X131419600Y-79654400D03*
%TO.N,GND1*%
X133985000Y-75565000D03*
X132943600Y-86410800D03*
%TO.N,GND2*%
X140919200Y-49392800D03*
X124053600Y-31445200D03*
X148336000Y-58420000D03*
%TO.N,BATTERY_SENSE*%
X56184800Y-59283600D03*
%TO.N,SDA*%
X69596000Y-32258000D03*
X52222400Y-42773600D03*
X50596800Y-34239200D03*
X132588000Y-62865000D03*
X132588000Y-56489600D03*
%TO.N,SCL*%
X134467600Y-31648400D03*
X50804653Y-31094253D03*
X51206400Y-44450000D03*
X132676900Y-68872100D03*
X135636000Y-56642000D03*
%TO.N,PANEL_SENSE*%
X57505600Y-54356000D03*
X51968400Y-59080400D03*
%TO.N,VALVE_OUT*%
X108966000Y-44958000D03*
%TO.N,ADC_RDY*%
X55626000Y-52781200D03*
%TO.N,Net-(U5-BSDA)*%
X133756400Y-45364400D03*
%TO.N,Net-(U3-BSDA)*%
X129413000Y-81280000D03*
%TO.N,Net-(U3-BSCL)*%
X129413000Y-82931000D03*
%TD*%
D51*
%TO.N,GND1*%
X133167200Y-76382800D02*
X131419600Y-76382800D01*
X133985000Y-75565000D02*
X133167200Y-76382800D01*
%TO.N,Net-(J6-Pad1)*%
X99009200Y-34582100D02*
X99009200Y-35509200D01*
X102198800Y-31392500D02*
X99009200Y-34582100D01*
X102565200Y-31392500D02*
X102198800Y-31392500D01*
X99009200Y-34442400D02*
X99009200Y-35509200D01*
X95300800Y-30734000D02*
X99009200Y-34442400D01*
X95300800Y-30022800D02*
X95300800Y-30734000D01*
%TO.N,GNDREF*%
X57150000Y-66675000D02*
X57150000Y-67960200D01*
X57150000Y-67960200D02*
X57226200Y-68036400D01*
X92075000Y-66040000D02*
X93121400Y-64993600D01*
X93121400Y-64993600D02*
X94234000Y-64993600D01*
%TO.N,+5V*%
X52818000Y-72440800D02*
X52818000Y-69990000D01*
X52818000Y-69990000D02*
X52679600Y-69851600D01*
X126136400Y-78928000D02*
X126136400Y-80731400D01*
X139700000Y-58674000D02*
X139700000Y-53941001D01*
X110998000Y-31191200D02*
X112166400Y-30022800D01*
X138241000Y-53467000D02*
X136017000Y-53467000D01*
X119481600Y-79502000D02*
X120372500Y-80392900D01*
X119481600Y-79502000D02*
X123190000Y-79502000D01*
X96012000Y-63093600D02*
X94234000Y-63093600D01*
X135991600Y-53492400D02*
X135966200Y-53467000D01*
X139225999Y-53467000D02*
X138241000Y-53467000D01*
X104140000Y-86106000D02*
X105410000Y-86106000D01*
X133654800Y-38150800D02*
X136652000Y-35153600D01*
X139039600Y-63703200D02*
X139039600Y-67208400D01*
X51735000Y-72440800D02*
X52818000Y-72440800D01*
X51308000Y-72013800D02*
X51735000Y-72440800D01*
X120372500Y-80392900D02*
X120372500Y-81788000D01*
X139039600Y-67132100D02*
X134010500Y-62103000D01*
X134010500Y-62103000D02*
X127254000Y-62103000D01*
X126495000Y-81090000D02*
X124778000Y-81090000D01*
X126136400Y-80731400D02*
X126495000Y-81090000D01*
X139039600Y-68536200D02*
X139039600Y-67208400D01*
X98450400Y-86106000D02*
X98145600Y-86410800D01*
X104140000Y-86106000D02*
X98450400Y-86106000D01*
X136017000Y-53467000D02*
X135991600Y-53492400D01*
X110998000Y-36423600D02*
X110998000Y-31191200D01*
X127254000Y-62103000D02*
X122936000Y-66421000D01*
X94107000Y-58826400D02*
X94107000Y-62966600D01*
X97500000Y-64389000D02*
X96204600Y-63093600D01*
X96204600Y-63093600D02*
X96012000Y-63093600D01*
X123190000Y-79502000D02*
X124778000Y-81090000D01*
X133654800Y-42926000D02*
X133654800Y-38150800D01*
X122936000Y-78841600D02*
X122275600Y-79502000D01*
X120460000Y-85485100D02*
X120460000Y-81788000D01*
X120397900Y-85547200D02*
X120460000Y-85485100D01*
X105410000Y-86106000D02*
X106172000Y-85344000D01*
X135966200Y-53467000D02*
X135219400Y-53467000D01*
X139700000Y-53941001D02*
X139225999Y-53467000D01*
X139141200Y-63601600D02*
X139039600Y-63703200D01*
X136652000Y-35153600D02*
X138684000Y-35153600D01*
X122936000Y-66421000D02*
X122936000Y-78841600D01*
X120460000Y-81547200D02*
X120460000Y-81788000D01*
X94107000Y-62966600D02*
X94234000Y-63093600D01*
X139039600Y-67208400D02*
X139039600Y-67132100D01*
%TO.N,GNDREF*%
X55118000Y-74740800D02*
X57418000Y-72440800D01*
X122682000Y-61468000D02*
X117348000Y-56134000D01*
X52927232Y-47724400D02*
X52695600Y-47956032D01*
X96049800Y-69050200D02*
X94132400Y-69050200D01*
X53695600Y-47956032D02*
X53463968Y-47724400D01*
X95961200Y-65633600D02*
X95986600Y-65659000D01*
X54406800Y-42367200D02*
X54406800Y-41132800D01*
X117094000Y-30950400D02*
X116166400Y-30022800D01*
X45212000Y-35814000D02*
X45085000Y-35814000D01*
X124155200Y-84836000D02*
X124219200Y-84900000D01*
X98285300Y-73647300D02*
X98285300Y-68984300D01*
X97500000Y-68199000D02*
X96901000Y-68199000D01*
X143256000Y-78028800D02*
X144475200Y-79248000D01*
X145034000Y-67016000D02*
X146050000Y-67016000D01*
X98189500Y-65659000D02*
X98806000Y-66275500D01*
X98350000Y-68199000D02*
X97500000Y-68199000D01*
X103314500Y-78828900D02*
X103390700Y-78752700D01*
X147259000Y-65807000D02*
X146050000Y-67016000D01*
X144475200Y-79248000D02*
X145479000Y-79248000D01*
X55118000Y-78490800D02*
X55118000Y-74740800D01*
X136049500Y-59468500D02*
X138241000Y-57277000D01*
X126136400Y-77028000D02*
X124170400Y-77028000D01*
X129413000Y-84455000D02*
X128968000Y-84900000D01*
X117348000Y-56134000D02*
X117348000Y-54102000D01*
X53695600Y-48784400D02*
X53695600Y-47956032D01*
X126495000Y-86007400D02*
X127508000Y-87020400D01*
X124170400Y-77028000D02*
X124155200Y-77012800D01*
X127508000Y-87020400D02*
X127980400Y-87020400D01*
X98806000Y-67743000D02*
X98350000Y-68199000D01*
X134416800Y-51424800D02*
X137602000Y-51424800D01*
X117094000Y-36474400D02*
X117094000Y-30950400D01*
X124219200Y-84900000D02*
X126495000Y-84900000D01*
X98806000Y-66275500D02*
X98806000Y-67743000D01*
X125968800Y-77028000D02*
X125933200Y-77063600D01*
X147259000Y-61595000D02*
X147259000Y-65807000D01*
X52679600Y-66700400D02*
X52679600Y-68301600D01*
X53463968Y-47724400D02*
X52927232Y-47724400D01*
X137602000Y-51424800D02*
X137617200Y-51409600D01*
X52730400Y-50749200D02*
X52730400Y-48819200D01*
X136049500Y-59468500D02*
X134050000Y-61468000D01*
X43561000Y-35814000D02*
X45212000Y-35814000D01*
X95986600Y-65659000D02*
X97500000Y-65659000D01*
X126495000Y-84900000D02*
X126495000Y-86007400D01*
X136049500Y-59468500D02*
X137497300Y-59468500D01*
X97500000Y-65659000D02*
X98189500Y-65659000D01*
X52695600Y-47956032D02*
X52695600Y-48784400D01*
X145630500Y-41059500D02*
X146050000Y-40640000D01*
X49339000Y-83820000D02*
X51181000Y-83820000D01*
X52730400Y-48819200D02*
X52695600Y-48784400D01*
X98285300Y-68984300D02*
X97500000Y-68199000D01*
X96901000Y-68199000D02*
X96049800Y-69050200D01*
X137497300Y-59468500D02*
X145044800Y-67016000D01*
X57810400Y-78490800D02*
X55118000Y-78490800D01*
X128968000Y-84900000D02*
X126495000Y-84900000D01*
X52730400Y-66649600D02*
X52679600Y-66700400D01*
X134050000Y-61468000D02*
X122682000Y-61468000D01*
X146812000Y-39878000D02*
X146050000Y-40640000D01*
X146812000Y-36385000D02*
X146812000Y-39878000D01*
X145542000Y-41148000D02*
X146050000Y-40640000D01*
%TO.N,VDD*%
X113284000Y-77724000D02*
X113284000Y-74218800D01*
X113284000Y-74218800D02*
X113284000Y-70104000D01*
X131445000Y-81090000D02*
X131445000Y-78308200D01*
X137668000Y-82296000D02*
X137668000Y-82346800D01*
X137666100Y-85090000D02*
X137666100Y-82348700D01*
X113284000Y-70104000D02*
X110236000Y-67056000D01*
X131445000Y-78308200D02*
X131419600Y-78282800D01*
X135636000Y-80264000D02*
X137668000Y-82296000D01*
X131419600Y-79654400D02*
X135026400Y-79654400D01*
X137666100Y-82348700D02*
X137668000Y-82346800D01*
X135636000Y-78216800D02*
X135636000Y-80264000D01*
X135026400Y-79654400D02*
X135636000Y-80264000D01*
%TO.N,GND1*%
X133502400Y-86969600D02*
X140614400Y-86969600D01*
X132943600Y-86410800D02*
X133502400Y-86969600D01*
X140614400Y-86969600D02*
X141782800Y-85801200D01*
X131445000Y-84900000D02*
X131445000Y-86182200D01*
X130606800Y-87020400D02*
X129880400Y-87020400D01*
X132943600Y-86398600D02*
X131445000Y-84900000D01*
X131445000Y-86182200D02*
X130606800Y-87020400D01*
X132296400Y-84900000D02*
X131445000Y-84900000D01*
X132943600Y-86410800D02*
X132943600Y-86398600D01*
D52*
%TO.N,+24V*%
X105029000Y-34874200D02*
X105308400Y-34594800D01*
X105009199Y-40553851D02*
X105009199Y-34894001D01*
X105009199Y-34894001D02*
X105029000Y-34874200D01*
X105308400Y-34594800D02*
X105308400Y-31465600D01*
D51*
%TO.N,Net-(U2-VOUT)*%
X97500000Y-66929000D02*
X96901000Y-66929000D01*
X91147400Y-67500200D02*
X91084400Y-67437200D01*
X96266000Y-67564000D02*
X94196200Y-67564000D01*
X94132400Y-67500200D02*
X91147400Y-67500200D01*
X96901000Y-66929000D02*
X96266000Y-67564000D01*
X94196200Y-67564000D02*
X94132400Y-67500200D01*
%TO.N,VEE*%
X145933200Y-48260000D02*
X146050000Y-48260000D01*
X137249600Y-45657200D02*
X139188800Y-45657200D01*
X140853200Y-43992800D02*
X145120400Y-48260000D01*
X143191000Y-53467000D02*
X145669000Y-53467000D01*
X145120400Y-48260000D02*
X146050000Y-48260000D01*
X145669000Y-53467000D02*
X146812000Y-54610000D01*
X142900400Y-51292800D02*
X145933200Y-48260000D01*
X143191000Y-53467000D02*
X143103600Y-53379600D01*
X139188800Y-45657200D02*
X140853200Y-43992800D01*
X150114000Y-54610000D02*
X146812000Y-54610000D01*
X135839200Y-44246800D02*
X137249600Y-45657200D01*
X143103600Y-53379600D02*
X143103600Y-51379200D01*
X143103600Y-51379200D02*
X143017200Y-51292800D01*
%TO.N,GND2*%
X148984000Y-61595000D02*
X148984000Y-60846000D01*
X148336000Y-60198000D02*
X147447000Y-59309000D01*
X147447000Y-59309000D02*
X143253000Y-59309000D01*
X143253000Y-59309000D02*
X143129000Y-59309000D01*
X148336000Y-58420000D02*
X147447000Y-59309000D01*
X143253000Y-59309000D02*
X143191000Y-59247000D01*
X148984000Y-60846000D02*
X148336000Y-60198000D01*
X143191000Y-58609000D02*
X143191000Y-59247000D01*
X143129000Y-59309000D02*
X141859000Y-60579000D01*
X124053600Y-31445200D02*
X124053600Y-33731200D01*
X143191000Y-57277000D02*
X143191000Y-58609000D01*
X140919200Y-49392800D02*
X142900400Y-49392800D01*
%TO.N,AIR_COMP*%
X47142400Y-81686400D02*
X39878000Y-74422000D01*
X47852600Y-50190400D02*
X47868600Y-50174400D01*
X42926000Y-50190400D02*
X47852600Y-50190400D01*
X61671200Y-74269600D02*
X61671200Y-79298800D01*
X61671200Y-79298800D02*
X59283600Y-81686400D01*
X59283600Y-81686400D02*
X47142400Y-81686400D01*
X62779800Y-73161000D02*
X61671200Y-74269600D01*
X39878000Y-74422000D02*
X39878000Y-53238400D01*
X39878000Y-53238400D02*
X42926000Y-50190400D01*
X65786000Y-73161000D02*
X62779800Y-73161000D01*
D53*
%TO.N,+3V3*%
X55118000Y-70967600D02*
X55118000Y-72440800D01*
X47817800Y-71205600D02*
X50292000Y-68731400D01*
X54610000Y-63398400D02*
X54610000Y-62839600D01*
D51*
X52447200Y-32742500D02*
X52447200Y-35739700D01*
X51511200Y-80162400D02*
X50749200Y-79400400D01*
D53*
X51358800Y-54354100D02*
X54610000Y-57605300D01*
D51*
X50749200Y-74137000D02*
X47817800Y-71205600D01*
D53*
X51358800Y-48158400D02*
X51358800Y-54354100D01*
D51*
X52447200Y-35739700D02*
X52372900Y-35814000D01*
X53695600Y-42926000D02*
X50546000Y-39776400D01*
D53*
X56504800Y-69936400D02*
X56149200Y-69936400D01*
X54610000Y-62839600D02*
X54610000Y-57605300D01*
D51*
X50749200Y-79400400D02*
X50749200Y-74137000D01*
X53695600Y-45770800D02*
X53695600Y-44484400D01*
X53695600Y-44484400D02*
X53695600Y-42926000D01*
D53*
X50292000Y-68731400D02*
X50292000Y-67716400D01*
D51*
X50546000Y-37640900D02*
X52372900Y-35814000D01*
D53*
X50292000Y-67716400D02*
X54610000Y-63398400D01*
D51*
X50546000Y-39776400D02*
X50546000Y-37640900D01*
X57226200Y-69936400D02*
X56504800Y-69936400D01*
X52525300Y-32664400D02*
X52447200Y-32742500D01*
D53*
X55118000Y-63906400D02*
X54610000Y-63398400D01*
X56149200Y-69936400D02*
X55118000Y-70967600D01*
X53644800Y-45872400D02*
X51358800Y-48158400D01*
X55118000Y-70967600D02*
X55118000Y-63906400D01*
D51*
%TO.N,PRESSURE_INPUT*%
X114166400Y-29851600D02*
X114166400Y-30022800D01*
X121513600Y-28194000D02*
X120294400Y-26974800D01*
X117043200Y-26974800D02*
X114166400Y-29851600D01*
X120294400Y-26974800D02*
X117043200Y-26974800D01*
%TO.N,TEMP_INPUT*%
X88138000Y-57048400D02*
X86470600Y-55381000D01*
X86470600Y-55381000D02*
X83566000Y-55381000D01*
X101028500Y-82804000D02*
X101028500Y-76390500D01*
X104140000Y-84456000D02*
X102680500Y-84456000D01*
X100838000Y-76200000D02*
X95758000Y-76200000D01*
X88138000Y-68580000D02*
X88138000Y-57048400D01*
X102680500Y-84456000D02*
X101028500Y-82804000D01*
X95758000Y-76200000D02*
X88138000Y-68580000D01*
X101028500Y-76390500D02*
X100838000Y-76200000D01*
%TO.N,SUB_TX*%
X64525000Y-32521000D02*
X65786000Y-32521000D01*
X60198000Y-28194000D02*
X64525000Y-32521000D01*
X65786000Y-32521000D02*
X65786000Y-30734000D01*
X65786000Y-30734000D02*
X68580000Y-27940000D01*
%TO.N,SUB_RX*%
X46532800Y-33324800D02*
X49682400Y-30175200D01*
X57531000Y-28194000D02*
X57658000Y-28194000D01*
X55549800Y-30175200D02*
X57531000Y-28194000D01*
X59182000Y-29718000D02*
X59182000Y-32054800D01*
X49682400Y-30175200D02*
X55549800Y-30175200D01*
X47868600Y-48174400D02*
X46532800Y-46838600D01*
X46532800Y-46838600D02*
X46532800Y-33324800D01*
X62188200Y-35061000D02*
X65786000Y-35061000D01*
X59182000Y-32054800D02*
X62188200Y-35061000D01*
X57658000Y-28194000D02*
X59182000Y-29718000D01*
%TO.N,Net-(U6-PRB)*%
X126479300Y-57404000D02*
X126479300Y-51625500D01*
X126479300Y-51625500D02*
X126593600Y-51511200D01*
%TO.N,AIR_INPUT*%
X89814400Y-67817200D02*
X89814400Y-61976000D01*
X86496000Y-52841000D02*
X83566000Y-52841000D01*
X91084400Y-69087200D02*
X89814400Y-67817200D01*
X89814400Y-61976000D02*
X89814400Y-56159400D01*
X89814400Y-56159400D02*
X86496000Y-52841000D01*
%TO.N,BATTERY_SENSE*%
X56184800Y-59283600D02*
X57659900Y-59283600D01*
X59484900Y-57458600D02*
X57659900Y-59283600D01*
X57659900Y-59283600D02*
X57659900Y-62384300D01*
X59484900Y-56032400D02*
X59484900Y-57458600D01*
X57659900Y-62384300D02*
X58115200Y-62839600D01*
%TO.N,Net-(PS1-+VIN)*%
X139039600Y-72586200D02*
X143019800Y-72586200D01*
X139039600Y-72913200D02*
X135636000Y-76316800D01*
X139039600Y-72586200D02*
X139039600Y-72913200D01*
X143019800Y-72586200D02*
X146050000Y-69556000D01*
%TO.N,Net-(PS2-+VIN)*%
X138953200Y-43992800D02*
X138953200Y-39472800D01*
X138684000Y-39203600D02*
X142073600Y-39203600D01*
X142073600Y-39203600D02*
X146050000Y-43180000D01*
X138953200Y-39472800D02*
X138684000Y-39203600D01*
%TO.N,SDA*%
X124206000Y-81788000D02*
X124778000Y-82360000D01*
X127812800Y-44627800D02*
X127812800Y-32613600D01*
X134340600Y-54737000D02*
X137789820Y-54737000D01*
X73914000Y-27940000D02*
X83515200Y-27940000D01*
X124778000Y-82360000D02*
X126495000Y-82360000D01*
X92913200Y-26416000D02*
X90271600Y-29057600D01*
X126492000Y-72898000D02*
X126492000Y-66421000D01*
X128714000Y-64199000D02*
X132588000Y-64199000D01*
X127762000Y-80635820D02*
X127762000Y-74168000D01*
X69596000Y-32258000D02*
X73914000Y-27940000D01*
X90271600Y-29057600D02*
X84632800Y-29057600D01*
X127805000Y-80678820D02*
X127762000Y-80635820D01*
X53195600Y-44484400D02*
X53195600Y-43340400D01*
X53195600Y-45356400D02*
X53195600Y-44484400D01*
X52222400Y-42773600D02*
X51511200Y-42773600D01*
X47817800Y-73205600D02*
X46332400Y-73205600D01*
X49936400Y-36425500D02*
X50547900Y-35814000D01*
X129842900Y-30583500D02*
X129842900Y-28090500D01*
X50292000Y-48260000D02*
X53195600Y-45356400D01*
X46332400Y-73205600D02*
X45516800Y-72390000D01*
X127479999Y-82360000D02*
X127805000Y-82034999D01*
X45516800Y-65074800D02*
X50292000Y-60299600D01*
X52628800Y-42773600D02*
X52222400Y-42773600D01*
X51511200Y-42773600D02*
X49936400Y-41198800D01*
X126495000Y-82360000D02*
X127479999Y-82360000D01*
X126492000Y-66421000D02*
X128714000Y-64199000D01*
X132588000Y-56489600D02*
X134340600Y-54737000D01*
X122110000Y-81788000D02*
X124206000Y-81788000D01*
X127762000Y-74168000D02*
X126492000Y-72898000D01*
X49936400Y-41198800D02*
X49936400Y-36425500D01*
X45516800Y-72390000D02*
X45516800Y-65074800D01*
X132588000Y-49403000D02*
X127812800Y-44627800D01*
X132588000Y-56489600D02*
X132588000Y-49403000D01*
X50547900Y-34288100D02*
X50547900Y-35814000D01*
X127812800Y-32613600D02*
X129842900Y-30583500D01*
X132588000Y-62865000D02*
X132588000Y-64199000D01*
X127805000Y-82034999D02*
X127805000Y-80678820D01*
X128168400Y-26416000D02*
X92913200Y-26416000D01*
X53195600Y-43340400D02*
X52628800Y-42773600D01*
X129842900Y-28090500D02*
X128168400Y-26416000D01*
X50596800Y-34239200D02*
X50547900Y-34288100D01*
X50292000Y-60299600D02*
X50292000Y-48260000D01*
X84632800Y-29057600D02*
X83515200Y-27940000D01*
%TO.N,SCL*%
X48615600Y-34442400D02*
X48615600Y-40487600D01*
X126686000Y-83439000D02*
X127381000Y-83439000D01*
X50393600Y-32664400D02*
X48615600Y-34442400D01*
X132588000Y-68961000D02*
X132588000Y-71438000D01*
X68580000Y-44967000D02*
X65786000Y-47761000D01*
X134061200Y-73812400D02*
X134061200Y-72237600D01*
X51206400Y-44450000D02*
X51240800Y-44484400D01*
X85750400Y-27025600D02*
X84836000Y-26111200D01*
X47817800Y-75205600D02*
X46300400Y-75205600D01*
X50804653Y-32507347D02*
X50647600Y-32664400D01*
X84836000Y-26111200D02*
X74218800Y-26111200D01*
X126495000Y-83630000D02*
X123684800Y-83630000D01*
X51206400Y-44450000D02*
X49580800Y-42824400D01*
X46300400Y-75205600D02*
X44297600Y-73202800D01*
X49580800Y-42824400D02*
X49479200Y-42824400D01*
X90373200Y-27025600D02*
X85750400Y-27025600D01*
X126495000Y-83630000D02*
X126686000Y-83439000D01*
X134467600Y-31648400D02*
X134467600Y-27228800D01*
X129590800Y-74980800D02*
X132892800Y-74980800D01*
X123684800Y-83630000D02*
X122222900Y-85091900D01*
X49479200Y-41351200D02*
X49479200Y-42824400D01*
X132892800Y-74980800D02*
X134061200Y-73812400D01*
X128688000Y-81979600D02*
X128688000Y-75883600D01*
X136271000Y-56007000D02*
X138241000Y-56007000D01*
X49479200Y-57048400D02*
X49479200Y-42824400D01*
X128688000Y-75883600D02*
X129590800Y-74980800D01*
X50647600Y-32664400D02*
X50393600Y-32664400D01*
X134467600Y-27228800D02*
X133204800Y-25966000D01*
X51240800Y-44484400D02*
X52695600Y-44484400D01*
X44297600Y-62230000D02*
X49479200Y-57048400D01*
X44297600Y-73202800D02*
X44297600Y-62230000D01*
X132676900Y-68872100D02*
X132588000Y-68961000D01*
X133204800Y-25966000D02*
X91432800Y-25966000D01*
X74218800Y-26111200D02*
X68580000Y-31750000D01*
X68580000Y-31750000D02*
X68580000Y-44967000D01*
X48615600Y-40487600D02*
X49479200Y-41351200D01*
X135636000Y-56642000D02*
X136271000Y-56007000D01*
X122222900Y-85091900D02*
X122222900Y-85547200D01*
X91432800Y-25966000D02*
X90373200Y-27025600D01*
X133174100Y-71350500D02*
X132588000Y-71350500D01*
X134061200Y-72237600D02*
X133174100Y-71350500D01*
X50804653Y-31094253D02*
X50804653Y-32507347D01*
X127037600Y-83630000D02*
X128688000Y-81979600D01*
X126495000Y-83630000D02*
X127037600Y-83630000D01*
%TO.N,Net-(C17-Pad1)*%
X102567100Y-29565600D02*
X102565200Y-29567500D01*
X105308400Y-29565600D02*
X102567100Y-29565600D01*
%TO.N,Net-(D2-A)*%
X104267000Y-53495248D02*
X105009199Y-52753049D01*
X112268000Y-54102000D02*
X110919049Y-52753049D01*
X104267000Y-58826400D02*
X104267000Y-53495248D01*
X110919049Y-52753049D02*
X105009199Y-52753049D01*
%TO.N,Net-(U5-BSCL)*%
X140512800Y-54660800D02*
X141859000Y-56007000D01*
X148907000Y-57404000D02*
X150114000Y-56197000D01*
X132588000Y-30276800D02*
X129184400Y-33680400D01*
X134162800Y-46380400D02*
X140512800Y-52730400D01*
X132588000Y-29616400D02*
X132588000Y-30276800D01*
X133654800Y-46380400D02*
X134162800Y-46380400D01*
X145572999Y-57404000D02*
X148907000Y-57404000D01*
X143191000Y-56007000D02*
X144175999Y-56007000D01*
X144175999Y-56007000D02*
X145572999Y-57404000D01*
X129184400Y-33680400D02*
X129184400Y-41910000D01*
X141859000Y-56007000D02*
X143191000Y-56007000D01*
X140512800Y-52730400D02*
X140512800Y-54660800D01*
X129184400Y-41910000D02*
X133654800Y-46380400D01*
%TO.N,/ADC3*%
X56032400Y-38760400D02*
X58166000Y-36626800D01*
X54195600Y-43656032D02*
X56032400Y-41819232D01*
X56032400Y-41819232D02*
X56032400Y-38760400D01*
X54195600Y-44484400D02*
X54195600Y-43656032D01*
%TO.N,/ADC2*%
X56642000Y-42538000D02*
X56642000Y-40690800D01*
X56642000Y-40690800D02*
X58166000Y-39166800D01*
X54695600Y-44484400D02*
X56642000Y-42538000D01*
%TO.N,/ADC1*%
X55558800Y-48784400D02*
X54695600Y-48784400D01*
X57710700Y-49326800D02*
X57710700Y-47496100D01*
X55930800Y-48412400D02*
X55558800Y-48784400D01*
X55930800Y-44043600D02*
X55930800Y-48412400D01*
X58674000Y-41706800D02*
X58166000Y-41706800D01*
X58166000Y-41808400D02*
X55930800Y-44043600D01*
X58166000Y-41706800D02*
X58166000Y-41808400D01*
X60299600Y-43332400D02*
X58674000Y-41706800D01*
X60299600Y-44907200D02*
X60299600Y-43332400D01*
X57710700Y-47496100D02*
X60299600Y-44907200D01*
%TO.N,/ADC0*%
X58166000Y-45008800D02*
X56540400Y-46634400D01*
X56540400Y-51968400D02*
X56540400Y-55626000D01*
X54195600Y-49612768D02*
X56540400Y-51957568D01*
X56540400Y-51957568D02*
X56540400Y-51968400D01*
X56540400Y-55626000D02*
X56946800Y-56032400D01*
X56540400Y-46634400D02*
X56540400Y-51968400D01*
X54195600Y-48784400D02*
X54195600Y-49612768D01*
X58166000Y-44246800D02*
X58166000Y-45008800D01*
X56946800Y-56032400D02*
X57659900Y-56032400D01*
%TO.N,Net-(J6-Pad1)*%
X99009200Y-35509200D02*
X99009200Y-54753050D01*
%TO.N,PANEL_SENSE*%
X51968400Y-59080400D02*
X51968400Y-62738000D01*
X57659900Y-54201700D02*
X57659900Y-52730400D01*
X57659900Y-51202600D02*
X59535700Y-49326800D01*
X57659900Y-52730400D02*
X57659900Y-51202600D01*
X57505600Y-54356000D02*
X57659900Y-54201700D01*
%TO.N,SWCLK*%
X72136000Y-80551000D02*
X72136000Y-86233000D01*
%TO.N,GND*%
X74676000Y-80551000D02*
X74676000Y-86233000D01*
%TO.N,SWDIO*%
X77216000Y-80551000D02*
X77216000Y-86233000D01*
%TO.N,Net-(Q2-B)*%
X118541800Y-44907200D02*
X118541800Y-47828200D01*
X118541800Y-47828200D02*
X114808000Y-51562000D01*
%TO.N,VALVE_OUT*%
X108966000Y-44958000D02*
X112014000Y-44958000D01*
X116666000Y-45516800D02*
X116716800Y-45466000D01*
X112014000Y-44958000D02*
X116666000Y-44958000D01*
%TO.N,ADC_RDY*%
X53195600Y-50046000D02*
X53195600Y-48784400D01*
X55626000Y-52781200D02*
X55626000Y-52476400D01*
X55626000Y-52476400D02*
X53195600Y-50046000D01*
X55626000Y-52781200D02*
X54610000Y-53797200D01*
X54610000Y-53797200D02*
X54610000Y-55780300D01*
%TO.N,Net-(U4-PRB)*%
X112014000Y-83451700D02*
X112014000Y-71374000D01*
X112014000Y-71374000D02*
X110236000Y-69596000D01*
X113017300Y-84455000D02*
X112014000Y-83451700D01*
%TO.N,EXTGPIO1*%
X85176000Y-68081000D02*
X83566000Y-68081000D01*
X85835600Y-68081000D02*
X83566000Y-68081000D01*
X95605600Y-86410800D02*
X95605600Y-78510600D01*
X95605600Y-78510600D02*
X85176000Y-68081000D01*
%TO.N,EXTGPIO2*%
X93065600Y-86410800D02*
X93065600Y-78510600D01*
X93065600Y-78510600D02*
X85176000Y-70621000D01*
X85176000Y-70621000D02*
X83566000Y-70621000D01*
%TO.N,EXTGPIO3*%
X90525600Y-86410800D02*
X90525600Y-78510600D01*
X90525600Y-78510600D02*
X85176000Y-73161000D01*
X85176000Y-73161000D02*
X83566000Y-73161000D01*
%TO.N,Net-(U6-PGND)*%
X129032000Y-51612800D02*
X129133600Y-51511200D01*
X129032000Y-54851300D02*
X129032000Y-51612800D01*
%TO.N,Net-(U5-BSDA)*%
X145289000Y-54737000D02*
X143191000Y-54737000D01*
X142113000Y-54737000D02*
X143191000Y-54737000D01*
X141224000Y-53848000D02*
X142113000Y-54737000D01*
X133756400Y-45364400D02*
X134518400Y-45364400D01*
X146812000Y-56260000D02*
X145289000Y-54737000D01*
X126593600Y-31040700D02*
X126593600Y-33731200D01*
X141224000Y-52070000D02*
X141224000Y-53848000D01*
X128017900Y-29616400D02*
X126593600Y-31040700D01*
X134518400Y-45364400D02*
X141224000Y-52070000D01*
%TO.N,EXTGPIO4*%
X87985600Y-81050600D02*
X85176000Y-78241000D01*
X87985600Y-86410800D02*
X87985600Y-81050600D01*
X85176000Y-78241000D02*
X83566000Y-78241000D01*
%TO.N,EXTGPIO5*%
X83566000Y-84531200D02*
X83566000Y-80781000D01*
X85445600Y-86410800D02*
X83566000Y-84531200D01*
%TO.N,Net-(U9-GPIO8)*%
X65786000Y-57921000D02*
X60847500Y-57921000D01*
X60847500Y-57921000D02*
X59484900Y-59283600D01*
X65532000Y-58175000D02*
X65786000Y-57921000D01*
%TO.N,Net-(U3-BSDA)*%
X130460001Y-82360000D02*
X131445000Y-82360000D01*
X129413000Y-81312999D02*
X130460001Y-82360000D01*
X135829800Y-82360000D02*
X131445000Y-82360000D01*
X135843000Y-82346800D02*
X135829800Y-82360000D01*
X131763000Y-65849000D02*
X132588000Y-65849000D01*
X129413000Y-81280000D02*
X129413000Y-81312999D01*
X128016000Y-69596000D02*
X131763000Y-65849000D01*
X131631200Y-82546200D02*
X131445000Y-82360000D01*
%TO.N,Net-(U9-GPIO7)*%
X65726200Y-55321200D02*
X65786000Y-55381000D01*
X62075700Y-55321200D02*
X65726200Y-55321200D01*
X59484900Y-52730400D02*
X62075700Y-55321200D01*
%TO.N,Net-(U3-BSCL)*%
X129413000Y-82931000D02*
X130112000Y-83630000D01*
X130112000Y-83630000D02*
X131445000Y-83630000D01*
X129055500Y-73175500D02*
X128016000Y-72136000D01*
X135841100Y-85090000D02*
X134381100Y-83630000D01*
X132588000Y-73175500D02*
X129055500Y-73175500D01*
X134381100Y-83630000D02*
X131445000Y-83630000D01*
X132016000Y-73088000D02*
X132588000Y-73088000D01*
%TO.N,Net-(U4-PGND)*%
X110236000Y-72136000D02*
X110236000Y-81673700D01*
X110236000Y-81673700D02*
X110464600Y-81902300D01*
%TO.N,Net-(H1-Pad1)*%
X42418000Y-30480000D02*
X41783000Y-31115000D01*
X41974000Y-35687000D02*
X41974000Y-30924000D01*
X41974000Y-30924000D02*
X42418000Y-30480000D01*
%TO.N,Net-(H2-Pad1)*%
X146812000Y-30734000D02*
X146558000Y-30480000D01*
X146812000Y-34735000D02*
X146812000Y-30734000D01*
%TO.N,Net-(H4-Pad1)*%
X147129000Y-79248000D02*
X147129000Y-83249000D01*
X147129000Y-83249000D02*
X146558000Y-83820000D01*
%TO.N,Net-(H3-Pad1)*%
X47689000Y-83820000D02*
X42418000Y-83820000D01*
%TO.N,Net-(C5-Pad1)*%
X54406800Y-39232800D02*
X51882000Y-39232800D01*
X51882000Y-39232800D02*
X51866800Y-39248000D01*
%TD*%
M02*
