%TF.GenerationSoftware,KiCad,Pcbnew,7.0.10*%
%TF.CreationDate,2024-03-29T22:24:31-04:00*%
%TF.ProjectId,WaveWise_Submersible,57617665-5769-4736-955f-5375626d6572,rev?*%
%TF.SameCoordinates,Original*%
%TF.FileFunction,Soldermask,Bot*%
%TF.FilePolarity,Negative*%
%FSLAX46Y46*%
G04 Gerber Fmt 4.6, Leading zero omitted, Abs format (unit mm)*
G04 Created by KiCad (PCBNEW 7.0.10) date 2024-03-29 22:24:31*
%MOMM*%
%LPD*%
G01*
G04 APERTURE LIST*
G04 Aperture macros list*
%AMRoundRect*
0 Rectangle with rounded corners*
0 $1 Rounding radius*
0 $2 $3 $4 $5 $6 $7 $8 $9 X,Y pos of 4 corners*
0 Add a 4 corners polygon primitive as box body*
4,1,4,$2,$3,$4,$5,$6,$7,$8,$9,$2,$3,0*
0 Add four circle primitives for the rounded corners*
1,1,$1+$1,$2,$3*
1,1,$1+$1,$4,$5*
1,1,$1+$1,$6,$7*
1,1,$1+$1,$8,$9*
0 Add four rect primitives between the rounded corners*
20,1,$1+$1,$2,$3,$4,$5,0*
20,1,$1+$1,$4,$5,$6,$7,0*
20,1,$1+$1,$6,$7,$8,$9,0*
20,1,$1+$1,$8,$9,$2,$3,0*%
G04 Aperture macros list end*
%ADD10R,1.651000X1.651000*%
%ADD11C,1.651000*%
%ADD12C,1.200000*%
%ADD13RoundRect,0.250000X-0.650000X0.350000X-0.650000X-0.350000X0.650000X-0.350000X0.650000X0.350000X0*%
%ADD14O,1.800000X1.200000*%
%ADD15O,1.600000X1.200000*%
%ADD16O,1.200000X1.200000*%
%ADD17C,2.006600*%
%ADD18C,1.905000*%
%ADD19R,1.803400X1.803400*%
%ADD20C,1.498600*%
%ADD21C,1.803400*%
%ADD22C,1.300000*%
%ADD23RoundRect,0.250000X-0.350000X-0.650000X0.350000X-0.650000X0.350000X0.650000X-0.350000X0.650000X0*%
%ADD24O,1.200000X1.800000*%
%ADD25C,1.524000*%
%ADD26O,1.800000X1.800000*%
%ADD27O,1.500000X1.500000*%
%ADD28O,1.700000X1.700000*%
%ADD29R,1.700000X1.700000*%
%ADD30RoundRect,0.102000X-0.754000X0.754000X-0.754000X-0.754000X0.754000X-0.754000X0.754000X0.754000X0*%
%ADD31C,1.712000*%
%ADD32R,1.650000X1.650000*%
%ADD33C,1.650000*%
%ADD34C,5.700000*%
%ADD35R,2.200000X2.200000*%
%ADD36O,2.200000X2.200000*%
G04 APERTURE END LIST*
D10*
%TO.C,J3*%
X58166000Y-36626800D03*
D11*
X58166000Y-39166800D03*
X58166000Y-41706800D03*
X58166000Y-44246800D03*
%TD*%
D12*
%TO.C,J7*%
X45468600Y-40174400D03*
X45468600Y-58174400D03*
D13*
X47868600Y-42174400D03*
D14*
X47868600Y-44174400D03*
X47868600Y-46174400D03*
X47868600Y-48174400D03*
X47868600Y-50174400D03*
X47868600Y-52174400D03*
X47868600Y-54174400D03*
X47868600Y-56174400D03*
%TD*%
D11*
%TO.C,J10*%
X72136000Y-86233000D03*
X74676000Y-86233000D03*
X77216000Y-86233000D03*
%TD*%
D15*
%TO.C,Q2*%
X117348000Y-54102000D03*
D16*
X114808000Y-51562000D03*
X112268000Y-54102000D03*
%TD*%
D17*
%TO.C,J4*%
X126479300Y-57404000D03*
D18*
X123926600Y-59956700D03*
X129032000Y-59956700D03*
X129032000Y-54851300D03*
X123926600Y-54851300D03*
%TD*%
D19*
%TO.C,K2*%
X99009200Y-54753050D03*
D20*
X105009199Y-52753049D03*
D21*
X105009199Y-40553851D03*
D20*
X93009201Y-52753049D03*
%TD*%
D17*
%TO.C,J1*%
X113017300Y-84201000D03*
D18*
X115570000Y-81648300D03*
X110464600Y-81648300D03*
X110464600Y-86753700D03*
X115570000Y-86753700D03*
%TD*%
D22*
%TO.C,J9*%
X118166400Y-28122800D03*
D23*
X112166400Y-30022800D03*
D24*
X114166400Y-30022800D03*
X116166400Y-30022800D03*
%TD*%
D25*
%TO.C,U4*%
X110236000Y-67056000D03*
X128016000Y-72136000D03*
X128016000Y-69596000D03*
X110236000Y-72136000D03*
X110236000Y-69596000D03*
X128016000Y-67056000D03*
%TD*%
D26*
%TO.C,U9*%
X71951000Y-32651000D03*
D27*
X72251000Y-35681000D03*
X77101000Y-35681000D03*
D26*
X77401000Y-32651000D03*
D28*
X65786000Y-32521000D03*
X65786000Y-35061000D03*
D29*
X65786000Y-37601000D03*
D28*
X65786000Y-40141000D03*
X65786000Y-42681000D03*
X65786000Y-45221000D03*
X65786000Y-47761000D03*
D29*
X65786000Y-50301000D03*
D28*
X65786000Y-52841000D03*
X65786000Y-55381000D03*
X65786000Y-57921000D03*
X65786000Y-60461000D03*
D29*
X65786000Y-63001000D03*
D28*
X65786000Y-65541000D03*
X65786000Y-68081000D03*
X65786000Y-70621000D03*
X65786000Y-73161000D03*
D29*
X65786000Y-75701000D03*
D28*
X65786000Y-78241000D03*
X65786000Y-80781000D03*
X83566000Y-80781000D03*
X83566000Y-78241000D03*
D29*
X83566000Y-75701000D03*
D28*
X83566000Y-73161000D03*
X83566000Y-70621000D03*
X83566000Y-68081000D03*
X83566000Y-65541000D03*
D29*
X83566000Y-63001000D03*
D28*
X83566000Y-60461000D03*
X83566000Y-57921000D03*
X83566000Y-55381000D03*
X83566000Y-52841000D03*
D29*
X83566000Y-50301000D03*
D28*
X83566000Y-47761000D03*
X83566000Y-45221000D03*
X83566000Y-42681000D03*
X83566000Y-40141000D03*
D29*
X83566000Y-37601000D03*
D28*
X83566000Y-35061000D03*
X83566000Y-32521000D03*
X72136000Y-80551000D03*
D29*
X74676000Y-80551000D03*
D28*
X77216000Y-80551000D03*
%TD*%
D30*
%TO.C,PS1*%
X146050000Y-67016000D03*
D31*
X146050000Y-69556000D03*
X146050000Y-72096000D03*
X146050000Y-74636000D03*
%TD*%
D32*
%TO.C,J13*%
X62738000Y-28194000D03*
D33*
X60198000Y-28194000D03*
X57658000Y-28194000D03*
X55118000Y-28194000D03*
X52578000Y-28194000D03*
X50038000Y-28194000D03*
%TD*%
D17*
%TO.C,J2*%
X100838000Y-76200000D03*
D18*
X103390700Y-78752700D03*
X103390700Y-73647300D03*
X98285300Y-73647300D03*
X98285300Y-78752700D03*
%TD*%
D34*
%TO.C,H1*%
X42418000Y-30480000D03*
%TD*%
D30*
%TO.C,PS2*%
X146050000Y-40640000D03*
D31*
X146050000Y-43180000D03*
X146050000Y-45720000D03*
X146050000Y-48260000D03*
%TD*%
D35*
%TO.C,D2*%
X94107000Y-58826400D03*
D36*
X104267000Y-58826400D03*
%TD*%
D32*
%TO.C,J8*%
X98145600Y-86410800D03*
D33*
X95605600Y-86410800D03*
X93065600Y-86410800D03*
X90525600Y-86410800D03*
X87985600Y-86410800D03*
X85445600Y-86410800D03*
X82905600Y-86410800D03*
%TD*%
D25*
%TO.C,U6*%
X124053600Y-51511200D03*
X129133600Y-33731200D03*
X126593600Y-33731200D03*
X129133600Y-51511200D03*
X126593600Y-51511200D03*
X124053600Y-33731200D03*
%TD*%
D12*
%TO.C,J11*%
X45417800Y-63205600D03*
X45417800Y-77205600D03*
D13*
X47817800Y-65205600D03*
D14*
X47817800Y-67205600D03*
X47817800Y-69205600D03*
X47817800Y-71205600D03*
X47817800Y-73205600D03*
X47817800Y-75205600D03*
%TD*%
D22*
%TO.C,J6*%
X99300800Y-28122800D03*
D23*
X95300800Y-30022800D03*
D24*
X97300800Y-30022800D03*
%TD*%
D34*
%TO.C,H2*%
X146558000Y-30480000D03*
%TD*%
%TO.C,H3*%
X42418000Y-83820000D03*
%TD*%
%TO.C,H4*%
X146558000Y-83820000D03*
%TD*%
M02*
