%TF.GenerationSoftware,KiCad,Pcbnew,7.0.10*%
%TF.CreationDate,2024-03-29T22:24:31-04:00*%
%TF.ProjectId,WaveWise_Submersible,57617665-5769-4736-955f-5375626d6572,rev?*%
%TF.SameCoordinates,Original*%
%TF.FileFunction,Soldermask,Top*%
%TF.FilePolarity,Negative*%
%FSLAX46Y46*%
G04 Gerber Fmt 4.6, Leading zero omitted, Abs format (unit mm)*
G04 Created by KiCad (PCBNEW 7.0.10) date 2024-03-29 22:24:31*
%MOMM*%
%LPD*%
G01*
G04 APERTURE LIST*
G04 Aperture macros list*
%AMRoundRect*
0 Rectangle with rounded corners*
0 $1 Rounding radius*
0 $2 $3 $4 $5 $6 $7 $8 $9 X,Y pos of 4 corners*
0 Add a 4 corners polygon primitive as box body*
4,1,4,$2,$3,$4,$5,$6,$7,$8,$9,$2,$3,0*
0 Add four circle primitives for the rounded corners*
1,1,$1+$1,$2,$3*
1,1,$1+$1,$4,$5*
1,1,$1+$1,$6,$7*
1,1,$1+$1,$8,$9*
0 Add four rect primitives between the rounded corners*
20,1,$1+$1,$2,$3,$4,$5,0*
20,1,$1+$1,$4,$5,$6,$7,0*
20,1,$1+$1,$6,$7,$8,$9,0*
20,1,$1+$1,$8,$9,$2,$3,0*%
G04 Aperture macros list end*
%ADD10RoundRect,0.250000X-0.262500X-0.450000X0.262500X-0.450000X0.262500X0.450000X-0.262500X0.450000X0*%
%ADD11C,1.500000*%
%ADD12RoundRect,0.250000X-0.450000X0.262500X-0.450000X-0.262500X0.450000X-0.262500X0.450000X0.262500X0*%
%ADD13RoundRect,0.250000X0.262500X0.450000X-0.262500X0.450000X-0.262500X-0.450000X0.262500X-0.450000X0*%
%ADD14R,5.600000X1.550000*%
%ADD15R,1.651000X1.651000*%
%ADD16C,1.651000*%
%ADD17RoundRect,0.250000X0.250000X0.475000X-0.250000X0.475000X-0.250000X-0.475000X0.250000X-0.475000X0*%
%ADD18RoundRect,0.250000X0.475000X-0.250000X0.475000X0.250000X-0.475000X0.250000X-0.475000X-0.250000X0*%
%ADD19RoundRect,0.250000X-0.475000X0.250000X-0.475000X-0.250000X0.475000X-0.250000X0.475000X0.250000X0*%
%ADD20RoundRect,0.019360X0.222640X-0.817640X0.222640X0.817640X-0.222640X0.817640X-0.222640X-0.817640X0*%
%ADD21C,1.200000*%
%ADD22RoundRect,0.250000X-0.650000X0.350000X-0.650000X-0.350000X0.650000X-0.350000X0.650000X0.350000X0*%
%ADD23O,1.800000X1.200000*%
%ADD24O,1.600000X1.200000*%
%ADD25O,1.200000X1.200000*%
%ADD26C,2.006600*%
%ADD27C,1.905000*%
%ADD28R,0.850800X1.761200*%
%ADD29R,3.150799X1.761200*%
%ADD30R,1.803400X1.803400*%
%ADD31C,1.498600*%
%ADD32C,1.803400*%
%ADD33RoundRect,0.250000X0.450000X-0.262500X0.450000X0.262500X-0.450000X0.262500X-0.450000X-0.262500X0*%
%ADD34C,1.300000*%
%ADD35RoundRect,0.250000X-0.350000X-0.650000X0.350000X-0.650000X0.350000X0.650000X-0.350000X0.650000X0*%
%ADD36O,1.200000X1.800000*%
%ADD37C,1.524000*%
%ADD38O,1.800000X1.800000*%
%ADD39O,1.500000X1.500000*%
%ADD40O,1.700000X1.700000*%
%ADD41R,3.500000X1.700000*%
%ADD42R,1.700000X1.700000*%
%ADD43R,1.700000X3.500000*%
%ADD44RoundRect,0.102000X-0.754000X0.754000X-0.754000X-0.754000X0.754000X-0.754000X0.754000X0.754000X0*%
%ADD45C,1.712000*%
%ADD46R,1.650000X1.650000*%
%ADD47C,1.650000*%
%ADD48C,5.700000*%
%ADD49R,2.200000X2.200000*%
%ADD50O,2.200000X2.200000*%
%ADD51RoundRect,0.056280X-1.030720X-0.345720X1.030720X-0.345720X1.030720X0.345720X-1.030720X0.345720X0*%
%ADD52RoundRect,0.102000X0.600000X0.400000X-0.600000X0.400000X-0.600000X-0.400000X0.600000X-0.400000X0*%
%ADD53RoundRect,0.102000X-0.600000X-0.400000X0.600000X-0.400000X0.600000X0.400000X-0.600000X0.400000X0*%
%ADD54RoundRect,0.102000X-0.600000X-0.600000X0.600000X-0.600000X0.600000X0.600000X-0.600000X0.600000X0*%
G04 APERTURE END LIST*
D10*
%TO.C,R23*%
X57710700Y-49326800D03*
X59535700Y-49326800D03*
%TD*%
D11*
%TO.C,3V3*%
X51511200Y-80162400D03*
%TD*%
D10*
%TO.C,R11*%
X145391500Y-79248000D03*
X147216500Y-79248000D03*
%TD*%
D12*
%TO.C,R27*%
X132588000Y-71350500D03*
X132588000Y-73175500D03*
%TD*%
D13*
%TO.C,R15*%
X49426500Y-83820000D03*
X47601500Y-83820000D03*
%TD*%
D14*
%TO.C,L1*%
X139039600Y-68536200D03*
X139039600Y-72586200D03*
%TD*%
D15*
%TO.C,J3*%
X58166000Y-36626800D03*
D16*
X58166000Y-39166800D03*
X58166000Y-41706800D03*
X58166000Y-44246800D03*
%TD*%
D11*
%TO.C,TEMP1*%
X101028500Y-82804000D03*
%TD*%
D17*
%TO.C,C14*%
X140853200Y-43992800D03*
X138953200Y-43992800D03*
%TD*%
D18*
%TO.C,C1*%
X142900400Y-51292800D03*
X142900400Y-49392800D03*
%TD*%
D11*
%TO.C,PRESSURE1*%
X121513600Y-28194000D03*
%TD*%
D12*
%TO.C,R6*%
X91084400Y-67349700D03*
X91084400Y-69174700D03*
%TD*%
D19*
%TO.C,C2*%
X94234000Y-63093600D03*
X94234000Y-64993600D03*
%TD*%
D13*
%TO.C,R21*%
X52372900Y-35814000D03*
X50547900Y-35814000D03*
%TD*%
D11*
%TO.C,GNDREF1*%
X117094000Y-36474400D03*
%TD*%
D12*
%TO.C,R13*%
X150114000Y-54522500D03*
X150114000Y-56347500D03*
%TD*%
D17*
%TO.C,C16*%
X149159000Y-61595000D03*
X147259000Y-61595000D03*
%TD*%
D19*
%TO.C,C3*%
X94132400Y-67325200D03*
X94132400Y-69225200D03*
%TD*%
D13*
%TO.C,R20*%
X52525300Y-32664400D03*
X50700300Y-32664400D03*
%TD*%
D18*
%TO.C,C11*%
X57226200Y-69936400D03*
X57226200Y-68036400D03*
%TD*%
%TO.C,C6*%
X54406800Y-41031200D03*
X54406800Y-39131200D03*
%TD*%
D20*
%TO.C,U1*%
X52695600Y-48784400D03*
X53195600Y-48784400D03*
X53695600Y-48784400D03*
X54195600Y-48784400D03*
X54695600Y-48784400D03*
X54695600Y-44484400D03*
X54195600Y-44484400D03*
X53695600Y-44484400D03*
X53195600Y-44484400D03*
X52695600Y-44484400D03*
%TD*%
D21*
%TO.C,J7*%
X45468600Y-40174400D03*
X45468600Y-58174400D03*
D22*
X47868600Y-42174400D03*
D23*
X47868600Y-44174400D03*
X47868600Y-46174400D03*
X47868600Y-48174400D03*
X47868600Y-50174400D03*
X47868600Y-52174400D03*
X47868600Y-54174400D03*
X47868600Y-56174400D03*
%TD*%
D11*
%TO.C,GND2*%
X141859000Y-60579000D03*
%TD*%
D16*
%TO.C,J10*%
X72136000Y-86233000D03*
X74676000Y-86233000D03*
X77216000Y-86233000D03*
%TD*%
D24*
%TO.C,Q2*%
X117348000Y-54102000D03*
D25*
X114808000Y-51562000D03*
X112268000Y-54102000D03*
%TD*%
D26*
%TO.C,J4*%
X126479300Y-57404000D03*
D27*
X123926600Y-59956700D03*
X129032000Y-59956700D03*
X129032000Y-54851300D03*
X123926600Y-54851300D03*
%TD*%
D28*
%TO.C,U10*%
X57418000Y-72440800D03*
X55118000Y-72440800D03*
X52818000Y-72440800D03*
D29*
X55118000Y-78490800D03*
%TD*%
D30*
%TO.C,K2*%
X99009200Y-54753050D03*
D31*
X105009199Y-52753049D03*
D32*
X105009199Y-40553851D03*
D31*
X93009201Y-52753049D03*
%TD*%
D11*
%TO.C,AIR_COMP1*%
X57404000Y-81584800D03*
%TD*%
D33*
%TO.C,R10*%
X146812000Y-36472500D03*
X146812000Y-34647500D03*
%TD*%
D26*
%TO.C,J1*%
X113017300Y-84201000D03*
D27*
X115570000Y-81648300D03*
X110464600Y-81648300D03*
X110464600Y-86753700D03*
X115570000Y-86753700D03*
%TD*%
D34*
%TO.C,J9*%
X118166400Y-28122800D03*
D35*
X112166400Y-30022800D03*
D36*
X114166400Y-30022800D03*
X116166400Y-30022800D03*
%TD*%
D18*
%TO.C,C9*%
X52679600Y-70026600D03*
X52679600Y-68126600D03*
%TD*%
D17*
%TO.C,C13*%
X129880400Y-87071200D03*
X127980400Y-87071200D03*
%TD*%
D37*
%TO.C,U4*%
X110236000Y-67056000D03*
X128016000Y-72136000D03*
X128016000Y-69596000D03*
X110236000Y-72136000D03*
X110236000Y-69596000D03*
X128016000Y-67056000D03*
%TD*%
D12*
%TO.C,R24*%
X132588000Y-64111500D03*
X132588000Y-65936500D03*
%TD*%
D38*
%TO.C,U9*%
X71951000Y-32651000D03*
D39*
X72251000Y-35681000D03*
X77101000Y-35681000D03*
D38*
X77401000Y-32651000D03*
D40*
X65786000Y-32521000D03*
D41*
X64886000Y-32521000D03*
D40*
X65786000Y-35061000D03*
D41*
X64886000Y-35061000D03*
D42*
X65786000Y-37601000D03*
D41*
X64886000Y-37601000D03*
D40*
X65786000Y-40141000D03*
D41*
X64886000Y-40141000D03*
D40*
X65786000Y-42681000D03*
D41*
X64886000Y-42681000D03*
D40*
X65786000Y-45221000D03*
D41*
X64886000Y-45221000D03*
D40*
X65786000Y-47761000D03*
D41*
X64886000Y-47761000D03*
D42*
X65786000Y-50301000D03*
D41*
X64886000Y-50301000D03*
D40*
X65786000Y-52841000D03*
D41*
X64886000Y-52841000D03*
D40*
X65786000Y-55381000D03*
D41*
X64886000Y-55381000D03*
D40*
X65786000Y-57921000D03*
D41*
X64886000Y-57921000D03*
D40*
X65786000Y-60461000D03*
D41*
X64886000Y-60461000D03*
D42*
X65786000Y-63001000D03*
D41*
X64886000Y-63001000D03*
D40*
X65786000Y-65541000D03*
D41*
X64886000Y-65541000D03*
D40*
X65786000Y-68081000D03*
D41*
X64886000Y-68081000D03*
D40*
X65786000Y-70621000D03*
D41*
X64886000Y-70621000D03*
D40*
X65786000Y-73161000D03*
D41*
X64886000Y-73161000D03*
D42*
X65786000Y-75701000D03*
D41*
X64886000Y-75701000D03*
D40*
X65786000Y-78241000D03*
D41*
X64886000Y-78241000D03*
D40*
X65786000Y-80781000D03*
D41*
X64886000Y-80781000D03*
D40*
X83566000Y-80781000D03*
D41*
X84466000Y-80781000D03*
D40*
X83566000Y-78241000D03*
D41*
X84466000Y-78241000D03*
D42*
X83566000Y-75701000D03*
D41*
X84466000Y-75701000D03*
D40*
X83566000Y-73161000D03*
D41*
X84466000Y-73161000D03*
D40*
X83566000Y-70621000D03*
D41*
X84466000Y-70621000D03*
D40*
X83566000Y-68081000D03*
D41*
X84466000Y-68081000D03*
D40*
X83566000Y-65541000D03*
D41*
X84466000Y-65541000D03*
D42*
X83566000Y-63001000D03*
D41*
X84466000Y-63001000D03*
D40*
X83566000Y-60461000D03*
D41*
X84466000Y-60461000D03*
D40*
X83566000Y-57921000D03*
D41*
X84466000Y-57921000D03*
D40*
X83566000Y-55381000D03*
D41*
X84466000Y-55381000D03*
D40*
X83566000Y-52841000D03*
D41*
X84466000Y-52841000D03*
D42*
X83566000Y-50301000D03*
D41*
X84466000Y-50301000D03*
D40*
X83566000Y-47761000D03*
D41*
X84466000Y-47761000D03*
D40*
X83566000Y-45221000D03*
D41*
X84466000Y-45221000D03*
D40*
X83566000Y-42681000D03*
D41*
X84466000Y-42681000D03*
D40*
X83566000Y-40141000D03*
D41*
X84466000Y-40141000D03*
D42*
X83566000Y-37601000D03*
D41*
X84466000Y-37601000D03*
D40*
X83566000Y-35061000D03*
D41*
X84466000Y-35061000D03*
D40*
X83566000Y-32521000D03*
D41*
X84466000Y-32521000D03*
D40*
X72136000Y-80551000D03*
D43*
X72136000Y-81451000D03*
D42*
X74676000Y-80551000D03*
D43*
X74676000Y-81451000D03*
D40*
X77216000Y-80551000D03*
D43*
X77216000Y-81451000D03*
%TD*%
D11*
%TO.C,VEE1*%
X135839200Y-44246800D03*
%TD*%
D33*
%TO.C,R19*%
X54610000Y-57605300D03*
X54610000Y-55780300D03*
%TD*%
D12*
%TO.C,R9*%
X102565200Y-29567500D03*
X102565200Y-31392500D03*
%TD*%
D44*
%TO.C,PS1*%
X146050000Y-67016000D03*
D45*
X146050000Y-69556000D03*
X146050000Y-72096000D03*
X146050000Y-74636000D03*
%TD*%
D46*
%TO.C,J13*%
X62738000Y-28194000D03*
D47*
X60198000Y-28194000D03*
X57658000Y-28194000D03*
X55118000Y-28194000D03*
X52578000Y-28194000D03*
X50038000Y-28194000D03*
%TD*%
D26*
%TO.C,J2*%
X100838000Y-76200000D03*
D27*
X103390700Y-78752700D03*
X103390700Y-73647300D03*
X98285300Y-73647300D03*
X98285300Y-78752700D03*
%TD*%
D33*
%TO.C,R14*%
X104140000Y-86193500D03*
X104140000Y-84368500D03*
%TD*%
D10*
%TO.C,R4*%
X120397900Y-85547200D03*
X122222900Y-85547200D03*
%TD*%
D11*
%TO.C,SDA1*%
X83515200Y-27940000D03*
%TD*%
%TO.C,SUB_TX1*%
X68580000Y-27940000D03*
%TD*%
D10*
%TO.C,R1*%
X57659900Y-59283600D03*
X59484900Y-59283600D03*
%TD*%
D48*
%TO.C,H1*%
X42418000Y-30480000D03*
%TD*%
D44*
%TO.C,PS2*%
X146050000Y-40640000D03*
D45*
X146050000Y-43180000D03*
X146050000Y-45720000D03*
X146050000Y-48260000D03*
%TD*%
D13*
%TO.C,R25*%
X134413000Y-29616400D03*
X132588000Y-29616400D03*
%TD*%
D18*
%TO.C,C10*%
X135636000Y-78216800D03*
X135636000Y-76316800D03*
%TD*%
D49*
%TO.C,D2*%
X94107000Y-58826400D03*
D50*
X104267000Y-58826400D03*
%TD*%
D13*
%TO.C,R8*%
X43648500Y-35814000D03*
X41823500Y-35814000D03*
%TD*%
D12*
%TO.C,R12*%
X146812000Y-54522500D03*
X146812000Y-56347500D03*
%TD*%
D11*
%TO.C,BATT_SENSE1*%
X58115200Y-62839600D03*
%TD*%
%TO.C,VALVE1*%
X112014000Y-44958000D03*
%TD*%
%TO.C,PANEL_SENSE1*%
X52070000Y-63296800D03*
%TD*%
D46*
%TO.C,J8*%
X98145600Y-86410800D03*
D47*
X95605600Y-86410800D03*
X93065600Y-86410800D03*
X90525600Y-86410800D03*
X87985600Y-86410800D03*
X85445600Y-86410800D03*
X82905600Y-86410800D03*
%TD*%
D10*
%TO.C,R3*%
X57659900Y-52730400D03*
X59484900Y-52730400D03*
%TD*%
D51*
%TO.C,U3*%
X126495000Y-81090000D03*
X126495000Y-82360000D03*
X126495000Y-83630000D03*
X126495000Y-84900000D03*
X131445000Y-84900000D03*
X131445000Y-83630000D03*
X131445000Y-82360000D03*
X131445000Y-81090000D03*
%TD*%
%TO.C,U5*%
X138241000Y-53467000D03*
X138241000Y-54737000D03*
X138241000Y-56007000D03*
X138241000Y-57277000D03*
X143191000Y-57277000D03*
X143191000Y-56007000D03*
X143191000Y-54737000D03*
X143191000Y-53467000D03*
%TD*%
D18*
%TO.C,C4*%
X131419600Y-78282800D03*
X131419600Y-76382800D03*
%TD*%
D11*
%TO.C,VDD1*%
X113284000Y-77724000D03*
%TD*%
D13*
%TO.C,R5*%
X137668000Y-82346800D03*
X135843000Y-82346800D03*
%TD*%
D14*
%TO.C,L2*%
X138684000Y-35153600D03*
X138684000Y-39203600D03*
%TD*%
D37*
%TO.C,U6*%
X124053600Y-51511200D03*
X129133600Y-33731200D03*
X126593600Y-33731200D03*
X129133600Y-51511200D03*
X126593600Y-51511200D03*
X124053600Y-33731200D03*
%TD*%
D21*
%TO.C,J11*%
X45417800Y-63205600D03*
X45417800Y-77205600D03*
D22*
X47817800Y-65205600D03*
D23*
X47817800Y-67205600D03*
X47817800Y-69205600D03*
X47817800Y-71205600D03*
X47817800Y-73205600D03*
X47817800Y-75205600D03*
%TD*%
D19*
%TO.C,C5*%
X51866800Y-39182000D03*
X51866800Y-41082000D03*
%TD*%
D13*
%TO.C,R7*%
X137666100Y-85090000D03*
X135841100Y-85090000D03*
%TD*%
D34*
%TO.C,J6*%
X99300800Y-28122800D03*
D35*
X95300800Y-30022800D03*
D36*
X97300800Y-30022800D03*
%TD*%
D48*
%TO.C,H2*%
X146558000Y-30480000D03*
%TD*%
D18*
%TO.C,C15*%
X134416800Y-53324800D03*
X134416800Y-51424800D03*
%TD*%
D11*
%TO.C,24V1*%
X105029000Y-34874200D03*
%TD*%
%TO.C,SUB_RX1*%
X59055000Y-31927800D03*
%TD*%
D52*
%TO.C,U2*%
X105700000Y-68199000D03*
X105700000Y-66929000D03*
X105700000Y-65659000D03*
X105700000Y-64389000D03*
D53*
X97500000Y-64389000D03*
X97500000Y-65659000D03*
X97500000Y-66929000D03*
D54*
X97500000Y-68199000D03*
%TD*%
D10*
%TO.C,R2*%
X120372500Y-81788000D03*
X122197500Y-81788000D03*
%TD*%
D48*
%TO.C,H3*%
X42418000Y-83820000D03*
%TD*%
D11*
%TO.C,SCL1*%
X87884000Y-27025600D03*
%TD*%
D10*
%TO.C,R22*%
X57659900Y-56032400D03*
X59484900Y-56032400D03*
%TD*%
D11*
%TO.C,AIR_IN1*%
X89814400Y-61976000D03*
%TD*%
D13*
%TO.C,R26*%
X129842900Y-29616400D03*
X128017900Y-29616400D03*
%TD*%
D11*
%TO.C,GND1*%
X141782800Y-85801200D03*
%TD*%
%TO.C,5V1*%
X110998000Y-36423600D03*
%TD*%
D10*
%TO.C,R17*%
X116716800Y-44907200D03*
X118541800Y-44907200D03*
%TD*%
D48*
%TO.C,H4*%
X146558000Y-83820000D03*
%TD*%
D18*
%TO.C,C12*%
X126136400Y-78928000D03*
X126136400Y-77028000D03*
%TD*%
D19*
%TO.C,C17*%
X105308400Y-29565600D03*
X105308400Y-31465600D03*
%TD*%
M02*
