M48
; DRILL file {KiCad 7.0.10} date Fri Mar 29 16:51:19 2024
; FORMAT={-:-/ absolute / inch / decimal}
; #@! TF.CreationDate,2024-03-29T16:51:19-04:00
; #@! TF.GenerationSoftware,Kicad,Pcbnew,7.0.10
; #@! TF.FileFunction,Plated,1,4,PTH
FMAT,2
INCH
; #@! TA.AperFunction,Plated,PTH,ComponentDrill
T1C0.0118
; #@! TA.AperFunction,Plated,PTH,ViaDrill
T2C0.0157
; #@! TA.AperFunction,Plated,PTH,ComponentDrill
T3C0.0276
; #@! TA.AperFunction,Plated,PTH,ComponentDrill
T4C0.0315
; #@! TA.AperFunction,Plated,PTH,ComponentDrill
T5C0.0390
; #@! TA.AperFunction,Plated,PTH,ComponentDrill
T6C0.0394
; #@! TA.AperFunction,Plated,PTH,ComponentDrill
T7C0.0402
; #@! TA.AperFunction,Plated,PTH,ComponentDrill
T8C0.0433
; #@! TA.AperFunction,Plated,PTH,ComponentDrill
T9C0.0450
; #@! TA.AperFunction,Plated,PTH,ComponentDrill
T10C0.0472
; #@! TA.AperFunction,Plated,PTH,ComponentDrill
T11C0.0510
; #@! TA.AperFunction,Plated,PTH,ComponentDrill
T12C0.0598
; #@! TA.AperFunction,Plated,PTH,ComponentDrill
T13C0.0630
; #@! TA.AperFunction,Plated,PTH,ComponentDrill
T14C0.1260
%
G90
G05
T1
X2.94Y-4.4078
X2.94Y-4.455
X2.94Y-4.5022
X2.9951Y-4.4078
X2.9951Y-4.455
X2.9951Y-4.5022
T2
X2.06Y-2.46
X2.35Y-4.27
X2.55Y-5.02
X2.665Y-4.235
X2.89Y-5.11
X3.2Y-4.42
X3.22Y-3.47
X3.6Y-4.085
X3.67Y-3.61
X3.9Y-4.49
X3.92Y-4.4
X3.96Y-4.4
X4.05Y-4.44
X4.05Y-4.49
X4.06Y-4.61
X4.79Y-4.66
X4.79Y-4.71
X4.79Y-4.76
X4.79Y-4.81
X4.79Y-4.86
X4.82Y-4.57
X4.82Y-4.62
X4.98Y-2.17
X5.15Y-2.175
X5.35Y-4.64
T3
X3.67Y-2.17
X4.4Y-2.13
T4
X2.1693Y-3.0586
X2.1693Y-3.1373
X2.1693Y-3.216
X2.1693Y-3.2948
X2.1693Y-3.735
X2.1693Y-3.8138
X2.1693Y-3.8925
X2.1693Y-3.9713
X2.1693Y-4.05
X2.1693Y-4.1287
X2.1693Y-4.2075
X2.1693Y-4.2862
X2.3654Y-4.81
X2.5623Y-4.81
X3.8642Y-3.82
X3.8642Y-3.92
X3.8642Y-4.02
X4.0306Y-2.1738
X4.1094Y-2.1738
X4.5216Y-3.69
X4.7006Y-2.1738
X4.7184Y-3.69
X4.7794Y-2.1738
X5.325Y-2.48
X5.325Y-2.5587
X5.325Y-2.6375
T5
X4.13Y-3.8476
X4.13Y-4.32
T6
X2.5Y-4.53
X3.3931Y-4.32
X3.57Y-2.4
X3.59Y-4.32
X3.81Y-4.49
X4.9368Y-4.77
X5.07Y-2.27
X5.1336Y-4.77
T7
X2.15Y-4.59
X2.15Y-4.7081
X2.64Y-2.08
X2.64Y-2.18
X2.64Y-2.28
X2.64Y-2.38
X2.64Y-2.48
X2.64Y-2.58
X2.64Y-2.68
X2.64Y-2.78
X2.64Y-2.88
X2.64Y-2.98
X2.64Y-3.08
X2.64Y-3.18
X2.64Y-3.28
X2.64Y-3.38
X2.64Y-3.48
X2.64Y-3.58
X2.64Y-3.68
X2.64Y-3.78
X2.64Y-3.88
X2.64Y-3.98
X2.89Y-3.9709
X2.99Y-3.9709
X3.09Y-3.9709
X3.34Y-2.08
X3.34Y-2.18
X3.34Y-2.28
X3.34Y-2.38
X3.34Y-2.48
X3.34Y-2.58
X3.34Y-2.68
X3.34Y-2.78
X3.34Y-2.88
X3.34Y-2.98
X3.34Y-3.08
X3.34Y-3.18
X3.34Y-3.28
X3.34Y-3.38
X3.34Y-3.48
X3.34Y-3.58
X3.34Y-3.68
X3.34Y-3.78
X3.34Y-3.88
X3.34Y-3.98
X3.7964Y-2.4339
X3.7964Y-2.5339
X3.7964Y-2.6339
X3.7964Y-2.7339
X3.7964Y-2.8339
X3.7964Y-2.9339
X3.7964Y-3.0339
X3.7964Y-3.1339
X3.7964Y-3.2339
X3.7964Y-3.3339
X3.7964Y-3.4339
X3.7964Y-3.5339
X3.9964Y-3.5339
X4.0964Y-3.5339
X4.1964Y-3.5339
X4.2964Y-3.5339
X4.4954Y-2.4309
X4.4954Y-2.6309
X4.9954Y-2.6309
X4.9954Y-2.7309
X4.9954Y-2.8309
X4.9954Y-2.9309
X4.9954Y-3.0309
X4.9954Y-3.1309
X4.9954Y-3.2309
X4.9954Y-3.3309
X5.12Y-2.9957
X5.12Y-3.1138
X5.12Y-3.2319
X5.12Y-3.35
T8
X2.38Y-2.39
X2.38Y-2.49
X2.38Y-2.59
X2.38Y-2.69
X2.38Y-2.79
X2.38Y-2.89
X3.88Y-3.69
X4.28Y-3.69
T9
X2.89Y-4.16
X2.99Y-4.16
X3.09Y-4.16
T10
X4.89Y-3.69
X4.89Y-4.49
T11
X4.0513Y-4.0838
X4.6103Y-4.32
X5.2382Y-3.7635
X5.2382Y-4.0635
X5.2382Y-4.3635
T12
X4.8814Y-2.6369
X4.8814Y-2.7747
X4.8814Y-2.9125
X4.8814Y-3.0503
X4.8814Y-3.1881
X4.8814Y-3.3259
T13
X4.15Y-5.02
X4.75Y-5.02
T14
X2.15Y-2.15
X2.15Y-5.0
X5.35Y-2.15
X5.35Y-5.0
M30
