%TF.GenerationSoftware,KiCad,Pcbnew,7.0.10*%
%TF.CreationDate,2024-03-29T16:51:17-04:00*%
%TF.ProjectId,WaveWise_PMIC,57617665-5769-4736-955f-504d49432e6b,rev?*%
%TF.SameCoordinates,Original*%
%TF.FileFunction,Soldermask,Bot*%
%TF.FilePolarity,Negative*%
%FSLAX46Y46*%
G04 Gerber Fmt 4.6, Leading zero omitted, Abs format (unit mm)*
G04 Created by KiCad (PCBNEW 7.0.10) date 2024-03-29 16:51:17*
%MOMM*%
%LPD*%
G01*
G04 APERTURE LIST*
G04 Aperture macros list*
%AMRoundRect*
0 Rectangle with rounded corners*
0 $1 Rounding radius*
0 $2 $3 $4 $5 $6 $7 $8 $9 X,Y pos of 4 corners*
0 Add a 4 corners polygon primitive as box body*
4,1,4,$2,$3,$4,$5,$6,$7,$8,$9,$2,$3,0*
0 Add four circle primitives for the rounded corners*
1,1,$1+$1,$2,$3*
1,1,$1+$1,$4,$5*
1,1,$1+$1,$6,$7*
1,1,$1+$1,$8,$9*
0 Add four rect primitives between the rounded corners*
20,1,$1+$1,$2,$3,$4,$5,0*
20,1,$1+$1,$4,$5,$6,$7,0*
20,1,$1+$1,$6,$7,$8,$9,0*
20,1,$1+$1,$8,$9,$2,$3,0*%
G04 Aperture macros list end*
%ADD10C,2.000000*%
%ADD11C,1.270000*%
%ADD12RoundRect,0.250001X-0.759999X0.499999X-0.759999X-0.499999X0.759999X-0.499999X0.759999X0.499999X0*%
%ADD13O,2.020000X1.500000*%
%ADD14C,1.300000*%
%ADD15RoundRect,0.250000X0.650000X-0.350000X0.650000X0.350000X-0.650000X0.350000X-0.650000X-0.350000X0*%
%ADD16O,1.800000X1.200000*%
%ADD17RoundRect,0.250000X-0.350000X-0.650000X0.350000X-0.650000X0.350000X0.650000X-0.350000X0.650000X0*%
%ADD18O,1.200000X1.800000*%
%ADD19RoundRect,0.250000X-0.650000X0.350000X-0.650000X-0.350000X0.650000X-0.350000X0.650000X0.350000X0*%
%ADD20C,3.000000*%
%ADD21R,1.650000X1.650000*%
%ADD22C,1.650000*%
%ADD23R,1.500000X1.500000*%
%ADD24C,1.500000*%
%ADD25C,5.700000*%
%ADD26R,2.000000X2.000000*%
%ADD27C,1.651000*%
%ADD28O,2.400000X2.400000*%
%ADD29C,2.400000*%
%ADD30C,1.498600*%
%ADD31C,1.803400*%
%ADD32R,1.803400X1.803400*%
%ADD33O,3.200000X3.200000*%
%ADD34R,3.200000X3.200000*%
%ADD35C,1.600000*%
%ADD36R,2.200000X2.200000*%
%ADD37O,2.200000X2.200000*%
%ADD38O,1.700000X1.700000*%
%ADD39R,1.700000X1.700000*%
%ADD40O,1.800000X1.800000*%
%ADD41O,1.500000X1.500000*%
%ADD42R,1.600000X1.600000*%
G04 APERTURE END LIST*
D10*
%TO.C,3V1*%
X90678000Y-60960000D03*
%TD*%
D11*
%TO.C,J1*%
X56570000Y-113586000D03*
X56570000Y-122586000D03*
D12*
X54610000Y-116586000D03*
D13*
X54610000Y-119586000D03*
%TD*%
D14*
%TO.C,J6*%
X53199750Y-75687500D03*
D15*
X55099750Y-83687500D03*
D16*
X55099750Y-81687500D03*
X55099750Y-79687500D03*
X55099750Y-77687500D03*
%TD*%
D14*
%TO.C,J11*%
X106378000Y-53314000D03*
D17*
X102378000Y-55214000D03*
D18*
X104378000Y-55214000D03*
%TD*%
D16*
%TO.C,J8*%
X55099750Y-94870000D03*
X55099750Y-96870000D03*
X55099750Y-98870000D03*
X55099750Y-100870000D03*
X55099750Y-102870000D03*
X55099750Y-104870000D03*
X55099750Y-106870000D03*
D15*
X55099750Y-108870000D03*
D14*
X53199750Y-92870000D03*
%TD*%
%TO.C,J9*%
X137155000Y-68992000D03*
D19*
X135255000Y-62992000D03*
D16*
X135255000Y-64992000D03*
X135255000Y-66992000D03*
%TD*%
D14*
%TO.C,J10*%
X123396000Y-53314000D03*
D17*
X119396000Y-55214000D03*
D18*
X121396000Y-55214000D03*
%TD*%
D20*
%TO.C,J5*%
X134368000Y-82940000D03*
X134368000Y-78240000D03*
D12*
X130048000Y-76090000D03*
D13*
X130048000Y-79090000D03*
X130048000Y-82090000D03*
X130048000Y-85090000D03*
%TD*%
D21*
%TO.C,J2*%
X60452000Y-60706000D03*
D22*
X60452000Y-63246000D03*
X60452000Y-65786000D03*
X60452000Y-68326000D03*
X60452000Y-70866000D03*
X60452000Y-73406000D03*
%TD*%
D23*
%TO.C,Q2*%
X98150000Y-102108000D03*
D24*
X98150000Y-99568000D03*
X98150000Y-97028000D03*
%TD*%
D23*
%TO.C,BatteryV1*%
X111760000Y-54102000D03*
%TD*%
D25*
%TO.C,HE1*%
X54610000Y-127000000D03*
%TD*%
D26*
%TO.C,C6*%
X86186000Y-109728000D03*
D10*
X91186000Y-109728000D03*
%TD*%
D27*
%TO.C,J3*%
X73406000Y-105664000D03*
X75946000Y-105664000D03*
X78486000Y-105664000D03*
%TD*%
D28*
%TO.C,R7*%
X124206000Y-114046000D03*
D29*
X124206000Y-93726000D03*
%TD*%
D30*
%TO.C,K1*%
X104902000Y-97728002D03*
D31*
X117101198Y-109728000D03*
D30*
X104902000Y-109728000D03*
D32*
X102901999Y-103728001D03*
%TD*%
D10*
%TO.C,24V_1*%
X63500000Y-115062000D03*
%TD*%
D31*
%TO.C,J13*%
X133050000Y-110832900D03*
X133050000Y-103212900D03*
X133050000Y-95592900D03*
%TD*%
D33*
%TO.C,D1*%
X120650000Y-127508000D03*
D34*
X105410000Y-127508000D03*
%TD*%
D25*
%TO.C,H4*%
X135890000Y-127000000D03*
%TD*%
D35*
%TO.C,C2*%
X119848000Y-93726000D03*
X114848000Y-93726000D03*
%TD*%
D25*
%TO.C,H1*%
X54610000Y-54610000D03*
%TD*%
D23*
%TO.C,PanelV1*%
X93218000Y-55118000D03*
%TD*%
D10*
%TO.C,GND1*%
X96774000Y-114046000D03*
%TD*%
D36*
%TO.C,D2*%
X98552000Y-93726000D03*
D37*
X108712000Y-93726000D03*
%TD*%
D10*
%TO.C,U2*%
X123988500Y-66978200D03*
D24*
X126884100Y-66825800D03*
X126884100Y-69365800D03*
D10*
X123988500Y-73978200D03*
D24*
X126884100Y-76985800D03*
D10*
X123988500Y-77478200D03*
D24*
X126884100Y-79525800D03*
D10*
X123988500Y-80978200D03*
D24*
X126884100Y-82065800D03*
D10*
X123988500Y-84478200D03*
D24*
X126884100Y-84605800D03*
X109129500Y-89762000D03*
X106589500Y-89762000D03*
X104049500Y-89762000D03*
X101509500Y-89762000D03*
X96429500Y-89762000D03*
X96429500Y-87222000D03*
X96429500Y-84682000D03*
X96429500Y-82142000D03*
X96429500Y-79602000D03*
X96429500Y-77062000D03*
X96429500Y-74522000D03*
X96429500Y-71982000D03*
X96429500Y-69442000D03*
X96429500Y-64362000D03*
X96429500Y-61822000D03*
X114184100Y-61745800D03*
D23*
X96429500Y-66902000D03*
X114184100Y-66825800D03*
D26*
X123988500Y-70478200D03*
D23*
X126884100Y-71905800D03*
X126884100Y-74445800D03*
%TD*%
D25*
%TO.C,H2*%
X135890000Y-54610000D03*
%TD*%
D10*
%TO.C,C1*%
X130394323Y-121158000D03*
D26*
X125394323Y-121158000D03*
%TD*%
D10*
%TO.C,5V1*%
X128778000Y-57658000D03*
%TD*%
D38*
%TO.C,U1*%
X78486000Y-100862000D03*
D39*
X75946000Y-100862000D03*
D38*
X73406000Y-100862000D03*
X84836000Y-52832000D03*
X84836000Y-55372000D03*
D39*
X84836000Y-57912000D03*
D38*
X84836000Y-60452000D03*
X84836000Y-62992000D03*
X84836000Y-65532000D03*
X84836000Y-68072000D03*
D39*
X84836000Y-70612000D03*
D38*
X84836000Y-73152000D03*
X84836000Y-75692000D03*
X84836000Y-78232000D03*
X84836000Y-80772000D03*
D39*
X84836000Y-83312000D03*
D38*
X84836000Y-85852000D03*
X84836000Y-88392000D03*
X84836000Y-90932000D03*
X84836000Y-93472000D03*
D39*
X84836000Y-96012000D03*
D38*
X84836000Y-98552000D03*
X84836000Y-101092000D03*
X67056000Y-101092000D03*
X67056000Y-98552000D03*
D39*
X67056000Y-96012000D03*
D38*
X67056000Y-93472000D03*
X67056000Y-90932000D03*
X67056000Y-88392000D03*
X67056000Y-85852000D03*
D39*
X67056000Y-83312000D03*
D38*
X67056000Y-80772000D03*
X67056000Y-78232000D03*
X67056000Y-75692000D03*
X67056000Y-73152000D03*
D39*
X67056000Y-70612000D03*
D38*
X67056000Y-68072000D03*
X67056000Y-65532000D03*
X67056000Y-62992000D03*
X67056000Y-60452000D03*
D39*
X67056000Y-57912000D03*
D38*
X67056000Y-55372000D03*
X67056000Y-52832000D03*
D40*
X78671000Y-52962000D03*
D41*
X78371000Y-55992000D03*
X73521000Y-55992000D03*
D40*
X73221000Y-52962000D03*
%TD*%
D42*
%TO.C,C9*%
X60081349Y-122174000D03*
D35*
X65081349Y-122174000D03*
%TD*%
M02*
