M48
; DRILL file {KiCad 7.0.1-0} date 2023 October 30, Monday 18:23:18
; FORMAT={-:-/ absolute / metric / decimal}
; #@! TF.CreationDate,2023-10-30T18:23:18-04:00
; #@! TF.GenerationSoftware,Kicad,Pcbnew,7.0.1-0
; #@! TF.FileFunction,Plated,1,4,PTH
FMAT,2
METRIC
; #@! TA.AperFunction,Plated,PTH,ViaDrill
T1C0.400
; #@! TA.AperFunction,Plated,PTH,ComponentDrill
T2C0.800
; #@! TA.AperFunction,Plated,PTH,ComponentDrill
T3C0.850
; #@! TA.AperFunction,Plated,PTH,ComponentDrill
T4C0.900
; #@! TA.AperFunction,Plated,PTH,ComponentDrill
T5C1.020
; #@! TA.AperFunction,Plated,PTH,ComponentDrill
T6C1.200
; #@! TA.AperFunction,Plated,PTH,ComponentDrill
T7C1.520
; #@! TA.AperFunction,Plated,PTH,ComponentDrill
T8C1.600
%
G90
G05
T1
X135.001Y-110.998
X135.599Y-84.709
X135.636Y-89.027
X135.636Y-97.028
X138.684Y-79.756
X139.827Y-68.199
X140.411Y-92.102
X140.589Y-90.043
X141.351Y-64.516
X141.605Y-90.297
X141.732Y-60.706
X142.621Y-90.17
X142.926Y-79.019
X143.129Y-68.326
X143.84Y-92.407
X144.178Y-79.612
X144.182Y-51.716
X145.287Y-69.343
X146.126Y-74.153
X146.355Y-79.654
X147.992Y-53.621
X149.987Y-91.694
X149.987Y-93.472
X149.987Y-94.488
X149.987Y-95.885
X150.252Y-90.043
X151.511Y-74.93
X151.638Y-81.407
X151.638Y-89.027
X152.691Y-64.543
X153.035Y-77.597
X153.379Y-87.122
X153.416Y-85.979
X153.543Y-84.963
X153.543Y-88.265
X153.937Y-64.195
X154.723Y-54.892
X154.85Y-58.956
X154.94Y-82.999
X155.194Y-96.012
X155.575Y-110.109
X155.956Y-82.55
X156.083Y-104.775
X156.972Y-79.883
X157.607Y-75.184
X158.152Y-53.748
X158.406Y-60.225
X158.496Y-104.775
X158.75Y-82.042
X158.914Y-64.416
X159.258Y-75.184
X159.639Y-67.945
X160.02Y-94.869
X160.782Y-75.311
X161.036Y-94.742
X161.417Y-77.851
X162.56Y-82.55
X162.597Y-52.478
X162.814Y-94.869
X163.068Y-77.724
X163.195Y-75.438
X165.1Y-108.712
X165.227Y-107.696
X165.227Y-109.982
X165.227Y-113.665
X165.989Y-82.423
X166.239Y-75.434
X166.243Y-84.328
X166.472Y-70.968
X166.624Y-86.868
X168.656Y-92.075
X169.037Y-68.326
X169.291Y-82.55
X169.799Y-69.596
X171.704Y-82.296
X172.466Y-69.596
X174.117Y-82.296
X174.371Y-69.596
X175.514Y-82.296
X176.657Y-69.596
X176.784Y-92.456
X181.991Y-61.595
X183.769Y-65.532
X183.769Y-68.453
X184.277Y-92.456
X186.309Y-92.964
X191.008Y-59.817
X193.675Y-65.913
X198.374Y-57.277
X200.152Y-64.516
T2
X136.398Y-99.441
X136.398Y-107.061
X138.684Y-60.071
X138.684Y-63.971
T3
X180.594Y-85.34
X180.594Y-90.34
X185.885Y-67.183
X190.885Y-67.183
T4
X136.652Y-75.443
X136.652Y-77.983
X137.033Y-70.49
X137.033Y-73.03
T5
X169.251Y-95.125
X169.251Y-97.665
X169.251Y-100.205
X169.251Y-102.745
X169.251Y-105.285
X169.251Y-107.825
X169.251Y-110.365
X169.251Y-112.905
X169.251Y-115.445
X169.251Y-117.985
X169.251Y-120.525
X169.251Y-123.065
X174.331Y-123.065
X176.871Y-123.065
X179.411Y-123.065
X181.951Y-123.065
X187.006Y-95.048
X187.006Y-100.128
X199.706Y-100.128
X199.706Y-102.668
X199.706Y-105.208
X199.706Y-107.748
X199.706Y-110.288
X199.706Y-112.828
X199.706Y-115.368
X199.706Y-117.908
T6
X144.38Y-121.3
X146.92Y-121.3
X149.46Y-121.3
X152.0Y-121.3
X157.18Y-121.3
X159.72Y-121.3
X162.26Y-121.3
X164.8Y-121.3
X166.06Y-54.7
X168.6Y-54.7
X171.14Y-54.7
X173.68Y-54.7
X178.02Y-54.75
X180.56Y-54.75
X184.86Y-54.73
X187.4Y-54.73
X189.94Y-54.73
X192.48Y-54.73
X198.374Y-59.563
X198.374Y-62.103
T7
X196.81Y-100.281
X196.81Y-103.781
X196.81Y-107.281
X196.81Y-110.781
X196.81Y-114.281
X196.81Y-117.781
T8
X189.738Y-76.327
X189.738Y-91.567
T3
G00X137.109Y-58.421
M15
G01X136.459Y-58.421
M16
G05
G00X137.109Y-65.621
M15
G01X136.459Y-65.621
M16
G05
G00X139.659Y-58.721
M15
G01X139.509Y-58.721
M16
G05
G00X139.659Y-65.321
M15
G01X139.509Y-65.321
M16
G05
T0
M30
