%TF.GenerationSoftware,KiCad,Pcbnew,7.0.1-0*%
%TF.CreationDate,2023-10-30T18:15:43-04:00*%
%TF.ProjectId,WaveWise_Buoy,57617665-5769-4736-955f-42756f792e6b,rev?*%
%TF.SameCoordinates,Original*%
%TF.FileFunction,Legend,Top*%
%TF.FilePolarity,Positive*%
%FSLAX46Y46*%
G04 Gerber Fmt 4.6, Leading zero omitted, Abs format (unit mm)*
G04 Created by KiCad (PCBNEW 7.0.1-0) date 2023-10-30 18:15:43*
%MOMM*%
%LPD*%
G01*
G04 APERTURE LIST*
%ADD10C,0.300000*%
%ADD11C,0.150000*%
%ADD12C,0.254000*%
%ADD13C,0.120000*%
%ADD14C,0.152400*%
%ADD15C,0.100000*%
%ADD16C,0.200000*%
%ADD17C,0.127000*%
G04 APERTURE END LIST*
D10*
G36*
X143245432Y-112391135D02*
G01*
X143282435Y-112428138D01*
X143335613Y-112534495D01*
X143398571Y-112786322D01*
X143398571Y-113106535D01*
X143335614Y-113358358D01*
X143282435Y-113464718D01*
X143245430Y-113501722D01*
X143156018Y-113546428D01*
X143083981Y-113546428D01*
X142994567Y-113501721D01*
X142957563Y-113464717D01*
X142904384Y-113358361D01*
X142841428Y-113106536D01*
X142841428Y-112786321D01*
X142904382Y-112534499D01*
X142957563Y-112428138D01*
X142994567Y-112391134D01*
X143083981Y-112346428D01*
X143156017Y-112346428D01*
X143245432Y-112391135D01*
G37*
G36*
X138936768Y-112879660D02*
G01*
X138962943Y-112932011D01*
X138555714Y-113013458D01*
X138555714Y-112946124D01*
X138588945Y-112879660D01*
X138655411Y-112846428D01*
X138870303Y-112846428D01*
X138936768Y-112879660D01*
G37*
G36*
X137602575Y-112391135D02*
G01*
X137639578Y-112428138D01*
X137684285Y-112517552D01*
X137684285Y-112661018D01*
X137639578Y-112750432D01*
X137602573Y-112787436D01*
X137513161Y-112832142D01*
X137342038Y-112832142D01*
X137305939Y-112828401D01*
X137298536Y-112832142D01*
X137127142Y-112832142D01*
X137127142Y-112346428D01*
X137513160Y-112346428D01*
X137602575Y-112391135D01*
G37*
G36*
X151888290Y-110461135D02*
G01*
X151925293Y-110498138D01*
X151970000Y-110587552D01*
X151970000Y-110945304D01*
X151925293Y-111034718D01*
X151888288Y-111071722D01*
X151798876Y-111116428D01*
X151655410Y-111116428D01*
X151565996Y-111071721D01*
X151528991Y-111034716D01*
X151484286Y-110945304D01*
X151484286Y-110587552D01*
X151528992Y-110498138D01*
X151565996Y-110461134D01*
X151655410Y-110416428D01*
X151798875Y-110416428D01*
X151888290Y-110461135D01*
G37*
G36*
X146579626Y-110449660D02*
G01*
X146605801Y-110502011D01*
X146198572Y-110583458D01*
X146198572Y-110516124D01*
X146231803Y-110449660D01*
X146298269Y-110416428D01*
X146513161Y-110416428D01*
X146579626Y-110449660D01*
G37*
G36*
X141651054Y-110449660D02*
G01*
X141677229Y-110502011D01*
X141270000Y-110583458D01*
X141270000Y-110516124D01*
X141303231Y-110449660D01*
X141369697Y-110416428D01*
X141584589Y-110416428D01*
X141651054Y-110449660D01*
G37*
G36*
X139184286Y-110845101D02*
G01*
X139184286Y-111102295D01*
X139156019Y-111116428D01*
X138869695Y-111116428D01*
X138803231Y-111083196D01*
X138770000Y-111016733D01*
X138770000Y-110944695D01*
X138803231Y-110878231D01*
X138869696Y-110845000D01*
X139183352Y-110845000D01*
X139184286Y-110845101D01*
G37*
G36*
X149181830Y-110683247D02*
G01*
X149211008Y-110712425D01*
X149255714Y-110801838D01*
X149255714Y-110945304D01*
X149211007Y-111034718D01*
X149174002Y-111071722D01*
X149084590Y-111116428D01*
X148698571Y-111116428D01*
X148698571Y-110630714D01*
X149024229Y-110630714D01*
X149181830Y-110683247D01*
G37*
G36*
X149102575Y-109961135D02*
G01*
X149139579Y-109998139D01*
X149184286Y-110087552D01*
X149184286Y-110159590D01*
X149139580Y-110249000D01*
X149102574Y-110286006D01*
X149015732Y-110329428D01*
X149009977Y-110329220D01*
X149007456Y-110330714D01*
X148698571Y-110330714D01*
X148698571Y-109916428D01*
X149013161Y-109916428D01*
X149102575Y-109961135D01*
G37*
G36*
X154662858Y-114544286D02*
G01*
X135955714Y-114544286D01*
X135955714Y-113004391D01*
X136822400Y-113004391D01*
X136827142Y-113014774D01*
X136827142Y-113717996D01*
X136845626Y-113780948D01*
X136912199Y-113838633D01*
X136999391Y-113851170D01*
X137079518Y-113814577D01*
X137127142Y-113740472D01*
X137127142Y-113132142D01*
X137256187Y-113132142D01*
X137723769Y-113800116D01*
X137775012Y-113841089D01*
X137862631Y-113850169D01*
X137941251Y-113810439D01*
X137985909Y-113734511D01*
X137982427Y-113646491D01*
X137613475Y-113119417D01*
X137633091Y-113113658D01*
X137642372Y-113102946D01*
X137741688Y-113053288D01*
X137766350Y-113047924D01*
X137795561Y-113018712D01*
X137825841Y-112990547D01*
X137826567Y-112987706D01*
X137855624Y-112958649D01*
X137877324Y-112945761D01*
X137886456Y-112927496D01*
X138250284Y-112927496D01*
X138255714Y-112940588D01*
X138255714Y-113156797D01*
X138253534Y-113160635D01*
X138255714Y-113200532D01*
X138255714Y-113474069D01*
X138251853Y-113509829D01*
X138265560Y-113537244D01*
X138274198Y-113566662D01*
X138284909Y-113575943D01*
X138325888Y-113657902D01*
X138325683Y-113663731D01*
X138345404Y-113696935D01*
X138352623Y-113711373D01*
X138356375Y-113715407D01*
X138370666Y-113739468D01*
X138385789Y-113747029D01*
X138397308Y-113759413D01*
X138424425Y-113766347D01*
X138545696Y-113826981D01*
X138575956Y-113846428D01*
X138606608Y-113846428D01*
X138636782Y-113851858D01*
X138649874Y-113846428D01*
X138897638Y-113846428D01*
X138933401Y-113850289D01*
X138960815Y-113836581D01*
X138990234Y-113827944D01*
X138999515Y-113817232D01*
X139134944Y-113749519D01*
X139182984Y-113704833D01*
X139204807Y-113619491D01*
X139177027Y-113535897D01*
X139108463Y-113480594D01*
X139020884Y-113471139D01*
X138870304Y-113546428D01*
X138655409Y-113546428D01*
X138588945Y-113513196D01*
X138555714Y-113446733D01*
X138555714Y-113319399D01*
X139124152Y-113205710D01*
X139142249Y-113208313D01*
X139166486Y-113197244D01*
X139170567Y-113196428D01*
X139186031Y-113188318D01*
X139222376Y-113171720D01*
X139224762Y-113168006D01*
X139228671Y-113165957D01*
X139248403Y-113131220D01*
X139270000Y-113097615D01*
X139270000Y-113093202D01*
X139272180Y-113089364D01*
X139270000Y-113049467D01*
X139270000Y-112918789D01*
X139273861Y-112883025D01*
X139260152Y-112855609D01*
X139251516Y-112826194D01*
X139240804Y-112816912D01*
X139199825Y-112734956D01*
X139200031Y-112729127D01*
X139185938Y-112705400D01*
X139463924Y-112705400D01*
X139825641Y-113718209D01*
X139824861Y-113731790D01*
X139840199Y-113758969D01*
X139843135Y-113767190D01*
X139850747Y-113777660D01*
X139868154Y-113808506D01*
X139876297Y-113812806D01*
X139881715Y-113820258D01*
X139914727Y-113833099D01*
X139946049Y-113849638D01*
X139955228Y-113848852D01*
X139963811Y-113852191D01*
X139998518Y-113845147D01*
X140033816Y-113842127D01*
X140041112Y-113836503D01*
X140050140Y-113834672D01*
X140075535Y-113809976D01*
X140103590Y-113788357D01*
X140106687Y-113779683D01*
X140113292Y-113773261D01*
X140121304Y-113738756D01*
X140165914Y-113613847D01*
X140678350Y-113613847D01*
X140685432Y-113646404D01*
X140687810Y-113679634D01*
X140694648Y-113688769D01*
X140697075Y-113699922D01*
X140720631Y-113723478D01*
X140740599Y-113750152D01*
X140751293Y-113754140D01*
X140772574Y-113775421D01*
X140774197Y-113780948D01*
X140795295Y-113799229D01*
X140812025Y-113821579D01*
X140827938Y-113827514D01*
X140840770Y-113838633D01*
X140857576Y-113841049D01*
X140872481Y-113849188D01*
X140883863Y-113848373D01*
X140894559Y-113852363D01*
X140911152Y-113848753D01*
X140927962Y-113851170D01*
X140943411Y-113844114D01*
X140960345Y-113842903D01*
X140969480Y-113836064D01*
X140980634Y-113833638D01*
X140992639Y-113821632D01*
X141008089Y-113814577D01*
X141017270Y-113800289D01*
X141030864Y-113790114D01*
X141034852Y-113779420D01*
X141075616Y-113738657D01*
X141102294Y-113718687D01*
X141113938Y-113687466D01*
X141129902Y-113658232D01*
X141129087Y-113646848D01*
X141133077Y-113636153D01*
X141125994Y-113603595D01*
X141123618Y-113570369D01*
X141116778Y-113561232D01*
X141114352Y-113550078D01*
X141090794Y-113526520D01*
X141070829Y-113499849D01*
X141060133Y-113495859D01*
X141038851Y-113474577D01*
X141037229Y-113469051D01*
X141016128Y-113450767D01*
X140999399Y-113428419D01*
X140983487Y-113422484D01*
X140970656Y-113411366D01*
X140953850Y-113408949D01*
X140938944Y-113400810D01*
X140927558Y-113401624D01*
X140916865Y-113397636D01*
X140900272Y-113401245D01*
X140883464Y-113398829D01*
X140868016Y-113405883D01*
X140851081Y-113407095D01*
X140841942Y-113413935D01*
X140830790Y-113416362D01*
X140818785Y-113428367D01*
X140803337Y-113435422D01*
X140794157Y-113449706D01*
X140780561Y-113459884D01*
X140776571Y-113470581D01*
X140735807Y-113511345D01*
X140709133Y-113531313D01*
X140697489Y-113562531D01*
X140681524Y-113591770D01*
X140682338Y-113603153D01*
X140678350Y-113613847D01*
X140165914Y-113613847D01*
X140342770Y-113118651D01*
X142535224Y-113118651D01*
X142541428Y-113143467D01*
X142541428Y-113146568D01*
X142546646Y-113164341D01*
X142610854Y-113421173D01*
X142608995Y-113438402D01*
X142621328Y-113463069D01*
X142622566Y-113468018D01*
X142630939Y-113482290D01*
X142691709Y-113603829D01*
X142697075Y-113628493D01*
X142726295Y-113657713D01*
X142754452Y-113687984D01*
X142757292Y-113688710D01*
X142786349Y-113717767D01*
X142799238Y-113739467D01*
X142836187Y-113757941D01*
X142872483Y-113777761D01*
X142875407Y-113777551D01*
X142974265Y-113826980D01*
X143004527Y-113846428D01*
X143035179Y-113846428D01*
X143065353Y-113851858D01*
X143078445Y-113846428D01*
X143183352Y-113846428D01*
X143219115Y-113850289D01*
X143246529Y-113836581D01*
X143275948Y-113827944D01*
X143285229Y-113817232D01*
X143384545Y-113767574D01*
X143409207Y-113762210D01*
X143438418Y-113732998D01*
X143468698Y-113704833D01*
X143469424Y-113701992D01*
X143498481Y-113672935D01*
X143520181Y-113660047D01*
X143538655Y-113623097D01*
X143558475Y-113586802D01*
X143558265Y-113583877D01*
X143599357Y-113501693D01*
X143611981Y-113489824D01*
X143618670Y-113463067D01*
X143620952Y-113458504D01*
X143623883Y-113442215D01*
X143688104Y-113185329D01*
X143698571Y-113169044D01*
X143698571Y-113143465D01*
X143699323Y-113140457D01*
X143698571Y-113121952D01*
X143698571Y-112792544D01*
X143704775Y-112774205D01*
X143698571Y-112749389D01*
X143698571Y-112746289D01*
X143693353Y-112728518D01*
X143668851Y-112630510D01*
X143963764Y-112630510D01*
X143991544Y-112714103D01*
X144060108Y-112769406D01*
X144147687Y-112778861D01*
X144313114Y-112696146D01*
X144337778Y-112690781D01*
X144366998Y-112661560D01*
X144397269Y-112633404D01*
X144397995Y-112630563D01*
X144398570Y-112629989D01*
X144398570Y-113546428D01*
X144098431Y-113546428D01*
X144035479Y-113564912D01*
X143977794Y-113631485D01*
X143965257Y-113718677D01*
X144001850Y-113798804D01*
X144075955Y-113846428D01*
X144537839Y-113846428D01*
X144570819Y-113851170D01*
X144581202Y-113846428D01*
X144998710Y-113846428D01*
X145061662Y-113827944D01*
X145119347Y-113761371D01*
X145131884Y-113674179D01*
X145095291Y-113594052D01*
X145021186Y-113546428D01*
X144698570Y-113546428D01*
X144698570Y-112219285D01*
X144704881Y-112199055D01*
X144698570Y-112176145D01*
X144698570Y-112174860D01*
X144692845Y-112155364D01*
X144681487Y-112114130D01*
X144680471Y-112113219D01*
X144680086Y-112111908D01*
X144647756Y-112083894D01*
X144615893Y-112055333D01*
X144614543Y-112055115D01*
X144613513Y-112054223D01*
X144571205Y-112048139D01*
X144528925Y-112041334D01*
X144527673Y-112041880D01*
X144526321Y-112041686D01*
X144487378Y-112059470D01*
X144448194Y-112076576D01*
X144447437Y-112077711D01*
X144446194Y-112078279D01*
X144423048Y-112114294D01*
X144289145Y-112315149D01*
X144174002Y-112430292D01*
X144033626Y-112500482D01*
X143985586Y-112545167D01*
X143963764Y-112630510D01*
X143668851Y-112630510D01*
X143629143Y-112471682D01*
X143631003Y-112454455D01*
X143618669Y-112429787D01*
X143617432Y-112424838D01*
X143609058Y-112410564D01*
X143548288Y-112289022D01*
X143542923Y-112264362D01*
X143513715Y-112235154D01*
X143485547Y-112204872D01*
X143482706Y-112204145D01*
X143453648Y-112175088D01*
X143440761Y-112153390D01*
X143403811Y-112134915D01*
X143367515Y-112115096D01*
X143364591Y-112115305D01*
X143265737Y-112065878D01*
X143235472Y-112046428D01*
X143204819Y-112046428D01*
X143174647Y-112040998D01*
X143161555Y-112046428D01*
X143056646Y-112046428D01*
X143020882Y-112042567D01*
X142993466Y-112056275D01*
X142964051Y-112064912D01*
X142954769Y-112075623D01*
X142855454Y-112125282D01*
X142830793Y-112130647D01*
X142801578Y-112159861D01*
X142771301Y-112188024D01*
X142770574Y-112190864D01*
X142741518Y-112219919D01*
X142719818Y-112232809D01*
X142701337Y-112269769D01*
X142681525Y-112306053D01*
X142681734Y-112308976D01*
X142640641Y-112391162D01*
X142628017Y-112403033D01*
X142621328Y-112429788D01*
X142619047Y-112434351D01*
X142616115Y-112450638D01*
X142551894Y-112707526D01*
X142541428Y-112723813D01*
X142541428Y-112749393D01*
X142540676Y-112752401D01*
X142541428Y-112770906D01*
X142541428Y-113100312D01*
X142535224Y-113118651D01*
X140342770Y-113118651D01*
X140482800Y-112726567D01*
X140486566Y-112661066D01*
X140443273Y-112584350D01*
X140365378Y-112543218D01*
X140277611Y-112550729D01*
X140207837Y-112604500D01*
X139977142Y-113250446D01*
X139754006Y-112625666D01*
X139715426Y-112572598D01*
X139633330Y-112540665D01*
X139547001Y-112558184D01*
X139483849Y-112619595D01*
X139463924Y-112705400D01*
X139185938Y-112705400D01*
X139180303Y-112695913D01*
X139173089Y-112681484D01*
X139169338Y-112677452D01*
X139155047Y-112653390D01*
X139139923Y-112645828D01*
X139128404Y-112633444D01*
X139101288Y-112626510D01*
X138980023Y-112565878D01*
X138949758Y-112546428D01*
X138919105Y-112546428D01*
X138888933Y-112540998D01*
X138875841Y-112546428D01*
X138628076Y-112546428D01*
X138592312Y-112542567D01*
X138564896Y-112556274D01*
X138535480Y-112564912D01*
X138526198Y-112575623D01*
X138444240Y-112616602D01*
X138438412Y-112616397D01*
X138405207Y-112636118D01*
X138390769Y-112643338D01*
X138386734Y-112647090D01*
X138362675Y-112661381D01*
X138355113Y-112676504D01*
X138342729Y-112688024D01*
X138335795Y-112715140D01*
X138275159Y-112836411D01*
X138255714Y-112866670D01*
X138255714Y-112897321D01*
X138250284Y-112927496D01*
X137886456Y-112927496D01*
X137895798Y-112908811D01*
X137915618Y-112872516D01*
X137915408Y-112869591D01*
X137964837Y-112770733D01*
X137984285Y-112740472D01*
X137984285Y-112709820D01*
X137989715Y-112679646D01*
X137984285Y-112666554D01*
X137984285Y-112490218D01*
X137988146Y-112454455D01*
X137974438Y-112427040D01*
X137965801Y-112397622D01*
X137955089Y-112388340D01*
X137905431Y-112289022D01*
X137900066Y-112264362D01*
X137870858Y-112235154D01*
X137842690Y-112204872D01*
X137839849Y-112204145D01*
X137810791Y-112175088D01*
X137797904Y-112153390D01*
X137760954Y-112134915D01*
X137724658Y-112115096D01*
X137721734Y-112115305D01*
X137622880Y-112065878D01*
X137592615Y-112046428D01*
X137561962Y-112046428D01*
X137531790Y-112040998D01*
X137518698Y-112046428D01*
X136987873Y-112046428D01*
X136954893Y-112041686D01*
X136924586Y-112055526D01*
X136892622Y-112064912D01*
X136885147Y-112073537D01*
X136874766Y-112078279D01*
X136856753Y-112106306D01*
X136834937Y-112131485D01*
X136833312Y-112142782D01*
X136827142Y-112152384D01*
X136827142Y-112185697D01*
X136822400Y-112218677D01*
X136827142Y-112229060D01*
X136827142Y-112971411D01*
X136822400Y-113004391D01*
X135955714Y-113004391D01*
X135955714Y-111771937D01*
X152463765Y-111771937D01*
X152491544Y-111855530D01*
X152560108Y-111910834D01*
X152647687Y-111920289D01*
X152813117Y-111837574D01*
X152837779Y-111832210D01*
X152866990Y-111802998D01*
X152897270Y-111774833D01*
X152897996Y-111771992D01*
X152931512Y-111738476D01*
X152957200Y-111720173D01*
X152970228Y-111687602D01*
X152987047Y-111656802D01*
X152986364Y-111647261D01*
X153101184Y-111360211D01*
X153103591Y-111358357D01*
X153106688Y-111349683D01*
X153113293Y-111343261D01*
X153120666Y-111311506D01*
X153124425Y-111302111D01*
X153124696Y-111299262D01*
X153482801Y-110296567D01*
X153486567Y-110231066D01*
X153443274Y-110154350D01*
X153365379Y-110113218D01*
X153277612Y-110120729D01*
X153207838Y-110174500D01*
X152977143Y-110820446D01*
X152754007Y-110195666D01*
X152715427Y-110142598D01*
X152633331Y-110110665D01*
X152547002Y-110128184D01*
X152483850Y-110189595D01*
X152463925Y-110275400D01*
X152816790Y-111263421D01*
X152706448Y-111539276D01*
X152674002Y-111571722D01*
X152533627Y-111641909D01*
X152485587Y-111686595D01*
X152463765Y-111771937D01*
X135955714Y-111771937D01*
X135955714Y-109758325D01*
X136678163Y-109758325D01*
X137041866Y-111285880D01*
X137042575Y-111314207D01*
X137064066Y-111345878D01*
X137083065Y-111379111D01*
X137088559Y-111381973D01*
X137092037Y-111387098D01*
X137127243Y-111402124D01*
X137161189Y-111419808D01*
X137167356Y-111419245D01*
X137173055Y-111421678D01*
X137210798Y-111415284D01*
X137248913Y-111411809D01*
X137253798Y-111408000D01*
X137259905Y-111406966D01*
X137288190Y-111381190D01*
X137318386Y-111357652D01*
X137320437Y-111351805D01*
X137325015Y-111347634D01*
X137334878Y-111310647D01*
X137347550Y-111274531D01*
X137346115Y-111268506D01*
X137477142Y-110777156D01*
X137613872Y-111289891D01*
X137615341Y-111318188D01*
X137637676Y-111349272D01*
X137657559Y-111381981D01*
X137663128Y-111384694D01*
X137666742Y-111389724D01*
X137702336Y-111403798D01*
X137736748Y-111420565D01*
X137742898Y-111419837D01*
X137748660Y-111422115D01*
X137786216Y-111414710D01*
X137824226Y-111410212D01*
X137829007Y-111406273D01*
X137835083Y-111405076D01*
X137862664Y-111378551D01*
X137892219Y-111354209D01*
X137894112Y-111348309D01*
X137898576Y-111344017D01*
X137907439Y-111306790D01*
X137919141Y-111270335D01*
X137917544Y-111264348D01*
X137998088Y-110926067D01*
X138464570Y-110926067D01*
X138470000Y-110939159D01*
X138470000Y-111044069D01*
X138466139Y-111079829D01*
X138479846Y-111107244D01*
X138488484Y-111136662D01*
X138499195Y-111145943D01*
X138540174Y-111227902D01*
X138539969Y-111233731D01*
X138559690Y-111266935D01*
X138566909Y-111281373D01*
X138570661Y-111285407D01*
X138584952Y-111309468D01*
X138600075Y-111317029D01*
X138611594Y-111329413D01*
X138638711Y-111336347D01*
X138759982Y-111396981D01*
X138790242Y-111416428D01*
X138820894Y-111416428D01*
X138851068Y-111421858D01*
X138864160Y-111416428D01*
X139183355Y-111416428D01*
X139219115Y-111420289D01*
X139246530Y-111406581D01*
X139261800Y-111402097D01*
X139269343Y-111408633D01*
X139356535Y-111421170D01*
X139436662Y-111384577D01*
X139484286Y-111310472D01*
X139484286Y-111213878D01*
X139490522Y-111189491D01*
X139484286Y-111170726D01*
X139484286Y-110642446D01*
X139490521Y-110618062D01*
X139484286Y-110599300D01*
X139484286Y-110488789D01*
X139488147Y-110453025D01*
X139474438Y-110425609D01*
X139465802Y-110396194D01*
X139455090Y-110386912D01*
X139414111Y-110304956D01*
X139414317Y-110299127D01*
X139400224Y-110275400D01*
X139749639Y-110275400D01*
X140111356Y-111288209D01*
X140110576Y-111301790D01*
X140125914Y-111328969D01*
X140128850Y-111337190D01*
X140136462Y-111347660D01*
X140153869Y-111378506D01*
X140162012Y-111382806D01*
X140167430Y-111390258D01*
X140200442Y-111403099D01*
X140231764Y-111419638D01*
X140240943Y-111418852D01*
X140249526Y-111422191D01*
X140284233Y-111415147D01*
X140319531Y-111412127D01*
X140326827Y-111406503D01*
X140335855Y-111404672D01*
X140361250Y-111379976D01*
X140389305Y-111358357D01*
X140392402Y-111349683D01*
X140399007Y-111343261D01*
X140407019Y-111308756D01*
X140696755Y-110497496D01*
X140964570Y-110497496D01*
X140970000Y-110510588D01*
X140970000Y-110726797D01*
X140967820Y-110730635D01*
X140970000Y-110770532D01*
X140970000Y-111044069D01*
X140966139Y-111079829D01*
X140979846Y-111107244D01*
X140988484Y-111136662D01*
X140999195Y-111145943D01*
X141040174Y-111227902D01*
X141039969Y-111233731D01*
X141059690Y-111266935D01*
X141066909Y-111281373D01*
X141070661Y-111285407D01*
X141084952Y-111309468D01*
X141100075Y-111317029D01*
X141111594Y-111329413D01*
X141138711Y-111336347D01*
X141259982Y-111396981D01*
X141290242Y-111416428D01*
X141320894Y-111416428D01*
X141351068Y-111421858D01*
X141364160Y-111416428D01*
X141611924Y-111416428D01*
X141647687Y-111420289D01*
X141675101Y-111406581D01*
X141704520Y-111397944D01*
X141713801Y-111387232D01*
X141849230Y-111319519D01*
X141897270Y-111274833D01*
X141919093Y-111189491D01*
X141891313Y-111105897D01*
X141822749Y-111050594D01*
X141735170Y-111041139D01*
X141584590Y-111116428D01*
X141369695Y-111116428D01*
X141303231Y-111083196D01*
X141270000Y-111016733D01*
X141270000Y-110889399D01*
X141838438Y-110775710D01*
X141856535Y-110778313D01*
X141880772Y-110767244D01*
X141884853Y-110766428D01*
X141900317Y-110758318D01*
X141936662Y-110741720D01*
X141939048Y-110738006D01*
X141942957Y-110735957D01*
X141962689Y-110701220D01*
X141984286Y-110667615D01*
X141984286Y-110663202D01*
X141986466Y-110659364D01*
X141984286Y-110619467D01*
X141984286Y-110488789D01*
X141988147Y-110453025D01*
X141974438Y-110425609D01*
X141965802Y-110396194D01*
X141955090Y-110386912D01*
X141914111Y-110304956D01*
X141914317Y-110299127D01*
X141894589Y-110265913D01*
X141887375Y-110251484D01*
X141883624Y-110247452D01*
X141869333Y-110223390D01*
X141854209Y-110215828D01*
X141842690Y-110203444D01*
X141815574Y-110196510D01*
X141694309Y-110135878D01*
X141664044Y-110116428D01*
X141633391Y-110116428D01*
X141603219Y-110110998D01*
X141590127Y-110116428D01*
X141342362Y-110116428D01*
X141306598Y-110112567D01*
X141279182Y-110126274D01*
X141249766Y-110134912D01*
X141240484Y-110145623D01*
X141158526Y-110186602D01*
X141152698Y-110186397D01*
X141119493Y-110206118D01*
X141105055Y-110213338D01*
X141101020Y-110217090D01*
X141076961Y-110231381D01*
X141069399Y-110246504D01*
X141057015Y-110258024D01*
X141050081Y-110285140D01*
X140989445Y-110406411D01*
X140970000Y-110436670D01*
X140970000Y-110467321D01*
X140964570Y-110497496D01*
X140696755Y-110497496D01*
X140768515Y-110296567D01*
X140772281Y-110231066D01*
X140728988Y-110154350D01*
X140651093Y-110113218D01*
X140563326Y-110120729D01*
X140493552Y-110174500D01*
X140262857Y-110820446D01*
X140039721Y-110195666D01*
X140001141Y-110142598D01*
X139919045Y-110110665D01*
X139832716Y-110128184D01*
X139769564Y-110189595D01*
X139749639Y-110275400D01*
X139400224Y-110275400D01*
X139394589Y-110265913D01*
X139387375Y-110251484D01*
X139383624Y-110247452D01*
X139369333Y-110223390D01*
X139354209Y-110215828D01*
X139342690Y-110203444D01*
X139315574Y-110196510D01*
X139194309Y-110135878D01*
X139164044Y-110116428D01*
X139133391Y-110116428D01*
X139103219Y-110110998D01*
X139090127Y-110116428D01*
X138842362Y-110116428D01*
X138806598Y-110112567D01*
X138779182Y-110126274D01*
X138749766Y-110134912D01*
X138740484Y-110145623D01*
X138605055Y-110213338D01*
X138557015Y-110258024D01*
X138535193Y-110343366D01*
X138562973Y-110426960D01*
X138631536Y-110482263D01*
X138719116Y-110491718D01*
X138869697Y-110416428D01*
X139084589Y-110416428D01*
X139151054Y-110449660D01*
X139184286Y-110516124D01*
X139184286Y-110530866D01*
X139156017Y-110545000D01*
X138842363Y-110545000D01*
X138806599Y-110541139D01*
X138779184Y-110554846D01*
X138749766Y-110563484D01*
X138740484Y-110574195D01*
X138658527Y-110615173D01*
X138652698Y-110614968D01*
X138619487Y-110634693D01*
X138605056Y-110641909D01*
X138601022Y-110645660D01*
X138576961Y-110659952D01*
X138569399Y-110675075D01*
X138557016Y-110686594D01*
X138550082Y-110713709D01*
X138489445Y-110834982D01*
X138470000Y-110865241D01*
X138470000Y-110895892D01*
X138464570Y-110926067D01*
X137998088Y-110926067D01*
X138270917Y-109780190D01*
X138269782Y-109758325D01*
X142178163Y-109758325D01*
X142541866Y-111285880D01*
X142542575Y-111314207D01*
X142564066Y-111345878D01*
X142583065Y-111379111D01*
X142588559Y-111381973D01*
X142592037Y-111387098D01*
X142627243Y-111402124D01*
X142661189Y-111419808D01*
X142667356Y-111419245D01*
X142673055Y-111421678D01*
X142710798Y-111415284D01*
X142748913Y-111411809D01*
X142753798Y-111408000D01*
X142759905Y-111406966D01*
X142788190Y-111381190D01*
X142818386Y-111357652D01*
X142820437Y-111351805D01*
X142825015Y-111347634D01*
X142834878Y-111310647D01*
X142847550Y-111274531D01*
X142846115Y-111268506D01*
X142977142Y-110777156D01*
X143113872Y-111289891D01*
X143115341Y-111318188D01*
X143137676Y-111349272D01*
X143157559Y-111381981D01*
X143163128Y-111384694D01*
X143166742Y-111389724D01*
X143202336Y-111403798D01*
X143236748Y-111420565D01*
X143242898Y-111419837D01*
X143248660Y-111422115D01*
X143286216Y-111414710D01*
X143324226Y-111410212D01*
X143329007Y-111406273D01*
X143335083Y-111405076D01*
X143362664Y-111378551D01*
X143392219Y-111354209D01*
X143394112Y-111348309D01*
X143398576Y-111344017D01*
X143407439Y-111306790D01*
X143413472Y-111287996D01*
X144041428Y-111287996D01*
X144059912Y-111350948D01*
X144126485Y-111408633D01*
X144213677Y-111421170D01*
X144293804Y-111384577D01*
X144341428Y-111310472D01*
X144341428Y-110497496D01*
X144678856Y-110497496D01*
X144684286Y-110510588D01*
X144684286Y-110544069D01*
X144680425Y-110579829D01*
X144694132Y-110607244D01*
X144702770Y-110636662D01*
X144713481Y-110645943D01*
X144754460Y-110727902D01*
X144754255Y-110733731D01*
X144773976Y-110766935D01*
X144781195Y-110781373D01*
X144784947Y-110785407D01*
X144799238Y-110809468D01*
X144814361Y-110817029D01*
X144825880Y-110829413D01*
X144852997Y-110836347D01*
X144974268Y-110896981D01*
X145004528Y-110916428D01*
X145035180Y-110916428D01*
X145065354Y-110921858D01*
X145078446Y-110916428D01*
X145227446Y-110916428D01*
X145293911Y-110949660D01*
X145327143Y-111016124D01*
X145327143Y-111016732D01*
X145293910Y-111083196D01*
X145227447Y-111116428D01*
X145012553Y-111116428D01*
X144882077Y-111051190D01*
X144817504Y-111039570D01*
X144736137Y-111073317D01*
X144685930Y-111145698D01*
X144682826Y-111233730D01*
X144727810Y-111309467D01*
X144902837Y-111396980D01*
X144933099Y-111416428D01*
X144963751Y-111416428D01*
X144993925Y-111421858D01*
X145007017Y-111416428D01*
X145254781Y-111416428D01*
X145290544Y-111420289D01*
X145317958Y-111406581D01*
X145347377Y-111397944D01*
X145356658Y-111387232D01*
X145438615Y-111346254D01*
X145444444Y-111346460D01*
X145477648Y-111326737D01*
X145492087Y-111319519D01*
X145496121Y-111315766D01*
X145520181Y-111301476D01*
X145527742Y-111286352D01*
X145540127Y-111274833D01*
X145547061Y-111247715D01*
X145607697Y-111126444D01*
X145627143Y-111096186D01*
X145627143Y-111065535D01*
X145632573Y-111035361D01*
X145627143Y-111022269D01*
X145627143Y-110988789D01*
X145631004Y-110953025D01*
X145617295Y-110925609D01*
X145608659Y-110896194D01*
X145597947Y-110886912D01*
X145556968Y-110804956D01*
X145557174Y-110799127D01*
X145537446Y-110765913D01*
X145530232Y-110751484D01*
X145526481Y-110747452D01*
X145512190Y-110723390D01*
X145497066Y-110715828D01*
X145485547Y-110703444D01*
X145458431Y-110696510D01*
X145337166Y-110635878D01*
X145306901Y-110616428D01*
X145276248Y-110616428D01*
X145246076Y-110610998D01*
X145232984Y-110616428D01*
X145083981Y-110616428D01*
X145017517Y-110583196D01*
X144984286Y-110516733D01*
X144984286Y-110516124D01*
X144993600Y-110497496D01*
X145893142Y-110497496D01*
X145898572Y-110510588D01*
X145898572Y-110726797D01*
X145896392Y-110730635D01*
X145898572Y-110770532D01*
X145898572Y-111044069D01*
X145894711Y-111079829D01*
X145908418Y-111107244D01*
X145917056Y-111136662D01*
X145927767Y-111145943D01*
X145968746Y-111227902D01*
X145968541Y-111233731D01*
X145988262Y-111266935D01*
X145995481Y-111281373D01*
X145999233Y-111285407D01*
X146013524Y-111309468D01*
X146028647Y-111317029D01*
X146040166Y-111329413D01*
X146067283Y-111336347D01*
X146188554Y-111396981D01*
X146218814Y-111416428D01*
X146249466Y-111416428D01*
X146279640Y-111421858D01*
X146292732Y-111416428D01*
X146540496Y-111416428D01*
X146576259Y-111420289D01*
X146603673Y-111406581D01*
X146633092Y-111397944D01*
X146642373Y-111387232D01*
X146777802Y-111319519D01*
X146810959Y-111288677D01*
X148393829Y-111288677D01*
X148407669Y-111318983D01*
X148417055Y-111350948D01*
X148425680Y-111358422D01*
X148430422Y-111368804D01*
X148458449Y-111386816D01*
X148483628Y-111408633D01*
X148494925Y-111410257D01*
X148504527Y-111416428D01*
X148537840Y-111416428D01*
X148570820Y-111421170D01*
X148581203Y-111416428D01*
X149111924Y-111416428D01*
X149147687Y-111420289D01*
X149175101Y-111406581D01*
X149204520Y-111397944D01*
X149213801Y-111387232D01*
X149313117Y-111337574D01*
X149337779Y-111332210D01*
X149366990Y-111302998D01*
X149397270Y-111274833D01*
X149397996Y-111271992D01*
X149427053Y-111242935D01*
X149448753Y-111230047D01*
X149467227Y-111193097D01*
X149487047Y-111156802D01*
X149486837Y-111153877D01*
X149523861Y-111079830D01*
X149894710Y-111079830D01*
X149908417Y-111107245D01*
X149917055Y-111136662D01*
X149927766Y-111145943D01*
X149968745Y-111227901D01*
X149968540Y-111233730D01*
X149988261Y-111266934D01*
X149995481Y-111281373D01*
X149999233Y-111285407D01*
X150013524Y-111309467D01*
X150028647Y-111317028D01*
X150040167Y-111329413D01*
X150067283Y-111336346D01*
X150188551Y-111396980D01*
X150218813Y-111416428D01*
X150249465Y-111416428D01*
X150279639Y-111421858D01*
X150292731Y-111416428D01*
X150469067Y-111416428D01*
X150504830Y-111420289D01*
X150532244Y-111406581D01*
X150561663Y-111397944D01*
X150570944Y-111387232D01*
X150590502Y-111377453D01*
X150626486Y-111408633D01*
X150713678Y-111421170D01*
X150793805Y-111384577D01*
X150841429Y-111310472D01*
X150841429Y-111161858D01*
X150844190Y-111156802D01*
X150841429Y-111118203D01*
X150841429Y-110568924D01*
X151178856Y-110568924D01*
X151184286Y-110582016D01*
X151184286Y-110972638D01*
X151180425Y-111008401D01*
X151194132Y-111035815D01*
X151202770Y-111065234D01*
X151213481Y-111074515D01*
X151263139Y-111173831D01*
X151268504Y-111198493D01*
X151297709Y-111227698D01*
X151325881Y-111257984D01*
X151328721Y-111258710D01*
X151357778Y-111287767D01*
X151370667Y-111309467D01*
X151407616Y-111327941D01*
X151443912Y-111347761D01*
X151446836Y-111347551D01*
X151545694Y-111396980D01*
X151575956Y-111416428D01*
X151606608Y-111416428D01*
X151636782Y-111421858D01*
X151649874Y-111416428D01*
X151826210Y-111416428D01*
X151861973Y-111420289D01*
X151889387Y-111406581D01*
X151918806Y-111397944D01*
X151928087Y-111387232D01*
X152027403Y-111337574D01*
X152052065Y-111332210D01*
X152081276Y-111302998D01*
X152111556Y-111274833D01*
X152112282Y-111271992D01*
X152141339Y-111242935D01*
X152163039Y-111230047D01*
X152181513Y-111193097D01*
X152201333Y-111156802D01*
X152201123Y-111153877D01*
X152250552Y-111055019D01*
X152270000Y-111024758D01*
X152270000Y-110994106D01*
X152275430Y-110963932D01*
X152270000Y-110950840D01*
X152270000Y-110560218D01*
X152273861Y-110524455D01*
X152260153Y-110497040D01*
X152251516Y-110467622D01*
X152240804Y-110458340D01*
X152191146Y-110359022D01*
X152185781Y-110334362D01*
X152156573Y-110305154D01*
X152128405Y-110274872D01*
X152125564Y-110274145D01*
X152096506Y-110245088D01*
X152083619Y-110223390D01*
X152046669Y-110204915D01*
X152010373Y-110185096D01*
X152007449Y-110185305D01*
X151908595Y-110135878D01*
X151878330Y-110116428D01*
X151847677Y-110116428D01*
X151817505Y-110110998D01*
X151804413Y-110116428D01*
X151628075Y-110116428D01*
X151592311Y-110112567D01*
X151564895Y-110126275D01*
X151535480Y-110134912D01*
X151526198Y-110145623D01*
X151426883Y-110195282D01*
X151402222Y-110200647D01*
X151373007Y-110229861D01*
X151342730Y-110258024D01*
X151342003Y-110260864D01*
X151312947Y-110289919D01*
X151291247Y-110302809D01*
X151272766Y-110339769D01*
X151252954Y-110376053D01*
X151253163Y-110378976D01*
X151203731Y-110477839D01*
X151184286Y-110508098D01*
X151184286Y-110538749D01*
X151178856Y-110568924D01*
X150841429Y-110568924D01*
X150841429Y-110244860D01*
X150822945Y-110181908D01*
X150756372Y-110124223D01*
X150669180Y-110111686D01*
X150589053Y-110148279D01*
X150541429Y-110222384D01*
X150541429Y-111061439D01*
X150531145Y-111071722D01*
X150441733Y-111116428D01*
X150298267Y-111116428D01*
X150231803Y-111083196D01*
X150198571Y-111016731D01*
X150198571Y-110244860D01*
X150180087Y-110181908D01*
X150113514Y-110124223D01*
X150026322Y-110111686D01*
X149946195Y-110148279D01*
X149898571Y-110222384D01*
X149898571Y-111044066D01*
X149894710Y-111079830D01*
X149523861Y-111079830D01*
X149536266Y-111055019D01*
X149555714Y-111024758D01*
X149555714Y-110994106D01*
X149561144Y-110963932D01*
X149555714Y-110950840D01*
X149555714Y-110774504D01*
X149559575Y-110738741D01*
X149545867Y-110711326D01*
X149537230Y-110681908D01*
X149526518Y-110672626D01*
X149476860Y-110573310D01*
X149471496Y-110548649D01*
X149442284Y-110519437D01*
X149414119Y-110489158D01*
X149411278Y-110488431D01*
X149374635Y-110451788D01*
X149371445Y-110447825D01*
X149377324Y-110444334D01*
X149395807Y-110407367D01*
X149415617Y-110371089D01*
X149415407Y-110368166D01*
X149464838Y-110269305D01*
X149484286Y-110239044D01*
X149484286Y-110208391D01*
X149489716Y-110178219D01*
X149484286Y-110165127D01*
X149484286Y-110060217D01*
X149488147Y-110024453D01*
X149474438Y-109997037D01*
X149465802Y-109967622D01*
X149455090Y-109958340D01*
X149405432Y-109859025D01*
X149400067Y-109834362D01*
X149370836Y-109805131D01*
X149342690Y-109774872D01*
X149339850Y-109774145D01*
X149310792Y-109745088D01*
X149297905Y-109723390D01*
X149260951Y-109704913D01*
X149224660Y-109685096D01*
X149221735Y-109685305D01*
X149122873Y-109635873D01*
X149092615Y-109616428D01*
X149061964Y-109616428D01*
X149031790Y-109610998D01*
X149018698Y-109616428D01*
X148559302Y-109616428D01*
X148526322Y-109611686D01*
X148496015Y-109625526D01*
X148464051Y-109634912D01*
X148456576Y-109643537D01*
X148446195Y-109648279D01*
X148428182Y-109676306D01*
X148406366Y-109701485D01*
X148404741Y-109712782D01*
X148398571Y-109722384D01*
X148398571Y-109755697D01*
X148393829Y-109788677D01*
X148398571Y-109799060D01*
X148398571Y-110469983D01*
X148393829Y-110502963D01*
X148398571Y-110513346D01*
X148398571Y-111255697D01*
X148393829Y-111288677D01*
X146810959Y-111288677D01*
X146825842Y-111274833D01*
X146847665Y-111189491D01*
X146819885Y-111105897D01*
X146751321Y-111050594D01*
X146663742Y-111041139D01*
X146513162Y-111116428D01*
X146298267Y-111116428D01*
X146231803Y-111083196D01*
X146198572Y-111016733D01*
X146198572Y-110889399D01*
X146767010Y-110775710D01*
X146785107Y-110778313D01*
X146809344Y-110767244D01*
X146813425Y-110766428D01*
X146828889Y-110758318D01*
X146865234Y-110741720D01*
X146867620Y-110738006D01*
X146871529Y-110735957D01*
X146891261Y-110701220D01*
X146912858Y-110667615D01*
X146912858Y-110663202D01*
X146915038Y-110659364D01*
X146912858Y-110619467D01*
X146912858Y-110488789D01*
X146916719Y-110453025D01*
X146903010Y-110425609D01*
X146894374Y-110396194D01*
X146883662Y-110386912D01*
X146842683Y-110304956D01*
X146842889Y-110299127D01*
X146823161Y-110265913D01*
X146815947Y-110251484D01*
X146812196Y-110247452D01*
X146797905Y-110223390D01*
X146782781Y-110215828D01*
X146771262Y-110203444D01*
X146744146Y-110196510D01*
X146622881Y-110135878D01*
X146592616Y-110116428D01*
X146561963Y-110116428D01*
X146531791Y-110110998D01*
X146518699Y-110116428D01*
X146270934Y-110116428D01*
X146235170Y-110112567D01*
X146207754Y-110126274D01*
X146178338Y-110134912D01*
X146169056Y-110145623D01*
X146087098Y-110186602D01*
X146081270Y-110186397D01*
X146048065Y-110206118D01*
X146033627Y-110213338D01*
X146029592Y-110217090D01*
X146005533Y-110231381D01*
X145997971Y-110246504D01*
X145985587Y-110258024D01*
X145978653Y-110285140D01*
X145918017Y-110406411D01*
X145898572Y-110436670D01*
X145898572Y-110467321D01*
X145893142Y-110497496D01*
X144993600Y-110497496D01*
X145017517Y-110449660D01*
X145083983Y-110416428D01*
X145227446Y-110416428D01*
X145357922Y-110481666D01*
X145422495Y-110493287D01*
X145503862Y-110459540D01*
X145554069Y-110387160D01*
X145557174Y-110299127D01*
X145512190Y-110223390D01*
X145337166Y-110135878D01*
X145306901Y-110116428D01*
X145276248Y-110116428D01*
X145246076Y-110110998D01*
X145232984Y-110116428D01*
X145056648Y-110116428D01*
X145020884Y-110112567D01*
X144993468Y-110126274D01*
X144964052Y-110134912D01*
X144954770Y-110145623D01*
X144872812Y-110186602D01*
X144866984Y-110186397D01*
X144833779Y-110206118D01*
X144819341Y-110213338D01*
X144815306Y-110217090D01*
X144791247Y-110231381D01*
X144783685Y-110246504D01*
X144771301Y-110258024D01*
X144764367Y-110285140D01*
X144703731Y-110406411D01*
X144684286Y-110436670D01*
X144684286Y-110467321D01*
X144678856Y-110497496D01*
X144341428Y-110497496D01*
X144341428Y-110244860D01*
X144322944Y-110181908D01*
X144256371Y-110124223D01*
X144169179Y-110111686D01*
X144089052Y-110148279D01*
X144041428Y-110222384D01*
X144041428Y-111287996D01*
X143413472Y-111287996D01*
X143419141Y-111270335D01*
X143417544Y-111264348D01*
X143759842Y-109826704D01*
X143964065Y-109826704D01*
X143971147Y-109859261D01*
X143973525Y-109892491D01*
X143980363Y-109901626D01*
X143982790Y-109912779D01*
X144006346Y-109936335D01*
X144026314Y-109963009D01*
X144037008Y-109966997D01*
X144058289Y-109988278D01*
X144059912Y-109993805D01*
X144081010Y-110012086D01*
X144097740Y-110034436D01*
X144113653Y-110040371D01*
X144126485Y-110051490D01*
X144143291Y-110053906D01*
X144158196Y-110062045D01*
X144169578Y-110061230D01*
X144180274Y-110065220D01*
X144196867Y-110061610D01*
X144213677Y-110064027D01*
X144229126Y-110056971D01*
X144246060Y-110055760D01*
X144255195Y-110048921D01*
X144266349Y-110046495D01*
X144278354Y-110034489D01*
X144293804Y-110027434D01*
X144302985Y-110013146D01*
X144316579Y-110002971D01*
X144320567Y-109992277D01*
X144361331Y-109951514D01*
X144388009Y-109931544D01*
X144399653Y-109900323D01*
X144415617Y-109871089D01*
X144414802Y-109859705D01*
X144418792Y-109849010D01*
X144411709Y-109816452D01*
X144409333Y-109783226D01*
X144402493Y-109774089D01*
X144400067Y-109762935D01*
X144376509Y-109739377D01*
X144356544Y-109712706D01*
X144345848Y-109708716D01*
X144324566Y-109687434D01*
X144322944Y-109681908D01*
X144301843Y-109663624D01*
X144285114Y-109641276D01*
X144269202Y-109635341D01*
X144256371Y-109624223D01*
X144239565Y-109621806D01*
X144224659Y-109613667D01*
X144213273Y-109614481D01*
X144202580Y-109610493D01*
X144185987Y-109614102D01*
X144169179Y-109611686D01*
X144153731Y-109618740D01*
X144136796Y-109619952D01*
X144127657Y-109626792D01*
X144116505Y-109629219D01*
X144104500Y-109641224D01*
X144089052Y-109648279D01*
X144079872Y-109662563D01*
X144066276Y-109672741D01*
X144062286Y-109683438D01*
X144021522Y-109724202D01*
X143994848Y-109744170D01*
X143983204Y-109775388D01*
X143967239Y-109804627D01*
X143968053Y-109816010D01*
X143964065Y-109826704D01*
X143759842Y-109826704D01*
X143770917Y-109780190D01*
X143767516Y-109714668D01*
X143716115Y-109643132D01*
X143634197Y-109610741D01*
X143547774Y-109627780D01*
X143484281Y-109688839D01*
X143254623Y-110653397D01*
X143126652Y-110173506D01*
X143125995Y-110147221D01*
X143103374Y-110113885D01*
X143082440Y-110079447D01*
X143078802Y-110077674D01*
X143076533Y-110074330D01*
X143039478Y-110058514D01*
X143003251Y-110040863D01*
X142999235Y-110041338D01*
X142995515Y-110039750D01*
X142955775Y-110046481D01*
X142915773Y-110051216D01*
X142912652Y-110053786D01*
X142908665Y-110054462D01*
X142878886Y-110081597D01*
X142847780Y-110107219D01*
X142846543Y-110111070D01*
X142843555Y-110113794D01*
X142833173Y-110152725D01*
X142820858Y-110191093D01*
X142821899Y-110195000D01*
X142699660Y-110653396D01*
X142475210Y-109710703D01*
X142442648Y-109653745D01*
X142364524Y-109613048D01*
X142276800Y-109621047D01*
X142207327Y-109675204D01*
X142178163Y-109758325D01*
X138269782Y-109758325D01*
X138267516Y-109714668D01*
X138216115Y-109643132D01*
X138134197Y-109610741D01*
X138047774Y-109627780D01*
X137984281Y-109688839D01*
X137754623Y-110653397D01*
X137626652Y-110173506D01*
X137625995Y-110147221D01*
X137603374Y-110113885D01*
X137582440Y-110079447D01*
X137578802Y-110077674D01*
X137576533Y-110074330D01*
X137539478Y-110058514D01*
X137503251Y-110040863D01*
X137499235Y-110041338D01*
X137495515Y-110039750D01*
X137455775Y-110046481D01*
X137415773Y-110051216D01*
X137412652Y-110053786D01*
X137408665Y-110054462D01*
X137378886Y-110081597D01*
X137347780Y-110107219D01*
X137346543Y-110111070D01*
X137343555Y-110113794D01*
X137333173Y-110152725D01*
X137320858Y-110191093D01*
X137321899Y-110195000D01*
X137199660Y-110653396D01*
X136975210Y-109710703D01*
X136942648Y-109653745D01*
X136864524Y-109613048D01*
X136776800Y-109621047D01*
X136707327Y-109675204D01*
X136678163Y-109758325D01*
X135955714Y-109758325D01*
X135955714Y-108535714D01*
X154662858Y-108535714D01*
X154662858Y-114544286D01*
G37*
D11*
%TO.C,CLK*%
X149899761Y-85838380D02*
X149852142Y-85886000D01*
X149852142Y-85886000D02*
X149709285Y-85933619D01*
X149709285Y-85933619D02*
X149614047Y-85933619D01*
X149614047Y-85933619D02*
X149471190Y-85886000D01*
X149471190Y-85886000D02*
X149375952Y-85790761D01*
X149375952Y-85790761D02*
X149328333Y-85695523D01*
X149328333Y-85695523D02*
X149280714Y-85505047D01*
X149280714Y-85505047D02*
X149280714Y-85362190D01*
X149280714Y-85362190D02*
X149328333Y-85171714D01*
X149328333Y-85171714D02*
X149375952Y-85076476D01*
X149375952Y-85076476D02*
X149471190Y-84981238D01*
X149471190Y-84981238D02*
X149614047Y-84933619D01*
X149614047Y-84933619D02*
X149709285Y-84933619D01*
X149709285Y-84933619D02*
X149852142Y-84981238D01*
X149852142Y-84981238D02*
X149899761Y-85028857D01*
X150804523Y-85933619D02*
X150328333Y-85933619D01*
X150328333Y-85933619D02*
X150328333Y-84933619D01*
X151137857Y-85933619D02*
X151137857Y-84933619D01*
X151709285Y-85933619D02*
X151280714Y-85362190D01*
X151709285Y-84933619D02*
X151137857Y-85505047D01*
%TO.C,5V*%
X200469523Y-65756619D02*
X199993333Y-65756619D01*
X199993333Y-65756619D02*
X199945714Y-66232809D01*
X199945714Y-66232809D02*
X199993333Y-66185190D01*
X199993333Y-66185190D02*
X200088571Y-66137571D01*
X200088571Y-66137571D02*
X200326666Y-66137571D01*
X200326666Y-66137571D02*
X200421904Y-66185190D01*
X200421904Y-66185190D02*
X200469523Y-66232809D01*
X200469523Y-66232809D02*
X200517142Y-66328047D01*
X200517142Y-66328047D02*
X200517142Y-66566142D01*
X200517142Y-66566142D02*
X200469523Y-66661380D01*
X200469523Y-66661380D02*
X200421904Y-66709000D01*
X200421904Y-66709000D02*
X200326666Y-66756619D01*
X200326666Y-66756619D02*
X200088571Y-66756619D01*
X200088571Y-66756619D02*
X199993333Y-66709000D01*
X199993333Y-66709000D02*
X199945714Y-66661380D01*
X200802857Y-65756619D02*
X201136190Y-66756619D01*
X201136190Y-66756619D02*
X201469523Y-65756619D01*
%TO.C,SD_CD*%
X141089333Y-56168000D02*
X141232190Y-56215619D01*
X141232190Y-56215619D02*
X141470285Y-56215619D01*
X141470285Y-56215619D02*
X141565523Y-56168000D01*
X141565523Y-56168000D02*
X141613142Y-56120380D01*
X141613142Y-56120380D02*
X141660761Y-56025142D01*
X141660761Y-56025142D02*
X141660761Y-55929904D01*
X141660761Y-55929904D02*
X141613142Y-55834666D01*
X141613142Y-55834666D02*
X141565523Y-55787047D01*
X141565523Y-55787047D02*
X141470285Y-55739428D01*
X141470285Y-55739428D02*
X141279809Y-55691809D01*
X141279809Y-55691809D02*
X141184571Y-55644190D01*
X141184571Y-55644190D02*
X141136952Y-55596571D01*
X141136952Y-55596571D02*
X141089333Y-55501333D01*
X141089333Y-55501333D02*
X141089333Y-55406095D01*
X141089333Y-55406095D02*
X141136952Y-55310857D01*
X141136952Y-55310857D02*
X141184571Y-55263238D01*
X141184571Y-55263238D02*
X141279809Y-55215619D01*
X141279809Y-55215619D02*
X141517904Y-55215619D01*
X141517904Y-55215619D02*
X141660761Y-55263238D01*
X142089333Y-56215619D02*
X142089333Y-55215619D01*
X142089333Y-55215619D02*
X142327428Y-55215619D01*
X142327428Y-55215619D02*
X142470285Y-55263238D01*
X142470285Y-55263238D02*
X142565523Y-55358476D01*
X142565523Y-55358476D02*
X142613142Y-55453714D01*
X142613142Y-55453714D02*
X142660761Y-55644190D01*
X142660761Y-55644190D02*
X142660761Y-55787047D01*
X142660761Y-55787047D02*
X142613142Y-55977523D01*
X142613142Y-55977523D02*
X142565523Y-56072761D01*
X142565523Y-56072761D02*
X142470285Y-56168000D01*
X142470285Y-56168000D02*
X142327428Y-56215619D01*
X142327428Y-56215619D02*
X142089333Y-56215619D01*
X142851238Y-56310857D02*
X143613142Y-56310857D01*
X144422666Y-56120380D02*
X144375047Y-56168000D01*
X144375047Y-56168000D02*
X144232190Y-56215619D01*
X144232190Y-56215619D02*
X144136952Y-56215619D01*
X144136952Y-56215619D02*
X143994095Y-56168000D01*
X143994095Y-56168000D02*
X143898857Y-56072761D01*
X143898857Y-56072761D02*
X143851238Y-55977523D01*
X143851238Y-55977523D02*
X143803619Y-55787047D01*
X143803619Y-55787047D02*
X143803619Y-55644190D01*
X143803619Y-55644190D02*
X143851238Y-55453714D01*
X143851238Y-55453714D02*
X143898857Y-55358476D01*
X143898857Y-55358476D02*
X143994095Y-55263238D01*
X143994095Y-55263238D02*
X144136952Y-55215619D01*
X144136952Y-55215619D02*
X144232190Y-55215619D01*
X144232190Y-55215619D02*
X144375047Y-55263238D01*
X144375047Y-55263238D02*
X144422666Y-55310857D01*
X144851238Y-56215619D02*
X144851238Y-55215619D01*
X144851238Y-55215619D02*
X145089333Y-55215619D01*
X145089333Y-55215619D02*
X145232190Y-55263238D01*
X145232190Y-55263238D02*
X145327428Y-55358476D01*
X145327428Y-55358476D02*
X145375047Y-55453714D01*
X145375047Y-55453714D02*
X145422666Y-55644190D01*
X145422666Y-55644190D02*
X145422666Y-55787047D01*
X145422666Y-55787047D02*
X145375047Y-55977523D01*
X145375047Y-55977523D02*
X145327428Y-56072761D01*
X145327428Y-56072761D02*
X145232190Y-56168000D01*
X145232190Y-56168000D02*
X145089333Y-56215619D01*
X145089333Y-56215619D02*
X144851238Y-56215619D01*
%TO.C,+BATT*%
X196175571Y-87838666D02*
X196937476Y-87838666D01*
X196556523Y-88219619D02*
X196556523Y-87457714D01*
X197746999Y-87695809D02*
X197889856Y-87743428D01*
X197889856Y-87743428D02*
X197937475Y-87791047D01*
X197937475Y-87791047D02*
X197985094Y-87886285D01*
X197985094Y-87886285D02*
X197985094Y-88029142D01*
X197985094Y-88029142D02*
X197937475Y-88124380D01*
X197937475Y-88124380D02*
X197889856Y-88172000D01*
X197889856Y-88172000D02*
X197794618Y-88219619D01*
X197794618Y-88219619D02*
X197413666Y-88219619D01*
X197413666Y-88219619D02*
X197413666Y-87219619D01*
X197413666Y-87219619D02*
X197746999Y-87219619D01*
X197746999Y-87219619D02*
X197842237Y-87267238D01*
X197842237Y-87267238D02*
X197889856Y-87314857D01*
X197889856Y-87314857D02*
X197937475Y-87410095D01*
X197937475Y-87410095D02*
X197937475Y-87505333D01*
X197937475Y-87505333D02*
X197889856Y-87600571D01*
X197889856Y-87600571D02*
X197842237Y-87648190D01*
X197842237Y-87648190D02*
X197746999Y-87695809D01*
X197746999Y-87695809D02*
X197413666Y-87695809D01*
X198366047Y-87933904D02*
X198842237Y-87933904D01*
X198270809Y-88219619D02*
X198604142Y-87219619D01*
X198604142Y-87219619D02*
X198937475Y-88219619D01*
X199127952Y-87219619D02*
X199699380Y-87219619D01*
X199413666Y-88219619D02*
X199413666Y-87219619D01*
X199889857Y-87219619D02*
X200461285Y-87219619D01*
X200175571Y-88219619D02*
X200175571Y-87219619D01*
%TO.C,SD_CLK*%
X166465571Y-63153000D02*
X166608428Y-63200619D01*
X166608428Y-63200619D02*
X166846523Y-63200619D01*
X166846523Y-63200619D02*
X166941761Y-63153000D01*
X166941761Y-63153000D02*
X166989380Y-63105380D01*
X166989380Y-63105380D02*
X167036999Y-63010142D01*
X167036999Y-63010142D02*
X167036999Y-62914904D01*
X167036999Y-62914904D02*
X166989380Y-62819666D01*
X166989380Y-62819666D02*
X166941761Y-62772047D01*
X166941761Y-62772047D02*
X166846523Y-62724428D01*
X166846523Y-62724428D02*
X166656047Y-62676809D01*
X166656047Y-62676809D02*
X166560809Y-62629190D01*
X166560809Y-62629190D02*
X166513190Y-62581571D01*
X166513190Y-62581571D02*
X166465571Y-62486333D01*
X166465571Y-62486333D02*
X166465571Y-62391095D01*
X166465571Y-62391095D02*
X166513190Y-62295857D01*
X166513190Y-62295857D02*
X166560809Y-62248238D01*
X166560809Y-62248238D02*
X166656047Y-62200619D01*
X166656047Y-62200619D02*
X166894142Y-62200619D01*
X166894142Y-62200619D02*
X167036999Y-62248238D01*
X167465571Y-63200619D02*
X167465571Y-62200619D01*
X167465571Y-62200619D02*
X167703666Y-62200619D01*
X167703666Y-62200619D02*
X167846523Y-62248238D01*
X167846523Y-62248238D02*
X167941761Y-62343476D01*
X167941761Y-62343476D02*
X167989380Y-62438714D01*
X167989380Y-62438714D02*
X168036999Y-62629190D01*
X168036999Y-62629190D02*
X168036999Y-62772047D01*
X168036999Y-62772047D02*
X167989380Y-62962523D01*
X167989380Y-62962523D02*
X167941761Y-63057761D01*
X167941761Y-63057761D02*
X167846523Y-63153000D01*
X167846523Y-63153000D02*
X167703666Y-63200619D01*
X167703666Y-63200619D02*
X167465571Y-63200619D01*
X168227476Y-63295857D02*
X168989380Y-63295857D01*
X169798904Y-63105380D02*
X169751285Y-63153000D01*
X169751285Y-63153000D02*
X169608428Y-63200619D01*
X169608428Y-63200619D02*
X169513190Y-63200619D01*
X169513190Y-63200619D02*
X169370333Y-63153000D01*
X169370333Y-63153000D02*
X169275095Y-63057761D01*
X169275095Y-63057761D02*
X169227476Y-62962523D01*
X169227476Y-62962523D02*
X169179857Y-62772047D01*
X169179857Y-62772047D02*
X169179857Y-62629190D01*
X169179857Y-62629190D02*
X169227476Y-62438714D01*
X169227476Y-62438714D02*
X169275095Y-62343476D01*
X169275095Y-62343476D02*
X169370333Y-62248238D01*
X169370333Y-62248238D02*
X169513190Y-62200619D01*
X169513190Y-62200619D02*
X169608428Y-62200619D01*
X169608428Y-62200619D02*
X169751285Y-62248238D01*
X169751285Y-62248238D02*
X169798904Y-62295857D01*
X170703666Y-63200619D02*
X170227476Y-63200619D01*
X170227476Y-63200619D02*
X170227476Y-62200619D01*
X171037000Y-63200619D02*
X171037000Y-62200619D01*
X171608428Y-63200619D02*
X171179857Y-62629190D01*
X171608428Y-62200619D02*
X171037000Y-62772047D01*
%TO.C,VBUS*%
X138120667Y-56612619D02*
X138454000Y-57612619D01*
X138454000Y-57612619D02*
X138787333Y-56612619D01*
X139454000Y-57088809D02*
X139596857Y-57136428D01*
X139596857Y-57136428D02*
X139644476Y-57184047D01*
X139644476Y-57184047D02*
X139692095Y-57279285D01*
X139692095Y-57279285D02*
X139692095Y-57422142D01*
X139692095Y-57422142D02*
X139644476Y-57517380D01*
X139644476Y-57517380D02*
X139596857Y-57565000D01*
X139596857Y-57565000D02*
X139501619Y-57612619D01*
X139501619Y-57612619D02*
X139120667Y-57612619D01*
X139120667Y-57612619D02*
X139120667Y-56612619D01*
X139120667Y-56612619D02*
X139454000Y-56612619D01*
X139454000Y-56612619D02*
X139549238Y-56660238D01*
X139549238Y-56660238D02*
X139596857Y-56707857D01*
X139596857Y-56707857D02*
X139644476Y-56803095D01*
X139644476Y-56803095D02*
X139644476Y-56898333D01*
X139644476Y-56898333D02*
X139596857Y-56993571D01*
X139596857Y-56993571D02*
X139549238Y-57041190D01*
X139549238Y-57041190D02*
X139454000Y-57088809D01*
X139454000Y-57088809D02*
X139120667Y-57088809D01*
X140120667Y-56612619D02*
X140120667Y-57422142D01*
X140120667Y-57422142D02*
X140168286Y-57517380D01*
X140168286Y-57517380D02*
X140215905Y-57565000D01*
X140215905Y-57565000D02*
X140311143Y-57612619D01*
X140311143Y-57612619D02*
X140501619Y-57612619D01*
X140501619Y-57612619D02*
X140596857Y-57565000D01*
X140596857Y-57565000D02*
X140644476Y-57517380D01*
X140644476Y-57517380D02*
X140692095Y-57422142D01*
X140692095Y-57422142D02*
X140692095Y-56612619D01*
X141120667Y-57565000D02*
X141263524Y-57612619D01*
X141263524Y-57612619D02*
X141501619Y-57612619D01*
X141501619Y-57612619D02*
X141596857Y-57565000D01*
X141596857Y-57565000D02*
X141644476Y-57517380D01*
X141644476Y-57517380D02*
X141692095Y-57422142D01*
X141692095Y-57422142D02*
X141692095Y-57326904D01*
X141692095Y-57326904D02*
X141644476Y-57231666D01*
X141644476Y-57231666D02*
X141596857Y-57184047D01*
X141596857Y-57184047D02*
X141501619Y-57136428D01*
X141501619Y-57136428D02*
X141311143Y-57088809D01*
X141311143Y-57088809D02*
X141215905Y-57041190D01*
X141215905Y-57041190D02*
X141168286Y-56993571D01*
X141168286Y-56993571D02*
X141120667Y-56898333D01*
X141120667Y-56898333D02*
X141120667Y-56803095D01*
X141120667Y-56803095D02*
X141168286Y-56707857D01*
X141168286Y-56707857D02*
X141215905Y-56660238D01*
X141215905Y-56660238D02*
X141311143Y-56612619D01*
X141311143Y-56612619D02*
X141549238Y-56612619D01*
X141549238Y-56612619D02*
X141692095Y-56660238D01*
%TO.C,GND*%
X171704095Y-88791238D02*
X171608857Y-88743619D01*
X171608857Y-88743619D02*
X171466000Y-88743619D01*
X171466000Y-88743619D02*
X171323143Y-88791238D01*
X171323143Y-88791238D02*
X171227905Y-88886476D01*
X171227905Y-88886476D02*
X171180286Y-88981714D01*
X171180286Y-88981714D02*
X171132667Y-89172190D01*
X171132667Y-89172190D02*
X171132667Y-89315047D01*
X171132667Y-89315047D02*
X171180286Y-89505523D01*
X171180286Y-89505523D02*
X171227905Y-89600761D01*
X171227905Y-89600761D02*
X171323143Y-89696000D01*
X171323143Y-89696000D02*
X171466000Y-89743619D01*
X171466000Y-89743619D02*
X171561238Y-89743619D01*
X171561238Y-89743619D02*
X171704095Y-89696000D01*
X171704095Y-89696000D02*
X171751714Y-89648380D01*
X171751714Y-89648380D02*
X171751714Y-89315047D01*
X171751714Y-89315047D02*
X171561238Y-89315047D01*
X172180286Y-89743619D02*
X172180286Y-88743619D01*
X172180286Y-88743619D02*
X172751714Y-89743619D01*
X172751714Y-89743619D02*
X172751714Y-88743619D01*
X173227905Y-89743619D02*
X173227905Y-88743619D01*
X173227905Y-88743619D02*
X173466000Y-88743619D01*
X173466000Y-88743619D02*
X173608857Y-88791238D01*
X173608857Y-88791238D02*
X173704095Y-88886476D01*
X173704095Y-88886476D02*
X173751714Y-88981714D01*
X173751714Y-88981714D02*
X173799333Y-89172190D01*
X173799333Y-89172190D02*
X173799333Y-89315047D01*
X173799333Y-89315047D02*
X173751714Y-89505523D01*
X173751714Y-89505523D02*
X173704095Y-89600761D01*
X173704095Y-89600761D02*
X173608857Y-89696000D01*
X173608857Y-89696000D02*
X173466000Y-89743619D01*
X173466000Y-89743619D02*
X173227905Y-89743619D01*
%TO.C,SD_CMD*%
X147608000Y-67127094D02*
X147655619Y-66984237D01*
X147655619Y-66984237D02*
X147655619Y-66746142D01*
X147655619Y-66746142D02*
X147608000Y-66650904D01*
X147608000Y-66650904D02*
X147560380Y-66603285D01*
X147560380Y-66603285D02*
X147465142Y-66555666D01*
X147465142Y-66555666D02*
X147369904Y-66555666D01*
X147369904Y-66555666D02*
X147274666Y-66603285D01*
X147274666Y-66603285D02*
X147227047Y-66650904D01*
X147227047Y-66650904D02*
X147179428Y-66746142D01*
X147179428Y-66746142D02*
X147131809Y-66936618D01*
X147131809Y-66936618D02*
X147084190Y-67031856D01*
X147084190Y-67031856D02*
X147036571Y-67079475D01*
X147036571Y-67079475D02*
X146941333Y-67127094D01*
X146941333Y-67127094D02*
X146846095Y-67127094D01*
X146846095Y-67127094D02*
X146750857Y-67079475D01*
X146750857Y-67079475D02*
X146703238Y-67031856D01*
X146703238Y-67031856D02*
X146655619Y-66936618D01*
X146655619Y-66936618D02*
X146655619Y-66698523D01*
X146655619Y-66698523D02*
X146703238Y-66555666D01*
X147655619Y-66127094D02*
X146655619Y-66127094D01*
X146655619Y-66127094D02*
X146655619Y-65888999D01*
X146655619Y-65888999D02*
X146703238Y-65746142D01*
X146703238Y-65746142D02*
X146798476Y-65650904D01*
X146798476Y-65650904D02*
X146893714Y-65603285D01*
X146893714Y-65603285D02*
X147084190Y-65555666D01*
X147084190Y-65555666D02*
X147227047Y-65555666D01*
X147227047Y-65555666D02*
X147417523Y-65603285D01*
X147417523Y-65603285D02*
X147512761Y-65650904D01*
X147512761Y-65650904D02*
X147608000Y-65746142D01*
X147608000Y-65746142D02*
X147655619Y-65888999D01*
X147655619Y-65888999D02*
X147655619Y-66127094D01*
X147750857Y-65365190D02*
X147750857Y-64603285D01*
X147560380Y-63793761D02*
X147608000Y-63841380D01*
X147608000Y-63841380D02*
X147655619Y-63984237D01*
X147655619Y-63984237D02*
X147655619Y-64079475D01*
X147655619Y-64079475D02*
X147608000Y-64222332D01*
X147608000Y-64222332D02*
X147512761Y-64317570D01*
X147512761Y-64317570D02*
X147417523Y-64365189D01*
X147417523Y-64365189D02*
X147227047Y-64412808D01*
X147227047Y-64412808D02*
X147084190Y-64412808D01*
X147084190Y-64412808D02*
X146893714Y-64365189D01*
X146893714Y-64365189D02*
X146798476Y-64317570D01*
X146798476Y-64317570D02*
X146703238Y-64222332D01*
X146703238Y-64222332D02*
X146655619Y-64079475D01*
X146655619Y-64079475D02*
X146655619Y-63984237D01*
X146655619Y-63984237D02*
X146703238Y-63841380D01*
X146703238Y-63841380D02*
X146750857Y-63793761D01*
X147655619Y-63365189D02*
X146655619Y-63365189D01*
X146655619Y-63365189D02*
X147369904Y-63031856D01*
X147369904Y-63031856D02*
X146655619Y-62698523D01*
X146655619Y-62698523D02*
X147655619Y-62698523D01*
X147655619Y-62222332D02*
X146655619Y-62222332D01*
X146655619Y-62222332D02*
X146655619Y-61984237D01*
X146655619Y-61984237D02*
X146703238Y-61841380D01*
X146703238Y-61841380D02*
X146798476Y-61746142D01*
X146798476Y-61746142D02*
X146893714Y-61698523D01*
X146893714Y-61698523D02*
X147084190Y-61650904D01*
X147084190Y-61650904D02*
X147227047Y-61650904D01*
X147227047Y-61650904D02*
X147417523Y-61698523D01*
X147417523Y-61698523D02*
X147512761Y-61746142D01*
X147512761Y-61746142D02*
X147608000Y-61841380D01*
X147608000Y-61841380D02*
X147655619Y-61984237D01*
X147655619Y-61984237D02*
X147655619Y-62222332D01*
%TO.C,uC_TX1*%
X175926999Y-64438952D02*
X175926999Y-65105619D01*
X175498428Y-64438952D02*
X175498428Y-64962761D01*
X175498428Y-64962761D02*
X175546047Y-65058000D01*
X175546047Y-65058000D02*
X175641285Y-65105619D01*
X175641285Y-65105619D02*
X175784142Y-65105619D01*
X175784142Y-65105619D02*
X175879380Y-65058000D01*
X175879380Y-65058000D02*
X175926999Y-65010380D01*
X176974618Y-65010380D02*
X176926999Y-65058000D01*
X176926999Y-65058000D02*
X176784142Y-65105619D01*
X176784142Y-65105619D02*
X176688904Y-65105619D01*
X176688904Y-65105619D02*
X176546047Y-65058000D01*
X176546047Y-65058000D02*
X176450809Y-64962761D01*
X176450809Y-64962761D02*
X176403190Y-64867523D01*
X176403190Y-64867523D02*
X176355571Y-64677047D01*
X176355571Y-64677047D02*
X176355571Y-64534190D01*
X176355571Y-64534190D02*
X176403190Y-64343714D01*
X176403190Y-64343714D02*
X176450809Y-64248476D01*
X176450809Y-64248476D02*
X176546047Y-64153238D01*
X176546047Y-64153238D02*
X176688904Y-64105619D01*
X176688904Y-64105619D02*
X176784142Y-64105619D01*
X176784142Y-64105619D02*
X176926999Y-64153238D01*
X176926999Y-64153238D02*
X176974618Y-64200857D01*
X177165095Y-65200857D02*
X177926999Y-65200857D01*
X178022238Y-64105619D02*
X178593666Y-64105619D01*
X178307952Y-65105619D02*
X178307952Y-64105619D01*
X178831762Y-64105619D02*
X179498428Y-65105619D01*
X179498428Y-64105619D02*
X178831762Y-65105619D01*
X180403190Y-65105619D02*
X179831762Y-65105619D01*
X180117476Y-65105619D02*
X180117476Y-64105619D01*
X180117476Y-64105619D02*
X180022238Y-64248476D01*
X180022238Y-64248476D02*
X179927000Y-64343714D01*
X179927000Y-64343714D02*
X179831762Y-64391333D01*
%TO.C,SS1*%
X153422505Y-81009200D02*
X153565362Y-81056819D01*
X153565362Y-81056819D02*
X153803457Y-81056819D01*
X153803457Y-81056819D02*
X153898695Y-81009200D01*
X153898695Y-81009200D02*
X153946314Y-80961580D01*
X153946314Y-80961580D02*
X153993933Y-80866342D01*
X153993933Y-80866342D02*
X153993933Y-80771104D01*
X153993933Y-80771104D02*
X153946314Y-80675866D01*
X153946314Y-80675866D02*
X153898695Y-80628247D01*
X153898695Y-80628247D02*
X153803457Y-80580628D01*
X153803457Y-80580628D02*
X153612981Y-80533009D01*
X153612981Y-80533009D02*
X153517743Y-80485390D01*
X153517743Y-80485390D02*
X153470124Y-80437771D01*
X153470124Y-80437771D02*
X153422505Y-80342533D01*
X153422505Y-80342533D02*
X153422505Y-80247295D01*
X153422505Y-80247295D02*
X153470124Y-80152057D01*
X153470124Y-80152057D02*
X153517743Y-80104438D01*
X153517743Y-80104438D02*
X153612981Y-80056819D01*
X153612981Y-80056819D02*
X153851076Y-80056819D01*
X153851076Y-80056819D02*
X153993933Y-80104438D01*
X154374886Y-81009200D02*
X154517743Y-81056819D01*
X154517743Y-81056819D02*
X154755838Y-81056819D01*
X154755838Y-81056819D02*
X154851076Y-81009200D01*
X154851076Y-81009200D02*
X154898695Y-80961580D01*
X154898695Y-80961580D02*
X154946314Y-80866342D01*
X154946314Y-80866342D02*
X154946314Y-80771104D01*
X154946314Y-80771104D02*
X154898695Y-80675866D01*
X154898695Y-80675866D02*
X154851076Y-80628247D01*
X154851076Y-80628247D02*
X154755838Y-80580628D01*
X154755838Y-80580628D02*
X154565362Y-80533009D01*
X154565362Y-80533009D02*
X154470124Y-80485390D01*
X154470124Y-80485390D02*
X154422505Y-80437771D01*
X154422505Y-80437771D02*
X154374886Y-80342533D01*
X154374886Y-80342533D02*
X154374886Y-80247295D01*
X154374886Y-80247295D02*
X154422505Y-80152057D01*
X154422505Y-80152057D02*
X154470124Y-80104438D01*
X154470124Y-80104438D02*
X154565362Y-80056819D01*
X154565362Y-80056819D02*
X154803457Y-80056819D01*
X154803457Y-80056819D02*
X154946314Y-80104438D01*
X155898695Y-81056819D02*
X155327267Y-81056819D01*
X155612981Y-81056819D02*
X155612981Y-80056819D01*
X155612981Y-80056819D02*
X155517743Y-80199676D01*
X155517743Y-80199676D02*
X155422505Y-80294914D01*
X155422505Y-80294914D02*
X155327267Y-80342533D01*
%TO.C,SCS1*%
X161329905Y-111286000D02*
X161472762Y-111333619D01*
X161472762Y-111333619D02*
X161710857Y-111333619D01*
X161710857Y-111333619D02*
X161806095Y-111286000D01*
X161806095Y-111286000D02*
X161853714Y-111238380D01*
X161853714Y-111238380D02*
X161901333Y-111143142D01*
X161901333Y-111143142D02*
X161901333Y-111047904D01*
X161901333Y-111047904D02*
X161853714Y-110952666D01*
X161853714Y-110952666D02*
X161806095Y-110905047D01*
X161806095Y-110905047D02*
X161710857Y-110857428D01*
X161710857Y-110857428D02*
X161520381Y-110809809D01*
X161520381Y-110809809D02*
X161425143Y-110762190D01*
X161425143Y-110762190D02*
X161377524Y-110714571D01*
X161377524Y-110714571D02*
X161329905Y-110619333D01*
X161329905Y-110619333D02*
X161329905Y-110524095D01*
X161329905Y-110524095D02*
X161377524Y-110428857D01*
X161377524Y-110428857D02*
X161425143Y-110381238D01*
X161425143Y-110381238D02*
X161520381Y-110333619D01*
X161520381Y-110333619D02*
X161758476Y-110333619D01*
X161758476Y-110333619D02*
X161901333Y-110381238D01*
X162901333Y-111238380D02*
X162853714Y-111286000D01*
X162853714Y-111286000D02*
X162710857Y-111333619D01*
X162710857Y-111333619D02*
X162615619Y-111333619D01*
X162615619Y-111333619D02*
X162472762Y-111286000D01*
X162472762Y-111286000D02*
X162377524Y-111190761D01*
X162377524Y-111190761D02*
X162329905Y-111095523D01*
X162329905Y-111095523D02*
X162282286Y-110905047D01*
X162282286Y-110905047D02*
X162282286Y-110762190D01*
X162282286Y-110762190D02*
X162329905Y-110571714D01*
X162329905Y-110571714D02*
X162377524Y-110476476D01*
X162377524Y-110476476D02*
X162472762Y-110381238D01*
X162472762Y-110381238D02*
X162615619Y-110333619D01*
X162615619Y-110333619D02*
X162710857Y-110333619D01*
X162710857Y-110333619D02*
X162853714Y-110381238D01*
X162853714Y-110381238D02*
X162901333Y-110428857D01*
X163282286Y-111286000D02*
X163425143Y-111333619D01*
X163425143Y-111333619D02*
X163663238Y-111333619D01*
X163663238Y-111333619D02*
X163758476Y-111286000D01*
X163758476Y-111286000D02*
X163806095Y-111238380D01*
X163806095Y-111238380D02*
X163853714Y-111143142D01*
X163853714Y-111143142D02*
X163853714Y-111047904D01*
X163853714Y-111047904D02*
X163806095Y-110952666D01*
X163806095Y-110952666D02*
X163758476Y-110905047D01*
X163758476Y-110905047D02*
X163663238Y-110857428D01*
X163663238Y-110857428D02*
X163472762Y-110809809D01*
X163472762Y-110809809D02*
X163377524Y-110762190D01*
X163377524Y-110762190D02*
X163329905Y-110714571D01*
X163329905Y-110714571D02*
X163282286Y-110619333D01*
X163282286Y-110619333D02*
X163282286Y-110524095D01*
X163282286Y-110524095D02*
X163329905Y-110428857D01*
X163329905Y-110428857D02*
X163377524Y-110381238D01*
X163377524Y-110381238D02*
X163472762Y-110333619D01*
X163472762Y-110333619D02*
X163710857Y-110333619D01*
X163710857Y-110333619D02*
X163853714Y-110381238D01*
X164806095Y-111333619D02*
X164234667Y-111333619D01*
X164520381Y-111333619D02*
X164520381Y-110333619D01*
X164520381Y-110333619D02*
X164425143Y-110476476D01*
X164425143Y-110476476D02*
X164329905Y-110571714D01*
X164329905Y-110571714D02*
X164234667Y-110619333D01*
%TO.C,U7*%
X163284795Y-65756619D02*
X163284795Y-66566142D01*
X163284795Y-66566142D02*
X163332414Y-66661380D01*
X163332414Y-66661380D02*
X163380033Y-66709000D01*
X163380033Y-66709000D02*
X163475271Y-66756619D01*
X163475271Y-66756619D02*
X163665747Y-66756619D01*
X163665747Y-66756619D02*
X163760985Y-66709000D01*
X163760985Y-66709000D02*
X163808604Y-66661380D01*
X163808604Y-66661380D02*
X163856223Y-66566142D01*
X163856223Y-66566142D02*
X163856223Y-65756619D01*
X164237176Y-65756619D02*
X164903842Y-65756619D01*
X164903842Y-65756619D02*
X164475271Y-66756619D01*
%TO.C,R5*%
X147579419Y-72744666D02*
X147103228Y-73077999D01*
X147579419Y-73316094D02*
X146579419Y-73316094D01*
X146579419Y-73316094D02*
X146579419Y-72935142D01*
X146579419Y-72935142D02*
X146627038Y-72839904D01*
X146627038Y-72839904D02*
X146674657Y-72792285D01*
X146674657Y-72792285D02*
X146769895Y-72744666D01*
X146769895Y-72744666D02*
X146912752Y-72744666D01*
X146912752Y-72744666D02*
X147007990Y-72792285D01*
X147007990Y-72792285D02*
X147055609Y-72839904D01*
X147055609Y-72839904D02*
X147103228Y-72935142D01*
X147103228Y-72935142D02*
X147103228Y-73316094D01*
X146579419Y-71839904D02*
X146579419Y-72316094D01*
X146579419Y-72316094D02*
X147055609Y-72363713D01*
X147055609Y-72363713D02*
X147007990Y-72316094D01*
X147007990Y-72316094D02*
X146960371Y-72220856D01*
X146960371Y-72220856D02*
X146960371Y-71982761D01*
X146960371Y-71982761D02*
X147007990Y-71887523D01*
X147007990Y-71887523D02*
X147055609Y-71839904D01*
X147055609Y-71839904D02*
X147150847Y-71792285D01*
X147150847Y-71792285D02*
X147388942Y-71792285D01*
X147388942Y-71792285D02*
X147484180Y-71839904D01*
X147484180Y-71839904D02*
X147531800Y-71887523D01*
X147531800Y-71887523D02*
X147579419Y-71982761D01*
X147579419Y-71982761D02*
X147579419Y-72220856D01*
X147579419Y-72220856D02*
X147531800Y-72316094D01*
X147531800Y-72316094D02*
X147484180Y-72363713D01*
%TO.C,uC_RX1*%
X171616952Y-59739952D02*
X171616952Y-60406619D01*
X171188381Y-59739952D02*
X171188381Y-60263761D01*
X171188381Y-60263761D02*
X171236000Y-60359000D01*
X171236000Y-60359000D02*
X171331238Y-60406619D01*
X171331238Y-60406619D02*
X171474095Y-60406619D01*
X171474095Y-60406619D02*
X171569333Y-60359000D01*
X171569333Y-60359000D02*
X171616952Y-60311380D01*
X172664571Y-60311380D02*
X172616952Y-60359000D01*
X172616952Y-60359000D02*
X172474095Y-60406619D01*
X172474095Y-60406619D02*
X172378857Y-60406619D01*
X172378857Y-60406619D02*
X172236000Y-60359000D01*
X172236000Y-60359000D02*
X172140762Y-60263761D01*
X172140762Y-60263761D02*
X172093143Y-60168523D01*
X172093143Y-60168523D02*
X172045524Y-59978047D01*
X172045524Y-59978047D02*
X172045524Y-59835190D01*
X172045524Y-59835190D02*
X172093143Y-59644714D01*
X172093143Y-59644714D02*
X172140762Y-59549476D01*
X172140762Y-59549476D02*
X172236000Y-59454238D01*
X172236000Y-59454238D02*
X172378857Y-59406619D01*
X172378857Y-59406619D02*
X172474095Y-59406619D01*
X172474095Y-59406619D02*
X172616952Y-59454238D01*
X172616952Y-59454238D02*
X172664571Y-59501857D01*
X172855048Y-60501857D02*
X173616952Y-60501857D01*
X174426476Y-60406619D02*
X174093143Y-59930428D01*
X173855048Y-60406619D02*
X173855048Y-59406619D01*
X173855048Y-59406619D02*
X174236000Y-59406619D01*
X174236000Y-59406619D02*
X174331238Y-59454238D01*
X174331238Y-59454238D02*
X174378857Y-59501857D01*
X174378857Y-59501857D02*
X174426476Y-59597095D01*
X174426476Y-59597095D02*
X174426476Y-59739952D01*
X174426476Y-59739952D02*
X174378857Y-59835190D01*
X174378857Y-59835190D02*
X174331238Y-59882809D01*
X174331238Y-59882809D02*
X174236000Y-59930428D01*
X174236000Y-59930428D02*
X173855048Y-59930428D01*
X174759810Y-59406619D02*
X175426476Y-60406619D01*
X175426476Y-59406619D02*
X174759810Y-60406619D01*
X176331238Y-60406619D02*
X175759810Y-60406619D01*
X176045524Y-60406619D02*
X176045524Y-59406619D01*
X176045524Y-59406619D02*
X175950286Y-59549476D01*
X175950286Y-59549476D02*
X175855048Y-59644714D01*
X175855048Y-59644714D02*
X175759810Y-59692333D01*
D12*
%TO.C,J6*%
X168583067Y-58437126D02*
X168583067Y-59344269D01*
X168583067Y-59344269D02*
X168522590Y-59525697D01*
X168522590Y-59525697D02*
X168401638Y-59646650D01*
X168401638Y-59646650D02*
X168220209Y-59707126D01*
X168220209Y-59707126D02*
X168099257Y-59707126D01*
X169732114Y-58437126D02*
X169490209Y-58437126D01*
X169490209Y-58437126D02*
X169369257Y-58497602D01*
X169369257Y-58497602D02*
X169308781Y-58558078D01*
X169308781Y-58558078D02*
X169187828Y-58739507D01*
X169187828Y-58739507D02*
X169127352Y-58981411D01*
X169127352Y-58981411D02*
X169127352Y-59465221D01*
X169127352Y-59465221D02*
X169187828Y-59586173D01*
X169187828Y-59586173D02*
X169248305Y-59646650D01*
X169248305Y-59646650D02*
X169369257Y-59707126D01*
X169369257Y-59707126D02*
X169611162Y-59707126D01*
X169611162Y-59707126D02*
X169732114Y-59646650D01*
X169732114Y-59646650D02*
X169792590Y-59586173D01*
X169792590Y-59586173D02*
X169853067Y-59465221D01*
X169853067Y-59465221D02*
X169853067Y-59162840D01*
X169853067Y-59162840D02*
X169792590Y-59041888D01*
X169792590Y-59041888D02*
X169732114Y-58981411D01*
X169732114Y-58981411D02*
X169611162Y-58920935D01*
X169611162Y-58920935D02*
X169369257Y-58920935D01*
X169369257Y-58920935D02*
X169248305Y-58981411D01*
X169248305Y-58981411D02*
X169187828Y-59041888D01*
X169187828Y-59041888D02*
X169127352Y-59162840D01*
%TO.C,Y1*%
X146588238Y-99804764D02*
X146588238Y-100409526D01*
X146164905Y-99139526D02*
X146588238Y-99804764D01*
X146588238Y-99804764D02*
X147011572Y-99139526D01*
X148100143Y-100409526D02*
X147374428Y-100409526D01*
X147737285Y-100409526D02*
X147737285Y-99139526D01*
X147737285Y-99139526D02*
X147616333Y-99320954D01*
X147616333Y-99320954D02*
X147495381Y-99441907D01*
X147495381Y-99441907D02*
X147374428Y-99502383D01*
D11*
%TO.C,MISO1*%
X150475019Y-83480018D02*
X149475019Y-83480018D01*
X149475019Y-83480018D02*
X150189304Y-83146685D01*
X150189304Y-83146685D02*
X149475019Y-82813352D01*
X149475019Y-82813352D02*
X150475019Y-82813352D01*
X150475019Y-82337161D02*
X149475019Y-82337161D01*
X150427400Y-81908590D02*
X150475019Y-81765733D01*
X150475019Y-81765733D02*
X150475019Y-81527638D01*
X150475019Y-81527638D02*
X150427400Y-81432400D01*
X150427400Y-81432400D02*
X150379780Y-81384781D01*
X150379780Y-81384781D02*
X150284542Y-81337162D01*
X150284542Y-81337162D02*
X150189304Y-81337162D01*
X150189304Y-81337162D02*
X150094066Y-81384781D01*
X150094066Y-81384781D02*
X150046447Y-81432400D01*
X150046447Y-81432400D02*
X149998828Y-81527638D01*
X149998828Y-81527638D02*
X149951209Y-81718114D01*
X149951209Y-81718114D02*
X149903590Y-81813352D01*
X149903590Y-81813352D02*
X149855971Y-81860971D01*
X149855971Y-81860971D02*
X149760733Y-81908590D01*
X149760733Y-81908590D02*
X149665495Y-81908590D01*
X149665495Y-81908590D02*
X149570257Y-81860971D01*
X149570257Y-81860971D02*
X149522638Y-81813352D01*
X149522638Y-81813352D02*
X149475019Y-81718114D01*
X149475019Y-81718114D02*
X149475019Y-81480019D01*
X149475019Y-81480019D02*
X149522638Y-81337162D01*
X149475019Y-80718114D02*
X149475019Y-80527638D01*
X149475019Y-80527638D02*
X149522638Y-80432400D01*
X149522638Y-80432400D02*
X149617876Y-80337162D01*
X149617876Y-80337162D02*
X149808352Y-80289543D01*
X149808352Y-80289543D02*
X150141685Y-80289543D01*
X150141685Y-80289543D02*
X150332161Y-80337162D01*
X150332161Y-80337162D02*
X150427400Y-80432400D01*
X150427400Y-80432400D02*
X150475019Y-80527638D01*
X150475019Y-80527638D02*
X150475019Y-80718114D01*
X150475019Y-80718114D02*
X150427400Y-80813352D01*
X150427400Y-80813352D02*
X150332161Y-80908590D01*
X150332161Y-80908590D02*
X150141685Y-80956209D01*
X150141685Y-80956209D02*
X149808352Y-80956209D01*
X149808352Y-80956209D02*
X149617876Y-80908590D01*
X149617876Y-80908590D02*
X149522638Y-80813352D01*
X149522638Y-80813352D02*
X149475019Y-80718114D01*
X150475019Y-79337162D02*
X150475019Y-79908590D01*
X150475019Y-79622876D02*
X149475019Y-79622876D01*
X149475019Y-79622876D02*
X149617876Y-79718114D01*
X149617876Y-79718114D02*
X149713114Y-79813352D01*
X149713114Y-79813352D02*
X149760733Y-79908590D01*
%TO.C,R8*%
X167467619Y-85637666D02*
X166991428Y-85970999D01*
X167467619Y-86209094D02*
X166467619Y-86209094D01*
X166467619Y-86209094D02*
X166467619Y-85828142D01*
X166467619Y-85828142D02*
X166515238Y-85732904D01*
X166515238Y-85732904D02*
X166562857Y-85685285D01*
X166562857Y-85685285D02*
X166658095Y-85637666D01*
X166658095Y-85637666D02*
X166800952Y-85637666D01*
X166800952Y-85637666D02*
X166896190Y-85685285D01*
X166896190Y-85685285D02*
X166943809Y-85732904D01*
X166943809Y-85732904D02*
X166991428Y-85828142D01*
X166991428Y-85828142D02*
X166991428Y-86209094D01*
X166896190Y-85066237D02*
X166848571Y-85161475D01*
X166848571Y-85161475D02*
X166800952Y-85209094D01*
X166800952Y-85209094D02*
X166705714Y-85256713D01*
X166705714Y-85256713D02*
X166658095Y-85256713D01*
X166658095Y-85256713D02*
X166562857Y-85209094D01*
X166562857Y-85209094D02*
X166515238Y-85161475D01*
X166515238Y-85161475D02*
X166467619Y-85066237D01*
X166467619Y-85066237D02*
X166467619Y-84875761D01*
X166467619Y-84875761D02*
X166515238Y-84780523D01*
X166515238Y-84780523D02*
X166562857Y-84732904D01*
X166562857Y-84732904D02*
X166658095Y-84685285D01*
X166658095Y-84685285D02*
X166705714Y-84685285D01*
X166705714Y-84685285D02*
X166800952Y-84732904D01*
X166800952Y-84732904D02*
X166848571Y-84780523D01*
X166848571Y-84780523D02*
X166896190Y-84875761D01*
X166896190Y-84875761D02*
X166896190Y-85066237D01*
X166896190Y-85066237D02*
X166943809Y-85161475D01*
X166943809Y-85161475D02*
X166991428Y-85209094D01*
X166991428Y-85209094D02*
X167086666Y-85256713D01*
X167086666Y-85256713D02*
X167277142Y-85256713D01*
X167277142Y-85256713D02*
X167372380Y-85209094D01*
X167372380Y-85209094D02*
X167420000Y-85161475D01*
X167420000Y-85161475D02*
X167467619Y-85066237D01*
X167467619Y-85066237D02*
X167467619Y-84875761D01*
X167467619Y-84875761D02*
X167420000Y-84780523D01*
X167420000Y-84780523D02*
X167372380Y-84732904D01*
X167372380Y-84732904D02*
X167277142Y-84685285D01*
X167277142Y-84685285D02*
X167086666Y-84685285D01*
X167086666Y-84685285D02*
X166991428Y-84732904D01*
X166991428Y-84732904D02*
X166943809Y-84780523D01*
X166943809Y-84780523D02*
X166896190Y-84875761D01*
%TO.C,J3*%
X142435428Y-65458999D02*
X142006857Y-65458999D01*
X142006857Y-65458999D02*
X141921142Y-65430428D01*
X141921142Y-65430428D02*
X141864000Y-65373285D01*
X141864000Y-65373285D02*
X141835428Y-65287571D01*
X141835428Y-65287571D02*
X141835428Y-65230428D01*
X142435428Y-65687571D02*
X142435428Y-66058999D01*
X142435428Y-66058999D02*
X142206857Y-65858999D01*
X142206857Y-65858999D02*
X142206857Y-65944714D01*
X142206857Y-65944714D02*
X142178285Y-66001857D01*
X142178285Y-66001857D02*
X142149714Y-66030428D01*
X142149714Y-66030428D02*
X142092571Y-66058999D01*
X142092571Y-66058999D02*
X141949714Y-66058999D01*
X141949714Y-66058999D02*
X141892571Y-66030428D01*
X141892571Y-66030428D02*
X141864000Y-66001857D01*
X141864000Y-66001857D02*
X141835428Y-65944714D01*
X141835428Y-65944714D02*
X141835428Y-65773285D01*
X141835428Y-65773285D02*
X141864000Y-65716142D01*
X141864000Y-65716142D02*
X141892571Y-65687571D01*
%TO.C,R9*%
X140924619Y-98337666D02*
X140448428Y-98670999D01*
X140924619Y-98909094D02*
X139924619Y-98909094D01*
X139924619Y-98909094D02*
X139924619Y-98528142D01*
X139924619Y-98528142D02*
X139972238Y-98432904D01*
X139972238Y-98432904D02*
X140019857Y-98385285D01*
X140019857Y-98385285D02*
X140115095Y-98337666D01*
X140115095Y-98337666D02*
X140257952Y-98337666D01*
X140257952Y-98337666D02*
X140353190Y-98385285D01*
X140353190Y-98385285D02*
X140400809Y-98432904D01*
X140400809Y-98432904D02*
X140448428Y-98528142D01*
X140448428Y-98528142D02*
X140448428Y-98909094D01*
X140924619Y-97861475D02*
X140924619Y-97670999D01*
X140924619Y-97670999D02*
X140877000Y-97575761D01*
X140877000Y-97575761D02*
X140829380Y-97528142D01*
X140829380Y-97528142D02*
X140686523Y-97432904D01*
X140686523Y-97432904D02*
X140496047Y-97385285D01*
X140496047Y-97385285D02*
X140115095Y-97385285D01*
X140115095Y-97385285D02*
X140019857Y-97432904D01*
X140019857Y-97432904D02*
X139972238Y-97480523D01*
X139972238Y-97480523D02*
X139924619Y-97575761D01*
X139924619Y-97575761D02*
X139924619Y-97766237D01*
X139924619Y-97766237D02*
X139972238Y-97861475D01*
X139972238Y-97861475D02*
X140019857Y-97909094D01*
X140019857Y-97909094D02*
X140115095Y-97956713D01*
X140115095Y-97956713D02*
X140353190Y-97956713D01*
X140353190Y-97956713D02*
X140448428Y-97909094D01*
X140448428Y-97909094D02*
X140496047Y-97861475D01*
X140496047Y-97861475D02*
X140543666Y-97766237D01*
X140543666Y-97766237D02*
X140543666Y-97575761D01*
X140543666Y-97575761D02*
X140496047Y-97480523D01*
X140496047Y-97480523D02*
X140448428Y-97432904D01*
X140448428Y-97432904D02*
X140353190Y-97385285D01*
%TO.C,D1*%
X139908619Y-77354607D02*
X138908619Y-77354607D01*
X138908619Y-77354607D02*
X138908619Y-77116512D01*
X138908619Y-77116512D02*
X138956238Y-76973655D01*
X138956238Y-76973655D02*
X139051476Y-76878417D01*
X139051476Y-76878417D02*
X139146714Y-76830798D01*
X139146714Y-76830798D02*
X139337190Y-76783179D01*
X139337190Y-76783179D02*
X139480047Y-76783179D01*
X139480047Y-76783179D02*
X139670523Y-76830798D01*
X139670523Y-76830798D02*
X139765761Y-76878417D01*
X139765761Y-76878417D02*
X139861000Y-76973655D01*
X139861000Y-76973655D02*
X139908619Y-77116512D01*
X139908619Y-77116512D02*
X139908619Y-77354607D01*
X139908619Y-75830798D02*
X139908619Y-76402226D01*
X139908619Y-76116512D02*
X138908619Y-76116512D01*
X138908619Y-76116512D02*
X139051476Y-76211750D01*
X139051476Y-76211750D02*
X139146714Y-76306988D01*
X139146714Y-76306988D02*
X139194333Y-76402226D01*
%TO.C,C18*%
X166991380Y-77985857D02*
X167039000Y-78033476D01*
X167039000Y-78033476D02*
X167086619Y-78176333D01*
X167086619Y-78176333D02*
X167086619Y-78271571D01*
X167086619Y-78271571D02*
X167039000Y-78414428D01*
X167039000Y-78414428D02*
X166943761Y-78509666D01*
X166943761Y-78509666D02*
X166848523Y-78557285D01*
X166848523Y-78557285D02*
X166658047Y-78604904D01*
X166658047Y-78604904D02*
X166515190Y-78604904D01*
X166515190Y-78604904D02*
X166324714Y-78557285D01*
X166324714Y-78557285D02*
X166229476Y-78509666D01*
X166229476Y-78509666D02*
X166134238Y-78414428D01*
X166134238Y-78414428D02*
X166086619Y-78271571D01*
X166086619Y-78271571D02*
X166086619Y-78176333D01*
X166086619Y-78176333D02*
X166134238Y-78033476D01*
X166134238Y-78033476D02*
X166181857Y-77985857D01*
X167086619Y-77033476D02*
X167086619Y-77604904D01*
X167086619Y-77319190D02*
X166086619Y-77319190D01*
X166086619Y-77319190D02*
X166229476Y-77414428D01*
X166229476Y-77414428D02*
X166324714Y-77509666D01*
X166324714Y-77509666D02*
X166372333Y-77604904D01*
X166515190Y-76462047D02*
X166467571Y-76557285D01*
X166467571Y-76557285D02*
X166419952Y-76604904D01*
X166419952Y-76604904D02*
X166324714Y-76652523D01*
X166324714Y-76652523D02*
X166277095Y-76652523D01*
X166277095Y-76652523D02*
X166181857Y-76604904D01*
X166181857Y-76604904D02*
X166134238Y-76557285D01*
X166134238Y-76557285D02*
X166086619Y-76462047D01*
X166086619Y-76462047D02*
X166086619Y-76271571D01*
X166086619Y-76271571D02*
X166134238Y-76176333D01*
X166134238Y-76176333D02*
X166181857Y-76128714D01*
X166181857Y-76128714D02*
X166277095Y-76081095D01*
X166277095Y-76081095D02*
X166324714Y-76081095D01*
X166324714Y-76081095D02*
X166419952Y-76128714D01*
X166419952Y-76128714D02*
X166467571Y-76176333D01*
X166467571Y-76176333D02*
X166515190Y-76271571D01*
X166515190Y-76271571D02*
X166515190Y-76462047D01*
X166515190Y-76462047D02*
X166562809Y-76557285D01*
X166562809Y-76557285D02*
X166610428Y-76604904D01*
X166610428Y-76604904D02*
X166705666Y-76652523D01*
X166705666Y-76652523D02*
X166896142Y-76652523D01*
X166896142Y-76652523D02*
X166991380Y-76604904D01*
X166991380Y-76604904D02*
X167039000Y-76557285D01*
X167039000Y-76557285D02*
X167086619Y-76462047D01*
X167086619Y-76462047D02*
X167086619Y-76271571D01*
X167086619Y-76271571D02*
X167039000Y-76176333D01*
X167039000Y-76176333D02*
X166991380Y-76128714D01*
X166991380Y-76128714D02*
X166896142Y-76081095D01*
X166896142Y-76081095D02*
X166705666Y-76081095D01*
X166705666Y-76081095D02*
X166610428Y-76128714D01*
X166610428Y-76128714D02*
X166562809Y-76176333D01*
X166562809Y-76176333D02*
X166515190Y-76271571D01*
%TO.C,C1*%
X159244380Y-72937666D02*
X159292000Y-72985285D01*
X159292000Y-72985285D02*
X159339619Y-73128142D01*
X159339619Y-73128142D02*
X159339619Y-73223380D01*
X159339619Y-73223380D02*
X159292000Y-73366237D01*
X159292000Y-73366237D02*
X159196761Y-73461475D01*
X159196761Y-73461475D02*
X159101523Y-73509094D01*
X159101523Y-73509094D02*
X158911047Y-73556713D01*
X158911047Y-73556713D02*
X158768190Y-73556713D01*
X158768190Y-73556713D02*
X158577714Y-73509094D01*
X158577714Y-73509094D02*
X158482476Y-73461475D01*
X158482476Y-73461475D02*
X158387238Y-73366237D01*
X158387238Y-73366237D02*
X158339619Y-73223380D01*
X158339619Y-73223380D02*
X158339619Y-73128142D01*
X158339619Y-73128142D02*
X158387238Y-72985285D01*
X158387238Y-72985285D02*
X158434857Y-72937666D01*
X159339619Y-71985285D02*
X159339619Y-72556713D01*
X159339619Y-72270999D02*
X158339619Y-72270999D01*
X158339619Y-72270999D02*
X158482476Y-72366237D01*
X158482476Y-72366237D02*
X158577714Y-72461475D01*
X158577714Y-72461475D02*
X158625333Y-72556713D01*
D12*
%TO.C,J5*%
X188399067Y-58314726D02*
X188399067Y-59221869D01*
X188399067Y-59221869D02*
X188338590Y-59403297D01*
X188338590Y-59403297D02*
X188217638Y-59524250D01*
X188217638Y-59524250D02*
X188036209Y-59584726D01*
X188036209Y-59584726D02*
X187915257Y-59584726D01*
X189608590Y-58314726D02*
X189003828Y-58314726D01*
X189003828Y-58314726D02*
X188943352Y-58919488D01*
X188943352Y-58919488D02*
X189003828Y-58859011D01*
X189003828Y-58859011D02*
X189124781Y-58798535D01*
X189124781Y-58798535D02*
X189427162Y-58798535D01*
X189427162Y-58798535D02*
X189548114Y-58859011D01*
X189548114Y-58859011D02*
X189608590Y-58919488D01*
X189608590Y-58919488D02*
X189669067Y-59040440D01*
X189669067Y-59040440D02*
X189669067Y-59342821D01*
X189669067Y-59342821D02*
X189608590Y-59463773D01*
X189608590Y-59463773D02*
X189548114Y-59524250D01*
X189548114Y-59524250D02*
X189427162Y-59584726D01*
X189427162Y-59584726D02*
X189124781Y-59584726D01*
X189124781Y-59584726D02*
X189003828Y-59524250D01*
X189003828Y-59524250D02*
X188943352Y-59463773D01*
D11*
%TO.C,R12*%
X167340619Y-90558857D02*
X166864428Y-90892190D01*
X167340619Y-91130285D02*
X166340619Y-91130285D01*
X166340619Y-91130285D02*
X166340619Y-90749333D01*
X166340619Y-90749333D02*
X166388238Y-90654095D01*
X166388238Y-90654095D02*
X166435857Y-90606476D01*
X166435857Y-90606476D02*
X166531095Y-90558857D01*
X166531095Y-90558857D02*
X166673952Y-90558857D01*
X166673952Y-90558857D02*
X166769190Y-90606476D01*
X166769190Y-90606476D02*
X166816809Y-90654095D01*
X166816809Y-90654095D02*
X166864428Y-90749333D01*
X166864428Y-90749333D02*
X166864428Y-91130285D01*
X167340619Y-89606476D02*
X167340619Y-90177904D01*
X167340619Y-89892190D02*
X166340619Y-89892190D01*
X166340619Y-89892190D02*
X166483476Y-89987428D01*
X166483476Y-89987428D02*
X166578714Y-90082666D01*
X166578714Y-90082666D02*
X166626333Y-90177904D01*
X166435857Y-89225523D02*
X166388238Y-89177904D01*
X166388238Y-89177904D02*
X166340619Y-89082666D01*
X166340619Y-89082666D02*
X166340619Y-88844571D01*
X166340619Y-88844571D02*
X166388238Y-88749333D01*
X166388238Y-88749333D02*
X166435857Y-88701714D01*
X166435857Y-88701714D02*
X166531095Y-88654095D01*
X166531095Y-88654095D02*
X166626333Y-88654095D01*
X166626333Y-88654095D02*
X166769190Y-88701714D01*
X166769190Y-88701714D02*
X167340619Y-89273142D01*
X167340619Y-89273142D02*
X167340619Y-88654095D01*
%TO.C,3V3*%
X147986905Y-70709619D02*
X148605952Y-70709619D01*
X148605952Y-70709619D02*
X148272619Y-71090571D01*
X148272619Y-71090571D02*
X148415476Y-71090571D01*
X148415476Y-71090571D02*
X148510714Y-71138190D01*
X148510714Y-71138190D02*
X148558333Y-71185809D01*
X148558333Y-71185809D02*
X148605952Y-71281047D01*
X148605952Y-71281047D02*
X148605952Y-71519142D01*
X148605952Y-71519142D02*
X148558333Y-71614380D01*
X148558333Y-71614380D02*
X148510714Y-71662000D01*
X148510714Y-71662000D02*
X148415476Y-71709619D01*
X148415476Y-71709619D02*
X148129762Y-71709619D01*
X148129762Y-71709619D02*
X148034524Y-71662000D01*
X148034524Y-71662000D02*
X147986905Y-71614380D01*
X148891667Y-70709619D02*
X149225000Y-71709619D01*
X149225000Y-71709619D02*
X149558333Y-70709619D01*
X149796429Y-70709619D02*
X150415476Y-70709619D01*
X150415476Y-70709619D02*
X150082143Y-71090571D01*
X150082143Y-71090571D02*
X150225000Y-71090571D01*
X150225000Y-71090571D02*
X150320238Y-71138190D01*
X150320238Y-71138190D02*
X150367857Y-71185809D01*
X150367857Y-71185809D02*
X150415476Y-71281047D01*
X150415476Y-71281047D02*
X150415476Y-71519142D01*
X150415476Y-71519142D02*
X150367857Y-71614380D01*
X150367857Y-71614380D02*
X150320238Y-71662000D01*
X150320238Y-71662000D02*
X150225000Y-71709619D01*
X150225000Y-71709619D02*
X149939286Y-71709619D01*
X149939286Y-71709619D02*
X149844048Y-71662000D01*
X149844048Y-71662000D02*
X149796429Y-71614380D01*
%TO.C,D2*%
X140543619Y-72366094D02*
X139543619Y-72366094D01*
X139543619Y-72366094D02*
X139543619Y-72127999D01*
X139543619Y-72127999D02*
X139591238Y-71985142D01*
X139591238Y-71985142D02*
X139686476Y-71889904D01*
X139686476Y-71889904D02*
X139781714Y-71842285D01*
X139781714Y-71842285D02*
X139972190Y-71794666D01*
X139972190Y-71794666D02*
X140115047Y-71794666D01*
X140115047Y-71794666D02*
X140305523Y-71842285D01*
X140305523Y-71842285D02*
X140400761Y-71889904D01*
X140400761Y-71889904D02*
X140496000Y-71985142D01*
X140496000Y-71985142D02*
X140543619Y-72127999D01*
X140543619Y-72127999D02*
X140543619Y-72366094D01*
X139638857Y-71413713D02*
X139591238Y-71366094D01*
X139591238Y-71366094D02*
X139543619Y-71270856D01*
X139543619Y-71270856D02*
X139543619Y-71032761D01*
X139543619Y-71032761D02*
X139591238Y-70937523D01*
X139591238Y-70937523D02*
X139638857Y-70889904D01*
X139638857Y-70889904D02*
X139734095Y-70842285D01*
X139734095Y-70842285D02*
X139829333Y-70842285D01*
X139829333Y-70842285D02*
X139972190Y-70889904D01*
X139972190Y-70889904D02*
X140543619Y-71461332D01*
X140543619Y-71461332D02*
X140543619Y-70842285D01*
%TO.C,C4*%
X154392333Y-106920380D02*
X154344714Y-106968000D01*
X154344714Y-106968000D02*
X154201857Y-107015619D01*
X154201857Y-107015619D02*
X154106619Y-107015619D01*
X154106619Y-107015619D02*
X153963762Y-106968000D01*
X153963762Y-106968000D02*
X153868524Y-106872761D01*
X153868524Y-106872761D02*
X153820905Y-106777523D01*
X153820905Y-106777523D02*
X153773286Y-106587047D01*
X153773286Y-106587047D02*
X153773286Y-106444190D01*
X153773286Y-106444190D02*
X153820905Y-106253714D01*
X153820905Y-106253714D02*
X153868524Y-106158476D01*
X153868524Y-106158476D02*
X153963762Y-106063238D01*
X153963762Y-106063238D02*
X154106619Y-106015619D01*
X154106619Y-106015619D02*
X154201857Y-106015619D01*
X154201857Y-106015619D02*
X154344714Y-106063238D01*
X154344714Y-106063238D02*
X154392333Y-106110857D01*
X155249476Y-106348952D02*
X155249476Y-107015619D01*
X155011381Y-105968000D02*
X154773286Y-106682285D01*
X154773286Y-106682285D02*
X155392333Y-106682285D01*
%TO.C,H1*%
X199771095Y-57231619D02*
X199771095Y-56231619D01*
X199771095Y-56707809D02*
X200342523Y-56707809D01*
X200342523Y-57231619D02*
X200342523Y-56231619D01*
X201342523Y-57231619D02*
X200771095Y-57231619D01*
X201056809Y-57231619D02*
X201056809Y-56231619D01*
X201056809Y-56231619D02*
X200961571Y-56374476D01*
X200961571Y-56374476D02*
X200866333Y-56469714D01*
X200866333Y-56469714D02*
X200771095Y-56517333D01*
%TO.C,R4*%
X149058333Y-66375619D02*
X148725000Y-65899428D01*
X148486905Y-66375619D02*
X148486905Y-65375619D01*
X148486905Y-65375619D02*
X148867857Y-65375619D01*
X148867857Y-65375619D02*
X148963095Y-65423238D01*
X148963095Y-65423238D02*
X149010714Y-65470857D01*
X149010714Y-65470857D02*
X149058333Y-65566095D01*
X149058333Y-65566095D02*
X149058333Y-65708952D01*
X149058333Y-65708952D02*
X149010714Y-65804190D01*
X149010714Y-65804190D02*
X148963095Y-65851809D01*
X148963095Y-65851809D02*
X148867857Y-65899428D01*
X148867857Y-65899428D02*
X148486905Y-65899428D01*
X149915476Y-65708952D02*
X149915476Y-66375619D01*
X149677381Y-65328000D02*
X149439286Y-66042285D01*
X149439286Y-66042285D02*
X150058333Y-66042285D01*
%TO.C,U5*%
X142337619Y-85597904D02*
X143147142Y-85597904D01*
X143147142Y-85597904D02*
X143242380Y-85550285D01*
X143242380Y-85550285D02*
X143290000Y-85502666D01*
X143290000Y-85502666D02*
X143337619Y-85407428D01*
X143337619Y-85407428D02*
X143337619Y-85216952D01*
X143337619Y-85216952D02*
X143290000Y-85121714D01*
X143290000Y-85121714D02*
X143242380Y-85074095D01*
X143242380Y-85074095D02*
X143147142Y-85026476D01*
X143147142Y-85026476D02*
X142337619Y-85026476D01*
X142337619Y-84074095D02*
X142337619Y-84550285D01*
X142337619Y-84550285D02*
X142813809Y-84597904D01*
X142813809Y-84597904D02*
X142766190Y-84550285D01*
X142766190Y-84550285D02*
X142718571Y-84455047D01*
X142718571Y-84455047D02*
X142718571Y-84216952D01*
X142718571Y-84216952D02*
X142766190Y-84121714D01*
X142766190Y-84121714D02*
X142813809Y-84074095D01*
X142813809Y-84074095D02*
X142909047Y-84026476D01*
X142909047Y-84026476D02*
X143147142Y-84026476D01*
X143147142Y-84026476D02*
X143242380Y-84074095D01*
X143242380Y-84074095D02*
X143290000Y-84121714D01*
X143290000Y-84121714D02*
X143337619Y-84216952D01*
X143337619Y-84216952D02*
X143337619Y-84455047D01*
X143337619Y-84455047D02*
X143290000Y-84550285D01*
X143290000Y-84550285D02*
X143242380Y-84597904D01*
X136537819Y-88639649D02*
X136775914Y-88639649D01*
X136680676Y-88877744D02*
X136775914Y-88639649D01*
X136775914Y-88639649D02*
X136680676Y-88401554D01*
X136966390Y-88782506D02*
X136775914Y-88639649D01*
X136775914Y-88639649D02*
X136966390Y-88496792D01*
X136537819Y-88639649D02*
X136775914Y-88639649D01*
X136680676Y-88877744D02*
X136775914Y-88639649D01*
X136775914Y-88639649D02*
X136680676Y-88401554D01*
X136966390Y-88782506D02*
X136775914Y-88639649D01*
X136775914Y-88639649D02*
X136966390Y-88496792D01*
%TO.C,C13*%
X138898980Y-99321857D02*
X138946600Y-99369476D01*
X138946600Y-99369476D02*
X138994219Y-99512333D01*
X138994219Y-99512333D02*
X138994219Y-99607571D01*
X138994219Y-99607571D02*
X138946600Y-99750428D01*
X138946600Y-99750428D02*
X138851361Y-99845666D01*
X138851361Y-99845666D02*
X138756123Y-99893285D01*
X138756123Y-99893285D02*
X138565647Y-99940904D01*
X138565647Y-99940904D02*
X138422790Y-99940904D01*
X138422790Y-99940904D02*
X138232314Y-99893285D01*
X138232314Y-99893285D02*
X138137076Y-99845666D01*
X138137076Y-99845666D02*
X138041838Y-99750428D01*
X138041838Y-99750428D02*
X137994219Y-99607571D01*
X137994219Y-99607571D02*
X137994219Y-99512333D01*
X137994219Y-99512333D02*
X138041838Y-99369476D01*
X138041838Y-99369476D02*
X138089457Y-99321857D01*
X138994219Y-98369476D02*
X138994219Y-98940904D01*
X138994219Y-98655190D02*
X137994219Y-98655190D01*
X137994219Y-98655190D02*
X138137076Y-98750428D01*
X138137076Y-98750428D02*
X138232314Y-98845666D01*
X138232314Y-98845666D02*
X138279933Y-98940904D01*
X137994219Y-98036142D02*
X137994219Y-97417095D01*
X137994219Y-97417095D02*
X138375171Y-97750428D01*
X138375171Y-97750428D02*
X138375171Y-97607571D01*
X138375171Y-97607571D02*
X138422790Y-97512333D01*
X138422790Y-97512333D02*
X138470409Y-97464714D01*
X138470409Y-97464714D02*
X138565647Y-97417095D01*
X138565647Y-97417095D02*
X138803742Y-97417095D01*
X138803742Y-97417095D02*
X138898980Y-97464714D01*
X138898980Y-97464714D02*
X138946600Y-97512333D01*
X138946600Y-97512333D02*
X138994219Y-97607571D01*
X138994219Y-97607571D02*
X138994219Y-97893285D01*
X138994219Y-97893285D02*
X138946600Y-97988523D01*
X138946600Y-97988523D02*
X138898980Y-98036142D01*
%TO.C,U2*%
X167894095Y-92553619D02*
X167894095Y-93363142D01*
X167894095Y-93363142D02*
X167941714Y-93458380D01*
X167941714Y-93458380D02*
X167989333Y-93506000D01*
X167989333Y-93506000D02*
X168084571Y-93553619D01*
X168084571Y-93553619D02*
X168275047Y-93553619D01*
X168275047Y-93553619D02*
X168370285Y-93506000D01*
X168370285Y-93506000D02*
X168417904Y-93458380D01*
X168417904Y-93458380D02*
X168465523Y-93363142D01*
X168465523Y-93363142D02*
X168465523Y-92553619D01*
X168894095Y-92648857D02*
X168941714Y-92601238D01*
X168941714Y-92601238D02*
X169036952Y-92553619D01*
X169036952Y-92553619D02*
X169275047Y-92553619D01*
X169275047Y-92553619D02*
X169370285Y-92601238D01*
X169370285Y-92601238D02*
X169417904Y-92648857D01*
X169417904Y-92648857D02*
X169465523Y-92744095D01*
X169465523Y-92744095D02*
X169465523Y-92839333D01*
X169465523Y-92839333D02*
X169417904Y-92982190D01*
X169417904Y-92982190D02*
X168846476Y-93553619D01*
X168846476Y-93553619D02*
X169465523Y-93553619D01*
%TO.C,C2*%
X159472333Y-77837380D02*
X159424714Y-77885000D01*
X159424714Y-77885000D02*
X159281857Y-77932619D01*
X159281857Y-77932619D02*
X159186619Y-77932619D01*
X159186619Y-77932619D02*
X159043762Y-77885000D01*
X159043762Y-77885000D02*
X158948524Y-77789761D01*
X158948524Y-77789761D02*
X158900905Y-77694523D01*
X158900905Y-77694523D02*
X158853286Y-77504047D01*
X158853286Y-77504047D02*
X158853286Y-77361190D01*
X158853286Y-77361190D02*
X158900905Y-77170714D01*
X158900905Y-77170714D02*
X158948524Y-77075476D01*
X158948524Y-77075476D02*
X159043762Y-76980238D01*
X159043762Y-76980238D02*
X159186619Y-76932619D01*
X159186619Y-76932619D02*
X159281857Y-76932619D01*
X159281857Y-76932619D02*
X159424714Y-76980238D01*
X159424714Y-76980238D02*
X159472333Y-77027857D01*
X159853286Y-77027857D02*
X159900905Y-76980238D01*
X159900905Y-76980238D02*
X159996143Y-76932619D01*
X159996143Y-76932619D02*
X160234238Y-76932619D01*
X160234238Y-76932619D02*
X160329476Y-76980238D01*
X160329476Y-76980238D02*
X160377095Y-77027857D01*
X160377095Y-77027857D02*
X160424714Y-77123095D01*
X160424714Y-77123095D02*
X160424714Y-77218333D01*
X160424714Y-77218333D02*
X160377095Y-77361190D01*
X160377095Y-77361190D02*
X159805667Y-77932619D01*
X159805667Y-77932619D02*
X160424714Y-77932619D01*
%TO.C,R10*%
X142931219Y-99319957D02*
X142455028Y-99653290D01*
X142931219Y-99891385D02*
X141931219Y-99891385D01*
X141931219Y-99891385D02*
X141931219Y-99510433D01*
X141931219Y-99510433D02*
X141978838Y-99415195D01*
X141978838Y-99415195D02*
X142026457Y-99367576D01*
X142026457Y-99367576D02*
X142121695Y-99319957D01*
X142121695Y-99319957D02*
X142264552Y-99319957D01*
X142264552Y-99319957D02*
X142359790Y-99367576D01*
X142359790Y-99367576D02*
X142407409Y-99415195D01*
X142407409Y-99415195D02*
X142455028Y-99510433D01*
X142455028Y-99510433D02*
X142455028Y-99891385D01*
X142931219Y-98367576D02*
X142931219Y-98939004D01*
X142931219Y-98653290D02*
X141931219Y-98653290D01*
X141931219Y-98653290D02*
X142074076Y-98748528D01*
X142074076Y-98748528D02*
X142169314Y-98843766D01*
X142169314Y-98843766D02*
X142216933Y-98939004D01*
X141931219Y-97748528D02*
X141931219Y-97653290D01*
X141931219Y-97653290D02*
X141978838Y-97558052D01*
X141978838Y-97558052D02*
X142026457Y-97510433D01*
X142026457Y-97510433D02*
X142121695Y-97462814D01*
X142121695Y-97462814D02*
X142312171Y-97415195D01*
X142312171Y-97415195D02*
X142550266Y-97415195D01*
X142550266Y-97415195D02*
X142740742Y-97462814D01*
X142740742Y-97462814D02*
X142835980Y-97510433D01*
X142835980Y-97510433D02*
X142883600Y-97558052D01*
X142883600Y-97558052D02*
X142931219Y-97653290D01*
X142931219Y-97653290D02*
X142931219Y-97748528D01*
X142931219Y-97748528D02*
X142883600Y-97843766D01*
X142883600Y-97843766D02*
X142835980Y-97891385D01*
X142835980Y-97891385D02*
X142740742Y-97939004D01*
X142740742Y-97939004D02*
X142550266Y-97986623D01*
X142550266Y-97986623D02*
X142312171Y-97986623D01*
X142312171Y-97986623D02*
X142121695Y-97939004D01*
X142121695Y-97939004D02*
X142026457Y-97891385D01*
X142026457Y-97891385D02*
X141978838Y-97843766D01*
X141978838Y-97843766D02*
X141931219Y-97748528D01*
D12*
%TO.C,J10*%
X159961905Y-115156526D02*
X159961905Y-116063669D01*
X159961905Y-116063669D02*
X159901428Y-116245097D01*
X159901428Y-116245097D02*
X159780476Y-116366050D01*
X159780476Y-116366050D02*
X159599047Y-116426526D01*
X159599047Y-116426526D02*
X159478095Y-116426526D01*
X161231905Y-116426526D02*
X160506190Y-116426526D01*
X160869047Y-116426526D02*
X160869047Y-115156526D01*
X160869047Y-115156526D02*
X160748095Y-115337954D01*
X160748095Y-115337954D02*
X160627143Y-115458907D01*
X160627143Y-115458907D02*
X160506190Y-115519383D01*
X162018095Y-115156526D02*
X162139048Y-115156526D01*
X162139048Y-115156526D02*
X162260000Y-115217002D01*
X162260000Y-115217002D02*
X162320476Y-115277478D01*
X162320476Y-115277478D02*
X162380952Y-115398430D01*
X162380952Y-115398430D02*
X162441429Y-115640335D01*
X162441429Y-115640335D02*
X162441429Y-115942716D01*
X162441429Y-115942716D02*
X162380952Y-116184621D01*
X162380952Y-116184621D02*
X162320476Y-116305573D01*
X162320476Y-116305573D02*
X162260000Y-116366050D01*
X162260000Y-116366050D02*
X162139048Y-116426526D01*
X162139048Y-116426526D02*
X162018095Y-116426526D01*
X162018095Y-116426526D02*
X161897143Y-116366050D01*
X161897143Y-116366050D02*
X161836667Y-116305573D01*
X161836667Y-116305573D02*
X161776190Y-116184621D01*
X161776190Y-116184621D02*
X161715714Y-115942716D01*
X161715714Y-115942716D02*
X161715714Y-115640335D01*
X161715714Y-115640335D02*
X161776190Y-115398430D01*
X161776190Y-115398430D02*
X161836667Y-115277478D01*
X161836667Y-115277478D02*
X161897143Y-115217002D01*
X161897143Y-115217002D02*
X162018095Y-115156526D01*
D11*
%TO.C,C17*%
X164451380Y-77858857D02*
X164499000Y-77906476D01*
X164499000Y-77906476D02*
X164546619Y-78049333D01*
X164546619Y-78049333D02*
X164546619Y-78144571D01*
X164546619Y-78144571D02*
X164499000Y-78287428D01*
X164499000Y-78287428D02*
X164403761Y-78382666D01*
X164403761Y-78382666D02*
X164308523Y-78430285D01*
X164308523Y-78430285D02*
X164118047Y-78477904D01*
X164118047Y-78477904D02*
X163975190Y-78477904D01*
X163975190Y-78477904D02*
X163784714Y-78430285D01*
X163784714Y-78430285D02*
X163689476Y-78382666D01*
X163689476Y-78382666D02*
X163594238Y-78287428D01*
X163594238Y-78287428D02*
X163546619Y-78144571D01*
X163546619Y-78144571D02*
X163546619Y-78049333D01*
X163546619Y-78049333D02*
X163594238Y-77906476D01*
X163594238Y-77906476D02*
X163641857Y-77858857D01*
X164546619Y-76906476D02*
X164546619Y-77477904D01*
X164546619Y-77192190D02*
X163546619Y-77192190D01*
X163546619Y-77192190D02*
X163689476Y-77287428D01*
X163689476Y-77287428D02*
X163784714Y-77382666D01*
X163784714Y-77382666D02*
X163832333Y-77477904D01*
X163546619Y-76573142D02*
X163546619Y-75906476D01*
X163546619Y-75906476D02*
X164546619Y-76335047D01*
%TO.C,R11*%
X136034542Y-92918619D02*
X135701209Y-92442428D01*
X135463114Y-92918619D02*
X135463114Y-91918619D01*
X135463114Y-91918619D02*
X135844066Y-91918619D01*
X135844066Y-91918619D02*
X135939304Y-91966238D01*
X135939304Y-91966238D02*
X135986923Y-92013857D01*
X135986923Y-92013857D02*
X136034542Y-92109095D01*
X136034542Y-92109095D02*
X136034542Y-92251952D01*
X136034542Y-92251952D02*
X135986923Y-92347190D01*
X135986923Y-92347190D02*
X135939304Y-92394809D01*
X135939304Y-92394809D02*
X135844066Y-92442428D01*
X135844066Y-92442428D02*
X135463114Y-92442428D01*
X136986923Y-92918619D02*
X136415495Y-92918619D01*
X136701209Y-92918619D02*
X136701209Y-91918619D01*
X136701209Y-91918619D02*
X136605971Y-92061476D01*
X136605971Y-92061476D02*
X136510733Y-92156714D01*
X136510733Y-92156714D02*
X136415495Y-92204333D01*
X137939304Y-92918619D02*
X137367876Y-92918619D01*
X137653590Y-92918619D02*
X137653590Y-91918619D01*
X137653590Y-91918619D02*
X137558352Y-92061476D01*
X137558352Y-92061476D02*
X137463114Y-92156714D01*
X137463114Y-92156714D02*
X137367876Y-92204333D01*
D12*
%TO.C,J8*%
X178028467Y-58436326D02*
X178028467Y-59343469D01*
X178028467Y-59343469D02*
X177967990Y-59524897D01*
X177967990Y-59524897D02*
X177847038Y-59645850D01*
X177847038Y-59645850D02*
X177665609Y-59706326D01*
X177665609Y-59706326D02*
X177544657Y-59706326D01*
X178814657Y-58980611D02*
X178693705Y-58920135D01*
X178693705Y-58920135D02*
X178633228Y-58859659D01*
X178633228Y-58859659D02*
X178572752Y-58738707D01*
X178572752Y-58738707D02*
X178572752Y-58678230D01*
X178572752Y-58678230D02*
X178633228Y-58557278D01*
X178633228Y-58557278D02*
X178693705Y-58496802D01*
X178693705Y-58496802D02*
X178814657Y-58436326D01*
X178814657Y-58436326D02*
X179056562Y-58436326D01*
X179056562Y-58436326D02*
X179177514Y-58496802D01*
X179177514Y-58496802D02*
X179237990Y-58557278D01*
X179237990Y-58557278D02*
X179298467Y-58678230D01*
X179298467Y-58678230D02*
X179298467Y-58738707D01*
X179298467Y-58738707D02*
X179237990Y-58859659D01*
X179237990Y-58859659D02*
X179177514Y-58920135D01*
X179177514Y-58920135D02*
X179056562Y-58980611D01*
X179056562Y-58980611D02*
X178814657Y-58980611D01*
X178814657Y-58980611D02*
X178693705Y-59041088D01*
X178693705Y-59041088D02*
X178633228Y-59101564D01*
X178633228Y-59101564D02*
X178572752Y-59222516D01*
X178572752Y-59222516D02*
X178572752Y-59464421D01*
X178572752Y-59464421D02*
X178633228Y-59585373D01*
X178633228Y-59585373D02*
X178693705Y-59645850D01*
X178693705Y-59645850D02*
X178814657Y-59706326D01*
X178814657Y-59706326D02*
X179056562Y-59706326D01*
X179056562Y-59706326D02*
X179177514Y-59645850D01*
X179177514Y-59645850D02*
X179237990Y-59585373D01*
X179237990Y-59585373D02*
X179298467Y-59464421D01*
X179298467Y-59464421D02*
X179298467Y-59222516D01*
X179298467Y-59222516D02*
X179237990Y-59101564D01*
X179237990Y-59101564D02*
X179177514Y-59041088D01*
X179177514Y-59041088D02*
X179056562Y-58980611D01*
D11*
%TO.C,C14*%
X143877380Y-72839857D02*
X143925000Y-72887476D01*
X143925000Y-72887476D02*
X143972619Y-73030333D01*
X143972619Y-73030333D02*
X143972619Y-73125571D01*
X143972619Y-73125571D02*
X143925000Y-73268428D01*
X143925000Y-73268428D02*
X143829761Y-73363666D01*
X143829761Y-73363666D02*
X143734523Y-73411285D01*
X143734523Y-73411285D02*
X143544047Y-73458904D01*
X143544047Y-73458904D02*
X143401190Y-73458904D01*
X143401190Y-73458904D02*
X143210714Y-73411285D01*
X143210714Y-73411285D02*
X143115476Y-73363666D01*
X143115476Y-73363666D02*
X143020238Y-73268428D01*
X143020238Y-73268428D02*
X142972619Y-73125571D01*
X142972619Y-73125571D02*
X142972619Y-73030333D01*
X142972619Y-73030333D02*
X143020238Y-72887476D01*
X143020238Y-72887476D02*
X143067857Y-72839857D01*
X143972619Y-71887476D02*
X143972619Y-72458904D01*
X143972619Y-72173190D02*
X142972619Y-72173190D01*
X142972619Y-72173190D02*
X143115476Y-72268428D01*
X143115476Y-72268428D02*
X143210714Y-72363666D01*
X143210714Y-72363666D02*
X143258333Y-72458904D01*
X143305952Y-71030333D02*
X143972619Y-71030333D01*
X142925000Y-71268428D02*
X143639285Y-71506523D01*
X143639285Y-71506523D02*
X143639285Y-70887476D01*
%TO.C,C3*%
X182713333Y-67296380D02*
X182665714Y-67344000D01*
X182665714Y-67344000D02*
X182522857Y-67391619D01*
X182522857Y-67391619D02*
X182427619Y-67391619D01*
X182427619Y-67391619D02*
X182284762Y-67344000D01*
X182284762Y-67344000D02*
X182189524Y-67248761D01*
X182189524Y-67248761D02*
X182141905Y-67153523D01*
X182141905Y-67153523D02*
X182094286Y-66963047D01*
X182094286Y-66963047D02*
X182094286Y-66820190D01*
X182094286Y-66820190D02*
X182141905Y-66629714D01*
X182141905Y-66629714D02*
X182189524Y-66534476D01*
X182189524Y-66534476D02*
X182284762Y-66439238D01*
X182284762Y-66439238D02*
X182427619Y-66391619D01*
X182427619Y-66391619D02*
X182522857Y-66391619D01*
X182522857Y-66391619D02*
X182665714Y-66439238D01*
X182665714Y-66439238D02*
X182713333Y-66486857D01*
X183046667Y-66391619D02*
X183665714Y-66391619D01*
X183665714Y-66391619D02*
X183332381Y-66772571D01*
X183332381Y-66772571D02*
X183475238Y-66772571D01*
X183475238Y-66772571D02*
X183570476Y-66820190D01*
X183570476Y-66820190D02*
X183618095Y-66867809D01*
X183618095Y-66867809D02*
X183665714Y-66963047D01*
X183665714Y-66963047D02*
X183665714Y-67201142D01*
X183665714Y-67201142D02*
X183618095Y-67296380D01*
X183618095Y-67296380D02*
X183570476Y-67344000D01*
X183570476Y-67344000D02*
X183475238Y-67391619D01*
X183475238Y-67391619D02*
X183189524Y-67391619D01*
X183189524Y-67391619D02*
X183094286Y-67344000D01*
X183094286Y-67344000D02*
X183046667Y-67296380D01*
%TO.C,C11*%
X145825142Y-53382880D02*
X145777523Y-53430500D01*
X145777523Y-53430500D02*
X145634666Y-53478119D01*
X145634666Y-53478119D02*
X145539428Y-53478119D01*
X145539428Y-53478119D02*
X145396571Y-53430500D01*
X145396571Y-53430500D02*
X145301333Y-53335261D01*
X145301333Y-53335261D02*
X145253714Y-53240023D01*
X145253714Y-53240023D02*
X145206095Y-53049547D01*
X145206095Y-53049547D02*
X145206095Y-52906690D01*
X145206095Y-52906690D02*
X145253714Y-52716214D01*
X145253714Y-52716214D02*
X145301333Y-52620976D01*
X145301333Y-52620976D02*
X145396571Y-52525738D01*
X145396571Y-52525738D02*
X145539428Y-52478119D01*
X145539428Y-52478119D02*
X145634666Y-52478119D01*
X145634666Y-52478119D02*
X145777523Y-52525738D01*
X145777523Y-52525738D02*
X145825142Y-52573357D01*
X146777523Y-53478119D02*
X146206095Y-53478119D01*
X146491809Y-53478119D02*
X146491809Y-52478119D01*
X146491809Y-52478119D02*
X146396571Y-52620976D01*
X146396571Y-52620976D02*
X146301333Y-52716214D01*
X146301333Y-52716214D02*
X146206095Y-52763833D01*
X147729904Y-53478119D02*
X147158476Y-53478119D01*
X147444190Y-53478119D02*
X147444190Y-52478119D01*
X147444190Y-52478119D02*
X147348952Y-52620976D01*
X147348952Y-52620976D02*
X147253714Y-52716214D01*
X147253714Y-52716214D02*
X147158476Y-52763833D01*
%TO.C,SCKO1*%
X185674286Y-60994000D02*
X185817143Y-61041619D01*
X185817143Y-61041619D02*
X186055238Y-61041619D01*
X186055238Y-61041619D02*
X186150476Y-60994000D01*
X186150476Y-60994000D02*
X186198095Y-60946380D01*
X186198095Y-60946380D02*
X186245714Y-60851142D01*
X186245714Y-60851142D02*
X186245714Y-60755904D01*
X186245714Y-60755904D02*
X186198095Y-60660666D01*
X186198095Y-60660666D02*
X186150476Y-60613047D01*
X186150476Y-60613047D02*
X186055238Y-60565428D01*
X186055238Y-60565428D02*
X185864762Y-60517809D01*
X185864762Y-60517809D02*
X185769524Y-60470190D01*
X185769524Y-60470190D02*
X185721905Y-60422571D01*
X185721905Y-60422571D02*
X185674286Y-60327333D01*
X185674286Y-60327333D02*
X185674286Y-60232095D01*
X185674286Y-60232095D02*
X185721905Y-60136857D01*
X185721905Y-60136857D02*
X185769524Y-60089238D01*
X185769524Y-60089238D02*
X185864762Y-60041619D01*
X185864762Y-60041619D02*
X186102857Y-60041619D01*
X186102857Y-60041619D02*
X186245714Y-60089238D01*
X187245714Y-60946380D02*
X187198095Y-60994000D01*
X187198095Y-60994000D02*
X187055238Y-61041619D01*
X187055238Y-61041619D02*
X186960000Y-61041619D01*
X186960000Y-61041619D02*
X186817143Y-60994000D01*
X186817143Y-60994000D02*
X186721905Y-60898761D01*
X186721905Y-60898761D02*
X186674286Y-60803523D01*
X186674286Y-60803523D02*
X186626667Y-60613047D01*
X186626667Y-60613047D02*
X186626667Y-60470190D01*
X186626667Y-60470190D02*
X186674286Y-60279714D01*
X186674286Y-60279714D02*
X186721905Y-60184476D01*
X186721905Y-60184476D02*
X186817143Y-60089238D01*
X186817143Y-60089238D02*
X186960000Y-60041619D01*
X186960000Y-60041619D02*
X187055238Y-60041619D01*
X187055238Y-60041619D02*
X187198095Y-60089238D01*
X187198095Y-60089238D02*
X187245714Y-60136857D01*
X187674286Y-61041619D02*
X187674286Y-60041619D01*
X188245714Y-61041619D02*
X187817143Y-60470190D01*
X188245714Y-60041619D02*
X187674286Y-60613047D01*
X188864762Y-60041619D02*
X189055238Y-60041619D01*
X189055238Y-60041619D02*
X189150476Y-60089238D01*
X189150476Y-60089238D02*
X189245714Y-60184476D01*
X189245714Y-60184476D02*
X189293333Y-60374952D01*
X189293333Y-60374952D02*
X189293333Y-60708285D01*
X189293333Y-60708285D02*
X189245714Y-60898761D01*
X189245714Y-60898761D02*
X189150476Y-60994000D01*
X189150476Y-60994000D02*
X189055238Y-61041619D01*
X189055238Y-61041619D02*
X188864762Y-61041619D01*
X188864762Y-61041619D02*
X188769524Y-60994000D01*
X188769524Y-60994000D02*
X188674286Y-60898761D01*
X188674286Y-60898761D02*
X188626667Y-60708285D01*
X188626667Y-60708285D02*
X188626667Y-60374952D01*
X188626667Y-60374952D02*
X188674286Y-60184476D01*
X188674286Y-60184476D02*
X188769524Y-60089238D01*
X188769524Y-60089238D02*
X188864762Y-60041619D01*
X190245714Y-61041619D02*
X189674286Y-61041619D01*
X189960000Y-61041619D02*
X189960000Y-60041619D01*
X189960000Y-60041619D02*
X189864762Y-60184476D01*
X189864762Y-60184476D02*
X189769524Y-60279714D01*
X189769524Y-60279714D02*
X189674286Y-60327333D01*
%TO.C,R3*%
X158329333Y-80726619D02*
X157996000Y-80250428D01*
X157757905Y-80726619D02*
X157757905Y-79726619D01*
X157757905Y-79726619D02*
X158138857Y-79726619D01*
X158138857Y-79726619D02*
X158234095Y-79774238D01*
X158234095Y-79774238D02*
X158281714Y-79821857D01*
X158281714Y-79821857D02*
X158329333Y-79917095D01*
X158329333Y-79917095D02*
X158329333Y-80059952D01*
X158329333Y-80059952D02*
X158281714Y-80155190D01*
X158281714Y-80155190D02*
X158234095Y-80202809D01*
X158234095Y-80202809D02*
X158138857Y-80250428D01*
X158138857Y-80250428D02*
X157757905Y-80250428D01*
X158662667Y-79726619D02*
X159281714Y-79726619D01*
X159281714Y-79726619D02*
X158948381Y-80107571D01*
X158948381Y-80107571D02*
X159091238Y-80107571D01*
X159091238Y-80107571D02*
X159186476Y-80155190D01*
X159186476Y-80155190D02*
X159234095Y-80202809D01*
X159234095Y-80202809D02*
X159281714Y-80298047D01*
X159281714Y-80298047D02*
X159281714Y-80536142D01*
X159281714Y-80536142D02*
X159234095Y-80631380D01*
X159234095Y-80631380D02*
X159186476Y-80679000D01*
X159186476Y-80679000D02*
X159091238Y-80726619D01*
X159091238Y-80726619D02*
X158805524Y-80726619D01*
X158805524Y-80726619D02*
X158710286Y-80679000D01*
X158710286Y-80679000D02*
X158662667Y-80631380D01*
%TO.C,SD_DAT0*%
X162915000Y-58972380D02*
X162962619Y-58829523D01*
X162962619Y-58829523D02*
X162962619Y-58591428D01*
X162962619Y-58591428D02*
X162915000Y-58496190D01*
X162915000Y-58496190D02*
X162867380Y-58448571D01*
X162867380Y-58448571D02*
X162772142Y-58400952D01*
X162772142Y-58400952D02*
X162676904Y-58400952D01*
X162676904Y-58400952D02*
X162581666Y-58448571D01*
X162581666Y-58448571D02*
X162534047Y-58496190D01*
X162534047Y-58496190D02*
X162486428Y-58591428D01*
X162486428Y-58591428D02*
X162438809Y-58781904D01*
X162438809Y-58781904D02*
X162391190Y-58877142D01*
X162391190Y-58877142D02*
X162343571Y-58924761D01*
X162343571Y-58924761D02*
X162248333Y-58972380D01*
X162248333Y-58972380D02*
X162153095Y-58972380D01*
X162153095Y-58972380D02*
X162057857Y-58924761D01*
X162057857Y-58924761D02*
X162010238Y-58877142D01*
X162010238Y-58877142D02*
X161962619Y-58781904D01*
X161962619Y-58781904D02*
X161962619Y-58543809D01*
X161962619Y-58543809D02*
X162010238Y-58400952D01*
X162962619Y-57972380D02*
X161962619Y-57972380D01*
X161962619Y-57972380D02*
X161962619Y-57734285D01*
X161962619Y-57734285D02*
X162010238Y-57591428D01*
X162010238Y-57591428D02*
X162105476Y-57496190D01*
X162105476Y-57496190D02*
X162200714Y-57448571D01*
X162200714Y-57448571D02*
X162391190Y-57400952D01*
X162391190Y-57400952D02*
X162534047Y-57400952D01*
X162534047Y-57400952D02*
X162724523Y-57448571D01*
X162724523Y-57448571D02*
X162819761Y-57496190D01*
X162819761Y-57496190D02*
X162915000Y-57591428D01*
X162915000Y-57591428D02*
X162962619Y-57734285D01*
X162962619Y-57734285D02*
X162962619Y-57972380D01*
X163057857Y-57210476D02*
X163057857Y-56448571D01*
X162962619Y-56210475D02*
X161962619Y-56210475D01*
X161962619Y-56210475D02*
X161962619Y-55972380D01*
X161962619Y-55972380D02*
X162010238Y-55829523D01*
X162010238Y-55829523D02*
X162105476Y-55734285D01*
X162105476Y-55734285D02*
X162200714Y-55686666D01*
X162200714Y-55686666D02*
X162391190Y-55639047D01*
X162391190Y-55639047D02*
X162534047Y-55639047D01*
X162534047Y-55639047D02*
X162724523Y-55686666D01*
X162724523Y-55686666D02*
X162819761Y-55734285D01*
X162819761Y-55734285D02*
X162915000Y-55829523D01*
X162915000Y-55829523D02*
X162962619Y-55972380D01*
X162962619Y-55972380D02*
X162962619Y-56210475D01*
X162676904Y-55258094D02*
X162676904Y-54781904D01*
X162962619Y-55353332D02*
X161962619Y-55019999D01*
X161962619Y-55019999D02*
X162962619Y-54686666D01*
X161962619Y-54496189D02*
X161962619Y-53924761D01*
X162962619Y-54210475D02*
X161962619Y-54210475D01*
X161962619Y-53400951D02*
X161962619Y-53305713D01*
X161962619Y-53305713D02*
X162010238Y-53210475D01*
X162010238Y-53210475D02*
X162057857Y-53162856D01*
X162057857Y-53162856D02*
X162153095Y-53115237D01*
X162153095Y-53115237D02*
X162343571Y-53067618D01*
X162343571Y-53067618D02*
X162581666Y-53067618D01*
X162581666Y-53067618D02*
X162772142Y-53115237D01*
X162772142Y-53115237D02*
X162867380Y-53162856D01*
X162867380Y-53162856D02*
X162915000Y-53210475D01*
X162915000Y-53210475D02*
X162962619Y-53305713D01*
X162962619Y-53305713D02*
X162962619Y-53400951D01*
X162962619Y-53400951D02*
X162915000Y-53496189D01*
X162915000Y-53496189D02*
X162867380Y-53543808D01*
X162867380Y-53543808D02*
X162772142Y-53591427D01*
X162772142Y-53591427D02*
X162581666Y-53639046D01*
X162581666Y-53639046D02*
X162343571Y-53639046D01*
X162343571Y-53639046D02*
X162153095Y-53591427D01*
X162153095Y-53591427D02*
X162057857Y-53543808D01*
X162057857Y-53543808D02*
X162010238Y-53496189D01*
X162010238Y-53496189D02*
X161962619Y-53400951D01*
%TO.C,C6*%
X175220333Y-91680380D02*
X175172714Y-91728000D01*
X175172714Y-91728000D02*
X175029857Y-91775619D01*
X175029857Y-91775619D02*
X174934619Y-91775619D01*
X174934619Y-91775619D02*
X174791762Y-91728000D01*
X174791762Y-91728000D02*
X174696524Y-91632761D01*
X174696524Y-91632761D02*
X174648905Y-91537523D01*
X174648905Y-91537523D02*
X174601286Y-91347047D01*
X174601286Y-91347047D02*
X174601286Y-91204190D01*
X174601286Y-91204190D02*
X174648905Y-91013714D01*
X174648905Y-91013714D02*
X174696524Y-90918476D01*
X174696524Y-90918476D02*
X174791762Y-90823238D01*
X174791762Y-90823238D02*
X174934619Y-90775619D01*
X174934619Y-90775619D02*
X175029857Y-90775619D01*
X175029857Y-90775619D02*
X175172714Y-90823238D01*
X175172714Y-90823238D02*
X175220333Y-90870857D01*
X176077476Y-90775619D02*
X175887000Y-90775619D01*
X175887000Y-90775619D02*
X175791762Y-90823238D01*
X175791762Y-90823238D02*
X175744143Y-90870857D01*
X175744143Y-90870857D02*
X175648905Y-91013714D01*
X175648905Y-91013714D02*
X175601286Y-91204190D01*
X175601286Y-91204190D02*
X175601286Y-91585142D01*
X175601286Y-91585142D02*
X175648905Y-91680380D01*
X175648905Y-91680380D02*
X175696524Y-91728000D01*
X175696524Y-91728000D02*
X175791762Y-91775619D01*
X175791762Y-91775619D02*
X175982238Y-91775619D01*
X175982238Y-91775619D02*
X176077476Y-91728000D01*
X176077476Y-91728000D02*
X176125095Y-91680380D01*
X176125095Y-91680380D02*
X176172714Y-91585142D01*
X176172714Y-91585142D02*
X176172714Y-91347047D01*
X176172714Y-91347047D02*
X176125095Y-91251809D01*
X176125095Y-91251809D02*
X176077476Y-91204190D01*
X176077476Y-91204190D02*
X175982238Y-91156571D01*
X175982238Y-91156571D02*
X175791762Y-91156571D01*
X175791762Y-91156571D02*
X175696524Y-91204190D01*
X175696524Y-91204190D02*
X175648905Y-91251809D01*
X175648905Y-91251809D02*
X175601286Y-91347047D01*
%TO.C,H3*%
X193294095Y-122382619D02*
X193294095Y-121382619D01*
X193294095Y-121858809D02*
X193865523Y-121858809D01*
X193865523Y-122382619D02*
X193865523Y-121382619D01*
X194246476Y-121382619D02*
X194865523Y-121382619D01*
X194865523Y-121382619D02*
X194532190Y-121763571D01*
X194532190Y-121763571D02*
X194675047Y-121763571D01*
X194675047Y-121763571D02*
X194770285Y-121811190D01*
X194770285Y-121811190D02*
X194817904Y-121858809D01*
X194817904Y-121858809D02*
X194865523Y-121954047D01*
X194865523Y-121954047D02*
X194865523Y-122192142D01*
X194865523Y-122192142D02*
X194817904Y-122287380D01*
X194817904Y-122287380D02*
X194770285Y-122335000D01*
X194770285Y-122335000D02*
X194675047Y-122382619D01*
X194675047Y-122382619D02*
X194389333Y-122382619D01*
X194389333Y-122382619D02*
X194294095Y-122335000D01*
X194294095Y-122335000D02*
X194246476Y-122287380D01*
%TO.C,C9*%
X160234333Y-96379380D02*
X160186714Y-96427000D01*
X160186714Y-96427000D02*
X160043857Y-96474619D01*
X160043857Y-96474619D02*
X159948619Y-96474619D01*
X159948619Y-96474619D02*
X159805762Y-96427000D01*
X159805762Y-96427000D02*
X159710524Y-96331761D01*
X159710524Y-96331761D02*
X159662905Y-96236523D01*
X159662905Y-96236523D02*
X159615286Y-96046047D01*
X159615286Y-96046047D02*
X159615286Y-95903190D01*
X159615286Y-95903190D02*
X159662905Y-95712714D01*
X159662905Y-95712714D02*
X159710524Y-95617476D01*
X159710524Y-95617476D02*
X159805762Y-95522238D01*
X159805762Y-95522238D02*
X159948619Y-95474619D01*
X159948619Y-95474619D02*
X160043857Y-95474619D01*
X160043857Y-95474619D02*
X160186714Y-95522238D01*
X160186714Y-95522238D02*
X160234333Y-95569857D01*
X160710524Y-96474619D02*
X160901000Y-96474619D01*
X160901000Y-96474619D02*
X160996238Y-96427000D01*
X160996238Y-96427000D02*
X161043857Y-96379380D01*
X161043857Y-96379380D02*
X161139095Y-96236523D01*
X161139095Y-96236523D02*
X161186714Y-96046047D01*
X161186714Y-96046047D02*
X161186714Y-95665095D01*
X161186714Y-95665095D02*
X161139095Y-95569857D01*
X161139095Y-95569857D02*
X161091476Y-95522238D01*
X161091476Y-95522238D02*
X160996238Y-95474619D01*
X160996238Y-95474619D02*
X160805762Y-95474619D01*
X160805762Y-95474619D02*
X160710524Y-95522238D01*
X160710524Y-95522238D02*
X160662905Y-95569857D01*
X160662905Y-95569857D02*
X160615286Y-95665095D01*
X160615286Y-95665095D02*
X160615286Y-95903190D01*
X160615286Y-95903190D02*
X160662905Y-95998428D01*
X160662905Y-95998428D02*
X160710524Y-96046047D01*
X160710524Y-96046047D02*
X160805762Y-96093666D01*
X160805762Y-96093666D02*
X160996238Y-96093666D01*
X160996238Y-96093666D02*
X161091476Y-96046047D01*
X161091476Y-96046047D02*
X161139095Y-95998428D01*
X161139095Y-95998428D02*
X161186714Y-95903190D01*
%TO.C,U4*%
X176027495Y-81843619D02*
X176027495Y-82653142D01*
X176027495Y-82653142D02*
X176075114Y-82748380D01*
X176075114Y-82748380D02*
X176122733Y-82796000D01*
X176122733Y-82796000D02*
X176217971Y-82843619D01*
X176217971Y-82843619D02*
X176408447Y-82843619D01*
X176408447Y-82843619D02*
X176503685Y-82796000D01*
X176503685Y-82796000D02*
X176551304Y-82748380D01*
X176551304Y-82748380D02*
X176598923Y-82653142D01*
X176598923Y-82653142D02*
X176598923Y-81843619D01*
X177503685Y-82176952D02*
X177503685Y-82843619D01*
X177265590Y-81796000D02*
X177027495Y-82510285D01*
X177027495Y-82510285D02*
X177646542Y-82510285D01*
%TO.C,R7*%
X139660333Y-67518619D02*
X139327000Y-67042428D01*
X139088905Y-67518619D02*
X139088905Y-66518619D01*
X139088905Y-66518619D02*
X139469857Y-66518619D01*
X139469857Y-66518619D02*
X139565095Y-66566238D01*
X139565095Y-66566238D02*
X139612714Y-66613857D01*
X139612714Y-66613857D02*
X139660333Y-66709095D01*
X139660333Y-66709095D02*
X139660333Y-66851952D01*
X139660333Y-66851952D02*
X139612714Y-66947190D01*
X139612714Y-66947190D02*
X139565095Y-66994809D01*
X139565095Y-66994809D02*
X139469857Y-67042428D01*
X139469857Y-67042428D02*
X139088905Y-67042428D01*
X139993667Y-66518619D02*
X140660333Y-66518619D01*
X140660333Y-66518619D02*
X140231762Y-67518619D01*
%TO.C,R1*%
X191476333Y-62819619D02*
X191143000Y-62343428D01*
X190904905Y-62819619D02*
X190904905Y-61819619D01*
X190904905Y-61819619D02*
X191285857Y-61819619D01*
X191285857Y-61819619D02*
X191381095Y-61867238D01*
X191381095Y-61867238D02*
X191428714Y-61914857D01*
X191428714Y-61914857D02*
X191476333Y-62010095D01*
X191476333Y-62010095D02*
X191476333Y-62152952D01*
X191476333Y-62152952D02*
X191428714Y-62248190D01*
X191428714Y-62248190D02*
X191381095Y-62295809D01*
X191381095Y-62295809D02*
X191285857Y-62343428D01*
X191285857Y-62343428D02*
X190904905Y-62343428D01*
X192428714Y-62819619D02*
X191857286Y-62819619D01*
X192143000Y-62819619D02*
X192143000Y-61819619D01*
X192143000Y-61819619D02*
X192047762Y-61962476D01*
X192047762Y-61962476D02*
X191952524Y-62057714D01*
X191952524Y-62057714D02*
X191857286Y-62105333D01*
%TO.C,D3*%
X138072905Y-102443619D02*
X138072905Y-101443619D01*
X138072905Y-101443619D02*
X138311000Y-101443619D01*
X138311000Y-101443619D02*
X138453857Y-101491238D01*
X138453857Y-101491238D02*
X138549095Y-101586476D01*
X138549095Y-101586476D02*
X138596714Y-101681714D01*
X138596714Y-101681714D02*
X138644333Y-101872190D01*
X138644333Y-101872190D02*
X138644333Y-102015047D01*
X138644333Y-102015047D02*
X138596714Y-102205523D01*
X138596714Y-102205523D02*
X138549095Y-102300761D01*
X138549095Y-102300761D02*
X138453857Y-102396000D01*
X138453857Y-102396000D02*
X138311000Y-102443619D01*
X138311000Y-102443619D02*
X138072905Y-102443619D01*
X138977667Y-101443619D02*
X139596714Y-101443619D01*
X139596714Y-101443619D02*
X139263381Y-101824571D01*
X139263381Y-101824571D02*
X139406238Y-101824571D01*
X139406238Y-101824571D02*
X139501476Y-101872190D01*
X139501476Y-101872190D02*
X139549095Y-101919809D01*
X139549095Y-101919809D02*
X139596714Y-102015047D01*
X139596714Y-102015047D02*
X139596714Y-102253142D01*
X139596714Y-102253142D02*
X139549095Y-102348380D01*
X139549095Y-102348380D02*
X139501476Y-102396000D01*
X139501476Y-102396000D02*
X139406238Y-102443619D01*
X139406238Y-102443619D02*
X139120524Y-102443619D01*
X139120524Y-102443619D02*
X139025286Y-102396000D01*
X139025286Y-102396000D02*
X138977667Y-102348380D01*
X138168095Y-103840619D02*
X138168095Y-102840619D01*
X138739523Y-103840619D02*
X138310952Y-103269190D01*
X138739523Y-102840619D02*
X138168095Y-103412047D01*
%TO.C,H2*%
X134874095Y-56088619D02*
X134874095Y-55088619D01*
X134874095Y-55564809D02*
X135445523Y-55564809D01*
X135445523Y-56088619D02*
X135445523Y-55088619D01*
X135874095Y-55183857D02*
X135921714Y-55136238D01*
X135921714Y-55136238D02*
X136016952Y-55088619D01*
X136016952Y-55088619D02*
X136255047Y-55088619D01*
X136255047Y-55088619D02*
X136350285Y-55136238D01*
X136350285Y-55136238D02*
X136397904Y-55183857D01*
X136397904Y-55183857D02*
X136445523Y-55279095D01*
X136445523Y-55279095D02*
X136445523Y-55374333D01*
X136445523Y-55374333D02*
X136397904Y-55517190D01*
X136397904Y-55517190D02*
X135826476Y-56088619D01*
X135826476Y-56088619D02*
X136445523Y-56088619D01*
%TO.C,D4*%
X193920619Y-84685094D02*
X192920619Y-84685094D01*
X192920619Y-84685094D02*
X192920619Y-84446999D01*
X192920619Y-84446999D02*
X192968238Y-84304142D01*
X192968238Y-84304142D02*
X193063476Y-84208904D01*
X193063476Y-84208904D02*
X193158714Y-84161285D01*
X193158714Y-84161285D02*
X193349190Y-84113666D01*
X193349190Y-84113666D02*
X193492047Y-84113666D01*
X193492047Y-84113666D02*
X193682523Y-84161285D01*
X193682523Y-84161285D02*
X193777761Y-84208904D01*
X193777761Y-84208904D02*
X193873000Y-84304142D01*
X193873000Y-84304142D02*
X193920619Y-84446999D01*
X193920619Y-84446999D02*
X193920619Y-84685094D01*
X193253952Y-83256523D02*
X193920619Y-83256523D01*
X192873000Y-83494618D02*
X193587285Y-83732713D01*
X193587285Y-83732713D02*
X193587285Y-83113666D01*
X192800619Y-76588904D02*
X191800619Y-76588904D01*
X192800619Y-76017476D02*
X192229190Y-76446047D01*
X191800619Y-76017476D02*
X192372047Y-76588904D01*
%TO.C,C16*%
X145553780Y-72839857D02*
X145601400Y-72887476D01*
X145601400Y-72887476D02*
X145649019Y-73030333D01*
X145649019Y-73030333D02*
X145649019Y-73125571D01*
X145649019Y-73125571D02*
X145601400Y-73268428D01*
X145601400Y-73268428D02*
X145506161Y-73363666D01*
X145506161Y-73363666D02*
X145410923Y-73411285D01*
X145410923Y-73411285D02*
X145220447Y-73458904D01*
X145220447Y-73458904D02*
X145077590Y-73458904D01*
X145077590Y-73458904D02*
X144887114Y-73411285D01*
X144887114Y-73411285D02*
X144791876Y-73363666D01*
X144791876Y-73363666D02*
X144696638Y-73268428D01*
X144696638Y-73268428D02*
X144649019Y-73125571D01*
X144649019Y-73125571D02*
X144649019Y-73030333D01*
X144649019Y-73030333D02*
X144696638Y-72887476D01*
X144696638Y-72887476D02*
X144744257Y-72839857D01*
X145649019Y-71887476D02*
X145649019Y-72458904D01*
X145649019Y-72173190D02*
X144649019Y-72173190D01*
X144649019Y-72173190D02*
X144791876Y-72268428D01*
X144791876Y-72268428D02*
X144887114Y-72363666D01*
X144887114Y-72363666D02*
X144934733Y-72458904D01*
X144649019Y-71030333D02*
X144649019Y-71220809D01*
X144649019Y-71220809D02*
X144696638Y-71316047D01*
X144696638Y-71316047D02*
X144744257Y-71363666D01*
X144744257Y-71363666D02*
X144887114Y-71458904D01*
X144887114Y-71458904D02*
X145077590Y-71506523D01*
X145077590Y-71506523D02*
X145458542Y-71506523D01*
X145458542Y-71506523D02*
X145553780Y-71458904D01*
X145553780Y-71458904D02*
X145601400Y-71411285D01*
X145601400Y-71411285D02*
X145649019Y-71316047D01*
X145649019Y-71316047D02*
X145649019Y-71125571D01*
X145649019Y-71125571D02*
X145601400Y-71030333D01*
X145601400Y-71030333D02*
X145553780Y-70982714D01*
X145553780Y-70982714D02*
X145458542Y-70935095D01*
X145458542Y-70935095D02*
X145220447Y-70935095D01*
X145220447Y-70935095D02*
X145125209Y-70982714D01*
X145125209Y-70982714D02*
X145077590Y-71030333D01*
X145077590Y-71030333D02*
X145029971Y-71125571D01*
X145029971Y-71125571D02*
X145029971Y-71316047D01*
X145029971Y-71316047D02*
X145077590Y-71411285D01*
X145077590Y-71411285D02*
X145125209Y-71458904D01*
X145125209Y-71458904D02*
X145220447Y-71506523D01*
%TO.C,R2*%
X141311333Y-68534619D02*
X140978000Y-68058428D01*
X140739905Y-68534619D02*
X140739905Y-67534619D01*
X140739905Y-67534619D02*
X141120857Y-67534619D01*
X141120857Y-67534619D02*
X141216095Y-67582238D01*
X141216095Y-67582238D02*
X141263714Y-67629857D01*
X141263714Y-67629857D02*
X141311333Y-67725095D01*
X141311333Y-67725095D02*
X141311333Y-67867952D01*
X141311333Y-67867952D02*
X141263714Y-67963190D01*
X141263714Y-67963190D02*
X141216095Y-68010809D01*
X141216095Y-68010809D02*
X141120857Y-68058428D01*
X141120857Y-68058428D02*
X140739905Y-68058428D01*
X141692286Y-67629857D02*
X141739905Y-67582238D01*
X141739905Y-67582238D02*
X141835143Y-67534619D01*
X141835143Y-67534619D02*
X142073238Y-67534619D01*
X142073238Y-67534619D02*
X142168476Y-67582238D01*
X142168476Y-67582238D02*
X142216095Y-67629857D01*
X142216095Y-67629857D02*
X142263714Y-67725095D01*
X142263714Y-67725095D02*
X142263714Y-67820333D01*
X142263714Y-67820333D02*
X142216095Y-67963190D01*
X142216095Y-67963190D02*
X141644667Y-68534619D01*
X141644667Y-68534619D02*
X142263714Y-68534619D01*
%TO.C,MOSI1*%
X148447381Y-76535619D02*
X148447381Y-75535619D01*
X148447381Y-75535619D02*
X148780714Y-76249904D01*
X148780714Y-76249904D02*
X149114047Y-75535619D01*
X149114047Y-75535619D02*
X149114047Y-76535619D01*
X149780714Y-75535619D02*
X149971190Y-75535619D01*
X149971190Y-75535619D02*
X150066428Y-75583238D01*
X150066428Y-75583238D02*
X150161666Y-75678476D01*
X150161666Y-75678476D02*
X150209285Y-75868952D01*
X150209285Y-75868952D02*
X150209285Y-76202285D01*
X150209285Y-76202285D02*
X150161666Y-76392761D01*
X150161666Y-76392761D02*
X150066428Y-76488000D01*
X150066428Y-76488000D02*
X149971190Y-76535619D01*
X149971190Y-76535619D02*
X149780714Y-76535619D01*
X149780714Y-76535619D02*
X149685476Y-76488000D01*
X149685476Y-76488000D02*
X149590238Y-76392761D01*
X149590238Y-76392761D02*
X149542619Y-76202285D01*
X149542619Y-76202285D02*
X149542619Y-75868952D01*
X149542619Y-75868952D02*
X149590238Y-75678476D01*
X149590238Y-75678476D02*
X149685476Y-75583238D01*
X149685476Y-75583238D02*
X149780714Y-75535619D01*
X150590238Y-76488000D02*
X150733095Y-76535619D01*
X150733095Y-76535619D02*
X150971190Y-76535619D01*
X150971190Y-76535619D02*
X151066428Y-76488000D01*
X151066428Y-76488000D02*
X151114047Y-76440380D01*
X151114047Y-76440380D02*
X151161666Y-76345142D01*
X151161666Y-76345142D02*
X151161666Y-76249904D01*
X151161666Y-76249904D02*
X151114047Y-76154666D01*
X151114047Y-76154666D02*
X151066428Y-76107047D01*
X151066428Y-76107047D02*
X150971190Y-76059428D01*
X150971190Y-76059428D02*
X150780714Y-76011809D01*
X150780714Y-76011809D02*
X150685476Y-75964190D01*
X150685476Y-75964190D02*
X150637857Y-75916571D01*
X150637857Y-75916571D02*
X150590238Y-75821333D01*
X150590238Y-75821333D02*
X150590238Y-75726095D01*
X150590238Y-75726095D02*
X150637857Y-75630857D01*
X150637857Y-75630857D02*
X150685476Y-75583238D01*
X150685476Y-75583238D02*
X150780714Y-75535619D01*
X150780714Y-75535619D02*
X151018809Y-75535619D01*
X151018809Y-75535619D02*
X151161666Y-75583238D01*
X151590238Y-76535619D02*
X151590238Y-75535619D01*
X152590237Y-76535619D02*
X152018809Y-76535619D01*
X152304523Y-76535619D02*
X152304523Y-75535619D01*
X152304523Y-75535619D02*
X152209285Y-75678476D01*
X152209285Y-75678476D02*
X152114047Y-75773714D01*
X152114047Y-75773714D02*
X152018809Y-75821333D01*
%TO.C,U1*%
X153395676Y-92708439D02*
X153916375Y-92708439D01*
X153916375Y-92708439D02*
X153977633Y-92677810D01*
X153977633Y-92677810D02*
X154008263Y-92647180D01*
X154008263Y-92647180D02*
X154038892Y-92585922D01*
X154038892Y-92585922D02*
X154038892Y-92463404D01*
X154038892Y-92463404D02*
X154008263Y-92402146D01*
X154008263Y-92402146D02*
X153977633Y-92371516D01*
X153977633Y-92371516D02*
X153916375Y-92340887D01*
X153916375Y-92340887D02*
X153395676Y-92340887D01*
X154038892Y-91697671D02*
X154038892Y-92065223D01*
X154038892Y-91881447D02*
X153395676Y-91881447D01*
X153395676Y-91881447D02*
X153487564Y-91942706D01*
X153487564Y-91942706D02*
X153548823Y-92003965D01*
X153548823Y-92003965D02*
X153579452Y-92065223D01*
%TO.C,C5*%
X160615333Y-106920380D02*
X160567714Y-106968000D01*
X160567714Y-106968000D02*
X160424857Y-107015619D01*
X160424857Y-107015619D02*
X160329619Y-107015619D01*
X160329619Y-107015619D02*
X160186762Y-106968000D01*
X160186762Y-106968000D02*
X160091524Y-106872761D01*
X160091524Y-106872761D02*
X160043905Y-106777523D01*
X160043905Y-106777523D02*
X159996286Y-106587047D01*
X159996286Y-106587047D02*
X159996286Y-106444190D01*
X159996286Y-106444190D02*
X160043905Y-106253714D01*
X160043905Y-106253714D02*
X160091524Y-106158476D01*
X160091524Y-106158476D02*
X160186762Y-106063238D01*
X160186762Y-106063238D02*
X160329619Y-106015619D01*
X160329619Y-106015619D02*
X160424857Y-106015619D01*
X160424857Y-106015619D02*
X160567714Y-106063238D01*
X160567714Y-106063238D02*
X160615333Y-106110857D01*
X161520095Y-106015619D02*
X161043905Y-106015619D01*
X161043905Y-106015619D02*
X160996286Y-106491809D01*
X160996286Y-106491809D02*
X161043905Y-106444190D01*
X161043905Y-106444190D02*
X161139143Y-106396571D01*
X161139143Y-106396571D02*
X161377238Y-106396571D01*
X161377238Y-106396571D02*
X161472476Y-106444190D01*
X161472476Y-106444190D02*
X161520095Y-106491809D01*
X161520095Y-106491809D02*
X161567714Y-106587047D01*
X161567714Y-106587047D02*
X161567714Y-106825142D01*
X161567714Y-106825142D02*
X161520095Y-106920380D01*
X161520095Y-106920380D02*
X161472476Y-106968000D01*
X161472476Y-106968000D02*
X161377238Y-107015619D01*
X161377238Y-107015619D02*
X161139143Y-107015619D01*
X161139143Y-107015619D02*
X161043905Y-106968000D01*
X161043905Y-106968000D02*
X160996286Y-106920380D01*
%TO.C,U3*%
X150622095Y-64994619D02*
X150622095Y-65804142D01*
X150622095Y-65804142D02*
X150669714Y-65899380D01*
X150669714Y-65899380D02*
X150717333Y-65947000D01*
X150717333Y-65947000D02*
X150812571Y-65994619D01*
X150812571Y-65994619D02*
X151003047Y-65994619D01*
X151003047Y-65994619D02*
X151098285Y-65947000D01*
X151098285Y-65947000D02*
X151145904Y-65899380D01*
X151145904Y-65899380D02*
X151193523Y-65804142D01*
X151193523Y-65804142D02*
X151193523Y-64994619D01*
X151574476Y-64994619D02*
X152193523Y-64994619D01*
X152193523Y-64994619D02*
X151860190Y-65375571D01*
X151860190Y-65375571D02*
X152003047Y-65375571D01*
X152003047Y-65375571D02*
X152098285Y-65423190D01*
X152098285Y-65423190D02*
X152145904Y-65470809D01*
X152145904Y-65470809D02*
X152193523Y-65566047D01*
X152193523Y-65566047D02*
X152193523Y-65804142D01*
X152193523Y-65804142D02*
X152145904Y-65899380D01*
X152145904Y-65899380D02*
X152098285Y-65947000D01*
X152098285Y-65947000D02*
X152003047Y-65994619D01*
X152003047Y-65994619D02*
X151717333Y-65994619D01*
X151717333Y-65994619D02*
X151622095Y-65947000D01*
X151622095Y-65947000D02*
X151574476Y-65899380D01*
%TO.C,C10*%
X164965142Y-80631380D02*
X164917523Y-80679000D01*
X164917523Y-80679000D02*
X164774666Y-80726619D01*
X164774666Y-80726619D02*
X164679428Y-80726619D01*
X164679428Y-80726619D02*
X164536571Y-80679000D01*
X164536571Y-80679000D02*
X164441333Y-80583761D01*
X164441333Y-80583761D02*
X164393714Y-80488523D01*
X164393714Y-80488523D02*
X164346095Y-80298047D01*
X164346095Y-80298047D02*
X164346095Y-80155190D01*
X164346095Y-80155190D02*
X164393714Y-79964714D01*
X164393714Y-79964714D02*
X164441333Y-79869476D01*
X164441333Y-79869476D02*
X164536571Y-79774238D01*
X164536571Y-79774238D02*
X164679428Y-79726619D01*
X164679428Y-79726619D02*
X164774666Y-79726619D01*
X164774666Y-79726619D02*
X164917523Y-79774238D01*
X164917523Y-79774238D02*
X164965142Y-79821857D01*
X165917523Y-80726619D02*
X165346095Y-80726619D01*
X165631809Y-80726619D02*
X165631809Y-79726619D01*
X165631809Y-79726619D02*
X165536571Y-79869476D01*
X165536571Y-79869476D02*
X165441333Y-79964714D01*
X165441333Y-79964714D02*
X165346095Y-80012333D01*
X166536571Y-79726619D02*
X166631809Y-79726619D01*
X166631809Y-79726619D02*
X166727047Y-79774238D01*
X166727047Y-79774238D02*
X166774666Y-79821857D01*
X166774666Y-79821857D02*
X166822285Y-79917095D01*
X166822285Y-79917095D02*
X166869904Y-80107571D01*
X166869904Y-80107571D02*
X166869904Y-80345666D01*
X166869904Y-80345666D02*
X166822285Y-80536142D01*
X166822285Y-80536142D02*
X166774666Y-80631380D01*
X166774666Y-80631380D02*
X166727047Y-80679000D01*
X166727047Y-80679000D02*
X166631809Y-80726619D01*
X166631809Y-80726619D02*
X166536571Y-80726619D01*
X166536571Y-80726619D02*
X166441333Y-80679000D01*
X166441333Y-80679000D02*
X166393714Y-80631380D01*
X166393714Y-80631380D02*
X166346095Y-80536142D01*
X166346095Y-80536142D02*
X166298476Y-80345666D01*
X166298476Y-80345666D02*
X166298476Y-80107571D01*
X166298476Y-80107571D02*
X166346095Y-79917095D01*
X166346095Y-79917095D02*
X166393714Y-79821857D01*
X166393714Y-79821857D02*
X166441333Y-79774238D01*
X166441333Y-79774238D02*
X166536571Y-79726619D01*
D12*
%TO.C,J7*%
X195646667Y-56497526D02*
X195646667Y-57404669D01*
X195646667Y-57404669D02*
X195586190Y-57586097D01*
X195586190Y-57586097D02*
X195465238Y-57707050D01*
X195465238Y-57707050D02*
X195283809Y-57767526D01*
X195283809Y-57767526D02*
X195162857Y-57767526D01*
X196130476Y-56497526D02*
X196977143Y-56497526D01*
X196977143Y-56497526D02*
X196432857Y-57767526D01*
D11*
%TO.C,R6*%
X135977333Y-88092619D02*
X135644000Y-87616428D01*
X135405905Y-88092619D02*
X135405905Y-87092619D01*
X135405905Y-87092619D02*
X135786857Y-87092619D01*
X135786857Y-87092619D02*
X135882095Y-87140238D01*
X135882095Y-87140238D02*
X135929714Y-87187857D01*
X135929714Y-87187857D02*
X135977333Y-87283095D01*
X135977333Y-87283095D02*
X135977333Y-87425952D01*
X135977333Y-87425952D02*
X135929714Y-87521190D01*
X135929714Y-87521190D02*
X135882095Y-87568809D01*
X135882095Y-87568809D02*
X135786857Y-87616428D01*
X135786857Y-87616428D02*
X135405905Y-87616428D01*
X136834476Y-87092619D02*
X136644000Y-87092619D01*
X136644000Y-87092619D02*
X136548762Y-87140238D01*
X136548762Y-87140238D02*
X136501143Y-87187857D01*
X136501143Y-87187857D02*
X136405905Y-87330714D01*
X136405905Y-87330714D02*
X136358286Y-87521190D01*
X136358286Y-87521190D02*
X136358286Y-87902142D01*
X136358286Y-87902142D02*
X136405905Y-87997380D01*
X136405905Y-87997380D02*
X136453524Y-88045000D01*
X136453524Y-88045000D02*
X136548762Y-88092619D01*
X136548762Y-88092619D02*
X136739238Y-88092619D01*
X136739238Y-88092619D02*
X136834476Y-88045000D01*
X136834476Y-88045000D02*
X136882095Y-87997380D01*
X136882095Y-87997380D02*
X136929714Y-87902142D01*
X136929714Y-87902142D02*
X136929714Y-87664047D01*
X136929714Y-87664047D02*
X136882095Y-87568809D01*
X136882095Y-87568809D02*
X136834476Y-87521190D01*
X136834476Y-87521190D02*
X136739238Y-87473571D01*
X136739238Y-87473571D02*
X136548762Y-87473571D01*
X136548762Y-87473571D02*
X136453524Y-87521190D01*
X136453524Y-87521190D02*
X136405905Y-87568809D01*
X136405905Y-87568809D02*
X136358286Y-87664047D01*
%TO.C,J1*%
X162335976Y-50581506D02*
X162335976Y-51297271D01*
X162335976Y-51297271D02*
X162288258Y-51440424D01*
X162288258Y-51440424D02*
X162192823Y-51535860D01*
X162192823Y-51535860D02*
X162049670Y-51583577D01*
X162049670Y-51583577D02*
X161954235Y-51583577D01*
X163338047Y-51583577D02*
X162765435Y-51583577D01*
X163051741Y-51583577D02*
X163051741Y-50581506D01*
X163051741Y-50581506D02*
X162956306Y-50724659D01*
X162956306Y-50724659D02*
X162860871Y-50820095D01*
X162860871Y-50820095D02*
X162765435Y-50867812D01*
%TO.C,L1*%
X200553333Y-68509076D02*
X200248571Y-68509076D01*
X200248571Y-68509076D02*
X200248571Y-67869076D01*
X201101905Y-68509076D02*
X200736190Y-68509076D01*
X200919047Y-68509076D02*
X200919047Y-67869076D01*
X200919047Y-67869076D02*
X200858095Y-67960504D01*
X200858095Y-67960504D02*
X200797143Y-68021457D01*
X200797143Y-68021457D02*
X200736190Y-68051933D01*
D12*
%TO.C,J9*%
X148274667Y-115156526D02*
X148274667Y-116063669D01*
X148274667Y-116063669D02*
X148214190Y-116245097D01*
X148214190Y-116245097D02*
X148093238Y-116366050D01*
X148093238Y-116366050D02*
X147911809Y-116426526D01*
X147911809Y-116426526D02*
X147790857Y-116426526D01*
X148939905Y-116426526D02*
X149181809Y-116426526D01*
X149181809Y-116426526D02*
X149302762Y-116366050D01*
X149302762Y-116366050D02*
X149363238Y-116305573D01*
X149363238Y-116305573D02*
X149484190Y-116124145D01*
X149484190Y-116124145D02*
X149544667Y-115882240D01*
X149544667Y-115882240D02*
X149544667Y-115398430D01*
X149544667Y-115398430D02*
X149484190Y-115277478D01*
X149484190Y-115277478D02*
X149423714Y-115217002D01*
X149423714Y-115217002D02*
X149302762Y-115156526D01*
X149302762Y-115156526D02*
X149060857Y-115156526D01*
X149060857Y-115156526D02*
X148939905Y-115217002D01*
X148939905Y-115217002D02*
X148879428Y-115277478D01*
X148879428Y-115277478D02*
X148818952Y-115398430D01*
X148818952Y-115398430D02*
X148818952Y-115700811D01*
X148818952Y-115700811D02*
X148879428Y-115821764D01*
X148879428Y-115821764D02*
X148939905Y-115882240D01*
X148939905Y-115882240D02*
X149060857Y-115942716D01*
X149060857Y-115942716D02*
X149302762Y-115942716D01*
X149302762Y-115942716D02*
X149423714Y-115882240D01*
X149423714Y-115882240D02*
X149484190Y-115821764D01*
X149484190Y-115821764D02*
X149544667Y-115700811D01*
D11*
%TO.C,H4*%
X135382095Y-119842619D02*
X135382095Y-118842619D01*
X135382095Y-119318809D02*
X135953523Y-119318809D01*
X135953523Y-119842619D02*
X135953523Y-118842619D01*
X136858285Y-119175952D02*
X136858285Y-119842619D01*
X136620190Y-118795000D02*
X136382095Y-119509285D01*
X136382095Y-119509285D02*
X137001142Y-119509285D01*
%TO.C,C15*%
X141972380Y-72839857D02*
X142020000Y-72887476D01*
X142020000Y-72887476D02*
X142067619Y-73030333D01*
X142067619Y-73030333D02*
X142067619Y-73125571D01*
X142067619Y-73125571D02*
X142020000Y-73268428D01*
X142020000Y-73268428D02*
X141924761Y-73363666D01*
X141924761Y-73363666D02*
X141829523Y-73411285D01*
X141829523Y-73411285D02*
X141639047Y-73458904D01*
X141639047Y-73458904D02*
X141496190Y-73458904D01*
X141496190Y-73458904D02*
X141305714Y-73411285D01*
X141305714Y-73411285D02*
X141210476Y-73363666D01*
X141210476Y-73363666D02*
X141115238Y-73268428D01*
X141115238Y-73268428D02*
X141067619Y-73125571D01*
X141067619Y-73125571D02*
X141067619Y-73030333D01*
X141067619Y-73030333D02*
X141115238Y-72887476D01*
X141115238Y-72887476D02*
X141162857Y-72839857D01*
X142067619Y-71887476D02*
X142067619Y-72458904D01*
X142067619Y-72173190D02*
X141067619Y-72173190D01*
X141067619Y-72173190D02*
X141210476Y-72268428D01*
X141210476Y-72268428D02*
X141305714Y-72363666D01*
X141305714Y-72363666D02*
X141353333Y-72458904D01*
X141067619Y-70982714D02*
X141067619Y-71458904D01*
X141067619Y-71458904D02*
X141543809Y-71506523D01*
X141543809Y-71506523D02*
X141496190Y-71458904D01*
X141496190Y-71458904D02*
X141448571Y-71363666D01*
X141448571Y-71363666D02*
X141448571Y-71125571D01*
X141448571Y-71125571D02*
X141496190Y-71030333D01*
X141496190Y-71030333D02*
X141543809Y-70982714D01*
X141543809Y-70982714D02*
X141639047Y-70935095D01*
X141639047Y-70935095D02*
X141877142Y-70935095D01*
X141877142Y-70935095D02*
X141972380Y-70982714D01*
X141972380Y-70982714D02*
X142020000Y-71030333D01*
X142020000Y-71030333D02*
X142067619Y-71125571D01*
X142067619Y-71125571D02*
X142067619Y-71363666D01*
X142067619Y-71363666D02*
X142020000Y-71458904D01*
X142020000Y-71458904D02*
X141972380Y-71506523D01*
D13*
%TO.C,CLK*%
X151445000Y-87376000D02*
G75*
G03*
X151445000Y-87376000I-950000J0D01*
G01*
%TO.C,5V*%
X198689000Y-65405000D02*
G75*
G03*
X198689000Y-65405000I-950000J0D01*
G01*
%TO.C,SD_CD*%
X147762000Y-55499000D02*
G75*
G03*
X147762000Y-55499000I-950000J0D01*
G01*
%TO.C,+BATT*%
X198181000Y-85344000D02*
G75*
G03*
X198181000Y-85344000I-950000J0D01*
G01*
%TO.C,SD_CLK*%
X167193000Y-60706000D02*
G75*
G03*
X167193000Y-60706000I-950000J0D01*
G01*
%TO.C,VBUS*%
X143825000Y-58547000D02*
G75*
G03*
X143825000Y-58547000I-950000J0D01*
G01*
%TO.C,GND*%
X173416000Y-87122000D02*
G75*
G03*
X173416000Y-87122000I-950000J0D01*
G01*
%TO.C,SD_CMD*%
X147254000Y-60325000D02*
G75*
G03*
X147254000Y-60325000I-950000J0D01*
G01*
%TO.C,uC_TX1*%
X175956000Y-66294000D02*
G75*
G03*
X175956000Y-66294000I-950000J0D01*
G01*
%TO.C,SS1*%
X156042400Y-78409800D02*
G75*
G03*
X156042400Y-78409800I-950000J0D01*
G01*
%TO.C,SCS1*%
X164018000Y-112649000D02*
G75*
G03*
X164018000Y-112649000I-950000J0D01*
G01*
D14*
%TO.C,U7*%
X160644700Y-64392000D02*
X160644700Y-68196000D01*
X160644700Y-68196000D02*
X161093357Y-68196000D01*
X162243357Y-64392000D02*
X160644700Y-64392000D01*
X162400043Y-68196000D02*
X163393357Y-68196000D01*
X164700043Y-68196000D02*
X165693357Y-68196000D01*
X167000044Y-68196000D02*
X167448700Y-68196000D01*
X167448700Y-64392000D02*
X165850043Y-64392000D01*
X167448700Y-68196000D02*
X167448700Y-64392000D01*
X160338300Y-69011800D02*
G75*
G03*
X160338300Y-69011800I-127000J0D01*
G01*
D13*
%TO.C,R5*%
X147851800Y-76084736D02*
X147851800Y-76538864D01*
X146381800Y-76084736D02*
X146381800Y-76538864D01*
%TO.C,uC_RX1*%
X174051000Y-61976000D02*
G75*
G03*
X174051000Y-61976000I-950000J0D01*
G01*
D15*
%TO.C,J6*%
X164560000Y-51450000D02*
X175180000Y-51450000D01*
X164560000Y-57950000D02*
X164560000Y-51450000D01*
X175180000Y-51450000D02*
X175180000Y-57950000D01*
X175180000Y-57950000D02*
X164560000Y-57950000D01*
%TO.C,Y1*%
X149253000Y-100203000D02*
X149253000Y-100203000D01*
X149253000Y-100203000D02*
X149253000Y-100203000D01*
X149353000Y-100203000D02*
X149353000Y-100203000D01*
D16*
X151353000Y-97803000D02*
X151353000Y-98803000D01*
X151353000Y-101603000D02*
X151353000Y-102603000D01*
X151353000Y-102603000D02*
X163353000Y-102603000D01*
X163353000Y-97803000D02*
X151353000Y-97803000D01*
X163353000Y-98803000D02*
X163353000Y-97803000D01*
X163353000Y-102603000D02*
X163353000Y-101603000D01*
D15*
X149353000Y-100203000D02*
G75*
G03*
X149253000Y-100203000I-50000J0D01*
G01*
X149253000Y-100203000D02*
G75*
G03*
X149353000Y-100203000I50000J0D01*
G01*
X149253000Y-100203000D02*
G75*
G03*
X149353000Y-100203000I50000J0D01*
G01*
D13*
%TO.C,MISO1*%
X152181600Y-78181200D02*
G75*
G03*
X152181600Y-78181200I-950000J0D01*
G01*
%TO.C,R8*%
X169391000Y-86005936D02*
X169391000Y-86460064D01*
X167921000Y-86005936D02*
X167921000Y-86460064D01*
%TO.C,J3*%
X134334000Y-56021000D02*
X134334000Y-68021000D01*
%TO.C,R9*%
X139701600Y-95045264D02*
X139701600Y-94591136D01*
X141171600Y-95045264D02*
X141171600Y-94591136D01*
%TO.C,D1*%
X135416000Y-78273000D02*
X135572000Y-78273000D01*
X137732000Y-78273000D02*
X137888000Y-78273000D01*
X135573392Y-75040666D02*
G75*
G03*
X135416485Y-78272999I1078608J-1672334D01*
G01*
X135572164Y-75671871D02*
G75*
G03*
X135572001Y-77753960I1079836J-1041129D01*
G01*
X137731999Y-77753960D02*
G75*
G03*
X137731836Y-75671871I-1079999J1040960D01*
G01*
X137887515Y-78272999D02*
G75*
G03*
X137730608Y-75040666I-1235515J1559999D01*
G01*
%TO.C,C18*%
X167232000Y-73017748D02*
X167232000Y-73540252D01*
X165762000Y-73017748D02*
X165762000Y-73540252D01*
%TO.C,C1*%
X161237600Y-72763748D02*
X161237600Y-73286252D01*
X159767600Y-72763748D02*
X159767600Y-73286252D01*
D15*
%TO.C,J5*%
X193980000Y-57980000D02*
X183360000Y-57980000D01*
X193980000Y-51480000D02*
X193980000Y-57980000D01*
X183360000Y-57980000D02*
X183360000Y-51480000D01*
X183360000Y-51480000D02*
X193980000Y-51480000D01*
D13*
%TO.C,R12*%
X169391000Y-89688936D02*
X169391000Y-90143064D01*
X167921000Y-89688936D02*
X167921000Y-90143064D01*
%TO.C,3V3*%
X148143000Y-69342000D02*
G75*
G03*
X148143000Y-69342000I-950000J0D01*
G01*
%TO.C,D2*%
X135797000Y-73320000D02*
X135953000Y-73320000D01*
X138113000Y-73320000D02*
X138269000Y-73320000D01*
X135954392Y-70087666D02*
G75*
G03*
X135797485Y-73319999I1078608J-1672334D01*
G01*
X135953164Y-70718871D02*
G75*
G03*
X135953001Y-72800960I1079836J-1041129D01*
G01*
X138112999Y-72800960D02*
G75*
G03*
X138112836Y-70718871I-1079999J1040960D01*
G01*
X138268515Y-73319999D02*
G75*
G03*
X138111608Y-70087666I-1235515J1559999D01*
G01*
%TO.C,C4*%
X154058252Y-105510000D02*
X153535748Y-105510000D01*
X154058252Y-104040000D02*
X153535748Y-104040000D01*
%TO.C,R4*%
X150341000Y-68225936D02*
X150341000Y-68680064D01*
X148871000Y-68225936D02*
X148871000Y-68680064D01*
D14*
%TO.C,U5*%
X137502900Y-87757000D02*
X138101360Y-87757000D01*
X147648638Y-87757000D02*
X148247100Y-87757000D01*
X148247100Y-87757000D02*
X148247100Y-81915000D01*
X137502900Y-81915000D02*
X137502900Y-87757000D01*
X138101360Y-81915000D02*
X137502900Y-81915000D01*
X148247100Y-81915000D02*
X147648640Y-81915000D01*
G36*
X144690498Y-89649300D02*
G01*
X144309498Y-89649300D01*
X144309498Y-89395300D01*
X144690498Y-89395300D01*
X144690498Y-89649300D01*
G37*
G36*
X144040499Y-80276700D02*
G01*
X143659499Y-80276700D01*
X143659499Y-80022700D01*
X144040499Y-80022700D01*
X144040499Y-80276700D01*
G37*
D13*
%TO.C,C13*%
X139114200Y-94556948D02*
X139114200Y-95079452D01*
X137644200Y-94556948D02*
X137644200Y-95079452D01*
D15*
%TO.C,U2*%
X167981300Y-93803800D02*
X201001300Y-93803800D01*
X201001300Y-93803800D02*
X201001300Y-124258400D01*
X201001300Y-124258400D02*
X167981300Y-124258400D01*
X167981300Y-124258400D02*
X167981300Y-93803800D01*
D13*
%TO.C,C2*%
X158342000Y-77335748D02*
X158342000Y-77858252D01*
X156872000Y-77335748D02*
X156872000Y-77858252D01*
%TO.C,R10*%
X141759000Y-95070664D02*
X141759000Y-94616536D01*
X143229000Y-95070664D02*
X143229000Y-94616536D01*
D15*
%TO.C,J10*%
X155680000Y-118050000D02*
X166300000Y-118050000D01*
X155680000Y-124550000D02*
X155680000Y-118050000D01*
X166300000Y-118050000D02*
X166300000Y-124550000D01*
X166300000Y-124550000D02*
X155680000Y-124550000D01*
D13*
%TO.C,C17*%
X164311000Y-72763748D02*
X164311000Y-73286252D01*
X162841000Y-72763748D02*
X162841000Y-73286252D01*
%TO.C,R11*%
X135586800Y-95045264D02*
X135586800Y-94591136D01*
X137056800Y-95045264D02*
X137056800Y-94591136D01*
D15*
%TO.C,J8*%
X182060000Y-58000000D02*
X176520000Y-58000000D01*
X182060000Y-51500000D02*
X182060000Y-58000000D01*
X176520000Y-58000000D02*
X176520000Y-51500000D01*
X176520000Y-51500000D02*
X182060000Y-51500000D01*
D13*
%TO.C,C14*%
X143737000Y-76065748D02*
X143737000Y-76588252D01*
X142267000Y-76065748D02*
X142267000Y-76588252D01*
D16*
%TO.C,C3*%
X193234500Y-67183000D02*
G75*
G03*
X193234500Y-67183000I-100000J0D01*
G01*
D17*
X192384500Y-67183000D02*
G75*
G03*
X192384500Y-67183000I-4000000J0D01*
G01*
D13*
%TO.C,C11*%
X146729252Y-52070500D02*
X146206748Y-52070500D01*
X146729252Y-50600500D02*
X146206748Y-50600500D01*
%TO.C,SCKO1*%
X185100000Y-60579000D02*
G75*
G03*
X185100000Y-60579000I-950000J0D01*
G01*
%TO.C,R3*%
X161263000Y-80036936D02*
X161263000Y-80491064D01*
X159793000Y-80036936D02*
X159793000Y-80491064D01*
%TO.C,SD_DAT0*%
X164145000Y-60325000D02*
G75*
G03*
X164145000Y-60325000I-950000J0D01*
G01*
D16*
%TO.C,C6*%
X180694000Y-82090500D02*
G75*
G03*
X180694000Y-82090500I-100000J0D01*
G01*
D17*
X185594000Y-87840500D02*
G75*
G03*
X185594000Y-87840500I-5000000J0D01*
G01*
D13*
%TO.C,C9*%
X157995252Y-96239000D02*
X157472748Y-96239000D01*
X157995252Y-94769000D02*
X157472748Y-94769000D01*
D17*
%TO.C,U4*%
X179869400Y-81026000D02*
X179869400Y-70866000D01*
X179869400Y-70866000D02*
X177584400Y-70866000D01*
X177584400Y-81026000D02*
X179869400Y-81026000D01*
D16*
X186856600Y-79375000D02*
G75*
G03*
X186856600Y-79375000I-100000J0D01*
G01*
D13*
%TO.C,R7*%
X137260064Y-68680000D02*
X136805936Y-68680000D01*
X137260064Y-67210000D02*
X136805936Y-67210000D01*
%TO.C,R1*%
X192940000Y-63854064D02*
X192940000Y-63399936D01*
X194410000Y-63854064D02*
X194410000Y-63399936D01*
%TO.C,D3*%
X136398000Y-106021000D02*
X136398000Y-105371000D01*
X135278000Y-105371000D02*
X137518000Y-105371000D01*
X137518000Y-105371000D02*
X137518000Y-101131000D01*
X135278000Y-104771000D02*
X137518000Y-104771000D01*
X135278000Y-104651000D02*
X137518000Y-104651000D01*
X135278000Y-104531000D02*
X137518000Y-104531000D01*
X135278000Y-101131000D02*
X135278000Y-105371000D01*
X137518000Y-101131000D02*
X135278000Y-101131000D01*
X136398000Y-100481000D02*
X136398000Y-101131000D01*
%TO.C,D4*%
X189738000Y-78167000D02*
X189738000Y-79077000D01*
X192458000Y-79077000D02*
X187018000Y-79077000D01*
X187018000Y-79077000D02*
X187018000Y-88817000D01*
X192458000Y-80502000D02*
X187018000Y-80502000D01*
X192458000Y-80622000D02*
X187018000Y-80622000D01*
X192458000Y-80742000D02*
X187018000Y-80742000D01*
X192458000Y-88817000D02*
X192458000Y-79077000D01*
X187018000Y-88817000D02*
X192458000Y-88817000D01*
X189738000Y-89727000D02*
X189738000Y-88817000D01*
%TO.C,C16*%
X145819800Y-76075948D02*
X145819800Y-76598452D01*
X144349800Y-76075948D02*
X144349800Y-76598452D01*
%TO.C,R2*%
X141324064Y-70458000D02*
X140869936Y-70458000D01*
X141324064Y-68988000D02*
X140869936Y-68988000D01*
%TO.C,MOSI1*%
X154874000Y-75946000D02*
G75*
G03*
X154874000Y-75946000I-950000J0D01*
G01*
D14*
%TO.C,U1*%
X156398000Y-92064000D02*
X156398000Y-85264000D01*
X163198000Y-92064000D02*
X156398000Y-92064000D01*
X156398000Y-85264000D02*
X163198000Y-85264000D01*
X163198000Y-85264000D02*
X163198000Y-92064000D01*
D12*
X156175000Y-93164000D02*
G75*
G03*
X156175000Y-93164000I-127000J0D01*
G01*
D14*
X157414000Y-91407200D02*
G75*
G03*
X157414000Y-91407200I-359200J0D01*
G01*
D13*
%TO.C,C5*%
X161170252Y-105510000D02*
X160647748Y-105510000D01*
X161170252Y-104040000D02*
X160647748Y-104040000D01*
D17*
%TO.C,U3*%
X157915000Y-68261500D02*
X157915000Y-72661500D01*
X151015000Y-68261500D02*
X151015000Y-72661500D01*
D16*
X157490000Y-66271500D02*
G75*
G03*
X157490000Y-66271500I-100000J0D01*
G01*
D13*
%TO.C,C10*%
X162333000Y-80525252D02*
X162333000Y-80002748D01*
X163803000Y-80525252D02*
X163803000Y-80002748D01*
D15*
%TO.C,J7*%
X201624000Y-58063000D02*
X201624000Y-63603000D01*
X195124000Y-58063000D02*
X201624000Y-58063000D01*
X201624000Y-63603000D02*
X195124000Y-63603000D01*
X195124000Y-63603000D02*
X195124000Y-58063000D01*
D13*
%TO.C,R6*%
X137514064Y-91413000D02*
X137059936Y-91413000D01*
X137514064Y-89943000D02*
X137059936Y-89943000D01*
D17*
%TO.C,J1*%
X161079000Y-63258500D02*
X161079000Y-53752500D01*
X160107000Y-63258500D02*
X161079000Y-63258500D01*
X154165000Y-63258500D02*
X157517000Y-63258500D01*
X151548000Y-63258500D02*
X149129000Y-63258500D01*
X149129000Y-63258500D02*
X149129000Y-62769500D01*
X149129000Y-61108500D02*
X149129000Y-59108500D01*
X149129000Y-57408500D02*
X149129000Y-53258500D01*
D16*
X152036000Y-50757500D02*
G75*
G03*
X152036000Y-50757500I-100000J0D01*
G01*
D17*
%TO.C,L1*%
X201231000Y-69664000D02*
X201231000Y-78164000D01*
X193231000Y-69664000D02*
X193231000Y-78164000D01*
D15*
%TO.C,J9*%
X142880000Y-118050000D02*
X153500000Y-118050000D01*
X142880000Y-124550000D02*
X142880000Y-118050000D01*
X153500000Y-118050000D02*
X153500000Y-124550000D01*
X153500000Y-124550000D02*
X142880000Y-124550000D01*
D13*
%TO.C,C15*%
X141654200Y-76065748D02*
X141654200Y-76588252D01*
X140184200Y-76065748D02*
X140184200Y-76588252D01*
%TD*%
M02*
