%TF.GenerationSoftware,KiCad,Pcbnew,7.0.1-0*%
%TF.CreationDate,2023-10-30T18:15:43-04:00*%
%TF.ProjectId,WaveWise_Buoy,57617665-5769-4736-955f-42756f792e6b,rev?*%
%TF.SameCoordinates,Original*%
%TF.FileFunction,Soldermask,Top*%
%TF.FilePolarity,Negative*%
%FSLAX46Y46*%
G04 Gerber Fmt 4.6, Leading zero omitted, Abs format (unit mm)*
G04 Created by KiCad (PCBNEW 7.0.1-0) date 2023-10-30 18:15:43*
%MOMM*%
%LPD*%
G01*
G04 APERTURE LIST*
G04 Aperture macros list*
%AMRoundRect*
0 Rectangle with rounded corners*
0 $1 Rounding radius*
0 $2 $3 $4 $5 $6 $7 $8 $9 X,Y pos of 4 corners*
0 Add a 4 corners polygon primitive as box body*
4,1,4,$2,$3,$4,$5,$6,$7,$8,$9,$2,$3,0*
0 Add four circle primitives for the rounded corners*
1,1,$1+$1,$2,$3*
1,1,$1+$1,$4,$5*
1,1,$1+$1,$6,$7*
1,1,$1+$1,$8,$9*
0 Add four rect primitives between the rounded corners*
20,1,$1+$1,$2,$3,$4,$5,0*
20,1,$1+$1,$4,$5,$6,$7,0*
20,1,$1+$1,$6,$7,$8,$9,0*
20,1,$1+$1,$8,$9,$2,$3,0*%
G04 Aperture macros list end*
%ADD10C,0.010000*%
%ADD11C,1.500000*%
%ADD12R,0.850800X1.761200*%
%ADD13R,3.150799X1.761200*%
%ADD14RoundRect,0.250000X-0.450000X0.262500X-0.450000X-0.262500X0.450000X-0.262500X0.450000X0.262500X0*%
%ADD15C,1.800000*%
%ADD16R,6.000000X2.000000*%
%ADD17C,0.800000*%
%ADD18RoundRect,0.100000X-0.750000X0.100000X-0.750000X-0.100000X0.750000X-0.100000X0.750000X0.100000X0*%
%ADD19RoundRect,0.312500X-0.587500X0.312500X-0.587500X-0.312500X0.587500X-0.312500X0.587500X0.312500X0*%
%ADD20RoundRect,0.312500X-0.387500X0.312500X-0.387500X-0.312500X0.387500X-0.312500X0.387500X0.312500X0*%
%ADD21RoundRect,0.250000X0.450000X-0.262500X0.450000X0.262500X-0.450000X0.262500X-0.450000X-0.262500X0*%
%ADD22R,1.800000X1.800000*%
%ADD23RoundRect,0.250000X-0.475000X0.250000X-0.475000X-0.250000X0.475000X-0.250000X0.475000X0.250000X0*%
%ADD24RoundRect,0.250000X0.250000X0.475000X-0.250000X0.475000X-0.250000X-0.475000X0.250000X-0.475000X0*%
%ADD25C,2.500000*%
%ADD26R,0.431800X1.511300*%
%ADD27C,2.000000*%
%ADD28R,1.500000X1.500000*%
%ADD29R,2.000000X2.000000*%
%ADD30C,1.404000*%
%ADD31RoundRect,0.102000X0.600000X0.600000X-0.600000X0.600000X-0.600000X-0.600000X0.600000X-0.600000X0*%
%ADD32RoundRect,0.102000X-0.600000X0.600000X-0.600000X-0.600000X0.600000X-0.600000X0.600000X0.600000X0*%
%ADD33RoundRect,0.250000X0.262500X0.450000X-0.262500X0.450000X-0.262500X-0.450000X0.262500X-0.450000X0*%
%ADD34R,1.600000X1.600000*%
%ADD35O,1.600000X1.600000*%
%ADD36R,3.200000X3.200000*%
%ADD37O,3.200000X3.200000*%
%ADD38RoundRect,0.102000X0.275000X-0.750000X0.275000X0.750000X-0.275000X0.750000X-0.275000X-0.750000X0*%
%ADD39RoundRect,0.102000X0.750000X-0.275000X0.750000X0.275000X-0.750000X0.275000X-0.750000X-0.275000X0*%
%ADD40RoundRect,0.122500X-0.184500X0.764500X-0.184500X-0.764500X0.184500X-0.764500X0.184500X0.764500X0*%
%ADD41RoundRect,0.250000X0.475000X-0.250000X0.475000X0.250000X-0.475000X0.250000X-0.475000X-0.250000X0*%
%ADD42RoundRect,0.076200X0.425000X0.550000X-0.425000X0.550000X-0.425000X-0.550000X0.425000X-0.550000X0*%
%ADD43RoundRect,0.076200X0.375000X0.550000X-0.375000X0.550000X-0.375000X-0.550000X0.375000X-0.550000X0*%
%ADD44RoundRect,0.076200X0.600000X0.500000X-0.600000X0.500000X-0.600000X-0.500000X0.600000X-0.500000X0*%
%ADD45RoundRect,0.076200X0.775000X0.675000X-0.775000X0.675000X-0.775000X-0.675000X0.775000X-0.675000X0*%
%ADD46RoundRect,0.076200X0.585000X0.900000X-0.585000X0.900000X-0.585000X-0.900000X0.585000X-0.900000X0*%
%ADD47RoundRect,0.076200X0.950000X0.675000X-0.950000X0.675000X-0.950000X-0.675000X0.950000X-0.675000X0*%
%ADD48RoundRect,0.102000X-2.000000X2.150000X-2.000000X-2.150000X2.000000X-2.150000X2.000000X2.150000X0*%
G04 APERTURE END LIST*
%TO.C,U4*%
D10*
X185334400Y-79916000D02*
X181794400Y-79916000D01*
X181794400Y-78776000D01*
X185334400Y-78776000D01*
X185334400Y-79916000D01*
G36*
X185334400Y-79916000D02*
G01*
X181794400Y-79916000D01*
X181794400Y-78776000D01*
X185334400Y-78776000D01*
X185334400Y-79916000D01*
G37*
X185334400Y-78216000D02*
X181794400Y-78216000D01*
X181794400Y-77076000D01*
X185334400Y-77076000D01*
X185334400Y-78216000D01*
G36*
X185334400Y-78216000D02*
G01*
X181794400Y-78216000D01*
X181794400Y-77076000D01*
X185334400Y-77076000D01*
X185334400Y-78216000D01*
G37*
X185334400Y-76516000D02*
X181794400Y-76516000D01*
X181794400Y-75376000D01*
X185334400Y-75376000D01*
X185334400Y-76516000D01*
G36*
X185334400Y-76516000D02*
G01*
X181794400Y-76516000D01*
X181794400Y-75376000D01*
X185334400Y-75376000D01*
X185334400Y-76516000D01*
G37*
X185334400Y-74816000D02*
X181794400Y-74816000D01*
X181794400Y-73676000D01*
X185334400Y-73676000D01*
X185334400Y-74816000D01*
G36*
X185334400Y-74816000D02*
G01*
X181794400Y-74816000D01*
X181794400Y-73676000D01*
X185334400Y-73676000D01*
X185334400Y-74816000D01*
G37*
X185334400Y-73116000D02*
X181794400Y-73116000D01*
X181794400Y-71976000D01*
X185334400Y-71976000D01*
X185334400Y-73116000D01*
G36*
X185334400Y-73116000D02*
G01*
X181794400Y-73116000D01*
X181794400Y-71976000D01*
X185334400Y-71976000D01*
X185334400Y-73116000D01*
G37*
X177334400Y-81366000D02*
X168594400Y-81366000D01*
X168594400Y-70526000D01*
X177334400Y-70526000D01*
X177334400Y-81366000D01*
G36*
X177334400Y-81366000D02*
G01*
X168594400Y-81366000D01*
X168594400Y-70526000D01*
X177334400Y-70526000D01*
X177334400Y-81366000D01*
G37*
%TD*%
D11*
%TO.C,CLK*%
X150495000Y-87376000D03*
%TD*%
%TO.C,5V*%
X197739000Y-65405000D03*
%TD*%
%TO.C,SD_CD*%
X146812000Y-55499000D03*
%TD*%
%TO.C,+BATT*%
X197231000Y-85344000D03*
%TD*%
%TO.C,SD_CLK*%
X166243000Y-60706000D03*
%TD*%
%TO.C,VBUS*%
X142875000Y-58547000D03*
%TD*%
%TO.C,GND*%
X172466000Y-87122000D03*
%TD*%
%TO.C,SD_CMD*%
X146304000Y-60325000D03*
%TD*%
%TO.C,uC_TX1*%
X175006000Y-66294000D03*
%TD*%
%TO.C,SS1*%
X155092400Y-78409800D03*
%TD*%
%TO.C,SCS1*%
X163068000Y-112649000D03*
%TD*%
D12*
%TO.C,U7*%
X161746700Y-69319000D03*
X164046700Y-69319000D03*
X166346700Y-69319000D03*
D13*
X164046700Y-63269000D03*
%TD*%
D14*
%TO.C,R5*%
X147116800Y-75399300D03*
X147116800Y-77224300D03*
%TD*%
D11*
%TO.C,uC_RX1*%
X173101000Y-61976000D03*
%TD*%
D15*
%TO.C,J6*%
X166060000Y-54700000D03*
X168600000Y-54700000D03*
X171140000Y-54700000D03*
X173680000Y-54700000D03*
%TD*%
D16*
%TO.C,Y1*%
X152853000Y-100203000D03*
X161853000Y-100203000D03*
%TD*%
D11*
%TO.C,MISO1*%
X151231600Y-78181200D03*
%TD*%
D14*
%TO.C,R8*%
X168656000Y-85320500D03*
X168656000Y-87145500D03*
%TD*%
D17*
%TO.C,J3*%
X138684000Y-60071000D03*
D18*
X139534000Y-60721000D03*
D17*
X138684000Y-63971000D03*
D18*
X139534000Y-61371000D03*
X139534000Y-62021000D03*
X139534000Y-62671000D03*
X139534000Y-63321000D03*
D19*
X136784000Y-58421000D03*
D20*
X139584000Y-58721000D03*
X139584000Y-65321000D03*
D19*
X136784000Y-65621000D03*
%TD*%
D21*
%TO.C,R9*%
X140436600Y-95730700D03*
X140436600Y-93905700D03*
%TD*%
D22*
%TO.C,D1*%
X136652000Y-77983000D03*
D15*
X136652000Y-75443000D03*
%TD*%
D23*
%TO.C,C18*%
X166497000Y-72329000D03*
X166497000Y-74229000D03*
%TD*%
%TO.C,C1*%
X160502600Y-72075000D03*
X160502600Y-73975000D03*
%TD*%
D15*
%TO.C,J5*%
X192480000Y-54730000D03*
X189940000Y-54730000D03*
X187400000Y-54730000D03*
X184860000Y-54730000D03*
%TD*%
D14*
%TO.C,R12*%
X168656000Y-89003500D03*
X168656000Y-90828500D03*
%TD*%
D11*
%TO.C,3V3*%
X147193000Y-69342000D03*
%TD*%
D22*
%TO.C,D2*%
X137033000Y-73030000D03*
D15*
X137033000Y-70490000D03*
%TD*%
D24*
%TO.C,C4*%
X154747000Y-104775000D03*
X152847000Y-104775000D03*
%TD*%
D25*
%TO.C,H1*%
X197993000Y-53721000D03*
%TD*%
D14*
%TO.C,R4*%
X149606000Y-67540500D03*
X149606000Y-69365500D03*
%TD*%
D26*
%TO.C,U5*%
X138650000Y-88385650D03*
X139300001Y-88385650D03*
X139950000Y-88385650D03*
X140600001Y-88385650D03*
X141249999Y-88385650D03*
X141900001Y-88385650D03*
X142549999Y-88385650D03*
X143199998Y-88385650D03*
X143849999Y-88385650D03*
X144499998Y-88385650D03*
X145149999Y-88385650D03*
X145799998Y-88385650D03*
X146449999Y-88385650D03*
X147099998Y-88385650D03*
X147100000Y-81286350D03*
X146449999Y-81286350D03*
X145800000Y-81286350D03*
X145149999Y-81286350D03*
X144500001Y-81286350D03*
X143849999Y-81286350D03*
X143200001Y-81286350D03*
X142549999Y-81286350D03*
X141900001Y-81286350D03*
X141249999Y-81286350D03*
X140600001Y-81286350D03*
X139950000Y-81286350D03*
X139300001Y-81286350D03*
X138650000Y-81286350D03*
%TD*%
D23*
%TO.C,C13*%
X138379200Y-93868200D03*
X138379200Y-95768200D03*
%TD*%
D27*
%TO.C,U2*%
X196810300Y-100280800D03*
D11*
X199705900Y-100128400D03*
X199705900Y-102668400D03*
D27*
X196810300Y-107280800D03*
D11*
X199705900Y-110288400D03*
D27*
X196810300Y-110780800D03*
D11*
X199705900Y-112828400D03*
D27*
X196810300Y-114280800D03*
D11*
X199705900Y-115368400D03*
D27*
X196810300Y-117780800D03*
D11*
X199705900Y-117908400D03*
X181951300Y-123064600D03*
X179411300Y-123064600D03*
X176871300Y-123064600D03*
X174331300Y-123064600D03*
X169251300Y-123064600D03*
X169251300Y-120524600D03*
X169251300Y-117984600D03*
X169251300Y-115444600D03*
X169251300Y-112904600D03*
X169251300Y-110364600D03*
X169251300Y-107824600D03*
X169251300Y-105284600D03*
X169251300Y-102744600D03*
X169251300Y-97664600D03*
X169251300Y-95124600D03*
X187005900Y-95048400D03*
D28*
X169251300Y-100204600D03*
X187005900Y-100128400D03*
D29*
X196810300Y-103780800D03*
D28*
X199705900Y-105208400D03*
X199705900Y-107748400D03*
%TD*%
D23*
%TO.C,C2*%
X157607000Y-76647000D03*
X157607000Y-78547000D03*
%TD*%
D21*
%TO.C,R10*%
X142494000Y-95756100D03*
X142494000Y-93931100D03*
%TD*%
D15*
%TO.C,J10*%
X157180000Y-121300000D03*
X159720000Y-121300000D03*
X162260000Y-121300000D03*
X164800000Y-121300000D03*
%TD*%
D23*
%TO.C,C17*%
X163576000Y-72075000D03*
X163576000Y-73975000D03*
%TD*%
D21*
%TO.C,R11*%
X136321800Y-95730700D03*
X136321800Y-93905700D03*
%TD*%
D22*
%TO.C,J8*%
X180560000Y-54750000D03*
D15*
X178020000Y-54750000D03*
%TD*%
D23*
%TO.C,C14*%
X143002000Y-75377000D03*
X143002000Y-77277000D03*
%TD*%
D30*
%TO.C,C3*%
X185884500Y-67183000D03*
D31*
X190884500Y-67183000D03*
%TD*%
D24*
%TO.C,C11*%
X147418000Y-51335500D03*
X145518000Y-51335500D03*
%TD*%
D11*
%TO.C,SCKO1*%
X184150000Y-60579000D03*
%TD*%
D14*
%TO.C,R3*%
X160528000Y-79351500D03*
X160528000Y-81176500D03*
%TD*%
D11*
%TO.C,SD_DAT0*%
X163195000Y-60325000D03*
%TD*%
D30*
%TO.C,C6*%
X180594000Y-90340500D03*
D32*
X180594000Y-85340500D03*
%TD*%
D25*
%TO.C,H3*%
X198374000Y-121920000D03*
%TD*%
D24*
%TO.C,C9*%
X158684000Y-95504000D03*
X156784000Y-95504000D03*
%TD*%
D33*
%TO.C,R7*%
X137945500Y-67945000D03*
X136120500Y-67945000D03*
%TD*%
D21*
%TO.C,R1*%
X193675000Y-64539500D03*
X193675000Y-62714500D03*
%TD*%
D34*
%TO.C,D3*%
X136398000Y-107061000D03*
D35*
X136398000Y-99441000D03*
%TD*%
D25*
%TO.C,H2*%
X138938000Y-53340000D03*
%TD*%
D36*
%TO.C,D4*%
X189738000Y-76327000D03*
D37*
X189738000Y-91567000D03*
%TD*%
D23*
%TO.C,C16*%
X145084800Y-75387200D03*
X145084800Y-77287200D03*
%TD*%
D33*
%TO.C,R2*%
X142009500Y-69723000D03*
X140184500Y-69723000D03*
%TD*%
D11*
%TO.C,MOSI1*%
X153924000Y-75946000D03*
%TD*%
D38*
%TO.C,U1*%
X156998000Y-92964000D03*
X157798000Y-92964000D03*
X158598000Y-92964000D03*
X159398000Y-92964000D03*
X160198000Y-92964000D03*
X160998000Y-92964000D03*
X161798000Y-92964000D03*
X162598000Y-92964000D03*
D39*
X164098000Y-91464000D03*
X164098000Y-90664000D03*
X164098000Y-89864000D03*
X164098000Y-89064000D03*
X164098000Y-88264000D03*
X164098000Y-87464000D03*
X164098000Y-86664000D03*
X164098000Y-85864000D03*
D38*
X162598000Y-84364000D03*
X161798000Y-84364000D03*
X160998000Y-84364000D03*
X160198000Y-84364000D03*
X159398000Y-84364000D03*
X158598000Y-84364000D03*
X157798000Y-84364000D03*
X156998000Y-84364000D03*
D39*
X155498000Y-85864000D03*
X155498000Y-86664000D03*
X155498000Y-87464000D03*
X155498000Y-88264000D03*
X155498000Y-89064000D03*
X155498000Y-89864000D03*
X155498000Y-90664000D03*
X155498000Y-91464000D03*
%TD*%
D24*
%TO.C,C5*%
X161859000Y-104775000D03*
X159959000Y-104775000D03*
%TD*%
D40*
%TO.C,U3*%
X157390000Y-67591500D03*
X156740000Y-67591500D03*
X156090000Y-67591500D03*
X155440000Y-67591500D03*
X154790000Y-67591500D03*
X154140000Y-67591500D03*
X153490000Y-67591500D03*
X152840000Y-67591500D03*
X152190000Y-67591500D03*
X151540000Y-67591500D03*
X151540000Y-73331500D03*
X152190000Y-73331500D03*
X152840000Y-73331500D03*
X153490000Y-73331500D03*
X154140000Y-73331500D03*
X154790000Y-73331500D03*
X155440000Y-73331500D03*
X156090000Y-73331500D03*
X156740000Y-73331500D03*
X157390000Y-73331500D03*
%TD*%
D41*
%TO.C,C10*%
X163068000Y-81214000D03*
X163068000Y-79314000D03*
%TD*%
D22*
%TO.C,J7*%
X198374000Y-59563000D03*
D15*
X198374000Y-62103000D03*
%TD*%
D33*
%TO.C,R6*%
X138199500Y-90678000D03*
X136374500Y-90678000D03*
%TD*%
D42*
%TO.C,J1*%
X151999000Y-52108500D03*
X153099000Y-52108500D03*
X154199000Y-52108500D03*
X155299000Y-52108500D03*
X156399000Y-52108500D03*
X157499000Y-52108500D03*
X158599000Y-52108500D03*
D43*
X159649000Y-52108500D03*
D44*
X149364000Y-58258500D03*
X149364000Y-61958500D03*
D45*
X149539000Y-52233500D03*
D46*
X160859000Y-52458500D03*
D47*
X158834000Y-62933500D03*
X152864000Y-62933500D03*
%TD*%
D48*
%TO.C,L1*%
X197231000Y-69864000D03*
X197231000Y-77964000D03*
%TD*%
D15*
%TO.C,J9*%
X144380000Y-121300000D03*
X146920000Y-121300000D03*
X149460000Y-121300000D03*
X152000000Y-121300000D03*
%TD*%
D25*
%TO.C,H4*%
X138938000Y-122174000D03*
%TD*%
D23*
%TO.C,C15*%
X140919200Y-75377000D03*
X140919200Y-77277000D03*
%TD*%
M02*
