%TF.GenerationSoftware,KiCad,Pcbnew,7.0.1-0*%
%TF.CreationDate,2023-10-30T18:15:43-04:00*%
%TF.ProjectId,WaveWise_Buoy,57617665-5769-4736-955f-42756f792e6b,rev?*%
%TF.SameCoordinates,Original*%
%TF.FileFunction,Paste,Top*%
%TF.FilePolarity,Positive*%
%FSLAX46Y46*%
G04 Gerber Fmt 4.6, Leading zero omitted, Abs format (unit mm)*
G04 Created by KiCad (PCBNEW 7.0.1-0) date 2023-10-30 18:15:43*
%MOMM*%
%LPD*%
G01*
G04 APERTURE LIST*
G04 Aperture macros list*
%AMRoundRect*
0 Rectangle with rounded corners*
0 $1 Rounding radius*
0 $2 $3 $4 $5 $6 $7 $8 $9 X,Y pos of 4 corners*
0 Add a 4 corners polygon primitive as box body*
4,1,4,$2,$3,$4,$5,$6,$7,$8,$9,$2,$3,0*
0 Add four circle primitives for the rounded corners*
1,1,$1+$1,$2,$3*
1,1,$1+$1,$4,$5*
1,1,$1+$1,$6,$7*
1,1,$1+$1,$8,$9*
0 Add four rect primitives between the rounded corners*
20,1,$1+$1,$2,$3,$4,$5,0*
20,1,$1+$1,$4,$5,$6,$7,0*
20,1,$1+$1,$6,$7,$8,$9,0*
20,1,$1+$1,$8,$9,$2,$3,0*%
G04 Aperture macros list end*
%ADD10C,0.010000*%
%ADD11R,0.850800X1.761200*%
%ADD12R,3.150799X1.761200*%
%ADD13RoundRect,0.250000X-0.450000X0.262500X-0.450000X-0.262500X0.450000X-0.262500X0.450000X0.262500X0*%
%ADD14R,6.000000X2.000000*%
%ADD15RoundRect,0.100000X-0.750000X0.100000X-0.750000X-0.100000X0.750000X-0.100000X0.750000X0.100000X0*%
%ADD16RoundRect,0.250000X0.450000X-0.262500X0.450000X0.262500X-0.450000X0.262500X-0.450000X-0.262500X0*%
%ADD17RoundRect,0.250000X-0.475000X0.250000X-0.475000X-0.250000X0.475000X-0.250000X0.475000X0.250000X0*%
%ADD18RoundRect,0.250000X0.250000X0.475000X-0.250000X0.475000X-0.250000X-0.475000X0.250000X-0.475000X0*%
%ADD19R,0.431800X1.511300*%
%ADD20RoundRect,0.250000X0.262500X0.450000X-0.262500X0.450000X-0.262500X-0.450000X0.262500X-0.450000X0*%
%ADD21R,0.550000X1.500000*%
%ADD22R,1.500000X0.550000*%
%ADD23RoundRect,0.020500X-0.184500X0.764500X-0.184500X-0.764500X0.184500X-0.764500X0.184500X0.764500X0*%
%ADD24RoundRect,0.250000X0.475000X-0.250000X0.475000X0.250000X-0.475000X0.250000X-0.475000X-0.250000X0*%
%ADD25R,0.850000X1.100000*%
%ADD26R,0.750000X1.100000*%
%ADD27R,1.200000X1.000000*%
%ADD28R,1.550000X1.350000*%
%ADD29R,1.170000X1.800000*%
%ADD30R,1.900000X1.350000*%
%ADD31R,4.000000X4.300000*%
G04 APERTURE END LIST*
%TO.C,U4*%
D10*
X185214400Y-79796000D02*
X181914400Y-79796000D01*
X181914400Y-78896000D01*
X185214400Y-78896000D01*
X185214400Y-79796000D01*
G36*
X185214400Y-79796000D02*
G01*
X181914400Y-79796000D01*
X181914400Y-78896000D01*
X185214400Y-78896000D01*
X185214400Y-79796000D01*
G37*
X185214400Y-78096000D02*
X181914400Y-78096000D01*
X181914400Y-77196000D01*
X185214400Y-77196000D01*
X185214400Y-78096000D01*
G36*
X185214400Y-78096000D02*
G01*
X181914400Y-78096000D01*
X181914400Y-77196000D01*
X185214400Y-77196000D01*
X185214400Y-78096000D01*
G37*
X185214400Y-76396000D02*
X181914400Y-76396000D01*
X181914400Y-75496000D01*
X185214400Y-75496000D01*
X185214400Y-76396000D01*
G36*
X185214400Y-76396000D02*
G01*
X181914400Y-76396000D01*
X181914400Y-75496000D01*
X185214400Y-75496000D01*
X185214400Y-76396000D01*
G37*
X185214400Y-74696000D02*
X181914400Y-74696000D01*
X181914400Y-73796000D01*
X185214400Y-73796000D01*
X185214400Y-74696000D01*
G36*
X185214400Y-74696000D02*
G01*
X181914400Y-74696000D01*
X181914400Y-73796000D01*
X185214400Y-73796000D01*
X185214400Y-74696000D01*
G37*
X185214400Y-72996000D02*
X181914400Y-72996000D01*
X181914400Y-72096000D01*
X185214400Y-72096000D01*
X185214400Y-72996000D01*
G36*
X185214400Y-72996000D02*
G01*
X181914400Y-72996000D01*
X181914400Y-72096000D01*
X185214400Y-72096000D01*
X185214400Y-72996000D01*
G37*
X177214400Y-81246000D02*
X168714400Y-81246000D01*
X168714400Y-70646000D01*
X177214400Y-70646000D01*
X177214400Y-81246000D01*
G36*
X177214400Y-81246000D02*
G01*
X168714400Y-81246000D01*
X168714400Y-70646000D01*
X177214400Y-70646000D01*
X177214400Y-81246000D01*
G37*
%TD*%
D11*
%TO.C,U7*%
X161746700Y-69319000D03*
X164046700Y-69319000D03*
X166346700Y-69319000D03*
D12*
X164046700Y-63269000D03*
%TD*%
D13*
%TO.C,R5*%
X147116800Y-75399300D03*
X147116800Y-77224300D03*
%TD*%
D14*
%TO.C,Y1*%
X152853000Y-100203000D03*
X161853000Y-100203000D03*
%TD*%
D13*
%TO.C,R8*%
X168656000Y-85320500D03*
X168656000Y-87145500D03*
%TD*%
D15*
%TO.C,J3*%
X139534000Y-60721000D03*
X139534000Y-61371000D03*
X139534000Y-62021000D03*
X139534000Y-62671000D03*
X139534000Y-63321000D03*
%TD*%
D16*
%TO.C,R9*%
X140436600Y-95730700D03*
X140436600Y-93905700D03*
%TD*%
D17*
%TO.C,C18*%
X166497000Y-72329000D03*
X166497000Y-74229000D03*
%TD*%
%TO.C,C1*%
X160502600Y-72075000D03*
X160502600Y-73975000D03*
%TD*%
D13*
%TO.C,R12*%
X168656000Y-89003500D03*
X168656000Y-90828500D03*
%TD*%
D18*
%TO.C,C4*%
X154747000Y-104775000D03*
X152847000Y-104775000D03*
%TD*%
D13*
%TO.C,R4*%
X149606000Y-67540500D03*
X149606000Y-69365500D03*
%TD*%
D19*
%TO.C,U5*%
X138650000Y-88385650D03*
X139300001Y-88385650D03*
X139950000Y-88385650D03*
X140600001Y-88385650D03*
X141249999Y-88385650D03*
X141900001Y-88385650D03*
X142549999Y-88385650D03*
X143199998Y-88385650D03*
X143849999Y-88385650D03*
X144499998Y-88385650D03*
X145149999Y-88385650D03*
X145799998Y-88385650D03*
X146449999Y-88385650D03*
X147099998Y-88385650D03*
X147100000Y-81286350D03*
X146449999Y-81286350D03*
X145800000Y-81286350D03*
X145149999Y-81286350D03*
X144500001Y-81286350D03*
X143849999Y-81286350D03*
X143200001Y-81286350D03*
X142549999Y-81286350D03*
X141900001Y-81286350D03*
X141249999Y-81286350D03*
X140600001Y-81286350D03*
X139950000Y-81286350D03*
X139300001Y-81286350D03*
X138650000Y-81286350D03*
%TD*%
D17*
%TO.C,C13*%
X138379200Y-93868200D03*
X138379200Y-95768200D03*
%TD*%
%TO.C,C2*%
X157607000Y-76647000D03*
X157607000Y-78547000D03*
%TD*%
D16*
%TO.C,R10*%
X142494000Y-95756100D03*
X142494000Y-93931100D03*
%TD*%
D17*
%TO.C,C17*%
X163576000Y-72075000D03*
X163576000Y-73975000D03*
%TD*%
D16*
%TO.C,R11*%
X136321800Y-95730700D03*
X136321800Y-93905700D03*
%TD*%
D17*
%TO.C,C14*%
X143002000Y-75377000D03*
X143002000Y-77277000D03*
%TD*%
D18*
%TO.C,C11*%
X147418000Y-51335500D03*
X145518000Y-51335500D03*
%TD*%
D13*
%TO.C,R3*%
X160528000Y-79351500D03*
X160528000Y-81176500D03*
%TD*%
D18*
%TO.C,C9*%
X158684000Y-95504000D03*
X156784000Y-95504000D03*
%TD*%
D20*
%TO.C,R7*%
X137945500Y-67945000D03*
X136120500Y-67945000D03*
%TD*%
D16*
%TO.C,R1*%
X193675000Y-64539500D03*
X193675000Y-62714500D03*
%TD*%
D17*
%TO.C,C16*%
X145084800Y-75387200D03*
X145084800Y-77287200D03*
%TD*%
D20*
%TO.C,R2*%
X142009500Y-69723000D03*
X140184500Y-69723000D03*
%TD*%
D21*
%TO.C,U1*%
X156998000Y-92964000D03*
X157798000Y-92964000D03*
X158598000Y-92964000D03*
X159398000Y-92964000D03*
X160198000Y-92964000D03*
X160998000Y-92964000D03*
X161798000Y-92964000D03*
X162598000Y-92964000D03*
D22*
X164098000Y-91464000D03*
X164098000Y-90664000D03*
X164098000Y-89864000D03*
X164098000Y-89064000D03*
X164098000Y-88264000D03*
X164098000Y-87464000D03*
X164098000Y-86664000D03*
X164098000Y-85864000D03*
D21*
X162598000Y-84364000D03*
X161798000Y-84364000D03*
X160998000Y-84364000D03*
X160198000Y-84364000D03*
X159398000Y-84364000D03*
X158598000Y-84364000D03*
X157798000Y-84364000D03*
X156998000Y-84364000D03*
D22*
X155498000Y-85864000D03*
X155498000Y-86664000D03*
X155498000Y-87464000D03*
X155498000Y-88264000D03*
X155498000Y-89064000D03*
X155498000Y-89864000D03*
X155498000Y-90664000D03*
X155498000Y-91464000D03*
%TD*%
D18*
%TO.C,C5*%
X161859000Y-104775000D03*
X159959000Y-104775000D03*
%TD*%
D23*
%TO.C,U3*%
X157390000Y-67591500D03*
X156740000Y-67591500D03*
X156090000Y-67591500D03*
X155440000Y-67591500D03*
X154790000Y-67591500D03*
X154140000Y-67591500D03*
X153490000Y-67591500D03*
X152840000Y-67591500D03*
X152190000Y-67591500D03*
X151540000Y-67591500D03*
X151540000Y-73331500D03*
X152190000Y-73331500D03*
X152840000Y-73331500D03*
X153490000Y-73331500D03*
X154140000Y-73331500D03*
X154790000Y-73331500D03*
X155440000Y-73331500D03*
X156090000Y-73331500D03*
X156740000Y-73331500D03*
X157390000Y-73331500D03*
%TD*%
D24*
%TO.C,C10*%
X163068000Y-81214000D03*
X163068000Y-79314000D03*
%TD*%
D20*
%TO.C,R6*%
X138199500Y-90678000D03*
X136374500Y-90678000D03*
%TD*%
D25*
%TO.C,J1*%
X151999000Y-52108500D03*
X153099000Y-52108500D03*
X154199000Y-52108500D03*
X155299000Y-52108500D03*
X156399000Y-52108500D03*
X157499000Y-52108500D03*
X158599000Y-52108500D03*
D26*
X159649000Y-52108500D03*
D27*
X149364000Y-58258500D03*
X149364000Y-61958500D03*
D28*
X149539000Y-52233500D03*
D29*
X160859000Y-52458500D03*
D30*
X158834000Y-62933500D03*
X152864000Y-62933500D03*
%TD*%
D31*
%TO.C,L1*%
X197231000Y-69864000D03*
X197231000Y-77964000D03*
%TD*%
D17*
%TO.C,C15*%
X140919200Y-75377000D03*
X140919200Y-77277000D03*
%TD*%
M02*
