%TF.GenerationSoftware,KiCad,Pcbnew,7.0.1-0*%
%TF.CreationDate,2023-10-30T18:15:43-04:00*%
%TF.ProjectId,WaveWise_Buoy,57617665-5769-4736-955f-42756f792e6b,rev?*%
%TF.SameCoordinates,Original*%
%TF.FileFunction,Copper,L1,Top*%
%TF.FilePolarity,Positive*%
%FSLAX46Y46*%
G04 Gerber Fmt 4.6, Leading zero omitted, Abs format (unit mm)*
G04 Created by KiCad (PCBNEW 7.0.1-0) date 2023-10-30 18:15:43*
%MOMM*%
%LPD*%
G01*
G04 APERTURE LIST*
G04 Aperture macros list*
%AMRoundRect*
0 Rectangle with rounded corners*
0 $1 Rounding radius*
0 $2 $3 $4 $5 $6 $7 $8 $9 X,Y pos of 4 corners*
0 Add a 4 corners polygon primitive as box body*
4,1,4,$2,$3,$4,$5,$6,$7,$8,$9,$2,$3,0*
0 Add four circle primitives for the rounded corners*
1,1,$1+$1,$2,$3*
1,1,$1+$1,$4,$5*
1,1,$1+$1,$6,$7*
1,1,$1+$1,$8,$9*
0 Add four rect primitives between the rounded corners*
20,1,$1+$1,$2,$3,$4,$5,0*
20,1,$1+$1,$4,$5,$6,$7,0*
20,1,$1+$1,$6,$7,$8,$9,0*
20,1,$1+$1,$8,$9,$2,$3,0*%
G04 Aperture macros list end*
%TA.AperFunction,SMDPad,CuDef*%
%ADD10C,1.500000*%
%TD*%
%TA.AperFunction,SMDPad,CuDef*%
%ADD11R,0.850800X1.761200*%
%TD*%
%TA.AperFunction,SMDPad,CuDef*%
%ADD12R,3.150799X1.761200*%
%TD*%
%TA.AperFunction,SMDPad,CuDef*%
%ADD13RoundRect,0.250000X-0.450000X0.262500X-0.450000X-0.262500X0.450000X-0.262500X0.450000X0.262500X0*%
%TD*%
%TA.AperFunction,ComponentPad*%
%ADD14C,1.800000*%
%TD*%
%TA.AperFunction,SMDPad,CuDef*%
%ADD15R,6.000000X2.000000*%
%TD*%
%TA.AperFunction,ComponentPad*%
%ADD16C,0.800000*%
%TD*%
%TA.AperFunction,SMDPad,CuDef*%
%ADD17RoundRect,0.100000X-0.750000X0.100000X-0.750000X-0.100000X0.750000X-0.100000X0.750000X0.100000X0*%
%TD*%
%TA.AperFunction,ComponentPad*%
%ADD18RoundRect,0.312500X-0.587500X0.312500X-0.587500X-0.312500X0.587500X-0.312500X0.587500X0.312500X0*%
%TD*%
%TA.AperFunction,ComponentPad*%
%ADD19RoundRect,0.312500X-0.387500X0.312500X-0.387500X-0.312500X0.387500X-0.312500X0.387500X0.312500X0*%
%TD*%
%TA.AperFunction,SMDPad,CuDef*%
%ADD20RoundRect,0.250000X0.450000X-0.262500X0.450000X0.262500X-0.450000X0.262500X-0.450000X-0.262500X0*%
%TD*%
%TA.AperFunction,ComponentPad*%
%ADD21R,1.800000X1.800000*%
%TD*%
%TA.AperFunction,SMDPad,CuDef*%
%ADD22RoundRect,0.250000X-0.475000X0.250000X-0.475000X-0.250000X0.475000X-0.250000X0.475000X0.250000X0*%
%TD*%
%TA.AperFunction,SMDPad,CuDef*%
%ADD23RoundRect,0.250000X0.250000X0.475000X-0.250000X0.475000X-0.250000X-0.475000X0.250000X-0.475000X0*%
%TD*%
%TA.AperFunction,SMDPad,CuDef*%
%ADD24R,0.431800X1.511300*%
%TD*%
%TA.AperFunction,ComponentPad*%
%ADD25C,2.000000*%
%TD*%
%TA.AperFunction,ComponentPad*%
%ADD26C,1.500000*%
%TD*%
%TA.AperFunction,ComponentPad*%
%ADD27R,1.500000X1.500000*%
%TD*%
%TA.AperFunction,ComponentPad*%
%ADD28R,2.000000X2.000000*%
%TD*%
%TA.AperFunction,ComponentPad*%
%ADD29C,1.200000*%
%TD*%
%TA.AperFunction,ComponentPad*%
%ADD30R,1.200000X1.200000*%
%TD*%
%TA.AperFunction,SMDPad,CuDef*%
%ADD31R,3.400000X1.000000*%
%TD*%
%TA.AperFunction,SMDPad,CuDef*%
%ADD32R,8.600000X10.700000*%
%TD*%
%TA.AperFunction,SMDPad,CuDef*%
%ADD33RoundRect,0.250000X0.262500X0.450000X-0.262500X0.450000X-0.262500X-0.450000X0.262500X-0.450000X0*%
%TD*%
%TA.AperFunction,ComponentPad*%
%ADD34R,1.600000X1.600000*%
%TD*%
%TA.AperFunction,ComponentPad*%
%ADD35O,1.600000X1.600000*%
%TD*%
%TA.AperFunction,ComponentPad*%
%ADD36R,3.200000X3.200000*%
%TD*%
%TA.AperFunction,ComponentPad*%
%ADD37O,3.200000X3.200000*%
%TD*%
%TA.AperFunction,SMDPad,CuDef*%
%ADD38R,0.550000X1.500000*%
%TD*%
%TA.AperFunction,SMDPad,CuDef*%
%ADD39R,1.500000X0.550000*%
%TD*%
%TA.AperFunction,SMDPad,CuDef*%
%ADD40RoundRect,0.020500X-0.184500X0.764500X-0.184500X-0.764500X0.184500X-0.764500X0.184500X0.764500X0*%
%TD*%
%TA.AperFunction,SMDPad,CuDef*%
%ADD41RoundRect,0.250000X0.475000X-0.250000X0.475000X0.250000X-0.475000X0.250000X-0.475000X-0.250000X0*%
%TD*%
%TA.AperFunction,SMDPad,CuDef*%
%ADD42R,0.850000X1.100000*%
%TD*%
%TA.AperFunction,SMDPad,CuDef*%
%ADD43R,0.750000X1.100000*%
%TD*%
%TA.AperFunction,SMDPad,CuDef*%
%ADD44R,1.200000X1.000000*%
%TD*%
%TA.AperFunction,SMDPad,CuDef*%
%ADD45R,1.550000X1.350000*%
%TD*%
%TA.AperFunction,SMDPad,CuDef*%
%ADD46R,1.170000X1.800000*%
%TD*%
%TA.AperFunction,SMDPad,CuDef*%
%ADD47R,1.900000X1.350000*%
%TD*%
%TA.AperFunction,SMDPad,CuDef*%
%ADD48R,4.000000X4.300000*%
%TD*%
%TA.AperFunction,ViaPad*%
%ADD49C,0.800000*%
%TD*%
%TA.AperFunction,Conductor*%
%ADD50C,0.250000*%
%TD*%
%TA.AperFunction,Conductor*%
%ADD51C,0.211000*%
%TD*%
%TA.AperFunction,Conductor*%
%ADD52C,0.200000*%
%TD*%
G04 APERTURE END LIST*
D10*
%TO.P,CLK,1,1*%
%TO.N,CLK*%
X150495000Y-87376000D03*
%TD*%
%TO.P,5V,1,1*%
%TO.N,+5V*%
X197739000Y-65405000D03*
%TD*%
%TO.P,SD_CD,1,1*%
%TO.N,SD_CD*%
X146812000Y-55499000D03*
%TD*%
%TO.P,+BATT,1,1*%
%TO.N,+BATT*%
X197231000Y-85344000D03*
%TD*%
%TO.P,SD_CLK,1,1*%
%TO.N,SD_CLK*%
X166243000Y-60706000D03*
%TD*%
%TO.P,VBUS,1,1*%
%TO.N,+5V*%
X142875000Y-58547000D03*
%TD*%
%TO.P,GND,1,1*%
%TO.N,GND*%
X172466000Y-87122000D03*
%TD*%
%TO.P,SD_CMD,1,1*%
%TO.N,SD_CMD*%
X146304000Y-60325000D03*
%TD*%
%TO.P,uC_TX1,1,1*%
%TO.N,uC_TX*%
X175006000Y-66294000D03*
%TD*%
%TO.P,SS1,1,1*%
%TO.N,SS1*%
X155092400Y-78409800D03*
%TD*%
%TO.P,SCS1,1,1*%
%TO.N,SCS*%
X163068000Y-112649000D03*
%TD*%
D11*
%TO.P,U7,1,ADJ/GND*%
%TO.N,GND*%
X161746700Y-69319000D03*
%TO.P,U7,2,OUTPUT*%
%TO.N,+3V3*%
X164046700Y-69319000D03*
%TO.P,U7,3,INPUT*%
%TO.N,+5V*%
X166346700Y-69319000D03*
D12*
%TO.P,U7,4,EPAD*%
%TO.N,unconnected-(U7-EPAD-Pad4)*%
X164046700Y-63269000D03*
%TD*%
D13*
%TO.P,R5,1*%
%TO.N,+5V*%
X147116800Y-75399300D03*
%TO.P,R5,2*%
%TO.N,Net-(U5-RESET#)*%
X147116800Y-77224300D03*
%TD*%
D10*
%TO.P,uC_RX1,1,1*%
%TO.N,uC_RX*%
X173101000Y-61976000D03*
%TD*%
D14*
%TO.P,J6,1,Pin_1*%
%TO.N,+5V*%
X166060000Y-54700000D03*
%TO.P,J6,2,Pin_2*%
%TO.N,uC_TX*%
X168600000Y-54700000D03*
%TO.P,J6,3,Pin_3*%
%TO.N,uC_RX*%
X171140000Y-54700000D03*
%TO.P,J6,4,Pin_4*%
%TO.N,GND*%
X173680000Y-54700000D03*
%TD*%
D15*
%TO.P,Y1,1,1*%
%TO.N,Net-(U1-PD5)*%
X152853000Y-100203000D03*
%TO.P,Y1,2,2*%
%TO.N,Net-(U1-PD6)*%
X161853000Y-100203000D03*
%TD*%
D10*
%TO.P,MISO1,1,1*%
%TO.N,MISO1*%
X151231600Y-78181200D03*
%TD*%
D13*
%TO.P,R8,1*%
%TO.N,uC_TX*%
X168656000Y-85320500D03*
%TO.P,R8,2*%
%TO.N,Net-(U5-RXD)*%
X168656000Y-87145500D03*
%TD*%
D16*
%TO.P,J3,1,VBUS*%
%TO.N,+5V*%
X138684000Y-60071000D03*
D17*
X139534000Y-60721000D03*
D16*
X138684000Y-63971000D03*
D17*
%TO.P,J3,2,D-*%
%TO.N,D-*%
X139534000Y-61371000D03*
%TO.P,J3,3,D+*%
%TO.N,D+*%
X139534000Y-62021000D03*
%TO.P,J3,4,ID*%
%TO.N,unconnected-(J3-ID-Pad4)*%
X139534000Y-62671000D03*
%TO.P,J3,5,GND*%
%TO.N,GND*%
X139534000Y-63321000D03*
D18*
%TO.P,J3,6,Shield*%
X136784000Y-58421000D03*
D19*
X139584000Y-58721000D03*
X139584000Y-65321000D03*
D18*
X136784000Y-65621000D03*
%TD*%
D20*
%TO.P,R9,1*%
%TO.N,Net-(D3-A)*%
X140436600Y-95730700D03*
%TO.P,R9,2*%
%TO.N,RESET*%
X140436600Y-93905700D03*
%TD*%
D21*
%TO.P,D1,1,K*%
%TO.N,Net-(D1-K)*%
X136652000Y-77983000D03*
D14*
%TO.P,D1,2,A*%
%TO.N,Net-(D1-A)*%
X136652000Y-75443000D03*
%TD*%
D22*
%TO.P,C18,1*%
%TO.N,+5V*%
X166497000Y-72329000D03*
%TO.P,C18,2*%
%TO.N,GND*%
X166497000Y-74229000D03*
%TD*%
%TO.P,C1,1*%
%TO.N,+3V3*%
X160502600Y-72075000D03*
%TO.P,C1,2*%
%TO.N,GND*%
X160502600Y-73975000D03*
%TD*%
D14*
%TO.P,J5,1,Pin_1*%
%TO.N,+5V*%
X192480000Y-54730000D03*
%TO.P,J5,2,Pin_2*%
%TO.N,uC_TX*%
X189940000Y-54730000D03*
%TO.P,J5,3,Pin_3*%
%TO.N,uC_RX*%
X187400000Y-54730000D03*
%TO.P,J5,4,Pin_4*%
%TO.N,SCK0*%
X184860000Y-54730000D03*
%TD*%
D13*
%TO.P,R12,1*%
%TO.N,~MTR_RST*%
X168656000Y-89003500D03*
%TO.P,R12,2*%
%TO.N,GND*%
X168656000Y-90828500D03*
%TD*%
D10*
%TO.P,3V3,1,1*%
%TO.N,+3V3*%
X147193000Y-69342000D03*
%TD*%
D21*
%TO.P,D2,1,K*%
%TO.N,Net-(D2-K)*%
X137033000Y-73030000D03*
D14*
%TO.P,D2,2,A*%
%TO.N,Net-(D2-A)*%
X137033000Y-70490000D03*
%TD*%
D23*
%TO.P,C4,1*%
%TO.N,GND*%
X154747000Y-104775000D03*
%TO.P,C4,2*%
%TO.N,Net-(U1-PD5)*%
X152847000Y-104775000D03*
%TD*%
D13*
%TO.P,R4,1*%
%TO.N,Net-(U3-OE)*%
X149606000Y-67540500D03*
%TO.P,R4,2*%
%TO.N,+3V3*%
X149606000Y-69365500D03*
%TD*%
D24*
%TO.P,U5,1,TXD*%
%TO.N,Net-(U5-TXD)*%
X138650000Y-88385650D03*
%TO.P,U5,2,DTR#*%
%TO.N,Net-(U5-DTR#)*%
X139300001Y-88385650D03*
%TO.P,U5,3,RTS#*%
%TO.N,unconnected-(U5-RTS#-Pad3)*%
X139950000Y-88385650D03*
%TO.P,U5,4,VCCIO*%
%TO.N,+5V*%
X140600001Y-88385650D03*
%TO.P,U5,5,RXD*%
%TO.N,Net-(U5-RXD)*%
X141249999Y-88385650D03*
%TO.P,U5,6,RI#*%
%TO.N,unconnected-(U5-RI#-Pad6)*%
X141900001Y-88385650D03*
%TO.P,U5,7,GND*%
%TO.N,GND*%
X142549999Y-88385650D03*
%TO.P,U5,8,NC*%
%TO.N,unconnected-(U5-NC-Pad8)*%
X143199998Y-88385650D03*
%TO.P,U5,9,DSR#*%
%TO.N,unconnected-(U5-DSR#-Pad9)*%
X143849999Y-88385650D03*
%TO.P,U5,10,DCD#*%
%TO.N,unconnected-(U5-DCD#-Pad10)*%
X144499998Y-88385650D03*
%TO.P,U5,11,CTS#*%
%TO.N,unconnected-(U5-CTS#-Pad11)*%
X145149999Y-88385650D03*
%TO.P,U5,12,CBUS4*%
%TO.N,unconnected-(U5-CBUS4-Pad12)*%
X145799998Y-88385650D03*
%TO.P,U5,13,CBUS2*%
%TO.N,unconnected-(U5-CBUS2-Pad13)*%
X146449999Y-88385650D03*
%TO.P,U5,14,CBUS3*%
%TO.N,unconnected-(U5-CBUS3-Pad14)*%
X147099998Y-88385650D03*
%TO.P,U5,15,USBDP*%
%TO.N,D+*%
X147100000Y-81286350D03*
%TO.P,U5,16,USBDM*%
%TO.N,D-*%
X146449999Y-81286350D03*
%TO.P,U5,17,3V3OUT*%
%TO.N,unconnected-(U5-3V3OUT-Pad17)*%
X145800000Y-81286350D03*
%TO.P,U5,18,GND*%
%TO.N,GND*%
X145149999Y-81286350D03*
%TO.P,U5,19,RESET#*%
%TO.N,Net-(U5-RESET#)*%
X144500001Y-81286350D03*
%TO.P,U5,20,VCC*%
%TO.N,+5V*%
X143849999Y-81286350D03*
%TO.P,U5,21,GND*%
%TO.N,GND*%
X143200001Y-81286350D03*
%TO.P,U5,22,CBUS1*%
%TO.N,Net-(D2-K)*%
X142549999Y-81286350D03*
%TO.P,U5,23,CBUS0*%
%TO.N,Net-(D1-K)*%
X141900001Y-81286350D03*
%TO.P,U5,24,NC*%
%TO.N,unconnected-(U5-NC-Pad24)*%
X141249999Y-81286350D03*
%TO.P,U5,25,AGND*%
%TO.N,GND*%
X140600001Y-81286350D03*
%TO.P,U5,26,TEST*%
X139950000Y-81286350D03*
%TO.P,U5,27,OSCI*%
%TO.N,unconnected-(U5-OSCI-Pad27)*%
X139300001Y-81286350D03*
%TO.P,U5,28,OSCO*%
%TO.N,unconnected-(U5-OSCO-Pad28)*%
X138650000Y-81286350D03*
%TD*%
D22*
%TO.P,C13,1*%
%TO.N,Net-(U5-DTR#)*%
X138379200Y-93868200D03*
%TO.P,C13,2*%
%TO.N,Net-(D3-A)*%
X138379200Y-95768200D03*
%TD*%
D25*
%TO.P,U2,1,Vin*%
%TO.N,+BATT*%
X196810300Y-100280800D03*
D26*
X199705900Y-100128400D03*
X199705900Y-102668400D03*
D25*
%TO.P,U2,2,AOUT1*%
%TO.N,Net-(J4-Pin_4)*%
X196810300Y-107280800D03*
D26*
X199705900Y-110288400D03*
D25*
%TO.P,U2,3,AOUT2*%
%TO.N,Net-(J4-Pin_3)*%
X196810300Y-110780800D03*
D26*
X199705900Y-112828400D03*
D25*
%TO.P,U2,4,BOUT1*%
%TO.N,Net-(J4-Pin_2)*%
X196810300Y-114280800D03*
D26*
X199705900Y-115368400D03*
D25*
%TO.P,U2,5,BOUT2*%
%TO.N,Net-(J4-Pin_1)*%
X196810300Y-117780800D03*
D26*
X199705900Y-117908400D03*
%TO.P,U2,6,BEMF*%
%TO.N,BEMF*%
X181951300Y-123064600D03*
%TO.P,U2,7,~STALL*%
%TO.N,STALL*%
X179411300Y-123064600D03*
%TO.P,U2,8,BIN2*%
%TO.N,unconnected-(U2-BIN2-Pad8)*%
X176871300Y-123064600D03*
%TO.P,U2,9,BIN1*%
%TO.N,unconnected-(U2-BIN1-Pad9)*%
X174331300Y-123064600D03*
%TO.P,U2,10,~FLT*%
%TO.N,~MTR_FAULT*%
X169251300Y-123064600D03*
%TO.P,U2,11,RST*%
%TO.N,~MTR_RST*%
X169251300Y-120524600D03*
%TO.P,U2,12,~SLP*%
%TO.N,~SLP*%
X169251300Y-117984600D03*
%TO.P,U2,13,SCS*%
%TO.N,SCS*%
X169251300Y-115444600D03*
%TO.P,U2,14,SCLK*%
%TO.N,CLK*%
X169251300Y-112904600D03*
%TO.P,U2,15,SDATI*%
%TO.N,MOSI1*%
X169251300Y-110364600D03*
%TO.P,U2,16,SDATO*%
%TO.N,MISO1*%
X169251300Y-107824600D03*
%TO.P,U2,17,DIR*%
%TO.N,unconnected-(U2-DIR-Pad17)*%
X169251300Y-105284600D03*
%TO.P,U2,18,STEP*%
%TO.N,unconnected-(U2-STEP-Pad18)*%
X169251300Y-102744600D03*
%TO.P,U2,19,ICREF*%
%TO.N,unconnected-(U2-ICREF-Pad19)*%
X169251300Y-97664600D03*
%TO.P,U2,20,V5(OUT)*%
%TO.N,unconnected-(U2-V5(OUT)-Pad20)*%
X169251300Y-95124600D03*
%TO.P,U2,21,VM*%
%TO.N,unconnected-(U2-VM-Pad21)*%
X187005900Y-95048400D03*
D27*
%TO.P,U2,22,GND*%
%TO.N,GND*%
X169251300Y-100204600D03*
X187005900Y-100128400D03*
D28*
X196810300Y-103780800D03*
D27*
X199705900Y-105208400D03*
X199705900Y-107748400D03*
%TD*%
D22*
%TO.P,C2,1*%
%TO.N,+5V*%
X157607000Y-76647000D03*
%TO.P,C2,2*%
%TO.N,GND*%
X157607000Y-78547000D03*
%TD*%
D20*
%TO.P,R10,1*%
%TO.N,Net-(D3-A)*%
X142494000Y-95756100D03*
%TO.P,R10,2*%
%TO.N,+5V*%
X142494000Y-93931100D03*
%TD*%
D14*
%TO.P,J10,1,Pin_1*%
%TO.N,EXTGPIO3*%
X157180000Y-121300000D03*
%TO.P,J10,2,Pin_2*%
%TO.N,EXTGPIO4*%
X159720000Y-121300000D03*
%TO.P,J10,3,Pin_3*%
%TO.N,EXTGPIO5*%
X162260000Y-121300000D03*
%TO.P,J10,4,Pin_4*%
%TO.N,GND*%
X164800000Y-121300000D03*
%TD*%
D22*
%TO.P,C17,1*%
%TO.N,+3V3*%
X163576000Y-72075000D03*
%TO.P,C17,2*%
%TO.N,GND*%
X163576000Y-73975000D03*
%TD*%
D20*
%TO.P,R11,1*%
%TO.N,GND*%
X136321800Y-95730700D03*
%TO.P,R11,2*%
%TO.N,Net-(U5-DTR#)*%
X136321800Y-93905700D03*
%TD*%
D21*
%TO.P,J8,1,Pin_1*%
%TO.N,RESET*%
X180560000Y-54750000D03*
D14*
%TO.P,J8,2,Pin_2*%
%TO.N,GND*%
X178020000Y-54750000D03*
%TD*%
D22*
%TO.P,C14,1*%
%TO.N,+5V*%
X143002000Y-75377000D03*
%TO.P,C14,2*%
%TO.N,GND*%
X143002000Y-77277000D03*
%TD*%
D29*
%TO.P,C3,N*%
%TO.N,GND*%
X185884500Y-67183000D03*
D30*
%TO.P,C3,P*%
%TO.N,+5V*%
X190884500Y-67183000D03*
%TD*%
D23*
%TO.P,C11,1*%
%TO.N,+3V3*%
X147418000Y-51335500D03*
%TO.P,C11,2*%
%TO.N,GND*%
X145518000Y-51335500D03*
%TD*%
D10*
%TO.P,SCKO1,1,1*%
%TO.N,SCK0*%
X184150000Y-60579000D03*
%TD*%
D13*
%TO.P,R3,1*%
%TO.N,+5V*%
X160528000Y-79351500D03*
%TO.P,R3,2*%
%TO.N,SS1*%
X160528000Y-81176500D03*
%TD*%
D10*
%TO.P,SD_DAT0,1,1*%
%TO.N,SD_DAT0*%
X163195000Y-60325000D03*
%TD*%
D29*
%TO.P,C6,N*%
%TO.N,GND*%
X180594000Y-90340500D03*
D30*
%TO.P,C6,P*%
%TO.N,+BATT*%
X180594000Y-85340500D03*
%TD*%
D23*
%TO.P,C9,1*%
%TO.N,+5V*%
X158684000Y-95504000D03*
%TO.P,C9,2*%
%TO.N,GND*%
X156784000Y-95504000D03*
%TD*%
D31*
%TO.P,U4,1,VIN*%
%TO.N,+BATT*%
X183564400Y-79346000D03*
%TO.P,U4,2,OUT*%
%TO.N,Net-(D4-K)*%
X183564400Y-77646000D03*
%TO.P,U4,3,GND*%
%TO.N,GND*%
X183564400Y-75946000D03*
%TO.P,U4,4,FB*%
%TO.N,+5V*%
X183564400Y-74246000D03*
%TO.P,U4,5,ON/OFF*%
%TO.N,GND*%
X183564400Y-72546000D03*
D32*
%TO.P,U4,6,GND*%
X172964400Y-75946000D03*
%TD*%
D33*
%TO.P,R7,1*%
%TO.N,+5V*%
X137945500Y-67945000D03*
%TO.P,R7,2*%
%TO.N,Net-(D1-A)*%
X136120500Y-67945000D03*
%TD*%
D20*
%TO.P,R1,1*%
%TO.N,+5V*%
X193675000Y-64539500D03*
%TO.P,R1,2*%
%TO.N,BUTTON*%
X193675000Y-62714500D03*
%TD*%
D34*
%TO.P,D3,1,K*%
%TO.N,+5V*%
X136398000Y-107061000D03*
D35*
%TO.P,D3,2,A*%
%TO.N,Net-(D3-A)*%
X136398000Y-99441000D03*
%TD*%
D36*
%TO.P,D4,1,K*%
%TO.N,Net-(D4-K)*%
X189738000Y-76327000D03*
D37*
%TO.P,D4,2,A*%
%TO.N,GND*%
X189738000Y-91567000D03*
%TD*%
D22*
%TO.P,C16,1*%
%TO.N,+5V*%
X145084800Y-75387200D03*
%TO.P,C16,2*%
%TO.N,GND*%
X145084800Y-77287200D03*
%TD*%
D33*
%TO.P,R2,1*%
%TO.N,+5V*%
X142009500Y-69723000D03*
%TO.P,R2,2*%
%TO.N,Net-(D2-A)*%
X140184500Y-69723000D03*
%TD*%
D10*
%TO.P,MOSI1,1,1*%
%TO.N,MOSI1*%
X153924000Y-75946000D03*
%TD*%
D38*
%TO.P,U1,1,PD3*%
%TO.N,EXTGPIO4*%
X156998000Y-92964000D03*
%TO.P,U1,2,PD4*%
%TO.N,unconnected-(U1-PD4-Pad2)*%
X157798000Y-92964000D03*
%TO.P,U1,3,PE0*%
%TO.N,unconnected-(U1-PE0-Pad3)*%
X158598000Y-92964000D03*
%TO.P,U1,4,VCC*%
%TO.N,+5V*%
X159398000Y-92964000D03*
%TO.P,U1,5,GND*%
%TO.N,GND*%
X160198000Y-92964000D03*
%TO.P,U1,6,PE1*%
%TO.N,unconnected-(U1-PE1-Pad6)*%
X160998000Y-92964000D03*
%TO.P,U1,7,PB6*%
%TO.N,unconnected-(U1-PB6-Pad7)*%
X161798000Y-92964000D03*
%TO.P,U1,8,PB7*%
%TO.N,BUTTON*%
X162598000Y-92964000D03*
D39*
%TO.P,U1,9,PD5*%
%TO.N,Net-(U1-PD5)*%
X164098000Y-91464000D03*
%TO.P,U1,10,PD6*%
%TO.N,Net-(U1-PD6)*%
X164098000Y-90664000D03*
%TO.P,U1,11,PD7*%
%TO.N,EXTGPIO5*%
X164098000Y-89864000D03*
%TO.P,U1,12,PB0*%
%TO.N,unconnected-(U1-PB0-Pad12)*%
X164098000Y-89064000D03*
%TO.P,U1,13,PB1*%
%TO.N,~MTR_FAULT*%
X164098000Y-88264000D03*
%TO.P,U1,14,PB2*%
%TO.N,~MTR_RST*%
X164098000Y-87464000D03*
%TO.P,U1,15,MOSI0/TX*%
%TO.N,uC_TX*%
X164098000Y-86664000D03*
%TO.P,U1,16,MISO0/RX*%
%TO.N,uC_RX*%
X164098000Y-85864000D03*
D38*
%TO.P,U1,17,PB5*%
%TO.N,SCK0*%
X162598000Y-84364000D03*
%TO.P,U1,18,AVCC*%
%TO.N,+5V*%
X161798000Y-84364000D03*
%TO.P,U1,19,~SS1*%
%TO.N,SS1*%
X160998000Y-84364000D03*
%TO.P,U1,20,AREF*%
%TO.N,unconnected-(U1-AREF-Pad20)*%
X160198000Y-84364000D03*
%TO.P,U1,21,GND*%
%TO.N,GND*%
X159398000Y-84364000D03*
%TO.P,U1,22,MOSI1*%
%TO.N,MOSI1*%
X158598000Y-84364000D03*
%TO.P,U1,23,MISO1*%
%TO.N,MISO1*%
X157798000Y-84364000D03*
%TO.P,U1,24,PC1*%
%TO.N,CLK*%
X156998000Y-84364000D03*
D39*
%TO.P,U1,25,PC2*%
%TO.N,SCS*%
X155498000Y-85864000D03*
%TO.P,U1,26,PC3*%
%TO.N,~SLP*%
X155498000Y-86664000D03*
%TO.P,U1,27,PC4*%
%TO.N,BEMF*%
X155498000Y-87464000D03*
%TO.P,U1,28,PC5*%
%TO.N,STALL*%
X155498000Y-88264000D03*
%TO.P,U1,29,PC6/~{RESET}*%
%TO.N,RESET*%
X155498000Y-89064000D03*
%TO.P,U1,30,PD0*%
%TO.N,EXTGPIO1*%
X155498000Y-89864000D03*
%TO.P,U1,31,PD1*%
%TO.N,EXTGPIO2*%
X155498000Y-90664000D03*
%TO.P,U1,32,PD2*%
%TO.N,EXTGPIO3*%
X155498000Y-91464000D03*
%TD*%
D23*
%TO.P,C5,1*%
%TO.N,Net-(U1-PD6)*%
X161859000Y-104775000D03*
%TO.P,C5,2*%
%TO.N,GND*%
X159959000Y-104775000D03*
%TD*%
D40*
%TO.P,U3,1,A1*%
%TO.N,SD_CLK*%
X157390000Y-67591500D03*
%TO.P,U3,2,VCCA*%
%TO.N,+3V3*%
X156740000Y-67591500D03*
%TO.P,U3,3,A2*%
%TO.N,SD_CD*%
X156090000Y-67591500D03*
%TO.P,U3,4,A3*%
%TO.N,SD_CMD*%
X155440000Y-67591500D03*
%TO.P,U3,5,A4*%
%TO.N,SD_DAT0*%
X154790000Y-67591500D03*
%TO.P,U3,6,A5*%
%TO.N,unconnected-(U3-A5-Pad6)*%
X154140000Y-67591500D03*
%TO.P,U3,7,A6*%
%TO.N,unconnected-(U3-A6-Pad7)*%
X153490000Y-67591500D03*
%TO.P,U3,8,A7*%
%TO.N,unconnected-(U3-A7-Pad8)*%
X152840000Y-67591500D03*
%TO.P,U3,9,A8*%
%TO.N,unconnected-(U3-A8-Pad9)*%
X152190000Y-67591500D03*
%TO.P,U3,10,OE*%
%TO.N,Net-(U3-OE)*%
X151540000Y-67591500D03*
%TO.P,U3,11,GND*%
%TO.N,GND*%
X151540000Y-73331500D03*
%TO.P,U3,12,B8*%
%TO.N,unconnected-(U3-B8-Pad12)*%
X152190000Y-73331500D03*
%TO.P,U3,13,B7*%
%TO.N,unconnected-(U3-B7-Pad13)*%
X152840000Y-73331500D03*
%TO.P,U3,14,B6*%
%TO.N,unconnected-(U3-B6-Pad14)*%
X153490000Y-73331500D03*
%TO.P,U3,15,B5*%
%TO.N,unconnected-(U3-B5-Pad15)*%
X154140000Y-73331500D03*
%TO.P,U3,16,B4*%
%TO.N,MISO1*%
X154790000Y-73331500D03*
%TO.P,U3,17,B3*%
%TO.N,MOSI1*%
X155440000Y-73331500D03*
%TO.P,U3,18,B2*%
%TO.N,SS1*%
X156090000Y-73331500D03*
%TO.P,U3,19,VCCB*%
%TO.N,+5V*%
X156740000Y-73331500D03*
%TO.P,U3,20,B1*%
%TO.N,CLK*%
X157390000Y-73331500D03*
%TD*%
D41*
%TO.P,C10,1*%
%TO.N,+5V*%
X163068000Y-81214000D03*
%TO.P,C10,2*%
%TO.N,GND*%
X163068000Y-79314000D03*
%TD*%
D21*
%TO.P,J7,1,Pin_1*%
%TO.N,BUTTON*%
X198374000Y-59563000D03*
D14*
%TO.P,J7,2,Pin_2*%
%TO.N,GND*%
X198374000Y-62103000D03*
%TD*%
D33*
%TO.P,R6,1*%
%TO.N,Net-(U5-TXD)*%
X138199500Y-90678000D03*
%TO.P,R6,2*%
%TO.N,uC_RX*%
X136374500Y-90678000D03*
%TD*%
D42*
%TO.P,J1,1,DAT2*%
%TO.N,unconnected-(J1-DAT2-Pad1)*%
X151999000Y-52108500D03*
%TO.P,J1,2,CD/DAT3*%
%TO.N,SD_CD*%
X153099000Y-52108500D03*
%TO.P,J1,3,CMD*%
%TO.N,SD_CMD*%
X154199000Y-52108500D03*
%TO.P,J1,4,VDD*%
%TO.N,+3V3*%
X155299000Y-52108500D03*
%TO.P,J1,5,CLK*%
%TO.N,SD_CLK*%
X156399000Y-52108500D03*
%TO.P,J1,6,VSS*%
%TO.N,GND*%
X157499000Y-52108500D03*
%TO.P,J1,7,DAT0*%
%TO.N,SD_DAT0*%
X158599000Y-52108500D03*
D43*
%TO.P,J1,8,DAT1*%
%TO.N,unconnected-(J1-DAT1-Pad8)*%
X159649000Y-52108500D03*
D44*
%TO.P,J1,9,SW-1*%
%TO.N,unconnected-(J1-SW-1-Pad9)*%
X149364000Y-58258500D03*
%TO.P,J1,10,SW-2*%
%TO.N,unconnected-(J1-SW-2-Pad10)*%
X149364000Y-61958500D03*
D45*
%TO.P,J1,G1,GND*%
%TO.N,GND*%
X149539000Y-52233500D03*
D46*
%TO.P,J1,G2,GND*%
X160859000Y-52458500D03*
D47*
%TO.P,J1,G3,GND*%
X158834000Y-62933500D03*
%TO.P,J1,G4,GND*%
X152864000Y-62933500D03*
%TD*%
D48*
%TO.P,L1,1,1*%
%TO.N,+5V*%
X197231000Y-69864000D03*
%TO.P,L1,2,2*%
%TO.N,Net-(D4-K)*%
X197231000Y-77964000D03*
%TD*%
D14*
%TO.P,J9,1,Pin_1*%
%TO.N,+3V3*%
X144380000Y-121300000D03*
%TO.P,J9,2,Pin_2*%
%TO.N,+5V*%
X146920000Y-121300000D03*
%TO.P,J9,3,Pin_3*%
%TO.N,EXTGPIO1*%
X149460000Y-121300000D03*
%TO.P,J9,4,Pin_4*%
%TO.N,EXTGPIO2*%
X152000000Y-121300000D03*
%TD*%
D22*
%TO.P,C15,1*%
%TO.N,+5V*%
X140919200Y-75377000D03*
%TO.P,C15,2*%
%TO.N,GND*%
X140919200Y-77277000D03*
%TD*%
D49*
%TO.N,+3V3*%
X135001000Y-110998000D03*
X145286949Y-69343051D03*
X135598500Y-84709000D03*
%TO.N,GND*%
X151511000Y-74930000D03*
X163195000Y-75438000D03*
X162597000Y-52478500D03*
X161036000Y-94742000D03*
X142621000Y-90170000D03*
X176657000Y-69596000D03*
X159639000Y-67945000D03*
X147992000Y-53621500D03*
X158496000Y-104775000D03*
X198374000Y-57277000D03*
X174117000Y-82296000D03*
X171704000Y-82296000D03*
X142925800Y-79019400D03*
X172466000Y-69596000D03*
X174371000Y-69596000D03*
X158152000Y-53748500D03*
X144182000Y-51716500D03*
X146354800Y-79654400D03*
X156083000Y-104775000D03*
X184277000Y-92456000D03*
X158914000Y-64416500D03*
X138684000Y-79756000D03*
X176784000Y-92456000D03*
X160782000Y-75311000D03*
X156972000Y-79883000D03*
X141351000Y-64516000D03*
X155194000Y-96012000D03*
X166238701Y-75433701D03*
X183769000Y-65532000D03*
X183769000Y-68453000D03*
X152691000Y-64543500D03*
X158750000Y-82042000D03*
X163068000Y-77724000D03*
X175514000Y-82296000D03*
X168656000Y-92075000D03*
X186309000Y-92964000D03*
X135636000Y-97028000D03*
%TO.N,+5V*%
X157607000Y-75184000D03*
X143129000Y-68326000D03*
X200152000Y-64516000D03*
X193675000Y-65913000D03*
X139827000Y-68199000D03*
X161417000Y-77851000D03*
X160020000Y-94869000D03*
X140589000Y-90043000D03*
X143840200Y-92407100D03*
X146126200Y-74152800D03*
X166471600Y-70967600D03*
X141732000Y-60706000D03*
X162560000Y-82550000D03*
X144178500Y-79611701D03*
%TO.N,RESET*%
X151638000Y-89027000D03*
X140411200Y-92102300D03*
X169037000Y-68326000D03*
X154940000Y-82999500D03*
%TO.N,BEMF*%
X153378500Y-87122000D03*
%TO.N,STALL*%
X153543000Y-88265000D03*
%TO.N,~SLP*%
X153416000Y-85979000D03*
%TO.N,SCS*%
X165227000Y-113665000D03*
X153543000Y-84963000D03*
%TO.N,CLK*%
X155956000Y-82550000D03*
X155575000Y-110109000D03*
X165227000Y-109982000D03*
X159258000Y-75184000D03*
X150252500Y-90043000D03*
%TO.N,SD_CMD*%
X154850000Y-58955500D03*
X154723000Y-54891500D03*
%TO.N,SD_DAT0*%
X158406000Y-60225500D03*
X153936605Y-64195330D03*
%TO.N,uC_RX*%
X135636000Y-89027000D03*
X166243000Y-84328000D03*
%TO.N,SCK0*%
X165989000Y-82423000D03*
X181991000Y-61595000D03*
%TO.N,BUTTON*%
X162814000Y-94869000D03*
X191008000Y-59817000D03*
%TO.N,EXTGPIO1*%
X149987000Y-91694000D03*
%TO.N,EXTGPIO2*%
X149987000Y-93472000D03*
%TO.N,uC_TX*%
X169799000Y-69596000D03*
X169291000Y-82550000D03*
%TO.N,MOSI1*%
X151638000Y-81407000D03*
X165100000Y-108712000D03*
X153035000Y-77597000D03*
%TO.N,MISO1*%
X165227000Y-107696000D03*
%TO.N,EXTGPIO3*%
X149987000Y-94488000D03*
%TO.N,EXTGPIO4*%
X149987000Y-95885000D03*
%TO.N,Net-(U5-RXD)*%
X166624000Y-86868000D03*
X141605000Y-90297000D03*
%TD*%
D50*
%TO.N,RESET*%
X169037000Y-68326000D02*
X170684280Y-68326000D01*
X170684280Y-68326000D02*
X180560000Y-58450280D01*
X180560000Y-58450280D02*
X180560000Y-54750000D01*
%TO.N,uC_RX*%
X173101000Y-61976000D02*
X173101000Y-56731000D01*
X173101000Y-56731000D02*
X171085000Y-54715000D01*
X171085000Y-54715000D02*
X172841000Y-52959000D01*
X172841000Y-52959000D02*
X185629000Y-52959000D01*
X185629000Y-52959000D02*
X187400000Y-54730000D01*
%TO.N,uC_TX*%
X168600000Y-54700000D02*
X168610000Y-54700000D01*
X187325000Y-52324000D02*
X189731000Y-54730000D01*
X168610000Y-54700000D02*
X170986000Y-52324000D01*
X170986000Y-52324000D02*
X187325000Y-52324000D01*
X189731000Y-54730000D02*
X189940000Y-54730000D01*
%TO.N,EXTGPIO5*%
X164098000Y-89864000D02*
X165098000Y-89864000D01*
X165098000Y-89864000D02*
X165952000Y-90718000D01*
X165952000Y-90718000D02*
X165952000Y-117258000D01*
X165952000Y-117258000D02*
X162260000Y-120950000D01*
X162260000Y-120950000D02*
X162260000Y-121300000D01*
D51*
%TO.N,D+*%
X144103000Y-63697004D02*
X142270997Y-61865001D01*
%TO.N,D-*%
X146606000Y-82303604D02*
X147326270Y-83023874D01*
%TO.N,D+*%
X144103000Y-70224804D02*
X144103000Y-63697004D01*
X148649600Y-74771404D02*
X144103000Y-70224804D01*
X148113522Y-82685874D02*
X148649600Y-82149796D01*
X147100000Y-81826100D02*
X146943999Y-81982101D01*
X146943999Y-81982101D02*
X146943999Y-82163595D01*
%TO.N,D-*%
X139689999Y-61526999D02*
X139534000Y-61371000D01*
%TO.N,D+*%
X146943999Y-82163595D02*
X147466278Y-82685874D01*
%TO.N,D-*%
X146449999Y-81826100D02*
X146606000Y-81982101D01*
%TO.N,D+*%
X147466278Y-82685874D02*
X148113522Y-82685874D01*
X139689999Y-61865001D02*
X139534000Y-62021000D01*
%TO.N,D-*%
X144441000Y-63556996D02*
X142411003Y-61526999D01*
%TO.N,D+*%
X148649600Y-82149796D02*
X148649600Y-74771404D01*
X142270997Y-61865001D02*
X139689999Y-61865001D01*
%TO.N,D-*%
X148987600Y-74631396D02*
X144441000Y-70084796D01*
X146606000Y-81982101D02*
X146606000Y-82303604D01*
X147326270Y-83023874D02*
X148253530Y-83023874D01*
X148253530Y-83023874D02*
X148987600Y-82289804D01*
X142411003Y-61526999D02*
X139689999Y-61526999D01*
X148987600Y-82289804D02*
X148987600Y-74631396D01*
X144441000Y-70084796D02*
X144441000Y-63556996D01*
%TO.N,D+*%
X147100000Y-81286350D02*
X147100000Y-81826100D01*
%TO.N,D-*%
X146449999Y-81286350D02*
X146449999Y-81826100D01*
D50*
%TO.N,+3V3*%
X135598500Y-84709000D02*
X134911000Y-85396500D01*
X134911000Y-85396500D02*
X134911000Y-110908000D01*
X156740000Y-67591500D02*
X156740000Y-66803889D01*
X157099000Y-64109896D02*
X156977000Y-63987896D01*
X149274445Y-69189055D02*
X155930055Y-69189055D01*
X156977000Y-63987896D02*
X156977000Y-54586500D01*
X147520000Y-51233500D02*
X155224000Y-51233500D01*
X155299000Y-52908500D02*
X155299000Y-52108500D01*
X156740000Y-68379111D02*
X155930055Y-69189055D01*
X135001000Y-110998000D02*
X134911000Y-110908000D01*
X157099000Y-66444889D02*
X157099000Y-64109896D01*
X145286949Y-69343051D02*
X145309398Y-69365500D01*
X156740000Y-66803889D02*
X157099000Y-66444889D01*
X158617500Y-68701500D02*
X157062389Y-68701500D01*
X155299000Y-51308500D02*
X155299000Y-52108500D01*
X155224000Y-51233500D02*
X155299000Y-51308500D01*
X156977000Y-54586500D02*
X155299000Y-52908500D01*
X157062389Y-68701500D02*
X156740000Y-68379111D01*
X156740000Y-67591500D02*
X156740000Y-68379111D01*
X147418000Y-51335500D02*
X147520000Y-51233500D01*
X145309398Y-69365500D02*
X149606000Y-69365500D01*
%TO.N,GND*%
X136321800Y-96342200D02*
X136321800Y-95730700D01*
X163195000Y-75438000D02*
X163576000Y-75057000D01*
X162577000Y-52458500D02*
X162597000Y-52478500D01*
X155702000Y-95504000D02*
X155194000Y-96012000D01*
X159959000Y-104775000D02*
X158496000Y-104775000D01*
X160976000Y-94742000D02*
X160198000Y-93964000D01*
X138684000Y-79756000D02*
X139391201Y-79756000D01*
X139534000Y-63321000D02*
X140283000Y-63321000D01*
X142549999Y-89971999D02*
X142621000Y-90170000D01*
X157607000Y-79248000D02*
X156972000Y-79883000D01*
X145149999Y-80314801D02*
X145149999Y-81286350D01*
X168656000Y-90828500D02*
X168656000Y-92075000D01*
X161013000Y-69319000D02*
X161746700Y-69319000D01*
X135636000Y-97028000D02*
X136321800Y-96342200D01*
X146354800Y-79654400D02*
X145810400Y-79654400D01*
X152691000Y-63106500D02*
X152864000Y-62933500D01*
X158834000Y-62933500D02*
X158834000Y-64336500D01*
X158834000Y-64336500D02*
X158914000Y-64416500D01*
X160198000Y-93964000D02*
X160198000Y-92964000D01*
X160909000Y-75184000D02*
X160909000Y-73975000D01*
X152691000Y-64543500D02*
X152691000Y-63106500D01*
X143200001Y-79293601D02*
X143200001Y-81286350D01*
X200025000Y-61341000D02*
X198374000Y-62992000D01*
X157499000Y-52108500D02*
X157499000Y-53095500D01*
X145137000Y-51716500D02*
X145518000Y-51335500D01*
X166497000Y-75175402D02*
X166497000Y-74102000D01*
X160859000Y-52458500D02*
X162577000Y-52458500D01*
X151540000Y-73331500D02*
X151511000Y-74930000D01*
X142925800Y-79019400D02*
X143200001Y-79293601D01*
X161036000Y-94742000D02*
X160976000Y-94742000D01*
X198374000Y-57277000D02*
X200025000Y-58928000D01*
X142621000Y-90170000D02*
X142621000Y-90043000D01*
X159639000Y-67945000D02*
X161013000Y-69319000D01*
X157499000Y-53095500D02*
X158152000Y-53748500D01*
X156784000Y-95504000D02*
X155702000Y-95504000D01*
X159398000Y-82690000D02*
X158750000Y-82042000D01*
X160782000Y-75311000D02*
X160909000Y-75184000D01*
X200025000Y-58928000D02*
X200025000Y-61341000D01*
X145810400Y-79654400D02*
X145149999Y-80314801D01*
X139391201Y-79756000D02*
X139950000Y-80314799D01*
X144182000Y-51716500D02*
X145137000Y-51716500D01*
X159398000Y-84364000D02*
X159398000Y-82690000D01*
X147992000Y-53621500D02*
X149380000Y-52233500D01*
X139910202Y-80275001D02*
X139391201Y-79756000D01*
X163576000Y-75057000D02*
X163576000Y-73975000D01*
X140600001Y-80275001D02*
X139910202Y-80275001D01*
X142549999Y-88385650D02*
X142549999Y-89971999D01*
X157607000Y-78486000D02*
X157607000Y-79248000D01*
X139950000Y-80314799D02*
X139950000Y-81286350D01*
X166238701Y-75433701D02*
X166497000Y-75175402D01*
X154747000Y-104775000D02*
X156083000Y-104775000D01*
X163068000Y-77724000D02*
X163068000Y-79314000D01*
X149380000Y-52233500D02*
X149539000Y-52233500D01*
X140600001Y-81286350D02*
X140600001Y-80275001D01*
X140283000Y-63321000D02*
X141351000Y-64516000D01*
%TO.N,+5V*%
X142009500Y-69723000D02*
X142009500Y-69445500D01*
X163068000Y-82094000D02*
X163068000Y-81214000D01*
X141717000Y-60721000D02*
X141732000Y-60706000D01*
X166471600Y-70967600D02*
X166471600Y-71922600D01*
X162612000Y-82550000D02*
X163068000Y-82094000D01*
X139573000Y-67945000D02*
X139827000Y-68199000D01*
X139534000Y-60721000D02*
X141717000Y-60721000D01*
X141732000Y-60706000D02*
X141732000Y-59690000D01*
X161798000Y-84364000D02*
X161798000Y-83364000D01*
X142009500Y-69445500D02*
X143129000Y-68326000D01*
X159398000Y-92964000D02*
X159398000Y-94374000D01*
X166471600Y-71922600D02*
X166751000Y-72202000D01*
X142494000Y-93931100D02*
X142494000Y-93753300D01*
X159319000Y-94869000D02*
X159319000Y-94453000D01*
X166346700Y-70000300D02*
X166346700Y-69319000D01*
X198642000Y-68453000D02*
X197231000Y-69864000D01*
X157607000Y-75184000D02*
X157607000Y-76647000D01*
X160528000Y-78613000D02*
X161417000Y-77851000D01*
X160528000Y-79351500D02*
X160528000Y-78613000D01*
X166471600Y-70967600D02*
X166471600Y-70125200D01*
X162560000Y-82550000D02*
X162612000Y-82550000D01*
X159319000Y-94869000D02*
X158684000Y-95504000D01*
X157607000Y-75184000D02*
X156740000Y-74317000D01*
X143849999Y-79940202D02*
X143849999Y-81286350D01*
X141732000Y-59690000D02*
X142748000Y-58674000D01*
X161798000Y-83364000D02*
X162560000Y-82602000D01*
X140589000Y-90043000D02*
X140589000Y-89916000D01*
X140600001Y-89904999D02*
X140589000Y-90043000D01*
X142494000Y-93753300D02*
X143840200Y-92407100D01*
X140600001Y-88385650D02*
X140600001Y-89904999D01*
X159398000Y-94374000D02*
X160020000Y-94869000D01*
X162560000Y-82602000D02*
X162560000Y-82550000D01*
X137945500Y-67945000D02*
X139573000Y-67945000D01*
X144178500Y-79611701D02*
X143849999Y-79940202D01*
X166471600Y-70125200D02*
X166346700Y-70000300D01*
X156740000Y-74317000D02*
X156740000Y-73331500D01*
%TO.N,Net-(U5-DTR#)*%
X136321800Y-93905700D02*
X138341700Y-93905700D01*
X139300001Y-88385650D02*
X139300001Y-92947399D01*
X139300001Y-92947399D02*
X138379200Y-93868200D01*
X138341700Y-93905700D02*
X138379200Y-93868200D01*
%TO.N,RESET*%
X153199000Y-89064000D02*
X155498000Y-89064000D01*
X151638000Y-89027000D02*
X152654000Y-88011000D01*
X154940000Y-82999500D02*
X154481195Y-82999500D01*
X152654000Y-84826695D02*
X152654000Y-88519000D01*
X140411200Y-93880300D02*
X140436600Y-93905700D01*
X152654000Y-88519000D02*
X153199000Y-89064000D01*
X154481195Y-82999500D02*
X152654000Y-84826695D01*
X140411200Y-92102300D02*
X140411200Y-93880300D01*
%TO.N,Net-(U3-OE)*%
X149098000Y-67540500D02*
X151489000Y-67540500D01*
X151489000Y-67540500D02*
X151540000Y-67591500D01*
%TO.N,Net-(U5-RESET#)*%
X146546400Y-78929400D02*
X145885399Y-78929400D01*
X147116800Y-77224300D02*
X147116800Y-78359000D01*
X147116800Y-78359000D02*
X146546400Y-78929400D01*
X145885399Y-78929400D02*
X144500001Y-80314798D01*
X144500001Y-80314798D02*
X144500001Y-81286350D01*
%TO.N,BEMF*%
X153720500Y-87464000D02*
X155498000Y-87464000D01*
X153378500Y-87122000D02*
X153720500Y-87464000D01*
%TO.N,STALL*%
X153798000Y-88264000D02*
X153543000Y-88265000D01*
X155498000Y-88264000D02*
X153798000Y-88264000D01*
X153543000Y-88265000D02*
X153797000Y-88265000D01*
%TO.N,~MTR_FAULT*%
X166878000Y-90044000D02*
X166878000Y-120691300D01*
X166878000Y-120691300D02*
X169251300Y-123064600D01*
X165098000Y-88264000D02*
X166878000Y-90044000D01*
X164098000Y-88264000D02*
X165098000Y-88264000D01*
%TO.N,~MTR_RST*%
X167386000Y-118659300D02*
X169251300Y-120524600D01*
X164098000Y-87464000D02*
X165098000Y-87464000D01*
X168134500Y-89003500D02*
X167386000Y-89752000D01*
X168656000Y-89003500D02*
X168134500Y-89003500D01*
X167386000Y-89752000D02*
X167386000Y-118659300D01*
X165098000Y-87464000D02*
X167386000Y-89752000D01*
%TO.N,~SLP*%
X154101000Y-86664000D02*
X155498000Y-86664000D01*
X153416000Y-85979000D02*
X154101000Y-86664000D01*
%TO.N,SCS*%
X164211000Y-112649000D02*
X165227000Y-113665000D01*
X154444000Y-85864000D02*
X155498000Y-85864000D01*
X163068000Y-112649000D02*
X164211000Y-112649000D01*
X153543000Y-84963000D02*
X154444000Y-85864000D01*
%TO.N,CLK*%
X155956000Y-83322000D02*
X156078000Y-83444000D01*
X156078000Y-83444000D02*
X156998000Y-84364000D01*
X155575000Y-110109000D02*
X165227000Y-109982000D01*
X155956000Y-82550000D02*
X155956000Y-83322000D01*
X150241000Y-90031500D02*
X150241000Y-87503000D01*
X153411347Y-82672347D02*
X150495000Y-85588695D01*
X157390000Y-73442805D02*
X159258000Y-75184000D01*
X150495000Y-85588695D02*
X150495000Y-87249000D01*
X155681000Y-82275000D02*
X153808694Y-82275000D01*
X150252500Y-90043000D02*
X150241000Y-90031500D01*
X157390000Y-73331500D02*
X157390000Y-73442805D01*
X155956000Y-82550000D02*
X155681000Y-82275000D01*
X150241000Y-87503000D02*
X150495000Y-87249000D01*
X153808694Y-82275000D02*
X153411347Y-82672347D01*
D52*
%TO.N,D+*%
X139534000Y-62021000D02*
X139633999Y-61921001D01*
X146999999Y-81926101D02*
X147100000Y-81826100D01*
%TO.N,D-*%
X139534000Y-61371000D02*
X139633999Y-61470999D01*
X146550000Y-81926101D02*
X146449999Y-81826100D01*
D50*
%TO.N,SD_CD*%
X153072000Y-55780500D02*
X153072000Y-52660500D01*
X156090000Y-67591500D02*
X156090000Y-58798500D01*
X146431000Y-55626000D02*
X152917500Y-55626000D01*
X153099000Y-52633500D02*
X153099000Y-52108500D01*
X153072000Y-52660500D02*
X153099000Y-52633500D01*
X152917500Y-55626000D02*
X153072000Y-55780500D01*
X156090000Y-58798500D02*
X153072000Y-55780500D01*
%TO.N,SD_CMD*%
X155440000Y-66748000D02*
X155194000Y-66502000D01*
X155194000Y-66502000D02*
X155194000Y-60198000D01*
X155440000Y-67591500D02*
X155440000Y-66748000D01*
X155194000Y-60198000D02*
X155194000Y-59299500D01*
X153480500Y-60325000D02*
X154850000Y-58955500D01*
X154723000Y-54891500D02*
X154199000Y-54367500D01*
X155194000Y-59299500D02*
X154850000Y-58955500D01*
X154199000Y-54367500D02*
X154199000Y-52108500D01*
X146431000Y-60325000D02*
X153480500Y-60325000D01*
%TO.N,SD_CLK*%
X156399000Y-52908500D02*
X156399000Y-52108500D01*
X157427000Y-60579000D02*
X158697000Y-61849000D01*
X164719000Y-61849000D02*
X165989000Y-60579000D01*
X157427000Y-53936500D02*
X156399000Y-52908500D01*
X157427000Y-61849000D02*
X157427000Y-60579000D01*
X157427000Y-63801500D02*
X157427000Y-61849000D01*
X157390000Y-67591500D02*
X157988000Y-66993500D01*
X158697000Y-61849000D02*
X164719000Y-61849000D01*
X157988000Y-64362500D02*
X157427000Y-63801500D01*
X157427000Y-60579000D02*
X157427000Y-53936500D01*
X157988000Y-66993500D02*
X157988000Y-64362500D01*
%TO.N,SD_DAT0*%
X158877000Y-52386500D02*
X158599000Y-52108500D01*
X154790000Y-66733000D02*
X154790000Y-67591500D01*
X153797000Y-65740000D02*
X154790000Y-66733000D01*
X158406000Y-60225500D02*
X158433500Y-60198000D01*
X153936605Y-64195330D02*
X153797000Y-64334935D01*
X158877000Y-59754500D02*
X158877000Y-52386500D01*
X153797000Y-64334935D02*
X153797000Y-65740000D01*
X158406000Y-60225500D02*
X158877000Y-59754500D01*
X158433500Y-60198000D02*
X163195000Y-60198000D01*
%TO.N,Net-(U1-PD5)*%
X152853000Y-104769000D02*
X152847000Y-104775000D01*
X164098000Y-94982000D02*
X161544000Y-97536000D01*
X155520000Y-97536000D02*
X152853000Y-100203000D01*
X161544000Y-97536000D02*
X155520000Y-97536000D01*
X152853000Y-100203000D02*
X152853000Y-104769000D01*
X164098000Y-91464000D02*
X164098000Y-94982000D01*
%TO.N,uC_RX*%
X166289305Y-83148000D02*
X166280000Y-83148000D01*
X136374500Y-90678000D02*
X136374500Y-89638500D01*
X167894000Y-81543305D02*
X166289305Y-83148000D01*
X136374500Y-89638500D02*
X135636000Y-89027000D01*
X164098000Y-85864000D02*
X164098000Y-85330000D01*
X173101000Y-62357000D02*
X167894000Y-67564000D01*
X173101000Y-61976000D02*
X173101000Y-62357000D01*
X164098000Y-85330000D02*
X165290500Y-84137500D01*
X167894000Y-67564000D02*
X167894000Y-81543305D01*
X166052500Y-84137500D02*
X165290500Y-84137500D01*
X166280000Y-83148000D02*
X165290500Y-84137500D01*
X166243000Y-84328000D02*
X166052500Y-84137500D01*
%TO.N,SCK0*%
X183261000Y-61595000D02*
X181991000Y-61595000D01*
X162598000Y-84364000D02*
X164048000Y-84364000D01*
X164048000Y-84364000D02*
X165989000Y-82423000D01*
X184150000Y-60706000D02*
X183261000Y-61595000D01*
%TO.N,BUTTON*%
X193675000Y-62714500D02*
X196826500Y-59563000D01*
X162598000Y-92964000D02*
X162598000Y-94653000D01*
X162814000Y-94869000D02*
X162687000Y-94742000D01*
X162598000Y-94653000D02*
X162814000Y-94869000D01*
X196826500Y-59563000D02*
X198374000Y-59563000D01*
X191008000Y-59817000D02*
X193675000Y-62484000D01*
X193675000Y-62484000D02*
X193675000Y-62714500D01*
%TO.N,EXTGPIO1*%
X151817000Y-89864000D02*
X149987000Y-91694000D01*
X155498000Y-89864000D02*
X151817000Y-89864000D01*
%TO.N,Net-(U1-PD6)*%
X164832000Y-90664000D02*
X165173000Y-91005000D01*
X161853000Y-100203000D02*
X161853000Y-104769000D01*
X165173000Y-91005000D02*
X165173000Y-96883000D01*
X161853000Y-104769000D02*
X161859000Y-104775000D01*
X165173000Y-96883000D02*
X161853000Y-100203000D01*
X164098000Y-90664000D02*
X164832000Y-90664000D01*
%TO.N,EXTGPIO2*%
X152541000Y-90664000D02*
X155498000Y-90664000D01*
X149987000Y-93472000D02*
X149987000Y-93218000D01*
X149987000Y-93218000D02*
X152541000Y-90664000D01*
%TO.N,uC_TX*%
X169799000Y-69596000D02*
X170053000Y-69596000D01*
X165177000Y-86664000D02*
X164098000Y-86664000D01*
X168656000Y-83185000D02*
X169291000Y-82550000D01*
X172974000Y-66675000D02*
X175387000Y-66675000D01*
X170053000Y-69596000D02*
X172974000Y-66675000D01*
X168656000Y-85320500D02*
X168656000Y-83185000D01*
X169291000Y-82550000D02*
X165177000Y-86664000D01*
%TO.N,SS1*%
X155092400Y-78409800D02*
X155092400Y-79324200D01*
X160998000Y-84364000D02*
X160998000Y-81646500D01*
X156090000Y-76588000D02*
X156090000Y-73331500D01*
X155092400Y-78409800D02*
X156090000Y-77412200D01*
X160998000Y-81646500D02*
X160528000Y-81176500D01*
X155092400Y-79324200D02*
X156944700Y-81176500D01*
X156090000Y-77412200D02*
X156090000Y-76588000D01*
X156944700Y-81176500D02*
X160528000Y-81176500D01*
%TO.N,MOSI1*%
X148463000Y-85226305D02*
X148463000Y-102565569D01*
X152908000Y-79881604D02*
X154401396Y-81375000D01*
X153035000Y-77597000D02*
X153035000Y-76835000D01*
X156442701Y-81375000D02*
X158598000Y-83530299D01*
X151638000Y-82051305D02*
X148463000Y-85226305D01*
X154609431Y-108712000D02*
X165100000Y-108712000D01*
X158598000Y-83530299D02*
X158598000Y-84364000D01*
X152908000Y-77724000D02*
X152908000Y-79881604D01*
X148463000Y-102565569D02*
X154609431Y-108712000D01*
X154401396Y-81375000D02*
X156442701Y-81375000D01*
X153924000Y-75946000D02*
X155440000Y-74430000D01*
X153035000Y-76835000D02*
X153924000Y-75946000D01*
X153035000Y-77597000D02*
X152908000Y-77724000D01*
X151638000Y-81407000D02*
X151638000Y-82051305D01*
X155440000Y-74430000D02*
X155440000Y-73331500D01*
%TO.N,MISO1*%
X152363000Y-83084298D02*
X148913000Y-86534298D01*
X148913000Y-86534298D02*
X148913000Y-102379173D01*
X152236000Y-75230305D02*
X151053800Y-76412505D01*
X156256305Y-81825000D02*
X157798000Y-83366695D01*
X154790000Y-74119111D02*
X154467611Y-74441500D01*
X154215000Y-81825000D02*
X156256305Y-81825000D01*
X153015500Y-74441500D02*
X152236000Y-75221000D01*
X152363000Y-79973000D02*
X152363000Y-83084298D01*
X152236000Y-79846000D02*
X154215000Y-81825000D01*
X154467611Y-74441500D02*
X153015500Y-74441500D01*
X152236000Y-79846000D02*
X152363000Y-79973000D01*
X151053800Y-78663800D02*
X152236000Y-79846000D01*
X157798000Y-83366695D02*
X157798000Y-84364000D01*
X154356827Y-107823000D02*
X165227000Y-107696000D01*
X151053800Y-76412505D02*
X151053800Y-78663800D01*
X152236000Y-75230305D02*
X152236000Y-75221000D01*
X148913000Y-102379173D02*
X154356827Y-107823000D01*
X154790000Y-73331500D02*
X154790000Y-74119111D01*
%TO.N,EXTGPIO3*%
X155498000Y-91464000D02*
X153265000Y-91464000D01*
X153265000Y-91464000D02*
X149987000Y-94488000D01*
%TO.N,EXTGPIO4*%
X156998000Y-92964000D02*
X154897000Y-95065000D01*
X154897000Y-95065000D02*
X151061000Y-95065000D01*
X151061000Y-95065000D02*
X149987000Y-95885000D01*
%TO.N,Net-(D2-K)*%
X139763993Y-78856000D02*
X140282994Y-79375001D01*
X139445701Y-78856000D02*
X139763993Y-78856000D01*
X140282994Y-79375001D02*
X141605001Y-79375001D01*
X142549999Y-80319999D02*
X142549999Y-81286350D01*
X141605001Y-79375001D02*
X142549999Y-80319999D01*
X138430000Y-77840299D02*
X139445701Y-78856000D01*
X138430000Y-74427000D02*
X138430000Y-77840299D01*
X137033000Y-73030000D02*
X138430000Y-74427000D01*
%TO.N,Net-(D1-K)*%
X137936305Y-77983000D02*
X139259305Y-79306000D01*
X136652000Y-77983000D02*
X137936305Y-77983000D01*
X140096598Y-79825001D02*
X141410200Y-79825001D01*
X139259305Y-79306000D02*
X139577597Y-79306000D01*
X141410200Y-79825001D02*
X141900001Y-80314802D01*
X139577597Y-79306000D02*
X140096598Y-79825001D01*
X141900001Y-80314802D02*
X141900001Y-81286350D01*
%TO.N,Net-(D4-K)*%
X197231000Y-77964000D02*
X198261000Y-78994000D01*
%TO.N,Net-(U5-TXD)*%
X138199500Y-88836150D02*
X138650000Y-88385650D01*
X138199500Y-90678000D02*
X138199500Y-88836150D01*
%TO.N,Net-(U5-RXD)*%
X141249999Y-89391300D02*
X141249999Y-88385650D01*
X168656000Y-87145500D02*
X166774500Y-87145500D01*
X141605000Y-89746301D02*
X141249999Y-89391300D01*
X166624000Y-86868000D02*
X166624000Y-86995000D01*
X166774500Y-87145500D02*
X166624000Y-86868000D01*
X141605000Y-90297000D02*
X141605000Y-89746301D01*
%TO.N,Net-(D1-A)*%
X135255000Y-74046000D02*
X136652000Y-75443000D01*
X136120500Y-67945000D02*
X135255000Y-68810500D01*
X135255000Y-68810500D02*
X135255000Y-74046000D01*
%TO.N,Net-(D2-A)*%
X139417500Y-70490000D02*
X137033000Y-70490000D01*
X140184500Y-69723000D02*
X139417500Y-70490000D01*
%TD*%
%TA.AperFunction,Conductor*%
%TO.N,+5V*%
G36*
X201614000Y-63770613D02*
G01*
X201659387Y-63816000D01*
X201676000Y-63878000D01*
X201676000Y-69090000D01*
X201659387Y-69152000D01*
X201614000Y-69197387D01*
X201552000Y-69214000D01*
X199231000Y-69214000D01*
X199231000Y-71890000D01*
X199214387Y-71952000D01*
X199169000Y-71997387D01*
X199107000Y-72014000D01*
X195355000Y-72014000D01*
X195293000Y-71997387D01*
X195247613Y-71952000D01*
X195231000Y-71890000D01*
X195231000Y-69214000D01*
X192731000Y-69214000D01*
X192731000Y-72520000D01*
X192714387Y-72582000D01*
X192669000Y-72627387D01*
X192607000Y-72644000D01*
X192532000Y-72644000D01*
X192532000Y-74171000D01*
X192515387Y-74233000D01*
X192470000Y-74278387D01*
X192408000Y-74295000D01*
X191634329Y-74295000D01*
X191590995Y-74287182D01*
X191580332Y-74283205D01*
X191580331Y-74283204D01*
X191445483Y-74232909D01*
X191385873Y-74226500D01*
X191385869Y-74226500D01*
X188090130Y-74226500D01*
X188030515Y-74232909D01*
X187885004Y-74287182D01*
X187841671Y-74295000D01*
X187198000Y-74295000D01*
X187198000Y-74806000D01*
X187181387Y-74868000D01*
X187136000Y-74913387D01*
X187074000Y-74930000D01*
X181861000Y-74930000D01*
X181799000Y-74913387D01*
X181753613Y-74868000D01*
X181737000Y-74806000D01*
X181737000Y-73670500D01*
X181753613Y-73608500D01*
X181799000Y-73563113D01*
X181861000Y-73546500D01*
X185312036Y-73546499D01*
X185312272Y-73546499D01*
X185371883Y-73540091D01*
X185506731Y-73489796D01*
X185621946Y-73403546D01*
X185708196Y-73288331D01*
X185758491Y-73153483D01*
X185764900Y-73093873D01*
X185764899Y-72897881D01*
X185777963Y-72842484D01*
X185814402Y-72798757D01*
X185866533Y-72775918D01*
X189357000Y-72136000D01*
X189357000Y-63878000D01*
X189373613Y-63816000D01*
X189419000Y-63770613D01*
X189481000Y-63754000D01*
X201552000Y-63754000D01*
X201614000Y-63770613D01*
G37*
%TD.AperFunction*%
%TD*%
%TA.AperFunction,Conductor*%
%TO.N,+5V*%
G36*
X146692363Y-73684784D02*
G01*
X146733027Y-73711844D01*
X147309081Y-74287898D01*
X147335961Y-74328126D01*
X147345400Y-74375579D01*
X147345400Y-75528340D01*
X147328944Y-75590068D01*
X147283944Y-75635411D01*
X147222343Y-75652335D01*
X140790142Y-75701249D01*
X140727745Y-75684954D01*
X140681970Y-75639526D01*
X140665200Y-75577254D01*
X140665200Y-73844060D01*
X140681656Y-73782332D01*
X140726656Y-73736989D01*
X140788256Y-73720064D01*
X146644411Y-73675530D01*
X146692363Y-73684784D01*
G37*
%TD.AperFunction*%
%TD*%
%TA.AperFunction,Conductor*%
%TO.N,GND*%
G36*
X181350819Y-75193439D02*
G01*
X181391047Y-75220319D01*
X181441557Y-75270829D01*
X181490651Y-75308500D01*
X181546250Y-75351163D01*
X181668166Y-75401662D01*
X181730166Y-75418275D01*
X181828081Y-75431166D01*
X181860999Y-75435500D01*
X181861000Y-75435500D01*
X185169000Y-75435500D01*
X185231000Y-75452113D01*
X185276387Y-75497500D01*
X185293000Y-75559500D01*
X185293000Y-76332500D01*
X185276387Y-76394500D01*
X185231000Y-76439887D01*
X185169000Y-76456500D01*
X181098999Y-76456500D01*
X180968169Y-76473724D01*
X180906161Y-76490339D01*
X180784250Y-76540836D01*
X180679557Y-76621170D01*
X180634170Y-76666557D01*
X180543898Y-76784202D01*
X180542599Y-76783205D01*
X180532269Y-76798671D01*
X180492037Y-76825558D01*
X180444577Y-76835000D01*
X177800000Y-76835000D01*
X177800000Y-75184000D01*
X179197000Y-75184000D01*
X181303366Y-75184000D01*
X181350819Y-75193439D01*
G37*
%TD.AperFunction*%
%TD*%
%TA.AperFunction,Conductor*%
%TO.N,GND*%
G36*
X187517000Y-62754613D02*
G01*
X187562387Y-62800000D01*
X187579000Y-62862000D01*
X187579000Y-71844708D01*
X187565936Y-71900108D01*
X187529497Y-71943835D01*
X187477361Y-71966675D01*
X185775381Y-72278703D01*
X185663676Y-72312906D01*
X185611557Y-72335740D01*
X185510700Y-72394658D01*
X185426063Y-72475145D01*
X185389625Y-72518871D01*
X185325720Y-72616635D01*
X185285960Y-72726452D01*
X185272895Y-72781853D01*
X185259399Y-72897888D01*
X185259399Y-72916999D01*
X185242786Y-72978999D01*
X185197399Y-73024386D01*
X185135399Y-73040999D01*
X181860999Y-73040999D01*
X181730169Y-73058224D01*
X181668161Y-73074839D01*
X181546250Y-73125336D01*
X181441557Y-73205670D01*
X181404547Y-73242681D01*
X181364319Y-73269561D01*
X181316866Y-73279000D01*
X179197000Y-73279000D01*
X179197000Y-75184000D01*
X177800000Y-75184000D01*
X177800000Y-76835000D01*
X179197000Y-76835000D01*
X179197000Y-81756816D01*
X179190419Y-81796675D01*
X179171376Y-81832302D01*
X179156836Y-81851250D01*
X179106339Y-81973161D01*
X179089724Y-82035169D01*
X179072500Y-82165999D01*
X179072500Y-88268001D01*
X179089724Y-88398830D01*
X179106339Y-88460838D01*
X179156836Y-88582749D01*
X179171376Y-88601698D01*
X179190419Y-88637325D01*
X179197000Y-88677184D01*
X179197000Y-88773000D01*
X179292816Y-88773000D01*
X179332675Y-88779581D01*
X179368302Y-88798624D01*
X179387250Y-88813163D01*
X179509166Y-88863662D01*
X179571166Y-88880275D01*
X179669291Y-88893193D01*
X179701999Y-88897500D01*
X179702000Y-88897500D01*
X193678000Y-88897500D01*
X193740000Y-88914113D01*
X193785387Y-88959500D01*
X193802000Y-89021500D01*
X193802000Y-102616000D01*
X197998500Y-102616000D01*
X198060500Y-102632613D01*
X198105887Y-102678000D01*
X198122500Y-102740000D01*
X198122500Y-103635001D01*
X198139724Y-103765830D01*
X198156339Y-103827838D01*
X198206836Y-103949749D01*
X198221376Y-103968698D01*
X198240419Y-104004325D01*
X198247000Y-104044184D01*
X198247000Y-104140000D01*
X198342816Y-104140000D01*
X198382675Y-104146581D01*
X198418302Y-104165624D01*
X198437250Y-104180163D01*
X198559166Y-104230662D01*
X198621166Y-104247275D01*
X198719291Y-104260193D01*
X198751999Y-104264500D01*
X201425000Y-104264500D01*
X201487000Y-104281113D01*
X201532387Y-104326500D01*
X201549000Y-104388500D01*
X201549000Y-109096503D01*
X201532471Y-109158357D01*
X201487291Y-109203722D01*
X201425504Y-109220502D01*
X200406482Y-109224643D01*
X200368933Y-109218981D01*
X200334858Y-109202221D01*
X200333542Y-109201299D01*
X200135231Y-109108825D01*
X199923874Y-109052192D01*
X199705900Y-109033122D01*
X199487925Y-109052192D01*
X199276568Y-109108825D01*
X199078261Y-109201298D01*
X199068763Y-109207948D01*
X199035170Y-109224555D01*
X198998149Y-109230368D01*
X172710324Y-109337230D01*
X170431503Y-109346493D01*
X170369291Y-109330050D01*
X170323697Y-109284640D01*
X170307000Y-109222495D01*
X170307000Y-108536183D01*
X170312739Y-108498896D01*
X170329424Y-108465061D01*
X170330053Y-108464161D01*
X170338402Y-108452239D01*
X170430875Y-108253930D01*
X170487507Y-108042577D01*
X170506577Y-107824600D01*
X170487507Y-107606623D01*
X170430875Y-107395270D01*
X170377496Y-107280799D01*
X195304656Y-107280799D01*
X195325191Y-107528616D01*
X195325191Y-107528619D01*
X195325192Y-107528621D01*
X195386237Y-107769681D01*
X195410327Y-107824600D01*
X195486125Y-107997404D01*
X195486127Y-107997407D01*
X195622136Y-108205585D01*
X195790556Y-108388538D01*
X195790559Y-108388540D01*
X195986785Y-108541270D01*
X195986787Y-108541271D01*
X195986791Y-108541274D01*
X196205490Y-108659628D01*
X196440686Y-108740371D01*
X196685965Y-108781300D01*
X196934635Y-108781300D01*
X197179914Y-108740371D01*
X197415110Y-108659628D01*
X197633809Y-108541274D01*
X197830044Y-108388538D01*
X197998464Y-108205585D01*
X198134473Y-107997407D01*
X198234363Y-107769681D01*
X198295408Y-107528621D01*
X198315943Y-107280800D01*
X198295408Y-107032979D01*
X198234363Y-106791919D01*
X198134473Y-106564193D01*
X197998464Y-106356015D01*
X197830044Y-106173062D01*
X197725224Y-106091477D01*
X197633814Y-106020329D01*
X197633810Y-106020326D01*
X197633809Y-106020326D01*
X197415110Y-105901972D01*
X197415106Y-105901970D01*
X197415105Y-105901970D01*
X197179915Y-105821229D01*
X196934635Y-105780300D01*
X196685965Y-105780300D01*
X196440684Y-105821229D01*
X196205494Y-105901970D01*
X196205490Y-105901971D01*
X196205490Y-105901972D01*
X196163217Y-105924849D01*
X195986785Y-106020329D01*
X195790559Y-106173059D01*
X195622137Y-106356014D01*
X195486125Y-106564195D01*
X195410108Y-106737498D01*
X195386237Y-106791919D01*
X195329055Y-107017723D01*
X195325191Y-107032983D01*
X195304656Y-107280799D01*
X170377496Y-107280799D01*
X170338402Y-107196962D01*
X170329424Y-107184140D01*
X170312739Y-107150305D01*
X170307000Y-107113018D01*
X170307000Y-106045000D01*
X170307001Y-106044638D01*
X170307072Y-106020329D01*
X170307144Y-105995609D01*
X170312938Y-105958514D01*
X170329572Y-105924849D01*
X170338401Y-105912240D01*
X170338402Y-105912239D01*
X170430875Y-105713930D01*
X170487507Y-105502577D01*
X170506577Y-105284600D01*
X170487507Y-105066623D01*
X170430875Y-104855270D01*
X170338402Y-104656962D01*
X170338401Y-104656961D01*
X170338400Y-104656958D01*
X170333722Y-104650277D01*
X170316982Y-104616269D01*
X170311299Y-104578796D01*
X170314624Y-103444920D01*
X170320418Y-103407830D01*
X170337052Y-103374166D01*
X170338402Y-103372239D01*
X170430875Y-103173930D01*
X170487507Y-102962577D01*
X170506577Y-102744600D01*
X170487507Y-102526623D01*
X170430875Y-102315270D01*
X170338402Y-102116962D01*
X170333818Y-102107131D01*
X170334272Y-102106919D01*
X170324400Y-102086862D01*
X170318717Y-102049386D01*
X170329600Y-98338237D01*
X170341215Y-98286205D01*
X170430875Y-98093930D01*
X170487507Y-97882577D01*
X170506577Y-97664600D01*
X170487507Y-97446623D01*
X170430875Y-97235270D01*
X170345145Y-97051422D01*
X170333528Y-96998656D01*
X170337096Y-95782163D01*
X170348711Y-95730130D01*
X170430875Y-95553930D01*
X170487507Y-95342577D01*
X170506577Y-95124600D01*
X170499911Y-95048400D01*
X185750622Y-95048400D01*
X185769692Y-95266374D01*
X185769693Y-95266377D01*
X185826325Y-95477730D01*
X185918798Y-95676039D01*
X186044302Y-95855277D01*
X186199023Y-96009998D01*
X186378261Y-96135502D01*
X186576570Y-96227975D01*
X186787923Y-96284607D01*
X187005900Y-96303677D01*
X187223877Y-96284607D01*
X187435230Y-96227975D01*
X187633539Y-96135502D01*
X187812777Y-96009998D01*
X187967498Y-95855277D01*
X188093002Y-95676039D01*
X188185475Y-95477730D01*
X188242107Y-95266377D01*
X188261177Y-95048400D01*
X188242107Y-94830423D01*
X188185475Y-94619070D01*
X188093002Y-94420762D01*
X187967498Y-94241523D01*
X187812777Y-94086802D01*
X187633539Y-93961298D01*
X187477194Y-93888393D01*
X187435231Y-93868825D01*
X187223874Y-93812192D01*
X187005900Y-93793122D01*
X186787925Y-93812192D01*
X186576568Y-93868825D01*
X186378261Y-93961298D01*
X186199022Y-94086802D01*
X186044302Y-94241522D01*
X185918798Y-94420761D01*
X185826325Y-94619068D01*
X185769692Y-94830425D01*
X185750622Y-95048400D01*
X170499911Y-95048400D01*
X170487507Y-94906623D01*
X170430875Y-94695270D01*
X170352546Y-94527294D01*
X170340930Y-94474532D01*
X170411799Y-70308426D01*
X170420100Y-70264184D01*
X170443645Y-70225824D01*
X170531533Y-70128216D01*
X170626179Y-69964284D01*
X170644353Y-69908348D01*
X170674600Y-69858988D01*
X173196771Y-67336819D01*
X173237000Y-67309939D01*
X173284453Y-67300500D01*
X174224152Y-67300500D01*
X174261439Y-67306239D01*
X174295275Y-67322925D01*
X174378359Y-67381101D01*
X174378360Y-67381101D01*
X174378361Y-67381102D01*
X174576670Y-67473575D01*
X174788023Y-67530207D01*
X175006000Y-67549277D01*
X175223977Y-67530207D01*
X175435330Y-67473575D01*
X175633639Y-67381102D01*
X175812877Y-67255598D01*
X175967598Y-67100877D01*
X176093102Y-66921639D01*
X176185575Y-66723330D01*
X176242207Y-66511977D01*
X176261277Y-66294000D01*
X176242207Y-66076023D01*
X176185575Y-65864670D01*
X176093102Y-65666362D01*
X175967598Y-65487123D01*
X175812877Y-65332402D01*
X175633639Y-65206898D01*
X175542205Y-65164261D01*
X175435331Y-65114425D01*
X175223974Y-65057792D01*
X175133108Y-65049842D01*
X175068429Y-65024690D01*
X175027394Y-64968724D01*
X175022855Y-64899475D01*
X175056233Y-64838635D01*
X177120550Y-62774319D01*
X177160779Y-62747439D01*
X177208232Y-62738000D01*
X187455000Y-62738000D01*
X187517000Y-62754613D01*
G37*
%TD.AperFunction*%
%TD*%
%TA.AperFunction,Conductor*%
%TO.N,Net-(D3-A)*%
G36*
X143702000Y-95520613D02*
G01*
X143747387Y-95566000D01*
X143764000Y-95628000D01*
X143764000Y-100968000D01*
X143747387Y-101030000D01*
X143702000Y-101075387D01*
X143640000Y-101092000D01*
X135660500Y-101092000D01*
X135598500Y-101075387D01*
X135553113Y-101030000D01*
X135536500Y-100968000D01*
X135536500Y-98052500D01*
X135553113Y-97990500D01*
X135598500Y-97945113D01*
X135660500Y-97928500D01*
X135730648Y-97928500D01*
X135854084Y-97902262D01*
X135915803Y-97889144D01*
X136088730Y-97812151D01*
X136241871Y-97700888D01*
X136368533Y-97560216D01*
X136463179Y-97396284D01*
X136521674Y-97216256D01*
X136539321Y-97048344D01*
X136550721Y-97007925D01*
X136574958Y-96973630D01*
X136705586Y-96843002D01*
X136721686Y-96830105D01*
X136723674Y-96827987D01*
X136723677Y-96827986D01*
X136769106Y-96779607D01*
X136804522Y-96753346D01*
X136846893Y-96741136D01*
X136924597Y-96733199D01*
X137091134Y-96678014D01*
X137240456Y-96585912D01*
X137364512Y-96461856D01*
X137456614Y-96312534D01*
X137511799Y-96145997D01*
X137522300Y-96043209D01*
X137522299Y-95627998D01*
X137538912Y-95566000D01*
X137584299Y-95520613D01*
X137646299Y-95504000D01*
X143640000Y-95504000D01*
X143702000Y-95520613D01*
G37*
%TD.AperFunction*%
%TD*%
%TA.AperFunction,Conductor*%
%TO.N,+BATT*%
G36*
X185291782Y-78851710D02*
G01*
X185300640Y-78852662D01*
X185309397Y-78853920D01*
X185323508Y-78856467D01*
X185323512Y-78856467D01*
X185323516Y-78856468D01*
X185413263Y-78864500D01*
X185413268Y-78864500D01*
X186357308Y-78864500D01*
X186415248Y-78878869D01*
X186459759Y-78918645D01*
X186629215Y-79167180D01*
X186968934Y-79665436D01*
X186974673Y-79674703D01*
X187584658Y-80763962D01*
X188087000Y-81661000D01*
X188630675Y-81655918D01*
X188646850Y-81656828D01*
X188658158Y-81658209D01*
X188660533Y-81658500D01*
X201552000Y-81658500D01*
X201614000Y-81675113D01*
X201659387Y-81720500D01*
X201676000Y-81782500D01*
X201676000Y-103635000D01*
X201659387Y-103697000D01*
X201614000Y-103742387D01*
X201552000Y-103759000D01*
X198752000Y-103759000D01*
X198690000Y-103742387D01*
X198644613Y-103697000D01*
X198628000Y-103635000D01*
X198628000Y-102108000D01*
X194815000Y-102108000D01*
X194753000Y-102091387D01*
X194707613Y-102046000D01*
X194691000Y-101984000D01*
X194691000Y-88392000D01*
X179702000Y-88392000D01*
X179640000Y-88375387D01*
X179594613Y-88330000D01*
X179578000Y-88268000D01*
X179578000Y-82166000D01*
X179594613Y-82104000D01*
X179640000Y-82058613D01*
X179702000Y-82042000D01*
X180975000Y-82042000D01*
X180975000Y-78988500D01*
X180991613Y-78926500D01*
X181037000Y-78881113D01*
X181099000Y-78864500D01*
X181715538Y-78864500D01*
X181781272Y-78858616D01*
X181805293Y-78856467D01*
X181819419Y-78853917D01*
X181828164Y-78852661D01*
X181833642Y-78852072D01*
X181837028Y-78851709D01*
X181850266Y-78851000D01*
X185278532Y-78851000D01*
X185291782Y-78851710D01*
G37*
%TD.AperFunction*%
%TD*%
%TA.AperFunction,Conductor*%
%TO.N,GND*%
G36*
X145862819Y-76752178D02*
G01*
X145908556Y-76802825D01*
X145920569Y-76870002D01*
X145916300Y-76911791D01*
X145916300Y-77536808D01*
X145926800Y-77639596D01*
X145981986Y-77806134D01*
X146006139Y-77845293D01*
X146024600Y-77910389D01*
X146024600Y-78179052D01*
X146008631Y-78239924D01*
X145964835Y-78285117D01*
X145904495Y-78302991D01*
X145879369Y-78303780D01*
X145877511Y-78303839D01*
X145873618Y-78303900D01*
X145846049Y-78303900D01*
X145842070Y-78304402D01*
X145830440Y-78305317D01*
X145786771Y-78306689D01*
X145767527Y-78312280D01*
X145748483Y-78316224D01*
X145728607Y-78318735D01*
X145687999Y-78334813D01*
X145676953Y-78338594D01*
X145651681Y-78345938D01*
X145635006Y-78350783D01*
X145617764Y-78360979D01*
X145600303Y-78369533D01*
X145581666Y-78376912D01*
X145546330Y-78402585D01*
X145536573Y-78408995D01*
X145498979Y-78431229D01*
X145484812Y-78445396D01*
X145470023Y-78458026D01*
X145453812Y-78469804D01*
X145425971Y-78503458D01*
X145418110Y-78512097D01*
X144974854Y-78955352D01*
X144917171Y-78987988D01*
X144850919Y-78986253D01*
X144795023Y-78950643D01*
X144784370Y-78938811D01*
X144631230Y-78827549D01*
X144458302Y-78750556D01*
X144273148Y-78711201D01*
X144273146Y-78711201D01*
X144083854Y-78711201D01*
X144083852Y-78711201D01*
X143898697Y-78750556D01*
X143725769Y-78827549D01*
X143572629Y-78938811D01*
X143445966Y-79079484D01*
X143351320Y-79243416D01*
X143292826Y-79423443D01*
X143292825Y-79423445D01*
X143292826Y-79423445D01*
X143278782Y-79557073D01*
X143272214Y-79619562D01*
X143251694Y-79675940D01*
X143207107Y-79716086D01*
X143148893Y-79730600D01*
X142896552Y-79730600D01*
X142849099Y-79721161D01*
X142808871Y-79694281D01*
X142327398Y-79212807D01*
X142301530Y-79174953D01*
X142291187Y-79130292D01*
X142290800Y-79121000D01*
X142290799Y-79121000D01*
X142286953Y-79121000D01*
X142239500Y-79111561D01*
X142199272Y-79084681D01*
X142105803Y-78991212D01*
X142092907Y-78975114D01*
X142041776Y-78927099D01*
X142038979Y-78924388D01*
X142019471Y-78904880D01*
X142016291Y-78902413D01*
X142007425Y-78894840D01*
X141975583Y-78864939D01*
X141958025Y-78855286D01*
X141941765Y-78844605D01*
X141925937Y-78832328D01*
X141885852Y-78814981D01*
X141875362Y-78809842D01*
X141837092Y-78788803D01*
X141817692Y-78783822D01*
X141799285Y-78777520D01*
X141780898Y-78769563D01*
X141737759Y-78762730D01*
X141726325Y-78760362D01*
X141684020Y-78749501D01*
X141663985Y-78749501D01*
X141644587Y-78747974D01*
X141637163Y-78746798D01*
X141624806Y-78744841D01*
X141624805Y-78744841D01*
X141591752Y-78747965D01*
X141581326Y-78748951D01*
X141569657Y-78749501D01*
X140593447Y-78749501D01*
X140545994Y-78740062D01*
X140505766Y-78713182D01*
X140264795Y-78472211D01*
X140251899Y-78456113D01*
X140200768Y-78408098D01*
X140197971Y-78405387D01*
X140178463Y-78385879D01*
X140175283Y-78383412D01*
X140166418Y-78375841D01*
X140138477Y-78349602D01*
X140109044Y-78307246D01*
X140099391Y-78256579D01*
X140124956Y-77055021D01*
X140129218Y-76854762D01*
X140146693Y-76793883D01*
X140191953Y-76749576D01*
X140253190Y-76733400D01*
X145797211Y-76733400D01*
X145862819Y-76752178D01*
G37*
%TD.AperFunction*%
%TD*%
%TA.AperFunction,Conductor*%
%TO.N,Net-(D4-K)*%
G36*
X192669000Y-75454613D02*
G01*
X192714387Y-75500000D01*
X192731000Y-75562000D01*
X192731000Y-78614000D01*
X195231000Y-78614000D01*
X195231000Y-75938000D01*
X195247613Y-75876000D01*
X195293000Y-75830613D01*
X195355000Y-75814000D01*
X199107000Y-75814000D01*
X199169000Y-75830613D01*
X199214387Y-75876000D01*
X199231000Y-75938000D01*
X199231000Y-78614000D01*
X201605636Y-78614000D01*
X201668430Y-78631075D01*
X201713930Y-78677597D01*
X201729605Y-78740755D01*
X201678694Y-81031755D01*
X201661182Y-81092584D01*
X201615928Y-81136843D01*
X201554725Y-81153000D01*
X188660534Y-81153000D01*
X188602594Y-81138631D01*
X188558082Y-81098854D01*
X186690001Y-78359000D01*
X186690000Y-78359000D01*
X185413268Y-78359000D01*
X185377033Y-78352462D01*
X185336809Y-78348138D01*
X185312273Y-78345500D01*
X185312269Y-78345500D01*
X181816530Y-78345500D01*
X181751768Y-78352462D01*
X181715533Y-78359000D01*
X181099000Y-78359000D01*
X181037000Y-78342387D01*
X180991613Y-78297000D01*
X180975000Y-78235000D01*
X180975000Y-77086000D01*
X180991613Y-77024000D01*
X181037000Y-76978613D01*
X181099000Y-76962000D01*
X186690000Y-76962000D01*
X186690000Y-75562000D01*
X186706613Y-75500000D01*
X186752000Y-75454613D01*
X186814000Y-75438000D01*
X192607000Y-75438000D01*
X192669000Y-75454613D01*
G37*
%TD.AperFunction*%
%TD*%
%TA.AperFunction,Conductor*%
%TO.N,+3V3*%
G36*
X158879889Y-68463720D02*
G01*
X158921604Y-68494028D01*
X159033129Y-68617889D01*
X159186269Y-68729151D01*
X159359197Y-68806144D01*
X159544352Y-68845500D01*
X159544354Y-68845500D01*
X159603548Y-68845500D01*
X159651001Y-68854939D01*
X159691229Y-68881819D01*
X160512196Y-69702787D01*
X160525096Y-69718888D01*
X160576223Y-69766900D01*
X160579020Y-69769611D01*
X160598529Y-69789120D01*
X160601711Y-69791588D01*
X160610571Y-69799155D01*
X160642418Y-69829062D01*
X160659970Y-69838711D01*
X160676238Y-69849397D01*
X160704444Y-69871277D01*
X160703681Y-69872259D01*
X160721197Y-69884299D01*
X160747409Y-69924204D01*
X160756600Y-69971054D01*
X160756600Y-70459600D01*
X160828661Y-70459600D01*
X160884165Y-70472716D01*
X160927927Y-70509289D01*
X160963751Y-70557144D01*
X160963754Y-70557146D01*
X161078969Y-70643396D01*
X161213817Y-70693691D01*
X161273427Y-70700100D01*
X162219972Y-70700099D01*
X162279583Y-70693691D01*
X162414431Y-70643396D01*
X162529646Y-70557146D01*
X162573145Y-70499038D01*
X162584730Y-70485668D01*
X162610797Y-70459600D01*
X162610800Y-70459600D01*
X162610800Y-70459597D01*
X162614843Y-70455554D01*
X162618618Y-70434634D01*
X162666190Y-70307085D01*
X162666189Y-70307085D01*
X162666191Y-70307083D01*
X162672600Y-70247473D01*
X162672599Y-69186598D01*
X162689212Y-69124600D01*
X162734599Y-69079213D01*
X162796599Y-69062600D01*
X164874400Y-69062600D01*
X164936400Y-69079213D01*
X164981787Y-69124600D01*
X164998400Y-69186600D01*
X164998400Y-72901000D01*
X164981787Y-72963000D01*
X164936400Y-73008387D01*
X164874400Y-73025000D01*
X164344516Y-73025000D01*
X164305512Y-73018706D01*
X164203797Y-72985000D01*
X164101009Y-72974500D01*
X163050991Y-72974500D01*
X162948203Y-72985000D01*
X162846488Y-73018706D01*
X162807484Y-73025000D01*
X161271116Y-73025000D01*
X161232112Y-73018706D01*
X161130397Y-72985000D01*
X161027609Y-72974500D01*
X159977591Y-72974500D01*
X159874803Y-72985000D01*
X159773088Y-73018706D01*
X159734084Y-73025000D01*
X158289800Y-73025000D01*
X158227800Y-73008387D01*
X158182413Y-72963000D01*
X158165800Y-72901000D01*
X158165800Y-70027815D01*
X158160782Y-69872259D01*
X158119128Y-68580998D01*
X158134370Y-68517323D01*
X158179914Y-68470285D01*
X158243065Y-68453000D01*
X158829454Y-68453000D01*
X158879889Y-68463720D01*
G37*
%TD.AperFunction*%
%TD*%
M02*
